<svg id="Calque_1" data-name="Calque 1" xmlns="http://www.w3.org/2000/svg" viewBox="0 0 167.24 257.95">
    <defs>
        <style>
            .cls-1{fill:#fefefe;}.cls-2{fill:#101a1c;}.cls-3{fill:#111516;}.cls-4{fill:#edeff1;}.cls-5{fill:#ebecee;}.cls-6{fill:#665eb7;}.cls-7{fill:#6e8ac9;}.cls-8{fill:#6179b8;}.cls-9{fill:#6a84c4;}.cls-10{fill:#42398f;}.cls-11{fill:#5a6ab8;}.cls-12{fill:#6276bd;}.cls-13{fill:#433796;}.cls-14{fill:#607abc;}.cls-15{fill:#41449a;}.cls-16{fill:#596eb9;}.cls-17{fill:#403691;}.cls-18{fill:#526cb1;}.cls-19{fill:#455aae;}.cls-20{fill:#4f59a0;}.cls-21{fill:#443892;}.cls-22{fill:#52469c;}.cls-23{fill:#676dc1;}.cls-24{fill:#565395;}.cls-25{fill:#433499;}.cls-26{fill:#463b81;}.cls-27{fill:#5971a1;}.cls-28{fill:#4b518d;}.cls-29{fill:#8aa4e2;}.cls-30{fill:#8198db;}.cls-31{fill:#6761b8;}.cls-32{fill:#6c5ebb;}.cls-33{fill:#5b6c9e;}.cls-34{fill:#4e5397;}.cls-35{fill:#433a80;}.cls-36{fill:#443d7b;}.cls-37{fill:#453e7b;}.cls-38{fill:#7089d1;}.cls-39{fill:#695fb3;}.cls-40{fill:#414182;}.cls-41{fill:#696ebf;}.cls-42{fill:#908ea6;}.cls-43{fill:#443c80;}.cls-44{fill:#454078;}.cls-45{fill:#463b7e;}.cls-46{fill:#574e86;}.cls-47{fill:#433e80;}.cls-48{fill:#a1a1b6;}.cls-49{fill:#5f729f;}.cls-50{fill:#413b7b;}.cls-51{fill:#6661b4;}.cls-52{fill:#6a5bc1;}.cls-53{fill:#4b476d;}.cls-54{fill:#f8f8f8;}.cls-55{fill:#40378f;}.cls-56{fill:#3f3690;}.cls-57{fill:#3f3790;}.cls-58{fill:#4a4298;}.cls-59{fill:#493d9a;}.cls-60{fill:#493f89;}.cls-61{fill:#655eb6;}.cls-62{fill:#423f99;}.cls-63{fill:#6053a0;}.cls-64{fill:#7c75ce;}.cls-65{fill:#9eb0dd;}.cls-66{fill:#93aae3;}.cls-67{fill:#7a9ae2;}.cls-68{fill:#f4f6fa;}.cls-69{fill:#7d98d6;}.cls-70{fill:#728bcc;}.cls-71{fill:#5571b6;}.cls-72{fill:#8599da;}.cls-73{fill:#403891;}.cls-74{fill:#665fac;}.cls-75{fill:#625ab7;}.cls-76{fill:#7972cb;}.cls-77{fill:#6b60be;}.cls-78{fill:#5168b1;}.cls-79{fill:#849cde;}.cls-80{fill:#7c91d6;}.cls-81{fill:#859de2;}.cls-82{fill:#7784d7;}.cls-83{fill:#687cc6;}.cls-84{fill:#809adf;}.cls-85{fill:#596bb6;}.cls-86{fill:#8297d2;}.cls-87{fill:#778ad1;}.cls-88{fill:#a2b7f3;}.cls-89{fill:#4c418a;}.cls-90{fill:#6a64b7;}.cls-91{fill:#5969ad;}.cls-92{fill:#8aa0dc;}.cls-93{fill:#8ba0e3;}.cls-94{fill:#7d9add;}.cls-95{fill:#9eb3dc;}.cls-96{fill:#556bb5;}.cls-97{fill:#8196e5;}.cls-98{fill:#758ad8;}.cls-99{fill:#6662a3;}.cls-100{fill:#6e86cb;}.cls-101{fill:#304b8d;}.cls-102{fill:#7b80ce;}.cls-103{fill:#f9f9f9;}.cls-104{fill:#4451a6;}.cls-105{fill:#7587cd;}.cls-106{fill:#433d92;}.cls-107{fill:#4b4286;}.cls-108{fill:#3c3e97;}.cls-109{fill:#424da0;}.cls-110{fill:#686bc6;}.cls-111{fill:#8198cb;}.cls-112{fill:#423d96;}.cls-113{fill:#40329b;}.cls-114{fill:#443595;}.cls-115{fill:#3b3985;}.cls-116{fill:#4353a9;}.cls-117{fill:#433690;}.cls-118{fill:#44369f;}.cls-119{fill:#6c63bd;}.cls-120{fill:#443c94;}.cls-121{fill:#8aa0d4;}.cls-122{fill:#6e84c5;}.cls-123{fill:#6278bf;}.cls-124{fill:#444;}.cls-125{fill:#95ade1;}.cls-126{fill:#52579c;}.cls-127{fill:#4c4c4c;}.cls-128{fill:#f5fceb;}.cls-129{fill:#313131;}.cls-130{fill:#7991d0;}.cls-131{fill:#6a6cbe;}.cls-132{fill:#655db9;}.cls-133{fill:#6c66be;}.cls-134{fill:#6d68bb;}.cls-135{fill:#756ac7;}.cls-136{fill:#6860ba;}.cls-137{fill:#7574ce;}.cls-138{fill:#8da4d7;}.cls-139{fill:#37373a;}.cls-140{fill:#e6edf8;}.cls-141{fill:#889fd4;}.cls-142{fill:#c5d1ed;}.cls-143{fill:#aebfe6;}.cls-144{fill:#ccd9f0;}.cls-145{fill:#eaecf7;}.cls-146{fill:#6a86c7;}.cls-147{fill:#3c3738;}.cls-148{fill:#b9c7e9;}.cls-149{fill:#444346;}.cls-150{fill:#3f3f3f;}.cls-151{fill:#110f0f;}.cls-152{fill:#0c0d09;}.cls-153{fill:#e2e3f2;}.cls-154{fill:#e6ebf2;}.cls-155{fill:#6277a7;}.cls-156{fill:#0c0b0f;}.cls-157{fill:#6962bc;}.cls-158{fill:#635eb5;}.cls-159{fill:#4756a8;}.cls-160{fill:#6c7fc3;}.cls-161{fill:#809bd7;}.cls-162{fill:#8199dc;}.cls-163{fill:#809bd8;}.cls-164{fill:#6b84c4;}.cls-165{fill:#7287d0;}.cls-166{fill:#7b8ed7;}.cls-167{fill:#7689d2;}.cls-168{fill:#5b72ba;}.cls-169{fill:#6c85c7;}.cls-170{fill:#8599d9;}.cls-171{fill:#96aeea;}.cls-172{fill:#abbde1;}.cls-173{fill:#738ecc;}.cls-174{fill:#7b92cf;}.cls-175{fill:#748cc9;}.cls-176{fill:#5b7bc0;}.cls-177{fill:#889ce2;}.cls-178{fill:#afc1f0;}.cls-179{fill:#819ade;}.cls-180{fill:#8ea6e1;}.cls-181{fill:#5e6da2;}.cls-182{fill:#546fb5;}.cls-183{fill:#0f0f0f;}.cls-184{fill:#8497d7;}.cls-185{fill:#525252;}.cls-186{fill:#1f1f1f;}.cls-187{fill:#6877b6;}.cls-188{fill:#555c9e;}.cls-189{fill:#667cab;}.cls-190{fill:#505289;}.cls-191{fill:#5f6eb8;}.cls-192{fill:#6c7dc8;}.cls-193{fill:#707dc7;}.cls-194{fill:#8780d9;}.cls-195{fill:#717acf;}.cls-196{fill:#6964bb;}.cls-197{fill:#8488d4;}.cls-198{fill:#6265ab;}.cls-199{fill:#4751a4;}.cls-200{fill:#7386cf;}.cls-201{fill:#6671c3;}.cls-202{fill:#6574c1;}.cls-203{fill:#666db7;}.cls-204{fill:#716bc4;}.cls-205{fill:#8084d9;}.cls-206{fill:#827dd5;}.cls-207{fill:#736cc7;}.cls-208{fill:#8080d3;}.cls-209{fill:#a7b9e2;}.cls-210{fill:#aabbec;}.cls-211{fill:#8398de;}.cls-212{fill:#849cd2;}.cls-213{fill:#5a72bc;}.cls-214{fill:#040404;}.cls-215{fill:#44479b;}.cls-216{fill:#7288c8;}.cls-217{fill:#656bcc;}.cls-218{fill:#4d60af;}.cls-219{fill:#6d72c8;}.cls-220{fill:#bac9de;}.cls-221{fill:#98ade6;}.cls-222{fill:#c4d3f6;}.cls-223{fill:#617cc2;}.cls-224{fill:#7d98d4;}.cls-225{fill:#7181cd;}.cls-226{fill:#8d99e2;}.cls-227{fill:#93a3e5;}.cls-228{fill:#8fa3e7;}.cls-229{fill:#9ba9e7;}.cls-230{fill:#758bd2;}.cls-231{fill:#7989d2;}.cls-232{fill:#5263ad;}.cls-233{fill:#7081d1;}.cls-234{fill:#7d93d9;}.cls-235{fill:#8296db;}
        </style>
    </defs>
    <g id="_6dAtzo.tif" data-name="6dAtzo.tif">
        <path class="cls-1"
              d="M160.27,1.3a23.06,23.06,0,0,1,3.9,0c1.61.27,4.8-1.61,3.93,2.59a6.34,6.34,0,0,0,0,1.31q0,124.8.1,249.6c0,3.42-.62,4.06-4,4q-79.48-.22-159,.06c-5.31,0-3.7-2.84-3.91-5.42l5.22,2.63H160.27l5.21-5.26V9.18Z"/>
        <ellipse cx="2.6" cy="130.04" rx="1.84" ry="170.93"/>
        <ellipse cx="83.39" cy="2.61" rx="105.04" ry="1.86"/>
        <path d="M157.66,3.92V1.3h2.61l5.21,7.88h-2.61Z"/>
        <path d="M9.11,1.3V3.92L3.9,9.18H1.29V6.55L6.51,1.3Z"/>
        <path class="cls-2" d="M1.29,250.9H9.11v2.63c-.87.88-1.74,1.75-2.6,2.63l-5.22-2.63Z"/>
        <path class="cls-1" d="M6.51,1.3,1.29,6.55C.25,2,2,.24,6.51,1.3Z"/>
        <ellipse cx="164.17" cy="130.04" rx="1.84" ry="170.93"/>
        <path d="M6.51,256.16c.86-.88,1.73-1.75,2.6-2.63H157.66l2.61,2.63Z"/>
        <path class="cls-3" d="M160.27,256.16l-2.61-2.63V250.9h7.82Z"/>
        <path class="cls-4"
              d="M162.87,250.9H3.9V9.18L9.11,3.92H157.66l5.21,5.26ZM11.72,56.47V235.14c0,1.29,0,2.58,0,3.87.21,6.51.21,6.58,5.7,6.62,9.39.06,18.79,0,28.18,0H152.45c.87-1.05,2.37-2,2.48-3.15a97.82,97.82,0,0,0,.12-10V22.32a48.12,48.12,0,0,0-.11-7.41c-.19-1.14-1.62-2.07-2.49-3.1-1.12-.88-2.22-2.48-3.37-2.51-7.36-.23-14.74-.12-22.11-.12-35.13,0-70.26-.06-105.38.13-2.38,0-6.35-2.62-7.27,2.5-.87,1-2.3,2-2.48,3.1a46.88,46.88,0,0,0-.12,7.41V56.47Z"/>
        <ellipse class="cls-5" cx="83.39" cy="252.22" rx="105.04" ry="1.86"/>
        <path class="cls-6"
              d="M14.32,11.81c.92-5.12,4.89-2.49,7.27-2.5C56.71,9.12,91.84,9.18,127,9.18c7.37,0,14.75-.11,22.11.12,1.15,0,2.25,1.63,3.37,2.51h-2.61a91.68,91.68,0,0,0-10.09.13,4.31,4.31,0,0,0-2.81,2.81c-.44,2-.82,4.71.16,6.16.82,1.19,3.73.78,5.55,1.5.85.34,1.33,1.66,2,2.53-3.77-.31-7.35.14-10.43,2.63h-2.6V24.94c.74-.3,2.06-.51,2.12-.93,1.89-12.16,1.87-12.16-10-12.2H100.33c-3,0-5.89,0-8.83,0-6.48.09-6.48.1-6.81,7.88l-7.82-5.26a7.63,7.63,0,0,0,2.44,0,13.32,13.32,0,0,0,2.5-1.53c-.67-.35-1.41-1.07-2-1-2,.33-5.21-1.56-5.53,2.56H66.45l-2-2.62-3.25,2.62H53.42l-2-2.62L48.2,14.43H45.6c-1.22-5.06-5.26-1.62-7.82-2.62l-2.61,2.62-2.6,2.63c-.26-2.22,1.18-5.37-3.12-5.28C24.41,11.89,19.37,11.81,14.32,11.81Z"/>
        <path class="cls-7"
              d="M155.05,116.9v18.4l-15.63-2.63c-1.31-4.56-5.66-7.88-5.22-13.14,2.66.35,5-.12,6.52-2.63s3.86-3,6.52-2.62c.22,3.93,3.23,2.23,5.21,2.62Z"/>
        <path class="cls-8"
              d="M155.05,137.92V164.2h-2.6a6.74,6.74,0,0,1-2.15-.91c-2.81-2.69-4.91-3.49-5.77,1.55-.14.78-1.64,1.33-2.51,2a48,48,0,0,0-.11-7.4c-.19-1.14-1.62-2.08-2.49-3.11-.84-3.41,1.26-5.38,3.43-7.46,2.34-2.24,5.43-4.2,4.39-8.3Z"/>
        <path class="cls-9"
              d="M11.72,137.92V119.53h5.21c4.45-.21,7.78,1.82,10.42,5.26.29,1.6.48,3.22.88,4.79.49,1.93,1.15,3.81,1.73,5.72l-2.61,2.62H11.72Z"/>
        <path class="cls-10"
              d="M45.6,245.65c-9.39,0-18.79,0-28.18,0-5.49,0-5.49-.11-5.7-6.62,0-1.29,0-2.58,0-3.87,2-.4,5,1.3,5.21-2.63H27.35c-.41,4.08,1.1,6.85,5.22,7.88l.85,2.18,1.75-2.18c3.08,2.49,6.66,3,10.43,2.63Z"/>
        <path class="cls-11"
              d="M11.72,177.33v-21h7.82c.22,3.94,3.23,2.24,5.21,2.63.87,1.75,1.74,3.51,2.6,5.26-5,1.23-1.61,5.29-2.6,7.88L22.14,180h-2.6c-.36-1.86,1.18-4.68-2-5.1-1-.13-2.16,1.6-3.25,2.47Z"/>
        <path class="cls-12"
              d="M155.05,82.75V93.26c-5.72-.4-8.13,3.66-10.42,7.88H142q-2.6-3.94-5.21-7.88c-.39-2,1.29-5-2.61-5.26V85.37c1.23-5.06,5.26-1.62,7.82-2.62h13Z"/>
        <path class="cls-13"
              d="M142,245.65h-2.6V243l-2.61-7.88,10.43-7.88a15.49,15.49,0,0,0,0,2.55,12.39,12.39,0,0,0,.8,2.23l1.77-2.16,5.21,2.63a97.82,97.82,0,0,1-.12,10c-.11,1.12-1.61,2.1-2.48,3.15l-.86-2.18-1.75,2.18h-2.6l-2-2.63Z"/>
        <path class="cls-14"
              d="M11.72,98.51V88c4,.42,6.79-1.11,7.82-5.25h2.6L27.35,88c.4,2-1.29,5,2.61,5.26v5.25H11.72Z"/>
        <path class="cls-15"
              d="M155.05,46V61.73H142c0-.86,0-1.71,0-2.56.2-4.18-1.12-9.88,1.05-12.09S150.92,46.19,155.05,46Z"/>
        <path class="cls-16"
              d="M142,166.82c.87-.65,2.37-1.2,2.51-2,.86-5,3-4.24,5.77-1.55a6.74,6.74,0,0,0,2.15.91c.39,2-1.3,5,2.6,5.25v5.26L147.24,180l-2.61-2.63-2-2.62-3.24,2.62-5.22-2.62v-2.63C138.25,172.5,141,171,142,166.82Z"/>
        <path class="cls-17"
              d="M144.63,24.94c-.65-.87-1.13-2.19-2-2.53-1.82-.72-4.73-.31-5.55-1.5-1-1.45-.6-4.15-.16-6.16a4.31,4.31,0,0,1,2.81-2.81,91.68,91.68,0,0,1,10.09-.13c.87,2.89,1.6,5.85,2.69,8.66.32.82,1.65,1.24,2.52,1.85v2.62H144.63Z"/>
        <path class="cls-18"
              d="M155.05,116.9h-2.6c-.22-3.93-3.24-2.23-5.21-2.62-3.43-3.87-2.54-8.6-2.61-13.14a34.31,34.31,0,0,0,5.56-1.77,36.09,36.09,0,0,0,4.86-3.49Z"/>
        <path class="cls-19" d="M19.54,82.75c-1,4.14-3.78,5.67-7.82,5.25V64.35h2.6V67l5.22,7.88v7.89Z"/>
        <path class="cls-20" d="M147.24,180l7.81-5.25v21h-2.6c-.87-1.09-1.67-2.25-2.63-3.25a22,22,0,0,0-2.58-2Z"/>
        <path class="cls-21"
              d="M126.39,245.65H116c-.87-.88-1.74-1.75-2.6-2.63.62-.88,1.39-2.58,1.84-2.5,6.48,1.2,11.09-3.14,16.4-5.38h2.6l2.61,7.88a46,46,0,0,0-7.34.12C128.34,243.32,127.41,244.77,126.39,245.65Z"/>
        <path class="cls-22" d="M155.05,232.51l-5.21-2.63-2.6-2.62v-2.63c-.45-5.26,3.9-8.58,5.21-13.14h2.6Z"/>
        <path class="cls-23"
              d="M155.05,46c-4.13.23-9.81-1.08-12,1.12S142.23,55,142,59.17c0,.85,0,1.7,0,2.56h-2.6c-.52-6.18,1.69-12.76-2.61-18.4h18.24Z"/>
        <path class="cls-24"
              d="M105.54,245.65H84.69V243l-2.61-5.25c1.28,0,3.1-.56,3.76.08,5.65,5.55,12.61,5.5,19.7,5.17Z"/>
        <ellipse class="cls-25" cx="152.45" cy="35.45" rx="3.69" ry="11.15"/>
        <path class="cls-26"
              d="M11.72,46v-21l5.21,2.63c-.54,1-1,2-1.62,2.93-1.55,2.37-2,4.31,1.62,5-.28,1.6-.48,3.23-.87,4.8-.49,1.92-1.15,3.81-1.74,5.71Z"/>
        <path class="cls-27"
              d="M16.93,119.53H11.72V101.14c3.9.22,2.21,3.26,2.6,5.25C17.75,110.26,16.86,115,16.93,119.53Z"/>
        <path class="cls-28" d="M11.72,177.33h2.6v21h-2.6Z"/>
        <path class="cls-29" d="M155.05,137.92l-7.81,2.63c-1-4.15-3.78-5.68-7.82-5.25v-2.63l15.63,2.63Z"/>
        <path class="cls-30"
              d="M14.32,106.39c-.39-2,1.3-5-2.6-5.25V98.51H27.35c-.62.88-1.13,2.39-1.88,2.53C19.71,102.05,17.08,103.2,14.32,106.39Z"/>
        <path class="cls-31" d="M45.6,245.65V229.88l5.21-2.62v2.62l-2.61,5.26v10.51Z"/>
        <path class="cls-32"
              d="M16.93,27.57l-5.21-2.63V22.32H30l-2.61,2.62a46,46,0,0,0-7.34.12C18.88,25.25,18,26.69,16.93,27.57Z"/>
        <path class="cls-33" d="M14.32,156.31h-2.6V137.92h2.6v18.39Z"/>
        <path class="cls-34" d="M155.05,82.75h-2.6V64.35h2.6Z"/>
        <ellipse class="cls-35" cx="13.02" cy="223.31" rx="1.84" ry="13.01"/>
        <path class="cls-36" d="M84.69,243v2.63H66.45V243H84.69Z"/>
        <path class="cls-37" d="M66.45,243v2.63H48.2V243H66.45Z"/>
        <path class="cls-38"
              d="M155.05,95.88a36.09,36.09,0,0,1-4.86,3.49,34.31,34.31,0,0,1-5.56,1.77c2.29-4.22,4.7-8.28,10.42-7.88Z"/>
        <path class="cls-39"
              d="M14.32,214.12h-2.6v-2.63H22.14q-1.3,3.94-2.6,7.88c-.87-1.09-1.67-2.25-2.63-3.24A22.11,22.11,0,0,0,14.32,214.12Z"/>
        <ellipse class="cls-40" cx="13.02" cy="204.92" rx="1.84" ry="9.29"/>
        <path class="cls-41" d="M155.05,64.35H142V61.73h13Z"/>
        <ellipse class="cls-42" cx="153.75" cy="204.92" rx="1.84" ry="9.29"/>
        <path class="cls-43" d="M126.39,245.65c1-.88,2-2.33,3.08-2.51a46,46,0,0,1,7.34-.12h2.61v2.63Z"/>
        <path class="cls-44"
              d="M155.05,22.32c-.87-.61-2.2-1-2.52-1.85-1.09-2.81-1.82-5.77-2.69-8.66h2.61c.87,1,2.3,2,2.49,3.1A48.12,48.12,0,0,1,155.05,22.32Z"/>
        <path class="cls-45" d="M105.54,245.65V243h7.82c.86.88,1.73,1.75,2.6,2.63Z"/>
        <path class="cls-46" d="M14.32,64.35h-2.6V56.47h2.6l2.61,7.88Z"/>
        <path class="cls-47" d="M14.32,22.32h-2.6a46.88,46.88,0,0,1,.12-7.41c.18-1.14,1.61-2.07,2.48-3.1Z"/>
        <ellipse class="cls-48" cx="13.02" cy="51.22" rx="1.84" ry="7.43"/>
        <path class="cls-49" d="M155.05,169.45c-3.9-.22-2.21-3.26-2.6-5.25h2.6Z"/>
        <path class="cls-50" d="M142,245.65l3.24-2.63,2,2.63Z"/>
        <path class="cls-51" d="M11.72,232.51h5.21c-.22,3.93-3.24,2.23-5.21,2.63Z"/>
        <ellipse class="cls-52" cx="152.45" cy="26.26" rx="3.69" ry="1.86"/>
        <path class="cls-50" d="M149.84,245.65l1.75-2.18.86,2.18Z"/>
        <ellipse class="cls-53" cx="153.75" cy="197.04" rx="1.84" ry="1.86"/>
        <path class="cls-54"
              d="M14.32,56.47V46c.59-1.9,1.25-3.79,1.74-5.71.39-1.57.59-3.2.87-4.8L27.35,24.94,30,22.32c2-.4,5,1.3,5.21-2.63,4.45.2,7.79-1.82,10.43-5.26H76.87l7.82,5.26Q87.3,24.94,89.9,30.2L87.29,43.33c-3.89.23-2.21,3.27-2.6,5.26L69.05,61.73l-2.6,2.62c-4.94,1-9.89,2-14.79,3.19-.42.1-.57,1.35-.85,2.07H27.35C26.13,64.55,22.1,68,19.54,67l-2.61-2.63ZM56,30.2c-3,.87-6.08,1.69-9.07,2.69-.43.14-.59,1.13-.88,1.72a12.15,12.15,0,0,0,2.2.81,15.36,15.36,0,0,0,2.54,0c0,6.12.06,12.24,0,18.36a11.73,11.73,0,0,1-.92,4.84c-1.53,3.1-1.68,3,.59,3.07.86,0,1.73.06,2.6,0,2.51-.19,5-.43,7.54-.64-.65-2.17-1.79-4.32-1.86-6.51-.24-7,0-14-.21-21C58.47,32.43,56.89,31.33,56,30.2ZM37.73,43.33a4.9,4.9,0,0,0-1.27,0c-2.18.58-5.19-1.6-6.48,1.93a1.91,1.91,0,0,0,0,1.27c1.64,4.12,5.1,1.6,7.68,1.87,1.24.13,2.81-1.43,3.94-2.52.42-.41.13-2.41-.06-2.45A21,21,0,0,0,37.73,43.33ZM22.46,50.39c-1.43-4.17,2-8.6-2-11.9-.3,3.78-1,7.58-.77,11.33.15,3-1.79,6.46,1.59,8.87Z"/>
        <path class="cls-55"
              d="M100.33,11.81H116V24.94l-2.6,2.63V30.2h-5.22l-2.6-2.63-2.61-2.63c-2.47-3.1-2.92-6.71-2.6-10.51Z"/>
        <path class="cls-56"
              d="M118.57,11.81h5.17c11.85,0,11.87,0,10,12.2-.06.42-1.38.63-2.12.93-2.57,1-6.6-2.43-7.82,2.63H116V24.94c.87-1,2.37-2,2.49-3.15C118.78,18.49,118.57,15.14,118.57,11.81Z"/>
        <path class="cls-57"
              d="M147.24,43.33H136.81l-2.61-2.62V27.57c3.08-2.49,6.66-2.94,10.43-2.63,1.37,3,3.4,5.57,2.71,9.32C146.81,37.19,147.24,40.3,147.24,43.33Z"/>
        <path class="cls-58"
              d="M100.33,11.81v2.62c-.87,1-2.31,2-2.49,3.11a46.78,46.78,0,0,0-.12,7.4l-2.61,2.63L89.9,30.2q-2.61-5.26-5.21-10.51c.33-7.78.33-7.79,6.81-7.88C94.44,11.77,97.38,11.81,100.33,11.81Z"/>
        <path class="cls-59"
              d="M35.17,19.69C35,23.62,31.94,21.92,30,22.32H14.32V11.81c5.05,0,10.09.08,15.13,0,4.3-.09,2.86,3.06,3.12,5.28Z"/>
        <path class="cls-60"
              d="M35.17,19.69l-2.6-2.63,2.6-2.63,2.61-2.62c2.56,1,6.6-2.44,7.82,2.62C43,17.87,39.62,19.89,35.17,19.69Z"/>
        <path class="cls-61" d="M118.57,11.81c0,3.33.21,6.68-.12,10-.12,1.12-1.62,2.11-2.49,3.15V11.81Z"/>
        <path class="cls-62" d="M123.78,27.57c1.22-5.06,5.25-1.63,7.82-2.63v2.63Z"/>
        <path class="cls-58"
              d="M76.87,14.43H74.26c.32-4.12,3.49-2.23,5.53-2.56.61-.09,1.35.63,2,1a13.32,13.32,0,0,1-2.5,1.53A7.63,7.63,0,0,1,76.87,14.43Z"/>
        <path class="cls-4" d="M66.45,14.43H61.23l3.25-2.62Z"/>
        <path class="cls-63" d="M53.42,14.43H48.2l3.24-2.62Z"/>
        <ellipse class="cls-64" cx="132.9" cy="28.88" rx="1.84" ry="1.86"/>
        <path class="cls-59" d="M37.78,11.81l-2.61,2.62Z"/>
        <path class="cls-65"
              d="M134.2,119.53c-.44,5.26,3.91,8.58,5.22,13.14-1.3,0-3.23-.55-3.78.09-2.4,2.81-4.85,5.78-6.17,9.13-.28.73,2.47,3.84,2.16,6.57a48,48,0,0,0,0,5.23c-2.28-.22-5.3,1.14-5.26-3.28.12-13.79,0-27.59,0-41.39.87,1.08,2.46,2.16,2.47,3.25C128.9,116.17,130.54,118.51,134.2,119.53Z"/>
        <path class="cls-66"
              d="M144.63,101.14c.07,4.54-.82,9.27,2.61,13.14-2.66-.35-5,.12-6.52,2.62s-3.86,3-6.52,2.63c3.45-5.77,10.55-10,7.82-18.39Z"/>
        <path class="cls-67" d="M147.24,114.28c2,.39,5-1.31,5.21,2.62C150.47,116.51,147.46,118.21,147.24,114.28Z"/>
        <path class="cls-68"
              d="M126.39,109c0,13.8.07,27.6,0,41.39,0,4.42,3,3.06,5.26,3.28h5.21l2.61,2.62c.87,1,2.3,2,2.49,3.11a48,48,0,0,1,.11,7.4c-1,4.15-3.77,5.68-7.82,5.26H115c-9.4,0-18.8-.09-28.2,0-5.51.08-7.49-2.82-7.29-7.91,0-2.09-.78-5.4.15-6,2.11-1.34,5.06-1.34,7.66-1.89,10.38-.15,10.39-.15,10.43-9.66,0-4.75.11-9.5,0-14.24-.09-2.72-1.39-2.47-2.85-.77-2.68,3.14-4.84,5.24-9.22,1.32-1.91-1.72-7.82-1.71-9.76,0-4,3.52-8,1.67-12,2.34L56,137.92c-1.77-.87-4.39-3-5.19-2.43-5.79,4-12.17,1.88-18.26,2.43H30V135.3c-.58-1.91-1.24-3.79-1.73-5.72-.4-1.57-.59-3.19-.88-4.79,3.9-.23,2.22-3.27,2.61-5.26,3.07-2.49,6.65-2.94,10.42-2.63H51.93c3.85,0,7.7-.06,11.54,0,4.21.1,8.41.33,12.62.51,2.3,5.81,5.9-1.57,9.11.85,1.35,1,4.81-.83,7.31-1.38,1.15,1.61,2.23,4.48,3.49,4.57,3.26.22,1.82-3,1.57-4.38-.64-3.58,2.75-8.22-2.46-10.7-8.18,4.22-10.24,3.88-15.63-2.62,0-1.69-.11-3.38,0-5,.48-6.16,1.89-7.59,8-8.07,1.66-.13,3.34,0,5,0,2-.4,5,1.3,5.21-2.63h5.21c2,.4,5-1.3,5.21,2.63h-5.21c-.87.87-1.74,1.75-2.6,2.63-2,.39-5-1.31-5.22,2.62a84.9,84.9,0,0,0-9,.15c-.57.06-1.16,2-1.3,3.15-.07.59.82,1.85,1.31,1.87,3.87.16,7.75.09,11.63.09h5.21v57.8a46,46,0,0,0-7.34.12c-1.13.19-2.06,1.63-3.08,2.51-2.57,1-6.6-2.44-7.82,2.63.68.87,1.36,2.51,2,2.51q24,.22,48,0c.69,0,1.37-1.64,2.05-2.51-1.22-5.07-5.25-1.63-7.82-2.63-1.22-5.06-5.25-1.63-7.82-2.63V90.63C120,85.57,115.92,89,113.36,88l-2.61-2.63,2.61-2.62h7.81c5.18,4.52,5.19,4.52,5.22,11.89V109ZM63.84,130c3.32-.13,7.08,1.1,9.24-2.79.58-1,1.31-2.44,1-3.39-.24-.78-1.86-1.62-2.87-1.63-10.84-.12-21.68-.15-32.52,0-1.19,0-3.27,1.42-3.37,2.35-.26,2.46,0,7.06.66,7.18,4.09.75,8.81,3.11,12.19-1.76Z"/>
        <path class="cls-69"
              d="M139.42,156.31l-2.61-2.62c-.34-2.68.09-5.07,2.6-6.55,3.15-1.86,1.68-3.31.19-5.6-1-1.48-.18-4.12-.18-6.24,4-.43,6.79,1.1,7.82,5.25s-2.05,6.06-4.39,8.3C140.68,150.93,138.58,152.9,139.42,156.31Z"/>
        <path class="cls-70"
              d="M30,119.53c-.39,2,1.29,5-2.61,5.26-2.64-3.44-6-5.47-10.42-5.26-.07-4.54.82-9.27-2.61-13.14,2.76-3.19,5.39-4.34,11.15-5.35.75-.14,1.26-1.65,1.88-2.53H30c1,4.15,3.78,5.68,7.82,5.26,1,4.1-2.05,6.06-4.39,8.3C31.22,114.14,29.13,116.11,30,119.53Z"/>
        <path class="cls-71"
              d="M14.32,153.69V137.92h2.61l2.61,7.89c-3.49,0-2.11,2.78-2.7,4.55C16.43,151.61,15.19,152.59,14.32,153.69Z"/>
        <path class="cls-72" d="M19.54,145.81l-2.61-7.89H27.35Z"/>
        <path class="cls-72" d="M30,135.3v2.62H27.35Z"/>
        <path class="cls-73"
              d="M45.6,229.88V243c-3.77.32-7.35-.14-10.43-2.63h-2.6c.42-4.07-1.1-6.85-5.22-7.88v-2.63l5.22-5.25h5.21C38.8,228.78,41.55,230.31,45.6,229.88Z"/>
        <path class="cls-74"
              d="M24.75,232.51H16.93c3.42-3.86,2.54-8.6,2.61-13.14,4.29.43,2.1,3.8,2.57,5.91.41,1.86-.87,4.58,2.64,4.6Z"/>
        <path class="cls-75" d="M27.35,232.51c4.12,1,5.64,3.81,5.22,7.88C28.45,239.36,26.94,236.59,27.35,232.51Z"/>
        <path class="cls-76" d="M24.75,232.51v-2.63l.86-2.18,1.74,2.18v2.63Z"/>
        <path class="cls-77" d="M32.57,240.39h2.6l-1.75,2.18Z"/>
        <path class="cls-78"
              d="M22.14,180l2.61-7.88,7.82,2.63,2.6,2.62L37.78,180l-2.61,7.88c-.87.88-1.73,1.76-2.6,2.63L30,193.1l-7.82-5.26-2.6-2.62C23.43,185,21.75,182,22.14,180Z"/>
        <path class="cls-79" d="M27.35,164.2l-2.6-5.26c1.81-.51,3.79-.71,5.39-1.61,2.47-1.38,4.34-2.1,5,1.61Z"/>
        <path class="cls-80"
              d="M32.57,174.71l-7.82-2.63c1-2.59-2.42-6.65,2.6-7.88a35.42,35.42,0,0,0,1.75,5.6A37.32,37.32,0,0,0,32.57,174.71Z"/>
        <path class="cls-81" d="M14.32,153.69c.87-1.1,2.11-2.08,2.52-3.33.59-1.77-.79-4.54,2.7-4.55v10.5H14.32Z"/>
        <path class="cls-82" d="M14.32,177.33c1.09-.87,2.29-2.6,3.25-2.47,3.15.42,1.61,3.24,2,5.1Z"/>
        <path class="cls-83" d="M22.14,180c-.39,2,1.29,5-2.6,5.26V180Z"/>
        <path class="cls-84" d="M24.75,158.94c-2-.39-5,1.31-5.21-2.63C21.51,156.71,24.53,155,24.75,158.94Z"/>
        <path class="cls-85"
              d="M142,82.75c-2.56,1-6.59-2.44-7.82,2.62h-2.6l-5.21-5.25c3.9-.23,2.21-3.26,2.6-5.26,3.9-.22,2.22-3.26,2.61-5.25a6.47,6.47,0,0,0,2.14-.91c2.82-2.68,4.92-3.49,5.78,1.55.13.78,1.63,1.33,2.5,2,.4,2-1.29,5,2.61,5.25Z"/>
        <path class="cls-86"
              d="M126.39,80.12l5.21,5.25L134.2,88c3.9.23,2.22,3.26,2.61,5.26l-2.61,7.88h-7.81v-6.5c0-7.37,0-7.37-5.22-11.89l2.61-2.63Z"/>
        <path class="cls-66" d="M134.2,101.14l2.61-7.88q2.61,3.93,5.21,7.88Z"/>
        <path class="cls-87" d="M142,82.75l2.61-5.26,7.82,2.63v2.63Z"/>
        <path class="cls-88" d="M134.2,88l-2.6-2.63h2.6Z"/>
        <path class="cls-89"
              d="M147.24,224.63v2.63l-10.43,7.88H134.2v-2.63c2.2-1.77,4.68-3.28,6.5-5.39A6.79,6.79,0,0,1,147.24,224.63Z"/>
        <ellipse class="cls-90" cx="136.81" cy="239.08" rx="1.74" ry="5.9"
                 transform="translate(-73.89 61.65) rotate(-20.12)"/>
        <path class="cls-89"
              d="M147.24,227.26l2.6,2.62L148.07,232a12.39,12.39,0,0,1-.8-2.23A15.49,15.49,0,0,1,147.24,227.26Z"/>
        <path class="cls-91"
              d="M27.35,69.61h5.22l2.6,7.88v2.63H30l-2.61,2.63H19.54V80.12l2.6-2-2.6-3.27c-.07-2.9-.5-6,4.14-5.28A22.46,22.46,0,0,0,27.35,69.61Z"/>
        <path class="cls-92"
              d="M37.78,103.77c-4,.42-6.8-1.11-7.82-5.26V93.26c.87.65,2.28,1.15,2.52,2,1.16,4.12,3.4,6.47,7.9,5.89Z"/>
        <path class="cls-93" d="M22.14,82.75h5.21V88Z"/>
        <path class="cls-94" d="M30,93.26C26.06,93,27.75,90,27.35,88,31.25,88.23,29.57,91.26,30,93.26Z"/>
        <path class="cls-95"
              d="M79.48,164.2c-.2,5.09,1.78,8,7.29,7.91,9.4-.12,18.8,0,28.2,0H134.2v2.63h-7.81c-4.45-.21-9-.56-10.43,5.25a36.82,36.82,0,0,1-14.21-4.8c-1.69-.93-5.78-2.65-6.64,2.17h-2.6c-.62-.87-1.11-2.37-1.86-2.52a13.84,13.84,0,0,0-11.17,2.52H76.87a96.07,96.07,0,0,1-9.9-.12c-1.12-.11-2.09-1.63-3.13-2.5-2.24-3.94-2.24-3.94,0-7.89,4.28-1.92,7.15-7.37,13-5.25Z"/>
        <path class="cls-96" d="M131.6,174.71h2.6l5.22,2.62h5.21v5.26h-13Z"/>
        <path class="cls-97" d="M144.63,182.59v-5.26l2.61,2.63v10.51l-2.61-2.63Z"/>
        <path class="cls-98" d="M144.63,177.33h-5.21l3.24-2.62Z"/>
        <path class="cls-99" d="M147.24,43.33c0-3-.43-6.14.1-9.07.69-3.75-1.34-6.36-2.71-9.32h5.21V43.33Z"/>
        <path class="cls-100"
              d="M27.35,69.61a22.46,22.46,0,0,1-3.67,0C19,68.81,19.47,72,19.54,74.86L14.32,67h5.22C22.1,68,26.13,64.55,27.35,69.61Z"/>
        <path class="cls-101" d="M19.54,67H14.32V64.35h2.61Z"/>
        <path class="cls-102" d="M19.54,74.86l2.6,3.27-2.6,2Z"/>
        <path class="cls-103"
              d="M144.63,187.84l2.61,2.63a22,22,0,0,1,2.58,2c1,1,1.76,2.16,2.63,3.25v15.76c-1.31,4.56-5.66,7.88-5.21,13.14a6.79,6.79,0,0,0-6.54,2.49c-1.82,2.11-4.3,3.62-6.5,5.39-.86.88-1.73,1.75-2.6,2.63-5.31,2.24-9.92,6.58-16.4,5.38-.45-.08-1.22,1.62-1.84,2.5h-7.82c-7.09.33-14.05.38-19.7-5.17-.66-.64-2.48-.08-3.76-.08q-2.6-3.95-5.21-7.89c.21-5.36-1.23-11,2.61-15.76v-2.63c3.9-.22,2.21-3.26,2.6-5.25l2.61-2.63,10.42-7.88,7.82-5.26c4.34-1.34,8.69-2.67,13-4.06.12,0,0-.78,0-1.19H131.6Zm-36.49,10.51c0,7.68-.1,15.35.12,23,0,1.11,1.62,2.17,2.49,3.26l.86,2.18,1.75-2.18c2.63.34,5-.06,6.43-2.63.36-.68,0-1.74,0-2.63-5.16.7-3.76-3.13-3.82-5.77-.1-5.08,0-10.17,0-15.25a3.42,3.42,0,0,0,1.28,0c1.33-.6,2.62-1.3,3.93-2-.88-1.08-1.69-3-2.67-3.11-3.82-.37-8-1-11.45.14C104.59,194.19,104.17,197.43,108.14,198.35Zm22.33,10.51a17.92,17.92,0,0,0-3.81.07,9.52,9.52,0,0,0-2.58,1.55,8.78,8.78,0,0,0,1.83,1.78,13.74,13.74,0,0,0,4.34,1.8c4.8.66,7.23-.63,6.59-3.1C135.76,206.84,132.51,209.8,130.47,208.86Z"/>
        <path class="cls-90" d="M131.6,235.14c.87-.88,1.74-1.75,2.6-2.63v2.63Z"/>
        <path class="cls-104"
              d="M134.2,40.71l2.61,2.62c4.3,5.64,2.09,12.22,2.61,18.4-1.22,5.06-5.26,1.62-7.82,2.62l-7.82-7.88V48.59l7.82-5.26Z"/>
        <path class="cls-105"
              d="M131.6,64.35c2.56-1,6.6,2.44,7.82-2.62H142V72.24c-.87-.66-2.37-1.21-2.5-2-.86-5-3-4.23-5.78-1.55a6.47,6.47,0,0,1-2.14.91Z"/>
        <path class="cls-106"
              d="M76.87,229.88q2.61,3.94,5.21,7.89L84.69,243H79.48c-1.08-7.28-1.71-7.76-10.43-7.88v-7.88h5.21Z"/>
        <path class="cls-107"
              d="M27.35,24.94,16.93,35.45c-3.58-.64-3.17-2.58-1.62-5,.61-.93,1.08-1.95,1.62-2.93,1-.88,1.95-2.32,3.08-2.51A46,46,0,0,1,27.35,24.94Z"/>
        <path class="cls-108"
              d="M14.32,211.49V195.73h7.82C26,196,24.36,199,24.75,201c.87.88,1.74,1.75,2.6,2.63v5.25c-2,.4-5-1.3-5.21,2.63Z"/>
        <path class="cls-109" d="M19.54,180v5.26l2.6,2.62v5.26H14.32V177.33Z"/>
        <ellipse class="cls-110" cx="18.23" cy="194.41" rx="5.53" ry="1.86"/>
        <path class="cls-111"
              d="M139.42,135.3c0,2.12-.79,4.76.18,6.24,1.49,2.29,3,3.74-.19,5.6-2.51,1.48-2.94,3.87-2.6,6.55H131.6a48,48,0,0,1,0-5.23c.31-2.73-2.44-5.84-2.16-6.57,1.32-3.35,3.77-6.32,6.17-9.13.55-.64,2.48-.09,3.78-.09Z"/>
        <path class="cls-112"
              d="M50.81,227.26l-5.21,2.62c-1-4.15-3.78-5.67-7.82-5.25l-5.21-7.88v-5.26h2.6l.86,2.18,1.75-2.18c2.56-1,6.6,2.44,7.82-2.63h2.6l5.22,5.26v10.51Z"/>
        <path class="cls-113" d="M63.84,243H48.2v-7.88H63.84V243Z"/>
        <path class="cls-114"
              d="M50.81,229.88v-2.62l2.61-2.63c.86-.88,1.73-1.75,2.6-2.63h2.61c.22,3.93,3.23,2.23,5.21,2.63l2.61,2.63v5.25C61.12,232.3,55.53,233.75,50.81,229.88Z"/>
        <path class="cls-115" d="M50.81,229.88c4.72,3.87,10.31,2.42,15.64,2.63v2.63H48.2Z"/>
        <path class="cls-116" d="M142,72.24V64.35h10.43V80.12l-7.82-2.63C144.24,75.5,145.92,72.46,142,72.24Z"/>
        <path class="cls-117"
              d="M19.54,219.37c-.07,4.54.81,9.28-2.61,13.14H14.32V214.12a22.11,22.11,0,0,1,2.59,2C17.87,217.12,18.67,218.28,19.54,219.37Z"/>
        <path class="cls-118" d="M63.84,235.14h5.21c8.72.12,9.35.6,10.43,7.88h-13c-.4-2,1.29-5-2.61-5.25Z"/>
        <path class="cls-119" d="M63.84,237.77c3.9.22,2.21,3.26,2.61,5.25H63.84Z"/>
        <path class="cls-120"
              d="M32.57,211.49v13.14l-5.22,5.25-1.74-2.18-.86,2.18c-3.51,0-2.23-2.74-2.64-4.6-.47-2.11,1.72-5.48-2.57-5.91l2.6-7.88c2-.39,5,1.3,5.21-2.63H30Z"/>
        <path class="cls-121"
              d="M50.81,69.61c.28-.72.43-2,.85-2.07,4.9-1.16,9.85-2.15,14.79-3.19,2.7,6.77,6.12,13.35,5.21,21L69.05,88H63.84L53.42,82.75A58.29,58.29,0,0,1,55,74.67C56.44,70.43,56.63,70.49,50.81,69.61Z"/>
        <path class="cls-122"
              d="M50.81,69.61c5.82.88,5.63.82,4.19,5.06a58.29,58.29,0,0,0-1.58,8.08L45.6,85.37c-1-4.14-3.78-5.67-7.82-5.25l-2.61-2.63-2.6-7.88Z"/>
        <path class="cls-123"
              d="M69.05,61.73,84.69,48.59l5.21,2.63v2.62c-.87,1-2.3,2-2.49,3.11a48,48,0,0,0-.12,7.4H71.66Z"/>
        <path class="cls-124"
              d="M56,30.2c.87,1.13,2.45,2.23,2.49,3.39.24,7,0,14,.21,21,.07,2.19,1.21,4.34,1.86,6.51-2.52.21-5,.45-7.54.64-.87.06-1.74,0-2.6,0-2.27,0-2.12,0-.59-3.07a11.73,11.73,0,0,0,.92-4.84c.1-6.12,0-12.24,0-18.36h2.61l.84,23.19c3.78-7.49.8-15.49,1.75-23.2a22.88,22.88,0,0,0,0-2.62Z"/>
        <path class="cls-125" d="M69.05,61.73l2.61,2.62q1.31,9.2,2.6,18.4l-2.6,2.62c.91-7.67-2.51-14.25-5.21-21Z"/>
        <path class="cls-126" d="M89.9,30.2l5.21-2.63-2.6,7.88v7.88L89.9,46l-2.61-2.63Z"/>
        <path class="cls-127"
              d="M37.73,43.33a21,21,0,0,1,3.81.12c.19,0,.48,2,.06,2.45-1.13,1.09-2.7,2.65-3.94,2.52-2.58-.27-6,2.25-7.68-1.87a1.91,1.91,0,0,1,0-1.27c1.29-3.53,4.3-1.35,6.48-1.93A4.9,4.9,0,0,1,37.73,43.33Z"/>
        <path class="cls-128"
              d="M22.46,50.39l-1.21,8.3c-3.38-2.41-1.44-5.92-1.59-8.87-.2-3.75.47-7.55.77-11.33C24.44,41.79,21,46.22,22.46,50.39Z"/>
        <path class="cls-129"
              d="M53.42,35.45H50.81a15.36,15.36,0,0,1-2.54,0,12.15,12.15,0,0,1-2.2-.81c.29-.59.45-1.58.88-1.72,3-1,6-1.82,9.07-2.69v2.62Z"/>
        <path class="cls-130" d="M87.29,43.33,89.9,46v5.26l-5.21-2.63C85.08,46.6,83.4,43.56,87.29,43.33Z"/>
        <path class="cls-131"
              d="M108.14,30.2h5.22c-.32,3.8.13,7.41,2.6,10.51v2.62c-2.21.06-4.33-4.35-6.78-.07-.31.55-2.38.07-3.64.07.58-1,.91-2.41,1.77-3C111.89,37.23,110.63,33.8,108.14,30.2Z"/>
        <path class="cls-132" d="M131.6,27.57V30.2H113.36V27.57H131.6Z"/>
        <path class="cls-133"
              d="M97.72,24.94a46.78,46.78,0,0,1,.12-7.4c.18-1.14,1.62-2.08,2.49-3.11-.32,3.8.13,7.41,2.6,10.51Z"/>
        <path class="cls-134" d="M105.54,27.57l2.6,2.63Z"/>
        <path class="cls-61" d="M116,27.57h-2.6l2.6-2.63Z"/>
        <path class="cls-135" d="M102.93,24.94l2.61,2.63Z"/>
        <ellipse class="cls-136" cx="132.9" cy="35.45" rx="1.84" ry="7.43"/>
        <path class="cls-137" d="M95.11,27.57l2.61-2.63Z"/>
        <path class="cls-138"
              d="M134.2,101.14H142c2.73,8.44-4.37,12.62-7.82,18.39-3.66-1-5.3-3.36-5.34-7.26,0-1.09-1.6-2.17-2.47-3.25v-7.88Z"/>
        <path class="cls-139"
              d="M121.17,95.88v63.06c1.23,5.07,5.26,1.63,7.82,2.63s6.6-2.44,7.82,2.63H84.69c1.22-5.07,5.25-1.63,7.82-2.63a46,46,0,0,0,7.34-.12c1.13-.18,2.06-1.63,3.08-2.51h2.61c8,4.78,10.32,3.91,10.42-4,0-3,0-6.08,0-9.12V101.14c0-2.08.78-5.4-.16-6-2.1-1.34-5-1.34-7.66-1.88V90.63h10.43C119,92.62,117.28,95.66,121.17,95.88Z"/>
        <path class="cls-140"
              d="M63.84,135.3c4-.67,8,1.18,12-2.34,1.94-1.71,7.85-1.72,9.76,0,4.38,3.92,6.54,1.82,9.22-1.32,1.46-1.7,2.76-1.95,2.85.77.15,4.74,0,9.49,0,14.24,0,9.51,0,9.51-10.43,9.66v-2.62l7.38-.87c-1.77-3.57-5-1.06-7.41-1.73a10.49,10.49,0,0,0-2.57,0c-1.42-2.77-3.07,7.15-5.68-.49-1.91-5.61-7-11.58-15.17-10Z"/>
        <path class="cls-141"
              d="M102.93,88H95.11a22.07,22.07,0,0,0-2-2.6,40.81,40.81,0,0,0-3.22-2.65C88.07,77,92.48,72.38,92.51,67c1-.87,2-2.42,3.16-2.51,4.14-.3,8.31-.12,12.47-.12h5.22L110.75,67l-2.61,2,2.61,3.27c3.9.22,2.21,3.26,2.61,5.25v5.26l-2.61,2.62C108.18,86.37,104.15,82.94,102.93,88Z"/>
        <path class="cls-142"
              d="M89.9,82.75a40.81,40.81,0,0,1,3.22,2.65,22.07,22.07,0,0,1,2,2.6l-2.6,2.63c-1.67,0-3.35-.11-5,0-6.11.48-7.52,1.91-8,8.07-.13,1.67,0,3.36,0,5-1.33.89-3.49,1.54-3.84,2.73-2,6.94-6.64,8.87-13.2,7.8a24.21,24.21,0,0,0-3.81,0v-2.63a20.92,20.92,0,0,0,3.8,0c4.77-.89,4.86-1,1.75-6.12-1.35-2.21,2-6.37-3-7A20.23,20.23,0,0,0,69.05,88l2.61-2.63,2.6-2.62c1.59.28,3.2.48,4.76.88,1.91.49,3.78,1.15,5.67,1.74l2.6-2.62Z"/>
        <path class="cls-143"
              d="M32.57,137.92c6.09-.55,12.47,1.61,18.26-2.43.8-.55,3.42,1.56,5.19,2.43q4.23,5.27,0,10.51l-.81,2.14-8.39,11H45.6q1.18-6.45-5.22-5.26Z"/>
        <path class="cls-144"
              d="M56,148.43q4.23-5.25,0-10.51l7.82-2.62v5.25a7.39,7.39,0,0,0-2,.79c-.16.13.28,1,.44,1.6a4.94,4.94,0,0,0,1.54-1.8C72.06,139,77.1,145,79,150.57c2.61,7.64,4.26-2.28,5.68.49l2.6,2.63v2.62c-2.6.55-5.55.55-7.66,1.89-.93.6-.15,3.91-.15,6l-2.61-2.63c-.3-.74-.68-2.16-.9-2.14-7.18.74-11.79-2.2-14.42-9.08C61.09,149.17,57.93,149,56,148.43Z"/>
        <path class="cls-145"
              d="M58.63,114.28a24.21,24.21,0,0,1,3.81,0c6.56,1.07,11.16-.86,13.2-7.8.35-1.19,2.51-1.84,3.84-2.73,5.39,6.5,7.45,6.84,15.63,2.62.32,3.8-.13,7.41-2.6,10.51-2.5.55-6,2.4-7.31,1.38-3.21-2.42-6.81,5-9.11-.85-4.21-.18-8.41-.41-12.62-.51-3.84-.08-7.69,0-11.54,0H40.38c1.06-.87,2.09-2.44,3.19-2.5C48.58,114.12,53.61,114.28,58.63,114.28Z"/>
        <path class="cls-146"
              d="M32.57,137.92l7.81,18.39-5.21,2.63c-.69-3.71-2.56-3-5-1.61-1.6.9-3.58,1.1-5.39,1.61-.22-3.93-3.24-2.23-5.21-2.63v-10.5l7.81-7.89h5.22Z"/>
        <path class="cls-147"
              d="M48.2,130c-3.38,4.87-8.1,2.51-12.19,1.76-.69-.12-.92-4.72-.66-7.18.1-.93,2.18-2.33,3.37-2.35,10.84-.19,21.68-.16,32.52,0,1,0,2.63.85,2.87,1.63.28,1-.45,2.35-1,3.39-2.16,3.89-5.92,2.66-9.24,2.79-.65-.88-1.27-2.48-2-2.51a128.3,128.3,0,0,0-15.19,0c-1.87.14-4.88-2.17-5.77,1.73,2,.26,4,.52,6,.76A10.58,10.58,0,0,0,48.2,130Z"/>
        <path class="cls-148"
              d="M58.63,114.28c-5,0-10.05-.16-15.06.12-1.1.06-2.13,1.63-3.19,2.5-3.77-.31-7.35.14-10.42,2.63-.83-3.42,1.26-5.39,3.43-7.46,2.34-2.24,5.44-4.2,4.39-8.3l2.6-2.63a46.13,46.13,0,0,1,7.35.12c1.13.18,2.06,1.63,3.08,2.51l-2.13,1.79c2,.27,4.35,0,5.91,1,1.73,1.1,2.72,3.36,4,5.11Z"/>
        <path class="cls-149"
              d="M105.54,158.94h-2.61v-57.8c3.52,0,2.57,2.73,2.57,4.63C105.56,123.49,105.54,141.22,105.54,158.94Z"/>
        <path class="cls-150"
              d="M84.69,164.2h52.12c-.68.87-1.36,2.51-2.05,2.51q-24,.22-48,0C86.05,166.71,85.37,165.07,84.69,164.2Z"/>
        <path class="cls-151"
              d="M97.72,101.14c-3.88,0-7.76.07-11.63-.09-.49,0-1.38-1.28-1.31-1.87.14-1.13.73-3.09,1.3-3.15a84.9,84.9,0,0,1,9-.15c2-.39,5,1.31,5.22-2.62h2.6c.52.95,1.38,1.89,1.43,2.87,0,.77-.91,1.59-1.43,2.38C101,98.91,97.94,97.21,97.72,101.14Z"/>
        <path class="cls-152"
              d="M48.2,130a10.58,10.58,0,0,1-1.26,0c-2-.24-4-.5-6-.76.89-3.9,3.9-1.59,5.77-1.73a128.3,128.3,0,0,1,15.19,0c.69,0,1.31,1.63,2,2.51Z"/>
        <path class="cls-153"
              d="M92.51,116.9c2.47-3.1,2.92-6.71,2.6-10.51,5.21,2.48,1.82,7.12,2.46,10.7.25,1.36,1.69,4.6-1.57,4.38C94.74,121.38,93.66,118.51,92.51,116.9Z"/>
        <path class="cls-154"
              d="M102.93,88c1.22-5.06,5.25-1.63,7.82-2.63L113.36,88v2.63h-5.22C107.92,86.7,104.91,88.4,102.93,88Z"/>
        <path class="cls-155" d="M113.36,82.75V77.49c4-.42,6.79,1.11,7.81,5.26Z"/>
        <path class="cls-150"
              d="M102.93,158.94c-1,.88-2,2.33-3.08,2.51a46,46,0,0,1-7.34.12c1-.88,1.95-2.32,3.08-2.51A46,46,0,0,1,102.93,158.94Z"/>
        <path class="cls-150" d="M129,161.57c-2.56-1-6.59,2.44-7.82-2.63C123.74,159.94,127.77,156.51,129,161.57Z"/>
        <path class="cls-149" d="M113.36,90.63V88c2.56,1,6.59-2.43,7.81,2.63h-7.81Z"/>
        <path class="cls-149" d="M100.33,93.26c-.23,3.93-3.24,2.23-5.22,2.62C95.34,92,98.35,93.65,100.33,93.26Z"/>
        <path class="cls-156" d="M118.57,90.63h2.6v5.25C117.28,95.66,119,92.62,118.57,90.63Z"/>
        <ellipse class="cls-149" cx="105.54" cy="91.94" rx="3.69" ry="1.86"/>
        <path class="cls-149" d="M97.72,101.14c.22-3.93,3.24-2.23,5.21-2.63v2.63Z"/>
        <path class="cls-154" d="M92.51,90.63,95.11,88h2.61C97.5,91.93,94.48,90.23,92.51,90.63Z"/>
        <path class="cls-154" d="M102.93,90.63v2.63h-2.6C101.19,92.38,102.06,91.5,102.93,90.63Z"/>
        <path class="cls-157" d="M32.57,224.63v-7.88l5.21,7.88Z"/>
        <path class="cls-158" d="M37.78,224.63c4-.42,6.8,1.1,7.82,5.25C41.55,230.31,38.8,228.78,37.78,224.63Z"/>
        <path class="cls-159"
              d="M27.35,203.61c-.86-.88-1.73-1.75-2.6-2.63,3.48,0,2.1-2.78,2.69-4.55.42-1.26,1.65-2.23,2.52-3.33l2.61-2.63h7.81l5.22,5.26q5,6.57,0,13.13c-2.57,1-6.6-2.43-7.82,2.63H35.17c-.22-3.93-3.23-2.23-5.21-2.63C29.57,206.87,31.25,203.83,27.35,203.61Z"/>
        <path class="cls-160"
              d="M30,193.1c-.87,1.1-2.1,2.07-2.52,3.33-.59,1.77.79,4.53-2.69,4.55-.39-2,1.29-5-2.61-5.25v-7.89Z"/>
        <path class="cls-161" d="M35.17,187.84,37.78,180h2.6v7.88Z"/>
        <path class="cls-162" d="M35.17,177.33l-2.6-2.62Z"/>
        <path class="cls-163" d="M37.78,180l-2.61-2.63Z"/>
        <path class="cls-160" d="M35.17,190.47h-2.6c.87-.87,1.73-1.75,2.6-2.63Z"/>
        <path class="cls-164"
              d="M37.78,180l-2.61-2.63-2.6-2.62a37.32,37.32,0,0,1-3.47-4.91,35.42,35.42,0,0,1-1.75-5.6l7.82-5.26,5.21-2.63q6.4-1.19,5.22,5.26l2.6,7.88q-3.9,5.27-7.82,10.51Z"/>
        <path class="cls-165" d="M126.39,80.12h-2.61q2.61-2.62,5.21-5.26C128.6,76.86,130.29,79.89,126.39,80.12Z"/>
        <path class="cls-166" d="M131.6,69.61c-.39,2,1.29,5-2.61,5.25C129.39,72.87,127.7,69.83,131.6,69.61Z"/>
        <path class="cls-167" d="M142,72.24c3.9.22,2.22,3.26,2.61,5.25C140.73,77.27,142.42,74.23,142,72.24Z"/>
        <path class="cls-168"
              d="M131.6,69.61c-3.9.22-2.21,3.26-2.61,5.25q-2.59,2.64-5.21,5.26l-2.61,2.63c-1-4.15-3.77-5.68-7.81-5.26-.4-2,1.29-5-2.61-5.25V67l2.61-2.63c4,.43,6.79-1.1,7.81-5.25h2.61c1,4.15,3.78,5.68,7.82,5.25Z"/>
        <path class="cls-169"
              d="M30,93.26c-.39-2,1.29-5-2.61-5.26V82.75L30,80.12l2,2.63,3.24-2.63h2.61c1,4.15,3.77,5.68,7.82,5.25v5.26c-.87.6-2.21,1-2.52,1.84-1.09,2.82-1.83,5.77-2.7,8.67-4.5.58-6.74-1.77-7.9-5.89C32.24,94.41,30.83,93.91,30,93.26Z"/>
        <path class="cls-170" d="M35.17,80.12l-3.24,2.63-2-2.63Z"/>
        <path class="cls-171" d="M37.78,80.12H35.17V77.49Z"/>
        <path class="cls-172"
              d="M48.2,169.45l-2.6-7.88h1.22l8.39-11,.81-2.14c1.91.61,5.07.74,5.53,1.92,2.63,6.88,7.24,9.82,14.42,9.08.22,0,.6,1.4.9,2.14-5.88-2.12-8.75,3.33-13,5.25-.13-1.76-.75-3.53-2.44-1.34-2.83,3.67-6.35,4.6-10.59,4Z"/>
        <path class="cls-173"
              d="M79.48,177.33a13.84,13.84,0,0,1,11.17-2.52c.75.15,1.24,1.65,1.86,2.52a35.09,35.09,0,0,1,2.92,9.15c.92,5.47-6.41,2.31-5.53,6.62-4.5-.07-9.2.82-13-2.63v-2.63c.87-1,2.31-2,2.49-3.1A46.88,46.88,0,0,0,79.48,177.33Z"/>
        <path class="cls-174"
              d="M63.84,174.71c1,.87,2,2.39,3.13,2.5a96.07,96.07,0,0,0,9.9.12v10.51l-5.21,5.26-2.61,2.63c-.87-.88-1.74-1.75-2.6-2.63l-5.22-5.26-2.6-2.62c3.57-2.65,3.57-5.24,0-7.89L56,174.71Z"/>
        <path class="cls-175"
              d="M116,185.22c0,.41.11,1.15,0,1.19-4.33,1.39-8.68,2.72-13,4.06-2.3-.2-4.91,1.06-5.42-3.28-.38-3.25,3.19-7.85-2.4-9.86.86-4.82,5-3.1,6.64-2.17A36.82,36.82,0,0,0,116,180v5.26Z"/>
        <path class="cls-176" d="M116,182.59V180c1.46-5.81,6-5.46,10.43-5.25.87,2.62,1.73,5.25,2.6,7.88Z"/>
        <path class="cls-177"
              d="M95.11,177.33c5.59,2,2,6.61,2.4,9.86.51,4.34,3.12,3.08,5.42,3.28l-7.82,5.26c-.22-3.93-3.23-2.24-5.21-2.63-.88-4.31,6.45-1.15,5.53-6.62a35.09,35.09,0,0,0-2.92-9.15Z"/>
        <path class="cls-178"
              d="M63.84,174.71H56c-.22-3.93-3.24-2.23-5.21-2.63v-2.63c4.24.63,7.76-.3,10.59-4,1.69-2.19,2.31-.42,2.44,1.34C61.6,170.77,61.6,170.77,63.84,174.71Z"/>
        <path class="cls-179" d="M129,182.59c-.87-2.63-1.73-5.26-2.6-7.88h5.21v10.51H129Z"/>
        <path class="cls-180"
              d="M76.87,187.84V177.33h2.61a46.88,46.88,0,0,1-.12,7.41C79.18,185.88,77.74,186.81,76.87,187.84Z"/>
        <path class="cls-181" d="M131.6,185.22v-2.63h13v5.25Z"/>
        <path class="cls-182"
              d="M69.05,195.73l2.61-2.63h5.21c5.21,4.85,5.21,4.85,5.21,13.14-.39,2,1.3,5-2.6,5.25l-2.61,2.63H71.66l-2.61-5.26,2.16-.86-2.16-1.76Z"/>
        <path class="cls-183"
              d="M116,198.35c0,5.08-.07,10.17,0,15.25.06,2.64-1.34,6.47,3.82,5.77,0,.89.34,1.95,0,2.63-1.38,2.57-3.8,3-6.43,2.63h-2.61c0-7.67.1-15.35-.12-23,0-1.11-1.62-2.17-2.49-3.26C110.77,194.75,113.34,194.75,116,198.35Z"/>
        <path class="cls-184"
              d="M82.08,206.24c0-8.29,0-8.29-5.21-13.14v-2.63c3.83,3.45,8.53,2.56,13,2.63-5.21,5.67-5.21,5.67-5.21,10.51Z"/>
        <path class="cls-185"
              d="M108.14,198.35c.87,1.09,2.46,2.15,2.49,3.26.22,7.67.12,15.35.12,23-.87-1.09-2.46-2.15-2.49-3.26C108,213.7,108.14,206,108.14,198.35Z"/>
        <path class="cls-185"
              d="M116,198.35c-2.62-3.6-5.19-3.6-7.82,0-4-.92-3.55-4.16-1.09-5,3.48-1.14,7.63-.51,11.45-.14,1,.09,1.79,2,2.67,3.11-1.31.67-2.6,1.37-3.93,2A3.42,3.42,0,0,1,116,198.35Z"/>
        <path class="cls-186"
              d="M130.48,208.86c2,.94,5.28-2,6.36,2.1.64,2.47-1.79,3.76-6.59,3.1a13.74,13.74,0,0,1-4.34-1.8,8.78,8.78,0,0,1-1.83-1.78,9.52,9.52,0,0,1,2.58-1.55A18,18,0,0,1,130.48,208.86Z"/>
        <path class="cls-187" d="M84.69,203.61c0-4.84,0-4.84,5.21-10.51,2,.39,5-1.3,5.21,2.63Z"/>
        <path class="cls-188" d="M74.26,214.12h5.22c-3.84,4.75-2.4,10.4-2.61,15.76l-2.61-2.62Z"/>
        <ellipse class="cls-189" cx="122.48" cy="183.9" rx="9.21" ry="1.86"/>
        <path class="cls-185" d="M110.75,224.63h2.61c-.59.72-1.17,1.45-1.75,2.18Z"/>
        <path class="cls-190" d="M79.48,214.12H76.87l2.61-2.63Z"/>
        <path class="cls-191" d="M131.6,43.33l-7.82,5.26L121.17,46l-2.6-2.63Z"/>
        <path class="cls-192" d="M131.6,64.35c-4,.43-6.8-1.1-7.82-5.25V56.47Z"/>
        <path class="cls-193" d="M121.17,46l2.61,2.63v7.88h-2.61Z"/>
        <path class="cls-194" d="M131.6,40.71h2.6l-2.6,2.62Z"/>
        <path class="cls-195" d="M74.26,214.12v13.14H66.45v-2.63c3,.17,5.94.37,5.26-4.27a43.28,43.28,0,0,1,0-6.24Z"/>
        <path class="cls-196" d="M66.45,227.26h2.6v7.88h-2.6v-7.88Z"/>
        <path class="cls-197" d="M27.35,203.61c3.9.22,2.22,3.26,2.61,5.25H27.35Z"/>
        <path class="cls-198" d="M27.35,208.86c-.22,3.93-3.23,2.24-5.21,2.63C22.36,207.56,25.38,209.26,27.35,208.86Z"/>
        <path class="cls-199"
              d="M71.66,214.12a43.28,43.28,0,0,0,0,6.24c.68,4.64-2.24,4.44-5.26,4.27H63.84c-.22-3.93-3.24-2.23-5.21-2.63l-.86-2.18L56,222h-2.6v-5.25c.86-.88,1.73-1.76,2.6-2.63,2-.4,5,1.3,5.21-2.63h2.61l2.61-2.63h2.6Z"/>
        <path class="cls-200"
              d="M45.6,208.86q5-6.57,0-13.13l1.65-2.28C49.46,197,53,195.38,56,195.73c-5.21,4.84-5.21,4.84-5.21,13.13H45.6Z"/>
        <path class="cls-201" d="M48.2,208.86h2.61q5.2,4.26,10.42,0v2.63C61,215.42,58,213.72,56,214.12h-2.6Z"/>
        <path class="cls-202" d="M37.78,211.49c1.22-5.06,5.25-1.63,7.82-2.63C44.38,213.93,40.34,210.49,37.78,211.49Z"/>
        <path class="cls-203" d="M30,208.86c2,.4,5-1.3,5.21,2.63h-2.6Z"/>
        <path class="cls-204" d="M53.42,224.63l-2.61,2.63Z"/>
        <path class="cls-204" d="M53.42,222H56c-.87.88-1.74,1.75-2.6,2.63Z"/>
        <path class="cls-205" d="M53.42,214.12H56c-.87.87-1.74,1.75-2.6,2.63Z"/>
        <path class="cls-206" d="M35.17,211.49h2.61L36,213.67Z"/>
        <path class="cls-207" d="M58.63,222c2,.4,5-1.3,5.21,2.63C61.86,224.23,58.85,225.93,58.63,222Z"/>
        <path class="cls-196" d="M63.84,224.63h2.61v2.63Z"/>
        <path class="cls-208" d="M56,222l1.75-2.18.86,2.18Z"/>
        <path class="cls-209"
              d="M40.38,101.14c.87-2.9,1.61-5.85,2.7-8.67.31-.82,1.65-1.24,2.52-1.84,1-.61,2.56-2,3-1.7,3.77,2.43,8.72-3.88,11.91,1.7L63.84,88h5.21a20.23,20.23,0,0,1-7.82,10.51A36.09,36.09,0,0,1,56.37,102a34.31,34.31,0,0,1-5.56,1.77c-1-.88-2-2.33-3.08-2.51A46.13,46.13,0,0,0,40.38,101.14Z"/>
        <path class="cls-210"
              d="M63.84,88l-3.3,2.63c-3.19-5.58-8.14.73-11.91-1.7-.47-.29-2,1.09-3,1.7V85.37l7.82-2.62Z"/>
        <path class="cls-211" d="M45.6,85.37c-4.05.43-6.8-1.1-7.82-5.25C41.82,79.7,44.58,81.23,45.6,85.37Z"/>
        <path class="cls-212"
              d="M84.69,85.37c-1.89-.59-3.76-1.25-5.67-1.74-1.56-.4-3.17-.6-4.76-.88q-1.29-9.19-2.6-18.4h7.82c1,.88,2,2.33,3.08,2.51A46,46,0,0,0,89.9,67c-3.84,4.76-2.4,10.4-2.61,15.77Z"/>
        <path class="cls-213"
              d="M108.14,64.35c-4.16,0-8.33-.18-12.47.12-1.11.09-2.11,1.64-3.16,2.51H89.9V46c1.28,0,2.57.08,3.85,0,4.17-.32,7.92-.23,6.58,5.79,4.41,1.91.13,8.43,5.21,10Z"/>
        <path class="cls-130" d="M89.9,53.84V64.35H87.29a48,48,0,0,1,.12-7.4C87.6,55.81,89,54.87,89.9,53.84Z"/>
        <path class="cls-125" d="M87.29,64.35H89.9V67a46,46,0,0,1-7.34-.12c-1.13-.18-2.06-1.63-3.08-2.51Z"/>
        <path class="cls-214" d="M53.42,35.45,56,32.82a22.88,22.88,0,0,1,0,2.62c-.95,7.71,2,15.71-1.75,23.2Z"/>
        <path class="cls-215"
              d="M95.11,27.57l2.61-2.63h5.21l2.61,2.63,2.6,2.63c2.49,3.6,3.75,7-.83,10.14-.86.58-1.19,2-1.77,3H95.11c-1-2.58,2.42-6.65-2.6-7.88Z"/>
        <path class="cls-216"
              d="M95.11,43.33h10.43c-.86,2.21-3,5.87-2.37,6.38,4.12,3.56,1.67,8,2.37,12-5.08-1.56-.8-8.08-5.21-10,1.34-6-2.41-6.11-6.58-5.79-1.28.09-2.57,0-3.85,0l2.61-2.63Z"/>
        <path class="cls-217" d="M95.11,43.33h-2.6V35.45C97.53,36.68,94.12,40.75,95.11,43.33Z"/>
        <path class="cls-218"
              d="M105.54,61.73c-.7-4,1.75-8.46-2.37-12-.59-.51,1.51-4.17,2.37-6.38,1.26,0,3.33.48,3.64-.07,2.45-4.28,4.57.13,6.78.07h2.61l2.6,2.63V56.47l-7.81,5.26-2.61,2.62h-2.61Z"/>
        <path class="cls-62" d="M131.6,40.71v2.62h-13L116,40.71c-2.47-3.1-2.92-6.71-2.6-10.51H131.6Z"/>
        <path class="cls-219" d="M116,40.71l2.61,2.62H116Z"/>
        <path class="cls-150"
              d="M102.93,101.14V98.51c.52-.79,1.48-1.61,1.43-2.38,0-1-.91-1.92-1.43-2.87h5.21c2.61.54,5.56.54,7.66,1.88.94.6.16,3.92.16,6-3,.9-4.26,2.94-5.37,6-4.59,12.87-1.69,26.08-2.3,39.1-.13,2.9,2.48,2.67,4.57,1.34,1-.65,2.07-1.22,3.1-1.82,0,3,0,6.08,0,9.12-.1,7.92-2.37,8.79-10.42,4,0-17.72,0-35.45,0-53.17C105.5,103.87,106.45,101.16,102.93,101.14Z"/>
        <path class="cls-149"
              d="M116,145.81c-1,.6-2.09,1.17-3.1,1.82-2.09,1.33-4.7,1.56-4.57-1.34.61-13-2.29-26.23,2.3-39.1,1.11-3.11,2.33-5.15,5.37-6Z"/>
        <path class="cls-220" d="M87.29,153.69l-2.6-2.63a10.49,10.49,0,0,1,2.57,0c2.45.67,5.64-1.84,7.41,1.73Z"/>
        <path class="cls-125" d="M89.9,67h2.61c0,5.4-4.44,10.06-2.61,15.77H87.29C87.5,77.38,86.06,71.74,89.9,67Z"/>
        <path class="cls-221" d="M110.75,67v5.26L108.14,69Z"/>
        <path class="cls-168" d="M110.75,64.35l2.61-2.62v2.62Z"/>
        <path class="cls-222"
              d="M50.81,103.77A34.31,34.31,0,0,0,56.37,102a36.09,36.09,0,0,0,4.86-3.49c4.91.61,1.6,4.77,3,7,3.11,5.12,3,5.23-1.75,6.12a20.92,20.92,0,0,1-3.8,0c-1.32-1.75-2.31-4-4-5.11-1.56-1-3.91-.71-5.91-1Z"/>
        <path class="cls-125" d="M84.69,85.37l2.6-2.62Z"/>
        <path class="cls-140" d="M63.84,141.72l-1.54,1.22c-.16-.56-.6-1.47-.44-1.6a7.39,7.39,0,0,1,2-.79Z"/>
        <path class="cls-223"
              d="M56,195.73c-3-.35-6.56,1.26-8.77-2.28l-1.65,2.28-5.22-5.26,2.17-.86-2.17-1.77V180c5.73.4,8.14-3.66,10.43-7.88,2,.4,5-1.3,5.21,2.63l2.61,2.62v7.89l2.6,2.62v5.26l-2.6,2.63-.86-2.18Z"/>
        <ellipse class="cls-78" cx="37.78" cy="189.16" rx="3.69" ry="1.86"/>
        <path class="cls-224" d="M50.81,172.08c-2.29,4.22-4.7,8.28-10.43,7.88q3.91-5.25,7.82-10.51h2.61Z"/>
        <path class="cls-225" d="M113.36,64.35V61.73l7.81-5.26V59.1C120.15,63.25,117.4,64.78,113.36,64.35Z"/>
        <ellipse class="cls-226" cx="122.48" cy="57.79" rx="1.84" ry="1.86"/>
        <path class="cls-180" d="M76.87,190.47v2.63H71.66l5.21-5.26Z"/>
        <path class="cls-227" d="M61.23,193.1v-5.26l5.22,5.26Z"/>
        <path class="cls-228" d="M58.63,185.22v-7.89C62.2,180,62.2,182.57,58.63,185.22Z"/>
        <path class="cls-229" d="M66.45,193.1c.86.88,1.73,1.75,2.6,2.63h-2.6Z"/>
        <ellipse class="cls-230" cx="67.75" cy="200.98" rx="1.84" ry="7.43"/>
        <path class="cls-231" d="M66.45,206.24h2.6L71.21,208l-2.16.86h-2.6Z"/>
        <path class="cls-232"
              d="M66.45,206.24v2.62l-2.61,2.63-2.61-2.63q-5.2,4.26-10.42,0c0-8.29,0-8.29,5.21-13.13h2.61l2.6-2.63h5.22v13.14Z"/>
        <path class="cls-233" d="M61.23,208.86l2.61,2.63H61.23Z"/>
        <path class="cls-234" d="M40.38,190.47v-2.63l2.17,1.77Z"/>
        <path class="cls-235" d="M58.63,195.73H56l1.75-2.18Z"/>
    </g>
</svg>