<svg id="Calque_1" data-name="Calque 1" xmlns="http://www.w3.org/2000/svg" viewBox="0 0 167.24 257.95">
    <defs>
        <style>
            .cls-1{fill:#18272a;}.cls-2{fill:#fefefe;}.cls-3{fill:#0f100f;}.cls-4{fill:#0e0e0e;}.cls-5{fill:#ebeced;}.cls-6{fill:#1b1b1b;}.cls-7{fill:#1a1a1b;}.cls-8{fill:#cbcdd3;}.cls-9{fill:#f7f8f8;}.cls-10{fill:#7792cc;}.cls-11{fill:#5951a0;}.cls-12{fill:#43388f;}.cls-13{fill:#3f3691;}.cls-14{fill:#655db8;}.cls-15{fill:#4b3e9b;}.cls-16{fill:#5d76bd;}.cls-17{fill:#5a6ab5;}.cls-18{fill:#42439a;}.cls-19{fill:#6a87c3;}.cls-20{fill:#5064b4;}.cls-21{fill:#5c6fbd;}.cls-22{fill:#617abd;}.cls-23{fill:#413c86;}.cls-24{fill:#3a4797;}.cls-25{fill:#413496;}.cls-26{fill:#4c4099;}.cls-27{fill:#5c5683;}.cls-28{fill:#6c5ebc;}.cls-29{fill:#6b619e;}.cls-30{fill:#6a6bc1;}.cls-31{fill:#47437e;}.cls-32{fill:#43349b;}.cls-33{fill:#433a86;}.cls-34{fill:#4c418f;}.cls-35{fill:#6b79c8;}.cls-36{fill:#42397f;}.cls-37{fill:#6676a8;}.cls-38{fill:#413a83;}.cls-39{fill:#5e6f9c;}.cls-40{fill:#8198db;}.cls-41{fill:#464d88;}.cls-42{fill:#495b9f;}.cls-43{fill:#5a6d9d;}.cls-44{fill:#433a79;}.cls-45{fill:#4d5295;}.cls-46{fill:#5871a1;}.cls-47{fill:#6961b7;}.cls-48{fill:#718acf;}.cls-49{fill:#6d63b7;}.cls-50{fill:#414182;}.cls-51{fill:#938fa9;}.cls-52{fill:#433b78;}.cls-53{fill:#45406a;}.cls-54{fill:#695eba;}.cls-55{fill:#a3a0bc;}.cls-56{fill:#4b518e;}.cls-57{fill:#6371a1;}.cls-58{fill:#6b84c0;}.cls-59{fill:#695ea9;}.cls-60{fill:#6c5cc6;}.cls-61{fill:#404765;}.cls-62{fill:#889fd6;}.cls-63{fill:#6c87c3;}.cls-64{fill:#6277b6;}.cls-65{fill:#3d3d3d;}.cls-66{fill:#483e8c;}.cls-67{fill:#7c90d1;}.cls-68{fill:#4c529a;}.cls-69{fill:#494949;}.cls-70{fill:#676bb4;}.cls-71{fill:#b5b5b5;}.cls-72{fill:#4e4584;}.cls-73{fill:#0f0f0f;}.cls-74{fill:#060606;}.cls-75{fill:#f3faeb;}.cls-76{fill:#313131;}.cls-77{fill:#050505;}.cls-78{fill:#f1f3f7;}.cls-79{fill:#617bbd;}.cls-80{fill:#516eb4;}.cls-81{fill:#8594b7;}.cls-82{fill:#6d8eda;}.cls-83{fill:#413692;}.cls-84{fill:#6d68be;}.cls-85{fill:#6d6ec6;}.cls-86{fill:#40378f;}.cls-87{fill:#675fb3;}.cls-88{fill:#5b52b1;}.cls-89{fill:#736cc6;}.cls-90{fill:#7268bd;}.cls-91{fill:#413f97;}.cls-92{fill:#463e94;}.cls-93{fill:#6968bc;}.cls-94{fill:#6f66b8;}.cls-95{fill:#706ac7;}.cls-96{fill:#7f81d8;}.cls-97{fill:#7271c8;}.cls-98{fill:#6b6bc0;}.cls-99{fill:#413592;}.cls-100{fill:#3f378f;}.cls-101{fill:#403e95;}.cls-102{fill:#6b6fc5;}.cls-103{fill:#8382d6;}.cls-104{fill:#7064c1;}.cls-105{fill:#8c9dc8;}.cls-106{fill:#798dd2;}.cls-107{fill:#768cd6;}.cls-108{fill:#a1b5f0;}.cls-109{fill:#98aad8;}.cls-110{fill:#6c86c5;}.cls-111{fill:#6c86c7;}.cls-112{fill:#5167b0;}.cls-113{fill:#849cdb;}.cls-114{fill:#849cde;}.cls-115{fill:#7481d4;}.cls-116{fill:#7c96db;}.cls-117{fill:#879fe4;}.cls-118{fill:#819de2;}.cls-119{fill:#526fb2;}.cls-120{fill:#4d73b6;}.cls-121{fill:#8fa2e0;}.cls-122{fill:#70819e;}.cls-123{fill:#6d88c8;}.cls-124{fill:#435bb2;}.cls-125{fill:#88a7e2;}.cls-126{fill:#7582be;}.cls-127{fill:#596cb0;}.cls-128{fill:#7788e1;}.cls-129{fill:#7893e6;}.cls-130{fill:#5d6d9b;}.cls-131{fill:#7288c9;}.cls-132{fill:#6c86cc;}.cls-133{fill:#7e98de;}.cls-134{fill:#6b66b5;}.cls-135{fill:#6561a8;}.cls-136{fill:#443893;}.cls-137{fill:#6b67ab;}.cls-138{fill:#4851a6;}.cls-139{fill:#596ab6;}.cls-140{fill:#4353a7;}.cls-141{fill:#7b8fd1;}.cls-142{fill:#3d3f97;}.cls-143{fill:#6d75c4;}.cls-144{fill:#434ba0;}.cls-145{fill:#433690;}.cls-146{fill:#433c94;}.cls-147{fill:#a8bae3;}.cls-148{fill:#879dd1;}.cls-149{fill:#bccced;}.cls-150{fill:#9cb2eb;}.cls-151{fill:#a3bcec;}.cls-152{fill:#91aae6;}.cls-153{fill:#858585;}.cls-154{fill:#5f73bb;}.cls-155{fill:#656dca;}.cls-156{fill:#41449a;}.cls-157{fill:#454045;}.cls-158{fill:#424145;}.cls-159{fill:#e5edf6;}.cls-160{fill:#c6d4f1;}.cls-161{fill:#cdd9f0;}.cls-162{fill:#acbde4;}.cls-163{fill:#dde5f3;}.cls-164{fill:#b9c6e9;}.cls-165{fill:#a5b3e1;}.cls-166{fill:#19191c;}.cls-167{fill:#161010;}.cls-168{fill:#373438;}.cls-169{fill:#7387bf;}.cls-170{fill:#829cdc;}.cls-171{fill:#181211;}.cls-172{fill:#323234;}.cls-173{fill:#090906;}.cls-174{fill:#2d2d29;}.cls-175{fill:#09070b;}.cls-176{fill:#d2dbec;}.cls-177{fill:#8ea5d8;}.cls-178{fill:#101014;}.cls-179{fill:#91a2ca;}.cls-180{fill:#d8d9e4;}.cls-181{fill:#101013;}.cls-182{fill:#040407;}.cls-183{fill:#c9ccdc;}.cls-184{fill:#111212;}.cls-185{fill:#3e3f43;}.cls-186{fill:#110f12;}.cls-187{fill:#090602;}.cls-188{fill:#282022;}.cls-189{fill:#0b0b0b;}.cls-190{fill:#0a0405;}.cls-191{fill:#635eb7;}.cls-192{fill:#7267c0;}.cls-193{fill:#5e5bb1;}.cls-194{fill:#6860ba;}.cls-195{fill:#4950a8;}.cls-196{fill:#6876c7;}.cls-197{fill:#696fc4;}.cls-198{fill:#666aba;}.cls-199{fill:#8580d6;}.cls-200{fill:#838cdf;}.cls-201{fill:#53599c;}.cls-202{fill:#737ad3;}.cls-203{fill:#4e60af;}.cls-204{fill:#666ebe;}.cls-205{fill:#6a79c4;}.cls-206{fill:#627cc1;}.cls-207{fill:#b6c8f0;}.cls-208{fill:#839bdc;}.cls-209{fill:#8199db;}.cls-210{fill:#4654a6;}.cls-211{fill:#6c80ca;}.cls-212{fill:#7f8dd7;}.cls-213{fill:#98aee7;}.cls-214{fill:#798ec9;}.cls-215{fill:#596bb3;}.cls-216{fill:#8f9ce0;}.cls-217{fill:#1e1e1e;}.cls-218{fill:#687db6;}.cls-219{fill:#434343;}.cls-220{fill:#797375;}.cls-221{fill:#474747;}.cls-222{fill:#444446;}.cls-223{fill:#4c5486;}.cls-224{fill:#080808;}.cls-225{fill:#5b73bb;}.cls-226{fill:#707dc7;}.cls-227{fill:#6e7ac1;}.cls-228{fill:#6e81c9;}.cls-229{fill:#7a8dd6;}.cls-230{fill:#778ad3;}.cls-231{fill:#6060af;}.cls-232{fill:#808ad2;}.cls-233{fill:#95a6e2;}.cls-234{fill:#a4b8f1;}.cls-235{fill:#7385c8;}.cls-236{fill:#8d99e7;}.cls-237{fill:#717fd3;}.cls-238{fill:#0d0808;}.cls-239{fill:#aec3ee;}.cls-240{fill:#778dcd;}.cls-241{fill:#7a95d0;}.cls-242{fill:#8fa5e1;}.cls-243{fill:#8fa7e2;}.cls-244{fill:#463d4a;}.cls-245{fill:#7386ce;}.cls-246{fill:#5b67ba;}.cls-247{fill:#7685d6;}.cls-248{fill:#7488d4;}.cls-249{fill:#5163ad;}.cls-250{fill:#7b8ed5;}.cls-251{fill:#7787d3;}.cls-252{fill:#919fe2;}.cls-253{fill:#8195e3;}.cls-254{fill:#9baff2;}.cls-255{fill:#8298d9;}.cls-256{fill:#4e669b;}.cls-257{fill:#0d0d0d;}
        </style>
    </defs>
    <g id="Bb6y8O.tif">
        <path class="cls-1" d="M159,257.65H8.23v-5.31H159v5.31Z"/>
        <path class="cls-1" d="M8.23.3H159V5.61H8.23V.3Z"/>
        <path d="M167,5.61V252.34H164.3V5.61Z"/>
        <ellipse cx="1.62" cy="128.98" rx="1.87" ry="170.72"/>
        <path class="cls-2" d="M8.23.3V3L.3,5.61C.42.3.42.3,8.23.3Z"/>
        <path class="cls-2" d="M8.23,255v2.65a12.24,12.24,0,0,0-2.64,0c-4.59,1-6.35-.74-5.29-5.34Z"/>
        <path class="cls-3" d="M8.23,255,.3,252.34v-2.65H2.94l5.29,2.65Z"/>
        <path class="cls-2"
              d="M167,5.61H164.3C164.08,1.64,161,3.35,159,3V.3a12.92,12.92,0,0,0,2.64,0C166.25-.73,168,1,167,5.61Z"/>
        <path class="cls-4" d="M.3,5.61,8.23,3V5.61L2.94,8.26H.3Z"/>
        <path class="cls-2"
              d="M164.3,252.34H167c-.13,5.31-.13,5.31-7.94,5.31V255C161,254.6,164.08,256.31,164.3,252.34Z"/>
        <path class="cls-5"
              d="M2.94,8.26,8.23,5.61H159l2.65,2.65V249.69L159,252.34H8.23l-5.29-2.65ZM159,167.45V24.18a47.65,47.65,0,0,0-.12-7.47c-.18-1.16-1.64-2.1-2.52-3.14-.7-.89-1.37-2.53-2.08-2.54q-15.12-.26-30.24,0c-.7,0-1.38,1.65-2.07,2.54h-2.65c-1.14-.89-2.28-2.53-3.41-2.53-5.75,0-11.7-1.32-17.12,1.83-4.74-3.08-9.25-1.74-14.4-.51C80,13.42,74.88,11.08,70.07,11c-8.65-.14,1.47,3.84-1,5.21H61.14c0-.42-.15-.92,0-1.25.8-1.53,5.47-3.76-.6-4-5.22-.2-10.67-1.06-15.29,2.59C44.58,12.68,43.9,11,43.19,11q-13.78-.26-27.59,0c-.71,0-1.39,1.65-2.08,2.54-.88,1-2.34,2-2.52,3.14a47.65,47.65,0,0,0-.12,7.47v214.9c0,1.3,0,2.61,0,3.91.21,6.57.22,6.65,5.79,6.68,9.53.07,19.06,0,28.6,0h95.22c1.72,0,3.45.06,5.16,0,4.22-.17,10,1.17,12.22-1.05s.9-8,1.14-12.2v-69Z"/>
        <path class="cls-6" d="M159,252.34l2.65-2.65h2.64v2.65c-.22,4-3.28,2.26-5.29,2.66Z"/>
        <path class="cls-7" d="M161.66,8.26,159,5.61V3c2,.39,5.07-1.32,5.29,2.65V8.26Z"/>
        <ellipse class="cls-8" cx="162.98" cy="128.98" rx="1.87" ry="170.72"/>
        <path class="cls-9"
              d="M61.14,16.22h7.93c11.37-.46,17.3,6.35,21.17,15.92v5.31q-1.33,4-2.65,7.95c-4,.23-2.25,3.3-2.65,5.31L69.07,64c-1,.52-1.9,1.4-2.89,1.45-.77,0-1.6-.93-2.4-1.45V53.36l-2.64-5.3V37.45c-1.48-5.88-6.07-5.52-10.58-5.31-1.1-.89-2.7-2.76-3.2-2.5-3.94,2.05-1.3,5.93-2,9-.06.24,1,.84,1.62,1.1.14.06.63-.52.87-.87.93-1.33,1.82-2.68,2.72-4,7.53,2.11,4.75,8.36,5.29,13.27L53.2,50.71v2.65c-2.27,1.77-4.51,3.58-6.81,5.29a35.48,35.48,0,0,1-3.19,1.92c1.24,1.14,2.39,3.09,3.75,3.25,3.8.45,7.69.16,11.54.16,0,2,5.49,6-2,5.43-1-.08-2.17,1.64-3.26,2.53H29.4c-1.62-.29-3.25-.49-4.83-.89-1.94-.5-3.84-1.17-5.76-1.77l-2.64-2.65-2.65-8V48.06c.29-1.62.49-3.26.89-4.84.5-1.95,1.17-3.85,1.76-5.77l2.64-2.66,2.65-2.65,5.29-5.31L32,24.18l10.58-5.31c2.69-.88,5.32-2.19,8.07-2.54C54.12,15.88,57.65,16.22,61.14,16.22ZM36,45.4a49.66,49.66,0,0,0-5.18.08c-.39.05-.67,1.1-1,1.69l9.66,0c-.3-.6-.47-1.55-.93-1.73A7.5,7.5,0,0,0,36,45.4ZM18.29,55.14l2.26,3.12c.3-1.17,1-2.39.82-3.49-.17-1.27-1.07-2.44-1.64-3.65Zm2.63-9.84a19.78,19.78,0,0,0,.45-3.78c0-.37-1.07-.67-1.65-1A19.42,19.42,0,0,0,18.9,44C18.88,44.31,20,44.7,20.92,45.3Z"/>
        <path class="cls-10"
              d="M159,119.69v21.23h-2.64c-1.77,2-3.49,4-5.32,6a19.14,19.14,0,0,1-2.62,2c-2.93-4.66-3.29-12.19-11.8-10.61a9.16,9.16,0,0,1,0-2.72c3.12-9.49,8.44-18.48,6.49-29.11v-5.31l5.29,2.65c.07,4.59-.83,9.37,2.64,13.27l.86,12.8c3.51-3.86,1-8.57,1.79-12.8h2.65Z"/>
        <path class="cls-11"
              d="M90.24,32.14c-3.87-9.57-9.8-16.38-21.17-15.92,2.47-1.37-7.65-5.35,1-5.21,4.81.07,9.92,2.41,14.33,1.35,5.15-1.23,9.66-2.57,14.4.51,5.42-3.15,11.37-1.8,17.12-1.83,1.13,0,2.27,1.64,3.41,2.53-4.22,0-8.46-.18-12.66.12-1.13.08-2.14,1.65-3.21,2.53-.88,1-2.34,2-2.52,3.14a46.48,46.48,0,0,0-.12,7.47l-2.65,2.66Z"/>
        <path class="cls-12"
              d="M45.27,249.69c-9.54,0-19.07.05-28.6,0-5.57,0-5.58-.11-5.79-6.68,0-1.3,0-2.61,0-3.91,2-.4,5.06,1.32,5.29-2.65H26.75v2.65L32,244.39l.87,2.2c.59-.74,1.18-1.47,1.78-2.2H45.27Z"/>
        <path class="cls-13"
              d="M63.78,249.69H61.14c-1.06-.88-2-2.41-3.18-2.53A99,99,0,0,0,47.91,247V236.43l5.29-5.31v-2.65l2.65-2.66h2.64c.23,4,3.29,2.26,5.29,2.66,2.51,3.13,3,6.77,2.65,10.61l-2.65,2.65v8Z"/>
        <path class="cls-14"
              d="M122,13.57c.69-.89,1.37-2.53,2.07-2.54q15.12-.26,30.24,0c.71,0,1.38,1.65,2.08,2.54-4.23,0-8.47-.18-12.67.12-1.12.08-2.14,1.65-3.21,2.53.11,6.32.12,6.28,7,8.45.49.15.64,1.42.94,2.16-9.66.68-10.31,1.26-10.57,9.55-.07,2.12,0,4.25,0,6.37H135.2c-.16-11-.17-11.17-10.65-10.5-2.66.17-5.24,1.66-7.86,2.54V32.14c.4-2-1.31-5.08,2.64-5.31,4.93,3,12.47,3.81,15.66,1.42a7.48,7.48,0,0,0,2.77-4c1.94-8.76.2-10.66-9.33-10.72Z"/>
        <path class="cls-15"
              d="M21.46,32.14l-2.65,2.65-2.64,2.66c-3.56,0-2.26-2.78-2.68-4.65-.48-2.13,1.75-5.53-2.61-6V24.18c.88-.65,2.59-1.43,2.52-1.92C12.56,17,15,15.83,19.74,16c2.28.1,6.22,2.55,7-2.47q6.49-1.21,5.29,5.3v5.31l-5.29,2.65c-2.6,1-6.7-2.46-7.94,2.66l-2.19.87,2.19,1.78Z"/>
        <path class="cls-16"
              d="M148.43,103.77l-5.29-2.65c-.4-2,1.31-5.08-2.65-5.31V93.16l-2.64-2.65V87.85c2.6-1,6.69,2.46,7.93-2.65H159V95.81C153.2,95.41,150.75,99.51,148.43,103.77Z"/>
        <path class="cls-17"
              d="M10.88,180.71V159.49h7.93l2.65,2.65c.23,4,3.29,2.25,5.29,2.65v2.66c-4,.22-2.25,3.29-2.65,5.3v2.66c-.22,4-3.28,2.25-5.29,2.65s-5.06-1.32-5.29,2.65Z"/>
        <path class="cls-18"
              d="M159,48.06V64H145.78c0-.86,0-1.73,0-2.59.2-4.21-1.14-10,1.07-12.21S154.81,48.29,159,48.06Z"/>
        <path class="cls-19" d="M10.88,140.92V122.34h5.29c2,.4,5.06-1.31,5.29,2.66v15.92l-2.65,2.65H13.52Z"/>
        <path class="cls-20"
              d="M18.81,69.28c1.92.6,3.82,1.27,5.76,1.77,1.58.4,3.21.6,4.83.89.67.88,1.35,2.53,2,2.52,4.43-.06,3,3.13,3.27,5.43L26.75,85.2H24.1l-2.64-2.65a16,16,0,0,0,0-2.59,12.82,12.82,0,0,0-.81-2.24l-1.81,2.17c-3.53,0-2.13-2.8-2.73-4.6C15.66,74,14.41,73,13.52,71.94H10.88V66.63h5.29Zm1.71,3-1.71.94c.3.3.66.88.87.83a8,8,0,0,0,1.78-.83Z"/>
        <path class="cls-21"
              d="M159,175.41v2.65l-7.94,2.65H140.49l2.65-2.65c4-.23,2.25-3.3,2.64-5.31,1-2.61-2.45-6.71,2.65-8h5.29l2.65,2.66C157.37,170.06,153.91,174.16,159,175.41Z"/>
        <path class="cls-22"
              d="M10.88,101.12V90.51h2.64c.16,3.25,2.5,3.27,4.28,2.13,1.58-1,2.47-3.15,3.66-4.79l5.29,2.66c.4,2-1.31,5.08,2.65,5.3v5.31H10.88Z"/>
        <path class="cls-23"
              d="M140.49,249.69H119.33L116.69,247c.63-.89,1.41-2.61,1.87-2.53,6.58,1.22,11.26-3.17,16.64-5.43q2.66,4,5.29,8Z"/>
        <path class="cls-24" d="M151.07,180.71l7.94-2.65v21.22h-2.64l-5.3-5.3V180.71Z"/>
        <path class="cls-25"
              d="M148.43,26.83c-.3-.74-.45-2-.94-2.16-6.88-2.17-6.89-2.13-7-8.45a58.5,58.5,0,0,0,6.49,0c5.47-.6,9,1.23,9.9,7.08.06.41,1.39.62,2.13.92v2.65H148.43Z"/>
        <path class="cls-26"
              d="M159,215.2v21.23h-2.64q-1.34-2.66-2.65-5.31c-.88-.88-1.76-1.77-2.65-2.65-.44-5.31,4-8.67,5.3-13.27Z"/>
        <path class="cls-27" d="M108.75,249.69H84.94V247l-2.64-5.31c8.87,1.49,16.93,7.09,26.45,5.31Z"/>
        <path class="cls-28"
              d="M32,18.87q1.2-6.51-5.29-5.3H13.52c.69-.89,1.37-2.53,2.08-2.54q13.78-.26,27.59,0c.71,0,1.39,1.65,2.08,2.54C36.92,13.57,36.92,13.57,32,18.87Z"/>
        <path class="cls-29"
              d="M61.14,16.22c-3.49,0-7-.34-10.45.11-2.75.35-5.38,1.66-8.07,2.54l2.65-5.3C49.89,9.92,55.34,10.78,60.56,11c6.07.23,1.4,2.46.6,4C61,15.3,61.14,15.8,61.14,16.22Z"/>
        <path class="cls-30"
              d="M159,48.06c-4.2.23-10-1.1-12.15,1.12s-.87,8-1.07,12.21c0,.86,0,1.73,0,2.59h-2.64c-.53-6.25,1.72-12.88-2.65-18.58H159Z"/>
        <path class="cls-31"
              d="M156.37,236.43H159c-.24,4.21,1.08,10-1.14,12.2s-8,.88-12.22,1.05c-1.71.07-3.44,0-5.16,0V247h2.65C155.82,247,155.82,247,156.37,236.43Z"/>
        <ellipse class="cls-32" cx="156.37" cy="37.45" rx="3.74" ry="11.26"/>
        <path class="cls-33"
              d="M159,24.18c-.74-.3-2.07-.51-2.13-.92-.89-5.85-4.43-7.68-9.9-7.08a58.5,58.5,0,0,1-6.49,0c1.07-.88,2.09-2.45,3.21-2.53,4.2-.3,8.44-.12,12.67-.12.88,1,2.34,2,2.52,3.14A47.65,47.65,0,0,1,159,24.18Z"/>
        <path class="cls-34"
              d="M10.88,26.83c4.36.44,2.13,3.84,2.61,6,.42,1.87-.88,4.62,2.68,4.65-.59,1.92-1.26,3.82-1.76,5.77-.4,1.58-.6,3.22-.89,4.84H10.88Z"/>
        <path class="cls-35" d="M143.14,64H159v2.65h-2.64c-10.33,0-10.33,0-10.59,8-3.95-.23-2.24-3.3-2.64-5.31V64Z"/>
        <path class="cls-36"
              d="M84.94,247v2.65H63.78V247l2.65-2.65c3,1.39,5.61,3.46,9.38,2.76C78.76,246.6,81.89,247,84.94,247Z"/>
        <ellipse class="cls-37" cx="157.69" cy="152.85" rx="1.87" ry="16.88"/>
        <path class="cls-38"
              d="M13.52,13.57H26.75c-.79,5-4.73,2.57-7,2.47-4.79-.21-7.18.95-6.34,6.22.07.49-1.64,1.27-2.52,1.92A47.65,47.65,0,0,1,11,16.71C11.18,15.55,12.64,14.61,13.52,13.57Z"/>
        <path class="cls-39" d="M159,119.69,156.37,117V101.12L159,98.47Z"/>
        <path class="cls-40"
              d="M10.88,101.12H26.75c-.63.88-1.15,2.42-1.91,2.55-5.85,1-8.52,2.18-11.32,5.41-.39-2,1.32-5.08-2.64-5.31Z"/>
        <path class="cls-41" d="M10.88,180.71h2.64v21.23H10.88Z"/>
        <path class="cls-42" d="M13.52,90.51H10.88V71.94h2.64c0,4.23-.18,8.48.13,12.7.08,1.12,1.64,2.14,2.52,3.21Z"/>
        <path class="cls-43" d="M10.88,140.92l2.64,2.65v15.92H10.88Z"/>
        <ellipse class="cls-44" cx="12.2" cy="227.14" rx="1.87" ry="13.13"/>
        <path class="cls-45" d="M156.37,66.63H159V85.2h-2.64V66.63Z"/>
        <path class="cls-46" d="M10.88,103.77c4,.23,2.25,3.3,2.64,5.31v13.26H10.88Z"/>
        <path class="cls-47" d="M47.91,236.43v13.26H45.27V233.77Z"/>
        <path class="cls-48" d="M159,98.47l-2.64,2.65-7.94,2.65c2.32-4.26,4.77-8.36,10.58-8Z"/>
        <path class="cls-49"
              d="M13.52,217.85H10.88V215.2H21.46l-2.65,8a22.6,22.6,0,0,1-2.62-2C15.21,220.13,14.41,219,13.52,217.85Z"/>
        <ellipse class="cls-50" cx="12.2" cy="208.57" rx="1.87" ry="9.38"/>
        <ellipse class="cls-51" cx="157.69" cy="208.57" rx="1.87" ry="9.38"/>
        <path class="cls-52" d="M47.91,249.69V247a99,99,0,0,1,10.05.12c1.14.12,2.12,1.65,3.18,2.53Z"/>
        <path class="cls-53" d="M108.75,249.69V247h7.94l2.64,2.65Z"/>
        <ellipse class="cls-54" cx="120.65" cy="18.87" rx="1.87" ry="7.5"/>
        <ellipse class="cls-55" cx="12.2" cy="53.36" rx="1.87" ry="7.5"/>
        <path class="cls-56" d="M10.88,58.67h2.64l2.65,8H10.88Z"/>
        <path class="cls-57" d="M159,175.41c-5.1-1.25-1.64-5.35-2.64-8H159Z"/>
        <path class="cls-58" d="M159,167.45h-2.64l-2.65-2.66H159Z"/>
        <path class="cls-59" d="M10.88,236.43h5.29c-.23,4-3.29,2.25-5.29,2.65Z"/>
        <ellipse class="cls-60" cx="156.37" cy="28.16" rx="3.74" ry="1.88"/>
        <ellipse class="cls-61" cx="157.69" cy="200.61" rx="1.87" ry="1.88"/>
        <path class="cls-62"
              d="M53.2,71.94c1.09-.89,2.25-2.61,3.26-2.53,7.52.61,2-3.42,2-5.43h5.29c.8.52,1.63,1.5,2.4,1.45,1-.05,1.93-.93,2.89-1.45,1.08.88,2.12,2.47,3.24,2.53,5.08.27,10.18.12,15.28.12h2.65v2.65c.22,4,3.28,2.26,5.29,2.66-.3.73-.48,2-.91,2.13-6.47,1.39-5.14,2.37,0,3.85.68.19.61,3,.9,4.63-5.63-1.1-11.74-5.19-15.88,2.65-5.29-.45-8.64,4-13.22,5.31-6.33.56-9.47-4.22-13.23-8,.52-1.85.72-3.86,1.62-5.49C56.21,74.54,56.94,72.64,53.2,71.94Zm18,7.08,2.26,3.12c.31-1.17,1-2.39.82-3.49-.17-1.27-1.06-2.44-1.64-3.65Z"/>
        <path class="cls-63"
              d="M53.2,71.94c3.74.7,3,2.6,1.62,5.12-.9,1.63-1.1,3.64-1.62,5.49.07,2.93.5,6.11-4.2,5.33a23.21,23.21,0,0,0-3.73,0c-1.15-1.58,6.62-5.7-1.63-5.44-2.08.06-4.2-1.63-6.31-2.52H34.69c-.23-2.3,1.16-5.49-3.27-5.43-.67,0-1.35-1.64-2-2.52Z"/>
        <path class="cls-64"
              d="M87.59,66.63c-5.1,0-10.2.15-15.28-.12-1.12-.06-2.16-1.65-3.24-2.53L84.94,50.71c.89,1.07,2.45,2.09,2.53,3.22C87.77,58.14,87.59,62.39,87.59,66.63Z"/>
        <path class="cls-65"
              d="M63.78,64H58.49c-3.85,0-7.74.29-11.54-.16-1.36-.16-2.51-2.11-3.75-3.25a35.48,35.48,0,0,0,3.19-1.92c2.3-1.71,4.54-3.52,6.81-5.29h2.65V56l-2.34,1.64c.67.33,1.61,1.13,2,.92a20.18,20.18,0,0,0,3-2.56l5.29-2.66Z"/>
        <path class="cls-6"
              d="M50.56,32.14c4.51-.21,9.1-.57,10.58,5.31-5.1,1.24-1.64,5.34-2.65,7.95v5.31H55.85V48.06c-.54-4.91,2.24-11.16-5.29-13.27l-2.2-.87Z"/>
        <path class="cls-66" d="M45.27,13.57l-2.65,5.3L32,24.18V18.87C36.92,13.57,36.92,13.57,45.27,13.57Z"/>
        <path class="cls-67"
              d="M87.59,66.63c0-4.24.18-8.49-.12-12.7-.08-1.13-1.64-2.15-2.53-3.22.4-2-1.31-5.08,2.65-5.31l2.65,2.66V66.63Z"/>
        <path class="cls-68"
              d="M90.24,48.06,87.59,45.4q1.32-4,2.65-7.95h5.29V45.4C93.52,45.8,90.46,44.09,90.24,48.06Z"/>
        <path class="cls-69"
              d="M50.56,32.14l-2.2,1.78,2.2.87c-.9,1.35-1.79,2.7-2.72,4-.24.35-.73.93-.87.87-.62-.26-1.68-.86-1.62-1.1.71-3-1.93-6.9,2-9C47.86,29.38,49.46,31.25,50.56,32.14Z"/>
        <path class="cls-70" d="M95.53,37.45H90.24V32.14l7.93-2.65Z"/>
        <path class="cls-71" d="M58.49,50.71V48.06h2.65l2.64,5.3L58.49,56H55.85V53.36Z"/>
        <path class="cls-72" d="M21.46,32.14H18.81V29.49c1.24-5.12,5.34-1.65,7.94-2.66Z"/>
        <path class="cls-73"
              d="M36,45.4a7.5,7.5,0,0,1,2.56.08c.46.18.63,1.13.93,1.73l-9.66,0c.32-.59.6-1.64,1-1.69A49.66,49.66,0,0,1,36,45.4Z"/>
        <path class="cls-74" d="M58.49,45.4c1-2.61-2.45-6.71,2.65-7.95V45.4Z"/>
        <path class="cls-75" d="M18.29,55.14l1.44-4c.57,1.21,1.47,2.38,1.64,3.65.14,1.1-.52,2.32-.82,3.49Z"/>
        <path class="cls-75"
              d="M20.92,45.3c-1-.6-2-1-2-1.31a19.42,19.42,0,0,1,.82-3.47c.58.33,1.63.63,1.65,1A19.78,19.78,0,0,1,20.92,45.3Z"/>
        <path class="cls-76" d="M55.85,48.06v2.65H53.2Z"/>
        <ellipse class="cls-77" cx="54.52" cy="52.04" rx="1.87" ry="1.88"/>
        <ellipse class="cls-76" cx="59.82" cy="46.73" rx="1.87" ry="1.88"/>
        <path class="cls-34" d="M16.17,37.45l2.64-2.66Z"/>
        <path class="cls-56" d="M18.81,69.28l-2.64-2.65Z"/>
        <path class="cls-78"
              d="M79.65,85.2c4.14-7.84,10.25-3.75,15.88-2.65.73.29,2.09.57,2.1.87.14,6.74,3.56,2.34,5.83,1.78,1,.52,1.91,1.4,2.9,1.46.76,0,1.59-.94,2.39-1.46h7.94l7.93,5.31c5.3-.45,8.64,4,13.23,5.3-.21,4.53,1.83,7.93,5.29,10.62,2,10.63-3.37,19.62-6.49,29.11a9.16,9.16,0,0,0,0,2.72c8.51-1.58,8.87,6,11.8,10.61a8.64,8.64,0,0,0-1.22,0c-1.08,8-4.44,15.62-4.07,23.87v5.31l-2.65,2.65h-2.64l-2.65,2.65-10.58-5.3c-1.06-.89-2.08-2.45-3.2-2.53-4.21-.31-8.44-.12-12.67-.12-8.57,0-17.18-.45-25.72.14-6.87.47-11.17-2.16-14-8.1v-2.66a27.52,27.52,0,0,1,8.86-7.68c.85-.43,1.16-1.92,1.72-2.93.75-.3,2.16-.83,2.14-.88-.71-2.12-4.32-5.54,2-4.2,3.84.81,6.53.21,11.7-2.88q5.28-5.31,10.58-10.61,2.64-4,5.29-8c.88-.64,2.36-1.14,2.55-2,1.38-5.84-1.42-11.11-2.55-16.62-2.68-3.47-6.07-5.52-10.58-5.31-5.12,1.48-1.06,6.08-2.75,8.36-5.94,8.08-.58,11.82,5.39,15.52v2.65l-7.93,8c-2.65,0-5.85,1-7.82-.2-4-2.33-10.47-2.05-10.73-9a20.12,20.12,0,0,0-.82-3.62c-.63,1.19-1,2.71-1.92,3.52-3.54,3-3,10.71-10.46,9.27H50.56a47.39,47.39,0,0,0-7.45.12C42,138.57,41,140,40,140.92H24.1l-2.64-2.66V125c4-.23,2.25-3.3,2.64-5.31h2.65c2-.4,5.06,1.32,5.29-2.65,1.81.88,4.43,3,5.29,2.45,6.75-4.44,14.14-1.68,21.16-2.45,4.68-2.38,8.28,4.41,12.94,1.58s1.95-8.94,5.58-12.19c0-3.94.45-8-.13-11.8S78.26,88.19,79.65,85.2Zm29.1,66.33h2.65l2.64-2.66q2.65-2.64,5.29-5.3l5.29-5.31,2.65-2.65c5.54-1.36,5.17-7.17,7.93-10.61,3.25-13,3.25-13-2.64-23.88-3.08-4.77-8.77-7-13.14-7.51-9.67-1.2-19.19-5-29.18-3.1l-2.65-2.66c-.73.29-2,.44-2.11.9-2,7.51-4.28,15-3.18,23,.9,4,3.88,3.62,5.07,1.17,1.73-3.55,2-7.82,2.87-11.78,2-.4,5.06,1.31,5.29-2.65h10.58a17.39,17.39,0,0,0,3.34,2.6c7,3.14,10.72,8.15,9.92,16.12-.25,2.58,0,5.2,0,7.81v2.65q-2.64,4-5.29,8v2.65l-13.22,13.27-5.29,2.65c-6-.06-9.06,4.92-13.23,8L77,167.45c0,3.56,2.73,2.61,4.64,2.62,13,.06,26,0,39,0,7.27,0,7.27,0,11.88,5.31a3.63,3.63,0,0,0,0,1.28c.15.37.57.63.86.94,1.47-1.7,3.8-3.22,4.21-5.15.69-3.31.19-6.88.19-10.34.88-1,2.34-2,2.52-3.14a46.46,46.46,0,0,0,.12-7.47v-5.31c-.88-4-3.61-3.56-5.11-1.18-1.65,2.6-1.94,6.06-2.82,9.14-2.19.89-4.32,2.36-6.57,2.54-6.09.5-12.31-.71-18.1,2.62-1.35.78-4.43.94-4.43-2.51l2.65-2.65ZM40,133H53.2c3.06,0,6.13.2,9.16-.09,1.4-.14,3.89-1.28,3.86-1.86-.11-2.14,2-5.56-2.44-6-10.36,0-20.72-.08-31.07.11-1.12,0-2.21,1.66-3.31,2.54-3.63,2.67-3.63,5.29,0,8H32C34.64,134.6,38.74,138.07,40,133Zm90.51,13.52-1.87-2.88c-2.08,2.07-4.19,4.11-6.19,6.26-.12.14.54,1.17,1,1.63a1.24,1.24,0,0,0,1.21,0C126.66,149.84,128.62,148.1,130.49,146.48Z"/>
        <path class="cls-79"
              d="M143.14,172.75c-.37-8.25,3-15.86,4.07-23.87a8.64,8.64,0,0,1,1.22,0,19.14,19.14,0,0,0,2.62-2c1.83-1.94,3.55-4,5.32-6v23.87h-2.65l-2-2.65-3.29,2.65c-5.1,1.25-1.64,5.35-2.65,8Z"/>
        <path class="cls-80" d="M148.43,103.77l7.94-2.65V117h-5.3C147.6,113.14,148.5,108.36,148.43,103.77Z"/>
        <path class="cls-81" d="M143.14,106.43c-3.46-2.69-5.5-6.09-5.29-10.62h2.64c4,.23,2.25,3.3,2.65,5.31Z"/>
        <path class="cls-82" d="M151.07,117h2.65c-.83,4.23,1.72,8.94-1.79,12.8Z"/>
        <path class="cls-83"
              d="M119.33,13.57V26.83c-4,.23-2.24,3.3-2.64,5.31H114c-.22-4-3.28-2.25-5.29-2.65l-2.64-2.66c-2.51-3.13-3-6.77-2.65-10.61,1.07-.88,2.08-2.45,3.21-2.53C110.87,13.39,115.11,13.57,119.33,13.57Z"/>
        <path class="cls-84"
              d="M103.46,16.22c-.32,3.84.14,7.48,2.65,10.61h-5.29a46.48,46.48,0,0,1,.12-7.47C101.12,18.21,102.58,17.26,103.46,16.22Z"/>
        <path class="cls-85" d="M98.17,29.49l2.65-2.66Z"/>
        <path class="cls-86"
              d="M45.27,233.77v10.62H32c-.4-2,1.31-5.08-2.64-5.31l-2.65-2.65q1.32-2.66,2.65-5.31L32,228.47h5.29C38.37,232.66,41.16,234.2,45.27,233.77Z"/>
        <path class="cls-87"
              d="M29.4,231.12q-1.33,2.65-2.65,5.31H16.17c3.48-3.91,2.57-8.68,2.64-13.27.89.67,2.39,1.24,2.53,2a62.07,62.07,0,0,1,.49,7.61Z"/>
        <path class="cls-88" d="M29.4,239.08c4,.23,2.24,3.29,2.64,5.31l-5.29-5.31Z"/>
        <path class="cls-89" d="M29.4,239.08H26.75v-2.65Z"/>
        <path class="cls-90" d="M32,244.39h2.65c-.6.73-1.19,1.46-1.78,2.2Z"/>
        <path class="cls-91"
              d="M47.91,236.43l-2.64-2.66c-1-4.19-3.83-5.73-7.94-5.3q-2.64-4-5.29-8V215.2h2.65l.87,2.2,1.77-2.2c2.6-1,6.7,2.46,7.94-2.65l7.93,5.3v10.62l-2.19.87,2.19,1.78Z"/>
        <path class="cls-92"
              d="M84.94,247c-3,0-6.18-.44-9.13.11-3.77.7-6.41-1.37-9.38-2.76l-2.65-2.66,2.65-2.65c5.1-1.24,1.64-5.35,2.64-8h5.29L77,233.77q2.64,4,5.29,8Z"/>
        <path class="cls-93" d="M69.07,231.12c-1,2.61,2.46,6.72-2.64,8,.32-3.84-.14-7.48-2.65-10.61h5.29Z"/>
        <path class="cls-94" d="M63.78,241.73l2.65,2.66L63.78,247Z"/>
        <path class="cls-95" d="M63.78,228.47c-2-.4-5.06,1.31-5.29-2.66C60.5,226.21,63.56,224.5,63.78,228.47Z"/>
        <path class="cls-96" d="M58.49,225.81H55.85l.87-2.2Z"/>
        <path class="cls-97" d="M53.2,228.47v-2.66h2.65Z"/>
        <path class="cls-98" d="M53.2,231.12,51,229.34l2.19-.87Z"/>
        <path class="cls-99"
              d="M122,24.18V13.57h6.45c9.53.06,11.27,2,9.33,10.72a7.48,7.48,0,0,1-2.77,4c-3.19,2.39-10.73,1.56-15.66-1.42Z"/>
        <path class="cls-100"
              d="M151.07,45.4H140.49l-2.64-2.65c0-2.12-.06-4.25,0-6.37.26-8.29.91-8.87,10.57-9.55,1.39,3,3.45,5.63,2.75,9.42C150.64,39.2,151.07,42.34,151.07,45.4Z"/>
        <path class="cls-101"
              d="M116.69,34.79c2.62-.88,5.2-2.37,7.86-2.54,10.48-.67,10.49-.51,10.65,10.5V45.4H122a36.53,36.53,0,0,1-3.52-4.95A35.15,35.15,0,0,1,116.69,34.79Z"/>
        <path class="cls-102"
              d="M116.69,34.79a35.15,35.15,0,0,0,1.77,5.66A36.53,36.53,0,0,0,122,45.4c-1.92-.59-3.82-1.26-5.76-1.76-1.58-.4-3.21-.6-4.82-.89l2.64-8V32.14h2.65Z"/>
        <path class="cls-103" d="M135.2,45.4V42.75h2.65C137,43.64,136.09,44.52,135.2,45.4Z"/>
        <path class="cls-104" d="M18.81,29.49v2.65l-2.19-1.78Z"/>
        <path class="cls-105"
              d="M137.85,95.81c-4.59-1.32-7.93-5.75-13.23-5.3,1.1-.89,2.27-1.7,3.27-2.68a22.63,22.63,0,0,0,2-2.63l5.29,2.65,2.65,2.66,2.64,2.65Z"/>
        <path class="cls-106" d="M156.37,82.55V85.2H145.78q1.33-2.65,2.65-5.31Z"/>
        <path class="cls-107" d="M145.78,85.2c-1.24,5.11-5.33,1.64-7.93,2.65C139.09,82.74,143.18,86.21,145.78,85.2Z"/>
        <path class="cls-108" d="M137.85,90.51l-2.65-2.66h2.65Z"/>
        <path class="cls-109" d="M137.85,95.81l2.64-2.65v2.65Z"/>
        <path class="cls-110"
              d="M24.1,172.75c.4-2-1.31-5.08,2.65-5.3l7.94-8h7.93l2.65,2.65a15.74,15.74,0,0,1,2.78,10.15c0,1,1.63,2.07,2.51,3.12-1,4.18-3.83,5.73-7.94,5.3-2,.4-5.06-1.31-5.29,2.65l-2.64-2.65-.88-2.2L32,180.71l-5.29-5.3Z"/>
        <path class="cls-111"
              d="M24.1,140.92H32l5.29,15.91-2.64,2.66c-4.11-.43-6.9,1.11-7.94,5.3-2-.4-5.06,1.32-5.29-2.65l2.17-1.81a12.82,12.82,0,0,0-2.24-.81,15.85,15.85,0,0,0-2.58,0A47.8,47.8,0,0,0,18.7,152c-.19-1.15-1.65-2.1-2.53-3.14l2.64-2.65Z"/>
        <path class="cls-112"
              d="M26.75,175.41l5.29,5.3h2.65l2.64,2.65V194H34.69c-.71-3.75-2.6-3-5.11-1.63-1.62.9-3.64,1.11-5.48,1.63l-2.64-2.66-2.65-2.65,2.65-2-2.65-3.3v-5.3c2-.4,5.07,1.31,5.29-2.65Z"/>
        <path class="cls-113" d="M26.75,164.79c1-4.19,3.83-5.73,7.94-5.3l-7.94,8Z"/>
        <path class="cls-114"
              d="M16.17,148.87c.88,1,2.34,2,2.53,3.14a47.8,47.8,0,0,1,.11,7.48H13.52v-2.66C18.62,155.59,15.16,151.49,16.17,148.87Z"/>
        <path class="cls-115" d="M18.81,178.06v5.3l-5.29-2.65C13.75,176.74,16.81,178.46,18.81,178.06Z"/>
        <path class="cls-116" d="M18.81,159.49a15.85,15.85,0,0,1,2.58,0,12.82,12.82,0,0,1,2.24.81l-2.17,1.81Z"/>
        <path class="cls-117" d="M26.75,175.41H24.1v-2.66Z"/>
        <path class="cls-118"
              d="M24.1,119.69c-.39,2,1.32,5.08-2.64,5.31-.23-4-3.29-2.26-5.29-2.66V111.73c.88,1.12,2.6,2.32,2.5,3.33C18.23,119.57,20.61,120.16,24.1,119.69Z"/>
        <path class="cls-119" d="M16.17,148.87c-1,2.62,2.45,6.72-2.65,8V143.57h5.29v2.65Z"/>
        <ellipse class="cls-120" cx="14.85" cy="117.04" rx="1.87" ry="7.5"/>
        <path class="cls-121" d="M18.81,146.22v-2.65l2.65-2.65H24.1Z"/>
        <path class="cls-122" d="M24.1,140.92H21.46v-2.66Z"/>
        <path class="cls-123"
              d="M37.33,79.89c2.11.89,4.23,2.58,6.31,2.52,8.25-.26.48,3.86,1.63,5.44q-2.66,8-5.29,15.92H34.69c-.89-.88-1.77-1.77-2.65-2.65-.4-2,1.31-5.08-2.64-5.31-.4-2,1.31-5.08-2.65-5.3V85.2l7.94-5.31.87,2.2Z"/>
        <path class="cls-124"
              d="M16.17,87.85c-.88-1.07-2.44-2.09-2.52-3.21-.31-4.22-.13-8.47-.13-12.7.89,1.1,2.14,2.09,2.56,3.35.6,1.8-.8,4.59,2.73,4.6l2.65,2.66V85.2l-2.65,2.65Z"/>
        <path class="cls-125" d="M26.75,85.2v5.31l-5.29-2.66V85.2h5.29Z"/>
        <path class="cls-126"
              d="M21.46,82.55l-2.65-2.66,1.81-2.17A12.82,12.82,0,0,1,21.43,80,16,16,0,0,1,21.46,82.55Z"/>
        <path class="cls-22" d="M24.1,85.2H21.46V82.55Z"/>
        <path class="cls-56" d="M20.52,72.32l.94.94a8,8,0,0,1-1.78.83c-.21,0-.57-.53-.87-.83Z"/>
        <path class="cls-127"
              d="M137.85,180.71h10.58c1,2.61-2.45,6.72,2.64,8V194c-5.25-1.87-9.57-6.55-15.87-5.31v-5.31Z"/>
        <path class="cls-128" d="M151.07,188.67c-5.09-1.24-1.63-5.35-2.64-8h2.64Z"/>
        <path class="cls-129" d="M148.43,164.79l3.29-2.65,2,2.65Z"/>
        <path class="cls-130" d="M143.14,172.75h2.64c-.39,2,1.32,5.08-2.64,5.31Z"/>
        <path class="cls-131"
              d="M16.17,111.73H13.52v-2.65c2.8-3.23,5.47-4.39,11.32-5.41.76-.13,1.28-1.67,1.91-2.55H29.4L32,103.77h2.65c2.52,3.64,3.8,7.1-.85,10.24-.88.59-1.21,2-1.8,3-2,.4-5.06-1.32-5.29,2.65H24.1c-3.49.47-5.87-.12-5.43-4.63C18.77,114.05,17.05,112.85,16.17,111.73Z"/>
        <path class="cls-132" d="M16.17,87.85h5.29c-1.19,1.64-2.08,3.77-3.66,4.79-1.78,1.14-4.12,1.12-4.28-2.13Z"/>
        <path class="cls-133" d="M32,103.77l-2.64-2.65V95.81c4,.23,2.24,3.3,2.64,5.31Z"/>
        <path class="cls-133" d="M26.75,90.51c4,.22,2.25,3.29,2.65,5.3C25.44,95.59,27.15,92.52,26.75,90.51Z"/>
        <path class="cls-9"
              d="M135.2,188.67c6.3-1.24,10.62,3.44,15.87,5.31l5.3,5.3V215.2c-1.33,4.6-5.74,8-5.3,13.27-5.8-.4-8.25,3.7-10.58,8-2,.4-5.06-1.32-5.29,2.65-5.38,2.26-10.06,6.65-16.64,5.43-.46-.08-1.24,1.64-1.87,2.53h-7.94c-9.52,1.78-17.58-3.82-26.45-5.31q-2.64-4-5.29-8c.21-5.42-1.25-11.11,2.64-15.92V215.2c4-.22,2.25-3.29,2.65-5.3l2.64-2.66c4.27-1.66,6.75-7.15,12.44-5.91a12.9,12.9,0,0,0,.79-2.05l7.94-2.65c0,2.94-.07,5.88,0,8.82.11,4.36.43,4.46,5.28,1.79a23.62,23.62,0,0,1-.81,4.73c-3.3,8.46-2.82,10.95,3.45,16.5,0,3.44,2.62,2.68,4.51,2.59s5.46-.38,5.62-1.15c.59-2.74,0-5.72-.07-8.61-.71.46-2,.92-2,1.37,0,4.35-3.16,2.88-5.38,3.14-.88-.88-1.77-1.76-2.65-2.65.07-4.58-.83-9.36,2.65-13.26,4-.23,2.24-3.3,2.64-5.31H122l2.64-2.65,2.65-2.66c-1.07-.88-2.09-2.45-3.21-2.53-4.2-.3-8.44-.12-12.66-.12v-5.31c2.6-1,6.69,2.46,7.93-2.65Zm-2.64,23.88c-3.17.12-3.24,2.43-2.16,4.19.57.93,2.93,1.15,4.42,1,2.08-.17,5.33,1.64,5.67-2.56l2.23-.91c-.35-.58-.68-1.65-1.05-1.66C138.64,212.49,135.6,212.55,132.56,212.55Z"/>
        <path class="cls-134"
              d="M135.2,239.08c.23-4,3.29-2.25,5.29-2.65.6,1.92,1.27,3.82,1.76,5.77.41,1.58.6,3.22.89,4.84h-2.65Q137.85,243.07,135.2,239.08Z"/>
        <path class="cls-135" d="M151.07,45.4c0-3.06-.43-6.2.11-9.15.7-3.79-1.36-6.43-2.75-9.42h5.29V45.4Z"/>
        <path class="cls-136"
              d="M143.14,247c-.29-1.62-.48-3.26-.89-4.84-.49-1.95-1.16-3.85-1.76-5.77,2.33-4.26,4.78-8.36,10.58-8,.89.88,1.77,1.77,2.65,2.65q1.32,2.65,2.65,5.31C155.82,247,155.82,247,143.14,247Z"/>
        <path class="cls-137" d="M153.72,231.12c-.88-.88-1.76-1.77-2.65-2.65C152,229.35,152.84,230.24,153.72,231.12Z"/>
        <path class="cls-138"
              d="M135.2,45.4c.89-.88,1.77-1.76,2.65-2.65l2.64,2.65c4.37,5.7,2.12,12.33,2.65,18.58v2.65H135.2l-7.93-8v-8l2.64-2.65C131.92,47.66,135,49.37,135.2,45.4Z"/>
        <path class="cls-139"
              d="M137.85,87.85H135.2l-5.29-2.65V82.55c4-.23,2.25-3.3,2.65-5.31,4-.23,2.25-3.29,2.64-5.3l7.94-2.66c.4,2-1.31,5.08,2.64,5.31.4,2-1.31,5.08,2.65,5.3q-1.32,2.65-2.65,5.31C143.18,86.21,139.09,82.74,137.85,87.85Z"/>
        <path class="cls-140" d="M156.37,82.55l-7.94-2.66c-.4-2,1.31-5.08-2.65-5.3.26-8,.26-8,10.59-8Z"/>
        <path class="cls-141" d="M143.14,69.28l-7.94,2.66V66.63h7.94Z"/>
        <path class="cls-142"
              d="M13.52,215.2V199.28a44,44,0,0,0,6.29-.05c4.67-.69,4.47,2.28,4.29,5.36l2.65,2.65v5.31c-2,.4-5.06-1.32-5.29,2.65Z"/>
        <path class="cls-143"
              d="M24.1,204.59c.18-3.08.38-6.05-4.29-5.36a44,44,0,0,1-6.29.05v-2.65c2.61-1,6.7,2.46,7.94-2.65H24.1c1.84-.52,3.86-.73,5.48-1.63,2.51-1.39,4.4-2.12,5.11,1.63-4.54,1.72-8.8,3.66-8.47,9.72C26.23,204,24.84,204.29,24.1,204.59Z"/>
        <path class="cls-144" d="M21.46,194c-1.24,5.11-5.33,1.64-7.94,2.65V180.71l5.29,2.65v5.31l2.65,2.65Z"/>
        <path class="cls-145"
              d="M18.81,223.16c-.07,4.59.84,9.36-2.64,13.27H13.52V217.85c.89,1.1,1.69,2.28,2.67,3.28A22.6,22.6,0,0,0,18.81,223.16Z"/>
        <path class="cls-146"
              d="M32,215.2v13.27l-2.64,2.65-7.57,1.69a62.07,62.07,0,0,0-.49-7.61c-.14-.8-1.64-1.37-2.53-2l2.65-8c2-.4,5.06,1.32,5.29-2.65H29.4Z"/>
        <path class="cls-14" d="M122,24.18l-2.65,2.65V24.18Z"/>
        <path class="cls-147"
              d="M40,103.77q2.64-8,5.29-15.92a23.21,23.21,0,0,1,3.73,0c4.7.78,4.27-2.4,4.2-5.33,3.76,3.74,6.9,8.52,13.23,8v2.65c-.31,1.63-.05,3.88-1,4.78a56.53,56.53,0,0,1-9.08,6.56c-1.7,1-3.84,1.31-5.77,1.93-1-.89-2-2.35-3.13-2.54A47.41,47.41,0,0,0,40,103.77Z"/>
        <path class="cls-148"
              d="M116.69,85.2h-7.94c0-1.3,0-2.6,0-3.9-.23-7.14-.24-7.19-7-6.67-1.16.09-3.26.85-3.24,1.12a11.64,11.64,0,0,0,1.39,4.44,54.51,54.51,0,0,0,3.59,5c-2.27.56-5.69,5-5.83-1.78,0-.3-1.37-.58-2.1-.87-.29-1.61-.22-4.44-.9-4.63-5.15-1.48-6.48-2.46,0-3.85.43-.09.61-1.4.91-2.13-.23-4-3.29-2.26-5.29-2.66V66.63h13.22c2.66,3.63,5.28,3.63,7.94,0h5.29L114,71.94l-2.19.87L114,74.59c.88.61,2.24,1,2.56,1.86,1.11,2.84,1.85,5.82,2.73,8.75Z"/>
        <path class="cls-149"
              d="M66.43,93.16V90.51c4.58-1.33,7.93-5.76,13.22-5.31-1.39,3-3.33,5.63-2.77,9.43s.13,7.86.13,11.8c-1.76-2-4.66-3.81-5-6C71.34,96.62,70.12,94.17,66.43,93.16Z"/>
        <path class="cls-150" d="M71.19,79l1.44-4c.58,1.21,1.47,2.38,1.64,3.65.15,1.1-.51,2.32-.82,3.49Z"/>
        <path class="cls-151" d="M90.24,69.28c2,.4,5.06-1.31,5.29,2.66C93.52,71.54,90.46,73.25,90.24,69.28Z"/>
        <path class="cls-152" d="M37.33,79.89l-1.77,2.2-.87-2.2Z"/>
        <path class="cls-153" d="M55.85,56h2.64a20.18,20.18,0,0,1-3,2.56c-.35.21-1.29-.59-2-.92Z"/>
        <path class="cls-76" d="M55.85,53.36V50.71h2.64Z"/>
        <path class="cls-154"
              d="M103.46,66.63H90.24V48.06c.22-4,3.28-2.26,5.29-2.66l2.64,2.66c2.3.22,5.48-1.17,5.42,3.28,0,.66,1.63,1.35,2.52,2a46.61,46.61,0,0,0,.12,7.48c.18,1.15,1.64,2.1,2.52,3.14l2.65,2.65Z"/>
        <path class="cls-155" d="M95.53,45.4V37.45c5.09,1.24,1.63,5.34,2.64,7.95Z"/>
        <path class="cls-156"
              d="M98.17,45.4c-1-2.61,2.45-6.71-2.64-7.95l2.64-8,2.65-2.66h5.29l2.64,2.66,5.29,5.3-2.64,8-2.65,2.65Z"/>
        <path class="cls-157"
              d="M135.2,125c-2.76,3.44-2.39,9.25-7.93,10.61l-.87-2.2-1.78,2.2L122,138.26l-5.29,2.66v-2.66L114,135.61q2.65-4,5.29-8L121,130c.33-.67,1.13-1.61.92-2a19.76,19.76,0,0,0-2.56-3c0-2.61-.21-5.23,0-7.81.8-8-2.93-13-9.92-16.12a17.39,17.39,0,0,1-3.34-2.6l2.23-.92c-.36-.58-.7-1.65-1.07-1.66-3.91-.12-7.83-.08-11.74-.08-2,.4-5.07-1.31-5.29,2.66l-2.65,2.65c-.88,2.93-1.63,5.91-2.73,8.75-.32.83-1.68,1.25-2.56,1.86-1.1-8,1.13-15.47,3.18-23,.12-.46,1.38-.61,2.11-.9a16,16,0,0,0,0,2.59,12.82,12.82,0,0,0,.81,2.24c.6-.72,1.2-1.45,1.81-2.17,10-1.88,19.51,1.9,29.18,3.1,4.37.54,10.06,2.74,13.14,7.51-.74.3-2.16.72-2.13.89.61,3.52,1.64,7,2.06,10.51.45,3.82.29,7.71.58,11.56C133.1,124.44,134.46,124.69,135.2,125Z"/>
        <path class="cls-158"
              d="M82.3,162.14c4.17-3,7.19-8,13.23-8,1.31,4.89,4,5.63,7.93,2.65,0,3.45,3.08,3.29,4.43,2.51,5.79-3.33,12-2.12,18.1-2.62,2.25-.18,4.38-1.65,6.57-2.54q6,10.62,0,21.23c-4.61-5.28-4.61-5.3-11.88-5.31-13,0-26,0-39,0-1.91,0-4.62.94-4.64-2.62,17.56,0,35.12,0,52.68-.08.83,0,1.66-1.06,2.49-1.63a6.92,6.92,0,0,0-2.24-.91c-12.3-.05-24.59-.1-36.88,0C89.19,164.86,85.45,164.79,82.3,162.14Z"/>
        <path class="cls-159"
              d="M95.53,146.22c-5.17,3.09-7.86,3.69-11.7,2.88-6.36-1.34-2.75,2.08-2,4.2,0,0-1.39.58-2.14.88-4.77-4-6.42-12.16-15-11.22-.13,0-.59-3.06-.9-4.7C71.21,139.7,70.7,132,74.24,129c1-.81,1.29-2.33,1.92-3.52a20.12,20.12,0,0,1,.82,3.62c.26,6.92,6.76,6.64,10.73,9,2,1.16,5.17.2,7.82.2-.63.89-1.25,2.52-1.87,2.53-2.69,0-4.25,1.37-3.21,3.61C91,145.55,93.76,145.65,95.53,146.22Z"/>
        <path class="cls-160"
              d="M66.43,93.16c3.69,1,4.91,3.46,5.54,7.23.38,2.23,3.28,4,5,6-3.63,3.25-1,9.42-5.58,12.19s-8.26-4-12.94-1.58a20.43,20.43,0,0,0-7.93-10.61c1.93-.62,4.07-.91,5.77-1.93a56.53,56.53,0,0,0,9.08-6.56C66.38,97,66.12,94.79,66.43,93.16Z"/>
        <path class="cls-161"
              d="M63.78,138.26c.31,1.64.77,4.71.9,4.7,8.55-.94,10.2,7.26,15,11.22-.56,1-.87,2.5-1.72,2.93a27.52,27.52,0,0,0-8.86,7.68c-3.91-4.11-4.69-10.74-10.58-13.26v-2.66a35.79,35.79,0,0,0-1.77-5.66,37.17,37.17,0,0,0-3.52-5Z"/>
        <path class="cls-162"
              d="M58.49,151.53c5.89,2.52,6.67,9.15,10.58,13.26v2.66H66.43a3.83,3.83,0,0,0,0-1.27,3,3,0,0,0-.8-.89c-2.44,2.06-5.29,3.83-7.11,6.35-2.13,2.93-7.39-1.72-7.93,3.77-.88-1-2.55-2.12-2.51-3.12a15.74,15.74,0,0,0-2.78-10.15A52.72,52.72,0,0,1,58.49,151.53Z"/>
        <path class="cls-163"
              d="M103.46,127.65c-6-3.7-11.33-7.44-5.39-15.52,1.69-2.28-2.37-6.88,2.75-8.36,1.48,5.87,6.06,5.52,10.58,5.31,1.13,5.51,3.93,10.78,2.55,16.62-.19.81-1.67,1.31-2.55,2-.16-1.63-.14-3.07-2.55-1.57C107.32,127,105.28,127.16,103.46,127.65Z"/>
        <path class="cls-162"
              d="M53.2,138.26a37.17,37.17,0,0,1,3.52,5,35.79,35.79,0,0,1,1.77,5.66c-1.59.27-3.87,0-4.65.92-3,3.67-7.46,4.76-11.22,7H37.33L32,140.92H40a47.41,47.41,0,0,0,7.45-.12c1.15-.19,2.09-1.65,3.13-2.54Z"/>
        <path class="cls-164"
              d="M50.56,106.43A20.43,20.43,0,0,1,58.49,117c-7,.77-14.41-2-21.16,2.45-.86.57-3.48-1.57-5.29-2.45.59-1,.92-2.44,1.8-3,4.65-3.14,3.37-6.6.85-10.24H40a47.41,47.41,0,0,1,7.45.12C48.58,104.08,49.52,105.54,50.56,106.43Z"/>
        <path class="cls-165"
              d="M66.43,167.45h2.64c2.79,5.94,7.09,8.57,14,8.1,8.54-.59,17.15-.14,25.72-.14v2.65h-2.64c-2.61,1-6.7-2.46-7.94,2.65H95.53c-.28-.72-.45-2-.86-2.08-5.23-1.08-10.4-1.37-15,2.08H77A99,99,0,0,1,67,180.59c-1.14-.12-2.12-1.65-3.18-2.53-1.94-2.79-3.22-5.4.87-7.62C65.52,170,65.85,168.47,66.43,167.45Z"/>
        <path class="cls-166"
              d="M82.3,162.14c3.15,2.65,6.89,2.72,10.76,2.69,12.29-.1,24.58-.05,36.88,0a6.92,6.92,0,0,1,2.24.91c-.83.57-1.66,1.63-2.49,1.63-17.56.1-35.12.08-52.68.08Z"/>
        <path class="cls-167"
              d="M116.69,138.26v2.66l2.64,2.65q-2.64,2.66-5.29,5.3l-.87-2.2-1.77,2.2-2.65,2.66-2.64,2.65h-2.65l-2.64-2.65L114,138.26Z"/>
        <path class="cls-168"
              d="M32,135.61H29.4v-8c1.1-.88,2.19-2.52,3.31-2.54,10.35-.19,20.71-.11,31.07-.11-.44,4.38-3.89,1.92-6,2.67-2.42.89-6.39-2.49-7.27,2.63H42.62c-3.35-3.59-7.23-3.59-10.58,0v5.31Z"/>
        <path class="cls-169" d="M135.2,188.67H119.33v-8l2.65-2.65h2.64l10.58,5.3Z"/>
        <path class="cls-163"
              d="M95.53,146.22c-1.77-.57-4.55-.67-5.08-1.82-1-2.24.52-3.6,3.21-3.61.62,0,1.24-1.64,1.87-2.53l7.93-8c.4,2-1.31,5.08,2.65,5.31Q100.82,140.92,95.53,146.22Z"/>
        <path class="cls-170"
              d="M103.46,85.2a54.51,54.51,0,0,1-3.59-5,11.64,11.64,0,0,1-1.39-4.44c0-.27,2.08-1,3.24-1.12,6.79-.52,6.8-.47,7,6.67,0,1.3,0,2.6,0,3.9-.8.52-1.63,1.5-2.39,1.46C105.37,86.6,104.42,85.72,103.46,85.2Z"/>
        <path class="cls-171"
              d="M135.2,125c-.74-.31-2.1-.56-2.13-.92-.29-3.85-.13-7.74-.58-11.56-.42-3.54-1.45-7-2.06-10.51,0-.17,1.39-.59,2.13-.89C138.45,112,138.45,112,135.2,125Z"/>
        <path class="cls-172"
              d="M50.56,130.3c.88-5.12,4.85-1.74,7.27-2.63,2.06-.75,5.51,1.71,6-2.67,4.39.45,2.33,3.87,2.44,6,0,.58-2.46,1.72-3.86,1.86-3,.29-6.1.09-9.16.09Z"/>
        <path class="cls-173"
              d="M132.56,175.41q6-10.62,0-21.23c2.92-.06,6.1-.5,5.32,4.22a23.31,23.31,0,0,0,0,3.74c0,3.46.5,7-.19,10.34-.41,1.93-2.74,3.45-4.21,5.15-.29-.31-.71-.57-.86-.94A3.63,3.63,0,0,1,132.56,175.41Z"/>
        <path class="cls-174"
              d="M137.85,162.14a23.31,23.31,0,0,1,0-3.74c.78-4.72-2.4-4.28-5.32-4.22.88-3.08,1.17-6.54,2.82-9.14,1.5-2.38,4.23-2.86,5.11,1.18l-2.64,2,2.64,3.3a46.46,46.46,0,0,1-.12,7.47C140.19,160.15,138.73,161.1,137.85,162.14Z"/>
        <path class="cls-175" d="M50.56,130.3,53.2,133H32V130.3H50.56Z"/>
        <path class="cls-176"
              d="M106.11,135.61c-4-.23-2.25-3.3-2.65-5.31v-2.65c1.82-.49,3.86-.61,5.39-1.57,2.41-1.5,2.39-.06,2.55,1.57Q108.74,131.63,106.11,135.61Z"/>
        <path class="cls-177"
              d="M116.69,85.2h2.64c3.83.32,7.46-.14,10.58-2.65V85.2a22.63,22.63,0,0,1-2,2.63c-1,1-2.17,1.79-3.27,2.68Z"/>
        <path class="cls-178"
              d="M82.3,111.73c.88-.61,2.24-1,2.56-1.86,1.1-2.84,1.85-5.82,2.73-8.75h2.65c-.89,4-1.14,8.23-2.87,11.78C86.18,115.35,83.2,115.78,82.3,111.73Z"/>
        <path class="cls-179"
              d="M124.62,178.06H108.75v-2.65c4.23,0,8.46-.19,12.67.12C122.54,175.61,123.56,177.17,124.62,178.06Z"/>
        <path class="cls-180" d="M111.4,109.08c-4.52.21-9.1.56-10.58-5.31C105.33,103.56,108.72,105.61,111.4,109.08Z"/>
        <path class="cls-181" d="M100.82,151.53l2.64,2.65v2.65c-3.93,3-6.62,2.24-7.93-2.65Z"/>
        <path class="cls-182" d="M95.53,95.81c3.91,0,7.83,0,11.74.08.37,0,.71,1.08,1.07,1.66l-2.23.92H95.53Z"/>
        <path class="cls-183"
              d="M130.49,146.48c-1.87,1.62-3.83,3.36-5.85,5a1.24,1.24,0,0,1-1.21,0c-.46-.46-1.12-1.49-1-1.63,2-2.15,4.11-4.19,6.19-6.26Z"/>
        <path class="cls-184" d="M119.33,143.57l-2.64-2.65,5.29-2.66h2.64Z"/>
        <path class="cls-161"
              d="M50.56,138.26c-1,.89-2,2.35-3.13,2.54a47.41,47.41,0,0,1-7.45.12c1-.89,2-2.35,3.13-2.54A47.39,47.39,0,0,1,50.56,138.26Z"/>
        <path class="cls-178"
              d="M95.53,95.81v2.66c-.23,4-3.29,2.25-5.29,2.65V98.47C90.46,94.5,93.52,96.21,95.53,95.81Z"/>
        <path class="cls-185" d="M32,133H40c-1.24,5.11-5.34,1.64-7.94,2.65Z"/>
        <path class="cls-185" d="M29.4,127.65v8C25.77,132.94,25.77,130.32,29.4,127.65Z"/>
        <path class="cls-186" d="M124.62,138.26H122l2.64-2.65h2.65Z"/>
        <path class="cls-167" d="M111.4,148.87l1.77-2.2.87,2.2-2.64,2.66Z"/>
        <path class="cls-187" d="M140.49,151.53l-2.64-3.3,2.64-2Z"/>
        <path class="cls-164" d="M26.75,119.69c.23-4,3.29-2.25,5.29-2.65C31.81,121,28.76,119.29,26.75,119.69Z"/>
        <path class="cls-188" d="M119.33,125a19.76,19.76,0,0,1,2.56,3c.21.35-.59,1.29-.92,2l-1.64-2.34Z"/>
        <path class="cls-189"
              d="M90.24,90.51c-.61.72-1.21,1.45-1.81,2.17a12.82,12.82,0,0,1-.81-2.24,16,16,0,0,1,0-2.59Z"/>
        <path class="cls-169" d="M137.85,180.71l-2.65,2.65Z"/>
        <path class="cls-158" d="M103.46,156.83v-2.65h2.65Z"/>
        <path class="cls-181" d="M106.11,154.18l2.64-2.65Z"/>
        <path class="cls-190" d="M111.4,148.87v2.66h-2.65Z"/>
        <path class="cls-184" d="M116.69,138.26H114v-2.65Z"/>
        <path class="cls-191" d="M114,34.79l-5.29-5.3c2,.4,5.07-1.32,5.29,2.65Z"/>
        <path class="cls-192" d="M108.75,29.49l-2.64-2.66Z"/>
        <path class="cls-193" d="M37.33,228.47c4.11-.43,6.9,1.11,7.94,5.3C41.16,234.2,38.37,232.66,37.33,228.47Z"/>
        <path class="cls-194" d="M32,228.47v-8q2.64,4,5.29,8Z"/>
        <path class="cls-195"
              d="M55.85,225.81H53.2v-5.3l2.65-2.66c2-.4,5.06,1.32,5.29-2.65h2.64l2.65-2.65h5.29v5.3a47.79,47.79,0,0,1-.12,7.48c-.19,1.15-1.64,2.1-2.53,3.14H63.78c-.22-4-3.28-2.26-5.29-2.66l-1.77-2.2Z"/>
        <path class="cls-196" d="M53.2,217.85l-7.93-5.3,2.64-8h2.65Z"/>
        <path class="cls-197" d="M45.27,212.55c-1.24,5.11-5.34,1.64-7.94,2.65C38.57,210.09,42.66,213.56,45.27,212.55Z"/>
        <path class="cls-198" d="M32,215.2l-2.64-2.65c2,.4,5.06-1.32,5.29,2.65Z"/>
        <path class="cls-199" d="M37.33,215.2l-1.77,2.2-.87-2.2Z"/>
        <path class="cls-200" d="M55.85,217.85l-2.65,2.66v-2.66Z"/>
        <path class="cls-201" d="M79.65,217.85c-3.89,4.81-2.43,10.5-2.64,15.92l-2.65-2.65V217.85h5.29Z"/>
        <path class="cls-202" d="M74.36,217.85v13.27H69.07v-2.65c.89-1,2.34-2,2.53-3.14a47.79,47.79,0,0,0,.12-7.48Z"/>
        <ellipse class="cls-203" cx="127.27" cy="46.73" rx="3.74" ry="1.88"/>
        <path class="cls-204" d="M129.91,48.06V45.4h5.29C135,49.37,131.92,47.66,129.91,48.06Z"/>
        <path class="cls-205" d="M124.62,45.4v2.66L122,45.4Z"/>
        <path class="cls-203"
              d="M122,45.4l2.64,2.66V61.32c-2,.4-5.06-1.31-5.29,2.66l-2.64,2.65H111.4L108.75,64a47.79,47.79,0,0,0-.12-7.48c-.18-1.15-1.64-2.1-2.52-3.14l2.64-8,2.65-2.65c1.61.29,3.24.49,4.82.89C118.16,44.14,120.06,44.81,122,45.4Z"/>
        <path class="cls-206"
              d="M37.33,194v-2.66l2.19-.87-2.19-1.78V186l5.29-5.31c4.11.43,6.9-1.12,7.94-5.3,2,.39,5.06-1.32,5.29,2.65,2.56,3.44,3,7.33,2.7,11.5-.16,1.88-.76,4.43,2.59,4.42v2.65c-.23,4-3.29,2.25-5.29,2.65-2.61,1-6.7-2.46-7.94,2.66Z"/>
        <path class="cls-207"
              d="M42.62,156.83c3.76-2.28,8.2-3.37,11.22-7,.78-.95,3.06-.65,4.65-.92v2.66a52.72,52.72,0,0,0-13.22,10.61l-2.65-2.65Z"/>
        <path class="cls-113" d="M42.62,156.83v2.66H34.69l2.64-2.66Z"/>
        <path class="cls-208" d="M42.62,180.71,37.33,186v-2.66C37.56,179.4,40.62,181.11,42.62,180.71Z"/>
        <path class="cls-209" d="M34.69,180.71H32l1.77-2.2Z"/>
        <path class="cls-210"
              d="M37.33,194l10.58,8v2.65l-2.64,8c-2.61,1-6.7-2.46-7.94,2.65H34.69c-.23-4-3.29-2.25-5.29-2.65-.4-2,1.31-5.08-2.65-5.31l-2.65-2.65c.74-.3,2.13-.63,2.12-.89-.33-6.06,3.93-8,8.47-9.72Z"/>
        <path class="cls-211" d="M18.81,188.67v-5.31l2.65,3.3Z"/>
        <path class="cls-212" d="M21.46,194v-2.66L24.1,194Z"/>
        <path class="cls-208" d="M37.33,188.67l2.19,1.78-2.19.87Z"/>
        <path class="cls-213" d="M32,103.77v-2.65c.88.88,1.76,1.77,2.65,2.65Z"/>
        <path class="cls-22" d="M21.46,87.85H18.81l2.65-2.65Z"/>
        <path class="cls-214"
              d="M119.33,180.71v8c-1.24,5.11-5.33,1.64-7.93,2.65-.75.31-1.5.59-2.23.91-7.25,3.25-7.79,2.84-8.47-4.26-.24-2.45,2.56-6.39-2.53-7.26,1.24-5.11,5.33-1.64,7.94-2.65,1,.88,2,2.41,3.17,2.53A99,99,0,0,0,119.33,180.71Z"/>
        <path class="cls-215"
              d="M82.3,209.9c-.4,2,1.31,5.08-2.65,5.3H77c-.23-4-3.29-2.25-5.29-2.65-3.48-3.9-2.58-8.68-2.65-13.27.89-.88,1.77-1.77,2.65-2.65H77c.67.88,1.36,2.54,2,2.53,4.43-.06,3,3.12,3.27,5.43l-2.65,2Z"/>
        <path class="cls-216"
              d="M98.17,180.71c5.09.87,2.29,4.81,2.53,7.26.68,7.1,1.22,7.51,8.47,4.26.73-.32,1.48-.6,2.23-.91v5.31h-5.29l-7.94,2.65c-1.24-5.11-5.33-1.64-7.93-2.65.67-.88,1.5-2.62,2-2.52,5.82,1.07,6.67-2.27,5.86-6.68-.43-2.32-1.68-4.48-2.56-6.72Z"/>
        <path class="cls-217"
              d="M116.69,209.9c-3.48,3.9-2.58,8.68-2.65,13.26.88.89,1.77,1.77,2.65,2.65L114,228.47c-6.27-5.55-6.75-8-3.45-16.5a23.62,23.62,0,0,0,.81-4.73H114Z"/>
        <path class="cls-73"
              d="M108.75,196.63h2.65c1.06.88,2.08,2.45,3.2,2.53,4.21.31,8.44.12,12.67.12l-2.65,2.66H122c-.88.88-1.77,1.76-2.65,2.65-.4,2,1.31,5.08-2.64,5.31L114,207.24l-2.64-2.65-2.65-2.65Z"/>
        <path class="cls-218"
              d="M90.24,196.63c2.6,1,6.69-2.46,7.93,2.65a12.9,12.9,0,0,1-.79,2.05c-5.69-1.24-8.17,4.25-12.44,5.91-.67-4.5-.22-8.34,5.29-9.36A6.64,6.64,0,0,0,90.24,196.63Z"/>
        <path class="cls-219"
              d="M114,228.47l2.65-2.66c2.22-.26,5.41,1.21,5.38-3.14,0-.45,1.32-.91,2-1.37.11,2.89.66,5.87.07,8.61-.16.77-3.64,1.05-5.62,1.15S114,231.91,114,228.47Z"/>
        <path class="cls-220"
              d="M108.75,196.63v5.31l2.65,2.65v2.65c-4.85,2.67-5.17,2.57-5.28-1.79-.08-2.94,0-5.88,0-8.82Z"/>
        <path class="cls-216"
              d="M127.27,199.28c-4.23,0-8.46.19-12.67-.12-1.12-.08-2.14-1.65-3.2-2.53,4.22,0,8.46-.18,12.66.12C125.18,196.83,126.2,198.4,127.27,199.28Z"/>
        <path class="cls-221"
              d="M140.49,215.2c-.34,4.2-3.59,2.39-5.67,2.56-1.49.13-3.85-.09-4.42-1-1.08-1.76-1-4.07,2.16-4.19C133.8,217.66,137.89,214.19,140.49,215.2Z"/>
        <path class="cls-222"
              d="M140.49,215.2c-2.6-1-6.69,2.46-7.93-2.65,3,0,6.08-.06,9.11.08.37,0,.7,1.08,1.05,1.66Z"/>
        <path class="cls-218" d="M84.94,207.24,82.3,209.9v-2.66Z"/>
        <path class="cls-216" d="M122,201.94h2.64L122,204.59Z"/>
        <ellipse class="cls-223" cx="78.33" cy="216.53" rx="1.87" ry="1.88"/>
        <path class="cls-224" d="M122,201.94v2.65h-2.65C120.21,203.7,121.1,202.82,122,201.94Z"/>
        <path class="cls-219"
              d="M116.69,225.81c-.88-.88-1.77-1.76-2.65-2.65C114.92,224.05,115.81,224.93,116.69,225.81Z"/>
        <path class="cls-225"
              d="M129.91,82.55c-3.12,2.51-6.75,3-10.58,2.65-.88-2.93-1.62-5.91-2.73-8.75-.32-.83-1.68-1.25-2.56-1.86V71.94l2.65-5.31L119.33,64c2-.4,5.07,1.31,5.29-2.66l2.65-2.65,7.93,8v5.31c-3.95.22-2.24,3.29-2.64,5.3C128.6,77.47,130.31,80.54,129.91,82.55Z"/>
        <ellipse class="cls-226" cx="125.95" cy="54.69" rx="1.87" ry="5.63"/>
        <path class="cls-227" d="M127.27,50.71h-2.65V48.06h5.29Z"/>
        <path class="cls-228" d="M145.78,74.59c4,.22,2.25,3.29,2.65,5.3C144.47,79.67,146.18,76.6,145.78,74.59Z"/>
        <path class="cls-229" d="M132.56,77.24c.4-2-1.31-5.08,2.64-5.3C134.81,74,136.52,77,132.56,77.24Z"/>
        <path class="cls-230" d="M129.91,82.55c.4-2-1.31-5.08,2.65-5.31C132.16,79.25,133.87,82.32,129.91,82.55Z"/>
        <path class="cls-231" d="M26.75,212.55c-.23,4-3.29,2.25-5.29,2.65C21.69,211.23,24.75,213,26.75,212.55Z"/>
        <path class="cls-232" d="M26.75,207.24c4,.23,2.25,3.3,2.65,5.31H26.75Z"/>
        <path class="cls-233" d="M103.46,66.63h7.94C108.74,70.26,106.12,70.26,103.46,66.63Z"/>
        <path class="cls-234" d="M114,71.94v2.65l-2.19-1.78Z"/>
        <path class="cls-235" d="M108.75,45.4l-2.64,8c-.89-.67-2.53-1.36-2.52-2,.06-4.45-3.12-3.06-5.42-3.28V45.4Z"/>
        <path class="cls-235"
              d="M106.11,53.36c.88,1,2.34,2,2.52,3.14a47.79,47.79,0,0,1,.12,7.48c-.88-1-2.34-2-2.52-3.14A46.61,46.61,0,0,1,106.11,53.36Z"/>
        <path class="cls-236" d="M98.17,45.4v2.66L95.53,45.4Z"/>
        <path class="cls-237" d="M111.4,42.75l-2.65,2.65Z"/>
        <path class="cls-189" d="M90.24,98.47v2.65H87.59Z"/>
        <path class="cls-238" d="M127.27,135.61h-2.65l1.78-2.2Z"/>
        <path class="cls-239"
              d="M55.85,178.06c-.23-4-3.29-2.26-5.29-2.65.54-5.49,5.8-.84,7.93-3.77,1.82-2.52,4.67-4.29,7.11-6.35a3,3,0,0,1,.8.89,3.83,3.83,0,0,1,0,1.27c-.58,1-.91,2.51-1.78,3-4.09,2.22-2.81,4.83-.87,7.62Z"/>
        <path class="cls-240"
              d="M95.53,180.71c.88,2.24,2.13,4.4,2.56,6.72.81,4.41,0,7.75-5.86,6.68-.49-.1-1.32,1.64-2,2.52-4.58-.07-9.34.83-13.23-2.65,3.48-3.9,2.57-8.68,2.64-13.27,4.62-3.45,9.79-3.16,15-2.08C95.08,178.71,95.25,180,95.53,180.71Z"/>
        <path class="cls-241"
              d="M55.85,178.06h7.93c1.06.88,2,2.41,3.18,2.53a99,99,0,0,0,10.05.12c1.24,6.31-3.43,10.65-5.29,15.92-.88.88-1.76,1.77-2.65,2.65H66.43l-2.65-2.65L61.14,194c-3.35,0-2.75-2.54-2.59-4.42C58.88,185.39,58.41,181.5,55.85,178.06Z"/>
        <path class="cls-242" d="M71.72,196.63c1.86-5.27,6.53-9.61,5.29-15.92h2.64c-.07,4.59.84,9.37-2.64,13.27v2.65Z"/>
        <path class="cls-243" d="M119.33,180.71a99,99,0,0,1-10-.12c-1.13-.12-2.12-1.65-3.17-2.53H122Z"/>
        <path class="cls-244" d="M42.62,130.3H32C35.39,126.71,39.27,126.71,42.62,130.3Z"/>
        <path class="cls-245"
              d="M66.43,199.28h2.64c.07,4.59-.83,9.37,2.65,13.27H63.78C67.26,208.65,66.36,203.87,66.43,199.28Z"/>
        <path class="cls-246" d="M77,215.2v2.65H71.72V215.2Z"/>
        <path class="cls-196" d="M61.14,215.2c-.23,4-3.29,2.25-5.29,2.65C56.07,213.89,59.13,215.6,61.14,215.2Z"/>
        <path class="cls-247" d="M77,215.2H71.72v-2.65C73.72,213,76.78,211.23,77,215.2Z"/>
        <path class="cls-248" d="M63.78,215.2H61.14l2.64-2.65Z"/>
        <path class="cls-249" d="M63.78,215.2v-2.65h2.65Z"/>
        <path class="cls-249"
              d="M63.78,212.55l-2.64,2.65c-2,.4-5.07-1.31-5.29,2.65H53.2l-2.64-13.26a21.82,21.82,0,0,1,2-2.63c1-1,2.17-1.79,3.27-2.68,2-.4,5.06,1.32,5.29-2.65h2.64l2.65,2.65C66.36,203.87,67.26,208.65,63.78,212.55Z"/>
        <path class="cls-250"
              d="M55.85,199.28c-1.1.89-2.27,1.7-3.27,2.68a21.82,21.82,0,0,0-2,2.63H47.91v-2.65C49.15,196.82,53.24,200.29,55.85,199.28Z"/>
        <path class="cls-251" d="M124.62,61.32c-.22,4-3.28,2.26-5.29,2.66C119.56,60,122.62,61.72,124.62,61.32Z"/>
        <path class="cls-252" d="M124.62,58.67h2.65l-2.65,2.65Z"/>
        <path class="cls-253" d="M119.33,64l-2.64,2.65Z"/>
        <path class="cls-254" d="M63.78,196.63H61.14V194Z"/>
        <path class="cls-255"
              d="M77,196.63V194c3.89,3.48,8.65,2.58,13.23,2.65a6.64,6.64,0,0,1,0,1.25c-5.51,1-6,4.86-5.29,9.36H82.3v-2.65c-.23-2.31,1.16-5.49-3.27-5.43C78.37,199.17,77.68,197.51,77,196.63Z"/>
        <path class="cls-256" d="M82.3,204.59v5.31l-2.65-3.3Z"/>
        <path class="cls-4" d="M114,207.24l2.65,2.66Z"/>
        <path class="cls-9" d="M111.4,207.24v-2.65l2.64,2.65Z"/>
        <path class="cls-257" d="M111.4,204.59l-2.65-2.65Z"/>
    </g>
</svg>