<svg id="Calque_1" data-name="Calque 1" xmlns="http://www.w3.org/2000/svg" viewBox="0 0 167.24 257.95">
    <defs>
        <style>
            .cls-1{fill:#fefefe;}.cls-2{fill:#131313;}.cls-3{fill:#18272a;}.cls-4{fill:#101a1c;}.cls-5{fill:#181919;}.cls-6{fill:#aaaea6;}.cls-7{fill:#abacaa;}.cls-8{fill:#222;}.cls-9{fill:#2e2e2e;}.cls-10{fill:#dde7ea;}.cls-11{fill:#f4f7fc;}.cls-12{fill:#f8f9fa;}.cls-13{fill:#effcfd;}.cls-14{fill:#c3e9f9;}.cls-15{fill:#edf9f7;}.cls-16{fill:#04c0f2;}.cls-17{fill:#afebf8;}.cls-18{fill:#1cc2ee;}.cls-19{fill:#5ed0d8;}.cls-20{fill:#01bfed;}.cls-21{fill:#01c1ef;}.cls-22{fill:#09c4fb;}.cls-23{fill:#04c3eb;}.cls-24{fill:#07c1e7;}.cls-25{fill:#04ccf4;}.cls-26{fill:#03c0e9;}.cls-27{fill:#03cdf4;}.cls-28{fill:#02bfe8;}.cls-29{fill:#00c0e1;}.cls-30{fill:#19c2eb;}.cls-31{fill:#00c1e2;}.cls-32{fill:#00bee2;}.cls-33{fill:#61c2d9;}.cls-34{fill:#00d3f9;}.cls-35{fill:#03c2ee;}.cls-36{fill:#10c3ec;}.cls-37{fill:#11c2ee;}.cls-38{fill:#02c0ed;}.cls-39{fill:#0bbde9;}.cls-40{fill:#0dc0e3;}.cls-41{fill:#6dcbea;}.cls-42{fill:#02c1de;}.cls-43{fill:#00c3db;}.cls-44{fill:#4bbee5;}.cls-45{fill:#00dff6;}.cls-46{fill:#04dbf2;}.cls-47{fill:#00c0eb;}.cls-48{fill:#04c2f2;}.cls-49{fill:#39d4f7;}.cls-50{fill:#06c1f2;}.cls-51{fill:#01c2df;}.cls-52{fill:#45cff5;}.cls-53{fill:#02daf7;}.cls-54{fill:#34d0fb;}.cls-55{fill:#38d2fa;}.cls-56{fill:#1fbffc;}.cls-57{fill:#2dd1fc;}.cls-58{fill:#11c1e4;}.cls-59{fill:#40bfe2;}.cls-60{fill:#66bfdd;}.cls-61{fill:#3dc1e6;}.cls-62{fill:#59b4d7;}.cls-63{fill:#f7f8fa;}.cls-64{fill:#12c2f1;}.cls-65{fill:#01c1ee;}.cls-66{fill:#0cc1e7;}.cls-67{fill:#e2f4ef;}.cls-68{fill:#17c8ee;}.cls-69{fill:#4ccdfc;}.cls-70{fill:#00def9;}.cls-71{fill:#1dc4ee;}.cls-72{fill:#45d2f4;}.cls-73{fill:#59d4f6;}.cls-74{fill:#44d4fa;}.cls-75{fill:#4fcbe7;}.cls-76{fill:#03c1ed;}.cls-77{fill:#5cddf6;}.cls-78{fill:#4ccffe;}.cls-79{fill:#00e1fe;}.cls-80{fill:#55d0f2;}.cls-81{fill:#02bdec;}.cls-82{fill:#5dd5f8;}.cls-83{fill:#0abcec;}.cls-84{fill:#31c4fa;}.cls-85{fill:#04bdee;}.cls-86{fill:#4ed5f4;}.cls-87{fill:#00c0e9;}.cls-88{fill:#0bc1e8;}.cls-89{fill:#4bd4f9;}.cls-90{fill:#52d3fd;}.cls-91{fill:#40caf2;}.cls-92{fill:#4dd5f8;}.cls-93{fill:#2fc7f4;}.cls-94{fill:#38cbec;}.cls-95{fill:#06c1ed;}.cls-96{fill:#00e3fe;}.cls-97{fill:#4acbf7;}.cls-98{fill:#28c4eb;}.cls-99{fill:#47cff9;}.cls-100{fill:#3bc4f7;}.cls-101{fill:#2ed0f3;}.cls-102{fill:#00e3f4;}.cls-103{fill:#7adafe;}.cls-104{fill:#7dd5eb;}.cls-105{fill:#46c8e5;}.cls-106{fill:#52c8e7;}.cls-107{fill:#63c7e7;}.cls-108{fill:#4cc9e8;}.cls-109{fill:#3bc7e6;}.cls-110{fill:#25c7e8;}.cls-111{fill:#5bd8f4;}.cls-112{fill:#47d6fc;}.cls-113{fill:#54defa;}.cls-114{fill:#00d9fe;}.cls-115{fill:#6accf8;}.cls-116{fill:#40d0f4;}.cls-117{fill:#04c3e4;}.cls-118{fill:#31c8f8;}.cls-119{fill:#00e1f4;}.cls-120{fill:#5addfc;}.cls-121{fill:#02c0ee;}.cls-122{fill:#03c0ef;}.cls-123{fill:#48c2e9;}.cls-124{fill:#cff8f8;}.cls-125{fill:#fbf6ef;}.cls-126{fill:#75d0ed;}.cls-127{fill:#151616;}.cls-128{fill:#70cde4;}.cls-129{fill:#626262;}.cls-130{fill:#2c2c2c;}.cls-131{fill:#59d2f4;}.cls-132{fill:#62cdee;}.cls-133{fill:#5a5a5a;}.cls-134{fill:#54c5e3;}.cls-135{fill:#66e3ee;}.cls-136{fill:#20c6ed;}.cls-137{fill:#faf9e8;}.cls-138{fill:#1f1f1f;}.cls-139{fill:#6acde4;}.cls-140{fill:#45c7ef;}.cls-141{fill:#151515;}.cls-142{fill:#0c0c0c;}.cls-143{fill:#4bcdf0;}.cls-144{fill:#edfaf6;}.cls-145{fill:#28c1ed;}.cls-146{fill:#4fc2e3;}.cls-147{fill:#61d7f5;}.cls-148{fill:#42c6e3;}.cls-149{fill:#464647;}.cls-150{fill:#1abcd9;}.cls-151{fill:#202426;}.cls-152{fill:#0e0e0e;}.cls-153{fill:#373737;}.cls-154{fill:#bebebe;}.cls-155{fill:#03c0ec;}.cls-156{fill:#01bee9;}.cls-157{fill:#43d6f6;}.cls-158{fill:#30c8f2;}.cls-159{fill:#3ad9fb;}.cls-160{fill:#00e1fc;}.cls-161{fill:#51c9ea;}.cls-162{fill:#6ad3ec;}.cls-163{fill:#54cbeb;}.cls-164{fill:#63daf8;}.cls-165{fill:#75d1e6;}.cls-166{fill:#68ddfe;}.cls-167{fill:#06c3eb;}.cls-168{fill:#17c5ec;}.cls-169{fill:#8fdaf1;}.cls-170{fill:#7ed6e8;}.cls-171{fill:#69d9f8;}.cls-172{fill:#77c8ed;}.cls-173{fill:#00dbfd;}.cls-174{fill:#0ec2ea;}.cls-175{fill:#8ad7f8;}.cls-176{fill:#86ddf3;}.cls-177{fill:#49c7e5;}.cls-178{fill:#2dc7e8;}.cls-179{fill:#5ec0eb;}.cls-180{fill:#5ee0fe;}.cls-181{fill:#57e7fa;}.cls-182{fill:#d6eff5;}.cls-183{fill:#a2dbf0;}.cls-184{fill:#7cd7ec;}.cls-185{fill:#3bcbe9;}.cls-186{fill:#4cd9fe;}.cls-187{fill:#8fdbe2;}.cls-188{fill:#6dd0f3;}.cls-189{fill:#88e1f8;}.cls-190{fill:#5fd6eb;}.cls-191{fill:#c9e5ed;}.cls-192{fill:#1ac4ee;}.cls-193{fill:#7fddf8;}.cls-194{fill:#dadada;}.cls-195{fill:#64d0e9;}.cls-196{fill:#6dd7f7;}.cls-197{fill:#86eafc;}.cls-198{fill:#31c7f1;}.cls-199{fill:#57cde7;}.cls-200{fill:#85def7;}.cls-201{fill:#34c5e3;}.cls-202{fill:#39d0e4;}.cls-203{fill:#05c3ea;}.cls-204{fill:#04c6eb;}.cls-205{fill:#43c3e0;}.cls-206{fill:#50d3ee;}.cls-207{fill:#66cde8;}.cls-208{fill:#82def4;}.cls-209{fill:#0ec6ed;}.cls-210{fill:#48d0f8;}.cls-211{fill:#73d0e6;}.cls-212{fill:#7ee2fa;}.cls-213{fill:#8adfef;}.cls-214{fill:#7fd9ed;}.cls-215{fill:#8cd7e4;}.cls-216{fill:#09cce7;}.cls-217{fill:#54cde8;}.cls-218{fill:#585757;}.cls-219{fill:#5a5a59;}.cls-220{fill:#252124;}.cls-221{fill:#70cce3;}.cls-222{fill:#0e0f0e;}.cls-223{fill:#333133;}.cls-224{fill:#353d3b;}.cls-225{fill:#3b393b;}.cls-226{fill:#1a0b0f;}.cls-227{fill:#0f0f12;}.cls-228{fill:#3e342e;}.cls-229{fill:#0a080b;}.cls-230{fill:#333536;}.cls-231{fill:#1a141a;}.cls-232{fill:#231a1a;}.cls-233{fill:#0b0b0d;}.cls-234{fill:#38362e;}.cls-235{fill:#111815;}.cls-236{fill:#585255;}.cls-237{fill:#68e1fd;}.cls-238{fill:#74e2f8;}.cls-239{fill:#5dd3e3;}.cls-240{fill:#e9f5fb;}.cls-241{fill:#1f2121;}.cls-242{fill:#171315;}.cls-243{fill:#4b5255;}.cls-244{fill:#151516;}.cls-245{fill:#323034;}.cls-246{fill:#31302f;}.cls-247{fill:#0d090d;}.cls-248{fill:#eef2f3;}.cls-249{fill:#222022;}.cls-250{fill:#050604;}.cls-251{fill:#171c1e;}.cls-252{fill:#1d1b1d;}.cls-253{fill:#42363d;}.cls-254{fill:#0b0706;}.cls-255{fill:#484145;}.cls-256{fill:#def2f7;}.cls-257{fill:#3f3d3e;}.cls-258{fill:#21151c;}.cls-259{fill:#271b23;}
        </style>
    </defs>
    <g id="cIgMEB.tif">
        <path class="cls-1"
              d="M3,257.81c-2.55-.21-5.41,1.43-5.37-4,.32-38.49.17-77,.17-115.48,0-44.25.09-88.49-.14-132.74,0-4.6.82-6.27,5.36-5.36A27.22,27.22,0,0,0,8.24.3V3c-2,.4-5-1.32-5.21,2.65-5.57,2.07-2.4,6.84-2.41,10Q.26,134.08.43,252.5Z"/>
        <path class="cls-2"
              d="M167,5.61V255.16l-2.6,2.65h-2.6V252.5c5.57-2.07,2.41-6.84,2.42-10q.35-117.1.18-234.2V5.61Z"/>
        <ellipse cx="83.69" cy="256.48" rx="110.39" ry="1.88"/>
        <ellipse class="cls-3" cx="83.69" cy="1.63" rx="106.71" ry="1.88"/>
        <path class="cls-1"
              d="M159.15,3V.3a12.44,12.44,0,0,0,2.59,0c4.52-1,6.25.73,5.21,5.33h-2.6C164.13,1.64,161.12,3.36,159.15,3Z"/>
        <path class="cls-4" d="M5.64,255.16v2.65H3L.43,252.5H5.64Z"/>
        <path class="cls-1" d="M164.35,257.81l2.6-2.65C167.46,257.44,166.59,258.33,164.35,257.81Z"/>
        <path d="M3,252.5H.43q0-118.42.19-236.86c0-3.19-3.16-8,2.41-10V252.5Z"/>
        <path class="cls-5" d="M3,8.27V5.61c.23-4,3.24-2.25,5.21-2.65V5.61L5.64,8.27Z"/>
        <path class="cls-6" d="M164.35,8.27q0,117.09-.18,234.2c0,3.19,3.15,8-2.42,10V8.27Z"/>
        <path class="cls-7" d="M5.64,255.16V252.5H161.75v2.66Z"/>
        <path class="cls-8" d="M164.35,8.27h-2.6l-2.6-2.66V3c2,.4,5-1.32,5.2,2.65Z"/>
        <ellipse class="cls-9" cx="83.69" cy="4.28" rx="106.71" ry="1.88"/>
        <path class="cls-10" d="M3,8.27H5.64V252.5H3Z"/>
        <path class="cls-10" d="M5.64,8.27l2.6-2.66Z"/>
        <path class="cls-11" d="M161.75,252.5h-5.21v-5.31c5.58-2.07,2.41-6.84,2.42-10q.36-111.79.19-223.58h2.6Z"/>
        <path class="cls-12"
              d="M161.75,13.58h-5.21l-2.6-2.66c-1.12-.88-2.22-2.51-3.36-2.54-9.08-.21-18.18-.11-27.27-.11C89.1,8.27,54.9,8.21,20.7,8.4c-2.38,0-6.35-2.65-7.26,2.52h-2.6l-2.6,2.66V37.47H5.64V8.27l2.6-2.66H159.15l2.6,2.66Z"/>
        <path class="cls-13"
              d="M5.64,37.47h2.6V231.88c0,4.4-.12,8.82.12,13.21,0,.75,1.61,1.4,2.48,2.1l2.6,2.66h143.1v2.65H5.64Z"/>
        <path class="cls-14"
              d="M156.54,13.58h2.61q0,111.78-.19,223.58c0,3.19,3.16,8-2.42,10V218c-.39-2,1.29-5.08-2.6-5.31V202.06c5-1.24,1.61-5.35,2.6-8V13.58Z"/>
        <ellipse class="cls-15" cx="155.24" cy="248.52" rx="1.84" ry="1.88"/>
        <path class="cls-10"
              d="M10.84,247.19c-.87-.7-2.44-1.35-2.48-2.1-.24-4.39-.12-8.81-.12-13.21V13.58h2.6V247.19Z"/>
        <path class="cls-16"
              d="M156.54,13.58v8c-3,.69-7.13,6.87-8.47-1.78-.08-.52-3-.59-5.12-.87h.58a7.64,7.64,0,0,0-.78-2c-.12-.16-1,.28-1.58.44A4.89,4.89,0,0,0,143,18.89a19.54,19.54,0,0,1-2,5.3c-4-.42-6.78,1.12-7.8,5.31h-2.6c-1-4.19-3.77-5.73-7.81-5.31v-5.3a7.56,7.56,0,0,0,2.43-.06,12.45,12.45,0,0,0,2.5-1.55c-.67-.35-1.41-1.08-2-1-2,.33-5.2-1.58-5.52,2.59-.22,4-3.23,2.25-5.21,2.65-1-.88-1.94-2.35-3.07-2.53a44.76,44.76,0,0,0-7.33-.12l-2.61-2.66V13.58c5.88,0,11.76.13,17.62-.12,1.1-.05,2.13-1.65,3.2-2.54h31.22Z"/>
        <path class="cls-17"
              d="M153.94,10.92H13.44c.91-5.17,4.88-2.51,7.26-2.52,34.2-.19,68.4-.13,102.61-.13,9.09,0,18.19-.1,27.27.11C151.72,8.41,152.82,10,153.94,10.92Z"/>
        <path class="cls-18" d="M13.44,10.92h13v2.66c-4.2,7.47-4.09,7.71,4,8,.41,0,.82,0,1.23,0L16,37.47h-5.2V10.92Z"/>
        <path class="cls-13" d="M10.84,10.92v2.66H8.24Z"/>
        <path class="cls-19"
              d="M153.94,247.19v2.66H13.44v-2.66H88.9l2.6-2.65h28.62a12.24,12.24,0,0,0,15.61,0h2.6c1,.88,2,2.41,3.12,2.53a95.88,95.88,0,0,0,9.89.12Z"/>
        <path class="cls-10" d="M13.44,247.19v2.66l-2.6-2.66Z"/>
        <path class="cls-20"
              d="M143.53,18.89c1.58.28,4.46.35,4.54.87,1.34,8.65,5.44,2.47,8.47,1.78v5.31h-7.8a15.49,15.49,0,0,0-2.55,0,12.28,12.28,0,0,0-2.2.84,9.68,9.68,0,0,0,2.22,1.72,7.11,7.11,0,0,0,2.53.06v8c-.87.66-2.56,1.45-2.48,2,.9,5.45-1.73,6.45-6.34,6.09s-6.81-2.37-6.79-7c0-3,0-6,0-9,4,.43,6.78-1.11,7.8-5.31Z"/>
        <path class="cls-21"
              d="M156.54,45.43v2.66a12.87,12.87,0,0,0,0,15.93v2.65l-5.2,2.66c-.22-4-3.23-2.26-5.2-2.66l-5.21-5.31V58.71c-.39-2,1.29-5.09-2.6-5.31.35-1.88-1.19-4.73,1.95-5.23,2.49-.4,5.1,0,7.65-.1,8.34-.43-1.77-3.89.81-5.29,3.89-.23,2.21-3.3,2.6-5.31,3.48,0,2.1,2.81,2.69,4.6C154.44,43.34,155.68,44.32,156.54,45.43Z"/>
        <path class="cls-22"
              d="M138.33,244.54h-2.6l2.6-8c4.27,1.18,5.91-2.54,8.56-4.52.55-.41,2.35.92,3.57,1.44.29-1.64.71-3.26.85-4.91s0-3.52,0-5.28v-2.66l2.6-2.65h2.6v13.27c-4.29.44-1.89,3.91-2.62,6-.87,2.43,2.44,6.41-2.58,7.3Z"/>
        <path class="cls-23"
              d="M156.54,127.73v29.2h-2.6a64.48,64.48,0,0,0-.08-7.87c-.22-1.68,1.67-4.31-1.66-5-.28,1.63-.62,3.26-.84,4.9a20.81,20.81,0,0,0,0,2.62l-5.2-2.65c-.4-2,1.29-5.09-2.61-5.31v-5.31h5.21l2.6,2.65,2.6-2.65-2.6-8Z"/>
        <path class="cls-24" d="M156.54,172.86V194.1h-5.2a22.15,22.15,0,0,0-.8-4.74c-2.64-6.52-2.57-8.94.8-13.85Z"/>
        <path class="cls-25"
              d="M156.54,127.73l-5.2,2.65V103.84c1-2.62-2.41-6.72,2.6-8,.39,2-1.29,5.09,2.6,5.31v5.31a17.29,17.29,0,0,0,0,18.58Z"/>
        <path class="cls-26"
              d="M151.34,69.33l5.2-2.66V85.25l-5.2-2.65-2.6-5.31C149.73,74.68,146.33,70.57,151.34,69.33Z"/>
        <path class="cls-27"
              d="M156.54,172.86l-5.2,2.65V151.62a20.81,20.81,0,0,1,0-2.62c.22-1.64.56-3.27.84-4.9,3.33.65,1.44,3.28,1.66,5a64.48,64.48,0,0,1,.08,7.87c0,3.37-.21,6.76.12,10.09.12,1.14,1.62,2.13,2.48,3.18Z"/>
        <path class="cls-11"
              d="M153.94,202.06V218h-2.6c0-4,.34-7.93-.09-11.83-.45-4.06-1.64-8-2.51-12.06h2.6C152.21,196.75,153.07,199.41,153.94,202.06Z"/>
        <path class="cls-28" d="M156.54,45.43c-.86-1.11-2.1-2.09-2.51-3.36-.59-1.79.79-4.58-2.69-4.6V32.16l5.2-2.66Z"/>
        <path class="cls-29" d="M156.54,125.07a17.29,17.29,0,0,1,0-18.58Z"/>
        <path class="cls-30" d="M151.34,244.54c5-.89,1.71-4.87,2.58-7.3.73-2.07-1.67-5.54,2.62-6v15.93h-5.2Z"/>
        <path class="cls-31" d="M156.54,64a12.87,12.87,0,0,1,0-15.93Z"/>
        <path class="cls-25" d="M151.34,82.6l5.2,2.65v2.66c-3.89.22-2.21,3.3-2.6,5.31-5-1.25-1.61-5.35-2.6-8Z"/>
        <path class="cls-32" d="M153.94,93.22c.39-2-1.29-5.09,2.6-5.31v13.27c-3.89-.22-2.21-3.3-2.6-5.31Z"/>
        <path class="cls-29" d="M156.54,170.2c-.86-1-2.36-2-2.48-3.18-.33-3.33-.12-6.72-.12-10.09h2.6Z"/>
        <path class="cls-33" d="M153.94,202.06c-.87-2.65-1.73-5.31-2.6-8h5.2C155.55,196.71,159,200.82,153.94,202.06Z"/>
        <path class="cls-34" d="M156.54,29.5l-5.2,2.66V26.85h5.2Z"/>
        <path class="cls-30" d="M153.94,218v-5.31c3.89.23,2.21,3.3,2.6,5.31Z"/>
        <path class="cls-35"
              d="M10.84,212.68V202.06c3.89-.23,2.21-3.3,2.6-5.31l2.16-.87-2.16-1.78V164.9c.87-.89,1.74-1.77,2.6-2.66,2.23.56,5.6,5,5.74-1.78,0-.3,1.35-.58,2.07-.87.87,1.07,2.4,2.09,2.48,3.21.3,4.22.12,8.47.12,12.71l-5.2,2.66c-3.29,0-7-.64-2.75,4.5,1,1.22.15,4,.15,6.12l.59,7.24,4.61-4.59c3.42,3.91,2.53,8.69,2.6,13.28v2.65l-2.6,5.31-5.2,2.65c-.12-2.15-2-3.54-2.34-1.11-.84,5.56-.27,11.35-.27,17h-2.6c0-5.11.15-10.24-.12-15.34C13.26,214.8,11.71,213.76,10.84,212.68Z"/>
        <path class="cls-36"
              d="M13.44,247.19h-2.6V233.92H21.25a9.73,9.73,0,0,0,0,2.59,34.56,34.56,0,0,0,1.92,5.33c.1.21,1.5-.2,2.3-.33-.55-1.66-1.19-3.31-1.62-5a10.65,10.65,0,0,1,0-2.59v-2.66h2.6l2.6-2.65L31.66,226c.22,4,3.23,2.26,5.2,2.66.39,2-1.29,5.08,2.6,5.31l2.6,2.65c-.42,4.12,1.1,6.93,5.21,8v2.65Z"/>
        <path class="cls-37"
              d="M10.84,149V119.76l5.2-2.65c1,4.19,3.77,5.74,7.81,5.31v5.31l-2.6,8c-5.76,1.49-5.41,6.09-5.21,10.62Z"/>
        <path class="cls-38"
              d="M10.84,69.33V64L16,66.67c1,2.61-2.41,6.72,2.61,8v2.66a15.49,15.49,0,0,0-2.55,0,12.67,12.67,0,0,0-2.21.84,10,10,0,0,0,2.23,1.72,7.35,7.35,0,0,0,2.53.06h5.2l2.6,2.66v8c-3.89.23-2.21,3.3-2.6,5.31H16c-4.29-.44-1.89-3.91-2.62-6-.87-2.43,2.44-6.42-2.58-7.3v-8l2.6-2Z"/>
        <path class="cls-39"
              d="M10.84,149l5.2-2.66L18.65,149l5.2,8c-4-.43-6.79,1.12-7.81,5.31l-2.6,2.66v31.85c-.39,2,1.29,5.08-2.6,5.31Z"/>
        <path class="cls-40" d="M16,117.11l-5.2,2.65V101.18a22.39,22.39,0,0,1,2.58,2c1,1,1.76,2.18,2.62,3.28v10.62Z"/>
        <path class="cls-41" d="M16,66.67,10.84,64V45.43h2.6c-.09,7.55-1.12,15.33,5.21,21.24Z"/>
        <path class="cls-42" d="M10.84,82.6c5,.88,1.71,4.87,2.58,7.3.73,2.06-1.67,5.53,2.62,6v2.66h-5.2Z"/>
        <path class="cls-43" d="M10.84,212.68c.87,1.08,2.42,2.12,2.48,3.24.27,5.1.12,10.23.12,15.34h-2.6Z"/>
        <path class="cls-44" d="M13.44,45.43h-2.6v-8H16Z"/>
        <path class="cls-45" d="M10.84,98.53H16v8c-.86-1.1-1.66-2.27-2.62-3.28a22.39,22.39,0,0,0-2.58-2Z"/>
        <path class="cls-46" d="M10.84,231.26H16v2.66h-5.2Z"/>
        <path class="cls-47" d="M10.84,69.33l2.6,3.3-2.6,2Z"/>
        <path class="cls-48"
              d="M104.51,18.89a44.76,44.76,0,0,1,7.33.12c1.13.18,2,1.65,3.07,2.53v2.65c-.86.89-1.73,1.77-2.6,2.66,1.83,5.77-2.57,10.48-2.6,15.93-4.13-.24-9.82,1.08-12-1.15s-.86-8-1-12.26c-.07-1.72,0-3.45,0-5.18l2.6-2.65,5.21,2.65a14.33,14.33,0,0,0,2.54,0,11.62,11.62,0,0,0,2.21-.83A9.67,9.67,0,0,0,107,21.6a7.35,7.35,0,0,0-2.53-.06Z"/>
        <path class="cls-49"
              d="M148.74,42.78c-2.58,1.4,7.53,4.86-.81,5.29-2.55.13-5.16-.3-7.65.1-3.14.5-1.6,3.35-1.95,5.23-.72-.3-2-.53-2.09-.91-.81-7-5.55-7.51-10.92-7.06l2.6-2.65c3.9-.23,2.21-3.3,2.61-5.31v-8h2.6c0,3,0,6,0,9,0,4.65,2.27,6.67,6.79,7s7.24-.64,6.34-6.09c-.08-.5,1.61-1.29,2.48-2Z"/>
        <path class="cls-50"
              d="M75.89,10.92h7.8c1.06.89,2.08,2.47,3.18,2.54,5,.27,10,.12,15,.12v2.65c-.86.89-1.73,1.77-2.6,2.66a92.92,92.92,0,0,0-9.88.12c-1.12.11-2.09,1.65-3.13,2.53l-7.8-5.31Z"/>
        <path class="cls-51"
              d="M101.9,13.58c-5,0-10,.15-15-.12-1.1-.07-2.12-1.65-3.18-2.54h39c-1.07.89-2.1,2.49-3.2,2.54C113.66,13.71,107.78,13.58,101.9,13.58Z"/>
        <path class="cls-52" d="M99.3,18.89c.87-.89,1.74-1.77,2.6-2.66l2.61,2.66v5.3L99.3,21.54Z"/>
        <path class="cls-53" d="M114.91,24.19V21.54c2-.4,5,1.32,5.21-2.65h2.6v5.3Z"/>
        <path class="cls-54" d="M122.72,24.19c4-.42,6.79,1.12,7.81,5.31C126.49,29.93,123.74,28.39,122.72,24.19Z"/>
        <path class="cls-55" d="M140.93,24.19c-1,4.2-3.77,5.74-7.8,5.31C134.15,25.31,136.9,23.77,140.93,24.19Z"/>
        <path class="cls-56"
              d="M122.72,18.89h-2.6c.32-4.17,3.48-2.26,5.52-2.59.6-.1,1.34.63,2,1a12.45,12.45,0,0,1-2.5,1.55A7.56,7.56,0,0,1,122.72,18.89Z"/>
        <path class="cls-57" d="M142.37,18.89l-1.2-1.58c.55-.16,1.46-.6,1.58-.44a7.64,7.64,0,0,1,.78,2Z"/>
        <path class="cls-58"
              d="M26.45,13.58V10.92h13l2.6,5.31c-.22,4-3.23,2.26-5.2,2.66l-2.13-1.81c1.46-1.5,3.55-3.2-.67-3.47C31.54,13.44,29,13.58,26.45,13.58Z"/>
        <path class="cls-59" d="M42.06,16.23l-2.6-5.31h13v2.66l-2.6,2.65Z"/>
        <path class="cls-60" d="M57.67,10.92h13v2.66h-13Z"/>
        <path class="cls-61" d="M70.68,13.58V10.92h5.21l2.6,5.31H73.28Z"/>
        <ellipse class="cls-62" cx="55.07" cy="12.25" rx="3.68" ry="1.88"/>
        <path class="cls-63"
              d="M73.28,16.23h5.21l7.8,5.31c0,5.45,4.43,10.16,2.61,15.93-5,1.24-1.62,5.35-2.61,8l-2.6,2.66L73.28,58.71l-2.6,2.65c-.86.89-1.73,1.77-2.6,2.66-2,.4-5-1.32-5.2,2.65-6.42-.26-12.07,3-18.21,4.09a7.35,7.35,0,0,0,0,1.22h-7.8L21.25,69.33l-2.6-2.66c-6.33-5.91-5.3-13.69-5.21-21.24l2.6-8L31.66,21.54c2-.4,5,1.32,5.2-2.65,2-.4,5,1.31,5.2-2.66h13c2.59,1.41-7.53,4.9.8,5.27,4.66.21,9.35.21,14,0,8.33-.37-1.78-3.86.8-5.27ZM52.47,34.81c-1.38-4.16-5.69-3.46-8.53-5.19a27,27,0,0,0-1.88,2.54c-8.79,8.18-9.92,13.4-5.2,23.89.27,1.61,0,4,.91,4.69,5.79,4.25,6.57,4,14.7-2l2.6-5.31V40.12C54.68,38.11,56.36,35,52.47,34.81ZM21.25,53.26l-.88-4.74c-3.6,1.21-1.13,4.18-1.64,6.27a18.09,18.09,0,0,0,0,5.2c0,.33.63.94.82.88.62-.19,1.62-.57,1.66-1C21.35,58.18,21.25,56.42,21.25,53.26ZM18.44,43.1,20,45.43a13.72,13.72,0,0,0,1.21-3.3c.06-.62-.78-1.34-1.21-2Z"/>
        <path class="cls-64"
              d="M36.86,18.89c-.22,4-3.23,2.25-5.2,2.65-.41,0-.82,0-1.23,0-8.07-.25-8.18-.49-4-8,2.54,0,5.09-.14,7.61,0,4.22.27,2.13,2,.67,3.47Z"/>
        <path class="cls-63"
              d="M148.74,194.1c.87,4,2.06,8,2.51,12.06.43,3.9.09,7.88.09,11.83v5.31c-3.43,1.69-4.82,5.65-8.36,7.46-2,1-3.13,3.82-4.65,5.81-3.25,1.11-7.83,1.24-9.45,3.55-2.48,3.54-8.1-1.22-8.76,4.42h-26c0-1.28.26-3.58,0-3.67-3-.8-6.69-.39-9-2-2.16-1.5-1.67-6.71-6.53-4.92h-2.6V220.64c4.77-.63,1.5-4.71,2.8-6.78,1.65-2.64,5.62-3.73,5-7.89a8.69,8.69,0,0,1,0-1.25c5.72.39,8.12-3.71,10.41-8h2.6c8.8-4.46,17.53-9,27.89-8.09,1,.09,2.22-1.64,3.33-2.53h5.21c0,3.54,2.65,2.62,4.52,2.62C142.23,188.73,146.17,189.87,148.74,194.1Zm-18.21,5.31c-.23-4-3.24-2.26-5.21-2.66-2,.4-5-1.31-5.2,2.66h-2.6l-2.61,2.65v2.66c-2.58,4.89-4.9,9.71-.08,14.77.63.67.08,2.51.08,3.81l2.61,2.65c4.24,3.82,8.76,3.82,13,0q1.29-2.65,2.6-5.31c2.58-4.89,4.9-9.71.08-14.77-.63-.67-.08-2.51-.08-3.81ZM105.2,239.79c3.33-2.56,9.76,3.28,9.33-3.83-.23-3.93-5.68-1.77-8.7-1.86-2.27-.07-6.89-2.49-6.25,3.08C99.72,238.32,103.44,239,105.2,239.79Z"/>
        <path class="cls-65"
              d="M47.27,247.19v-2.65q1.29-2.65,2.6-5.31v-2.66l2.6-2.65,2.6-2.66c2.56,1,6.59-2.46,7.81,2.66v2.65c0,.84-.32,1.89.06,2.46a8.4,8.4,0,0,0,2.91,2.72c.33.16,2.23-1.68,2.1-2a15.18,15.18,0,0,0-2.47-3.19v-8q-1.31-6.65-2.6-13.28l2.6-2.65h2.6l2.6,2.65v5.31c-5,1.25-1.61,5.36-2.6,8v2.65c.87.89,1.74,1.77,2.6,2.66h5.21c0,3.79-.7,7.84,3.49,10,.18.09,1.12-1.35,1.71-2.08h2.6c.87.89,1.74,1.77,2.6,2.66H88.9v2.65Z"/>
        <path class="cls-66"
              d="M120.12,244.54c.66-5.64,6.28-.88,8.76-4.42,1.62-2.31,6.2-2.44,9.45-3.55l-2.6,8A12.24,12.24,0,0,1,120.12,244.54Z"/>
        <path class="cls-67"
              d="M83.69,241.88h-2.6c-.87-2.65-1.73-5.31-2.6-8,4.86-1.79,4.37,3.42,6.53,4.92,2.35,1.64,6,1.23,9,2,.3.09,0,2.39,0,3.67H86.29C85.43,243.65,84.56,242.77,83.69,241.88Z"/>
        <path class="cls-66" d="M151.34,244.54v2.65a95.88,95.88,0,0,1-9.89-.12c-1.11-.12-2.08-1.65-3.12-2.53Z"/>
        <path class="cls-68" d="M88.9,244.54h2.6l-2.6,2.65Z"/>
        <path class="cls-69" d="M151.34,26.85V37.47h-2.6V26.85Z"/>
        <path class="cls-70"
              d="M148.74,26.85V29.5a7.11,7.11,0,0,1-2.53-.06A9.68,9.68,0,0,1,144,27.72a12.28,12.28,0,0,1,2.2-.84A15.49,15.49,0,0,1,148.74,26.85Z"/>
        <path class="cls-71"
              d="M151.34,82.6v2.65c-6.76-4.07-7.22-3.91-7.81,2.66h-2.6c-.27-2.21,1.2-5.42-3-5.33-3.32.08-6.64,0-10,0V77.29L130.53,72q1.29-2.66,2.6-5.31c2-.4,5,1.32,5.2-2.65.87-.89,1.74-1.77,2.6-2.66l5.21,5.31a49.05,49.05,0,0,0,.11,7.48c.19,1.15,1.62,2.1,2.49,3.14Z"/>
        <path class="cls-72"
              d="M138.33,64c-.22,4-3.23,2.25-5.2,2.65h-5.21q-6.49-5.12-13,0L112.31,64l7.81-10.62v2.65l2.6,2.66c2.53,3.9,6.27,6,10.61,5.08,1.93-.41,3.35-3.31,5-5.08h2.6v2.65C140.07,62.25,139.2,63.13,138.33,64Z"/>
        <path class="cls-73"
              d="M148.74,77.29c-.87-1-2.3-2-2.49-3.14a49.05,49.05,0,0,1-.11-7.48c2,.4,5-1.32,5.2,2.66C146.33,70.57,149.73,74.68,148.74,77.29Z"/>
        <path class="cls-28" d="M148.74,37.47h2.6c-.39,2,1.29,5.08-2.6,5.31Z"/>
        <path class="cls-74" d="M140.93,58.71h-2.6V53.4C142.22,53.62,140.54,56.69,140.93,58.71Z"/>
        <path class="cls-30"
              d="M138.33,236.57c1.52-2,2.65-4.78,4.65-5.81,3.54-1.81,4.93-5.77,8.36-7.46,0,1.76.11,3.53,0,5.28s-.56,3.27-.85,4.91c-1.22-.52-3-1.85-3.57-1.44C144.24,234,142.6,237.75,138.33,236.57Z"/>
        <path class="cls-30" d="M151.34,220.64V218h2.6Z"/>
        <path class="cls-75"
              d="M151.34,151.62v2.66l-5.2,2.65c-3.25-3.92-6.27-.09-9.39.29a7.14,7.14,0,0,0,.92,2.33c1,1,3,1.74,3.11,2.75a92.87,92.87,0,0,1,.15,10.56H125.32V159.59c5.39-1.81,9.26-4.55,7.89-11.4a23.33,23.33,0,0,1,0-7.82c.48-3.26,3.28-1.65,5.13-2h5.2v5.31c.4,2-1.29,5.08,2.61,5.31Z"/>
        <path class="cls-76"
              d="M143.53,138.35h-5.2c-.31-3.84.14-7.49,2.6-10.62.87-.89,1.74-1.77,2.6-2.66h5.21l2.6,2.66v2.65l2.6,8H143.53Z"/>
        <path class="cls-77" d="M146.14,149c-3.9-.23-2.21-3.3-2.61-5.31C147.43,143.88,145.74,147,146.14,149Z"/>
        <path class="cls-78" d="M148.74,138.35h2.6V141Z"/>
        <path class="cls-79" d="M151.34,141v-2.65h2.6Z"/>
        <path class="cls-80"
              d="M138.33,172.86h13v2.65c-3.37,4.91-3.44,7.33-.8,13.85a22.15,22.15,0,0,1,.8,4.74h-2.6c-2.57-4.23-6.51-5.37-11.09-5.35-1.87,0-4.51.92-4.52-2.62,3.41,0,6.83,0,10.24,0s3-2.53,2.7-4.49c-.65-4.38-3.16-6.71-7.74-6.14Z"/>
        <path class="cls-81"
              d="M143.53,87.91c.59-6.57,1.05-6.73,7.81-2.66,1,2.62-2.41,6.72,2.6,8v2.65c-5,1.25-1.61,5.35-2.6,8l-7.81-2.66V87.91Z"/>
        <path class="cls-82" d="M143.53,101.18l7.81,2.66v2.65c-4.15,4.49-5.4,10-5.2,15.93v2.65h-2.61V101.18Z"/>
        <path class="cls-83" d="M146.14,122.42c-.2-6,1.05-11.44,5.2-15.93v15.93h-5.2Z"/>
        <path class="cls-84" d="M148.74,122.42h2.6v5.31l-2.6-2.66Z"/>
        <path class="cls-85" d="M151.34,172.86h-7.81c.21-5.42-1.23-11.12,2.61-15.93l5.2-2.65Z"/>
        <path class="cls-86"
              d="M23.85,156.93l-5.2-8h2.6a37.83,37.83,0,0,0,4.85,3.52,34,34,0,0,0,5.56,1.79v2.65c-.87,1.06-2.37,2-2.49,3.19-.33,3.33-.12,6.72-.12,10.08q-1.18,6.53,5.21,5.31c4.46,1.73,8.65,3.67,8.32,9.74,0,.25,1.36.59,2.08.88l2.61,5.31v2.66c-1-.59-2.39-.93-3-1.81-3.08-4.67-6.48-3.38-10-.85v-2.65c3.77-7.24,3.14-8.58-4.58-10.7-1.22-.33-2.16-1.69-3.23-2.58,0-4.24.18-8.49-.12-12.71-.08-1.12-1.61-2.14-2.48-3.21Z"/>
        <path class="cls-87"
              d="M31.66,226l-2.61,2.66H18.65V215.33l5.2-2.65H34.26v2.65c-.29,1.62-.48,3.26-.88,4.85C32.9,222.13,32.24,224,31.66,226Z"/>
        <path class="cls-88"
              d="M26.45,175.51c1.07.89,2,2.25,3.23,2.58,7.72,2.12,8.35,3.46,4.58,10.7-1.59.29-3.19.48-4.75.89-1.91.5-3.78,1.17-5.66,1.76l-2.6-2.65V178.17Z"/>
        <path class="cls-89"
              d="M23.85,191.44c1.88-.59,3.75-1.26,5.66-1.76,1.56-.41,3.16-.6,4.75-.89v2.65c-7.41,2.11-4.67,8.36-5.21,13.28h-2.6C26.38,200.13,27.27,195.35,23.85,191.44Z"/>
        <path class="cls-90"
              d="M18.65,215.33v13.28L16,231.26c0-5.69-.57-11.48.27-17C16.68,211.79,18.53,213.18,18.65,215.33Z"/>
        <path class="cls-91" d="M34.26,212.68H23.85l2.6-5.31h2.6L31.66,210Z"/>
        <path class="cls-92" d="M21.25,178.17v10.62h-2.6c0-2.09.85-4.9-.15-6.12C14.26,177.53,18,178.13,21.25,178.17Z"/>
        <path class="cls-93"
              d="M23.85,156.93v2.66c-.72.29-2.06.57-2.07.87-.14,6.74-3.51,2.34-5.74,1.78C17.06,158.05,19.81,156.5,23.85,156.93Z"/>
        <path class="cls-94" d="M18.65,188.79h2.6l2.6,2.65L19.24,196Z"/>
        <ellipse class="cls-95" cx="27.75" cy="206.04" rx="1.84" ry="1.88"/>
        <path class="cls-96" d="M13.44,196.75V194.1l2.16,1.78Z"/>
        <path class="cls-96" d="M13.44,164.9l2.6-2.66C15.18,163.13,14.31,164,13.44,164.9Z"/>
        <path class="cls-97"
              d="M31.66,226c.58-1.92,1.24-3.82,1.72-5.77.4-1.59.59-3.23.88-4.85h5.2c-3.42,3.91-2.53,8.69-2.6,13.28C34.89,228.21,31.88,229.93,31.66,226Z"/>
        <path class="cls-98" d="M16,231.26l2.61-2.65h7.8v2.65h-2.6l-2.6,2.66H16Z"/>
        <path class="cls-99" d="M49.87,239.23q-1.3,2.66-2.6,5.31c-4.11-1-5.63-3.85-5.21-8Z"/>
        <path class="cls-100"
              d="M23.85,233.92a10.65,10.65,0,0,0,0,2.59c.43,1.69,1.07,3.34,1.62,5-.8.13-2.2.54-2.3.33a34.56,34.56,0,0,1-1.92-5.33,9.73,9.73,0,0,1,0-2.59Z"/>
        <path class="cls-101" d="M39.46,233.92c-3.89-.23-2.21-3.3-2.6-5.31C40.75,228.84,39.07,231.91,39.46,233.92Z"/>
        <path class="cls-102" d="M26.45,231.26v-2.65h2.6Z"/>
        <path class="cls-103" d="M23.85,233.92h-2.6l2.6-2.66Z"/>
        <path class="cls-101" d="M42.06,236.57l-2.6-2.65Z"/>
        <path class="cls-104"
              d="M23.85,127.73v-5.31q3.9-4,7.81-8l10.4,8v5.31c-.86.63-2.37,1.15-2.5,1.92-1,5.87-2.14,8.55-5.3,11.35-5.22-2.42-8.18-6.39-8.34-12.39C25.91,128.29,24.57,128,23.85,127.73Z"/>
        <path class="cls-105"
              d="M23.85,127.73c.72.29,2.06.56,2.07.88.16,6,3.12,10,8.34,12.39q-1.3,6.65-2.6,13.28a34,34,0,0,1-5.56-1.79A37.83,37.83,0,0,1,21.25,149V135.69Z"/>
        <path class="cls-106"
              d="M31.66,114.46q-3.91,4-7.81,8c-4,.43-6.79-1.12-7.81-5.31v-8c5-1.25,1.62-5.36,2.61-8,3.52,0,2.67,2.8,2.52,4.68-.25,3.29.4,6.88,3.32,7.48,1.72.35,4.44-2.72,6.18-4.73.92-1.06.69-3.15,1-4.77,3.89.22,2.21,3.29,2.6,5.31C33.87,111.16,35.55,114.23,31.66,114.46Z"/>
        <path class="cls-107" d="M21.25,135.69V149h-2.6L16,146.31C15.84,141.78,15.49,137.18,21.25,135.69Z"/>
        <path class="cls-108"
              d="M23.85,95.87c.39-2-1.29-5.08,2.6-5.31,4.09-.32,1.66-3.86,2.72-5.55,1.24-2,3.35-3.4,5.09-5.07l2.6-2.65,2.6,5.31c-5.58,2-1.74,6.65-2.46,10-.93,4.36,2.77,3.11,5.06,3.31v2.66h-7.8c-1.59-.29-3.19-.49-4.75-.89C27.6,97.14,25.73,96.47,23.85,95.87Z"/>
        <path class="cls-109"
              d="M31.66,103.84c-.3,1.62-.07,3.71-1,4.77-1.74,2-4.46,5.08-6.18,4.73-2.92-.6-3.57-4.19-3.32-7.48.15-1.88,1-4.65-2.52-4.68L16,98.53V95.87h5.21a11.71,11.71,0,0,0,2,2.62C25.9,100.47,30.28,99.67,31.66,103.84Z"/>
        <path class="cls-110"
              d="M36.86,77.29l-2.6,2.65c-2.56,1-6.59-2.46-7.81,2.66l-2.6-2.66c-2.47-3.13-2.92-6.77-2.6-10.61L36.86,72Z"/>
        <path class="cls-111"
              d="M31.66,103.84c-1.38-4.17-5.76-3.37-8.43-5.35a11.71,11.71,0,0,1-2-2.62h2.6c1.88.6,3.75,1.27,5.66,1.77,1.56.4,3.16.6,4.75.89l2.6,5.31c-.39,2,1.29,5.08-2.6,5.31C33.87,107.13,35.55,104.06,31.66,103.84Z"/>
        <path class="cls-112" d="M21.25,69.33c-.32,3.84.13,7.48,2.6,10.61h-5.2V66.67Z"/>
        <path class="cls-113"
              d="M26.45,82.6c1.22-5.12,5.25-1.65,7.81-2.66C32.52,81.61,30.41,83,29.17,85c-1.06,1.69,1.37,5.23-2.72,5.55Z"/>
        <path class="cls-47" d="M18.65,66.67v8c-5-1.24-1.62-5.35-2.61-8Z"/>
        <path class="cls-114"
              d="M18.65,77.29v2.65a7.35,7.35,0,0,1-2.53-.06,10,10,0,0,1-2.23-1.72,12.67,12.67,0,0,1,2.21-.84A15.49,15.49,0,0,1,18.65,77.29Z"/>
        <path class="cls-115" d="M16,98.53l2.61,2.65c-1,2.61,2.41,6.72-2.61,8V98.53Z"/>
        <path class="cls-116"
              d="M96.7,24.19c0,1.73-.06,3.46,0,5.18.17,4.24-1.14,10,1,12.26s7.84.91,12,1.15h5.2c3.07,2.51,6.65,3,10.41,2.65l-5.2,8c-.3-1.64-.22-4.47-1-4.72-6.83-2.3-13.9-5.07-19.85,2.06q1.19-6.51-5.2-5.31-1.3-6.63-2.6-13.27c3.89-.23,2.21-3.3,2.6-5.31V24.19Z"/>
        <path class="cls-117"
              d="M91.5,32.16q1.29,6.63,2.6,13.27H88.9v-8C90.72,31.7,86.32,27,86.29,21.54c1-.88,2-2.42,3.13-2.53a92.92,92.92,0,0,1,9.88-.12v2.65l-2.6,2.65H94.1l-2.6,2.66Z"/>
        <path class="cls-118" d="M114.91,42.78h-5.2c0-5.45,4.43-10.16,2.6-15.93h2.6Z"/>
        <path class="cls-119"
              d="M104.51,24.19V21.54a7.35,7.35,0,0,1,2.53.06,9.67,9.67,0,0,1,2.22,1.73,11.62,11.62,0,0,1-2.21.83A14.33,14.33,0,0,1,104.51,24.19Z"/>
        <path class="cls-120" d="M114.91,26.85h-2.6c.87-.89,1.74-1.77,2.6-2.66Z"/>
        <path class="cls-121"
              d="M114.91,26.85V24.19h7.81c1,4.2,3.77,5.74,7.81,5.31v8c-3.9.22-2.21,3.3-2.61,5.31l-2.6,2.65c-3.76.32-7.34-.14-10.41-2.65Z"/>
        <path class="cls-122"
              d="M120.12,53.4l5.2-8c5.37-.45,10.11.07,10.92,7.06,0,.38,1.37.61,2.09.91v5.31c-1.65,1.77-3.07,4.67-5,5.08-4.34.91-8.08-1.18-10.61-5.08l-2.6-2.66Z"/>
        <path class="cls-123" d="M127.92,42.78c.4-2-1.29-5.09,2.61-5.31C130.13,39.48,131.82,42.55,127.92,42.78Z"/>
        <path class="cls-124" d="M55.07,16.23h-5.2l2.6-2.65h7.81C60.05,17.55,57,15.83,55.07,16.23Z"/>
        <path class="cls-125"
              d="M55.07,16.23c2-.4,5,1.32,5.21-2.65h2.6c1.22,5.11,5.24,1.64,7.8,2.65-2.58,1.41,7.53,4.9-.8,5.27-4.66.21-9.35.21-14,0C47.54,21.13,57.66,17.64,55.07,16.23Z"/>
        <path class="cls-124" d="M70.68,16.23c-2.56-1-6.58,2.46-7.8-2.65h7.8l2.6,2.65Z"/>
        <path class="cls-126"
              d="M73.28,58.71,83.69,48.09c-.53,1.87-1,3.76-1.61,5.62C80.9,57.43,79.43,61.19,83.69,64v2.65L88.9,72h2.6a22.4,22.4,0,0,0,2,2.63A19,19,0,0,1,97,78.48c-.41.28-.94-.46-1.47-1.19-.46.61-1.33,1.24-1.3,1.83a12.78,12.78,0,0,0,1,3.25A9,9,0,0,0,97,78.48c.78-.57,1.77.39,2.89.59a18.81,18.81,0,0,0,4.41-.2c-1.59-5.19,3.76-6.16,5.47-9.35a25.16,25.16,0,0,1,1.68-2.44,28.84,28.84,0,0,1,.87,3.59,34.86,34.86,0,0,1,0,4c.87.89,1.74,1.77,2.6,2.66h2.61c-.29.73-.43,2-.87,2.1-2.73.73-6.41.84-1.76,4.51C112.73,86,110.54,88,114,91c1.45,1.29,2.37,3.2,3.54,4.83h-2.61a35.37,35.37,0,0,0-4.85-3.52,33.3,33.3,0,0,0-5.55-1.79L101,85.68c-.57.74-1.14,1.49-1.72,2.23H96.7c-.22-4-3.23-2.26-5.2-2.66H88.9l-2-2.65-3.24,2.65h-7.8L73.28,82.6V66.67c4.26.8,6-1,5.21-5.31C78.27,57.39,75.26,59.11,73.28,58.71ZM85,76.72c-2-1.07-3.45-2.26-3.86-2a42.57,42.57,0,0,0-4.69,4.44c1.58.25,3.24.91,4.72.62C82.32,79.59,83.26,78.19,85,76.72Z"/>
        <path class="cls-127"
              d="M36.86,56.05c-4.72-10.49-3.59-15.71,5.2-23.89v2.65c-3.83,4.81-2.39,10.51-2.6,15.93C39.07,52.75,40.75,55.82,36.86,56.05Z"/>
        <path class="cls-128"
              d="M44.66,72a7.35,7.35,0,0,1,0-1.22c6.14-1,11.79-4.35,18.21-4.09.22,4,3.23,2.26,5.2,2.66q1.31,4,2.6,8L60.28,72l-.86-2.2L57.67,72h-13Z"/>
        <path class="cls-129"
              d="M36.86,56.05c3.89-.23,2.21-3.3,2.6-5.31,3.45,0,2.37,2.69,2.6,4.6.62,5.13,2.81,4.37,5.66,1.63a7,7,0,0,1,2.15-.92l2.6,2.66c-8.13,6.05-8.91,6.28-14.7,2C36.84,60.06,37.13,57.66,36.86,56.05Z"/>
        <path class="cls-130"
              d="M52.47,58.71l-2.6-2.66V37.47l2.6-2.66c3.89.23,2.21,3.3,2.6,5.31-3.74,4.33-3.74,9,0,13.28Z"/>
        <path class="cls-131"
              d="M88.9,45.43h5.2q6.39-1.2,5.2,5.31v8H96.7c-.16-10.56-.16-10.56-10.49-10.62-.84,0-1.68,0-2.52,0l2.6-2.66Z"/>
        <path class="cls-132" d="M36.86,77.29V72h5.2v2.65c.39,2-1.29,5.09,2.6,5.31V82.6h-5.2Z"/>
        <path class="cls-133"
              d="M52.47,34.81l-2.6,2.66-7.81-2.66V32.16a27,27,0,0,1,1.88-2.54C46.78,31.35,51.09,30.65,52.47,34.81Z"/>
        <path class="cls-134"
              d="M42.06,74.63V72h13c-.39,2,1.29,5.08-2.6,5.31-1-.89-1.95-2.35-3.08-2.54A45.9,45.9,0,0,0,42.06,74.63Z"/>
        <path class="cls-135"
              d="M68.08,69.33c-2-.4-5,1.31-5.2-2.66.22-4,3.23-2.25,5.2-2.65.22,4,3.23,2.25,5.2,2.65v2.66Z"/>
        <path class="cls-136"
              d="M73.28,66.67c-2-.4-5,1.32-5.2-2.65l2.6-2.66,2.6-2.65c2,.4,5-1.32,5.21,2.65Q72.1,60.16,73.28,66.67Z"/>
        <path class="cls-137"
              d="M21.25,53.26c0,3.16.1,4.92-.08,6.64,0,.4-1,.78-1.66,1-.19.06-.81-.55-.82-.88a18.09,18.09,0,0,1,0-5.2c.51-2.09-2-5.06,1.64-6.27Z"/>
        <path class="cls-138" d="M55.07,53.4c-3.74-4.33-3.74-8.95,0-13.28Z"/>
        <path class="cls-136" d="M88.9,45.43H86.29c1-2.61-2.41-6.72,2.61-8Z"/>
        <path class="cls-137" d="M18.44,43.1l1.51-3c.43.67,1.27,1.39,1.21,2A13.72,13.72,0,0,1,20,45.43Z"/>
        <path class="cls-135" d="M70.68,61.36,68.08,64C69,63.13,69.82,62.25,70.68,61.36Z"/>
        <path class="cls-139"
              d="M127.92,186.13c-1.11.89-2.3,2.62-3.33,2.53-10.36-.95-19.09,3.63-27.89,8.09V183.48h7.81c.22,4,3.23,2.25,5.2,2.65h18.21Z"/>
        <path class="cls-140"
              d="M70.68,215.33l-2.6-2.65v-8c.87-.89,1.74-1.77,2.6-2.66l2.6-2.65c5.62,5.31,5.62,5.31,10.41,5.31a8.69,8.69,0,0,0,0,1.25c.61,4.16-3.36,5.25-5,7.89-1.3,2.07,2,6.15-2.8,6.78-1-2.61,2.41-6.72-2.61-8a15.15,15.15,0,0,0,0-2.61,12.24,12.24,0,0,0-.83-2.25c-.58.76-1.53,1.47-1.66,2.3A34.78,34.78,0,0,0,70.68,215.33Z"/>
        <path class="cls-141"
              d="M133.13,202.06c0,1.3-.55,3.14.08,3.81,4.82,5.06,2.5,9.88-.08,14.77l-2.6-2.65c1.43-7.12-2.29-12.74-5.21-18.58h5.21Z"/>
        <path class="cls-142"
              d="M114.91,223.3c0-1.3.55-3.14-.08-3.81-4.82-5.06-2.5-9.88.08-14.77l2.61,2.65q1.29,9.3,2.6,18.58h-2.6Z"/>
        <path class="cls-143"
              d="M70.68,215.33a34.78,34.78,0,0,1,.08-5.21c.13-.83,1.08-1.54,1.66-2.3a12.24,12.24,0,0,1,.83,2.25,15.15,15.15,0,0,1,0,2.61c0,3.37-.21,6.76.12,10.09.12,1.13,1.62,2.13,2.49,3.18v5.31l-2.61,2.66h-2.6c-.86-.89-1.73-1.77-2.6-2.66v-2.65c5-1.25,1.61-5.35,2.6-8Z"/>
        <path class="cls-144"
              d="M105.2,239.79c-1.76-.77-5.48-1.47-5.62-2.61-.64-5.57,4-3.15,6.25-3.08,3,.09,8.47-2.07,8.7,1.86C115,243.07,108.53,237.23,105.2,239.79Z"/>
        <path class="cls-145"
              d="M96.7,191.44v5.31H94.1c-1.89.6-3.75,1.27-5.66,1.77-1.56.4-3.16.6-4.75.89v-2.66l2.6-2.65C89.36,191.58,92.94,191.12,96.7,191.44Z"/>
        <path class="cls-146"
              d="M130.53,186.13h-2.61v-2.65c-.35-1.88,1.19-4.73-2-5.15-.95-.13-2.15,1.61-3.24,2.49h-5.2v-2.65l5.2-2.66h2.6c3-.17,5.93-.37,5.26,4.32A44.11,44.11,0,0,0,130.53,186.13Z"/>
        <path class="cls-147"
              d="M130.53,186.13a44.11,44.11,0,0,1,.05-6.3c.67-4.69-2.24-4.49-5.26-4.32v-2.65h13v2.65c-3-.17-5.93-.37-5.25,4.32a45.63,45.63,0,0,1,0,6.3Z"/>
        <path class="cls-148"
              d="M83.69,199.41c1.59-.29,3.19-.49,4.75-.89,1.91-.5,3.77-1.17,5.66-1.77-2.29,4.26-4.69,8.36-10.41,8Z"/>
        <path class="cls-149" d="M117.52,226h2.6l7.8-2.65,2.61,2.65C126.28,229.77,121.76,229.77,117.52,226Z"/>
        <path class="cls-68"
              d="M78.49,233.92c.87,2.65,1.73,5.31,2.6,8-.59.73-1.53,2.17-1.71,2.08-4.19-2.2-3.5-6.25-3.49-10Z"/>
        <path class="cls-150"
              d="M75.89,226c-.87-1-2.37-2-2.49-3.18-.33-3.33-.12-6.72-.12-10.09,5,1.24,1.62,5.35,2.61,8Z"/>
        <path class="cls-151" d="M130.53,226l-2.61-2.65c.4-2-1.29-5.08,2.61-5.31l2.6,2.65Q131.82,223.3,130.53,226Z"/>
        <path class="cls-152"
              d="M117.52,207.37l-2.61-2.65v-2.66l2.61-2.65h2.6v2.65C119.73,204.07,121.41,207.14,117.52,207.37Z"/>
        <path class="cls-153" d="M120.12,202.06v-2.65c.22-4,3.23-2.26,5.2-2.66v2.66Z"/>
        <path class="cls-154" d="M125.32,199.41v-2.66c2,.4,5-1.31,5.21,2.66Z"/>
        <path class="cls-154" d="M117.52,199.41l-2.61,2.65Z"/>
        <path class="cls-154" d="M133.13,202.06l-2.6-2.65Z"/>
        <path class="cls-154" d="M114.91,223.3l2.61,2.65Z"/>
        <path class="cls-68" d="M73.28,233.92l2.61-2.66v2.66Z"/>
        <path class="cls-155"
              d="M42.06,236.57l-2.6-2.65c-.39-2,1.29-5.08-2.6-5.31.07-4.59-.82-9.37,2.6-13.28,3.57-2.52,7-3.82,10,.85.58.88,2,1.22,3,1.81l2.6,2.65c-4,4.77-4.08,5.12-2.6,13.28l-2.6,2.65v2.66Z"/>
        <path class="cls-156"
              d="M55.07,220.64,52.47,218l2.6-2.66h7.81q1.29,6.64,2.6,13.28c-3.77.32-7.34-.14-10.41-2.66Z"/>
        <path class="cls-157" d="M55.07,220.64v10.62l-2.6,2.66C51,225.76,51.06,225.41,55.07,220.64Z"/>
        <path class="cls-158"
              d="M55.07,231.26V226c3.07,2.52,6.64,3,10.41,2.66v5.31h-2.6C61.66,228.8,57.63,232.27,55.07,231.26Z"/>
        <path class="cls-158"
              d="M65.48,236.57A15.18,15.18,0,0,1,68,239.76c.13.31-1.77,2.15-2.1,2A8.4,8.4,0,0,1,62.94,239c-.38-.57-.06-1.62-.06-2.46Z"/>
        <path class="cls-159" d="M62.88,215.33H55.07v-2.65H65.48Z"/>
        <path class="cls-156" d="M70.68,220.64c-1,2.62,2.41,6.72-2.6,8C69.07,226,65.67,221.89,70.68,220.64Z"/>
        <path class="cls-68" d="M65.48,212.68h-2.6l5.2-5.31v5.31Z"/>
        <path class="cls-68" d="M68.08,231.26c.87.89,1.74,1.77,2.6,2.66C69.82,233,69,232.15,68.08,231.26Z"/>
        <path class="cls-160" d="M49.87,236.57l2.6-2.65Z"/>
        <ellipse class="cls-68" cx="64.18" cy="235.25" rx="1.84" ry="1.88"/>
        <path class="cls-68" d="M83.69,241.88c.87.89,1.74,1.77,2.6,2.66C85.43,243.65,84.56,242.77,83.69,241.88Z"/>
        <path class="cls-161" d="M143.53,87.91V98.53l-5.2,2.65h-13v-8c5-1.25,1.61-5.35,2.6-8,4.5.07,9.19-.83,13,2.66Z"/>
        <path class="cls-162"
              d="M117.52,95.87c-1.17-1.63-2.09-3.54-3.54-4.83-3.44-3-1.25-5,.91-7.14-4.65-3.67-1-3.78,1.76-4.51.44-.12.58-1.37.87-2.1q5.2,4.3,10.4,0V82.6c-5,1.24-1.61,5.35-2.6,8-3.89.23-2.21,3.3-2.6,5.31Z"/>
        <path class="cls-163" d="M127.92,77.29q-5.2,4.3-10.4,0h-2.61V74.63c4.5-.07,9.19.84,13-2.65h2.61Z"/>
        <path class="cls-164"
              d="M140.93,87.91c-3.82-3.49-8.51-2.59-13-2.66V82.6c3.33,0,6.65.06,10,0C142.13,82.49,140.66,85.7,140.93,87.91Z"/>
        <path class="cls-165" d="M130.53,72h-2.61V66.67h5.21Q131.82,69.32,130.53,72Z"/>
        <path class="cls-166" d="M138.33,64c.87-.89,1.74-1.77,2.6-2.66C140.07,62.25,139.2,63.13,138.33,64Z"/>
        <path class="cls-167"
              d="M99.3,58.71v-8c6-7.13,13-4.36,19.85-2.06.75.25.67,3.08,1,4.72L112.31,64c-3.76.32-7.34-.14-10.41-2.66Z"/>
        <path class="cls-163"
              d="M101.9,61.36c3.07,2.52,6.65,3,10.41,2.66l2.6,2.65v8h-2.6a34.86,34.86,0,0,0,0-4,28.84,28.84,0,0,0-.87-3.59,25.16,25.16,0,0,0-1.68,2.44c-1.71,3.19-7.06,4.16-5.47,9.35a18.81,18.81,0,0,1-4.41.2c-1.12-.2-2.11-1.16-3.15-1.78-1.08-.89-2.23-1.7-3.21-2.68a22.4,22.4,0,0,1-2-2.63c.23-2.28-1.16-5.61,3.17-5.3C98.56,67,100.89,65.11,101.9,61.36Z"/>
        <path class="cls-168" d="M114.91,72V66.67q6.51-5.12,13,0v2.66C123.43,69.4,118.74,68.49,114.91,72Z"/>
        <path class="cls-167" d="M120.12,56.05l2.6,2.66Z"/>
        <path class="cls-169"
              d="M140.93,127.73c-2.46,3.13-2.91,6.78-2.6,10.62-1.85.37-4.65-1.24-5.13,2a23.33,23.33,0,0,0,0,7.82c1.37,6.85-2.5,9.59-9.06,11.66-.27-.42.45-1,1.17-1.5-.6-.47-1.22-1.36-1.79-1.33a12.43,12.43,0,0,0-3.19,1,8.64,8.64,0,0,0,3.81,1.82,2.23,2.23,0,0,1,1.17,2.39c-2.56-1-6.58,2.46-7.8-2.65,1.46-7.32,5.7-13.73,6.61-21.24a8.85,8.85,0,0,1,1.19,0c1.58-.28,4.28-.17,4.54-.92,1-3.09,1.35-6.44,1.93-9.7-5.22,2.12-2.18-6.24-6.47-5.31l-2.6-5.31c2-.4,5,1.32,5.2-2.65v-5.31c.72.29,2.06.56,2.07.87.16,6,3.12,10,8.34,12.4C142.22,122.65,140.54,125.72,140.93,127.73Zm-13,19.81a50,50,0,0,0-.08-5.2c0-.33-1.12-.55-1.72-.82,0,3.23.07,6.46.1,9.69.57-.35,1.45-.59,1.63-1.1A7.83,7.83,0,0,0,127.92,147.54Z"/>
        <path class="cls-170"
              d="M117.52,159.59c1.22,5.11,5.24,1.64,7.8,2.65v10.62l-2.6,2.65-5.2,2.66c-2.07-7.56-8.2-4.77-13-5.31H101.9C105.62,166.62,112.54,164.29,117.52,159.59Z"/>
        <path class="cls-171"
              d="M146.14,156.93c-3.84,4.81-2.4,10.51-2.61,15.93h-2.6a92.87,92.87,0,0,0-.15-10.56c-.11-1-2.15-1.72-3.11-2.75a7.14,7.14,0,0,1-.92-2.33C139.87,156.84,142.89,153,146.14,156.93Z"/>
        <path class="cls-172"
              d="M140.93,127.73c-.39-2,1.29-5.08-2.6-5.31v-8c5-1.25,1.61-5.36,2.6-8h2.6v18.58C142.67,126,141.8,126.84,140.93,127.73Z"/>
        <ellipse class="cls-173" cx="147.44" cy="123.75" rx="1.84" ry="1.88"/>
        <path class="cls-174"
              d="M133.13,186.13a45.63,45.63,0,0,0,0-6.3c-.68-4.69,2.23-4.49,5.25-4.32,4.58-.57,7.09,1.76,7.74,6.14.29,2,.7,4.54-2.7,4.49S136.54,186.13,133.13,186.13Z"/>
        <path class="cls-175" d="M143.53,106.49h-2.6q-1.29-2.65-2.6-5.31l5.2-2.65v8Z"/>
        <path class="cls-176"
              d="M31.66,154.28Q33,147.64,34.26,141c3.16-2.8,4.3-5.48,5.3-11.35.13-.77,1.64-1.29,2.5-1.92V141c-3.48-.48-5.54.18-5.33,4.66.19,3.92-.09,7.32,5.33,6h2.6C45.71,160.36,50.83,166,58,170.24c2.62,1.55,5,3.5,7.5,5.27-.87.89-1.74,1.77-2.6,2.66H57.67c-3.9-.89-8.47-.82-11.46-3-1.88-1.38-1.31-6.15-2-9.35-.11-.45-1.38-.62-2.11-.92-1.33-5.57-7-5.19-10.4-8Z"/>
        <path class="cls-177"
              d="M42.06,167.44c.73-2.24,2-2.07,2.11-1.62.73,3.2.16,8,2,9.35,3,2.18,7.56,2.11,11.46,3V194.1H47.27v-2.66a31.94,31.94,0,0,0,3.79,0c3.25-.4,5.84-5.09,3.64-6.75-2.44-1.84-5.65-2.61-8.53-3.85-.09.87-.58,2.07-.2,2.54,1.72,2.12.85,2.69-1.31,2.77-.72-.29-2.09-.63-2.08-.88.33-6.07-3.86-8-8.32-9.74q1.18-6.51-5.21-5.31c0-3.36-.21-6.75.12-10.08.12-1.14,1.62-2.13,2.49-3.19,3.38,2.78,9.07,2.4,10.4,10.51,0,1.7.16.81,0,0a13.57,13.57,0,0,0-1.21-2.56,13.72,13.72,0,0,0-1.29,3.22,22.8,22.8,0,0,0,0,5.09,6.7,6.7,0,0,0,1,2.09A15.33,15.33,0,0,0,42,172.53C42.25,171.75,42.06,170.84,42.06,167.44Z"/>
        <path class="cls-95"
              d="M36.86,215.33h-2.6v-2.65L31.66,210c-.4-2,1.29-5.09-2.61-5.31.54-4.92-2.2-11.17,5.21-13.28,3.56-2.53,7-3.82,10,.85.58.88,2,1.22,3,1.81v2.65c.68,6.7,0,12.67-7.8,14.68-.1,0,0,.82,0,1.25Z"/>
        <path class="cls-178"
              d="M44.66,186.13c2.16-.08,3-.65,1.31-2.77-.38-.47.11-1.67.2-2.54,2.88,1.24,6.09,2,8.53,3.85,2.2,1.66-.39,6.35-3.64,6.75a31.94,31.94,0,0,1-3.79,0Z"/>
        <path class="cls-179" d="M29.05,170.2q6.39-1.2,5.21,5.31Q27.87,176.73,29.05,170.2Z"/>
        <path class="cls-180" d="M29.05,204.72c3.9.22,2.21,3.29,2.61,5.31l-2.61-2.66Z"/>
        <path class="cls-181" d="M36.86,215.33l2.6-2.65v2.65Z"/>
        <path class="cls-182"
              d="M65.48,175.51c-2.49-1.77-4.88-3.72-7.5-5.27-7.15-4.24-12.27-9.88-13.32-18.62-.39-2,1.29-5.08-2.6-5.31V119.76l2.6-2.65V111.8l2.61-2.65v-2.66l2.6-2.65,2.6-2.66L62.88,87.91h2.6c3.76.32,7.34-.14,10.41-2.66H91.5c.22,4,3.23,2.26,5.2,2.66h2.6c.23,4,3.23,2.25,5.21,2.65a33.3,33.3,0,0,1,5.55,1.79,35.37,35.37,0,0,1,4.85,3.52,7.2,7.2,0,0,0,2.55,6.72,16.79,16.79,0,0,1,5.26,14.52l2.6,5.31v15.93a8.85,8.85,0,0,0-1.19,0c-.91,7.51-5.15,13.92-6.61,21.24-5,4.7-11.9,7-15.62,13.27A45.61,45.61,0,0,1,83,175.64c-.58,0-1.26,1.64-1.9,2.53Zm0-79.64-2.6,2.66-5.21,5.31-2.6,2.65-2.6,2.66v2.65l-2.6,2.66v2.65c-3.89.23-2.21,3.3-2.6,5.31v21.24c.39,2-1.29,5.08,2.6,5.31,2.72,3.45,2.35,9.26,7.8,10.62q3.91,4,7.81,8c1.58.29,3.19.49,4.75.89,1.91.5,3.77,1.17,5.66,1.76h10.4c4.44.21,7.78-1.83,10.41-5.3l2.6-2.66h2.6c3.9-.23,2.21-3.3,2.61-5.31,4,.43,6.78-1.12,7.8-5.31.87-.61,2.2-1,2.52-1.86,1.09-2.84,1.82-5.83,2.69-8.76V114.46l-2.61-2.66v-2.65l-5.2-5.31c-.22-4-3.23-2.26-5.2-2.66-6.5-9.08-15.69-11.3-26-10.62H73.28l-2.6,2.66h-2.6Z"/>
        <path class="cls-183"
              d="M47.27,106.49v2.66l-2.61,2.65v5.31l-2.6,2.65v2.66l-10.4-8c3.89-.23,2.21-3.3,2.6-5.31,3.89-.23,2.21-3.3,2.6-5.31l5.2-2.66h7.81v2.66Z"/>
        <path class="cls-184" d="M49.87,101.18H42.06V82.6h13l7.81,5.31L52.47,101.18Z"/>
        <path class="cls-185" d="M42.06,82.6V95.87c-2.29-.2-6,1-5.06-3.31.72-3.31-3.12-7.93,2.46-10Z"/>
        <path class="cls-106" d="M42.06,98.53v2.65l-5.2,2.66-2.6-5.31Z"/>
        <path class="cls-186" d="M91.5,32.16V26.85h2.6C93.71,28.86,95.39,31.93,91.5,32.16Z"/>
        <path class="cls-48" d="M94.1,26.85H91.5l2.6-2.66Z"/>
        <path class="cls-136"
              d="M83.69,48.09c.84,0,1.68,0,2.52,0,10.33.06,10.33.06,10.49,10.62-4.27,1.94-7.14,7.45-13,5.31-4.26-2.83-2.79-6.59-1.61-10.31C82.66,51.85,83.16,50,83.69,48.09Z"/>
        <path class="cls-187"
              d="M122.72,117.11a16.79,16.79,0,0,0-5.26-14.52,7.2,7.2,0,0,1-2.55-6.72h2.61l5.2,5.31h2.6l2.6,2.66v5.31l-2.6,2c.87,1.1,1.74,2.2,2.6,3.31C127.7,118.43,124.69,116.71,122.72,117.11Z"/>
        <path class="cls-188"
              d="M83.69,64c5.87,2.14,8.74-3.37,13-5.31h2.6l2.6,2.65c-1,3.75-3.34,5.6-7.23,5.32-4.33-.31-2.94,3-3.17,5.3H88.9q1.17-6.51-5.21-5.31Z"/>
        <path class="cls-189" d="M68.08,69.33h5.2V82.6h-2.6V77.29Q69.39,73.3,68.08,69.33Z"/>
        <path class="cls-190"
              d="M85,76.72c-1.73,1.47-2.67,2.87-3.83,3.09-1.48.29-3.14-.37-4.72-.62a42.57,42.57,0,0,1,4.69-4.44C81.54,74.46,83,75.65,85,76.72Z"/>
        <path class="cls-191"
              d="M70.68,82.6h2.6l2.61,2.65c-3.07,2.52-6.65,3-10.41,2.66V85.25C67.45,84.85,70.46,86.57,70.68,82.6Z"/>
        <path class="cls-192" d="M73.28,66.67q-1.17-6.51,5.21-5.31C79.28,65.71,77.54,67.47,73.28,66.67Z"/>
        <path class="cls-193" d="M83.69,66.67q6.39-1.2,5.21,5.31Z"/>
        <path class="cls-191" d="M104.51,90.56c-2-.4-5,1.32-5.21-2.65.58-.74,1.15-1.49,1.72-2.23Z"/>
        <path class="cls-163" d="M97.21,79.68l-2,2.69a12.78,12.78,0,0,1-1-3.25c0-.59.84-1.22,1.3-1.83Z"/>
        <path class="cls-191" d="M88.9,85.25H83.69l3.24-2.65Z"/>
        <path class="cls-191" d="M96.7,87.91c-2-.4-5,1.31-5.2-2.66C93.47,85.65,96.48,83.94,96.7,87.91Z"/>
        <path class="cls-162" d="M112.31,74.63h2.6v2.66C114.05,76.4,113.18,75.52,112.31,74.63Z"/>
        <path class="cls-194"
              d="M42.06,34.81l7.81,2.66V56.05a7,7,0,0,0-2.15.92c-2.85,2.74-5,3.5-5.66-1.63-.23-1.91.85-4.59-2.6-4.6C39.67,45.32,38.23,39.62,42.06,34.81Z"/>
        <path class="cls-195"
              d="M70.68,77.29v2.65l-5.2,5.31c-.87-1.11-2.56-2.31-2.46-3.33.43-4.51-1.9-5.1-5.35-4.63V72h2.61Z"/>
        <path class="cls-196" d="M57.67,72v5.31l-2.6,5.31h-5.2l2.6-5.31c3.89-.23,2.21-3.3,2.6-5.31Z"/>
        <path class="cls-197" d="M60.28,72H57.67l1.75-2.2Z"/>
        <path class="cls-134" d="M52.47,77.29l-2.6,5.31H44.66V79.94C45.88,74.83,49.91,78.3,52.47,77.29Z"/>
        <path class="cls-198"
              d="M52.47,77.29c-2.56,1-6.59-2.46-7.81,2.65-3.89-.22-2.21-3.29-2.6-5.31a45.9,45.9,0,0,1,7.33.12C50.52,74.94,51.45,76.4,52.47,77.29Z"/>
        <path class="cls-199"
              d="M101.9,172.86h2.61a14,14,0,0,0,.77,2c5.6-1.24,8,4.25,12.24,5.91v5.31h-7.81c-.35-1.88,1.18-4.73-2-5.15-1-.13-2.16,1.61-3.24,2.5H96.7v-2.66l2.6-2.65Q100.61,175.52,101.9,172.86Z"/>
        <path class="cls-200"
              d="M101.9,172.86q-1.29,2.65-2.6,5.31l-2.6,2.65v8H88.9c.27-.73.35-1.7.87-2.13,1.34-1.12,3.81-1.75,4.14-3,.8-3.07-2.83-2-3.75-3.12-2.66-3.25-6-2.07-9.07-2.34.64-.89,1.32-2.57,1.9-2.53A45.61,45.61,0,0,0,101.9,172.86Z"/>
        <path class="cls-201" d="M117.52,186.13v-5.31h5.2c.22,4,3.23,2.26,5.2,2.66v2.65Z"/>
        <path class="cls-148" d="M88.9,188.79h7.8v2.65c-3.76-.32-7.34.14-10.41,2.66v-5.31Z"/>
        <path class="cls-202"
              d="M104.51,183.48c1.08-.89,2.28-2.63,3.24-2.5,3.14.42,1.61,3.27,2,5.15C107.74,185.73,104.73,187.45,104.51,183.48Z"/>
        <path class="cls-203"
              d="M68.08,207.37l-5.2,5.31H55.07c-2.16-.28-5.31,1.22-5.22-3.1.07-3.39,0-6.78,0-10.17l7.8-5.31h5.21l2.6,2.65,2.6,8Z"/>
        <path class="cls-204"
              d="M83.69,199.41v5.31c-4.79,0-4.79,0-10.41-5.31V194.1c.18-1.56.21-3.3,2.43-1.52,1.77,1.42,3.58,2.78,5.38,4.17Z"/>
        <path class="cls-205" d="M73.28,194.1v5.31l-2.6,2.65c-.39-2,1.29-5.08-2.6-5.31V194.1Z"/>
        <path class="cls-206" d="M68.08,196.75c3.89.23,2.21,3.3,2.6,5.31-.86.89-1.73,1.77-2.6,2.66l-2.6-8Z"/>
        <path class="cls-154"
              d="M120.12,202.06l5.2-2.65c2.92,5.84,6.64,11.46,5.21,18.58-3.9.23-2.21,3.3-2.61,5.31l-7.8,2.65q-1.31-9.28-2.6-18.58C121.41,207.14,119.73,204.07,120.12,202.06Z"/>
        <path class="cls-207"
              d="M73.28,194.1h-13l-2.61-2.66V178.17c1.74,0,3.47,0,5.21,3.22.87,5.53-2.3,10,2.87,9.92,4-.1,1.55-4,2.38-6,.6-1.46,2.22-2.66,2.36-4.09.09-.93-1.56-2.78-2.59-2.91-1.6-.21-3.94.17-4.85,1.27s-.17,3.28-.17,1.77c.86-4.1,1.73-5,2.6-5.87l15.61,2.66c3.12.27,6.41-.91,9.07,2.34.92,1.12,4.55.05,3.75,3.12-.33,1.28-2.8,1.91-4.14,3-.52.43-.6,1.4-.87,2.13H86.29a15.35,15.35,0,0,0-2.54,0,12.33,12.33,0,0,0-2.21.83,9.67,9.67,0,0,0,2.22,1.73,7.35,7.35,0,0,0,2.53.06v2.66l-2.6,2.65h-2.6c-1.8-1.39-3.61-2.75-5.38-4.17C73.49,190.8,73.46,192.54,73.28,194.1Z"/>
        <path class="cls-148" d="M81.09,196.75h2.6v2.66Z"/>
        <path class="cls-208"
              d="M117.52,180.82c-4.2-1.66-6.64-7.15-12.24-5.91a14,14,0,0,1-.77-2c4.81.54,10.94-2.25,13,5.31Z"/>
        <path class="cls-209"
              d="M127.92,183.48c-2-.4-5,1.31-5.2-2.66,1.09-.88,2.29-2.62,3.24-2.49C129.11,178.75,127.57,181.6,127.92,183.48Z"/>
        <path class="cls-75" d="M122.72,175.51l2.6-2.65v2.65Z"/>
        <path class="cls-210"
              d="M49.87,199.41c0,3.39.05,6.78,0,10.17-.09,4.32,3.06,2.82,5.22,3.1v2.65L52.47,218c-1-.59-2.39-.93-3-1.81-3.08-4.67-6.47-3.37-10-.85v-2.65c0-.43-.09-1.22,0-1.25,7.84-2,8.48-8,7.8-14.68C48.13,197.64,49,198.52,49.87,199.41Z"/>
        <path class="cls-211"
              d="M127.92,109.15v-5.31l2.61-2.66h7.8q1.3,2.66,2.6,5.31c-1,2.61,2.41,6.72-4.29,8.61.18-.77,1.66-1.67,1.58-1.85-.94-2.13-2.12-4.15-3.24-6.19-.62.62-1.82,1.32-1.75,1.84a9.48,9.48,0,0,0,3.41,6.2c1.69,2,1.69,4.66,1.69,7.32C133.11,120,130.15,116,130,110,130,109.71,128.64,109.44,127.92,109.15Z"/>
        <path class="cls-212" d="M125.32,101.18h-2.6V95.87c.39-2-1.29-5.08,2.6-5.31v10.62Z"/>
        <path class="cls-213" d="M125.32,93.22V90.56c1-2.61-2.41-6.72,2.6-8v2.65C126.93,87.87,130.33,92,125.32,93.22Z"/>
        <path class="cls-212" d="M130.53,101.18l-2.61,2.66-2.6-2.66Z"/>
        <path class="cls-126" d="M122.72,95.87v5.31l-5.2-5.31Z"/>
        <path class="cls-71" d="M114.91,72c3.83-3.49,8.52-2.58,13-2.65V72c-3.82,3.49-8.51,2.58-13,2.65Z"/>
        <path class="cls-187"
              d="M125.32,138.35V122.42c4.29-.93,1.25,7.43,6.47,5.31-.58,3.26-.88,6.61-1.93,9.7C129.6,138.18,126.9,138.07,125.32,138.35Z"/>
        <path class="cls-214"
              d="M127.92,147.54a7.83,7.83,0,0,1-.07,2.57c-.18.51-1.06.75-1.63,1.1,0-3.23-.07-6.46-.1-9.69.6.27,1.69.49,1.72.82A50,50,0,0,1,127.92,147.54Z"/>
        <path class="cls-170" d="M123,160.11,120.34,158a12.43,12.43,0,0,1,3.19-1c.57,0,1.19.86,1.79,1.33Z"/>
        <path class="cls-212" d="M127.92,114.46c-.86-1.11-1.73-2.21-2.6-3.31l2.6-2Z"/>
        <path class="cls-215" d="M42.06,141v10.62c-5.42,1.36-5.14-2-5.33-6C36.52,141.18,38.58,140.52,42.06,141Z"/>
        <path class="cls-191" d="M42.06,151.62v-5.31c3.89.23,2.21,3.3,2.6,5.31Z"/>
        <path class="cls-86" d="M49.87,199.41c-.87-.89-1.74-1.77-2.6-2.66V194.1h10.4Z"/>
        <path class="cls-216"
              d="M42.06,170a9,9,0,0,1-.05,2.54,15.33,15.33,0,0,1-1.46,2.77,6.7,6.7,0,0,1-1-2.09,22.8,22.8,0,0,1,0-5.09,13.72,13.72,0,0,1,1.29-3.22A13.57,13.57,0,0,1,42,167.46,10.66,10.66,0,0,1,42.06,170Z"/>
        <path class="cls-217" d="M57.67,191.44l2.61,2.66H57.67Z"/>
        <path class="cls-218"
              d="M57.67,159.59c-5.45-1.36-5.08-7.17-7.8-10.62-.39-2,1.29-5.09-2.6-5.31V122.42h2.6c3.89-.23,2.21-3.3,2.6-5.31l5.2-8c3.9.22,2.21,3.29,2.61,5.31v5.3c0,6-.14,12,.11,18,0,1.12,1.62,2.18,2.49,3.26a49,49,0,0,0,.11,7.48c.19,1.15,1.62,2.1,2.49,3.14v2.66L69,159.16l1.72-2.23h2.6l2.61,2.66,2.6,2.65h7.8q-1.29,2.65-2.6,5.31h-7.8c-3.07-2.52-6.65-3-10.41-2.65C64.46,160.7,61.71,159.16,57.67,159.59Z"/>
        <path class="cls-219"
              d="M78.49,90.56c10.33-.68,19.52,1.54,26,10.62v2.66c-.4,10.38-3.84,20.46-3.13,31,0,.25-1.35.59-2.08.88V125.07c-1-2.61,2.41-6.72-2.6-8v-2.65c-.39-2,1.29-5.09-2.6-5.31l-2.6-2.66v-5.31c-1.46-5.87-6-5.52-10.41-5.31Z"/>
        <path class="cls-220"
              d="M78.49,90.56l2.6,5.31v2.66h-2.6l-2-2.66-3.24,2.66-2.6,2.65-2.6,2.66h-2.6c-.79-.53-1.6-1.51-2.36-1.46-1,.06-1.9.93-2.84,1.46H57.67l5.21-5.31,2.6-2.66,2.6-2.65h2.6l2.6-2.66Z"/>
        <path class="cls-221" d="M55.07,82.6l2.6-5.31c3.45-.47,5.78.12,5.35,4.63-.1,1,1.59,2.22,2.46,3.33v2.66h-2.6Z"/>
        <path class="cls-222" d="M117.52,114.46V141l-2.61-2.65V114.46Z"/>
        <path class="cls-223"
              d="M83.69,167.55q1.31-2.66,2.6-5.31H91.5c.86.89,1.73,1.77,2.6,2.66h2.6c-2.63,3.47-6,5.51-10.41,5.3Z"/>
        <path class="cls-224"
              d="M114.91,138.35l2.61,2.65c-.87,2.93-1.6,5.92-2.69,8.76-.32.83-1.65,1.25-2.52,1.86l-2.6-2.65c.87-2.93,1.6-5.92,2.69-8.76C112.71,139.38,114.05,139,114.91,138.35Z"/>
        <path class="cls-225" d="M57.67,159.59c4-.43,6.79,1.11,7.81,5.31v2.65Z"/>
        <path class="cls-226" d="M112.31,151.62c-1,4.19-3.77,5.74-7.8,5.31q-1.19-6.51,5.2-5.31Z"/>
        <path class="cls-227"
              d="M65.48,167.55V164.9c3.76-.33,7.34.13,10.41,2.65v2.65c-1.89-.59-3.75-1.26-5.66-1.76C68.67,168,67.06,167.84,65.48,167.55Z"/>
        <path class="cls-228" d="M57.67,109.15l-5.2,8v-8h5.2Z"/>
        <path class="cls-229" d="M75.89,170.2v-2.65h7.8l2.6,2.65Z"/>
        <path class="cls-230" d="M109.71,103.84l5.2,5.31h-2.6C108.42,108.92,110.1,105.85,109.71,103.84Z"/>
        <path class="cls-231" d="M96.7,164.9H94.1v-2.66h5.2C98.44,163.13,97.57,164,96.7,164.9Z"/>
        <path class="cls-232" d="M57.67,109.15h-2.6v-2.66l2.6-2.65v5.31Z"/>
        <path class="cls-233" d="M104.51,156.93c-.4,2,1.29,5.08-2.61,5.31v-5.31Z"/>
        <path class="cls-191" d="M47.27,143.66c3.89.22,2.21,3.29,2.6,5.31C46,148.74,47.66,145.67,47.27,143.66Z"/>
        <path class="cls-234" d="M104.51,103.84v-2.66c2,.4,5-1.32,5.2,2.66Z"/>
        <path class="cls-191" d="M49.87,122.42h-2.6c.39-2-1.29-5.08,2.6-5.31Z"/>
        <path class="cls-235" d="M112.31,109.15h2.6v5.31C111,114.23,112.7,111.16,112.31,109.15Z"/>
        <path class="cls-191" d="M52.47,111.8v2.66h-2.6Z"/>
        <path class="cls-236" d="M114.91,114.46V111.8l2.61,2.66Z"/>
        <path class="cls-191" d="M44.66,111.8l2.61-2.65Z"/>
        <ellipse class="cls-218" cx="51.17" cy="115.78" rx="1.84" ry="1.88"/>
        <path class="cls-191" d="M55.07,106.49v2.66h-2.6Z"/>
        <path class="cls-191" d="M47.27,106.49l2.6-2.65Z"/>
        <path class="cls-191" d="M42.06,119.76l2.6-2.65Z"/>
        <path class="cls-191" d="M49.87,101.18h2.6l-2.6,2.66Z"/>
        <path class="cls-191" d="M65.48,95.87l-2.6,2.66Z"/>
        <path class="cls-191" d="M68.08,93.22l-2.6,2.65Z"/>
        <path class="cls-191" d="M73.28,90.56l-2.6,2.66C71.55,92.33,72.42,91.45,73.28,90.56Z"/>
        <path class="cls-233" d="M101.9,159.59v2.65H99.3Z"/>
        <path class="cls-128" d="M65.48,85.25l5.2-5.31V82.6C70.46,86.57,67.45,84.85,65.48,85.25Z"/>
        <path class="cls-139" d="M96.7,180.82l2.6-2.65Z"/>
        <path class="cls-237"
              d="M86.29,191.44a7.35,7.35,0,0,1-2.53-.06,9.67,9.67,0,0,1-2.22-1.73,12.33,12.33,0,0,1,2.21-.83,15.35,15.35,0,0,1,2.54,0Z"/>
        <path class="cls-217" d="M62.88,194.1h2.6v2.65Z"/>
        <ellipse class="cls-238" cx="66.78" cy="195.42" rx="1.84" ry="1.88"/>
        <path class="cls-217"
              d="M62.88,184.6c0-1.71-.66-4,.17-5s3.25-1.48,4.85-1.27c1,.13,2.68,2,2.59,2.91-.14,1.43-1.76,2.63-2.36,4.09-.83,2,1.61,5.87-2.38,6C60.58,191.43,63.75,186.92,62.88,184.6Z"/>
        <path class="cls-239"
              d="M135,115.74a60.69,60.69,0,0,1-1.72-6.84c-.07-.52,1.13-1.22,1.75-1.84,1.12,2,2.3,4.06,3.24,6.19C138.3,113.43,136.82,114.33,135,115.74Z"/>
        <path class="cls-240"
              d="M78.49,98.53h5.2c-.35,6,.1,11.84,4.51,16.47a9.39,9.39,0,0,0,2.69,1.4c.11-1.19.75-2.83.22-3.49-1.94-2.42-4.44-4.53.39-6.42l2.6,2.66c.39,2-1.29,5.08,2.6,5.31v2.65c1,2.61-2.41,6.72,2.6,8V141c-3.89.23-2.21,3.3-2.6,5.31v5.31l-2.6,2.66-7.81,8h-7.8l-2.6-2.65-2.61-2.66-2.6-2.65c-.86-.89-1.73-1.77-2.6-2.66v-5.31l-2.6-2.65V141h5.2c-1.16,4.37,3.67,5.87,4.27,8.73.91,4.28,4.22,4.53,6.61,6.28,5.7,4.15,4-3.13,6.21-4.56,3.73-2.44,5.28-9.59,2.9-12.39-1.79-2.1-4.61-3.34-7.08-4.76-3.35-1.92-3.44,2.6-5.51,3.07-2.42.54-4.93.67-7.4,1h-5.2V114.46c3.89-.23,2.21-3.3,2.6-5.31v-2.66l2.6-2.65,2.6-2.66C78,103.87,78.28,103.75,78.49,98.53Z"/>
        <path class="cls-241"
              d="M68.08,106.49v2.66c-3.89.22-2.21,3.29-2.6,5.31v5.3h-5.2v-5.3c3.47,0,2.1-2.82,2.68-4.61.42-1.26,1.65-2.25,2.52-3.36Z"/>
        <path class="cls-242"
              d="M60.28,119.76h2.6V141c-.87-1.08-2.44-2.14-2.49-3.26C60.14,131.76,60.28,125.76,60.28,119.76Z"/>
        <path class="cls-243"
              d="M65.48,106.49c-.87,1.11-2.1,2.1-2.52,3.36-.58,1.79.79,4.59-2.68,4.61-.4-2,1.29-5.09-2.61-5.31v-2.66l2.61-2.65c.94-.53,1.87-1.4,2.84-1.46.76,0,1.57.93,2.36,1.46Z"/>
        <path class="cls-244" d="M65.48,141v5.31l2.6,2.66v2.65h-2.6c-.87-1-2.3-2-2.49-3.14a49,49,0,0,1-.11-7.48Z"/>
        <path class="cls-245" d="M70.68,156.93,69,159.16l-3.48-4.88h5.2Z"/>
        <path class="cls-246" d="M49.87,117.11h2.6c-.39,2,1.29,5.08-2.6,5.31Z"/>
        <ellipse class="cls-247" cx="66.78" cy="152.95" rx="1.84" ry="1.88"/>
        <path class="cls-248" d="M70.68,156.93v-2.65l2.6,2.65Z"/>
        <path class="cls-248" d="M75.89,159.59l2.6,2.65Z"/>
        <path class="cls-236"
              d="M99.3,141v-5.31c.73-.29,2.1-.63,2.08-.88-.71-10.51,2.73-20.59,3.13-31h5.2c.39,2-1.29,5.08,2.6,5.31.39,2-1.29,5.08,2.6,5.31v23.89c-.86.61-2.2,1-2.51,1.86-1.09,2.84-1.82,5.83-2.69,8.76v2.65q-6.39-1.2-5.2,5.31H99.3c-.39-2,1.29-5.08-2.6-5.31v-5.31C100.59,146.09,98.91,143,99.3,141Z"/>
        <path class="cls-248"
              d="M91.5,106.49c-4.83,1.89-2.33,4-.39,6.42.53.66-.11,2.3-.22,3.49A9.39,9.39,0,0,1,88.2,115c-4.41-4.63-4.86-10.45-4.51-16.47l7.81,2.65Z"/>
        <path class="cls-249" d="M91.5,101.18l-7.81-2.65h-2.6V95.87C85.53,95.66,90,95.31,91.5,101.18Z"/>
        <path class="cls-248" d="M99.3,125.07c-5-1.24-1.61-5.35-2.6-8C101.71,118.35,98.31,122.46,99.3,125.07Z"/>
        <path class="cls-248" d="M96.7,114.46c-3.89-.23-2.21-3.3-2.6-5.31C98,109.37,96.31,112.44,96.7,114.46Z"/>
        <path class="cls-248" d="M94.1,109.15l-2.6-2.66Z"/>
        <path class="cls-249" d="M73.28,98.53l3.24-2.66,2,2.66Z"/>
        <ellipse class="cls-250" cx="66.78" cy="105.16" rx="1.84" ry="1.88"/>
        <path class="cls-251" d="M60.28,103.84l-2.61,2.65v-2.65Z"/>
        <path class="cls-252" d="M68.08,103.84l2.6-2.66v2.66Z"/>
        <path class="cls-252" d="M70.68,101.18l2.6-2.65v2.65Z"/>
        <path class="cls-248" d="M86.29,162.24l7.81-8v5.31l-2.6,2.65Z"/>
        <path class="cls-253" d="M94.1,162.24v2.66c-.87-.89-1.74-1.77-2.6-2.66Z"/>
        <path class="cls-254" d="M109.71,151.62V149l2.6,2.65Z"/>
        <path class="cls-255" d="M99.3,156.93h2.6v2.66l-2.6,2.65H94.1v-2.65l2.6-2.66Z"/>
        <path class="cls-256"
              d="M70.68,138.35c2.47-.31,5-.44,7.4-1,2.07-.47,2.16-5,5.51-3.07,2.47,1.42,5.29,2.66,7.08,4.76,2.38,2.8.83,9.95-2.9,12.39-2.19,1.43-.51,8.71-6.21,4.56-2.39-1.75-5.7-2-6.61-6.28-.6-2.86-5.43-4.36-4.27-8.73Z"/>
        <ellipse class="cls-248" cx="64.18" cy="126.4" rx="1.84" ry="9.39"/>
        <path class="cls-248" d="M73.28,101.18V98.53h5.21C78.28,103.75,78,103.87,73.28,101.18Z"/>
        <path class="cls-218" d="M62.88,133h2.6v8h-2.6Z"/>
        <path class="cls-248" d="M99.3,141c-.39,2,1.29,5.09-2.6,5.31C97.09,144.3,95.41,141.23,99.3,141Z"/>
        <ellipse class="cls-248" cx="68.08" cy="139.68" rx="3.68" ry="1.88"/>
        <path class="cls-248" d="M65.48,114.46c.39-2-1.29-5.09,2.6-5.31C67.69,111.16,69.37,114.23,65.48,114.46Z"/>
        <path class="cls-248" d="M68.08,103.84h2.6l-2.6,2.65Z"/>
        <path class="cls-248" d="M70.68,101.18h2.6l-2.6,2.66Z"/>
        <path class="cls-248" d="M65.48,146.31v-2.65l2.6,2.65Z"/>
        <path class="cls-218" d="M65.48,146.31h2.6V149Z"/>
        <path class="cls-248" d="M68.08,154.28v-2.66c.87.89,1.74,1.77,2.6,2.66Z"/>
        <path class="cls-248" d="M94.1,154.28l2.6-2.66Z"/>
        <path class="cls-257" d="M94.1,154.28l2.6-2.66c3.89.23,2.21,3.3,2.6,5.31H94.1Z"/>
        <path class="cls-258" d="M94.1,156.93h2.6l-2.6,2.66Z"/>
        <path class="cls-259" d="M94.1,159.59v2.65H91.5Z"/>
    </g>
</svg>