<svg id="Calque_1" data-name="Calque 1" xmlns="http://www.w3.org/2000/svg" viewBox="0 0 167.24 257.95">
    <defs>
        <style>
            .cls-1{fill:#18272a;}.cls-2{fill:#fefefe;}.cls-3{fill:#0e0e0e;}.cls-4{fill:#0f1010;}.cls-5{fill:#fbfbfc;}.cls-6{fill:#191a1a;}.cls-7{fill:#1a1b19;}.cls-8{fill:#e9f0e5;}.cls-9{fill:#adacad;}.cls-10{fill:#e0eadc;}.cls-11{fill:#c0d1ae;}.cls-12{fill:#bec7bc;}.cls-13{fill:#a8cf82;}.cls-14{fill:#c5e5b1;}.cls-15{fill:#f8f9f8;}.cls-16{fill:#61c26e;}.cls-17{fill:#45b610;}.cls-18{fill:#22b134;}.cls-19{fill:#1bb73e;}.cls-20{fill:#4fbb21;}.cls-21{fill:#5ecc49;}.cls-22{fill:#5cc44e;}.cls-23{fill:#75b846;}.cls-24{fill:#17b405;}.cls-25{fill:#5cc759;}.cls-26{fill:#49a634;}.cls-27{fill:#54bc63;}.cls-28{fill:#27b43c;}.cls-29{fill:#1fb23e;}.cls-30{fill:#45bc13;}.cls-31{fill:#27b30f;}.cls-32{fill:#41b308;}.cls-33{fill:#1db113;}.cls-34{fill:#49d363;}.cls-35{fill:#43b70f;}.cls-36{fill:#3bb606;}.cls-37{fill:#3cb400;}.cls-38{fill:#e9f7f2;}.cls-39{fill:#11be00;}.cls-40{fill:#7bcd4e;}.cls-41{fill:#63b03f;}.cls-42{fill:#63ce33;}.cls-43{fill:#42b701;}.cls-44{fill:#75bb51;}.cls-45{fill:#40ba0e;}.cls-46{fill:#80bb54;}.cls-47{fill:#4db51c;}.cls-48{fill:#94c86c;}.cls-49{fill:#85bb4d;}.cls-50{fill:#54af10;}.cls-51{fill:#48b60c;}.cls-52{fill:#58bc29;}.cls-53{fill:#5eaf43;}.cls-54{fill:#26b445;}.cls-55{fill:#6ec67d;}.cls-56{fill:#53c44b;}.cls-57{fill:#5fca38;}.cls-58{fill:#41b459;}.cls-59{fill:#3f3f3f;}.cls-60{fill:#6d6d6d;}.cls-61{fill:#78bc4e;}.cls-62{fill:#020202;}.cls-63{fill:#f6f7e6;}.cls-64{fill:#4d4c46;}.cls-65{fill:#54a746;}.cls-66{fill:#0daf28;}.cls-67{fill:#17af3e;}.cls-68{fill:#6ca96e;}.cls-69{fill:#9ed39f;}.cls-70{fill:#85c98d;}.cls-71{fill:#23b143;}.cls-72{fill:#a5e4a9;}.cls-73{fill:#00b32a;}.cls-74{fill:#89d98f;}.cls-75{fill:#6bcd42;}.cls-76{fill:#51b403;}.cls-77{fill:#43b503;}.cls-78{fill:#34b700;}.cls-79{fill:#3cb708;}.cls-80{fill:#6ac835;}.cls-81{fill:#33b600;}.cls-82{fill:#5dd71f;}.cls-83{fill:#71c277;}.cls-84{fill:#00b315;}.cls-85{fill:#3aae47;}.cls-86{fill:#4eb800;}.cls-87{fill:#2cb234;}.cls-88{fill:#16b022;}.cls-89{fill:#00b809;}.cls-90{fill:#26a600;}.cls-91{fill:#2faf2b;}.cls-92{fill:#04b523;}.cls-93{fill:#3db20e;}.cls-94{fill:#29b440;}.cls-95{fill:#14b53e;}.cls-96{fill:#65c073;}.cls-97{fill:#222321;}.cls-98{fill:#34b800;}.cls-99{fill:#40b427;}.cls-100{fill:#76d882;}.cls-101{fill:#2bb34c;}.cls-102{fill:#fdfaed;}.cls-103{fill:#6a6a6a;}.cls-104{fill:#5ccd40;}.cls-105{fill:#52ae0e;}.cls-106{fill:#7ac96f;}.cls-107{fill:#5bce6a;}.cls-108{fill:#18b64c;}.cls-109{fill:#0fb536;}.cls-110{fill:#2bac39;}.cls-111{fill:#7bcc85;}.cls-112{fill:#17b304;}.cls-113{fill:#6bc277;}.cls-114{fill:#64d05d;}.cls-115{fill:#6dc37a;}.cls-116{fill:#38ab3d;}.cls-117{fill:#01b327;}.cls-118{fill:#00b711;}.cls-119{fill:#6fd177;}.cls-120{fill:#6cc63d;}.cls-121{fill:#54b00b;}.cls-122{fill:#81d950;}.cls-123{fill:#51c943;}.cls-124{fill:#51c736;}.cls-125{fill:#21b505;}.cls-126{fill:#05bc03;}.cls-127{fill:#58d028;}.cls-128{fill:#7dcd57;}.cls-129{fill:#49b303;}.cls-130{fill:#51b115;}.cls-131{fill:#63d034;}.cls-132{fill:#42b20e;}.cls-133{fill:#40b502;}.cls-134{fill:#70c240;}.cls-135{fill:#56c631;}.cls-136{fill:#87d257;}.cls-137{fill:#67d02a;}.cls-138{fill:#2cb900;}.cls-139{fill:#00ba00;}.cls-140{fill:#8fd299;}.cls-141{fill:#5fc26a;}.cls-142{fill:#60c272;}.cls-143{fill:#75d388;}.cls-144{fill:#08b220;}.cls-145{fill:#2fb207;}.cls-146{fill:#02b426;}.cls-147{fill:#50c440;}.cls-148{fill:#31ad13;}.cls-149{fill:#60c45f;}.cls-150{fill:#0fb401;}.cls-151{fill:#61c768;}.cls-152{fill:#65db7d;}.cls-153{fill:#82db7c;}.cls-154{fill:#101010;}.cls-155{fill:#bfe1bf;}.cls-156{fill:#acdaaf;}.cls-157{fill:#38b856;}.cls-158{fill:#a9d9ab;}.cls-159{fill:#77c781;}.cls-160{fill:#59cd6a;}.cls-161{fill:#42b301;}.cls-162{fill:#40b404;}.cls-163{fill:#3faf10;}.cls-164{fill:#65ce2f;}.cls-165{fill:#56c54c;}.cls-166{fill:#52ae12;}.cls-167{fill:#79d948;}.cls-168{fill:#44bb60;}.cls-169{fill:#4eba61;}.cls-170{fill:#34ae3c;}.cls-171{fill:#7fd48d;}.cls-172{fill:#88e28b;}.cls-173{fill:#6ad571;}.cls-174{fill:#5ccd62;}.cls-175{fill:#61cb6b;}.cls-176{fill:#5fce44;}.cls-177{fill:#57cf37;}.cls-178{fill:#78c783;}.cls-179{fill:#30af14;}.cls-180{fill:#65bf72;}.cls-181{fill:#0bb850;}.cls-182{fill:#4fc03f;}.cls-183{fill:#79e17c;}.cls-184{fill:#9ad486;}.cls-185{fill:#76c886;}.cls-186{fill:#6ec576;}.cls-187{fill:#a4d8a6;}.cls-188{fill:#acd9ac;}.cls-189{fill:#5cc572;}.cls-190{fill:#0d0d0d;}.cls-191{fill:#20b44d;}.cls-192{fill:#37b604;}.cls-193{fill:#61c460;}.cls-194{fill:#56bd6c;}.cls-195{fill:#14af2a;}.cls-196{fill:#40a533;}.cls-197{fill:#8dcd93;}.cls-198{fill:#6dc47b;}.cls-199{fill:#80d88d;}.cls-200{fill:#98dea0;}.cls-201{fill:#8ddd87;}.cls-202{fill:#3ab403;}.cls-203{fill:#27b900;}.cls-204{fill:#5fc934;}.cls-205{fill:#75d240;}.cls-206{fill:#00b208;}.cls-207{fill:#63cb64;}.cls-208{fill:#2bae0f;}.cls-209{fill:#7bd853;}.cls-210{fill:#3eba29;}.cls-211{fill:#67d735;}.cls-212{fill:#5ac439;}.cls-213{fill:#20b900;}.cls-214{fill:#65ce38;}.cls-215{fill:#5bca34;}.cls-216{fill:#03b603;}.cls-217{fill:#eff4ee;}.cls-218{fill:#54b76e;}.cls-219{fill:#71c87c;}.cls-220{fill:#4bc34a;}.cls-221{fill:#5dbf63;}.cls-222{fill:#78e25c;}.cls-223{fill:#8fe39f;}.cls-224{fill:#40be65;}.cls-225{fill:#59b966;}.cls-226{fill:#d1eace;}.cls-227{fill:#5fc270;}.cls-228{fill:#31b152;}.cls-229{fill:#09b64d;}.cls-230{fill:#5ac972;}.cls-231{fill:#59d475;}.cls-232{fill:#67cf48;}.cls-233{fill:#2ab203;}.cls-234{fill:#2ead33;}.cls-235{fill:#1db01e;}.cls-236{fill:#29ae35;}.cls-237{fill:#04b540;}.cls-238{fill:#29b316;}.cls-239{fill:#76d37f;}.cls-240{fill:#84d891;}.cls-241{fill:#56cf5b;}.cls-242{fill:#04b21f;}.cls-243{fill:#d9ecd5;}.cls-244{fill:#f6f8f5;}.cls-245{fill:#e3eee3;}.cls-246{fill:#7edd86;}.cls-247{fill:#b7dfb4;}.cls-248{fill:#10b13c;}.cls-249{fill:#57d16e;}.cls-250{fill:#50c22b;}.cls-251{fill:#14b00f;}.cls-252{fill:#37af24;}.cls-253{fill:#1b171a;}.cls-254{fill:#40403f;}.cls-255{fill:#3b353b;}.cls-256{fill:#434244;}.cls-257{fill:#85dd87;}.cls-258{fill:#d3ebd6;}.cls-259{fill:#48424a;}.cls-260{fill:#382f39;}.cls-261{fill:#110812;}
        </style>
    </defs>
    <g id="SU1LTR.tif">
        <path class="cls-1" d="M166,7.93V249.86h-5.13V7.93H166Z"/>
        <path class="cls-2"
              d="M6.9,257.66a23.39,23.39,0,0,1-3.84,0c-1.59-.28-4.68,1.6-3.9-2.57a21,21,0,0,0,0-3.89V6.63c0-2.17-.51-6,.09-6.21C1.64-.3,4.33.13,6.9.13L4.33,7.93c-5,.91-2.44,4.88-2.44,7.26q-.22,113.7-.11,227.41a39.28,39.28,0,0,0,.46,6.32c.07.42,1.36.63,2.09.94.39,2-1.27,5,2.57,5.2Z"/>
        <path d="M6.9,257.66v-2.6H160.82v2.6Z"/>
        <ellipse cx="83.86" cy="1.43" rx="105.21" ry="1.84"/>
        <path class="cls-2" d="M166,7.93h-2.56c-.86-2.6-1.71-5.2-2.57-7.8C166,.25,166,.25,166,7.93Z"/>
        <path class="cls-3" d="M160.82.13c.86,2.6,1.71,5.2,2.57,7.8h-2.57l-2.56-2.6V.13Z"/>
        <path class="cls-2"
              d="M160.82,257.66v-2.6c3.84-.22,2.18-3.23,2.57-5.2H166a12.43,12.43,0,0,0,0,2.59C167,257,165.27,258.7,160.82,257.66Z"/>
        <path class="cls-4" d="M9.46.13v5.2L6.9,7.93H4.33L6.9.13Z"/>
        <path class="cls-5"
              d="M6.9,7.93l2.56-2.6h7.7v2.6l-2.57,2.6c-.85,1.08-2.43,2.15-2.45,3.25-.2,9.32-.11,18.64-.11,28v195.1l-2.57,2c.86,1.07,1.71,2.15,2.57,3.23v2.6l2.56,2.6c2.58,3.57,5.12,3.57,7.7,0H37.68c2.58,3.57,5.12,3.57,7.7,0H78.73a16.21,16.21,0,0,0,18,0H107l.84,2.16,1.72-2.16h18c2.58,3.57,5.12,3.57,7.7,0H148c2.58,3.57,5.12,3.57,7.7,0V213.44l2.13-.86-2.13-1.74V195.23l2.57-2L155.69,190V10.53l-2.56-2.6h-2.57V5.33h7.7l2.56,2.6V249.86l-2.56,2.6H9.46l-2.56-2.6Z"/>
        <path class="cls-6" d="M158.26,252.46l2.56-2.6h2.57c-.39,2,1.27,5-2.57,5.2h-2.56Z"/>
        <path class="cls-1"
              d="M6.9,7.93V249.86H4.33c-.73-.31-2-.52-2.09-.94a39.28,39.28,0,0,1-.46-6.32q0-113.71.11-227.41c0-2.38-2.55-6.35,2.44-7.26Z"/>
        <path class="cls-7" d="M4.33,249.86H6.9l2.56,2.6v2.6H6.9C3.06,254.84,4.72,251.83,4.33,249.86Z"/>
        <ellipse class="cls-8" cx="83.86" cy="253.76" rx="105.21" ry="1.84"/>
        <path class="cls-9" d="M158.26,5.33H9.46V2.73h148.8Z"/>
        <path class="cls-10" d="M160.82,7.93l-2.56-2.6Z"/>
        <path class="cls-11"
              d="M155.69,195.23v49.42h-2.56v-13c0-5.88.13-11.75-.12-17.62,0-1.1-1.6-2.13-2.45-3.19,2.43-3.07,2.87-6.65,2.57-10.41-.86-.87-1.72-1.73-2.57-2.6v-2.6c3.84-.22,2.18-3.23,2.57-5.21V10.53h2.56v184.7Z"/>
        <path class="cls-12"
              d="M12,236.85V41.75l2.56,2.6c.12,4.92-1.13,10.18,4.22,13.61.9.57.64,3,.91,4.6-3-.18-5.84-.37-5.18,4.22A42.45,42.45,0,0,1,14.59,73V244.65H12v-7.8Z"/>
        <path class="cls-13"
              d="M78.73,247.25H14.59v-2.6H94.12c.86-.86,1.71-1.73,2.57-2.6h15.39c.22,3.89,3.18,2.21,5.13,2.6h35.92v2.6H78.73Z"/>
        <path class="cls-10" d="M17.16,5.33h133.4v2.6H17.16Z"/>
        <path class="cls-14" d="M76.16,7.93h77v2.6H78.73Z"/>
        <path class="cls-14"
              d="M14.59,44.35,12,41.75c0-9.33-.09-18.65.11-28,0-1.1,1.6-2.17,2.45-3.25V31.34c0,.81-.05,1.62,0,2.42.13,1.55.34,3.08.52,4.63l4.59-1.85C20.14,40.58,18.64,43.33,14.59,44.35Z"/>
        <path class="cls-14" d="M17.16,7.93h18v2.6H14.59Z"/>
        <path class="cls-8" d="M78.73,247.25h18A16.21,16.21,0,0,1,78.73,247.25Z"/>
        <path class="cls-8" d="M37.68,247.25h7.7C42.8,250.82,40.26,250.82,37.68,247.25Z"/>
        <path class="cls-8" d="M14.59,247.25h7.7C19.71,250.82,17.17,250.82,14.59,247.25Z"/>
        <path class="cls-8" d="M127.47,247.25h7.7C132.59,250.82,130.05,250.82,127.47,247.25Z"/>
        <path class="cls-8" d="M148,247.25h7.7C153.11,250.82,150.57,250.82,148,247.25Z"/>
        <path class="cls-10" d="M155.69,195.23V190l2.57,3.24Z"/>
        <path class="cls-8" d="M12,236.85v5.2c-.86-1.08-1.71-2.16-2.57-3.23Z"/>
        <path class="cls-10" d="M155.69,213.44v-2.6l2.13,1.74Z"/>
        <path class="cls-10" d="M153.13,10.53V7.93l2.56,2.6Z"/>
        <path class="cls-8" d="M14.59,244.65v2.6L12,244.65Z"/>
        <ellipse class="cls-10" cx="154.41" cy="245.95" rx="1.81" ry="1.84"/>
        <path class="cls-8" d="M107,247.25h2.56l-1.72,2.16Z"/>
        <path class="cls-15"
              d="M107,242.05h-7.7c-1.06-.87-2.2-1.66-3.17-2.62a21.88,21.88,0,0,1-2-2.58c-1-.87-2-2.37-3.08-2.48a93.15,93.15,0,0,0-9.75-.12H78.73V216c.85-2.6,1.71-5.2,2.56-7.81l5.13-5.2v-2.6l12.83-7.8,7.7-5.21h5.13l2.56-2.6H140.3c.22,3.89,3.18,2.21,5.13,2.6.85,1.74,1.71,3.47,2.56,5.21.39,2-1.27,5,2.57,5.2.85.87,1.71,1.73,2.57,2.6.3,3.76-.14,7.34-2.57,10.41-.86,2.6-1.71,5.2-2.57,7.8l-2.56,2.6c-3.84.22-2.18,3.23-2.57,5.2q-3.33,2.75-6.68,5.47c-2,1.66-4.09,3.29-6.14,4.94H117.21c-1.83-5.54-6.18-1.32-9.16-2.39-.17-.06-.86.73-.81.81.36.57.8,1.47,1.28,1.51,2,.16,4.08.07,6.12.07,0,3.48-2.71,2.1-4.44,2.69C109,240,108,241.18,107,242.05Zm15.39-26V200.43c3-.88,5.66-2.71,5-6s-4.15-1.51-6.37-1.76a39.57,39.57,0,0,0-7.54,0c-.48,0-1.29,1.28-1.22,1.88.14,1.11.54,2.66,1.33,3.1,1,.54,2.45.13,3.71.13,0,8.46-.09,16.92.11,25.37,0,1.1,1.6,2.16,2.45,3.24h2.57c4.23.93,1.18-7.25,6.32-5.2,0-.87.36-2.33,0-2.5C126.66,217.68,124.47,216.91,122.34,216Z"/>
        <path class="cls-16"
              d="M153.13,112v20.81l-7.7,2.61h-2.57l-2.56-2.61q-3.86-5.19-7.7-10.4V106.78c.86,1.1,2.31,2.12,2.47,3.31,1,7.08.85,7.09,7.78,7.1,1.69,0,3.38,0,5.06,0,2-.05,3.05-.41,1.36-2.68-3.13-4.2-6-8.6-9-12.92h2.56l5.13,2.6v2.6Q150.55,109.39,153.13,112Z"/>
        <path class="cls-17"
              d="M107,10.53h46.18v52h-2.57a98.77,98.77,0,0,0-.12-9.89c-.11-1.11-1.59-2.08-2.45-3.12V47c.86-1.05,2.37-2.05,2.45-3.15.3-4.14.12-8.3.12-12.46,1.57-3.17-4.1-6.13-.27-9.37-2.31-4.09-6.2-3.73-10-3.63l-2.57-2.61c-1-.86-2-2.4-3.11-2.48-4.07-.3-8.18-.12-12.28-.12H107Z"/>
        <path class="cls-18"
              d="M145.43,135.4l7.7-2.61v36.42h-2.57c0-4.15.18-8.32-.12-12.45-.08-1.11-1.59-2.11-2.45-3.15q-1.28-7.81-2.56-15.61Z"/>
        <path class="cls-19"
              d="M153.13,86v20.81h-2.57c-1-2.56,2.38-6.58-2.57-7.8-.77-.52-1.57-1.48-2.32-1.43-1,0-1.87.91-2.81,1.43.06-2.22-4.25-4.32-.07-6.77.54-.31.07-2.38.07-3.64l2.57-2.6,2.56-2.6Z"/>
        <path class="cls-20"
              d="M153.13,244.65H142.86c2.57-2.27,5.19-4.48,7.64-6.87.37-.37.11-1.68-.21-2.39-.15-.34-1.22-.57-1.7-.39-3.64,1.42-7.24,2.95-10.86,4.45-.43-3.25.37-4.84,4.11-5.75,4.17-1,3.09-4.44,1-7.26H148c.86.87,1.71,1.74,2.57,2.6l2.57,2.61Z"/>
        <path class="cls-21"
              d="M150.56,169.21h2.57v5.21a12.53,12.53,0,0,0,0,15.6c-.39,2,1.27,5-2.57,5.21-.86-.87-1.71-1.74-2.57-2.6-.85-1.74-1.71-3.47-2.56-5.21l2.56-2.6V177l-5.13-7.81H148l.85,2.16Z"/>
        <path class="cls-22"
              d="M150.56,62.56h2.57v7.8c-.71-.28-1.75-.36-2-.87a30.83,30.83,0,0,1-1.72-4.24,19,19,0,0,0-1.3,4.22c-.21,2.89-.07,5.8-.07,8.7h-2.56c.24-5.13-.24-10-5.13-13v-2.6h10.26Z"/>
        <path class="cls-23"
              d="M153.13,231.65,150.56,229c-.86-.86-1.71-1.73-2.57-2.6h-2.56v-5.2l2.56-2.6,2.57-7.8c.85,1.06,2.4,2.09,2.45,3.19C153.26,219.9,153.13,225.77,153.13,231.65Z"/>
        <path class="cls-24"
              d="M148,78.17c0-2.9-.14-5.81.07-8.7a19,19,0,0,1,1.3-4.22,30.83,30.83,0,0,0,1.72,4.24c.3.51,1.34.59,2,.87V80.77C151.18,80.38,148.21,82.06,148,78.17Z"/>
        <path class="cls-25"
              d="M148,78.17c.22,3.89,3.19,2.21,5.14,2.6V86L148,83.37H140.3v-2.6c1.94-.39,4.91,1.29,5.13-2.6Z"/>
        <path class="cls-26" d="M153.13,190a12.53,12.53,0,0,1,0-15.6Z"/>
        <path class="cls-27" d="M150.56,106.78h2.57V112q-2.58-2.6-5.14-5.2Z"/>
        <path class="cls-10" d="M148,192.63c.86.86,1.71,1.73,2.57,2.6v2.6C146.72,197.61,148.38,194.6,148,192.63Z"/>
        <path class="cls-10" d="M153.13,200.43c-.86-.87-1.72-1.73-2.57-2.6C151.41,198.7,152.27,199.56,153.13,200.43Z"/>
        <path class="cls-15"
              d="M14.59,44.35c4.05-1,5.55-3.77,5.13-7.81v-5.2l7.7-7.8c1.84-.57,4.14-.62,5.44-1.8,3.64-3.32,7.46-5.89,12.52-6l2.56-2.6H78.73l2.56,2.6h2.57l2.56,2.61c.86,1.73,1.71,3.46,2.57,5.2v7.8q-1.29,6.51-2.57,13c-3.68.92-4.32,4.22-6,7-1.44,2.49-4.51,4-6.86,6-5.85-.06-8.78,4.81-12.83,7.8a44.67,44.67,0,0,0-7.23.12c-1.11.18-2,1.61-3,2.48H30l-7.7-5.2H19.72c-.27-1.58,0-4-.91-4.6C13.46,54.53,14.71,49.27,14.59,44.35Zm30.79,10.4a3.3,3.3,0,0,0-1.26,0c-1.31.6-2.58,1.29-3.87,1.95.88,1.08,1.67,3,2.64,3.08a83.1,83.1,0,0,0,11.38.06c.48,0,1.34-1.26,1.28-1.84-.13-1.13-.52-2.69-1.32-3.15-1-.54-2.46-.13-3.72-.13,0-7.72.11-15.44-.13-23.16,0-1-1.73-2.34-2.92-2.76a4.89,4.89,0,0,0-6.21,3c-1.52,3.58,2.84,1.06,3.33,2.66a18.36,18.36,0,0,1,.76,4.82C45.44,44.46,45.38,49.61,45.38,54.75Zm13-33.45,12.23-1.22c-3.74-3.43-8.27-1.35-12.4-1.62s-8.24.44-12.37.73C49.54,22.77,54.16,19.82,58.36,21.3Z"/>
        <path class="cls-28"
              d="M14.59,190V119.79h2.57V138l5.13,5.2v10.41H19.72l-.84-2.16-1.72,2.16c0,4.15-.18,8.32.12,12.45.07,1.1,1.59,2.11,2.44,3.15v2.6c-.85,1-2.27,1.95-2.45,3.08a47.11,47.11,0,0,0-.11,7.33C16.18,184.78,19.54,188.8,14.59,190Z"/>
        <path class="cls-29"
              d="M14.59,117.19V73c.86,1.08,2.52,2.21,2.44,3.21-.58,7.39,3.31,2,5.26,2V86c-5-2.78-5-2.78-5.13,2.9,0,1.64,0,3.27,0,4.9L19.72,99c.86,1.73,1.71,3.47,2.57,5.2v13Z"/>
        <path class="cls-30"
              d="M14.59,236.85V195.23c.86.6,2.17,1,2.49,1.82,1.07,2.79,1.79,5.71,2.64,8.58,3.38,3.83,2.5,8.51,2.57,13v7.8c-3.42-.46-5.59.15-5.26,4.56C17.18,233,18.83,236.42,14.59,236.85Z"/>
        <path class="cls-31"
              d="M19.72,205.63c-.85-2.87-1.57-5.79-2.64-8.58-.32-.81-1.63-1.22-2.49-1.82V190c4.95-1.22,1.59-5.24,2.57-7.8h2.56c.22,2.26-1.13,5.39,3.18,5.33.64,0,1.3,1.61,2,2.47.38,2-1.28,5,2.56,5.21L24.86,203Z"/>
        <path class="cls-32"
              d="M14.59,236.85c4.24-.43,2.59-3.85,2.44-5.85-.33-4.41,1.84-5,5.26-4.56v7.81c-.86,1.09-2.54,2.28-2.41,3.24.41,3.14,3.16,1.61,5,2v5.2H14.59Z"/>
        <path class="cls-33"
              d="M22.29,78.17c-1.95,0-5.84,5.39-5.26-2,.08-1-1.58-2.13-2.44-3.21a42.45,42.45,0,0,0-.05-6.18c-.66-4.59,2.21-4.4,5.18-4.22h2.57Z"/>
        <path class="cls-34"
              d="M14.59,117.19H24.86v2.6a18.33,18.33,0,0,1-.06,3.71,24,24,0,0,1-1.48,3.84c-.34-1.1-1.1-2.26-1-3.28.64-4.57-2.16-4.5-5.2-4.27H14.59Z"/>
        <path class="cls-35"
              d="M78.73,234.25h2.56c.86,1.73,1.71,3.47,2.57,5.2v5.2H55.64c.22-3.89,3.19-2.21,5.13-2.6l5.13-7.8v-2.6C70.33,231.72,75,230.83,78.73,234.25Z"/>
        <path class="cls-36" d="M45.38,244.65h-18v-7.8h18Z"/>
        <path class="cls-37"
              d="M60.77,242.05c-1.94.39-4.91-1.29-5.13,2.6H53.07c-.21-3.89-3.18-2.21-5.13-2.6v-5.2c2.93-.08,7.19.78,2.65-4.25-.59-.66-.08-2.34-.08-3.56h7.7c1,2.56-2.38,6.59,2.56,7.81Z"/>
        <path class="cls-38"
              d="M117.21,236.85h10.26v2.6c-2.52,1-6.49-2.41-7.7,2.6H107c1.07-.87,2-2.1,3.25-2.51,1.73-.59,4.43.79,4.44-2.69Z"/>
        <path class="cls-39"
              d="M137.73,239.45c3.62-1.5,7.22-3,10.86-4.45.48-.18,1.55.05,1.7.39.32.71.58,2,.21,2.39-2.45,2.39-5.07,4.6-7.64,6.87H140.3C139.44,242.92,138.59,241.18,137.73,239.45Z"/>
        <path class="cls-38"
              d="M94.12,236.85a21.88,21.88,0,0,0,2,2.58c1,1,2.11,1.75,3.17,2.62H94.12l-7.7-2.6C87.63,234.44,91.6,237.84,94.12,236.85Z"/>
        <path class="cls-40" d="M47.94,236.85v7.8H45.38V229h2.56Z"/>
        <path class="cls-20" d="M137.73,239.45c.86,1.73,1.71,3.47,2.57,5.2H127.47v-2.6c2.53-1,6.49,2.41,7.7-2.6Z"/>
        <path class="cls-41" d="M86.42,239.45l7.7,2.6v2.6H83.86v-5.2Z"/>
        <path class="cls-42" d="M27.42,236.85v7.8H24.86v-10.4l2.56-2.6Z"/>
        <ellipse class="cls-43" cx="123.62" cy="243.35" rx="5.44" ry="1.84"/>
        <path class="cls-44" d="M112.08,242.05h5.13v2.6C115.26,244.26,112.3,245.94,112.08,242.05Z"/>
        <path class="cls-45" d="M47.94,244.65v-2.6c2,.39,4.92-1.29,5.13,2.6Z"/>
        <path class="cls-46" d="M94.12,244.65v-2.6h2.57C95.83,242.92,95,243.79,94.12,244.65Z"/>
        <ellipse class="cls-47" cx="118.49" cy="243.35" rx="1.81" ry="1.84"/>
        <path class="cls-48"
              d="M58.21,13.13h-7.7c-1-.86-2-2.4-3.11-2.48-4.08-.3-8.19-.12-12.28-.12V7.93H65.9c-1.07.87-2,2.1-3.25,2.51C60.92,11,58.22,9.65,58.21,13.13Z"/>
        <path class="cls-14" d="M58.21,13.13c0-3.48,2.71-2.1,4.44-2.69C63.88,10,64.83,8.8,65.9,7.93h7.7L71,13.13Z"/>
        <path class="cls-49" d="M71,13.13l2.57-5.2h2.56l2.57,2.6v2.6Z"/>
        <path class="cls-50"
              d="M78.73,13.13v-2.6h25.65v2.6c.26,2.19-1.17,5.32,3,5.22s8.24,0,12.35,0h2.57v7.8h-2.57c-.58-1.74-1-4.91-1.76-5-4.66-.4-9.53-1-13.63,2.37h-2.56v-5.2c-.6-1.74-1.16-5-1.79-5-5.47-.11-11.26-1.56-16.17,2.36H81.29Z"/>
        <ellipse class="cls-49" cx="105.67" cy="11.83" rx="1.81" ry="1.84"/>
        <path class="cls-51"
              d="M35.12,10.53c4.09,0,8.2-.18,12.28.12,1.09.08,2.08,1.62,3.11,2.48H47.94l-2.56,2.6c-5.06.12-8.88,2.69-12.52,6-1.3,1.18-3.6,1.23-5.44,1.8-1.25,0-3.26-.5-3.62.08-3.23,5.12-6.18,1.19-9.21-.08v-13Zm-10.26,5.2c-1.82.36-4.63-1.2-5.07,2-.59,4.34,2.82,3,5.07,3.24,1.31-.87,2.58-2.37,3.95-2.47,2.43-.16,4.25-.56,3.69-3.42-.61-3.08-3.26-1.58-5.08-1.92Z"/>
        <path class="cls-52" d="M14.59,23.54c3,1.27,6,5.2,9.21.08.36-.58,2.37-.08,3.62-.08l-7.7,7.8H14.59Z"/>
        <path class="cls-53"
              d="M14.59,31.34h5.13v5.2l-4.59,1.85c-.18-1.55-.39-3.08-.52-4.63C14.54,33,14.59,32.15,14.59,31.34Z"/>
        <path class="cls-54"
              d="M140.3,184.82H114.64c-.85-2.6-1.71-5.2-2.56-7.8l5.13-2.6a45.85,45.85,0,0,1,7.23.11c1.11.19,2,1.62,3,2.49l-4.51.67c1.25.82,2.57,1.55,3.73,2.48,1.4,1.13,2.85,3.58,3.35-.55h2.56l2.57,2.6h5.13Z"/>
        <path class="cls-55"
              d="M112.08,177c.85,2.6,1.71,5.2,2.56,7.8l-2.56,2.6c-.65-.86-1.29-1.73-1.94-2.6l-3.19,2.6-7.7,5.21c-.85-1.74-1.71-3.47-2.56-5.21S95,184,94.12,182.22c1.81-.53,3.62-1.5,5.43-1.48s3.86,1.06,5.83,1.46c4.52.91,4.27-2.21,4.13-5.18Z"/>
        <path class="cls-56"
              d="M86.42,203l-5.13,5.2-2.56-2.6q-6.3-1.19-5.13,5.21c-1-1.43-2.33-4.2-2.88-4.05-1.92.54-3.47,2.31-5.35,3.18-1.38.64-3.06.6-4.6.87v-2.61c5.13-5.61,5.13-5.61,5.13-10.4H71c-.17,3-.36,5.93,4.17,5.25a41.22,41.22,0,0,1,6.09-.05Z"/>
        <path class="cls-57"
              d="M78.73,234.25c-3.77-3.42-8.4-2.53-12.83-2.6V229c7.6-.25,7.61-.25,7.7-7.91,0-.83,0-1.66,0-2.49v-7.8h2.56c.39,2-1.27,5,2.57,5.2Z"/>
        <path class="cls-58"
              d="M96.69,187.42c.85,1.74,1.71,3.47,2.56,5.21l-12.83,7.8-2.56-2.6v-2.6l2.56-2.6L89,190c.86-.86,1.71-1.73,2.57-2.6Z"/>
        <path class="cls-59"
              d="M119.77,226.44c-.85-1.08-2.42-2.14-2.45-3.24-.2-8.45-.11-16.91-.11-25.37l2.56-2.6v31.21Z"/>
        <path class="cls-60"
              d="M119.77,195.23l-2.56,2.6c-1.26,0-2.74.41-3.71-.13-.79-.44-1.19-2-1.33-3.1-.07-.6.74-1.85,1.22-1.88a39.57,39.57,0,0,1,7.54,0c2.22.25,5.65-1.63,6.37,1.76s-2,5.1-5,6C122,198.46,123.61,195.45,119.77,195.23Z"/>
        <path class="cls-61"
              d="M137.73,239.45h-2.56c-.22-3.89-3.19-2.21-5.13-2.6,2.05-1.65,4.1-3.28,6.14-4.94q3.36-2.72,6.68-5.47c2.07,2.82,3.15,6.25-1,7.26C138.1,234.61,137.3,236.2,137.73,239.45Z"/>
        <path class="cls-62" d="M119.77,226.44v-26h2.57v26Z"/>
        <path class="cls-63"
              d="M86.42,239.45H83.86c-.86-1.73-1.71-3.47-2.57-5.2a93.15,93.15,0,0,1,9.75.12c1.1.11,2.06,1.61,3.08,2.48C91.6,237.84,87.63,234.44,86.42,239.45Z"/>
        <path class="cls-64"
              d="M122.34,226.44V216c2.13.87,4.32,1.64,6.35,2.7.33.17,0,1.63,0,2.5C123.52,219.19,126.57,227.37,122.34,226.44Z"/>
        <path class="cls-65"
              d="M78.73,216c-3.84-.22-2.18-3.23-2.57-5.2l2.57-5.21,2.56,2.6C80.44,210.84,79.58,213.44,78.73,216Z"/>
        <path class="cls-63"
              d="M117.21,236.85h-2.57c-2,0-4.09.09-6.12-.07-.48,0-.92-.94-1.28-1.51,0-.08.64-.87.81-.81C111,235.53,115.38,231.31,117.21,236.85Z"/>
        <path class="cls-66" d="M140.3,184.82v-2.6l7.69,2.6-2.56,2.6C143.48,187,140.52,188.71,140.3,184.82Z"/>
        <path class="cls-20" d="M130,236.85c1.94.39,4.91-1.29,5.13,2.6h-7.7v-2.6Z"/>
        <path class="cls-67" d="M83.86,197.83l2.56,2.6V203H81.29Z"/>
        <path class="cls-68" d="M107,187.42l3.19-2.6c.65.87,1.29,1.74,1.94,2.6Z"/>
        <path class="cls-61" d="M145.43,221.24v5.2h-2.57C143.25,224.47,141.59,221.46,145.43,221.24Z"/>
        <path class="cls-61" d="M148,218.64l-2.56,2.6Z"/>
        <path class="cls-69"
              d="M132.6,119.79v2.6l-5.13,2.6c-.27-.7-.51-2-.8-2-5.54-.23-9.84-3.58-14.59-5.78.62-4.62,1.2-8.83,6.63-11,2.6-1,4.16-4.74,6.2-7.23H130v2.6c0,5-.15,10,.11,15C130.21,117.71,131.75,118.73,132.6,119.79Z"/>
        <path class="cls-27"
              d="M130,101.58V99l5.13-2.6,2.56,2.6c.86.86,1.71,1.73,2.57,2.6,3,4.32,5.84,8.72,9,12.92,1.69,2.27.65,2.63-1.36,2.68-1.68,0-3.37,0-5.06,0-6.93,0-6.83,0-7.78-7.1-.16-1.19-1.61-2.21-2.47-3.31C132.22,104.81,133.87,101.8,130,101.58Z"/>
        <path class="cls-70"
              d="M127.47,125l5.13-2.6q3.85,5.2,7.7,10.4c-3-.73-7.94,2.65-8-4.1,0-.38-2.16-1.21-3.07-1-.76.22-1.48,1.67-1.65,2.67a30.72,30.72,0,0,0-.07,5h-2.56a47.09,47.09,0,0,1,.11-7.33C125.2,126.94,126.62,126,127.47,125Z"/>
        <path class="cls-71"
              d="M140.3,101.58c-.86-.87-1.71-1.74-2.57-2.6V91.17l5.13-2.6c0,1.26.47,3.33-.07,3.64-4.18,2.45.13,4.55.07,6.77v2.6Z"/>
        <path class="cls-72"
              d="M130,101.58c3.83.22,2.18,3.23,2.56,5.2v13c-.85-1.06-2.39-2.08-2.45-3.18C129.89,111.61,130,106.59,130,101.58Z"/>
        <path class="cls-27" d="M142.86,101.58V99c.94-.52,1.85-1.38,2.81-1.43.75,0,1.55.91,2.32,1.43v5.2Z"/>
        <path class="cls-73" d="M148,104.18V99c4.95,1.22,1.59,5.24,2.57,7.8H148Z"/>
        <ellipse class="cls-74" cx="144.15" cy="136.7" rx="1.81" ry="1.84"/>
        <path class="cls-74" d="M140.3,132.79l2.56,2.61Z"/>
        <path class="cls-75"
              d="M148,47v2.6l-5.13,2.6c-.32-7.7-.32-7.71-6.7-7.79-2.9,0-5.79,0-8.69,0h-2.56A47.11,47.11,0,0,1,125,37c.18-1.13,1.6-2.06,2.45-3.08.33,7.7.33,7.72,6.71,7.8,2.89,0,5.79,0,8.68,0h2.57C145.82,43.72,144.16,46.73,148,47Z"/>
        <path class="cls-76"
              d="M140.3,18.34c3.79-.1,7.68-.46,10,3.63-3.83,3.24,1.84,6.2.27,9.37H148c-1-4.11-3.71-5.62-7.69-5.2Z"/>
        <path class="cls-77"
              d="M148,31.34h2.57c0,4.16.18,8.32-.12,12.46-.08,1.1-1.59,2.1-2.45,3.15-3.83-.22-2.17-3.23-2.56-5.2a47.11,47.11,0,0,1,.11-7.33C145.72,33.29,147.14,32.36,148,31.34Z"/>
        <path class="cls-78" d="M122.34,13.13c4.1,0,8.21-.18,12.28.12,1.09.08,2.08,1.62,3.11,2.48v2.61H122.34Z"/>
        <path class="cls-79" d="M104.38,13.13h15.39v5.21c-4.11,0-8.23-.08-12.35,0S104.64,15.32,104.38,13.13Z"/>
        <path class="cls-80"
              d="M137.73,18.34V15.73l2.57,2.61v7.8c-3.71-.31-7.24.14-10.26,2.6v-2.6c1.08-.87,2.23-2.56,3.22-2.46C137.61,24.12,138.18,21.78,137.73,18.34Z"/>
        <path class="cls-81"
              d="M150.56,62.56H148c0-2.23-4-4.16-.14-6.9,1-.71.14-4,.14-6.11.86,1,2.34,2,2.45,3.12A98.77,98.77,0,0,1,150.56,62.56Z"/>
        <ellipse class="cls-82" cx="121.06" cy="15.73" rx="1.81" ry="3.68"/>
        <path class="cls-83"
              d="M142.86,138h2.57q1.27,7.8,2.56,15.61l-5.13,2.6-2.56,2.6c-2-.39-4.91,1.29-5.13-2.6l2.22-1.65c-2.8-1.05-5.79-3-7.35,1.65h-2.57v-13c3.33-2.52,7.09-3,11.12-2.65C140.41,140.7,142.87,141.29,142.86,138Z"/>
        <path class="cls-84"
              d="M148,169.21h-2.56c2.43-3.07,2.87-6.64,2.56-10.4v-5.2c.86,1,2.37,2,2.45,3.15.3,4.13.12,8.3.12,12.45Z"/>
        <path class="cls-85" d="M142.86,88.57l-5.13,2.6V86l2.57-2.6H148L145.43,86Z"/>
        <path class="cls-71" d="M142.86,88.57l2.57-2.6Z"/>
        <path class="cls-86" d="M148,226.44c.86.87,1.71,1.74,2.57,2.6C149.7,228.18,148.85,227.31,148,226.44Z"/>
        <path class="cls-87"
              d="M135.17,182.22l-2.57-2.6c.86-2.6,1.71-5.2,2.57-7.81l2.56-2.6h5.13L148,177c-3.27,0-6.55,0-9.83,0C134,176.91,135.44,180.06,135.17,182.22Z"/>
        <path class="cls-66"
              d="M135.17,182.22c.27-2.16-1.19-5.31,3-5.22,3.28.07,6.56,0,9.83,0v2.6c-2.52,1-6.49-2.41-7.69,2.6Z"/>
        <path class="cls-88" d="M148,158.81c.31,3.76-.13,7.33-2.56,10.4h-2.57v-7.8Z"/>
        <path class="cls-89" d="M140.3,182.22c1.2-5,5.17-1.61,7.69-2.6v5.2Z"/>
        <path class="cls-90" d="M148,169.21h2.57l-1.72,2.16Z"/>
        <path class="cls-91"
              d="M140.3,65.16c4.89,3,5.37,7.88,5.13,13-2,.39-4.91-1.29-5.13,2.6h-2.57c-1.71-2-3.37-4-5.15-5.86A19.64,19.64,0,0,0,130,73v-2.6c.38-2-1.28-5,2.56-5.2-.85,3.45,1,5.81,3.55,7.34,1.85,1.12,4.07.94,4.14-2.25C140.33,68.55,140.3,66.86,140.3,65.16Z"/>
        <path class="cls-92"
              d="M140.3,65.16c0,1.7,0,3.39,0,5.09-.07,3.19-2.29,3.37-4.14,2.25-2.51-1.53-4.4-3.89-3.55-7.34v-2.6h7.7Z"/>
        <path class="cls-93"
              d="M148,49.55c0,2.11.84,5.4-.14,6.11-3.81,2.74.11,4.67.14,6.9H140.3v-5.2c3.84-.23,2.18-3.24,2.56-5.21Z"/>
        <path class="cls-85" d="M140.3,80.77c.22-3.89,3.18-2.21,5.13-2.6C145.21,82.06,142.24,80.38,140.3,80.77Z"/>
        <ellipse class="cls-85" cx="139.02" cy="82.07" rx="1.81" ry="1.84"/>
        <path class="cls-94"
              d="M73.6,57.36c2.35-2,5.42-3.48,6.86-6,1.64-2.82,2.28-6.12,6-7l7.7-2.6c2.84-.07,5.91-.49,5.16,4.13a23.64,23.64,0,0,0,0,3.67v7.81c-1.94.39-4.91-1.29-5.13,2.6H83.86l-2.57-2.6Z"/>
        <path class="cls-95"
              d="M30,67.76h2.56c.67.87,1.49,2.57,2,2.48,5.89-1.14,6.06,2.45,5.75,6.69-.15,2.14,0,4.29,0,6.44V86h-7.7l-5.13-2.6-2.56-2.6c0-3.33.05-6.65,0-10C24.75,66.56,27.85,68,30,67.76Z"/>
        <path class="cls-96"
              d="M60.77,65.16c4-3,7-7.86,12.83-7.8-1.11,1.55-2.27,3.08-3.31,4.69a16.28,16.28,0,0,0-1.09,2.56,11.4,11.4,0,0,0,2.17.52c1.6.09,3.2,0,4.79,0C71,70,71,70,71,78.17L65.9,86l-7.69-2.6v-5.2c1.24,0,2.62-.34,3.7.09s1.82,1.63,2.72,2.5c.42-1.51,1.39-3.11,1.17-4.51-.66-4.19-3.15-6.46-7.59-5.89Z"/>
        <path class="cls-97"
              d="M45.38,54.75c0-5.14.06-10.29,0-15.44a18.36,18.36,0,0,0-.76-4.82c-.49-1.6-4.85.92-3.33-2.66a4.89,4.89,0,0,1,6.21-3c1.19.42,2.88,1.78,2.92,2.76.24,7.72.13,15.44.13,23.16Z"/>
        <path class="cls-98" d="M83.86,15.73c4.91-3.92,10.7-2.47,16.17-2.36.63,0,1.19,3.23,1.79,5H86.42Z"/>
        <path class="cls-99"
              d="M94.12,41.75l-7.7,2.6q1.29-6.51,2.57-13c1.94,0,5.84-5.39,5.26,2-.08,1,1.58,2.13,2.44,3.2Z"/>
        <path class="cls-100"
              d="M58.21,78.17v5.2h-7.7v-2.6c1.57-.3,4.46-.46,4.51-.91a56.64,56.64,0,0,0,0-11.2c-.05-.45-2.94-.6-4.51-.9,1-.87,1.92-2.3,3-2.48a44.67,44.67,0,0,1,7.23-.12l-2.56,5.2Z"/>
        <path class="cls-101"
              d="M50.51,67.76c1.57.3,4.46.45,4.51.9a56.64,56.64,0,0,1,0,11.2c-.05.45-2.94.61-4.51.91,4.63-9.22,4.13-10.21-5.25-10.41-.81,0-1.63,0-2.45,0v-2.6Z"/>
        <path class="cls-102"
              d="M58.36,21.3c-4.2-1.48-8.82,1.47-12.54-2.11,4.13-.29,8.28-1,12.37-.73s8.66-1.81,12.4,1.62Z"/>
        <path class="cls-103"
              d="M50.51,54.75c1.26,0,2.76-.41,3.72.13.8.46,1.19,2,1.32,3.15.06.58-.8,1.82-1.28,1.84a83.1,83.1,0,0,1-11.38-.06c-1-.09-1.76-2-2.64-3.08,1.29-.66,2.56-1.35,3.87-1.95a3.3,3.3,0,0,1,1.26,0l1.94,2.61Z"/>
        <path class="cls-104"
              d="M96.69,36.54c-.86-1.07-2.52-2.2-2.44-3.2.58-7.39-3.32-2-5.26-2v-7.8h2.57c.21,3.89,3.18,2.21,5.13,2.6h2.56C96.82,29.21,96.38,32.78,96.69,36.54Z"/>
        <path class="cls-105"
              d="M91.56,23.54H89c-.86-1.74-1.71-3.47-2.57-5.2h15.4v2.6c-3.84.22-2.18,3.23-2.57,5.2H96.69c-.35-1.84,1.16-4.63-1.94-5.05C93.81,21,92.63,22.67,91.56,23.54Z"/>
        <path class="cls-106" d="M30,67.76c-2.14.28-5.24-1.2-5.15,3,.07,3.32,0,6.64,0,10H22.29V62.56Z"/>
        <path class="cls-107"
              d="M42.81,67.76V83.37H40.25c0-2.15-.13-4.3,0-6.44.31-4.24.14-7.83-5.75-6.69-.48.09-1.3-1.61-2-2.48Z"/>
        <path class="cls-49" d="M78.73,13.13l2.56,2.6Z"/>
        <path class="cls-48" d="M45.38,15.73l2.56-2.6Z"/>
        <path class="cls-108"
              d="M17.16,119.79c3-.23,5.84-.3,5.2,4.27-.14,1,.62,2.18,1,3.28a24,24,0,0,0,1.48-3.84,18.33,18.33,0,0,0,.06-3.71h2.56c0,2.14,0,4.29,0,6.44,0,7.29,0,7.29-5.13,11.77H17.16Z"/>
        <path class="cls-109"
              d="M19.72,153.61h2.57l2.57,13v2.6H19.72c-.85-1-2.37-2.05-2.44-3.15-.3-4.13-.12-8.3-.12-12.45Z"/>
        <path class="cls-110" d="M24.86,166.61l-2.57-13V151h2.57L30,156.21v10.4Z"/>
        <path class="cls-111" d="M24.86,151H22.29V138c1.53,2,5,10.63,4.62,12.1C26.79,150.56,25.57,150.71,24.86,151Z"/>
        <path class="cls-112" d="M19.72,182.22H17.16a47.11,47.11,0,0,1,.11-7.33c.18-1.13,1.6-2.06,2.45-3.08Z"/>
        <path class="cls-113" d="M22.29,138v5.2L17.16,138Z"/>
        <path class="cls-114" d="M19.72,169.21h5.14v2.6H19.72Z"/>
        <path class="cls-113" d="M19.72,153.61H17.16l1.72-2.16Z"/>
        <path class="cls-115"
              d="M27.42,119.79H24.86v-2.6a47.1,47.1,0,0,0-.12-7.33c-.18-1.13-1.6-2.06-2.45-3.08v-2.6L27.42,99H30c.21,3.89,3.18,2.21,5.13,2.6l2.56,2.6c2.43,3.07,2.88,6.64,2.57,10.41-.86.86-1.71,1.73-2.57,2.6H32.55C30.61,117.58,27.64,115.9,27.42,119.79Z"/>
        <path class="cls-116"
              d="M22.29,80.77h2.57l2.56,2.6L32.55,86,30,93.77l-2.57,2.61V99H22.29c1.37-2.69,2.8-5.36,4.1-8.08,1.89-3.94,1.85-4-4.1-4.93Z"/>
        <path class="cls-117"
              d="M22.29,86c5.95,1,6,1,4.1,4.93-1.3,2.72-2.73,5.39-4.1,8.08H19.72l-2.56-5.21C21.21,92.76,22.7,90,22.29,86Z"/>
        <path class="cls-118"
              d="M22.29,86c.41,4-1.08,6.79-5.13,7.8,0-1.63,0-3.26,0-4.9C17.3,83.19,17.31,83.19,22.29,86Z"/>
        <path class="cls-119" d="M22.29,106.78c.85,1,2.27,2,2.45,3.08a47.1,47.1,0,0,1,.12,7.33H22.29Z"/>
        <path class="cls-119" d="M19.72,99h7.7l-5.13,5.2Z"/>
        <path class="cls-120"
              d="M19.72,205.63l5.14-2.6h2.56c-.85,2.6-1.71,5.2-2.56,7.81v7.8H22.29C22.22,214.14,23.1,209.46,19.72,205.63Z"/>
        <path class="cls-121" d="M27.42,231.65l-2.56,2.6H22.29v-13h2.57c.38,2-1.28,5,2.56,5.2Z"/>
        <ellipse class="cls-122" cx="23.57" cy="219.94" rx="1.81" ry="1.84"/>
        <path class="cls-123"
              d="M19.72,171.81h2.57a98.74,98.74,0,0,0,.12,9.89c.11,1.11,1.59,2.09,2.45,3.12h2.56V190H24.86c-.66-.86-1.32-2.48-2-2.47-4.31.06-3-3.07-3.18-5.33Z"/>
        <path class="cls-124"
              d="M27.42,203H24.86l2.56-7.8C31.26,195,29.6,192,30,190h2.56c.31,3.77-.13,7.34-2.56,10.41Z"/>
        <path class="cls-125" d="M30,190c-.39,2,1.27,5-2.57,5.21C23.58,195,25.24,192,24.86,190H30Z"/>
        <path class="cls-126"
              d="M22.29,234.25h2.57v5.2c-1.82-.35-4.57,1.18-5-2C19.75,236.53,21.43,235.34,22.29,234.25Z"/>
        <path class="cls-127" d="M60.77,242.05v-5.2c.86-.87,1.71-1.74,2.57-2.6H65.9Z"/>
        <path class="cls-128" d="M65.9,234.25H63.34V229H65.9v5.21Z"/>
        <path class="cls-129"
              d="M45.38,229v7.81h-7.7c0-3.48-2.71-2.1-4.45-2.69-1.22-.41-2.17-1.65-3.24-2.51V229c3.77-3.41,8.39-2.53,12.82-2.6C43.67,227.31,44.52,228.18,45.38,229Z"/>
        <path class="cls-121" d="M30,231.65c1.07.86,2,2.1,3.24,2.51,1.74.59,4.43-.79,4.45,2.69H27.42v-5.2Z"/>
        <path class="cls-130" d="M63.34,229v5.21c-.86.86-1.71,1.73-2.57,2.6-4.94-1.22-1.59-5.25-2.56-7.81v-2.6Z"/>
        <path class="cls-130"
              d="M47.94,236.85V229h2.57c0,1.22-.51,2.9.08,3.56C55.13,237.63,50.87,236.77,47.94,236.85Z"/>
        <path class="cls-131" d="M50.51,229H47.94c1.21-5,5.18-1.61,7.7-2.6h2.57V229Z"/>
        <path class="cls-47" d="M127.47,242.05h-7.7c1.21-5,5.18-1.61,7.7-2.6Z"/>
        <path class="cls-132"
              d="M55.64,226.44c-2.52,1-6.49-2.41-7.7,2.6H45.38c-.86-.86-1.71-1.73-2.57-2.6-.85-2.6-1.71-5.2-2.56-7.8,3.84-.22,2.18-3.23,2.56-5.2.86-.87,1.71-1.74,2.57-2.6a37.05,37.05,0,0,0,0,3.8,30.38,30.38,0,0,0,.74,3.48c1.18-.85,2.77-1.46,3.43-2.62s.66-3.09.93-4.66h2.56c-.32,2.62.08,5,2.54,6.46,3,1.8,2.21,3.41.13,5.47C55.12,223.39,55.64,225.19,55.64,226.44Z"/>
        <path class="cls-43" d="M127.47,242.05v-2.6h7.7C134,244.46,130,241.06,127.47,242.05Z"/>
        <path class="cls-133"
              d="M104.38,23.54c4.1-3.32,9-2.77,13.63-2.37.72.06,1.18,3.23,1.76,5l-2.56,2.6H107C106.09,27,105.24,25.27,104.38,23.54Z"/>
        <path class="cls-134" d="M122.34,18.34h2.57c.85,2.6,1.71,5.2,2.56,7.8h-5.13Z"/>
        <path class="cls-135" d="M104.38,23.54c.86,1.73,1.71,3.47,2.57,5.2h-2.57l-2.56-2.6v-2.6Z"/>
        <path class="cls-136" d="M101.82,23.54v2.6H99.25c.39-2-1.27-5,2.57-5.2Z"/>
        <path class="cls-137" d="M117.21,28.74l2.56-2.6h2.57C122.12,30,119.15,28.35,117.21,28.74Z"/>
        <path class="cls-138"
              d="M27.42,13.13c1.82.34,4.47-1.16,5.08,1.92.56,2.86-1.26,3.26-3.69,3.42-1.37.1-2.64,1.6-3.95,2.47V15.73Z"/>
        <path class="cls-126" d="M24.86,15.73v5.21c-2.25-.22-5.66,1.1-5.07-3.24C20.23,14.53,23,16.09,24.86,15.73Z"/>
        <path class="cls-139" d="M27.42,13.13l-2.56,2.6Z"/>
        <path class="cls-140"
              d="M112.08,177h-2.57l-7.69-5.21c12.74-.2,12.75-.2,12.82-13.1,0-.83,0-1.67,0-2.5h2.57l7.7-2.6c-3.78,4.7-2.37,10.29-2.57,15.6a21.88,21.88,0,0,1-2,2.58c-1,1-2.11,1.76-3.17,2.63Z"/>
        <path class="cls-141"
              d="M117.21,174.42c1.06-.87,2.2-1.67,3.17-2.63a21.88,21.88,0,0,0,2-2.58l12.83,2.6c-.86,2.61-1.71,5.21-2.57,7.81H130c-.86-.87-1.71-1.74-2.57-2.6s-1.92-2.3-3-2.49A45.85,45.85,0,0,0,117.21,174.42Z"/>
        <path class="cls-87"
              d="M127.47,177c.86.86,1.71,1.73,2.57,2.6-.5,4.13-1.95,1.68-3.35.55-1.16-.93-2.48-1.66-3.73-2.48Z"/>
        <path class="cls-142"
              d="M101.82,171.81l7.69,5.21c.14,3,.39,6.09-4.13,5.18-2-.4-3.89-1.45-5.83-1.46s-3.62.95-5.43,1.48H91.56v-7.8c1-.87,1.92-2.3,3-2.49A45.8,45.8,0,0,1,101.82,171.81Z"/>
        <path class="cls-143" d="M91.56,182.22h2.56c.86,1.73,1.71,3.47,2.57,5.2H91.56Z"/>
        <path class="cls-144"
              d="M65.9,197.83c0,4.79,0,4.79-5.13,10.4-3.71.32-7.23-.13-10.26-2.6L47.94,203l5.13-13h5.14l7.69,2.61Z"/>
        <path class="cls-145"
              d="M73.6,210.84v7.8c-6.67-4-7.12-3.84-7.7,2.6l-2.56-2.6L60.77,216v-5.2c1.54-.27,3.22-.23,4.6-.87,1.88-.87,3.43-2.64,5.35-3.18C71.27,206.64,72.62,209.41,73.6,210.84Z"/>
        <path class="cls-146"
              d="M83.86,197.83,81.29,203a41.22,41.22,0,0,0-6.09.05c-4.53.68-4.34-2.24-4.17-5.25.61-.87,1.09-2.35,1.83-2.5A13.57,13.57,0,0,1,83.86,197.83Z"/>
        <path class="cls-67"
              d="M83.86,197.83a13.57,13.57,0,0,0-11-2.5c-.74.15-1.22,1.63-1.83,2.5H68.47v-5.2L71,190h5.13c1.21,5,5.17,1.62,7.7,2.61v5.2Z"/>
        <path class="cls-147" d="M50.51,205.63c3,2.47,6.55,2.92,10.26,2.6v2.61H50.51v-5.21Z"/>
        <path class="cls-148" d="M78.73,205.63l-2.57,5.21H73.6Q72.43,204.45,78.73,205.63Z"/>
        <ellipse class="cls-149" cx="67.18" cy="195.23" rx="1.81" ry="3.68"/>
        <path class="cls-150" d="M65.9,221.24c.58-6.44,1-6.59,7.7-2.6,0,.83,0,1.66,0,2.49-.09,7.66-.1,7.66-7.7,7.91Z"/>
        <path class="cls-151" d="M83.86,192.63c-2.53-1-6.49,2.41-7.7-2.61H89l-2.57,2.61Z"/>
        <path class="cls-152" d="M91.56,187.42c-.86.87-1.71,1.74-2.57,2.6v-2.6Z"/>
        <path class="cls-153" d="M83.86,192.63h2.56l-2.56,2.6Z"/>
        <path class="cls-154" d="M122.34,200.43h-2.57v-5.2C123.61,195.45,122,198.46,122.34,200.43Z"/>
        <path class="cls-155"
              d="M117.21,156.21h-2.57c-3.44-3-7.6-2.85-11.72-2.57-2.68.18-3.88-.73-3.7-3.57.27-4.14-1.12-8.53,3.27-11.72,1.29-.93,1.65-3.64,1.81-5.59.28-3.44.08-6.91.08-10.37l5.13-5.2h2.57c4.75,2.2,9,5.55,14.59,5.78.29,0,.53,1.32.8,2-.85,1-2.27,2-2.45,3.08a47.09,47.09,0,0,0-.11,7.33c-4.82-.22-9.71,2.17-11.27,5.63-1.27,2.83.23,8.12,3.48,11.41C117.75,153.08,117.21,154.92,117.21,156.21Z"/>
        <path class="cls-156"
              d="M112.08,117.19h-2.57c.75-9-5.36-14.63-10.26-20.81,0-2.06,0-4.12,0-6.18.06-5.34-3-7-7.7-6.83v-2.6l2.56-2.6c1,.86,2,2.42,3.14,2.48,4.92.27,9.88.12,14.82.12l7.69,5.2c-.24,5.13.24,10,5.14,13-2,2.49-3.6,6.2-6.2,7.23C113.28,108.36,112.7,112.57,112.08,117.19Z"/>
        <path class="cls-157"
              d="M121.29,84.31c-4.08-.07-6.65-1.81-9.21-3.54h7.69l2.57-2.6c7.22,0,7.22,0,7.7-5.21a19.64,19.64,0,0,1,2.54,2c1.78,1.9,3.44,3.9,5.15,5.86V86c-.85,1-2.27,2-2.45,3.08a47.09,47.09,0,0,0-.11,7.33L130,99h-5.13c-4.9-3-5.38-7.88-3.62-14.67-.2-.5-.86-.06-1.52.38L121,86c1.48,1.5,2.79,3.29,4.52,4.41,1.33.86,1.92,4.76,4.22,2,.88-1.06.43-4.51-.66-5.74C127.41,84.72,124.65,83.75,121.29,84.31Z"/>
        <path class="cls-157" d="M137.73,96.38V99l-2.56-2.6Z"/>
        <path class="cls-158"
              d="M117.21,156.21c0-1.29.54-3.13-.09-3.77-3.25-3.29-4.75-8.58-3.48-11.41,1.56-3.46,6.45-5.85,11.27-5.63h2.56v18.21h-2.56Z"/>
        <path class="cls-159"
              d="M127.47,138v-2.6a30.72,30.72,0,0,1,.07-5c.17-1,.89-2.45,1.65-2.67.91-.26,3.06.57,3.07,1,.1,6.75,5.08,3.37,8,4.1l2.56,2.61V138Z"/>
        <path class="cls-160" d="M137.73,96.38h-2.56a47.09,47.09,0,0,1,.11-7.33c.18-1.13,1.6-2.06,2.45-3.08V96.38Z"/>
        <path class="cls-161"
              d="M130,28.74c3-2.46,6.55-2.91,10.26-2.6,3.78,4.71,2.36,10.29,2.56,15.61-2.89,0-5.79,0-8.68,0-6.38-.08-6.38-.1-6.71-7.8.86-.86,1.71-1.73,2.57-2.6Z"/>
        <path class="cls-162"
              d="M130,31.34c-.86.87-1.71,1.74-2.57,2.6-.85,1-2.27,2-2.45,3.08a47.11,47.11,0,0,0-.11,7.33h-2.57l-7.7-2.6c.07-4.5-.8-9.18,2.57-13,1.94-.39,4.91,1.29,5.13-2.6h5.13C127.86,28.11,126.2,31.12,130,31.34Z"/>
        <path class="cls-163"
              d="M127.47,44.35c2.9,0,5.79,0,8.69,0,6.38.08,6.38.09,6.7,7.79H140.3c-2-7.41-8.08-4.67-12.83-5.2Z"/>
        <path class="cls-164"
              d="M142.86,41.75c-.2-5.32,1.22-10.9-2.56-15.61,4-.42,6.69,1.09,7.69,5.2-.85,1-2.27,1.95-2.45,3.08a47.11,47.11,0,0,0-.11,7.33Z"/>
        <path class="cls-165"
              d="M127.47,44.35V47c-3.43,0-2.07,2.75-2.65,4.51-.41,1.24-1.62,2.21-2.48,3.29v-2.6c-.85-1.73-1.71-3.47-2.57-5.2.86-.87,1.72-1.73,2.57-2.6h5.13Z"/>
        <path class="cls-166"
              d="M127.47,26.14c-.85-2.6-1.71-5.2-2.56-7.8h12.82c.45,3.44-.12,5.78-4.47,5.34-1-.1-2.14,1.59-3.22,2.46Z"/>
        <path class="cls-167" d="M127.47,26.14H130v5.2C126.2,31.12,127.86,28.11,127.47,26.14Z"/>
        <path class="cls-168"
              d="M124.91,153.61h2.56v2.6c1.8,2.25,3.61,4.51,5.4,6.77,1.63,2.07,3.24,4.16,4.86,6.23l-2.56,2.6-12.83-2.6C122.54,163.9,121.13,158.31,124.91,153.61Z"/>
        <path class="cls-169"
              d="M137.73,169.21c-1.62-2.07-3.23-4.16-4.86-6.23-1.79-2.26-3.6-4.52-5.4-6.77h7.7c.22,3.89,3.18,2.21,5.13,2.6C140.61,162.57,140.16,166.14,137.73,169.21Z"/>
        <path class="cls-74" d="M127.47,138h15.39c0,3.29-2.45,2.7-4.27,2.55-4-.34-7.79.13-11.12,2.65Z"/>
        <path class="cls-170" d="M148,158.81l-5.13,2.6v-5.2l5.13-2.6Z"/>
        <path class="cls-171" d="M135.17,156.21H130c1.56-4.62,4.55-2.7,7.35-1.65Z"/>
        <path class="cls-172" d="M142.86,156.21v2.6H140.3Z"/>
        <path class="cls-173" d="M137.73,86v-2.6h2.57Z"/>
        <path class="cls-174" d="M140.3,158.81h2.56v10.4h-5.13C140.16,166.14,140.61,162.57,140.3,158.81Z"/>
        <path class="cls-175"
              d="M132.6,62.56v2.6c-3.84.22-2.18,3.23-2.56,5.2h-2.57v-2.6c-.26-2.18,1.17-5.31-3-5.22s-8.24,0-12.36,0H107V60c3.81,0,7.68-.44,11.41.12s6.22-1.35,9.11-2.72Z"/>
        <path class="cls-157" d="M127.47,70.36H130V73Z"/>
        <path class="cls-176" d="M140.3,57.36v5.2h-7.7V60Z"/>
        <path class="cls-177" d="M140.3,52.15h2.56c-.38,2,1.28,5-2.56,5.21Z"/>
        <path class="cls-178"
              d="M94.12,78.17l-2.56,2.6L71,78.17c0-8.21,0-8.21,5.13-13,4-1,5.55-3.77,5.13-7.8L83.86,60l.84,2.15L86.42,60h7.7l-2.56,2.6c-3.48,3.29-3.48,7.11,0,10.4h2.56Z"/>
        <path class="cls-179"
              d="M99.25,26.14h2.57l2.56,2.6c0,2.5-.17,5,.05,7.49.24,2.7.85,5.37,1.3,8.06,1.48-2.47,3.78-2.86,6.35-2.54h2.56L112.08,47c-2,.39-4.91-1.29-5.13,2.6h-7.7a23.64,23.64,0,0,1,0-3.67c.75-4.62-2.32-4.2-5.16-4.13l2.57-5.21C96.38,32.78,96.82,29.21,99.25,26.14Z"/>
        <path class="cls-180"
              d="M94.12,73H91.56V62.56L94.12,60c.22-3.89,3.19-2.21,5.13-2.6h2.57l2.56,2.6v5.2c-2.46.87-4.88,2.23-7.4,2.49C93,68.05,94.41,70.85,94.12,73Z"/>
        <path class="cls-181"
              d="M81.29,57.36c.42,4-1.08,6.78-5.13,7.8-1.59,0-3.19.06-4.79,0a11.4,11.4,0,0,1-2.17-.52,16.28,16.28,0,0,1,1.09-2.56c1-1.61,2.2-3.14,3.31-4.69Z"/>
        <path class="cls-182" d="M104.38,60l-2.56-2.6-2.57-2.61v-5.2H107V60Z"/>
        <path class="cls-183" d="M99.25,54.75l2.57,2.61H99.25Z"/>
        <path class="cls-184" d="M86.42,60,84.7,62.11,83.86,60Z"/>
        <path class="cls-185" d="M30,93.77,32.55,86h7.7c.36,3.58-2,8.33-4.16,6.71C32.48,90,32.06,94.9,30,93.77Z"/>
        <path class="cls-186" d="M40.25,83.37h2.56L40.25,86Z"/>
        <path class="cls-106" d="M27.42,83.37l-2.56-2.6Z"/>
        <path class="cls-187"
              d="M40.25,114.59c.31-3.77-.14-7.34-2.57-10.41,1.06-.87,2-2.17,3.19-2.53,7.73-2.28,8.89-3.33,5.09-10.73-2.24-4.36,2.59-4.81,2-7.55H58.21L65.9,86v5.2H63.34c-2.53,1-6.5-2.41-7.7,2.6-5.39,6.51-5.39,6.51,0,13-.13,8.59-.13,8.59-7.7,20.81.57-4.52-1.72-6.8-5.81-7.82C39.12,119,40.58,116.43,40.25,114.59Z"/>
        <path class="cls-188" d="M65.9,88.57V86L71,78.17l20.53,2.6v2.6L78.73,86l-2.57,2.6H65.9Z"/>
        <path class="cls-189"
              d="M58.21,78.17V70.36c4.44-.57,6.93,1.7,7.59,5.89.22,1.4-.75,3-1.17,4.51-.9-.87-1.65-2.07-2.72-2.5S59.45,78.17,58.21,78.17Z"/>
        <path class="cls-190" d="M50.51,54.75l-3.19,2.61-1.94-2.61Z"/>
        <path class="cls-101" d="M50.51,83.37H47.94l2.57-2.6Z"/>
        <path class="cls-191"
              d="M50.51,80.77l-2.57,2.6H45.38c-.39-2,1.27-5-2.57-5.2V70.36c.82,0,1.64,0,2.45,0C54.64,70.56,55.14,71.55,50.51,80.77Z"/>
        <path class="cls-192"
              d="M91.56,23.54c1.07-.87,2.25-2.58,3.19-2.45,3.1.42,1.59,3.21,1.94,5.05C94.74,25.75,91.77,27.43,91.56,23.54Z"/>
        <path class="cls-186" d="M42.81,78.17c3.84.22,2.18,3.23,2.57,5.2H42.81Z"/>
        <path class="cls-113"
              d="M24.86,151c.71-.29,1.93-.44,2.05-.9.4-1.47-3.09-10.08-4.62-12.1,5.1-4.48,5.1-4.48,5.13-11.77,0-2.15,0-4.3,0-6.44.86.68,2.38,1.31,2.45,2.07A70.65,70.65,0,0,1,30,131c-.14,4,1.57,6.44,5.58,7.05,1.84.29,5-1,4.56,2.46-.36,2.73,3.13,7.31-3,8-1.17.14-.75,5.07.62,7.7-3.37,4.83-3.36,4.82-6.55,0-.12-.18-.75,0-1.14,0Z"/>
        <ellipse class="cls-193" cx="27.42" cy="167.91" rx="3.63" ry="1.84"/>
        <path class="cls-194"
              d="M30,156.21c.39,0,1-.16,1.14,0,3.19,4.8,3.18,4.81,6.55,0h7.7c2.89,4.14,3.28,9.8,7.69,13v2.6l-2.56,2.61a45.83,45.83,0,0,0-7.23.11c-1.11.19-2,1.62-3,2.49H37.68l-2.56-2.6L30,169.21l2.12-.85L30,166.61Z"/>
        <path class="cls-195"
              d="M30,169.21l5.13,5.21v5.2l-2.57,2.6q1.17,6.39-5.13,5.2v-2.6c4-7.46,3.94-7.86-2.56-13v-2.6Z"/>
        <path class="cls-196" d="M24.86,184.82c-.86-1-2.34-2-2.45-3.12a98.74,98.74,0,0,1-.12-9.89h2.57Z"/>
        <path class="cls-197"
              d="M40.25,156.21H37.68c-1.37-2.63-1.79-7.56-.62-7.7,6.17-.74,2.68-5.32,3-8,.45-3.45-2.72-2.17-4.56-2.46-4-.61-5.72-3-5.58-7.05a70.65,70.65,0,0,0-.09-9.09c-.07-.76-1.59-1.39-2.45-2.07.22-3.89,3.19-2.21,5.13-2.6l1.94,2.6,3.19-2.6c.86-.87,1.71-1.74,2.57-2.6.33,1.84-1.13,4.43,1.88,5.18,4.09,1,6.38,3.3,5.81,7.82v5.2c-3.55,1-5.27,3.24-5.16,7.08.14,4.57,0,9.16,0,13.74Z"/>
        <path class="cls-198"
              d="M42.81,83.37h5.13c.61,2.74-4.22,3.19-2,7.55,3.8,7.4,2.64,8.45-5.09,10.73-1.2.36-2.13,1.66-3.19,2.53l-2.56-2.6C34.9,97.69,31.93,99.37,30,99l-2.57-2.6L30,93.77c2.07,1.13,2.49-3.74,6.1-1.09,2.19,1.62,4.52-3.13,4.16-6.71Z"/>
        <path class="cls-199" d="M30,99c1.94.39,4.91-1.29,5.13,2.6C33.17,101.19,30.2,102.87,30,99Z"/>
        <path class="cls-200" d="M37.68,117.19l-3.19,2.6-1.94-2.6Z"/>
        <path class="cls-201" d="M27.42,96.38,30,99H27.42Z"/>
        <path class="cls-202"
              d="M24.86,210.84c.85-2.61,1.71-5.21,2.56-7.81H30c1.2,5,5.17,1.61,7.69,2.6.86,2.6,1.71,5.21,2.57,7.81v5.2q-7.7,5.46-15.39,0V216c3.39.86,7.16-1.42,6.93-3.48C31.38,208.93,27.25,211.59,24.86,210.84Z"/>
        <path class="cls-203" d="M24.86,210.84c2.39.75,6.52-1.91,6.93,1.72.23,2.06-3.54,4.34-6.93,3.48Z"/>
        <path class="cls-204"
              d="M24.86,218.64q7.7,5.46,15.39,0c.85,2.6,1.71,5.2,2.56,7.8-4.43.07-9.05-.81-12.82,2.6-.86-.86-1.71-1.73-2.57-2.6-3.84-.22-2.18-3.23-2.56-5.2Z"/>
        <path class="cls-205" d="M27.42,226.44c.86.87,1.71,1.74,2.57,2.6v2.61H27.42Z"/>
        <path class="cls-206" d="M24.86,184.82v-13c6.5,5.15,6.58,5.55,2.56,13Z"/>
        <path class="cls-207" d="M27.42,187.42q6.3,1.19,5.13-5.2h2.57c.38,2-1.28,5,2.56,5.2V190H27.42Z"/>
        <path class="cls-208"
              d="M32.55,190h5.13c0,3.48,2.72,2.11,4.45,2.69,1.22.42,2.18,1.65,3.25,2.52-2,0-5.27-.78-5.86.15-1.31,2.1-1.31,5.05-1.84,7.65L30,200.43C32.42,197.36,32.86,193.79,32.55,190Z"/>
        <path class="cls-209" d="M30,203H27.42l2.57-2.6Z"/>
        <path class="cls-210"
              d="M65.9,221.24V229H63.34l-5.13-2.6H55.64c0-1.25-.52-3.05.1-3.67,2.08-2.06,2.88-3.67-.13-5.47-2.46-1.48-2.86-3.84-2.54-6.46h5.14l2.56,2.6V216l2.57,2.6Z"/>
        <path class="cls-211" d="M42.81,226.44c.86.87,1.71,1.74,2.57,2.6C44.52,228.18,43.67,227.31,42.81,226.44Z"/>
        <path class="cls-212"
              d="M40.25,213.44c-.86-2.6-1.71-5.21-2.57-7.81h2.57c1.94-.39,4.91,1.29,5.13-2.6h2.56l2.57,2.6v2.6c-1.95.4-4.91-1.29-5.13,2.61-.86.86-1.71,1.73-2.57,2.6Z"/>
        <path class="cls-213"
              d="M50.51,210.84c-.27,1.57-.18,3.36-.93,4.66s-2.25,1.77-3.43,2.62a30.38,30.38,0,0,1-.74-3.48,37.05,37.05,0,0,1,0-3.8Z"/>
        <path class="cls-214" d="M40.25,213.44h2.56c-.38,2,1.28,5-2.56,5.2Z"/>
        <path class="cls-215"
              d="M114.64,41.75h-2.56v-2.6c0-7.33,0-7.33-5.13-7.81v-2.6h10.26C113.84,32.57,114.71,37.25,114.64,41.75Z"/>
        <path class="cls-216"
              d="M112.08,39.15v2.6c-2.57-.32-4.87.07-6.35,2.54-.45-2.69-1.06-5.36-1.3-8.06-.22-2.48-.05-5-.05-7.49H107v2.6C107,38.66,107,38.66,112.08,39.15Z"/>
        <path class="cls-217"
              d="M53.07,171.81v-13h2.57v2.6l2.57,2.6c.67.87,1.33,2.49,2,2.49q23.64.21,47.27,0c.68,0,1.35-1.62,2-2.49-1.2-5-5.17-1.61-7.69-2.6-.3-.74-.44-2-.93-2.14-6.71-2.17-6.75-2.13-6.76-8.43q0-25.93,0-51.86c-.21-3.25-.41-6.49-.62-9.73-2.84.64-5.66,1.36-8.52,1.89a20.63,20.63,0,0,1-3.69,0H71v-2.6h5.13L78.73,86l12.83-2.6c4.66-.16,7.76,1.49,7.7,6.83,0,2.06,0,4.12,0,6.18,0,5.16,0,10.32,0,15.49,0,6,0,6,5.12,10.52,0,3.46.2,6.93-.08,10.37-.16,2-.52,4.66-1.81,5.59-4.39,3.19-3,7.58-3.27,11.72-.18,2.84,1,3.75,3.7,3.57,4.12-.28,8.28-.44,11.72,2.57,0,.83,0,1.67,0,2.5-.07,12.9-.08,12.9-12.82,13.1a45.8,45.8,0,0,0-7.23.12c-1.11.19-2,1.62-3,2.49H89c-1-.54-1.95-1-2.86-1.62-2.32-1.55-4.21-2-4.84,1.62-2.61-.87-5.2-2.35-7.85-2.49C66.67,171.58,59.86,171.81,53.07,171.81Z"/>
        <path class="cls-143" d="M89,174.42h2.57v7.8C86.61,181,90,177,89,174.42Z"/>
        <path class="cls-218"
              d="M89,174.42c1,2.56-2.38,6.58,2.57,7.8v5.2H89c-4.24-.43-2.59-3.85-2.44-5.85.34-4.41-1.84-5-5.26-4.55v-2.6c.63-3.57,2.52-3.17,4.84-1.62C87,173.4,88,173.88,89,174.42Z"/>
        <path class="cls-219"
              d="M81.29,174.42V177l-2.56,2.6c-2.43,3.07-2.88,6.64-2.57,10.4H73.6l-.85-2.15c-.57.72-1.14,1.44-1.72,2.15l-2.56,2.61H65.9L58.21,190v-5.2c-.22-3.89-3.19-2.21-5.14-2.6-.38-2,1.28-5-2.56-5.2v-2.6l2.56-2.61c6.79,0,13.6-.23,20.37.12C76.09,172.07,78.68,173.55,81.29,174.42Z"/>
        <path class="cls-220"
              d="M47.94,203H45.38c.48-1.78.59-3.8,1.51-5.3,1.46-2.37.06-2.34-1.51-2.5-1.07-.87-2-2.1-3.25-2.52-1.73-.58-4.43.79-4.45-2.69v-2.6q7.7,5.46,15.39,0V190Z"/>
        <path class="cls-221" d="M53.07,190v-7.8c2,.39,4.92-1.29,5.14,2.6l-2.13.86,2.13,1.74V190Z"/>
        <path class="cls-132" d="M63.34,218.64,60.77,216Z"/>
        <path class="cls-222" d="M60.77,213.44l-2.56-2.6h2.56Z"/>
        <path class="cls-223" d="M71,190c.58-.71,1.15-1.43,1.72-2.15L73.6,190Z"/>
        <path class="cls-132" d="M50.51,210.84H45.38c.22-3.9,3.18-2.21,5.13-2.61Z"/>
        <path class="cls-224"
              d="M78.73,179.62l2.56-2.6c3.42-.47,5.6.14,5.26,4.55-.15,2-1.8,5.42,2.44,5.85V190H78.73a20.51,20.51,0,0,1,1.81-3.09C83.66,183.31,83.7,183.34,78.73,179.62Z"/>
        <path class="cls-225"
              d="M78.73,179.62c5,3.72,4.93,3.69,1.81,7.31A20.51,20.51,0,0,0,78.73,190H76.16C75.85,186.26,76.3,182.69,78.73,179.62Z"/>
        <path class="cls-226"
              d="M104.38,122.39c-5.08-4.53-5.1-4.53-5.12-10.52,0-5.17,0-10.33,0-15.49,4.9,6.18,11,11.76,10.26,20.81Z"/>
        <path class="cls-227"
              d="M94.12,73c.29-2.11-1.15-4.91,2.86-5.31,2.52-.26,4.94-1.62,7.4-2.49H107c3.25,0,2.66,2.48,2.51,4.33-.33,4.09.14,7.9,2.62,11.28-4.94,0-9.9.15-14.82-.12-1.09-.06-2.1-1.62-3.14-2.48Z"/>
        <path class="cls-228"
              d="M112.08,80.77c-2.48-3.38-3-7.19-2.62-11.28.15-1.85.74-4.34-2.51-4.33v-2.6h5.13c0,1.72-.4,3.57.07,5.15,1.58,5.33,4.68,6.4,8.69,2.68,2.06-1.92,3.92-3,6.63-2.63v2.6c-4,1-5.54,3.77-5.13,7.81l-2.57,2.6Z"/>
        <path class="cls-229"
              d="M122.8,82.65c1.85,1.1,4.61,2.07,6.32,4,1.09,1.23,1.54,4.68.66,5.74-2.3,2.74-2.89-1.16-4.22-2-1.73-1.12-3-2.91-4.52-4.41l-1.27-1.28Z"/>
        <path class="cls-230"
              d="M122.34,78.17c-.41-4,1.08-6.79,5.13-7.81L130,73C129.56,78.17,129.56,78.17,122.34,78.17Z"/>
        <path class="cls-231" d="M119.77,80.77l2.57-2.6Z"/>
        <path class="cls-232" d="M112.08,47l2.56-5.2,7.7,2.6c-.85.87-1.71,1.73-2.57,2.6Z"/>
        <path class="cls-233"
              d="M140.3,52.15v5.21L132.6,60c-.22-3.89-3.18-2.21-5.13-2.6V47C132.22,47.48,138.26,44.74,140.3,52.15Z"/>
        <path class="cls-234"
              d="M127.47,47V57.36c-2.89,1.37-5.44,3.28-9.11,2.72S110.76,60,107,60v-2.6c4.09,0,8.2.17,12.28-.12,1.09-.08,2.08-1.62,3.11-2.49.86-1.08,2.07-2,2.48-3.29C125.4,49.7,124,47,127.47,47Z"/>
        <path class="cls-235"
              d="M122.34,54.75c-1,.87-2,2.41-3.11,2.49-4.08.29-8.19.12-12.28.12V54.75c1.94-.39,4.91,1.29,5.13-2.6h10.26Z"/>
        <path class="cls-236"
              d="M122.34,52.15H107v-2.6c1.94-.39,4.91,1.29,5.13-2.6h7.69C120.63,48.68,121.49,50.42,122.34,52.15Z"/>
        <path class="cls-237"
              d="M127.47,67.76c-2.71-.41-4.57.71-6.63,2.63-4,3.72-7.11,2.65-8.69-2.68-.47-1.58-.07-3.43-.07-5.15,4.12,0,8.24.07,12.36,0S127.21,65.58,127.47,67.76Z"/>
        <path class="cls-238" d="M127.47,57.36c1.95.39,4.91-1.29,5.13,2.6v2.6Z"/>
        <path class="cls-239" d="M107,62.56v2.6h-2.57V60H107Z"/>
        <path class="cls-240" d="M91.56,62.56V73C88.08,69.67,88.08,65.85,91.56,62.56Z"/>
        <path class="cls-241" d="M112.08,47c-.22,3.89-3.19,2.21-5.13,2.6C107.17,45.66,110.13,47.34,112.08,47Z"/>
        <path class="cls-242" d="M107,52.15h5.13c-.22,3.89-3.19,2.21-5.13,2.6Z"/>
        <path class="cls-243"
              d="M47.94,132.79v-5.2c7.57-12.22,7.57-12.22,7.7-20.81h7.7c-.28.72-.5,2-.85,2.06-3.39.34-4.71,1.92-4.36,5.51.41,4.17,3.33,2.56,5.41,2.8a42.64,42.64,0,0,0,4.93,0c-.79,8.71,4.41,16.76,2.64,25.64-.64,3.23.87,8-.85,9.64-2.58,2.39-7.12,2.68-10.87,3.69a15.13,15.13,0,0,1-3.75.05c1.71-1.37,4.64-2.53,4.89-4.14.67-4.19,1.13-8.93-.25-12.74-.74-2.06-5.43-2.59-8.27-4A41.56,41.56,0,0,1,47.94,132.79Z"/>
        <path class="cls-244"
              d="M55.64,156.21a15.13,15.13,0,0,0,3.75-.05c3.75-1,8.29-1.3,10.87-3.69,1.72-1.61.21-6.41.85-9.64,1.77-8.88-3.43-16.93-2.64-25.64,5.38-2.12,1.53-6.34,2.12-9.55l-7.25-.86h-7.7c-5.39-6.5-5.39-6.5,0-13,2.52-1,6.49,2.42,7.7-2.6H73.6v2.6H68.47L65.9,96.38C64,96.77,61,95.09,60.77,99l-2.17.9c.35.56.69,1.62,1,1.62,4.65.12,9.3.08,13.95.08h2.56v57.23H65.9c-2.52,1-6.49-2.41-7.69,2.6H55.64v-5.2Z"/>
        <path class="cls-245" d="M63.34,91.17c-1.21,5-5.18,1.61-7.7,2.6C56.84,88.76,60.81,92.16,63.34,91.17Z"/>
        <ellipse class="cls-245" cx="68.47" cy="89.87" rx="3.63" ry="1.84"/>
        <path class="cls-245" d="M78.73,86l-2.57,2.6Z"/>
        <path class="cls-246" d="M30,166.61l2.12,1.75-2.12.85Z"/>
        <path class="cls-247"
              d="M47.94,132.79A41.56,41.56,0,0,0,52,135.37c2.84,1.37,7.53,1.9,8.27,4,1.38,3.81.92,8.55.25,12.74-.25,1.61-3.18,2.77-4.89,4.14-.86.86-1.71,1.73-2.57,2.6v10.4c-4.41-3.2-4.8-8.86-7.69-13-.86-.87-1.71-1.74-2.57-2.6,0-4.58.11-9.17,0-13.74C42.67,136,44.39,133.78,47.94,132.79Z"/>
        <path class="cls-248"
              d="M53.07,182.22v5.2q-7.69,5.46-15.39,0c-3.84-.22-2.18-3.23-2.56-5.2C39,182,37.3,179,37.68,177H50.51C54.35,177.24,52.69,180.25,53.07,182.22Z"/>
        <path class="cls-249" d="M50.51,177H40.25c1-.87,1.92-2.3,3-2.49a45.83,45.83,0,0,1,7.23-.11Z"/>
        <path class="cls-249" d="M37.68,177c-.38,2,1.27,5-2.56,5.2v-7.8Z"/>
        <path class="cls-113" d="M42.81,153.61c.86.86,1.71,1.73,2.57,2.6H40.25Z"/>
        <path class="cls-248" d="M35.12,179.62v2.6H32.55Z"/>
        <path class="cls-250"
              d="M40.25,205.63H37.68c-2.52-1-6.49,2.41-7.69-2.6v-2.6l7.69,2.6C38.54,203.9,39.39,204.77,40.25,205.63Z"/>
        <path class="cls-251"
              d="M40.25,205.63c-.86-.86-1.71-1.73-2.57-2.6.53-2.6.53-5.55,1.84-7.65.59-.93,3.82-.15,5.86-.15,1.57.16,3,.13,1.51,2.5-.92,1.5-1,3.52-1.51,5.3C45.16,206.92,42.19,205.24,40.25,205.63Z"/>
        <path class="cls-252" d="M112.08,39.15c-5.13-.49-5.13-.49-5.13-7.81C112.08,31.82,112.08,31.82,112.08,39.15Z"/>
        <path class="cls-253"
              d="M101.82,161.41c2.52,1,6.49-2.41,7.69,2.6H58.21v-2.6H65.9a44.65,44.65,0,0,0,7.23-.12c1.11-.18,2-1.61,3-2.48h2.57l2.56,2.6c7.61-.31,7.68-.31,7.69-7.12q0-28.95,0-57.91L91.56,99c0,18.87,0,37.75,0,56.63,0,5.59.11,5.59,6.44,5.79C99.28,161.44,100.55,161.41,101.82,161.41Z"/>
        <path class="cls-254"
              d="M101.82,161.41c-1.27,0-2.54,0-3.81,0-6.33-.2-6.42-.2-6.44-5.79,0-18.88,0-37.76,0-56.63h2.56q0,25.92,0,51.86c0,6.3.05,6.26,6.76,8.43C101.38,159.43,101.52,160.67,101.82,161.41Z"/>
        <path class="cls-254"
              d="M58.21,164h51.3c-.67.87-1.34,2.49-2,2.49q-23.62.21-47.27,0C59.54,166.5,58.88,164.88,58.21,164Z"/>
        <path class="cls-255"
              d="M94.12,99H91.56L89,96.38c-3.85-2.24-3.85-2.24-7.7,0V91.17a20.63,20.63,0,0,0,3.69,0c2.86-.53,5.68-1.25,8.52-1.89C93.71,92.49,93.91,95.73,94.12,99Z"/>
        <ellipse class="cls-245" cx="76.16" cy="92.47" rx="3.63" ry="1.84"/>
        <ellipse class="cls-256" cx="80.01" cy="92.47" rx="1.81" ry="1.84"/>
        <path class="cls-243" d="M58.21,161.41V164l-2.57-2.6Z"/>
        <path class="cls-243" d="M53.07,158.81c.86-.87,1.71-1.74,2.57-2.6v2.6Z"/>
        <path class="cls-257" d="M58.21,187.42l-2.13-1.74,2.13-.86Z"/>
        <path class="cls-258"
              d="M63.34,106.78l7.25.86c-.59,3.21,3.26,7.43-2.12,9.55a42.64,42.64,0,0,1-4.93,0c-2.08-.24-5,1.37-5.41-2.8-.35-3.59,1-5.17,4.36-5.51C62.84,108.8,63.06,107.5,63.34,106.78Z"/>
        <ellipse class="cls-259" cx="77.45" cy="130.19" rx="1.81" ry="40.47"/>
        <path class="cls-260"
              d="M78.73,101.58H73.6c.78-4.26-.94-6-5.13-5.2V93.77H81.29v2.61C77.46,96.6,79.11,99.61,78.73,101.58Z"/>
        <path class="cls-261"
              d="M68.47,96.38c4.19-.79,5.91.94,5.13,5.2-4.65,0-9.3,0-13.95-.08-.36,0-.7-1.06-1-1.62l2.17-.9C63.3,98,67.26,101.39,68.47,96.38Z"/>
        <path class="cls-254" d="M76.16,158.81c-1,.87-1.92,2.3-3,2.48a44.65,44.65,0,0,1-7.23.12v-2.6Z"/>
        <path class="cls-260" d="M68.47,96.38c-1.21,5-5.17,1.61-7.7,2.6.22-3.89,3.19-2.21,5.13-2.6Z"/>
        <path class="cls-243" d="M65.9,158.81v2.6H58.21C59.41,156.4,63.38,159.8,65.9,158.81Z"/>
        <path class="cls-245" d="M68.47,96.38H65.9l2.57-2.61Z"/>
        <path class="cls-256"
              d="M78.73,101.58c.38-2-1.27-5,2.56-5.2,3.85-2.24,3.85-2.24,7.7,0q0,29,0,57.91c0,6.81-.08,6.81-7.69,7.12l-2.56-2.6Zm5.46,58.11c1.32-4.77,2.22-6.45,2.09-8-.1-1.15-1.5-3-2.46-3.11-3.41-.35-2.53,2.57-2.44,4.41C81.44,154.22,82.35,155.43,84.19,159.69Z"/>
        <path class="cls-254" d="M78.73,158.81l2.56,2.6Z"/>
        <path class="cls-259"
              d="M84.19,159.69c-1.84-4.26-2.75-5.47-2.81-6.73-.09-1.84-1-4.76,2.44-4.41,1,.1,2.36,2,2.46,3.11C86.41,153.24,85.51,154.92,84.19,159.69Z"/>
    </g>
</svg>