<svg id="Calque_1" data-name="Calque 1" xmlns="http://www.w3.org/2000/svg" viewBox="0 0 167.24 257.95">
    <defs>
        <style>
            .cls-1{fill:#1e292b;}.cls-2{fill:#19272a;}.cls-3{fill:#fefefe;}.cls-4{fill:#0e0e0e;}.cls-5{fill:#fbf3f4;}.cls-6{fill:#191a1a;}.cls-7{fill:#363536;}.cls-8{fill:#acada8;}.cls-9{fill:#212323;}.cls-10{fill:#e9cfcc;}.cls-11{fill:#1a1a1b;}.cls-12{fill:#f67679;}.cls-13{fill:#f20f12;}.cls-14{fill:#fb9699;}.cls-15{fill:#f3040c;}.cls-16{fill:#fb9092;}.cls-17{fill:#fa626a;}.cls-18{fill:#fa898e;}.cls-19{fill:#f66c6c;}.cls-20{fill:#f59898;}.cls-21{fill:#f5232b;}.cls-22{fill:#f41729;}.cls-23{fill:#ef2e2c;}.cls-24{fill:#f4313b;}.cls-25{fill:#fb716d;}.cls-26{fill:#f3716e;}.cls-27{fill:#fa2d3a;}.cls-28{fill:#ea403d;}.cls-29{fill:#f00310;}.cls-30{fill:#ee9890;}.cls-31{fill:#f46871;}.cls-32{fill:#faf1f0;}.cls-33{fill:#e7fef6;}.cls-34{fill:#fe516b;}.cls-35{fill:#e36653;}.cls-36{fill:#fe5f75;}.cls-37{fill:#fe274b;}.cls-38{fill:#fe5d79;}.cls-39{fill:#f7453d;}.cls-40{fill:#f30d15;}.cls-41{fill:#f72551;}.cls-42{fill:#f28994;}.cls-43{fill:#fa413d;}.cls-44{fill:#fb5556;}.cls-45{fill:#d5001f;}.cls-46{fill:#f1efe3;}.cls-47{fill:#fb7b80;}.cls-48{fill:#fb686e;}.cls-49{fill:#f6eded;}.cls-50{fill:#fe182d;}.cls-51{fill:#ead5d3;}.cls-52{fill:#f23f3e;}.cls-53{fill:#f6e4e2;}.cls-54{fill:#ef0c13;}.cls-55{fill:#e9dad6;}.cls-56{fill:#fc4d3e;}.cls-57{fill:#ea0000;}.cls-58{fill:#f7f6f6;}.cls-59{fill:#f30107;}.cls-60{fill:#d51b00;}.cls-61{fill:#e60610;}.cls-62{fill:#f10e11;}.cls-63{fill:#f23739;}.cls-64{fill:#ed2c36;}.cls-65{fill:#fb4241;}.cls-66{fill:#f07c6f;}.cls-67{fill:#de171b;}.cls-68{fill:#f81514;}.cls-69{fill:#fa4b46;}.cls-70{fill:#f86a73;}.cls-71{fill:#ec4644;}.cls-72{fill:#fd4b46;}.cls-73{fill:#fe4546;}.cls-74{fill:#ea0400;}.cls-75{fill:#faafab;}.cls-76{fill:#ed6c67;}.cls-77{fill:#f7f6f5;}.cls-78{fill:#f80708;}.cls-79{fill:#f60005;}.cls-80{fill:#ea010a;}.cls-81{fill:#eb0409;}.cls-82{fill:#fe4b46;}.cls-83{fill:#ed283e;}.cls-84{fill:#fd574d;}.cls-85{fill:#fd4645;}.cls-86{fill:#f9f0ef;}.cls-87{fill:#f97c7e;}.cls-88{fill:#f9e5e3;}.cls-89{fill:#f8676d;}.cls-90{fill:#f43d44;}.cls-91{fill:#fd7f7e;}.cls-92{fill:#ef080e;}.cls-93{fill:#fa564b;}.cls-94{fill:#fe625e;}.cls-95{fill:#eff0ed;}.cls-96{fill:#ef445d;}.cls-97{fill:#fe8e8b;}.cls-98{fill:#f6565b;}.cls-99{fill:#f4575b;}.cls-100{fill:#ee2025;}.cls-101{fill:#f96c6e;}.cls-102{fill:#f79a99;}.cls-103{fill:#f9041c;}.cls-104{fill:#f43e49;}.cls-105{fill:#f3ded9;}.cls-106{fill:#dc2f27;}.cls-107{fill:#fa9195;}.cls-108{fill:#d2cfd2;}.cls-109{fill:#e8e4e2;}.cls-110{fill:#1f1f1f;}.cls-111{fill:#fdc9cb;}.cls-112{fill:#272628;}.cls-113{fill:#3a353a;}.cls-114{fill:#423d3e;}.cls-115{fill:#c9dfde;}.cls-116{fill:#220b17;}.cls-117{fill:#fa7d7c;}.cls-118{fill:#2a292a;}.cls-119{fill:#2f2c2c;}.cls-120{fill:#2c2828;}.cls-121{fill:#d34b49;}.cls-122{fill:#ece3e5;}.cls-123{fill:#ebfcfa;}.cls-124{fill:#efebe9;}.cls-125{fill:#2d2d2d;}.cls-126{fill:#1a1817;}.cls-127{fill:#3e3e3e;}.cls-128{fill:#eee3e2;}.cls-129{fill:#323232;}.cls-130{fill:#373737;}.cls-131{fill:#fa4f4c;}.cls-132{fill:#fb3f35;}.cls-133{fill:#f83f3d;}.cls-134{fill:#f70208;}.cls-135{fill:#fe614f;}.cls-136{fill:#f20f1a;}.cls-137{fill:#f60515;}.cls-138{fill:#fc6662;}.cls-139{fill:#eb0a18;}.cls-140{fill:#fc554e;}.cls-141{fill:#e70301;}.cls-142{fill:#fa3635;}.cls-143{fill:#f53d41;}.cls-144{fill:#161616;}.cls-145{fill:#f47e82;}.cls-146{fill:#4e4e4e;}.cls-147{fill:#101010;}.cls-148{fill:#060604;}.cls-149{fill:#272727;}.cls-150{fill:#defdfd;}.cls-151{fill:#f56965;}.cls-152{fill:#393939;}.cls-153{fill:#f86b6e;}.cls-154{fill:#e20306;}.cls-155{fill:#f80004;}.cls-156{fill:#fa5f4e;}.cls-157{fill:#f83b38;}.cls-158{fill:#fe4141;}.cls-159{fill:#f21825;}.cls-160{fill:#f91e2d;}.cls-161{fill:#f03c3c;}.cls-162{fill:#444142;}.cls-163{fill:#423f43;}.cls-164{fill:#f98f8e;}.cls-165{fill:#fac5c7;}.cls-166{fill:#f7eeed;}.cls-167{fill:#fcd9da;}.cls-168{fill:#313034;}.cls-169{fill:#fcd5d6;}.cls-170{fill:#393536;}.cls-171{fill:#121315;}.cls-172{fill:#393638;}.cls-173{fill:#312d2e;}.cls-174{fill:#080505;}.cls-175{fill:#2e2a2b;}.cls-176{fill:#110c14;}.cls-177{fill:#0b0808;}.cls-178{fill:#fe7980;}.cls-179{fill:#413a3f;}.cls-180{fill:#0a0706;}.cls-181{fill:#000a06;}.cls-182{fill:#080207;}.cls-183{fill:#121217;}.cls-184{fill:#282427;}.cls-185{fill:#fe8489;}.cls-186{fill:#fe8a90;}.cls-187{fill:#fe8e90;}.cls-188{fill:#fc8b8d;}.cls-189{fill:#fd0002;}.cls-190{fill:#fb6a68;}.cls-191{fill:#fe5f5a;}.cls-192{fill:#fa585c;}.cls-193{fill:#fa7e82;}.cls-194{fill:#050103;}.cls-195{fill:#cccbcb;}.cls-196{fill:#281d20;}.cls-197{fill:#262f29;}.cls-198{fill:#fa797a;}.cls-199{fill:#fc6f6b;}.cls-200{fill:#fe7572;}.cls-201{fill:#f50d08;}.cls-202{fill:#fd5d56;}.cls-203{fill:#fc9c9f;}.cls-204{fill:#221f23;}.cls-205{fill:#545454;}.cls-206{fill:#d1d1d1;}.cls-207{fill:#141414;}.cls-208{fill:#fb9698;}.cls-209{fill:#f7484e;}.cls-210{fill:#f42124;}.cls-211{fill:#ee767a;}.cls-212{fill:#fc9b93;}.cls-213{fill:#eb2a28;}.cls-214{fill:#fea7a9;}.cls-215{fill:#0b0607;}.cls-216{fill:#ef2832;}.cls-217{fill:#fe6c6a;}.cls-218{fill:#fe504b;}.cls-219{fill:#f83940;}.cls-220{fill:#ed4139;}.cls-221{fill:#fe625c;}.cls-222{fill:#d84033;}.cls-223{fill:#fe7576;}.cls-224{fill:#f60e27;}.cls-225{fill:#f5efef;}.cls-226{fill:#1e1c24;}.cls-227{fill:#1c2a2b;}.cls-228{fill:#111212;}.cls-229{fill:#0b0c0b;}.cls-230{fill:#0b0708;}.cls-231{fill:#241f21;}.cls-232{fill:#141011;}.cls-233{fill:#f66468;}.cls-234{fill:#fb8588;}.cls-235{fill:#110c0d;}.cls-236{fill:#171619;}.cls-237{fill:#ed7373;}.cls-238{fill:#fea8a9;}.cls-239{fill:#fe887d;}.cls-240{fill:#fe989a;}.cls-241{fill:#fb1327;}.cls-242{fill:#fe6b6a;}.cls-243{fill:#fce3e1;}.cls-244{fill:#fccdcd;}.cls-245{fill:#fcd7d9;}.cls-246{fill:#f8d8d6;}.cls-247{fill:#f1c4c8;}.cls-248{fill:#fdb7c3;}.cls-249{fill:#edc3c4;}
        </style>
    </defs>
    <g id="lLI02p.tif">
        <path class="cls-1" d="M167,8.09V249.86h-5.21V8.09H167Z"/>
        <ellipse class="cls-2" cx="1.6" cy="128.98" rx="1.84" ry="170.96"/>
        <path d="M161.74,257.66H5.5v-2.6H161.74Z"/>
        <path d="M5.5.29H159.14v2.6H5.5Z"/>
        <path class="cls-3"
              d="M5.5.29v2.6c-3.89.22-2.21,3.23-2.6,5.2H.3a12.43,12.43,0,0,0,0-2.59C-.72,1,1-.75,5.5.29Z"/>
        <path class="cls-3" d="M5.5,255.06v2.6c-5.2-.12-5.2-.12-5.2-7.8H2.9C3.29,251.83,1.61,254.84,5.5,255.06Z"/>
        <path class="cls-3" d="M167,8.09h-2.61q-1.29-3.9-2.6-7.8C167,.41,167,.41,167,8.09Z"/>
        <path class="cls-4" d="M161.74.29q1.31,3.9,2.6,7.8h-2.6l-2.6-2.6V.29Z"/>
        <path class="cls-3"
              d="M161.74,257.66v-2.6c3.9-.22,2.21-3.23,2.6-5.2H167a12.43,12.43,0,0,0,0,2.59C168,257,166.25,258.7,161.74,257.66Z"/>
        <path class="cls-5"
              d="M161.74,8.09V249.86l-2.6,2.6h-2.61V182.27c.87-.68,2.48-1.35,2.49-2q.25-14.85,0-29.72c0-.69-1.62-1.36-2.49-2V10.69c-.44-4.32-3.83-2.51-5.91-2.52-29.27-.12-58.55-.08-87.83-.08H47.17c-10.64,0-21.28,0-31.92,0-1.87,0-4.52-.9-4.54,2.57-3.57,2.62-3.57,5.19,0,7.8v2.6c-.87.68-2.46,1.32-2.49,2-.2,5.57-.2,11.16,0,16.74,0,.7,1.62,1.35,2.49,2V65.28C7,69.52,7,74,10.71,78.28v83.19c-3.57,2.62-3.57,5.19,0,7.8v10.4c-3.57,2.61-3.57,5.18,0,7.8v10.4c-.87.68-2.48,1.35-2.49,2q-.24,17.46,0,34.91c0,.69,1.62,1.36,2.49,2v5.2c-3.57,2.62-3.57,5.19,0,7.8v2.6H8.11l-2.61-2.6V8.09l2.61-2.6h151Z"/>
        <path class="cls-6" d="M159.14,252.46l2.6-2.6h2.6c-.39,2,1.3,5-2.6,5.2h-2.6Z"/>
        <ellipse class="cls-7" cx="4.2" cy="128.98" rx="1.84" ry="170.96"/>
        <path class="cls-8" d="M159.14,252.46v2.6H8.11v-2.6h151Z"/>
        <path class="cls-9" d="M8.11,252.46v2.6H5.5c-3.89-.22-2.21-3.23-2.6-5.2H5.5Z"/>
        <ellipse class="cls-10" cx="83.62" cy="4.19" rx="106.79" ry="1.84"/>
        <path class="cls-11" d="M8.11,2.89v2.6L5.5,8.09H2.9c.39-2-1.29-5,2.6-5.2Z"/>
        <path class="cls-10" d="M161.74,8.09l-2.6-2.6Z"/>
        <path class="cls-12"
              d="M10.71,99.08v-13h2.61l7.81-7.8v-7.8l-7.81-5.2v-2.6h5.2l2.61,2.6h2.6l2.61,2.6h5.2v2.6c-1.31.85-3.2,2.72-3.85,2.37-2-1.12-3.58-4.46-4.06,1.05-.31,3.68,2,5.28,4.28,6.93,4.19,3.09,9.18,2.76,14.05,2.65v2.6l-2.6,2.6c-3.87-2.92-6.52-2.19-7.82,2.6-2,.39-5-1.29-5.2,2.6H23.73l-2.6,2.6-2.61,2.6H10.71Z"/>
        <path class="cls-13"
              d="M10.71,21.09V10.69H39.36c-1.56,1.73-3,4.73-4.71,5-4.21.54-2.86,3.23-3.11,5.45l-2.6,2.6-2.6,2.6-5.21,5.2-5.21,2.6-2.16.85,2.16,1.75-2.6,2.6H10.71v-7.8h2.61l2.6-2.6-5.21-5.2Z"/>
        <path class="cls-14"
              d="M156.53,252.46H10.71v-2.6H94c2-.39,5,1.29,5.21-2.6h2.6c1.22,5,5.25,1.61,7.81,2.6h46.87Z"/>
        <path class="cls-15"
              d="M21.13,249.86H10.71v-20.8c4.5.07,9.19-.81,13,2.6a98.54,98.54,0,0,0,.12,9.88c.12,1.12,1.62,2.09,2.49,3.12,1.05.87,2.08,2.42,3.18,2.48,5,.27,10,.12,15,.12v2.6H23.73l-.86-2.16Z"/>
        <path class="cls-16"
              d="M10.71,132.88v-5.2l2.61-2.6a20.77,20.77,0,0,0,2.58-2c1.8-1.89,3.49-3.89,5.23-5.85,1.22,5,5.25,1.61,7.81,2.6-.25,4.15.94,9.32-1.09,12.23-3.37,4.82-.26,7.6,1.09,11.16H21.13Z"/>
        <path class="cls-10"
              d="M62.79,8.09c29.28,0,58.56,0,87.83.08,2.08,0,5.47-1.8,5.91,2.52H86.23c-4.16,0-8.33-.18-12.47.12-1.11.08-2.11,1.61-3.16,2.48H62.79Z"/>
        <path class="cls-17"
              d="M156.53,80.88v18.2c-3.77-.31-7.34.14-10.41,2.6h-2.61v-2.6c-.53-1.84-1-3.68-1.61-5.5-1.18-3.65-2.65-7.33,1.61-10.1l2.61-2.6h2.6c.66.87,1.31,1.74,2,2.6l3.24-2.6Z"/>
        <path class="cls-18"
              d="M21.13,143.27h13v13a99,99,0,0,0-9.9.12c-1.11.12-2.08,1.62-3.12,2.48H18.52l-2.6-2.6c-.22-3.89-3.23-2.21-5.21-2.6v-2.6c2.22-.24,4.92,1.1,5.46-3.1C16.4,146.22,19.39,144.83,21.13,143.27Z"/>
        <path class="cls-19"
              d="M146.12,101.68c3.07-2.46,6.64-2.91,10.41-2.6v26c-1.73-2-3.42-4-5.23-5.85a18.57,18.57,0,0,0-2.58-2C148.69,111.94,144.29,107.33,146.12,101.68Z"/>
        <path class="cls-20"
              d="M28.94,119.88c-2.56-1-6.59,2.41-7.81-2.6l-5.21-7.8c-.87-.87-1.74-1.73-2.6-2.6l-2.61-2.6v-5.2h5.21l2.6,2.6c-.15,4.73,1.5,7.87,6.84,7.8,2.06,0,4.12,0,6.18,0h2.61v7.8C32.17,117.67,29.16,116,28.94,119.88Z"/>
        <path class="cls-21"
              d="M156.53,47.09v2.6c-3.27-1.69-7.35,5.15-10.38-1.09-.64-1.32-5.1.65-5.18,2.53-.19,4.71-.06,9.44-.06,14.15l-2.61-2.6-2.6-2.59v-7.8c3.57-2.62,3.57-5.19,0-7.8v-2.6c2-.39,5,1.29,5.21-2.6h2.6l2.61,2.6h2.6Z"/>
        <path class="cls-22"
              d="M140.91,65.28c0-4.71-.13-9.44.06-14.15.08-1.88,4.54-3.85,5.18-2.53,3,6.24,7.11-.6,10.38,1.09v2.6a15,15,0,0,0-2.6,3.18v-.58a7.37,7.37,0,0,0-2,.78c-.16.12.28,1,.44,1.58a4.94,4.94,0,0,0,1.54-1.78,4.28,4.28,0,0,1,2.6-.58v5.2c-2,.39-5-1.29-5.21,2.59-1.88.59-3.75,1.25-5.66,1.73C144.1,64.81,142.49,65,140.91,65.28Z"/>
        <path class="cls-23"
              d="M156.53,249.86h-2.6c-.21-5.31,1.23-10.89-2.61-15.6q-1.29-2.59-2.6-5.2c-.31-3.76.14-7.33,2.6-10.4l2.61-2.59v-2.6h2.6Z"/>
        <path class="cls-24" d="M156.53,80.88h-2.6l-5.21-2.6h-2.6v-5.2l-2.61-5.2c4,.42,6.79-1.09,7.81-5.2h5.21Z"/>
        <path class="cls-25"
              d="M15.92,156.27l2.6,2.6v10.4l2.61,2.6v2.6c0,5-.15,10,.12,15,.06,1.1,1.61,2.12,2.48,3.18v2.6H13.32c5-5,5.77-11.09,5.29-17.77-.31-4.2-3.13-2.75-5.29-3H10.71v-2.6C16.94,168.17,15.84,162,15.92,156.27Z"/>
        <path class="cls-26"
              d="M156.53,135.48v5.19c-.87.68-2.46,1.33-2.49,2-.2,5.57-.2,11.16,0,16.73,0,.71,1.62,1.36,2.49,2v2.6c-2-.39-5,1.29-5.21-2.6-.86-2.87-1.6-5.79-2.68-8.57-.32-.81-1.66-1.23-2.52-1.83q1.29-6.49,2.6-13Z"/>
        <path class="cls-27" d="M13.32,174.47c2.16.28,5-1.17,5.29,3,.48,6.68-.28,12.8-5.29,17.77v2.6H10.71v-20.8Z"/>
        <path class="cls-28"
              d="M156.53,182.27v20.8h-2.6c-.39-2,1.29-5-2.61-5.2-.86-.87-1.73-1.74-2.6-2.6v-2.6q5-6.49,0-13l7.81-2.6Z"/>
        <path class="cls-29" d="M156.53,28.89v13h-7.81l-2.6-2.6V28.89Z"/>
        <path class="cls-30" d="M156.53,135.48l-7.81,2.6v-20.8a18.57,18.57,0,0,1,2.58,2c1.81,1.89,3.5,3.89,5.23,5.85Z"/>
        <path class="cls-31" d="M21.13,143.27c-1.74,1.56-4.73,2.95-5,4.7-.54,4.2-3.24,2.86-5.46,3.1V132.88Z"/>
        <path class="cls-32"
              d="M10.71,229.06v7.8c-.87-.68-2.48-1.35-2.49-2q-.24-17.46,0-34.91c0-.69,1.62-1.36,2.49-2v31.19Z"/>
        <path class="cls-10" d="M39.36,10.69H10.71c0-3.47,2.67-2.55,4.54-2.57,10.64-.06,21.28,0,31.92,0v2.6H39.36Z"/>
        <path class="cls-33"
              d="M156.53,182.27v-33.8c.87.68,2.48,1.35,2.49,2q.25,14.87,0,29.72C159,180.92,157.4,181.59,156.53,182.27Z"/>
        <path class="cls-34" d="M15.92,156.27c-.08,5.75,1,11.9-5.21,15.6v-18.2C12.69,154.06,15.7,152.38,15.92,156.27Z"/>
        <path class="cls-35" d="M47.17,10.69V8.09H62.79v5.2H52.37C52.15,9.4,49.14,11.08,47.17,10.69Z"/>
        <path class="cls-36"
              d="M156.53,148.47v13c-.87-.67-2.46-1.32-2.49-2-.2-5.57-.2-11.16,0-16.73,0-.71,1.62-1.36,2.49-2Z"/>
        <path class="cls-37" d="M13.32,86.08H10.71V65.28h2.61v20.8Z"/>
        <path class="cls-32"
              d="M10.71,31.49v10.4c-.87-.68-2.46-1.33-2.49-2-.2-5.58-.2-11.17,0-16.74,0-.71,1.62-1.35,2.49-2v10.4Z"/>
        <path class="cls-38" d="M13.32,125.08l-2.61,2.6v-20.8h2.61v18.2Z"/>
        <path class="cls-39" d="M156.53,28.89H146.12v-2.6c2.56-1,6.59,2.41,7.81-2.6h2.6Z"/>
        <ellipse class="cls-40" cx="155.23" cy="17.19" rx="1.84" ry="9.19"/>
        <path class="cls-32" d="M10.71,65.28v13C7,74,7,69.52,10.71,65.28Z"/>
        <path class="cls-41" d="M13.32,65.28H10.71V54.89h2.61V65.28Z"/>
        <ellipse class="cls-42" cx="155.23" cy="208.27" rx="1.84" ry="7.35"/>
        <path class="cls-43" d="M148.72,41.89h7.81v5.2Z"/>
        <ellipse class="cls-10" cx="12.01" cy="49.69" rx="1.84" ry="7.35"/>
        <path class="cls-32" d="M10.71,242.06v7.8C7.14,247.25,7.14,244.68,10.71,242.06Z"/>
        <path class="cls-32" d="M10.71,10.69v7.8C7.14,15.88,7.14,13.31,10.71,10.69Z"/>
        <path class="cls-32" d="M10.71,179.67v7.8C7.14,184.85,7.14,182.28,10.71,179.67Z"/>
        <path class="cls-32" d="M10.71,161.47v7.8C7.14,166.66,7.14,164.09,10.71,161.47Z"/>
        <path class="cls-44" d="M156.53,62.68h-5.21c.23-3.88,3.24-2.2,5.21-2.59Z"/>
        <path class="cls-45" d="M13.32,44.49H10.71v-5.2h2.61Z"/>
        <path class="cls-32" d="M5.5,8.09l2.61-2.6Z"/>
        <path class="cls-34" d="M13.32,174.47l-2.61,2.6v-2.6Z"/>
        <path class="cls-21" d="M153.93,54.89c.87-.87,1.73-1.74,2.6-2.6v2.6Z"/>
        <path class="cls-12" d="M13.32,106.88H10.71v-2.6Z"/>
        <path class="cls-46"
              d="M13.32,44.49v-5.2l2.6-2.6v-2.6l5.21-2.6,5.21,2.6a25,25,0,0,1,0,23.4l-2.16.85,2.16,1.75a12.46,12.46,0,0,0,15.62,0l2.6-2.6h2.61l2.6,2.6h2.6c1.23,5,5.25,1.6,7.82,2.59v2.6H55l-2.61,2.6h-26l-2.61-2.6h-2.6l-2.61-2.6h-2.6l-2.6-2.59V44.49Z"/>
        <path class="cls-47"
              d="M47.17,67.88H55c.87,1,2.37,2,2.48,3.12a95.72,95.72,0,0,1,.12,9.88v2.6H55c-2,.39-5-1.29-5.21,2.6H42v-2.6q-1.3-6.49-2.6-13C41.92,69.49,46,72.89,47.17,67.88Z"/>
        <path class="cls-48"
              d="M39.36,70.48q1.29,6.51,2.6,13c-4.87.11-9.86.44-14-2.65-2.25-1.65-4.59-3.25-4.28-6.93.48-5.51,2.05-2.17,4.06-1.05.65.35,2.54-1.52,3.85-2.37Z"/>
        <path class="cls-49"
              d="M47.17,86.08h13v2.6H57.58c-2,.39-5-1.29-5.21,2.6h-5.2l-2.61,2.6h-5.2c-2,.39-5-1.29-5.21,2.6H28.94l-2.6,2.6-2.61,2.6-2.6-2.6v-2.6l2.6-2.6h2.61c2-.39,5,1.29,5.2-2.6,2.57-1,6.59,2.41,7.82-2.6C41.92,87.69,46,91.09,47.17,86.08Z"/>
        <ellipse class="cls-50" cx="17.22" cy="74.38" rx="5.52" ry="5.51"/>
        <path class="cls-51" d="M39.36,70.48H31.54v-2.6H47.17C46,72.89,41.92,69.49,39.36,70.48Z"/>
        <path class="cls-52" d="M13.32,78.28h7.81l-7.81,7.8Z"/>
        <path class="cls-52" d="M21.13,70.48H13.32v-5.2Z"/>
        <path class="cls-53" d="M39.36,88.68c-1.23,5-5.25,1.61-7.82,2.6C32.84,86.49,35.49,85.76,39.36,88.68Z"/>
        <path class="cls-53" d="M47.17,86.08c-1.22,5-5.25,1.61-7.81,2.6l2.6-2.6Z"/>
        <path class="cls-53" d="M31.54,91.28c-.22,3.89-3.23,2.21-5.2,2.6C26.56,90,29.57,91.67,31.54,91.28Z"/>
        <path class="cls-53" d="M23.73,93.88l-2.6,2.6Z"/>
        <path class="cls-53" d="M21.13,96.48v2.6H18.52Z"/>
        <path class="cls-51" d="M23.73,65.28l2.61,2.6Z"/>
        <path class="cls-53" d="M18.52,101.68l-2.6-2.6h2.6Z"/>
        <path class="cls-51" d="M18.52,62.68l2.61,2.6Z"/>
        <path class="cls-52" d="M13.32,60.09l2.6,2.59h-2.6Z"/>
        <path class="cls-54"
              d="M39.36,10.69h5.2v2.6a11.34,11.34,0,0,1-2,2.56c-2.68,2-7.06,1.16-8.43,5.24H31.54c.25-2.22-1.1-4.91,3.11-5.45C36.4,15.42,37.8,12.42,39.36,10.69Z"/>
        <path class="cls-55" d="M26.34,34.09l-5.21-2.6,5.21-5.2,2.6,2.6v2.6Z"/>
        <path class="cls-56" d="M10.71,31.49v-7.8l5.21,5.2-2.6,2.6Z"/>
        <path class="cls-55" d="M31.54,21.09h2.61c-.22,3.89-3.24,2.21-5.21,2.6Z"/>
        <path class="cls-55" d="M26.34,26.29l2.6-2.6Z"/>
        <path class="cls-45" d="M15.92,34.09v2.6l-2.16-1.75Z"/>
        <path class="cls-57" d="M13.32,31.49l2.6-2.6Z"/>
        <path class="cls-58"
              d="M101.85,247.26h-2.6c-1-.87-2-2.3-3.08-2.48a46,46,0,0,0-7.34-.12c-.22-3.89-3.23-2.21-5.21-2.6l-2.6-2.6c-.39-2,1.29-5-2.61-5.2v-13c3.9-.22,2.22-3.22,2.61-5.19v-2.6a19.38,19.38,0,0,0,2.58-1.95c1.8-1.9,3.49-3.9,5.23-5.85h2.6c-.06,2.87-.49,6,4.14,5.23a22.58,22.58,0,0,1,3.68,0q1.29,3.9,2.6,7.79c1,2.56-2.41,6.59,2.6,7.8v2.6l2.61,2.6h7.81l2.6-2.6a9.25,9.25,0,0,1,3.8.76c.79.25.38-.25,0-.76l-1.16,1.16a12.36,12.36,0,0,0,1.56,1.16c.1.05.53-.5-.37-1.56a4.78,4.78,0,0,1-1.19-3.36c3.89-.22,2.21-3.22,2.6-5.2v-5.19c3.52-3.29,3.52-7.11,0-10.4v-5.2h2.6l2.61,2.6c0,8.45-.1,16.91.11,25.36,0,1.1,1.62,2.16,2.49,3.23h5.21q-1.3,3.9-2.6,7.8h-2.61c-2,.39-5-1.29-5.21,2.6-2,.39-5-1.29-5.2,2.6-5,0-10-.15-15,.12C103.93,244.84,102.91,246.39,101.85,247.26Z"/>
        <path class="cls-59"
              d="M60.19,249.86h-13v-13l5.2-5.2,7.82,2.6c2.46,3.07,2.91,6.64,2.6,10.4C58.9,244.88,60.58,247.89,60.19,249.86Z"/>
        <path class="cls-60" d="M151.32,234.26c3.84,4.71,2.4,10.29,2.61,15.6H138.3c.07-4.49-.81-9.17,2.61-13l2.6-2.6Z"/>
        <path class="cls-61" d="M81,249.86H62.79v-5.2c3.9-.22,2.21-3.23,2.6-5.2l7.82-2.6,2.6,2.6h2.6l2.61,7.8Z"/>
        <path class="cls-62"
              d="M135.7,249.86h-13l2.6-5.2v-2.6h5.21c2.88-.06,6-.49,5.24,4.13A22.47,22.47,0,0,0,135.7,249.86Z"/>
        <path class="cls-63"
              d="M135.7,249.86a22.47,22.47,0,0,1,0-3.67c.77-4.62-2.36-4.19-5.24-4.13v-2.6h2.61l7.81-2.6c-3.42,3.83-2.54,8.51-2.61,13Z"/>
        <path class="cls-64" d="M125.28,244.66l-2.6,5.2H112.27v-2.6c2.56-1,6.59,2.41,7.81-2.6Z"/>
        <path class="cls-65" d="M47.17,236.86v13H44.56v-13Z"/>
        <path class="cls-66" d="M109.66,249.86c-2.56-1-6.59,2.41-7.81-2.6h7.81Z"/>
        <path class="cls-66" d="M99.25,247.26c-.23,3.89-3.24,2.21-5.21,2.6v-2.6Z"/>
        <ellipse class="cls-67" cx="91.43" cy="248.56" rx="3.68" ry="1.84"/>
        <ellipse class="cls-68" cx="86.23" cy="248.56" rx="3.68" ry="1.84"/>
        <path class="cls-69" d="M62.79,244.66v5.2h-2.6C60.58,247.89,58.9,244.88,62.79,244.66Z"/>
        <path class="cls-70" d="M21.13,249.86l1.74-2.16.86,2.16Z"/>
        <circle class="cls-70" cx="82.32" cy="248.56" r="1.84"/>
        <circle class="cls-71" cx="110.96" cy="248.56" r="1.84"/>
        <path class="cls-72"
              d="M26.34,244.66c-.87-1-2.37-2-2.49-3.12a98.54,98.54,0,0,1-.12-9.88c3.33,0,6.66,0,10,0,4.24.09,2.77-3.05,3-5.22V216.07H42q-5.66,9.09,0,18.19H36.9C26.5,234.3,26.5,234.3,26.34,244.66Z"/>
        <path class="cls-73"
              d="M10.71,229.06v-2.6h2.61q6.39,1.18,5.2-5.2h2.61c.39,2-1.29,5,2.6,5.2v5.2C19.9,228.25,15.21,229.13,10.71,229.06Z"/>
        <path class="cls-74" d="M44.56,244.66v2.6c-5,0-10,.15-15-.12-1.1-.06-2.13-1.61-3.18-2.48Z"/>
        <path class="cls-75"
              d="M28.94,119.88c.22-3.89,3.23-2.21,5.21-2.6v26H28.94c-1.35-3.56-4.46-6.34-1.09-11.16C29.88,129.2,28.69,124,28.94,119.88Z"/>
        <path class="cls-76"
              d="M13.32,125.08v-15.6h2.6l5.21,7.8c-1.74,2-3.43,4-5.23,5.85A20.77,20.77,0,0,1,13.32,125.08Z"/>
        <path class="cls-77"
              d="M26.34,26.29l2.6-2.6c2-.39,5,1.29,5.21-2.6,1.37-4.08,5.75-3.29,8.43-5.24a11.34,11.34,0,0,0,2-2.56h26l13,2.6,2.61,5.2,2.6,2.6v15.6c-.87,0-1.74,0-2.6-3.14,0-4,.17-4.87,0-5.65-.37-1.37-1-2.67-1.47-4a13.75,13.75,0,0,0-1,3.32,61,61,0,0,0,0,7.53c0,.67.84,1.29,1.29,1.94.42-.42,1.16-.81,1.2-1.26.14-1.67.06-3.35.06-1.88v5.74c-3.9.22-2.22,3.23-2.61,5.2L81,49.69l-2.61,2.6-2.6,2.6-2.6,2.6H70.6L68,60.09c-3.9-.23-2.21-3.23-2.61-5.2,5-1.22,1.62-5.24,2.61-7.8v-5.2c-1-2.56,2.41-6.58-2.61-7.8l-7.81-5.2c-2.56,1-6.59-2.41-7.81,2.6-.72.28-1.75.35-2.1.88-4.15,6.13-3,13.13-3.11,19.92v5.2H36.75c0-8.46.1-16.91-.11-25.36,0-1.1-1.62-2.16-2.49-3.24H28.94Z"/>
        <path class="cls-78"
              d="M86.23,21.09l-2.61-5.2c3.9-.22,2.21-3.23,2.61-5.2h18.22c0,4.15.18,8.32-.12,12.45-.08,1.1-1.61,2.1-2.48,3.15H91.43l-2.6-2.6Z"/>
        <path class="cls-79"
              d="M107.06,10.69h13v10.4c-3.9.22-2.21,3.23-2.61,5.2l-2.6,2.6h-5.21c-1.37-2.93-3.4-5.51-2.71-9.22C107.49,16.77,107.06,13.69,107.06,10.69Z"/>
        <path class="cls-80" d="M153.93,10.69v13c-1.22,5-5.25,1.61-7.81,2.6l-2.61-2.6c-3.42-3.82-2.53-8.51-2.6-13Z"/>
        <path class="cls-81"
              d="M122.68,10.69h2.6v2.6c0,2.55,0,5.09,0,7.63,0,3.15,2.27,3.47,4.14,2.32,1.59-1,2.47-3.12,3.67-4.75h5.2v5.2c-2,.39-5-1.29-5.2,2.6-2,.39-5-1.29-5.21,2.6h-2.61c-1.37-2.93-3.39-5.51-2.71-9.22C123.11,16.77,122.68,13.69,122.68,10.69Z"/>
        <path class="cls-82"
              d="M122.68,10.69c0,3,.43,6.08-.11,9-.68,3.71,1.34,6.29,2.71,9.22H114.87l2.6-2.6c3.9-.22,2.21-3.23,2.61-5.2V10.69Z"/>
        <path class="cls-83"
              d="M86.23,10.69c-.4,2,1.29,5-2.61,5.2l-13-2.6c1.05-.87,2.05-2.4,3.16-2.48C77.9,10.51,82.07,10.69,86.23,10.69Z"/>
        <path class="cls-79"
              d="M125.28,13.29v-2.6h13v7.8h-5.2c.06-2.88.49-6-4.14-5.23A22.58,22.58,0,0,1,125.28,13.29Z"/>
        <path class="cls-84"
              d="M107.06,10.69c0,3,.43,6.08-.11,9-.69,3.71,1.34,6.29,2.71,9.22h-7.81v-2.6c.87-1.05,2.4-2.05,2.48-3.15.3-4.13.12-8.3.12-12.45Z"/>
        <path class="cls-85" d="M138.3,18.49v-7.8h2.61c.07,4.49-.82,9.18,2.6,13v2.6l-5.21-2.6Z"/>
        <path class="cls-86"
              d="M18.52,101.68v-2.6h2.61v2.6l2.6,2.6.86,2.16,1.75-2.16h13v57.19H28.94c-2,.39-5-1.29-5.21,2.6l-2.16.86,2.16,1.74c0,3.5,2.69,2.56,4.57,2.57,14.1.06,28.2,0,42.3,0l2.61-2.6v-2.6c-1-.86-1.95-2.3-3.08-2.48a46,46,0,0,0-7.34-.12H57.58V88.68h2.61c5,1.22,1.61,5.24,2.6,7.8v2.6c0,5.11.05,10.23,0,15.34,0,3.32,2.27,2.84,4.32,2.86,3.51,0,5.13-2.17,6.12-5.13.87-2.62,1.73-5.25,2.6-7.87l13-7.8,2.6,2.6v2.6l-2.6,2.6-5.21,7.8v2.6c-.87,1.09-2.45,2.15-2.49,3.26-.23,6.8,0,13.6-.13,20.4-.11,10.85,3.77,19.64,13,25.73.22,3.89,3.23,2.21,5.21,2.6.22,3.89,3.23,2.21,5.2,2.6,6.13-.52,12.65,1.69,18.23-2.6l2.6-2.6,2.61-2.6c2-.39,5,1.29,5.21-2.6v-2.6l2.6-2.6,2.6-2.6v-2.6c3.41-2.63,5.42-6,5.21-10.39v-20.8c-.39-2,1.29-5-2.6-5.2v-2.6l-5.21-7.8v-5.2h2.6l2.61,2.6,2.6,2.6h2.61c-1.83,5.65,2.57,10.26,2.6,15.6v20.8q-1.31,6.49-2.6,13c-3.41,2.64-5.42,6-5.21,10.4l-2.61,2.6c-7.41,4.92-14.62,9.9-23.59,12.2a16,16,0,0,1-12.86-1.8c-4.43.66-7.18-2.89-10.8-4.27-5.69-2.16-7.33-8.77-12.64-11.33l-2.6-2.6c-1.74-5.33-3.66-10.61-5.14-16-.9-3.28-3.34-2.27-5.09-2a4.21,4.21,0,0,0-2.66,3,82.34,82.34,0,0,0,0,12.95c.27,3.32,3.27,1.67,5.12,2.05l2.6,2.6h5.21c1,2.56-2.41,6.58,2.6,7.8v2.6l-2.6,2.6c-4.71,3.83-10.31,2.4-15.62,2.6,0-3.48-2.68-2.56-4.55-2.57-11.51-.06-23,0-34.51,0l-2.61-2.6v-7.8l2.61-2.6a95.88,95.88,0,0,0,9.89-.12c1.12-.11,2.09-1.61,3.13-2.48.87-.68,2.48-1.35,2.49-2q.22-22.65,0-45.3c0-.69-1.62-1.37-2.49-2.05l-2.61,2.6c-2.06,0-4.12,0-6.18,0C20,109.55,18.37,106.41,18.52,101.68Z"/>
        <path class="cls-87"
              d="M143.51,67.88l2.61,5.2c-3.9.23-2.22,3.23-2.61,5.2l-2.16.86,2.16,1.74v2.6c-4.26,2.77-2.79,6.45-1.61,10.1.58,1.82,1.08,3.66,1.61,5.5h-2.6l-2.61-2.6-2.6-2.6c-4.34-6.64-11.07-7.72-18.23-7.8q-1.29-2.6-2.6-5.2h5.21c2-.39,5,1.29,5.2-2.6,3.9-.22,2.22-3.23,2.61-5.2a15.23,15.23,0,0,0,2.53,0,12.48,12.48,0,0,0,2.21-.8l-2.14-1.77,7.81-7.8,2.61,2.6C141.78,66.15,142.64,67,143.51,67.88Z"/>
        <path class="cls-19" d="M148.72,78.28l5.21,2.6-3.24,2.6c-.66-.86-1.31-1.73-2-2.6Z"/>
        <path class="cls-19" d="M143.51,83.48v-5.2h2.61v2.6Z"/>
        <circle class="cls-87" cx="147.42" cy="79.58" r="1.84"/>
        <path class="cls-88" d="M140.91,99.08h2.6v2.6Z"/>
        <path class="cls-49"
              d="M34.15,106.88c.87.68,2.48,1.36,2.49,2.05q.22,22.65,0,45.3c0,.69-1.62,1.36-2.49,2V106.88Z"/>
        <path class="cls-49"
              d="M34.15,156.27c-1,.87-2,2.37-3.13,2.48a95.88,95.88,0,0,1-9.89.12c1-.86,2-2.36,3.12-2.48A99,99,0,0,1,34.15,156.27Z"/>
        <path class="cls-49" d="M21.13,158.87l-2.61,2.6v-2.6Z"/>
        <path class="cls-12" d="M15.92,109.48h-2.6v-2.6Z"/>
        <path class="cls-53" d="M34.15,106.88v2.6H31.54Z"/>
        <path class="cls-89"
              d="M120.08,80.88h-5.21V65.28c6.85-5.16,6.85-5.16,15.72-5.19,1.7,0,3.41,0,5.11,0l2.6,2.59-7.81,7.8-2.6,2.6c-3.9.23-2.21,3.23-2.61,5.2C123.31,78.67,120.3,77,120.08,80.88Z"/>
        <path class="cls-90"
              d="M135.7,41.89v10.4c-4.48,5.18-4.48,5.18-11.76,5.2h-3.86c-.57-2.74-.68-5.68-1.82-8.15-1.45-3.12-1.2-4.51,2.43-5,.75-.1,1.33-1.63,2-2.49,2.56-1,6.59,2.41,7.81-2.6h2.61Z"/>
        <path class="cls-91"
              d="M120.08,57.49h3.86c7.28,0,7.28,0,11.76-5.2v7.8c-1.7,0-3.41,0-5.11,0-8.87,0-8.87,0-15.72,5.19l-2.6-2.6,5.2-5.19Z"/>
        <path class="cls-92" d="M138.3,23.69l5.21,2.6v13h-2.6c-.07-4.49.82-9.18-2.61-13Z"/>
        <path class="cls-93" d="M143.51,39.29v-13h2.61v15.6Z"/>
        <path class="cls-94" d="M135.7,52.29v-7.8C139.27,47.1,139.27,49.67,135.7,52.29Z"/>
        <path class="cls-92" d="M135.7,41.89l-2.6-2.6h7.81C140.69,43.18,137.67,41.5,135.7,41.89Z"/>
        <path class="cls-43" d="M146.12,41.89v-2.6l2.6,2.6Z"/>
        <path class="cls-44"
              d="M143.51,67.88c-.87-.86-1.73-1.73-2.6-2.6,1.58-.28,3.19-.47,4.75-.87,1.91-.48,3.78-1.14,5.66-1.73C150.3,66.79,147.55,68.3,143.51,67.88Z"/>
        <path class="cls-21" d="M153.93,56.05l-1.54,1.2c-.16-.55-.6-1.46-.44-1.58a7.37,7.37,0,0,1,2-.78Z"/>
        <path class="cls-95"
              d="M140.91,236.86l-7.81,2.6q1.29-3.9,2.6-7.8v-2.6a15.49,15.49,0,0,0,2.55,0,11.83,11.83,0,0,0,2.21-.82,10.1,10.1,0,0,0-2.23-1.69,7.6,7.6,0,0,0-2.53-.06v-26h5.21c.87-.87,1.73-1.74,2.6-2.6a16.66,16.66,0,0,0-18.23,0l-2.6,2.6h-2.6l-2.61-2.6c-1-.87-2-2.3-3.08-2.48a45.9,45.9,0,0,0-7.33-.12v-2.6h2.6c2-.39,5,1.29,5.21-2.6h26c.22,3.89,3.23,2.21,5.21,2.6l2.6,2.6c.87.86,1.74,1.73,2.6,2.6,3.9.22,2.22,3.23,2.61,5.2v13l-2.61,2.59c-2.46,3.07-2.91,6.64-2.6,10.4l-5.21,5.2Z"/>
        <path class="cls-63" d="M143.51,234.26l5.21-5.2q1.31,2.61,2.6,5.2Z"/>
        <path class="cls-96" d="M151.32,218.66l2.61-2.59Z"/>
        <path class="cls-97" d="M146.12,78.28h-2.61c.39-2-1.29-5,2.61-5.2Z"/>
        <path class="cls-98"
              d="M23.73,192.67c-.87-1.06-2.42-2.08-2.48-3.18-.27-5-.12-10-.12-15h7.81v2.6c4.57,3.82-1,9.57,2.6,13.58-.87.67-1.67,1.74-2.64,1.93A27.82,27.82,0,0,1,23.73,192.67Z"/>
        <path class="cls-49" d="M28.94,174.47H21.13v-2.6c11.5,0,23,0,34.51,0,1.87,0,4.53-.91,4.55,2.57H28.94Z"/>
        <path class="cls-99"
              d="M23.73,192.67a27.82,27.82,0,0,0,5.17-.09c1-.19,1.77-1.26,2.64-1.93-3.55-4,2-9.76-2.6-13.58,1.56.26,4.45.39,4.5.81.7,6.76,2.32,13.68-1.9,20h-2.6c-.22-3.89-3.23-2.21-5.21-2.6Z"/>
        <path class="cls-100"
              d="M13.32,197.87v-2.6H23.73c.22,3.89,3.24,2.21,5.21,2.6v5.2c-3-1.66-5.82-3.53-8.92-4.89-1.84-.81-4-.77-4.1,2.29h-2.6Z"/>
        <path class="cls-49" d="M18.52,169.27l2.61,2.6Z"/>
        <path class="cls-101"
              d="M156.53,164.07v13l-7.81,2.6h-2.6l-7.82-5.2v-7.8q2.61-2.59,5.21-5.2h7.81C151.55,165.36,154.56,163.68,156.53,164.07Z"/>
        <path class="cls-102"
              d="M151.32,161.47H140.91c-.21-4.43,1.8-7.76,5.21-10.4.86.6,2.2,1,2.52,1.83C149.72,155.68,150.46,158.6,151.32,161.47Z"/>
        <path class="cls-103" d="M13.32,197.87v7.8H10.71v-7.8Z"/>
        <path class="cls-104"
              d="M146.12,179.67h2.6q5,6.5,0,13h-2.6l-2.61-2.6C143.2,186.31,143.65,182.74,146.12,179.67Z"/>
        <path class="cls-105" d="M151.32,197.87c-.86-.87-1.73-1.74-2.6-2.6C149.59,196.13,150.46,197,151.32,197.87Z"/>
        <path class="cls-105" d="M146.12,192.67h2.6v2.6Z"/>
        <path class="cls-103" d="M13.32,226.46H10.71V210.87l2.61,2.6Z"/>
        <path class="cls-100" d="M13.32,213.47l-2.61-2.6v-5.2h2.61l5.2,5.2v2.6h-5.2Z"/>
        <path class="cls-106" d="M52.37,13.29H44.56v-2.6h2.61C49.14,11.08,52.15,9.4,52.37,13.29Z"/>
        <path class="cls-107"
              d="M57.58,80.88A95.72,95.72,0,0,0,57.46,71c-.11-1.11-1.61-2.08-2.48-3.12v-2.6h5.21L68,62.68C69.73,64,72.35,65,73,66.73c1,2.7.15,5.47-2.22,8-1.06,1.11-.18,4.08-.18,6.2L68,83.48H60.19Z"/>
        <path class="cls-108"
              d="M26.34,57.49a25,25,0,0,0,0-23.4c2.21.24,5.32-1.17,5.23,3.13-.11,5.89,0,11.78,0,17.67v2.6Z"/>
        <path class="cls-109" d="M68,62.68l-7.81,2.6V60.09l2.6-2.6,2.6-2.6c.4,2-1.29,5,2.61,5.2Z"/>
        <path class="cls-51" d="M42,60.09a12.46,12.46,0,0,1-15.62,0Z"/>
        <path class="cls-110" d="M52.37,60.09h-2.6v-2.6h7.81v2.6Z"/>
        <path class="cls-51" d="M52.37,60.09h7.82v2.59C57.62,61.69,53.6,65.09,52.37,60.09Z"/>
        <path class="cls-51" d="M44.56,57.49v-5.2c3.9.22,2.21,3.22,2.61,5.2Z"/>
        <path class="cls-51" d="M55,65.28v2.6H52.37Z"/>
        <path class="cls-51" d="M49.77,57.49v2.6l-2.6-2.6Z"/>
        <path class="cls-51" d="M42,57.49h2.6L42,60.09Z"/>
        <path class="cls-51" d="M26.34,60.09l-2.16-1.75,2.16-.85Z"/>
        <path class="cls-53" d="M60.19,86.08H55v-2.6h5.21Z"/>
        <path class="cls-111" d="M55,83.48v2.6H49.77C50,82.19,53,83.87,55,83.48Z"/>
        <path class="cls-111" d="M60.19,83.48H57.58v-2.6Z"/>
        <path class="cls-112"
              d="M73.21,164.07v2.6l-2.61,2.6c-14.1,0-28.2,0-42.3,0-1.88,0-4.55.93-4.57-2.57v-2.6h5.21a95.84,95.84,0,0,0,9.89-.12c1.12-.11,2.09-1.61,3.13-2.48a19.71,19.71,0,0,0,3.14,1.8c5.61,2,7.24,1.15,7.25-4,.06-20.68.07-41.37-.09-62.06,0-1.11-1.62-2.22-2.49-3.33v-2.6H55c1,2.56-2.41,6.58,2.6,7.8v2.6c-.87.68-2.49,1.36-2.49,2q-.21,27.84,0,55.69c0,.69,1.62,1.37,2.49,2.05h5.21c1,.87,1.95,2.3,3.08,2.48A46,46,0,0,0,73.21,164.07Z"/>
        <path class="cls-113"
              d="M31.54,104.28H23.73v-2.6l2.61-2.6,2.6-2.6H39.36l2.6-2.6h7.81c-8.37,7.37-8.38,7.26-14.94,7.91C33.66,101.9,32.64,103.41,31.54,104.28Z"/>
        <path class="cls-53"
              d="M62.79,96.48c-1-2.56,2.41-6.58-2.6-7.8v-2.6L65,87C64.33,90.15,68.26,94.38,62.79,96.48Z"/>
        <path class="cls-53" d="M39.36,96.48H34.15c.22-3.89,3.23-2.21,5.21-2.6Z"/>
        <path class="cls-53" d="M55,91.28H52.37c.23-3.89,3.24-2.21,5.21-2.6v2.6Z"/>
        <path class="cls-53" d="M47.17,93.88H44.56l2.61-2.6Z"/>
        <circle class="cls-114" cx="48.47" cy="92.58" r="1.84"/>
        <path class="cls-114" d="M39.36,96.48v-2.6H42Z"/>
        <path class="cls-53" d="M28.94,96.48l-2.6,2.6Z"/>
        <path class="cls-115" d="M21.13,101.68v-2.6l2.6,2.6Z"/>
        <path class="cls-116"
              d="M31.54,54.89c0-5.89-.08-11.78,0-17.67.09-4.3-3-2.89-5.23-3.13l2.6-2.6,2.6-2.6h2.61c0,7.59.1,15.18-.12,22.77C34,52.76,32.41,53.81,31.54,54.89Z"/>
        <path class="cls-108" d="M31.54,28.89l-2.6,2.6v-2.6Z"/>
        <path class="cls-117"
              d="M88.83,205.67c-1.74,2-3.43,4-5.23,5.85A19.38,19.38,0,0,1,81,213.47l-2.61-2.6H68v-5.2c1.58-1.69,4.67-9.38,5.21-13h2.6c3.83,3.41,8.52,2.53,13,2.6-.54,1-1,2-1.62,2.9-1.55,2.35-1.95,4.26,1.62,4.9Z"/>
        <path class="cls-118"
              d="M122.68,203.07v2.6c-.87,1-2.37,2-2.48,3.12a95.49,95.49,0,0,0-.12,9.87v7.8h-2.61v-5.2c-.46-5.22-.17-10.65-1.56-15.62-1.75-6.21-2.35-6-8.85-2.57h-2.61l2.61-5.2h10.41l2.61,2.6Z"/>
        <path class="cls-119"
              d="M135.7,229.06v2.6h-5.21c0-9.31.09-18.63-.11-27.95,0-1.1-1.62-2.16-2.49-3.24h-2.61v-2.6H135.7v2.6c-.74.3-2.11.59-2.12.9q-.17,13.4,0,26.79C133.59,228.47,135,228.76,135.7,229.06Z"/>
        <path class="cls-120"
              d="M101.85,218.66q-1.3-3.89-2.6-7.79c5-1.22,1.61-5.24,2.6-7.8h2.6c.4,2-1.29,5,2.61,5.2v18.19h-2.61C103.46,223.91,106.87,219.88,101.85,218.66Z"/>
        <path class="cls-121" d="M78.41,210.87l2.61,2.6v2.6c-3.9.22-2.21,3.22-2.61,5.19v18.2h-2.6V216.07Z"/>
        <path class="cls-122"
              d="M127.89,200.47c.87,1.08,2.46,2.14,2.49,3.24.2,9.32.11,18.64.11,27.95-.87-1.07-2.46-2.13-2.49-3.23-.21-8.45-.11-16.91-.11-25.36Z"/>
        <path class="cls-123"
              d="M99.25,210.87a22.58,22.58,0,0,0-3.68,0c-4.63.76-4.2-2.36-4.14-5.23v-2.6c4,.41,6.8-1.1,7.82-5.2,3.89.22,2.21,3.23,2.6,5.2C96.83,204.29,100.24,208.31,99.25,210.87Z"/>
        <path class="cls-124"
              d="M112.27,247.26H101.85c1.06-.87,2.08-2.42,3.18-2.48,5-.27,10-.12,15-.12C118.86,249.67,114.83,246.27,112.27,247.26Z"/>
        <path class="cls-125" d="M104.45,226.46h5.21c.22,3.89,3.24,2.21,5.21,2.6v2.6h-7.81l-2.61-2.6Z"/>
        <path class="cls-126" d="M120.08,218.66a95.49,95.49,0,0,1,.12-9.87c.11-1.12,1.61-2.09,2.48-3.12v13Z"/>
        <path class="cls-124" d="M94,247.26H88.83v-2.6a46,46,0,0,1,7.34.12c1.13.18,2.06,1.61,3.08,2.48Z"/>
        <path class="cls-124" d="M122.68,216.07v-10.4C126.2,209,126.2,212.78,122.68,216.07Z"/>
        <path class="cls-127" d="M101.85,218.66c5,1.22,1.61,5.25,2.6,7.8C99.44,225.25,102.84,221.22,101.85,218.66Z"/>
        <path class="cls-124" d="M125.28,244.66h-5.2c.22-3.89,3.23-2.21,5.2-2.6Z"/>
        <path class="cls-124" d="M83.62,242.06c2,.39,5-1.29,5.21,2.6H83.62Z"/>
        <path class="cls-124" d="M130.49,239.46v2.6h-5.21C125.51,238.17,128.52,239.85,130.49,239.46Z"/>
        <path class="cls-124" d="M78.41,239.46v-5.2c3.9.22,2.22,3.23,2.61,5.2Z"/>
        <path class="cls-124" d="M120.08,226.46v-5.2h2.6C122.29,223.24,124,226.24,120.08,226.46Z"/>
        <path class="cls-124" d="M78.41,221.26c.4-2-1.29-5,2.61-5.19C80.63,218,82.31,221,78.41,221.26Z"/>
        <path class="cls-122" d="M125.28,197.87v2.6h-2.6Z"/>
        <path class="cls-122" d="M122.68,203.07l-2.6-2.6h2.6Z"/>
        <path class="cls-124" d="M127.89,200.47v2.6l-2.61-2.6Z"/>
        <circle class="cls-128" cx="90.13" cy="204.37" r="1.84"/>
        <circle class="cls-129" cx="121.38" cy="219.96" r="1.84"/>
        <circle class="cls-129" cx="118.78" cy="227.76" r="1.84"/>
        <path class="cls-124" d="M104.45,229.06l2.61,2.6Z"/>
        <path class="cls-130" d="M114.87,231.66v-2.6h2.6Z"/>
        <path class="cls-124" d="M122.47,230.58c-.3.3-.73.85-.83.8a12.36,12.36,0,0,1-1.56-1.16l1.16-1.16Z"/>
        <path class="cls-124" d="M81,239.46l2.6,2.6Z"/>
        <path class="cls-131"
              d="M60.19,234.26l-7.82-2.6v-2.6c5-1.22,1.62-5.24,2.61-7.8h2.6c-.21,4.44-.55,9,5.21,10.4v2.6Z"/>
        <path class="cls-69" d="M60.19,234.26h5.2v5.2c-.39,2,1.3,5-2.6,5.2C63.1,240.9,62.65,237.33,60.19,234.26Z"/>
        <ellipse class="cls-132" cx="49.77" cy="232.96" rx="5.37" ry="1.26"
                 transform="translate(-157.71 115.91) rotate(-48.51)"/>
        <path class="cls-63" d="M140.91,236.86l2.6-2.6Z"/>
        <path class="cls-133"
              d="M65.39,239.46v-5.2c7.9-.34,7.49-.37,8-6.68.28-3.62-1.42-6.08-2.76-8.92l2.61-2.59h2.6v20.79h-2.6Z"/>
        <path class="cls-68" d="M81,239.46l2.6,2.6v5.2H81l-2.61-7.8Z"/>
        <path class="cls-68" d="M73.21,236.86h2.6v2.6Z"/>
        <path class="cls-134" d="M44.56,244.66H26.34c.16-10.36.16-10.36,10.56-10.4H42l2.6,2.6Z"/>
        <path class="cls-135" d="M44.56,236.86l-2.6-2.6h5.21v2.6Z"/>
        <ellipse class="cls-67" cx="86.23" cy="245.96" rx="3.68" ry="1.84"/>
        <path class="cls-136"
              d="M47.17,234.26H42q-5.66-9.09,0-18.19h7.81L55,221.26c-1,2.56,2.41,6.58-2.61,7.8C50.64,230.8,48.9,232.53,47.17,234.26Z"/>
        <path class="cls-137"
              d="M23.73,229.06v-7.8c3.9-.22,2.21-3.22,2.61-5.19v-2.6c.86-.87,1.73-1.74,2.6-2.6h5.21c.87,1.73,1.73,3.46,2.6,5.2v10.39C32.92,229.88,28.23,229,23.73,229.06Z"/>
        <path class="cls-138"
              d="M49.77,216.07H39.36v-2.6H42c2.88.06,6,.49,5.24-4.14a22.34,22.34,0,0,1,0-3.66v-7.8h5.2c-1.37,2.92-3.39,5.51-2.71,9.22C50.2,210,49.77,213.07,49.77,216.07Z"/>
        <path class="cls-139" d="M23.73,229.06c4.5-.07,9.19.82,13-2.6-.27,2.17,1.2,5.31-3,5.22-3.32-.07-6.65,0-10,0Z"/>
        <path class="cls-140"
              d="M39.36,213.47v2.6H36.75c-.87-1.74-1.73-3.47-2.6-5.2C36.12,211.26,39.13,209.58,39.36,213.47Z"/>
        <path class="cls-141" d="M13.32,213.47h2.6l2.6,7.79q1.18,6.39-5.2,5.2Z"/>
        <path class="cls-142" d="M18.52,221.26l-2.6-7.79h7.81v2.6l-2.16.85,2.16,1.74v2.6H18.52Z"/>
        <path class="cls-139" d="M21.13,221.26h2.6v5.2C19.84,226.24,21.52,223.24,21.13,221.26Z"/>
        <path class="cls-143"
              d="M101.85,26.29v18.2h-2.6c-.4-2,1.29-5-2.61-5.2L94,41.89c-.22,3.89-3.24,2.21-5.21,2.6v-7.8c.87-1,2.3-1.95,2.49-3.08a47,47,0,0,0,.11-7.32H94l2.6,2.6v2.6a15.35,15.35,0,0,0,0,2.54,13.43,13.43,0,0,0,.82,2.21A10,10,0,0,0,99.19,34a7.6,7.6,0,0,0,.06-2.53l-2.61-2.6v-2.6Z"/>
        <path class="cls-144"
              d="M49.77,57.49h-2.6c-.4-2,1.29-5-2.61-5.2.13-6.79-1-13.79,3.11-19.92.35-.53,1.38-.6,2.1-.88h2.6v2.6q-5.92,10.39,0,20.8Z"/>
        <path class="cls-145"
              d="M70.6,57.49h2.61l2.6-2.6,2.6-2.6L81,49.69l2.6-2.6h2.61v10.4q-2.37,1.69-4.72,3.41c-3.65,2.65-6.34,2.45-10.91-.81Z"/>
        <path class="cls-146"
              d="M52.37,34.09v-2.6c2-.39,5,1.29,5.21-2.6l7.81,5.2v2.6c-.86,1-2.37,2-2.48,3.12a95.65,95.65,0,0,0-.12,9.88h-2.6c0-2.94,0-5.87,0-8.81C60.1,34.42,60.08,34.42,52.37,34.09Z"/>
        <path class="cls-147"
              d="M31.54,54.89c.87-1.08,2.46-2.13,2.49-3.23.22-7.59.12-15.18.12-22.77C35,30,36.61,31,36.64,32.13c.21,8.45.11,16.9.11,25.36H31.54Z"/>
        <path class="cls-148"
              d="M62.79,49.69a95.65,95.65,0,0,1,.12-9.88c.11-1.12,1.62-2.09,2.48-3.12.4,2-1.29,5,2.61,5.2v5.2l-2.61,2.6Z"/>
        <path class="cls-149" d="M31.54,57.49H42v2.6H26.34v-2.6Z"/>
        <path class="cls-150"
              d="M86.23,33c0,1.68.08,3.36-.06,5,0,.45-.78.84-1.2,1.26-.45-.65-1.25-1.27-1.29-1.94a61,61,0,0,1,0-7.53,13.75,13.75,0,0,1,1-3.32c.5,1.33,1.1,2.63,1.47,4A9.92,9.92,0,0,1,86.23,33Z"/>
        <path class="cls-151" d="M91.43,26.29a47,47,0,0,1-.11,7.32c-.19,1.13-1.62,2.06-2.49,3.08v-13Z"/>
        <path class="cls-109" d="M65.39,49.69,68,47.09c-1,2.56,2.41,6.58-2.61,7.8Z"/>
        <path class="cls-152" d="M57.58,28.89c-.22,3.89-3.23,2.21-5.21,2.6h-2.6C51,26.48,55,29.88,57.58,28.89Z"/>
        <path class="cls-109" d="M68,41.89c-3.9-.22-2.21-3.23-2.61-5.2v-2.6C70.41,35.31,67,39.33,68,41.89Z"/>
        <path class="cls-109" d="M86.23,47.09H83.62c.39-2-1.29-5,2.61-5.2v5.2Z"/>
        <circle class="cls-153" cx="87.53" cy="40.59" r="1.84"/>
        <path class="cls-151" d="M86.23,21.09l2.6,2.6Z"/>
        <path class="cls-109" d="M70.6,57.49v2.6H68Z"/>
        <path class="cls-109" d="M75.81,54.89l-2.6,2.6Z"/>
        <path class="cls-109" d="M78.41,52.29l-2.6,2.6Z"/>
        <path class="cls-109" d="M81,49.69l-2.61,2.6Z"/>
        <path class="cls-109" d="M83.62,47.09,81,49.69Z"/>
        <path class="cls-151" d="M96.64,26.29v2.6L94,26.29Z"/>
        <path class="cls-84" d="M109.66,28.89h5.21v2.6l-5.21,2.6Z"/>
        <path class="cls-154" d="M120.08,21.09c-.4,2,1.29,5-2.61,5.2C117.87,24.32,116.18,21.31,120.08,21.09Z"/>
        <path class="cls-92" d="M146.12,26.29h-2.61v-2.6Z"/>
        <path class="cls-155"
              d="M125.28,13.29a22.58,22.58,0,0,0,3.68,0c4.63-.76,4.2,2.35,4.14,5.23-1.2,1.63-2.08,3.76-3.67,4.75-1.87,1.15-4.11.83-4.14-2.32C125.26,18.38,125.28,15.84,125.28,13.29Z"/>
        <path class="cls-156" d="M125.28,28.89h2.61v2.6c.39,2-1.29,5,2.6,5.2v2.6h-5.21V28.89Z"/>
        <path class="cls-157" d="M127.89,31.49v-2.6c.22-3.89,3.23-2.21,5.21-2.6v2.6Z"/>
        <path class="cls-158" d="M138.3,23.69v2.6h-5.2C133.32,22.4,136.33,24.08,138.3,23.69Z"/>
        <path class="cls-159" d="M125.28,28.89v7.8c-1-.57-2.46-.89-2.93-1.75-2.18-4-4.75-2.76-7.48-.85v-5.2Z"/>
        <path class="cls-160" d="M101.85,44.49V28.89h5.21c.39,2-1.29,5,2.6,5.2l-5.21,10.4Z"/>
        <path class="cls-161" d="M109.66,34.09c-3.89-.22-2.21-3.23-2.6-5.2h2.6Z"/>
        <path class="cls-162"
              d="M135.7,99.08v2.6a7,7,0,0,0-2,.79c-.17.12.27,1,.43,1.57a4.85,4.85,0,0,0,1.54-1.78,77.8,77.8,0,0,1,5.21,7.22c-3.57,2.61-3.57,5.18,0,7.8v15.6c-.71.27-1.95.42-2,.84-1.15,4.9-2.13,9.83-3.16,14.75v2.6c-3.89.23-2.21,3.23-2.6,5.2l-2.61,2.6h-2.6l-2.61-2.6,2.61-2-2.61-3.24c.87-2.61,2.3-5.19,2.49-7.85.39-5.5-.55-11.15.28-16.55,1.22-7.91-2.62-14.18-5.47-20.77-1.1-2.54-3.37-4.56-5.11-6.82l2.16-.86-2.16-1.74a21.06,21.06,0,0,0-2-2.58c-1-1-2.14-1.75-3.21-2.62,5.41-.43,10.53.19,15.22,3.37,1.56,1.07,3.72,1.25,5.61,1.83Z"/>
        <path class="cls-114"
              d="M31.54,104.28c1.1-.87,2.12-2.38,3.29-2.49,6.56-.65,6.57-.54,14.94-7.91.87,1.11,2.49,2.22,2.49,3.33.16,20.69.15,41.38.09,62.06,0,5.15-1.64,6-7.25,4a19.71,19.71,0,0,1-3.14-1.8c0-17.54,0-35.07,0-52.61,0-1.87.94-4.56-2.57-4.58Z"/>
        <path class="cls-163"
              d="M94,164.07c-9.27-6.09-13.15-14.88-13-25.73.08-6.8-.1-13.6.13-20.4,0-1.11,1.62-2.17,2.49-3.26l2.61-2.6,5.2,2.6c0,7.59-.1,15.18.12,22.77,0,1.1,1.62,2.15,2.49,3.22a45.9,45.9,0,0,0,.12,7.33c.18,1.13,1.61,2.05,2.48,3.07.39,2-1.29,5,2.61,5.2l.85,2.16,1.75-2.16c4.48,5.18,4.48,5.18,11.76,5.2h3.86l-2.6,2.6H96.64l-.86-2.15Z"/>
        <path class="cls-111"
              d="M62.79,96.48c5.47-2.1,1.54-6.33,2.17-9.53l-4.77-.87v-2.6H68l2.6-2.6c5.23,3,10.42,4,16.17,1,2-1.06,4.82-.67,7.27-1q10.41,5.93,20.83,0,1.3,2.61,2.6,5.2c-3,0-6.06.15-9.07,0-8.7-.51-15.35,2.65-19.57,10.43l-13,7.8c-4.27-1.9-7.14-7.3-13-5.2Z"/>
        <path class="cls-164"
              d="M138.3,166.67v7.8l-2.6,2.6h-2.6l-2.61,2.6h-2.6c-2.12-1.28-2.26,2.62-5.86,1.26-10.93-4.12-12.19-2.61-12.37,9.14v2.6h-2.6l-7.81,5.2H96.64l-2.6-5.2v-10.4c2-1.73,4-3.42,5.86-5.22a18.57,18.57,0,0,0,1.95-2.58,16,16,0,0,0,12.86,1.8c9-2.3,16.18-7.28,23.59-12.2Z"/>
        <path class="cls-165"
              d="M101.85,174.47a18.57,18.57,0,0,1-1.95,2.58c-1.9,1.8-3.9,3.49-5.86,5.22-.73-.29-1.44-.61-2.18-.87C84.92,179,78.2,174,70.6,179.67c-2.93-1.37-5.52-3.39-9.24-2.71-2.9.54-6,.11-9,.11l-2.6-2.6H60.19c5.31-.2,10.91,1.23,15.62-2.6l2.6-2.6v-10.4c5.31,2.56,7,9.17,12.64,11.33C94.67,171.58,97.42,175.13,101.85,174.47Z"/>
        <path class="cls-166"
              d="M88.83,96.48C93.05,88.7,99.7,85.54,108.4,86.05c3,.18,6,0,9.07,0,7.16.08,13.89,1.16,18.23,7.8v2.6h-2.6c-1.89-.58-4-.76-5.61-1.83-4.69-3.18-9.81-3.8-15.22-3.37-5.86-.19-11.23,1-15.63,5.2L94,99.08H91.43Z"/>
        <path class="cls-167"
              d="M68,156.27c-1.85-.38-4.85,1.27-5.12-2.05a82.34,82.34,0,0,1,0-12.95,4.21,4.21,0,0,1,2.66-3c1.75-.25,4.19-1.26,5.09,2,1.48,5.4,3.4,10.68,5.14,16v2.6H70.6Z"/>
        <path class="cls-168"
              d="M96.64,96.48c4.4-4.15,9.77-5.39,15.63-5.2,1.07.87,2.23,1.66,3.21,2.62a21.06,21.06,0,0,1,2,2.58l-2.6,2.6c-4.5.07-9.19-.82-13,2.6-.87.87-1.74,1.73-2.6,2.6v2.6H94a9.33,9.33,0,0,1,.75-3.79c.26-.79-.25-.38-.75,0l1.16,1.16a11.78,11.78,0,0,0,1.16-1.57c0-.09-.51-.52-1.57.38a4.78,4.78,0,0,1-3.36,1.19v-5.2H94Z"/>
        <path class="cls-169"
              d="M62.79,99.08c5.88-2.1,8.75,3.3,13,5.2-.87,2.62-1.73,5.25-2.6,7.87-1,3-2.61,5.17-6.12,5.13-2,0-4.36.46-4.32-2.86C62.84,109.31,62.79,104.19,62.79,99.08Z"/>
        <path class="cls-170"
              d="M57.58,161.47c-.87-.68-2.49-1.36-2.49-2.05q-.21-27.84,0-55.69c0-.69,1.62-1.37,2.49-2Z"/>
        <path class="cls-49" d="M39.36,104.28c3.51,0,2.56,2.71,2.57,4.58,0,17.54,0,35.07,0,52.61h-2.6Z"/>
        <path class="cls-171"
              d="M114.87,164.07l2.6-2.6h7.81v2.6l-2.6,2.6c-5.58,4.29-12.1,2.08-18.23,2.6v-2.6h2.61C109.62,165.68,113.65,169.08,114.87,164.07Z"/>
        <path class="cls-172" d="M91.43,104.28H94v10.4H91.43l-5.2-2.6H83.62l5.21-7.8.86,2.16Z"/>
        <path class="cls-173"
              d="M135.7,148.47c1-4.92,2-9.85,3.16-14.75.1-.42,1.34-.57,2-.84.39,2-1.29,5,2.6,5.2.21,4.43-1.8,7.76-5.21,10.39Z"/>
        <path class="cls-174" d="M143.51,138.08c-3.89-.23-2.21-3.23-2.6-5.2v-15.6h2.6Z"/>
        <path class="cls-175" d="M107.06,166.67H99.25c-2-.39-5,1.29-5.21-2.6h13Z"/>
        <path class="cls-114" d="M39.36,161.47H42c-1,.87-2,2.37-3.13,2.48a95.84,95.84,0,0,1-9.89.12v-2.6Z"/>
        <path class="cls-49"
              d="M73.21,164.07a46,46,0,0,1-7.34-.12c-1.13-.18-2.06-1.61-3.08-2.48a46,46,0,0,1,7.34.12C71.26,161.77,72.19,163.21,73.21,164.07Z"/>
        <path class="cls-176" d="M55,91.28h2.6v7.8C52.57,97.86,56,93.84,55,91.28Z"/>
        <path class="cls-49" d="M78.41,158.87v7.8c-5-1.22-1.61-5.24-2.6-7.8Z"/>
        <path class="cls-177" d="M140.91,117.28c-3.57-2.62-3.57-5.19,0-7.8v7.8Z"/>
        <path class="cls-178" d="M138.3,166.67v-2.6l2.61-2.6h2.6Q140.92,164.08,138.3,166.67Z"/>
        <path class="cls-49" d="M28.94,161.47v2.6H23.73C24,160.18,27,161.86,28.94,161.47Z"/>
        <path class="cls-162" d="M140.91,117.28v-5.2c3.89.22,2.21,3.23,2.6,5.2Z"/>
        <path class="cls-179" d="M99.25,166.67h5.2v2.6C102.48,168.88,99.47,170.56,99.25,166.67Z"/>
        <path class="cls-180" d="M127.89,158.87h5.21c-.23,3.89-3.24,2.21-5.21,2.6Z"/>
        <path class="cls-181" d="M133.1,156.27c.39-2-1.29-5,2.6-5.2v2.6Z"/>
        <path class="cls-49" d="M68,156.27l2.6,2.6Z"/>
        <path class="cls-165" d="M78.41,158.87h-2.6v-2.6Z"/>
        <path class="cls-88" d="M135.7,96.48v-2.6l2.6,2.6Z"/>
        <path class="cls-162" d="M135.7,153.67v-2.6h2.6C137.44,151.94,136.57,152.81,135.7,153.67Z"/>
        <path class="cls-88" d="M133.1,96.48h2.6v2.6Z"/>
        <path class="cls-49" d="M23.73,104.28h2.61l-1.75,2.16Z"/>
        <path class="cls-181" d="M133.1,158.87h-2.61l2.61-2.6Z"/>
        <path class="cls-88" d="M138.3,96.48l2.61,2.6Z"/>
        <circle class="cls-182" cx="137" cy="149.77" r="1.84"/>
        <path class="cls-49" d="M21.13,101.68h2.6v2.6Z"/>
        <path class="cls-49" d="M78.41,169.27l-2.6,2.6Z"/>
        <path class="cls-183" d="M83.62,112.08h2.61l-2.61,2.6Z"/>
        <path class="cls-49" d="M70.6,169.27l2.61-2.6Z"/>
        <path class="cls-172" d="M91.43,101.68v2.6h-2.6Z"/>
        <path class="cls-184" d="M122.68,166.67l2.6-2.6Z"/>
        <path class="cls-49" d="M23.73,164.07v2.6l-2.16-1.74Z"/>
        <path class="cls-180" d="M125.28,164.07v-2.6h2.61Z"/>
        <path class="cls-185"
              d="M127.89,73.08l2.6-2.6,2.14,1.77a12.48,12.48,0,0,1-2.21.8A15.23,15.23,0,0,1,127.89,73.08Z"/>
        <path class="cls-185" d="M125.28,78.28c.4-2-1.29-5,2.61-5.2C127.5,75.05,129.18,78.06,125.28,78.28Z"/>
        <path class="cls-186" d="M120.08,80.88c.22-3.89,3.23-2.21,5.2-2.6C125.06,82.17,122.05,80.49,120.08,80.88Z"/>
        <path class="cls-187" d="M143.51,78.28v2.6l-2.16-1.74Z"/>
        <path class="cls-188"
              d="M114.87,80.88q-10.41,5.93-20.83,0c-1.37-2.92-3.4-5.51-2.71-9.22.53-2.9.1-6,.1-9L94,60.09h10.41l7.82,2.59,2.6,2.6Z"/>
        <path class="cls-189" d="M135.7,26.29h2.6c3.43,3.82,2.54,8.51,2.61,13H130.49v-2.6c5-1.22,1.62-5.24,2.61-7.8Z"/>
        <path class="cls-190"
              d="M120.08,57.49h-2.61q-1.29-6.51-2.6-13v-2.6h7.81c-.66.86-1.24,2.39-2,2.49-3.63.45-3.88,1.84-2.43,5C119.4,51.81,119.51,54.75,120.08,57.49Z"/>
        <path class="cls-191" d="M125.28,39.29h5.21c-1.22,5-5.25,1.61-7.81,2.6Z"/>
        <path class="cls-192"
              d="M114.87,44.49q1.3,6.49,2.6,13l-5.2,5.19-7.82-2.59v-2.6a47.11,47.11,0,0,0-.11-7.33c-.19-1.13-1.62-2-2.49-3.07v-2.6h2.6l7.82-2.6Z"/>
        <path class="cls-193"
              d="M109.66,190.07c.18-11.75,1.44-13.26,12.37-9.14,3.6,1.36,3.74-2.54,5.86-1.26v7.8c-2.56,1-6.59-2.41-7.81,2.6H109.66Z"/>
        <path class="cls-178"
              d="M135.7,177.07l2.6-2.6,7.82,5.2c-2.47,3.07-2.92,6.64-2.61,10.4H138.3v-2.6C142.55,182.75,142.35,181.93,135.7,177.07Z"/>
        <path class="cls-194"
              d="M135.7,229.06c-.74-.3-2.11-.59-2.12-.9q-.17-13.4,0-26.79c0-.31,1.38-.6,2.12-.9v28.59Z"/>
        <path class="cls-122" d="M135.7,197.87H125.28a16.66,16.66,0,0,1,18.23,0H135.7Z"/>
        <path class="cls-105" d="M138.3,187.47v2.6H120.08c1.22-5,5.25-1.61,7.81-2.6Z"/>
        <path class="cls-128" d="M99.25,197.87l7.81-5.2v5.2l-2.61,5.2h-2.6C101.46,201.1,103.14,198.09,99.25,197.87Z"/>
        <path class="cls-195" d="M107.06,197.87v-2.6a45.9,45.9,0,0,1,7.33.12c1.13.18,2.06,1.61,3.08,2.48Z"/>
        <path class="cls-196"
              d="M135.7,229.06v-2.6a7.6,7.6,0,0,1,2.53.06,10.1,10.1,0,0,1,2.23,1.69,11.83,11.83,0,0,1-2.21.82A15.49,15.49,0,0,1,135.7,229.06Z"/>
        <path class="cls-128" d="M109.66,190.07h5.21c-.22,3.89-3.23,2.21-5.21,2.6Z"/>
        <path class="cls-105" d="M140.91,190.07h2.6l2.61,2.6C144.14,192.28,141.13,194,140.91,190.07Z"/>
        <ellipse class="cls-197" cx="138.3" cy="199.17" rx="3.68" ry="1.84"/>
        <path class="cls-195" d="M120.08,200.47l-2.61-2.6Z"/>
        <path class="cls-105" d="M140.91,200.47v-2.6h2.6C142.64,198.73,141.78,199.6,140.91,200.47Z"/>
        <path class="cls-198"
              d="M49.77,174.47l2.6,2.6q4.23,5.2,0,10.4c1,2.56-2.41,6.58,2.61,7.8v2.6H31.54c4.22-6.31,2.6-13.23,1.9-20,0-.42-2.94-.55-4.5-.81v-2.6Z"/>
        <path class="cls-199" d="M28.94,197.87c-2-.39-5,1.29-5.21-2.6C25.71,195.66,28.72,194,28.94,197.87Z"/>
        <circle class="cls-200" cx="30.24" cy="199.17" r="1.84"/>
        <path class="cls-103"
              d="M21.13,213.47H18.52v-2.6c.32-3.77-.13-7.34-2.6-10.4.08-3.06,2.26-3.1,4.1-2.29,3.1,1.36,6,3.23,8.92,4.89v2.6Z"/>
        <path class="cls-201" d="M15.92,200.47c2.47,3.06,2.92,6.63,2.6,10.4l-5.2-5.2v-5.2Z"/>
        <path class="cls-202" d="M28.94,205.67v-5.2h2.6c-.31,3.76.14,7.33,2.61,10.4H28.94Z"/>
        <path class="cls-203"
              d="M91.43,62.68c0,3,.43,6.08-.1,9-.69,3.71,1.34,6.3,2.71,9.22-2.45.28-5.25-.11-7.27,1-5.75,3-10.94,2-16.17-1,0-2.12-.88-5.09.18-6.2,2.37-2.48,3.23-5.25,2.22-8C72.35,65,69.73,64,68,62.68V60.09h2.6c4.57,3.26,7.26,3.46,10.91.81q2.35-1.71,4.72-3.41Q85,63.87,91.43,62.68Z"/>
        <path class="cls-203" d="M70.6,80.88,68,83.48Z"/>
        <path class="cls-204" d="M65.39,49.69v5.2l-2.6,2.6H57.58l2.61-7.8h5.2Z"/>
        <path class="cls-205" d="M57.58,57.49h5.21l-2.6,2.6H57.58Z"/>
        <path class="cls-206"
              d="M60.19,49.69l-2.61,7.8H52.37v-2.6q-5.92-10.41,0-20.8c7.71.33,7.73.33,7.81,6.79C60.22,43.82,60.19,46.75,60.19,49.69Z"/>
        <path class="cls-207" d="M52.37,54.89v2.6h-2.6Z"/>
        <path class="cls-208"
              d="M70.6,179.67c7.6-5.69,14.32-.68,21.26,1.73.74.26,1.45.58,2.18.87v10.4c-2,.39-5-1.29-5.21,2.6-4.5-.07-9.19.81-13-2.6,0-2.13.08-4.26-.08-6.37,0-.38-1.07-.68-1.64-1l-.88,2.19C68.19,186.25,71.59,182.23,70.6,179.67Z"/>
        <path class="cls-209"
              d="M52.37,197.87H55l13,7.8v5.2l-2.61,5.2-2.6,2.59h-2.6l-.86-2.15-1.75,2.15H55c-.22-3.88-3.24-2.2-5.21-2.59,0-3,.43-6.08-.11-9C49,203.38,51,200.79,52.37,197.87Z"/>
        <path class="cls-210"
              d="M65.39,216.07l2.61-5.2h2.6v7.79c1.34,2.84,3,5.3,2.76,8.92-.48,6.31-.07,6.34-8,6.68h-2.6v-2.6c.87-1,2.41-2,2.49-3.15C65.57,224.38,65.39,220.22,65.39,216.07Z"/>
        <path class="cls-211"
              d="M88.83,195.27c.22-3.89,3.23-2.21,5.21-2.6l2.6,5.2-5.21,5.2h-2.6c-3.57-.64-3.17-2.55-1.62-4.9C87.82,197.24,88.29,196.24,88.83,195.27Z"/>
        <path class="cls-212" d="M73.21,192.67c-.54,3.62-3.63,11.31-5.21,13C68.53,200.85,65.79,194.73,73.21,192.67Z"/>
        <path class="cls-213" d="M75.81,216.07h-2.6v-5.2h5.2Z"/>
        <path class="cls-209" d="M73.21,210.87v5.2l-2.61,2.59v-7.79Z"/>
        <path class="cls-214" d="M73.21,187.47l.88-2.19c.57.34,1.61.64,1.64,1,.16,2.11.08,4.24.08,6.37h-2.6Z"/>
        <path class="cls-195"
              d="M107.06,221.26V203.07c6.5-3.47,7.1-3.64,8.85,2.57,1.39,5,1.1,10.4,1.56,15.62-3.89.23-2.21,3.23-2.6,5.2h-5.21C109.27,224.49,111,221.49,107.06,221.26Z"/>
        <path class="cls-129" d="M114.87,226.46c.39-2-1.29-5,2.6-5.2v5.2Z"/>
        <path class="cls-215" d="M107.06,203.07v5.2c-3.9-.23-2.21-3.23-2.61-5.2Z"/>
        <path class="cls-128" d="M99.25,210.87c1-2.56-2.42-6.58,2.6-7.8C100.86,205.63,104.26,209.65,99.25,210.87Z"/>
        <path class="cls-127" d="M107.06,221.26c3.89.23,2.21,3.23,2.6,5.2h-2.6Z"/>
        <path class="cls-128" d="M91.43,203.07l5.21-5.2h2.61C98.23,202,95.47,203.48,91.43,203.07Z"/>
        <path class="cls-130" d="M109.66,226.46h5.21v2.6C112.9,228.67,109.88,230.35,109.66,226.46Z"/>
        <circle class="cls-207" cx="116.17" cy="227.76" r="1.84"/>
        <path class="cls-216" d="M60.19,218.66h2.6v13c-5.76-1.45-5.42-6-5.21-10.4v-2.6Z"/>
        <circle class="cls-217" cx="56.28" cy="219.96" r="1.84"/>
        <path class="cls-138" d="M55,218.66v2.6l-5.21-5.19C51.74,216.46,54.76,214.78,55,218.66Z"/>
        <path class="cls-139" d="M23.73,221.26v-5.19h2.61C25.94,218,27.63,221,23.73,221.26Z"/>
        <path class="cls-218" d="M28.94,210.87c-.87.86-1.74,1.73-2.6,2.6C27.2,212.6,28.07,211.73,28.94,210.87Z"/>
        <circle class="cls-218" cx="25.03" cy="214.77" r="1.84"/>
        <path class="cls-219"
              d="M34.15,210.87c-2.47-3.07-2.92-6.64-2.61-10.4v-2.6H47.17v7.8c-2.88-.07-6-.5-5.24,4.13a22.45,22.45,0,0,1,0,3.67h-2.6C39.13,209.58,36.12,211.26,34.15,210.87Z"/>
        <path class="cls-220"
              d="M42,213.47a22.45,22.45,0,0,0,0-3.67c-.77-4.63,2.36-4.2,5.24-4.13a22.34,22.34,0,0,0,0,3.66C48,214,44.84,213.53,42,213.47Z"/>
        <path class="cls-100" d="M26.34,213.47H21.13l7.81-7.8v5.2C28.07,211.73,27.2,212.6,26.34,213.47Z"/>
        <path class="cls-221" d="M23.73,216.07v2.59l-2.16-1.74Z"/>
        <path class="cls-153" d="M101.85,44.49v15.6H94l-7.81-2.6v-13h2.6c2-.39,5,1.29,5.21-2.6h2.6l2.61,2.6Z"/>
        <path class="cls-151"
              d="M99.25,31.49A7.6,7.6,0,0,1,99.19,34a10,10,0,0,1-1.7,2.22A13.43,13.43,0,0,1,96.67,34a15.35,15.35,0,0,1,0-2.54Z"/>
        <path class="cls-222" d="M99.25,44.49l-2.61-2.6v-2.6C100.54,39.51,98.85,42.52,99.25,44.49Z"/>
        <path class="cls-151" d="M96.64,39.29v2.6H94Z"/>
        <circle class="cls-151" cx="87.53" cy="43.19" r="1.84"/>
        <path class="cls-223" d="M99.25,31.49H96.64v-2.6Z"/>
        <path class="cls-161" d="M112.27,41.89l-7.82,2.6,5.21-10.4,5.21-2.6v10.4Z"/>
        <path class="cls-224"
              d="M114.87,41.89v-7.8c2.73-1.91,5.3-3.17,7.48.85.47.86,1.93,1.18,2.93,1.75v2.6l-2.6,2.6Z"/>
        <path class="cls-92" d="M133.1,28.89c-1,2.56,2.41,6.58-2.61,7.8-3.89-.22-2.21-3.23-2.6-5.2Z"/>
        <path class="cls-92" d="M135.7,26.29l-2.6,2.6v-2.6Z"/>
        <path class="cls-225"
              d="M120.08,161.47h-6.47c-7.28,0-7.28,0-11.76-5.2l-2.6-2.6v-5.2l-2.61-2.6V109.48l2.61-2.6v-2.6c.86-.87,1.73-1.73,2.6-2.6,3.83-3.42,8.52-2.53,13-2.6h2.6c1.74,2.26,4,4.28,5.11,6.82,2.85,6.59,6.69,12.86,5.47,20.77-.83,5.4.11,11-.28,16.55-.19,2.66-1.62,5.24-2.49,7.85v2.6l-2.6,2.6Zm0-13v-2.6c.86-1.06,2.44-2.09,2.48-3.19.25-5.86.12-11.73.12-17.6-.87-2.6-1.73-5.2-2.6-7.8l-2.61-7.8c-1.4-5.06-5.4-6.7-9.34-4.55-2.81,1.53-4.84,5.35-6,8.59-.59,1.61,1.49,4.21,2.35,6.36.12,7.71-4.67,14.9-2.53,22.78.33,1.21,1.67,2.15,2.53,3.21,2.73,3.38,2.36,9.07,7.82,10.4C118.1,155.73,119.53,154.3,120.08,148.47Z"/>
        <path class="cls-184" d="M120.08,161.47l2.6-5.2h2.6l2.61,2.6v2.6h-7.81Z"/>
        <path class="cls-184" d="M125.28,153.67v-2.6l2.61,3.24-2.61,2Z"/>
        <path class="cls-226" d="M117.47,99.08h-2.6l2.6-2.6,2.16,1.74Z"/>
        <path class="cls-227" d="M135.7,102.84l-1.54,1.2c-.16-.55-.6-1.45-.43-1.57a7,7,0,0,1,2-.79Z"/>
        <path class="cls-228"
              d="M91.43,114.68H94v26c-.87-1.07-2.46-2.12-2.49-3.22C91.33,129.86,91.43,122.27,91.43,114.68Z"/>
        <path class="cls-229" d="M99.25,148.47v2.6H96.64c-.87-1-2.3-1.94-2.48-3.07a45.9,45.9,0,0,1-.12-7.33h2.6v5.2Z"/>
        <path class="cls-179" d="M107.06,166.67v-2.6h7.81C113.65,169.08,109.62,165.68,107.06,166.67Z"/>
        <path class="cls-230" d="M96.64,151.07h2.61v5.2C95.35,156.05,97,153,96.64,151.07Z"/>
        <path class="cls-231" d="M96.64,164.07H94l1.74-2.15Z"/>
        <path class="cls-232" d="M101.85,156.27l-1.75,2.16-.85-2.16Z"/>
        <path class="cls-233" d="M138.3,187.47H127.89v-7.8h2.6l2.61-2.6h2.6C142.35,181.93,142.55,182.75,138.3,187.47Z"/>
        <path class="cls-178" d="M133.1,177.07l-2.61,2.6Z"/>
        <path class="cls-234"
              d="M73.21,187.47v5.2c-7.42,2.06-4.68,8.18-5.21,13l-13-7.8v-2.6c-1-2.56,2.41-6.58-2.61-7.8q4.23-5.21,0-10.4c3,0,6.09.43,9-.11,3.72-.68,6.31,1.34,9.24,2.71C71.59,182.23,68.19,186.25,73.21,187.47Z"/>
        <path class="cls-172" d="M96.64,96.48,94,99.08Z"/>
        <path class="cls-235" d="M96.64,109.48v5.2H94v-7.8h2.6Z"/>
        <path class="cls-172" d="M96.64,109.48v-2.6h2.61Z"/>
        <path class="cls-172" d="M95.55,101.89c.3.3.86.73.81.82a11.78,11.78,0,0,1-1.16,1.57L94,103.12Z"/>
        <path class="cls-172" d="M101.85,101.68c-.87.87-1.74,1.73-2.6,2.6C100.11,103.41,101,102.55,101.85,101.68Z"/>
        <path class="cls-236" d="M88.83,104.28h2.6l-1.74,2.16Z"/>
        <path class="cls-237" d="M86.23,57.49,94,60.09l-2.61,2.59Q85,63.86,86.23,57.49Z"/>
        <circle class="cls-238" cx="103.15" cy="58.79" r="1.84"/>
        <path class="cls-239" d="M112.27,41.89h2.6v2.6Z"/>
        <path class="cls-185" d="M104.45,57.49h-2.6V47.09c.87,1,2.3,1.94,2.49,3.07A47.11,47.11,0,0,1,104.45,57.49Z"/>
        <path class="cls-240" d="M52.37,187.47c5,1.22,1.62,5.24,2.61,7.8C50,194.05,53.37,190,52.37,187.47Z"/>
        <path class="cls-241"
              d="M62.79,231.66v-13l2.6-2.59c0,4.15.18,8.31-.11,12.44C65.2,229.62,63.66,230.62,62.79,231.66Z"/>
        <path class="cls-242" d="M60.19,218.66H57.58l1.75-2.15Z"/>
        <path class="cls-243"
              d="M104.45,145.87c-.86-1.06-2.2-2-2.53-3.21-2.14-7.88,2.65-15.07,2.53-22.78h2.61l10.41,7.8c.59,1.88,1.25,3.74,1.73,5.65.4,1.56.59,3.16.88,4.75l-5.21,2.59a42.59,42.59,0,0,1-6.19,0C104.08,140,104.28,142.86,104.45,145.87Z"/>
        <path class="cls-244"
              d="M117.47,127.68l-10.41-7.8c1.32-6.69,3.71-9.08,10.41-10.4l2.61,7.8c.87,2.6,1.73,5.2,2.6,7.8C120.71,125.47,117.7,123.79,117.47,127.68Z"/>
        <path class="cls-245"
              d="M104.45,145.87c-.17-3-.37-5.92,4.23-5.25a42.59,42.59,0,0,0,6.19,0v10.4q-1.31,2.61-2.6,5.2C106.81,154.94,107.18,149.25,104.45,145.87Z"/>
        <path class="cls-246"
              d="M117.47,109.48c-6.7,1.32-9.09,3.71-10.41,10.4h-2.61c-.86-2.15-2.94-4.75-2.35-6.36,1.19-3.24,3.22-7.06,6-8.59C112.07,102.78,116.07,104.42,117.47,109.48Z"/>
        <path class="cls-247"
              d="M117.47,127.68c.23-3.89,3.24-2.21,5.21-2.6,0,5.87.13,11.74-.12,17.6,0,1.1-1.62,2.13-2.48,3.19v-7.79c-.29-1.59-.48-3.19-.88-4.75C118.72,131.42,118.06,129.56,117.47,127.68Z"/>
        <ellipse class="cls-163" cx="95.34" cy="128.98" rx="1.84" ry="16.54"/>
        <path class="cls-248" d="M120.08,138.08v10.39l-5.21,2.6v-10.4Z"/>
        <path class="cls-249" d="M114.87,151.07l5.21-2.6c-.55,5.83-2,7.26-7.81,7.8Q113.56,153.67,114.87,151.07Z"/>
        <path class="cls-162" d="M125.28,153.67v2.6h-2.6Z"/>
        <path class="cls-163" d="M101.85,156.27h-2.6v-2.6Z"/>
        <path class="cls-163" d="M99.25,148.47l-2.61-2.6Z"/>
        <circle class="cls-172" cx="95.34" cy="115.98" r="1.84"/>
    </g>
</svg>