<svg id="Calque_1" data-name="Calque 1" xmlns="http://www.w3.org/2000/svg" viewBox="0 0 167.24 257.95">
    <defs>
        <style>
            .cls-1{fill:#fefefe;}.cls-2{fill:#20282a;}.cls-3{fill:#18272a;}.cls-4{fill:#101a1b;}.cls-5{fill:#0e1213;}.cls-6{fill:#212223;}.cls-7{fill:#f4f9f2;}.cls-8{fill:#d3cdcd;}.cls-9{fill:#abacab;}.cls-10{fill:#adabad;}.cls-11{fill:#ed1618;}.cls-12{fill:#fa8d8b;}.cls-13{fill:#e7c8c5;}.cls-14{fill:#f98b8e;}.cls-15{fill:#fc9091;}.cls-16{fill:#f47073;}.cls-17{fill:#f2242b;}.cls-18{fill:#f76267;}.cls-19{fill:#fc9294;}.cls-20{fill:#f36562;}.cls-21{fill:#ef7275;}.cls-22{fill:#f99090;}.cls-23{fill:#f5787a;}.cls-24{fill:#ef1628;}.cls-25{fill:#f73135;}.cls-26{fill:#f9686c;}.cls-27{fill:#fb6469;}.cls-28{fill:#ee6e73;}.cls-29{fill:#f6453c;}.cls-30{fill:#f94b46;}.cls-31{fill:#df5e5e;}.cls-32{fill:#e12120;}.cls-33{fill:#e6656b;}.cls-34{fill:#ce5157;}.cls-35{fill:#d4989c;}.cls-36{fill:#cba39b;}.cls-37{fill:#f8d9d5;}.cls-38{fill:#c14f5b;}.cls-39{fill:#f7f6f6;}.cls-40{fill:#ef0b12;}.cls-41{fill:#ece9e8;}.cls-42{fill:#f4f3f2;}.cls-43{fill:#f30003;}.cls-44{fill:#f20f12;}.cls-45{fill:#f60c10;}.cls-46{fill:#f90104;}.cls-47{fill:#ee0a0d;}.cls-48{fill:#ef1c1e;}.cls-49{fill:#e3222c;}.cls-50{fill:#e80604;}.cls-51{fill:#e83a3a;}.cls-52{fill:#fc493f;}.cls-53{fill:#f76764;}.cls-54{fill:#fe333e;}.cls-55{fill:#f4080e;}.cls-56{fill:#f10207;}.cls-57{fill:#ef070e;}.cls-58{fill:#fc3e3f;}.cls-59{fill:#fd4d45;}.cls-60{fill:#fe453e;}.cls-61{fill:#e66350;}.cls-62{fill:#de271f;}.cls-63{fill:#faf0f1;}.cls-64{fill:#fcaeb1;}.cls-65{fill:#f6595d;}.cls-66{fill:#f3e3e4;}.cls-67{fill:#fd6e6c;}.cls-68{fill:#f5dede;}.cls-69{fill:#fc9ea0;}.cls-70{fill:#fa9493;}.cls-71{fill:#fea7a7;}.cls-72{fill:#f3e8e2;}.cls-73{fill:#fa3141;}.cls-74{fill:#f7817b;}.cls-75{fill:#fe5567;}.cls-76{fill:#ea4f50;}.cls-77{fill:#f26b73;}.cls-78{fill:#fe7f80;}.cls-79{fill:#fa6669;}.cls-80{fill:#f82733;}.cls-81{fill:#e91313;}.cls-82{fill:#fe0422;}.cls-83{fill:#f04846;}.cls-84{fill:#fc0524;}.cls-85{fill:#fe877a;}.cls-86{fill:#fe4e4c;}.cls-87{fill:#fe7872;}.cls-88{fill:#fe595a;}.cls-89{fill:#fe8484;}.cls-90{fill:#fe6d61;}.cls-91{fill:#fa7477;}.cls-92{fill:#fb9194;}.cls-93{fill:#fe838b;}.cls-94{fill:#f7e2e1;}.cls-95{fill:#f73239;}.cls-96{fill:#ed1a25;}.cls-97{fill:#f9aaaa;}.cls-98{fill:#f66f73;}.cls-99{fill:#f4a2a2;}.cls-100{fill:#fd6863;}.cls-101{fill:#fe8f84;}.cls-102{fill:#fe9992;}.cls-103{fill:#f3050f;}.cls-104{fill:#f0060c;}.cls-105{fill:#fe000d;}.cls-106{fill:#eae6e3;}.cls-107{fill:#fc9b9e;}.cls-108{fill:#f8696a;}.cls-109{fill:#fa8588;}.cls-110{fill:#fb8c92;}.cls-111{fill:#080505;}.cls-112{fill:#f34847;}.cls-113{fill:#f28486;}.cls-114{fill:#1d1d1d;}.cls-115{fill:#050505;}.cls-116{fill:#292929;}.cls-117{fill:#080808;}.cls-118{fill:#232323;}.cls-119{fill:#f88f93;}.cls-120{fill:#fa4a40;}.cls-121{fill:#fb9391;}.cls-122{fill:#f3eeed;}.cls-123{fill:#3d3235;}.cls-124{fill:#353435;}.cls-125{fill:#110d0e;}.cls-126{fill:#ed7a7f;}.cls-127{fill:#020202;}.cls-128{fill:#1f1d26;}.cls-129{fill:#fe5653;}.cls-130{fill:#fd3b3c;}.cls-131{fill:#fe695a;}.cls-132{fill:#ee1520;}.cls-133{fill:#fc4e48;}.cls-134{fill:#fc554a;}.cls-135{fill:#fe5f62;}.cls-136{fill:#fc534a;}.cls-137{fill:#fe5050;}.cls-138{fill:#f50004;}.cls-139{fill:#f21d24;}.cls-140{fill:#e30502;}.cls-141{fill:#fbf8f7;}.cls-142{fill:#444042;}.cls-143{fill:#fbcac8;}.cls-144{fill:#26292d;}.cls-145{fill:#1c201f;}.cls-146{fill:#404142;}.cls-147{fill:#262828;}.cls-148{fill:#fa797b;}.cls-149{fill:#f44343;}.cls-150{fill:#fe5e56;}.cls-151{fill:#fb8488;}.cls-152{fill:#f8f0ef;}.cls-153{fill:#efdbda;}.cls-154{fill:#221f21;}.cls-155{fill:#fea4a5;}.cls-156{fill:#fd8989;}.cls-157{fill:#fc7d7c;}.cls-158{fill:#fa9a9b;}.cls-159{fill:#fe8b8e;}.cls-160{fill:#fe908c;}.cls-161{fill:#f93a44;}.cls-162{fill:#f9061e;}.cls-163{fill:#fe5452;}.cls-164{fill:#fe5a55;}.cls-165{fill:#fe655d;}.cls-166{fill:#fe5e59;}.cls-167{fill:#fe6d66;}.cls-168{fill:#f65b5d;}.cls-169{fill:#f12d2d;}.cls-170{fill:#fe1c36;}.cls-171{fill:#fa8b8f;}.cls-172{fill:#f71928;}.cls-173{fill:#ea3843;}.cls-174{fill:#f52e35;}.cls-175{fill:#fd6354;}.cls-176{fill:#fe0021;}.cls-177{fill:#f74b50;}.cls-178{fill:#f87778;}.cls-179{fill:#fba9a5;}.cls-180{fill:#fe7772;}.cls-181{fill:#fe736e;}.cls-182{fill:#fc0120;}.cls-183{fill:#434142;}.cls-184{fill:#fdf0f1;}.cls-185{fill:#fcebec;}.cls-186{fill:#fde9ec;}.cls-187{fill:#2f2f33;}.cls-188{fill:#f8dbdf;}.cls-189{fill:#f3d9da;}.cls-190{fill:#ecdfdf;}.cls-191{fill:#f8383f;}.cls-192{fill:#fd6e66;}.cls-193{fill:#feada8;}.cls-194{fill:#222121;}.cls-195{fill:#0b0d11;}.cls-196{fill:#f70224;}
        </style>
    </defs>
    <g id="RXQq11.tif">
        <path class="cls-1"
              d="M166.74,248.94c0,3.5,1.36,8.37-.38,10.12s-6.56.39-10,.39q-76.13,0-152.26.1c-3.39,0-4-.63-4-4Q.26,130.76,0,6C0,.67,2.81,2.28,5.37,2.08L2.77,7.33V251.57L8,256.82H77.9c25.9,0,51.8,0,77.71-.09,2.07,0,5.47,1.84,5.93-2.54,3.89-.22,2.21-3.26,2.6-5.25Z"/>
        <path class="cls-2"
              d="M161.54,2.08h2.6V248.94h-2.6V19.87c0-3.49.15-7-.12-10.46-.06-.75-1.62-1.39-2.49-2.08V4.7Z"/>
        <ellipse class="cls-3" cx="165.44" cy="129.45" rx="1.84" ry="168.99"/>
        <path d="M161.54,2.08,158.93,4.7H8V2.08Z"/>
        <path class="cls-4" d="M8,2.08V7.33H2.77l2.6-5.25Z"/>
        <path class="cls-1" d="M166.74,10h-2.6V2.08c.87.44,2.41.78,2.48,1.33A49.27,49.27,0,0,1,166.74,10Z"/>
        <ellipse cx="4.07" cy="129.45" rx="1.84" ry="172.7"/>
        <path d="M161.54,254.19c-.46,4.38-3.86,2.53-5.93,2.54-25.91.13-51.81.09-77.71.09H8v-2.63H161.54Z"/>
        <path class="cls-5" d="M8,254.19v2.63l-5.2-5.25H8Z"/>
        <path class="cls-6" d="M161.54,254.19h-2.61v-2.62l2.61-2.63h2.6C163.75,250.93,165.43,254,161.54,254.19Z"/>
        <path class="cls-7"
              d="M161.54,248.94l-2.61,2.63H8V15.21h2.6v231.1c0,3.62,2.78,2.58,4.66,2.59,10.83.08,21.66,0,32.49,0,32.91,0,65.83.06,98.75-.13,2.38,0,6.34,2.62,7.26-2.5.86-1.08,2.45-2.13,2.48-3.24.24-6.79.12-13.59.12-20.39V12.58c0-3.61-2.78-2.57-4.66-2.58-12.13-.08-24.25,0-36.38,0-32.92,0-65.84,0-98.76.08-2.08,0-5.49-1.85-6,2.54H8V7.33h151c.87.69,2.43,1.33,2.49,2.08.27,3.47.12,7,.12,10.46Z"/>
        <ellipse class="cls-8" cx="83.45" cy="6.02" rx="106.75" ry="1.86"/>
        <path class="cls-9" d="M8,7.33V251.57H5.37V7.33Z"/>
        <ellipse class="cls-10" cx="83.45" cy="252.88" rx="106.75" ry="1.86"/>
        <path class="cls-11"
              d="M10.57,44.1V12.58H31.4c1,2.59-2.42,6.65,2.6,7.88L23.59,31l-5.21,5.25c-3.89.22-2.21,3.26-2.6,5.25l-2.6,2.63Z"/>
        <path class="cls-12"
              d="M153.73,246.31c-.92,5.12-4.88,2.49-7.26,2.5-32.92.19-65.84.13-98.75.13-10.83,0-21.66,0-32.49,0-1.88,0-4.62,1-4.66-2.59H80.85c4.16,0,8.32.18,12.46-.12,1.11-.08,2.11-1.63,3.16-2.5h10.41c.22,3.93,3.23,2.23,5.2,2.62h41.65Z"/>
        <path class="cls-13"
              d="M31.4,12.58H10.57c.47-4.39,3.88-2.53,6-2.54C49.45,9.92,82.37,10,115.29,10c12.13,0,24.25,0,36.38,0,1.88,0,4.62-1,4.66,2.58H104.27c-10.19,0-20.38-.08-30.57.12-1.11,0-2.18,1.63-3.26,2.51H62.63c-1-.88-2-2.32-3.08-2.51a45.9,45.9,0,0,0-7.33-.12H31.4Z"/>
        <path class="cls-14"
              d="M10.57,154.4v-7.88L13.69,151c1.21-1.57,2.45-3.12,3.64-4.71s2.44-3.33,3.65-5c2.51,0,5.08-.39,7.5.07,8.47,1.61,10,5,6.37,13.51-.3.72-.57,1.45-.85,2.17-2.56,1-6.59-2.43-7.81,2.63-.87,1-2.3,2-2.48,3.11a46.65,46.65,0,0,0-.12,7.39l2.6,2.63v2.63H18.38C23.8,163.49,21.6,157.55,10.57,154.4Z"/>
        <path class="cls-15"
              d="M156.33,122.88V136l-5.21,2.63c-.86.88-1.73,1.75-2.6,2.63h-2.6c-.22-3.93-3.23-2.23-5.21-2.63h-2.6c-4.27-9.14-3.6-12.6,3.51-18,1.4-1,2.87-2,4.3-3a36.09,36.09,0,0,0,4.86,3.49A33.22,33.22,0,0,0,156.33,122.88Z"/>
        <path class="cls-16"
              d="M148.52,141.27c.87-.88,1.74-1.75,2.6-2.63-.36,6,3.18,11.65.27,18.07-1.63,3.59,2.78,2.66,4.94,2.94v15.76l-2.6,2.62h-2.61l-.85-2.17L148.52,178v2.63h-2.6c-.22-3.93-3.23-2.23-5.21-2.63h-2.6v-2.62c.87-.88,1.74-1.75,2.6-2.63l2.61-2.63c.86-.63,2.3-1.13,2.5-1.94.75-3.05-.5-6.1,1.82-9.38,2.71-3.83.79-8.45-1.72-12.31v-2.63Z"/>
        <path class="cls-17"
              d="M156.33,31V59.85h-2.6c0-2.94.07-5.89-.07-8.83,0-.5-.93-1-1.49-1.41a2,2,0,0,0-.82.86c-1,3-2.32,5.89-2.73,8.93-.57,4.24,2.93,2.81,5.11,3.08-.23,3.93-3.24,2.23-5.21,2.63l-7.81,2.62h-2.6V65.11l-2.6-2.63V57.23l2.6-2.63A36.19,36.19,0,0,0,140.78,60c.79,1.09,2.24,1.7,3.39,2.52.59-1.4,1.8-2.9,1.6-4.18-.29-1.89-2.22-3.58-2.35-5.44-.59-8.49-3.95,1.65-5.31-.88V46.72c2-.39,5,1.31,5.21-2.62l2.6-2.63,2.6,2.63.86,2.17,1.74-2.17c.87-1.05,2.37-2,2.49-3.15.33-3.3.12-6.65.12-10Z"/>
        <path class="cls-18"
              d="M148.52,65.11c2-.4,5,1.3,5.21-2.63V59.85h2.6V83.49c-5,1.56-2.23,5.7-2.47,8.56-.59,6.86-.31,6.89-7.94,7.2q-2.61-3.94-5.21-7.88V83.49l2.61-2.63c2-.39,5,1.31,5.2-2.62.42,0,.94-.17,1.22,0a18,18,0,0,1,1.8,1.7c.73-.77,2-1.49,2.1-2.31C154.17,70.06,154.08,70,148.52,65.11Z"/>
        <path class="cls-19"
              d="M10.57,107.13V96.62H21c1,2.59-2.41,6.65,2.61,7.88v2.63l2.6,2.62H36.6c-.24,2.24,1.1,5-3.11,5.51-1.75.22-3.14,3.25-4.7,5-3-2.35-5.41-2.52-7.76,1.12-1.41,2.18-2.59,1.26-2.65-1.12C21.34,113.76,18.56,109.09,10.57,107.13Z"/>
        <path class="cls-20"
              d="M10.57,154.4c11,3.15,13.23,9.09,7.81,21-1.84.36-4.73-1.21-5.11,2a63.35,63.35,0,0,0-.07,10.31c.37,8.45,3.81-1.75,5.18.84v5.25c-2,.4-5-1.3-5.2,2.63H10.57Z"/>
        <path class="cls-21"
              d="M145.92,99.25c7.63-.31,7.35-.34,7.94-7.2.24-2.86-2.57-7,2.47-8.56v39.39a33.22,33.22,0,0,1-5.55-1.76,36.09,36.09,0,0,1-4.86-3.49V99.25Z"/>
        <path class="cls-22"
              d="M18.38,120.26c.06,2.38,1.24,3.3,2.65,1.12,2.35-3.64,4.79-3.47,7.76-1.12,2,6-2.75,10.85-2.83,16.56,0,.63-3.24,1.21-5,1.82a36.9,36.9,0,0,0-4.85-3.49,33,33,0,0,0-5.56-1.76v-7.88Z"/>
        <path class="cls-23"
              d="M21,96.62H10.57V86.12L21,80.86h2.61v2.63c-.66.88-1.14,2.15-2,2.55-1.94.88-6.29-1.45-5.58,2.62,1.13,6.52,3.05-1.87,5.91-.24,3.66,2.09,4.7-1.53,4.28-4.93h2.6c2,.4,5-1.3,5.21,2.63-3.89.22-2.21,3.26-2.6,5.25L28.79,94h-2.6c-.87.88-1.73,1.76-2.6,2.63Z"/>
        <path class="cls-24"
              d="M156.33,222.68c0,6.8.12,13.6-.12,20.39,0,1.11-1.62,2.16-2.48,3.24,0-2.1.05-4.2,0-6.3-.26-8.21-.9-8.79-10.4-9.45l7.8-10.51Z"/>
        <path class="cls-25"
              d="M21,80.86,10.57,86.12V73l3.85-5.2c1.77,1.73,3.52,3.49,5.34,5.17.23.21.81,0,1.22,0v7.87Z"/>
        <path class="cls-26"
              d="M10.57,133.39a33,33,0,0,1,5.56,1.76A36.9,36.9,0,0,1,21,138.64v2.63c-1.21,1.66-2.41,3.34-3.65,5S14.9,149.4,13.69,151l-3.12-4.45Z"/>
        <path class="cls-27" d="M18.38,120.26l-7.81,5.25V107.13C18.56,109.09,21.34,113.76,18.38,120.26Z"/>
        <path class="cls-28" d="M156.33,159.65c-2.16-.28-6.57.65-4.94-2.94,2.91-6.42-.63-12.09-.27-18.07l5.21-2.63Z"/>
        <path class="cls-29"
              d="M13.18,246.31H10.57V222.68h5.21l5.2-2.63,2.61,7.88c-.72-.29-1.46-.55-2.17-.88-7.2-3.28-8.13-2.85-8.23,4C13.12,236.13,13.18,241.22,13.18,246.31Z"/>
        <path class="cls-30"
              d="M156.33,31h-2.6c-7.72.25-7.72.25-7.81,8,0,.84,0,1.68,0,2.52h-2.6V28.34h2.6c7.7-.33,7.72-.33,7.8-6.86,0-3,0-5.93,0-8.9h2.6Z"/>
        <path class="cls-31"
              d="M153.73,178l2.6-2.62v26.26h-2.6l-2.61-7.88c.87-1.06,2.41-2.07,2.49-3.18C153.91,186.43,153.73,182.23,153.73,178Z"/>
        <path class="cls-32"
              d="M15.78,222.68H10.57V196.42h2.61v5.25c0,3.9.44,7.86-.13,11.68S14.41,219.72,15.78,222.68Z"/>
        <path class="cls-33"
              d="M21,73c-.41,0-1,.18-1.22,0-1.82-1.68-3.57-3.44-5.34-5.17L10.57,73V62.48h5.21l2.6,2.63L21,67.73Z"/>
        <path class="cls-34" d="M156.33,222.68l-5.21-2.63,2.61-7.88h2.6Z"/>
        <path class="cls-35" d="M10.57,44.1h2.61V59.85H10.57Z"/>
        <ellipse class="cls-36" cx="155.03" cy="206.92" rx="1.84" ry="7.43"/>
        <ellipse class="cls-37" cx="9.27" cy="13.9" rx="1.84" ry="1.86"/>
        <ellipse class="cls-38" cx="11.88" cy="61.17" rx="1.84" ry="1.86"/>
        <path class="cls-39"
              d="M13.18,54.6V46.72c3.89-.22,2.21-3.26,2.6-5.25,3.89-.22,2.21-3.26,2.6-5.25q6.39,1.19,5.21-5.25L34,20.46c4.44.21,7.77-1.82,10.41-5.25h26c8.24-.33,14.29,3.22,18.22,10.5V41.47L86.05,44.1v2.62L83.45,52c-2.26,1.84-4.51,3.69-6.78,5.52-2.07,1.67-4.15,3.32-6.23,5h-2.6l-5.21-2.63H57.42V33.59l-2-2.62-3.24,2.62a15.49,15.49,0,0,0-2.55,0,12.62,12.62,0,0,0-2.21.83,9.9,9.9,0,0,0,2.23,1.71,7.35,7.35,0,0,0,2.53.06c0,6.8.11,13.6-.12,20.39,0,1.11-1.62,2.16-2.48,3.24H39.2c0-8.54.1-17.08-.11-25.61,0-1.11-1.62-2.18-2.49-3.27-2,.39-5-1.31-5.2,2.62H28.79l-2.6,3.32c.9.64,1.72,1.67,2.7,1.85a28.06,28.06,0,0,0,5.11.08V57.23l-2.6,2.62H28.79l-2.16.87,2.16,1.76C29.9,63.36,31,65,32.13,65c8.18.22,16.38,0,24.56.23,1.13,0,2.23,1.64,3.34,2.51H57.42c-2,.4-5-1.3-5.2,2.63h-26l-2.6-2.63H21l-2.6-2.62-2.6-2.63C14.79,59.9,18.19,55.83,13.18,54.6Z"/>
        <path class="cls-40" d="M44.41,15.21c-2.64,3.43-6,5.46-10.41,5.25-5-1.23-1.61-5.29-2.6-7.88h13Z"/>
        <path class="cls-41" d="M23.59,31q1.18,6.44-5.21,5.25Z"/>
        <path class="cls-41" d="M18.38,36.22c-.39,2,1.29,5-2.6,5.25C16.17,39.48,14.49,36.44,18.38,36.22Z"/>
        <path class="cls-41" d="M15.78,41.47c-.39,2,1.29,5-2.6,5.25V44.1Z"/>
        <path class="cls-42"
              d="M153.73,201.67v10.5l-2.61,7.88-7.8,10.51-2.61,2.62c-1.56.27-3.81,0-4.57.9-3,3.64-7.34,4.72-11,7l-13,2.63H96.47c-2.57-1-6.59,2.43-7.81-2.63l-10.41-10.5v-7.88c4.8-1.31,5.52-4,2.6-7.88l2.6-2.63v-2.62c.87-.88,1.74-1.75,2.6-2.63,5.83-.55,7.27-2,7.81-7.88h10.41l2.61,2.63c0,7.67-.11,15.34.11,23,0,1.11,1.62,2.18,2.49,3.26,2-.39,5,1.3,5.21-2.63a14.33,14.33,0,0,0,2.54,0,12.29,12.29,0,0,0,2.21-.82,9.85,9.85,0,0,0-2.22-1.71,7.35,7.35,0,0,0-2.53-.06V199h7.8c3.63,1,5.34,3.3,5.24,7.18-.13,5.49,0,11,0,16.46.35,1.86-1.18,4.68,2,5.1,1,.12,2.16-1.6,3.24-2.48a14.43,14.43,0,0,0,2.55,0,12.29,12.29,0,0,0,2.21-.82,9.68,9.68,0,0,0-2.23-1.71,7.34,7.34,0,0,0-2.53-.06V199c2-.39,5,1.31,5.21-2.62-1.11-.88-2.2-2.48-3.33-2.51-7.32-.23-14.65,0-22-.24-1.13,0-2.22-1.63-3.33-2.51,2.89-1.37,5.5-3.76,9.11-2.62s6.21-1.25,9.11-2.63h2.6c1,.88,2,2.39,3.13,2.51a95.81,95.81,0,0,0,9.89.12c.22,3.93,3.23,2.23,5.2,2.62.87.88,1.74,1.75,2.6,2.63Z"/>
        <path class="cls-43"
              d="M60,246.31H47V233.18l5.21-5.25h5.2c1.91,4.31,7.31,7.21,5.21,13.13C58.74,241.29,60.42,244.32,60,246.31Z"/>
        <path class="cls-44"
              d="M140.71,233.18l2.61-2.62c9.5.66,10.14,1.24,10.4,9.45.06,2.1,0,4.2,0,6.3H138.11Q139.41,239.76,140.71,233.18Z"/>
        <path class="cls-45"
              d="M60,246.31c.39-2-1.29-5,2.6-5.25,6.08-7.81,6.08-7.81,15.62-7.88v2.63c.58,1.9,1.24,3.79,1.73,5.71.39,1.57.59,3.2.87,4.79Z"/>
        <path class="cls-46"
              d="M44.41,246.31H26.19c2.28-3.05,2.8-6.5,2.75-10.26,0-.94,1.69-2.55,2.79-2.74a44.27,44.27,0,0,1,7.47-.13h2.61c.86.88,1.73,1.75,2.6,2.63Z"/>
        <path class="cls-47"
              d="M13.18,246.31c0-5.09-.06-10.18,0-15.28.1-6.83,1-7.26,8.23-4,.71.33,1.45.59,2.17.88v13.13c-3.9.23-2.21,3.26-2.61,5.25Z"/>
        <path class="cls-48"
              d="M140.71,233.18q-1.29,6.57-2.6,13.13H122.49l2.61-5.25c3.7-2.26,8.07-3.34,11-7C136.9,233.15,139.15,233.45,140.71,233.18Z"/>
        <path class="cls-49"
              d="M80.85,246.31c-.28-1.59-.48-3.22-.87-4.79-.49-1.92-1.15-3.81-1.73-5.71a36.9,36.9,0,0,0,4.85,3.49,33.62,33.62,0,0,0,5.56,1.76c1.22,5.06,5.24,1.63,7.81,2.63-1,.87-2,2.42-3.16,2.5C89.17,246.49,85,246.31,80.85,246.31Z"/>
        <path class="cls-50"
              d="M39.2,233.18a44.27,44.27,0,0,0-7.47.13c-1.1.19-2.8,1.8-2.79,2.74,0,3.76-.47,7.21-2.75,10.26h-2.6v-5.25c.87-1.11,2.34-2.15,2.5-3.36,1-7,.85-7,8-7.14,1.72,0,3.43,0,5.15,0Z"/>
        <path class="cls-51" d="M125.1,241.06l-2.61,5.25H112.08v-2.62Z"/>
        <path class="cls-52" d="M44.41,246.31v-10.5l2.6-2.63v13.13Z"/>
        <path class="cls-53" d="M112.08,243.69v2.62c-2-.39-5,1.31-5.2-2.62Z"/>
        <path class="cls-54" d="M23.59,241.06v5.25H21C21.38,244.32,19.69,241.29,23.59,241.06Z"/>
        <path class="cls-55"
              d="M88.66,25.71c-3.93-7.28-10-10.83-18.22-10.5,1.08-.88,2.15-2.49,3.26-2.51,10.19-.2,20.38-.12,30.57-.12V25.71a21.38,21.38,0,0,1-2,2.61c-1,1-2.13,1.77-3.21,2.65h-2.6Z"/>
        <path class="cls-56"
              d="M122.49,12.58h15.62c0,8.8,0,8.8-5.21,15.76-.86.88-1.73,1.75-2.6,2.63h-5.2c-1.38-3-3.4-5.57-2.71-9.32C122.92,18.72,122.49,15.61,122.49,12.58Z"/>
        <path class="cls-57" d="M153.73,12.58c0,3,0,5.93,0,8.9-.08,6.53-.1,6.53-7.8,6.86-5.21-7-5.21-7-5.21-15.76Z"/>
        <path class="cls-58"
              d="M140.71,12.58c0,8.8,0,8.8,5.21,15.76h-2.6c-2.22.06-4.33-4.35-6.77-.08-.32.55-2.39.08-3.65.08,5.21-7,5.21-7,5.21-15.76Z"/>
        <path class="cls-59"
              d="M122.49,12.58c0,3,.43,6.14-.1,9.07C121.7,25.4,123.72,28,125.1,31c-2.57-1-6.59,2.43-7.81-2.63.87-1.05,2.37-2,2.48-3.15a97.63,97.63,0,0,0,.12-10V12.58Z"/>
        <path class="cls-60" d="M104.27,25.71V12.58h2.61V25.71Z"/>
        <path class="cls-56" d="M106.88,15.21V12.58h13v2.63h-13Z"/>
        <path class="cls-61" d="M62.63,15.21H52.22V12.58a45.9,45.9,0,0,1,7.33.12C60.68,12.89,61.61,14.33,62.63,15.21Z"/>
        <ellipse class="cls-62" cx="48.31" cy="13.9" rx="5.52" ry="1.86"/>
        <path class="cls-63"
              d="M26.19,94h2.6c2-.39,5,1.31,5.21-2.62H44.41l5.21-2.63V94H41.81L39.2,96.62H34c-2,.4-5-1.3-5.21,2.63l-2.6,2,2.6,3.27L47,101.87v60.41c-4.15,0-8.32-.18-12.46.12-1.1.08-2.1,1.63-3.15,2.5H28.79l-.85-2.18-1.75,2.18v5.25h-2.6a46.65,46.65,0,0,1,.12-7.39c.18-1.14,1.61-2.08,2.48-3.11,2.56-1,6.59,2.43,7.81-2.63,5,.19,8.24-1.77,7.73-7.3-.24-2.61-2.62-5.82-1.74-7.59,4.11-8.23.66-16.75,1.78-25,.54-3.92-1.47-6.32-5.17-7.36H26.19l-2.6-2.62V96.62C24.46,95.75,25.32,94.87,26.19,94Z"/>
        <path class="cls-64"
              d="M36.6,109.75c3.7,1,5.71,3.44,5.17,7.36-1.12,8.27,2.33,16.79-1.78,25-.88,1.77,1.5,5,1.74,7.59.51,5.53-2.71,7.49-7.73,7.3.28-.72.55-1.45.85-2.17,3.61-8.52,2.1-11.9-6.37-13.51-2.42-.46-5-.07-7.5-.07v-2.63c1.74-.61,5-1.19,5-1.82.08-5.71,4.8-10.59,2.83-16.56,1.56-1.75,2.95-4.78,4.7-5C37.7,114.71,36.36,112,36.6,109.75Z"/>
        <path class="cls-65"
              d="M21,175.41H31.4c1.37,3,3.28,5.57,2.72,9.33S34,192.52,34,196.42L31.4,199H28.79c-1.09-.87-2.05-2.12-3.29-2.54-1.76-.59-4.5.8-4.52-2.71l2.14-.85C19.46,187.47,21.5,181.28,21,175.41Z"/>
        <path class="cls-66"
              d="M31.4,175.41H26.19v-2.63c7.34,0,14.69-.07,22,0,9.2.11,18.55-1.1,27.42,2.61-1.22,5.06-5.24,1.62-7.8,2.62h-13c-2.65-.87-5.26-2.29-8-2.51C41.74,175.12,36.55,175.41,31.4,175.41Z"/>
        <path class="cls-67" d="M21,175.41c.52,5.87-1.52,12.06,2.14,17.53l-2.14.85h-2.6V175.41Z"/>
        <path class="cls-68" d="M34,157c-1.22,5.06-5.25,1.63-7.81,2.63C27.41,154.59,31.44,158,34,157Z"/>
        <path class="cls-66" d="M23.59,170.15h2.6v2.63Z"/>
        <path class="cls-69"
              d="M145.92,115v2.63c-1.43,1-2.9,2-4.3,3-7.11,5.38-7.78,8.84-3.51,18-2.2.26-5.32-1.19-5.23,3.14.11,5.08,0,10.16,0,15.24h-2.6c0-6.79.12-13.6-.11-20.39,0-1.11-1.62-2.16-2.49-3.24V107.13c3.47-2.88,7.57-2.85,11.73-2.64,7.73.37,1.95,6.85,4.33,9.58C144.23,114.61,145.19,114.7,145.92,115Zm-15.24,4.32.92.94a8.56,8.56,0,0,0,.82-1.77c0-.21-.53-.57-.82-.86Z"/>
        <path class="cls-70"
              d="M132.9,157c0-5.08.09-10.16,0-15.24-.09-4.33,3-2.88,5.23-3.14h2.6l5.21,7.88c2.51,3.86,4.43,8.48,1.72,12.31-2.32,3.28-1.07,6.33-1.82,9.38-.2.81-1.64,1.31-2.5,1.94a47.87,47.87,0,0,0-.12-7.39c-.18-1.14-1.62-2.08-2.49-3.11C139.49,154.59,135.47,158,132.9,157Z"/>
        <path class="cls-71" d="M145.92,146.52l-5.21-7.88c2,.4,5-1.3,5.21,2.63v5.25Z"/>
        <path class="cls-28" d="M145.92,143.89v-2.62h2.6Z"/>
        <path class="cls-72"
              d="M140.71,159.65c.87,1,2.31,2,2.49,3.11a47.87,47.87,0,0,1,.12,7.39l-2.61,2.63a45.9,45.9,0,0,0-7.33.12c-1.13.18-2.06,1.63-3.08,2.51h-2.6c-.68-.88-1.35-2.5-2-2.52q-13.57-.25-27.15,0c-.7,0-1.36,1.64-2,2.52H86.05c-3.29-3.56-7.11-3.56-10.41,0-8.87-3.71-18.22-2.5-27.42-2.61-7.34-.09-14.69,0-22,0v-5.25h2.6c.69.87,1.36,2.51,2.05,2.51q24,.22,48,0c.69,0,1.37-1.64,2-2.51h5.2l2.61,2.62h39a43.91,43.91,0,0,1,6.18,0c4.6.69,4.4-2.25,4.23-5.3v-2.62C139,161.4,139.85,160.53,140.71,159.65Z"/>
        <path class="cls-73"
              d="M153.73,178c0,4.2.18,8.4-.12,12.58-.08,1.11-1.62,2.12-2.49,3.18-.86-.88-1.73-1.75-2.6-2.63.06-2.23-4.31-4.36-.07-6.83.54-.31.07-2.4.07-3.67V178h5.21Z"/>
        <path class="cls-74"
              d="M143.32,188.54a95.81,95.81,0,0,1-9.89-.12c-1.12-.12-2.09-1.63-3.13-2.51a45.88,45.88,0,0,0,7.33-.12c1.13-.18,2.06-1.63,3.08-2.5V178c2,.4,5-1.3,5.21,2.63C140.9,181.89,144.31,186,143.32,188.54Z"/>
        <path class="cls-75" d="M140.71,178v5.26h-13c1-4.15,3.77-5.68,7.81-5.26l.85,2.18,1.75-2.18Z"/>
        <path class="cls-76"
              d="M143.32,188.54c1-2.59-2.42-6.65,2.6-7.88h2.6c0,1.27.47,3.36-.07,3.67-4.24,2.47.13,4.6.07,6.83C146.55,190.77,143.54,192.47,143.32,188.54Z"/>
        <path class="cls-66"
              d="M130.3,175.41c1-.88,1.95-2.33,3.08-2.51a45.9,45.9,0,0,1,7.33-.12c-.86.88-1.73,1.75-2.6,2.63H130.3Z"/>
        <path class="cls-77" d="M135.51,175.41h2.6V178l-1.75,2.18-.85-2.18Z"/>
        <path class="cls-78" d="M151.12,178h-2.6l1.75-2.17Z"/>
        <path class="cls-79"
              d="M135.51,62.48l2.6,2.63L136,66l2.16,1.76v2.63c-5.35.93-10.65,1.92-13,7.88-2,.39-5-1.31-5.21,2.62-2-.39-5,1.31-5.2-2.62V67.73c4.2-1.64,6.63-7.07,12.23-5.85a13.13,13.13,0,0,0,.78-2h2.6C130.52,63.78,133.53,62.08,135.51,62.48Z"/>
        <path class="cls-80"
              d="M148.52,65.11c5.56,4.9,5.65,5,5.12,12.55-.06.82-1.37,1.54-2.1,2.31a18,18,0,0,0-1.8-1.7c-.28-.2-.8,0-1.22,0a21.2,21.2,0,0,1-2.58-2c-1-1-1.76-2.16-2.62-3.24l-2.61-2.63V67.73Z"/>
        <path class="cls-81"
              d="M145.92,41.47c0-.84,0-1.68,0-2.52.09-7.73.09-7.73,7.81-8,0,3.33.21,6.68-.12,10-.12,1.12-1.62,2.1-2.49,3.15h-2.6Z"/>
        <path class="cls-82"
              d="M138.11,52c1.36,2.53,4.72-7.61,5.31.88.13,1.86,2.06,3.55,2.35,5.44.2,1.28-1,2.78-1.6,4.18-1.15-.82-2.6-1.43-3.39-2.52a36.19,36.19,0,0,1-2.67-5.36Z"/>
        <path class="cls-83"
              d="M138.11,52V54.6l-2.6,2.63-5.21,2.62h-2.6c-2.56-1-6.59,2.44-7.81-2.62,6.84.68,12.87-.29,15.62-7.88h2.6Z"/>
        <path class="cls-84"
              d="M153.73,59.85v2.63c-2.18-.27-5.68,1.16-5.11-3.08.41-3,1.75-6,2.73-8.93a2,2,0,0,1,.82-.86c.56.42,1.46.91,1.49,1.41C153.8,54,153.73,56.91,153.73,59.85Z"/>
        <path class="cls-85" d="M130.3,59.85l5.21-2.62v5.25C133.53,62.08,130.52,63.78,130.3,59.85Z"/>
        <path class="cls-86" d="M143.32,44.1c-.23,3.93-3.24,2.23-5.21,2.62C138.33,42.79,141.34,44.49,143.32,44.1Z"/>
        <ellipse class="cls-87" cx="136.81" cy="48.04" rx="1.84" ry="1.86"/>
        <path class="cls-88" d="M148.52,44.1h2.6l-1.74,2.17Z"/>
        <ellipse class="cls-89" cx="139.41" cy="69.05" rx="1.84" ry="1.86"/>
        <path class="cls-89" d="M138.11,67.73,136,66l2.16-.86Z"/>
        <path class="cls-90" d="M143.32,41.47h2.6l-2.6,2.63Z"/>
        <path class="cls-91"
              d="M138.11,70.36h2.6L143.32,73c.86,1.08,1.66,2.24,2.62,3.24a21.2,21.2,0,0,0,2.58,2c-.22,3.93-3.23,2.23-5.2,2.62l-1.78-2.15a13.43,13.43,0,0,0-.8,2.22,16.8,16.8,0,0,0,0,2.56v7.88h-2.6c-1-.88-2-2.32-3.08-2.51a45.9,45.9,0,0,0-7.33-.12l-2.6-2.62c-1.08-.88-2.23-1.68-3.22-2.65a22.44,22.44,0,0,1-2-2.61c2-.39,5,1.31,5.21-2.62C130.44,77.31,135.75,76.31,138.11,70.36Z"/>
        <path class="cls-92"
              d="M138.11,91.37h2.6q2.61,3.93,5.21,7.88v2.62c-3.88,0-7.76-.09-11.63,0-2.43.08-3.89-.23-4.07-3.3C129.82,91.75,129.7,91.71,138.11,91.37Z"/>
        <path class="cls-93" d="M140.71,83.49a16.8,16.8,0,0,1,0-2.56,13.43,13.43,0,0,1,.8-2.22l1.78,2.15Z"/>
        <path class="cls-94" d="M23.59,96.62v7.88c-5-1.23-1.61-5.29-2.61-7.88Z"/>
        <path class="cls-94" d="M23.59,107.13l2.6,2.62Z"/>
        <path class="cls-95"
              d="M18.38,175.41v13.13c-1.37-2.59-4.81,7.61-5.18-.84a63.35,63.35,0,0,1,.07-10.31C13.65,174.2,16.54,175.77,18.38,175.41Z"/>
        <path class="cls-96"
              d="M18.38,193.79H21c0,3.51,2.76,2.12,4.52,2.71,1.24.42,2.2,1.67,3.29,2.54v5.25C23.17,199,23.17,199,18.38,199c-.79-.52-1.6-1.48-2.35-1.44-1,.06-1.91.92-2.85,1.44v-2.62C13.4,192.49,16.41,194.19,18.38,193.79Z"/>
        <path class="cls-97"
              d="M138.11,91.37c-8.41.34-8.29.38-7.89,7.24.18,3.07,1.64,3.38,4.07,3.3,3.87-.13,7.75,0,11.63,0V115c-.73-.3-1.69-.39-2.16-.93-2.38-2.73,3.4-9.21-4.33-9.58-4.16-.21-8.26-.24-11.73,2.64V88.74a45.9,45.9,0,0,1,7.33.12C136.16,89.05,137.09,90.49,138.11,91.37Z"/>
        <path class="cls-98"
              d="M26.19,70.36H31.4C32.62,75.42,36.64,72,39.2,73l2.61,13.13H34c-.22-3.93-3.23-2.23-5.21-2.63-.22-3.93-3.23-2.23-5.2-2.63L21,78.24V67.73h2.61Z"/>
        <path class="cls-99" d="M34,86.12H44.41v5.25h-13C31.79,89.38,30.11,86.34,34,86.12Z"/>
        <path class="cls-100"
              d="M26.19,83.49c.42,3.4-.62,7-4.28,4.93-2.86-1.63-4.78,6.76-5.91.24-.71-4.07,3.64-1.74,5.58-2.62.87-.4,1.35-1.67,2-2.55Z"/>
        <path class="cls-101" d="M26.19,83.49h-2.6V80.86c2,.4,5-1.3,5.2,2.63Z"/>
        <path class="cls-94" d="M31.4,91.37H34c-.22,3.93-3.23,2.23-5.21,2.62Z"/>
        <path class="cls-94" d="M26.19,94l-2.6,2.63Z"/>
        <path class="cls-102" d="M21,78.24l2.61,2.62H21Z"/>
        <path class="cls-103"
              d="M23.59,227.93,21,220.05l2.61-2.62V214.8l2.6-2.63h2.6c7.7.11,7.7.11,7.81,7.88-.31,7.76-.31,7.77-6.74,7.88C27.77,228,25.68,227.93,23.59,227.93Z"/>
        <path class="cls-96"
              d="M15.78,222.68c-1.37-3-3.28-5.57-2.73-9.33s.13-7.78.13-11.68c5,1.23,1.61,5.29,2.6,7.88v2.62l5.2,5.26v2.62Z"/>
        <path class="cls-104"
              d="M143.32,41.47V44.1c-2,.39-5-1.31-5.21,2.62h-2.6c-.22-3.93-3.24-2.23-5.21-2.62V41.47c-.39-2,1.29-5-2.6-5.25L130.3,31l2.6-2.63c1.26,0,3.33.47,3.65-.08,2.44-4.27,4.55.14,6.77.08Z"/>
        <path class="cls-105"
              d="M15.78,209.55c-1-2.59,2.41-6.65-2.6-7.88V199c.94-.52,1.87-1.38,2.85-1.44.75,0,1.56.92,2.35,1.44a46.78,46.78,0,0,1-.12,7.4C18.08,207.58,16.65,208.52,15.78,209.55Z"/>
        <path class="cls-41" d="M13.18,54.6c5,1.23,1.61,5.3,2.6,7.88h-2.6V54.6Z"/>
        <path class="cls-106" d="M18.38,65.11,21,67.73Z"/>
        <path class="cls-41" d="M15.78,62.48l2.6,2.63Z"/>
        <path class="cls-107"
              d="M67.84,62.48h2.6c1,.88,2.17,2.6,3.08,2.48,4.21-.55,8.36-1.6,12.53-2.48l7.81,2.63,2.23,1.69c-6.28.33-4.65,5.08-4.83,8.81l2.6,2.63v2.62c-4.37.88-8.72,2.15-13.14,2.53-5.13.44-10.32.1-15.49.1.29-.72.36-1.76.88-2.12,4.7-3.2,8.9-10,6.73-11.76s-5.9-1.34-9-1.87a7.45,7.45,0,0,0-1.25,0,23.2,23.2,0,0,1,2-2.6C65.61,64.16,66.76,63.36,67.84,62.48Z"/>
        <path class="cls-108"
              d="M93.86,65.11l-7.81-2.63c.32-3.8-.13-7.41-2.6-10.5l2.6-5.26c4.42.67,8.19.23,9.19-5.24a5.67,5.67,0,0,1,1.23,0c.39,2-1.3,5,2.6,5.25l2.6,2.63c0,3.9.55,7.9-.15,11.67S94.34,59.59,93.86,65.11Z"/>
        <path class="cls-109" d="M44.41,86.12h-2.6L39.2,73c2-.4,5,1.3,5.21-2.63h13V83.49Z"/>
        <path class="cls-110"
              d="M57.42,83.49V67.73h5.21a7.45,7.45,0,0,1,1.25,0c3.06.53,6.83.16,9,1.87s-2,8.56-6.73,11.76c-.52.36-.59,1.4-.88,2.12Z"/>
        <path class="cls-111"
              d="M36.6,31c.87,1.09,2.46,2.16,2.49,3.27.21,8.53.11,17.07.11,25.61v2.63H34V38.84a40.81,40.81,0,0,1-3.22-2.65,21.51,21.51,0,0,1-2-2.6H31.4C33.37,33.2,36.38,34.89,36.6,31Z"/>
        <path class="cls-112"
              d="M96.47,41.47a5.67,5.67,0,0,0-1.23,0c-1,5.47-4.77,5.91-9.19,5.24V44.1l2.61-2.63V25.71L96.47,31c1,2.58-2.42,6.64,2.6,7.87v2.63Z"/>
        <path class="cls-113"
              d="M83.45,52c2.47,3.09,2.92,6.7,2.6,10.5-4.17.88-8.32,1.93-12.53,2.48-.91.12-2-1.6-3.08-2.48,2.08-1.66,4.16-3.31,6.23-5C78.94,55.67,81.19,53.82,83.45,52Z"/>
        <path class="cls-106"
              d="M34,62.48H49.62a95.88,95.88,0,0,0,9.89-.12c1.11-.12,2.08-1.63,3.12-2.51l5.21,2.63c-1.08.88-2.23,1.68-3.22,2.65a23.2,23.2,0,0,0-2,2.6H60c-1.11-.87-2.21-2.48-3.34-2.51-8.18-.21-16.38,0-24.56-.23-1.13,0-2.23-1.63-3.34-2.51Z"/>
        <path class="cls-114"
              d="M62.63,59.85c-1,.88-2,2.39-3.12,2.51a95.88,95.88,0,0,1-9.89.12V59.85c.86-1.08,2.44-2.13,2.48-3.24.23-6.79.12-13.59.12-20.39V33.59L55.46,31l2,2.62c-.43,0-1.21-.09-1.24,0a52.26,52.26,0,0,0,0,26.23c0,.11.81,0,1.24,0Z"/>
        <path class="cls-115" d="M57.42,59.85c-.43,0-1.21.1-1.24,0a52.26,52.26,0,0,1,0-26.23c0-.11.81,0,1.24,0Z"/>
        <path class="cls-106" d="M44.41,70.36c-.22,3.93-3.23,2.23-5.21,2.63-2.56-1-6.58,2.43-7.8-2.63Z"/>
        <path class="cls-41"
              d="M28.79,33.59a21.51,21.51,0,0,0,2,2.6A40.81,40.81,0,0,0,34,38.84a28.06,28.06,0,0,1-5.11-.08c-1-.18-1.8-1.21-2.7-1.85Z"/>
        <ellipse class="cls-116" cx="44.41" cy="61.17" rx="7.36" ry="1.86"/>
        <path class="cls-117"
              d="M52.22,33.59v2.63a7.35,7.35,0,0,1-2.53-.06,9.9,9.9,0,0,1-2.23-1.71,12.62,12.62,0,0,1,2.21-.83A15.49,15.49,0,0,1,52.22,33.59Z"/>
        <path class="cls-41" d="M36.6,31c-.22,3.92-3.23,2.23-5.2,2.62C31.62,29.66,34.63,31.36,36.6,31Z"/>
        <path class="cls-106" d="M57.42,67.73v2.63h-5.2C52.44,66.43,55.45,68.13,57.42,67.73Z"/>
        <path class="cls-118" d="M34,62.48H28.79V59.85H34Z"/>
        <path class="cls-41" d="M34,59.85H31.4L34,57.23Z"/>
        <path class="cls-106" d="M28.79,59.85v2.63l-2.16-1.76Z"/>
        <path class="cls-108" d="M88.66,41.47,86.05,44.1Z"/>
        <path class="cls-106" d="M26.19,70.36l-2.6-2.63Z"/>
        <path class="cls-119"
              d="M135.51,175.41V178c-4-.42-6.79,1.11-7.81,5.26v2.62c-2.9,1.38-5.5,3.77-9.11,2.63s-6.22,1.25-9.11,2.62c-1.59.29-3.19.48-4.75.88-1.91.5-3.78,1.16-5.66,1.75a81.2,81.2,0,0,0,6.2-7.72c1-1.6,1.24-3.79,1.5-5.76.06-.42-1.24-1-1.91-1.55-2.49,4.31-3.68-1.94-5.79-.73,1.08-.87,2.14-2.48,3.24-2.51,8.46-.21,16.92-.11,25.39-.11h7.81Z"/>
        <path class="cls-120"
              d="M78.25,233.18c-9.54.07-9.54.07-15.62,7.88,2.1-5.92-3.3-8.82-5.21-13.13V225.3H60c1,4.15,3.77,5.68,7.81,5.26h2.6c3.52-3.33,3.52-7.19,0-10.51v-2.62H73l5.21,2.62v13.13Z"/>
        <path class="cls-121"
              d="M83.45,209.55v2.62h-2.6c-1.22-5.06-5.25-1.62-7.81-2.62h-5.2v-5.26c-.25-5.17.23-10,5.2-13.13-.4,2.81,0,5.45-1.49,8.44-3.06,6-.66,8.56,6,7.28,3.5-.67,6.07-2.47,5.93-6.63-.07-2.15,0-4.31,0-6.46h5.21c-2.47,3.1-2.92,6.71-2.61,10.5v2.63C85.19,207.8,84.32,208.67,83.45,209.55Z"/>
        <path class="cls-122"
              d="M99.07,193.79c1.88-.59,3.75-1.25,5.66-1.75,1.56-.4,3.16-.59,4.75-.88,1.11.88,2.2,2.48,3.33,2.51,7.32.23,14.65,0,22,.24,1.13,0,2.22,1.63,3.33,2.51H122.49c-5,0-10-.16-15,.12-1.1.06-2.12,1.63-3.18,2.5h-7.8v-2.62C97.33,195.54,98.2,194.67,99.07,193.79Z"/>
        <path class="cls-123"
              d="M104.27,199c1.06-.87,2.08-2.44,3.18-2.5,5-.28,10-.12,15-.12V199h-7.8c-.44,0-1.22-.09-1.25,0a52.26,52.26,0,0,0,0,26.23c0,.11.81,0,1.25,0-.23,3.93-3.24,2.24-5.21,2.63,0-7.67.1-15.34-.12-23,0-1.11-1.62-2.18-2.48-3.26Z"/>
        <path class="cls-124"
              d="M122.49,199v-2.62h15.62c-.22,3.93-3.23,2.23-5.21,2.62-.86,1.12-2.43,2.2-2.48,3.36-.26,5.63,0,11.29-.24,16.92-.05,1.16-1.61,2.24-2.48,3.36,0-5.49-.1-11,0-16.46C127.83,202.34,126.12,200,122.49,199Z"/>
        <path class="cls-125"
              d="M127.7,222.68c.87-1.12,2.43-2.2,2.48-3.36.26-5.63,0-11.29.24-16.92.05-1.16,1.62-2.24,2.48-3.36V225.3c-1.08.88-2.28,2.6-3.24,2.48C126.52,227.36,128.05,224.54,127.7,222.68Z"/>
        <path class="cls-126"
              d="M96.47,196.42V199H93.86l-7.81,5.25c-.31-3.79.14-7.4,2.61-10.5.86-.88,1.73-1.75,2.6-2.63h2.6Z"/>
        <path class="cls-122"
              d="M106.88,201.67c.86,1.08,2.45,2.15,2.48,3.26.22,7.66.12,15.33.12,23-.87-1.08-2.46-2.15-2.49-3.26C106.77,217,106.88,209.34,106.88,201.67Z"/>
        <path class="cls-127"
              d="M114.69,225.3c-.44,0-1.22.1-1.25,0a52.26,52.26,0,0,1,0-26.23c0-.11.81,0,1.25,0V225.3Z"/>
        <path class="cls-122"
              d="M78.25,233.18v-2.62l10.41,10.5a33.62,33.62,0,0,1-5.56-1.76,36.9,36.9,0,0,1-4.85-3.49Z"/>
        <path class="cls-77" d="M127.7,185.91v-2.62h13c-1,.87-2,2.32-3.08,2.5a45.88,45.88,0,0,1-7.33.12Z"/>
        <path class="cls-122" d="M86.05,204.29,93.86,199c-.54,5.89-2,7.33-7.81,7.88Z"/>
        <path class="cls-122" d="M78.25,222.68v-2.63c.39-2-1.29-5,2.6-5.25C83.77,218.7,83.05,221.37,78.25,222.68Z"/>
        <path class="cls-114"
              d="M114.69,225.3v-2.62a7.35,7.35,0,0,1,2.53.06,9.85,9.85,0,0,1,2.22,1.71,12.29,12.29,0,0,1-2.21.82A14.33,14.33,0,0,1,114.69,225.3Z"/>
        <path class="cls-128"
              d="M132.9,225.3v-2.62a7.34,7.34,0,0,1,2.53.06,9.68,9.68,0,0,1,2.23,1.71,12.29,12.29,0,0,1-2.21.82A14.43,14.43,0,0,1,132.9,225.3Z"/>
        <path class="cls-122" d="M83.45,209.55c.87-.88,1.74-1.75,2.6-2.63C85.19,207.8,84.32,208.67,83.45,209.55Z"/>
        <path class="cls-122" d="M80.85,212.17h2.6l-2.6,2.63Z"/>
        <path class="cls-122" d="M104.27,199l2.61,2.63Z"/>
        <path class="cls-31" d="M148.52,191.16c.87.88,1.74,1.75,2.6,2.63C150.26,192.91,149.39,192,148.52,191.16Z"/>
        <path class="cls-129" d="M57.42,225.3v2.63h-5.2l2.6-7.88h2.6Z"/>
        <path class="cls-130" d="M52.22,227.93,47,233.18v-2.62C47.23,226.63,50.25,228.33,52.22,227.93Z"/>
        <path class="cls-131" d="M47,230.56v2.62l-2.6,2.63c-.87-.88-1.74-1.75-2.6-2.63v-2.62Z"/>
        <ellipse class="cls-132" cx="40.51" cy="231.87" rx="1.84" ry="1.86"/>
        <path class="cls-133"
              d="M41.81,230.56H39.2c-1.72,0-3.43,0-5.15,0-7.11.09-7,.11-8,7.14-.16,1.21-1.63,2.25-2.5,3.36V227.93c2.09,0,4.18,0,6.27,0,6.43-.11,6.43-.12,6.74-7.88h2.6C38.89,223.85,39.34,227.46,41.81,230.56Z"/>
        <path class="cls-134"
              d="M104.27,25.71h2.61c.86.88,1.73,1.75,2.6,2.63.22,3.93,3.23,2.23,5.21,2.63,0,2.25-4,4.19-.15,7,1,.72.15,4,.15,6.17h-2.61c.29-4.86-2.52-8.42-5.3-11.75-1.82-2.18-4.26-2.75-5.11,1.24h-2.6V31c1.08-.88,2.23-1.68,3.21-2.65A21.38,21.38,0,0,0,104.27,25.71Z"/>
        <path class="cls-135" d="M99.07,31v7.87c-5-1.23-1.61-5.29-2.6-7.87Z"/>
        <path class="cls-136" d="M130.3,31l-2.6,5.25-2.6,2.62V31Z"/>
        <path class="cls-137" d="M132.9,28.34,130.3,31C131.17,30.09,132,29.22,132.9,28.34Z"/>
        <path class="cls-138"
              d="M114.69,31c-2-.4-5,1.3-5.21-2.63V15.21h10.41a97.63,97.63,0,0,1-.12,10c-.11,1.12-1.61,2.1-2.48,3.15C116.42,29.22,115.55,30.09,114.69,31Z"/>
        <path class="cls-139"
              d="M114.69,31c.86-.88,1.73-1.75,2.6-2.63,1.22,5.06,5.24,1.63,7.81,2.63v7.87c-1-1.46-1.77-3.33-3.15-4.25-1-.68-4-.31-4.09,0-.33,2-.63,4.24.09,6,.34.82,3,.66,4.54.95V44.1h-7.8c0-2.13.84-5.45-.15-6.17C110.67,35.16,114.65,33.22,114.69,31Z"/>
        <path class="cls-140" d="M109.48,15.21V28.34c-.87-.88-1.74-1.75-2.6-2.63V15.21Z"/>
        <path class="cls-141"
              d="M49.62,91.37V88.74h5.2l2.6-2.62c13,.21,13,.21,13,13.3v5.08c0,1.28.49,3.33-.08,3.7-5.13,3.32-1.19,6.33.08,9.43,0,6.42,1.92,13.73-.5,19C67,143.06,68.8,149,68,155.05c-.07.53,1.61,1.31,2.48,2H73c.68.88,1.33,2.49,2,2.51,5.58.21,11.18.21,16.76,0,.71,0,1.36-1.63,2-2.51,2.19-.26,5.32,1.2,5.23-3.1s0-8.44,0-12.65V115c-.39-2,1.29-5-2.6-5.25-2.51,0-5,.1-7.53,0-6-.28-7.59-1.89-8.07-8-.13-1.67,0-3.37,0-5.06,5-5.43,11.63-5.31,18.22-5.25,2,.39,5-1.3,5.2,2.62-2,.4-5-1.3-5.2,2.63-4.38-1.3-7.66,2.33-11.69,2.77-.55.06-1.36,2.16-1.18,3.15.16.79,1.55,1.57,2.55,1.92,5.6,1.92,10.2-2.57,15.52-2.59v60.41H93.86c-4.49.07-9.18-.83-13,2.62H75.64c-1-.87-1.94-2.32-3.08-2.51a45.89,45.89,0,0,0-7.33-.11V91.37l-.85-2.18-1.75,2.18h-13Z"/>
        <path class="cls-142"
              d="M52.22,91.37h5.2c.87,2.23,2.47,4.45,2.49,6.68.19,21.16.08,42.31.16,63.46,0,3-1.41,3.13-3.84,3.53-3.72.61-6.3-1.38-9.22-2.76V101.87c2-.1,3.41-.9,1.19-2.53C46.38,98,44,97.5,41.81,96.62V94H47c1.59,4.66,4.62,2.73,7.46,1.67L52.22,94Z"/>
        <path class="cls-143"
              d="M70.44,104.5V99.42c0-13.09,0-13.09-13-13.3l-2.6,2.62h-5.2l-5.21,2.63V86.12l13-2.63h7.81c5.17,0,10.36.34,15.49-.1,4.42-.38,8.77-1.65,13.14-2.53h2.61l2.6,2.63h2.6l.86,2.18,1.74-2.18h2.61a45.9,45.9,0,0,1,7.33.12c1.13.18,2.06,1.63,3.08,2.51-5.61,2.11-11.46,2.78-17.38,3.18-.32,0-.56,1.35-.84,2.07-6.59-.06-13.19-.18-18.22,5.25-.73.3-2,.44-2.12.93C76.6,104.39,76.63,104.4,70.44,104.5Z"/>
        <path class="cls-144"
              d="M47,162.28c2.92,1.38,5.5,3.37,9.22,2.76,2.43-.4,3.85-.56,3.84-3.53-.08-21.15,0-42.3-.16-63.46,0-2.23-1.62-4.45-2.49-6.68h7.81v7.88c-3.52,0-2.56,2.74-2.57,4.63q-.07,29.19,0,58.4c1,.87,2,2.39,3.12,2.5a95.88,95.88,0,0,0,9.89.12h5.21v2.63H28.79V164.9H31.4c4.15,0,8.32.18,12.46-.12C45,164.7,46,163.15,47,162.28Z"/>
        <path class="cls-145"
              d="M41.81,96.62C44,97.5,46.38,98,48.2,99.34c2.22,1.63.82,2.43-1.19,2.53L28.79,104.5V99.25c2-.4,5,1.3,5.21-2.63h7.81Z"/>
        <path class="cls-146"
              d="M47,162.28c-1,.87-2,2.42-3.15,2.5-4.14.3-8.31.12-12.46.12,1.05-.87,2.05-2.42,3.15-2.5C38.69,162.1,42.86,162.28,47,162.28Z"/>
        <path class="cls-147" d="M52.22,94l2.25,1.67c-2.84,1.06-5.87,3-7.46-1.67h5.21Z"/>
        <path class="cls-94" d="M28.79,99.25v5.25l-2.6-3.27Z"/>
        <path class="cls-94" d="M34,96.62c-.22,3.93-3.23,2.23-5.21,2.63C29,95.32,32,97,34,96.62Z"/>
        <ellipse class="cls-94" cx="50.92" cy="92.68" rx="1.84" ry="1.86"/>
        <path class="cls-94" d="M41.81,96.62H39.2L41.81,94Z"/>
        <ellipse class="cls-68" cx="27.49" cy="166.22" rx="1.84" ry="1.86"/>
        <path class="cls-72" d="M28.79,164.9h-2.6l1.75-2.18Z"/>
        <path class="cls-148"
              d="M31.4,175.41c5.15,0,10.34-.29,15.46.11,2.7.22,5.31,1.64,8,2.51A22.53,22.53,0,0,1,47,196.42H34c0-3.9-.44-7.87.12-11.68S32.77,178.37,31.4,175.41Z"/>
        <path class="cls-149"
              d="M34,196.42H47V199c-1.27,0-2.54.05-3.81,0-4.11-.16-5.92,2.45-6.49,5.95-.23,1.42.5,4.19,1.25,4.36,2.83.66,5.89.68,7.82-2.39.12-.2.81,0,1.23,0,1,4.61-1.15,5.93-5.37,5.35-.56-.08-1.29,1.11-2,1.71l2.12.82-2.61,5.25H36.6c-.11-7.77-.11-7.77-7.81-7.88v-2.62c3.29,0,7,.63,2.76-4.45-1-1.21-.15-4-.15-6.06Z"/>
        <path class="cls-150" d="M31.4,199c0,2.06-.86,4.85.15,6.06,4.23,5.08.53,4.49-2.76,4.45V199Z"/>
        <path class="cls-151"
              d="M47,196.42A22.53,22.53,0,0,0,54.82,178h13l5.2,7.88v5.25c-5,3.08-5.45,8-5.2,13.13-2.48-1.17-5.86-1.7-7.24-3.66C56.93,195.4,51.9,196.55,47,196.42Z"/>
        <path class="cls-121"
              d="M73,185.91,67.84,178c2.56-1,6.58,2.44,7.8-2.62L83.45,178c1.09.88,2,2.2,3.28,2.55,3.86,1.08,5.55,3.12,4.46,6.51-.47,1.48-1.67,2.72-2.53,4.07-2,.4-5-1.3-5.21,2.63l-7.81-2.63C75.25,189.17,76.93,186.14,73,185.91Z"/>
        <path class="cls-152"
              d="M99.07,91.37c.28-.72.52-2.05.84-2.07,5.92-.4,11.77-1.07,17.38-3.18h7.81l2.6,2.62v44.65c0,6.8-.12,13.6.12,20.39,0,1.11,1.61,2.16,2.48,3.24,1,.88,1.95,2.33,3.08,2.51a45.9,45.9,0,0,0,7.33.12c-.86.88-1.73,1.75-2.6,2.63H122.49v-63c-1-2.59,2.42-6.65-2.6-7.88h-5.2c-1.89.59-3.76,1.25-5.67,1.74-1.55.4-3.16.6-4.75.88C104.05,90.07,101,91.76,99.07,91.37Z"/>
        <path class="cls-153"
              d="M130.3,157c-.87-1.08-2.45-2.13-2.48-3.24-.24-6.79-.12-13.59-.12-20.39.87,1.08,2.45,2.13,2.49,3.24C130.42,143.42,130.3,150.23,130.3,157Z"/>
        <path class="cls-153"
              d="M140.71,159.65a45.9,45.9,0,0,1-7.33-.12c-1.13-.18-2.06-1.63-3.08-2.51h2.6C135.47,158,139.49,154.59,140.71,159.65Z"/>
        <path class="cls-153" d="M130.68,119.32l.92-1.69c.29.29.86.65.82.86a8.56,8.56,0,0,1-.82,1.77Z"/>
        <path class="cls-154"
              d="M93.86,162.28h10.41c3.83,3.45,8.52,2.55,13,2.62h20.82c.17,3,.37,6-4.23,5.3a43.91,43.91,0,0,0-6.18,0c-.3-.74-.6-2.13-.91-2.13q-13.41-.18-26.81,0c-.31,0-.61,1.39-.91,2.13H88.66l-2.61-2.62c1.09-.88,2.06-2.12,3.3-2.54C91.11,164.4,93.85,165.79,93.86,162.28Z"/>
        <path class="cls-146"
              d="M28.79,167.53H80.85c-.68.87-1.36,2.51-2,2.51q-24,.22-48,0C30.15,170,29.48,168.4,28.79,167.53Z"/>
        <path class="cls-155"
              d="M88.66,191.16c.86-1.35,2.06-2.59,2.53-4.07,1.09-3.39-.6-5.43-4.46-6.51-1.23-.35-2.19-1.67-3.28-2.55l2.6-2.62H96.47V178c-3.42,3.86-2.54,8.6-2.61,13.13h-5.2Z"/>
        <path class="cls-66"
              d="M96.47,178v-2.62c.68-.88,1.34-2.5,2-2.52q13.58-.25,27.15,0c.69,0,1.36,1.64,2,2.52-8.47,0-16.93-.1-25.39.11-1.1,0-2.16,1.64-3.24,2.51Z"/>
        <path class="cls-66" d="M99.07,170.15c.3-.74.6-2.13.91-2.13q13.39-.18,26.81,0c.31,0,.61,1.39.91,2.13Z"/>
        <path class="cls-66"
              d="M93.86,162.28c0,3.51-2.75,2.12-4.51,2.71-1.24.42-2.21,1.66-3.3,2.54h-5.2V164.9C84.68,161.45,89.37,162.35,93.86,162.28Z"/>
        <path class="cls-66" d="M86.05,175.41,83.45,178l-7.81-2.62C78.94,171.85,82.76,171.85,86.05,175.41Z"/>
        <ellipse class="cls-153" cx="134.21" cy="163.59" rx="5.52" ry="1.86"/>
        <path class="cls-66" d="M86.05,167.53l2.61,2.62Z"/>
        <path class="cls-156"
              d="M96.47,80.86H93.86V78.24l-2.6-2.63c.18-3.73-1.45-8.48,4.83-8.81l-2.23-1.69c.48-5.52,6.94-.28,7.66-4.09s.15-7.77.15-11.67c3.33,0,2.5,2.52,2.59,4.42.36,7.09.34,7.09,5.22,11.92v-.58a7,7,0,0,0-2,.79c-.17.12.27,1,.43,1.59a4.85,4.85,0,0,0,1.54-1.8,4.28,4.28,0,0,1,2.6-.58v2.62l2.61,2.63v7.88l-7.81,5.25H99.07C98.2,82.61,97.33,81.74,96.47,80.86Z"/>
        <path class="cls-157"
              d="M112.08,67.73V65.11c1.74-2,3.43-4,5.23-5.91a18.69,18.69,0,0,1,2.58-2c1.22,5.06,5.25,1.62,7.81,2.62a13.13,13.13,0,0,1-.78,2c-5.6-1.22-8,4.21-12.23,5.85Z"/>
        <path class="cls-158"
              d="M106.88,83.49l7.81-5.25c.22,3.93,3.23,2.23,5.2,2.62a22.44,22.44,0,0,0,2,2.61c1,1,2.14,1.77,3.22,2.65h-7.81c-1-.88-2-2.33-3.08-2.51A45.9,45.9,0,0,0,106.88,83.49Z"/>
        <path class="cls-89" d="M138.11,70.36c-2.36,6-7.67,7-13,7.88C127.46,72.28,132.76,71.29,138.11,70.36Z"/>
        <path class="cls-159" d="M125.1,78.24c-.23,3.93-3.24,2.23-5.21,2.62C120.11,76.93,123.12,78.63,125.1,78.24Z"/>
        <path class="cls-158" d="M112.08,67.73h2.61v2.63Z"/>
        <path class="cls-160" d="M143.32,73l-2.61-2.63Z"/>
        <path class="cls-161"
              d="M122.49,44.1V41.47l2.61-2.63,2.6-2.62c3.89.22,2.21,3.26,2.6,5.25l-2.16.87,2.16,1.76,2.6,2.62,2.61,2.63c-2.75,7.59-8.78,8.56-15.62,7.88-.39-2,1.29-5-2.6-5.25.22-2.29-1.15-5.44,3.22-5.38C121.16,46.61,121.83,45,122.49,44.1Z"/>
        <path class="cls-83" d="M135.51,49.35l-2.61-2.63h2.61Z"/>
        <path class="cls-162"
              d="M28.79,204.29v2.63c-.86.88-1.73,1.75-2.6,2.63v2.62l-2.6,2.63H21c-.22-3.93-3.23-2.23-5.2-2.63v-2.62c.87-1,2.3-2,2.48-3.11a46.78,46.78,0,0,0,.12-7.4C23.17,199,23.17,199,28.79,204.29Z"/>
        <ellipse class="cls-163" cx="27.49" cy="210.86" rx="1.84" ry="1.86"/>
        <path class="cls-164" d="M23.59,214.8l2.6-2.63Z"/>
        <ellipse class="cls-165" cx="22.29" cy="216.11" rx="1.84" ry="1.86"/>
        <path class="cls-29" d="M21,217.43h2.61L21,220.05Z"/>
        <path class="cls-29" d="M21,214.8v2.63l-5.2-5.26C17.75,212.57,20.76,210.87,21,214.8Z"/>
        <path class="cls-166" d="M135.51,46.72H132.9l-2.6-2.62C132.27,44.49,135.29,42.79,135.51,46.72Z"/>
        <path class="cls-167" d="M130.3,44.1l-2.16-1.76,2.16-.87Z"/>
        <path class="cls-158" d="M91.26,75.61l2.6,2.63Z"/>
        <path class="cls-168"
              d="M117.29,52c3.89.22,2.21,3.26,2.6,5.25a18.69,18.69,0,0,0-2.58,2c-1.8,1.91-3.49,3.93-5.23,5.91h-2.6c-4.88-4.25-4.86-4.25-5.22-11.34-.09-1.9.74-4.43-2.59-4.42l-2.6-2.63c4.5-.07,9.18.83,13-2.62,1.36,2.89,3.72,5.49,2.68,9.14,0,.13,1.08.61,1.66.92Z"/>
        <path class="cls-169"
              d="M112.08,44.1c-3.83,3.45-8.51,2.55-13,2.62-3.9-.22-2.21-3.26-2.6-5.25h2.6l.89,2.21c.57-.34,1.62-.67,1.64-1,.13-3,.07-6,.07-9,.85-4,3.29-3.42,5.11-1.24C109.56,35.68,112.37,39.24,112.08,44.1Z"/>
        <path class="cls-170" d="M101.67,33.59c0,3,.06,6-.07,9,0,.37-1.07.7-1.64,1l-.89-2.21V33.59Z"/>
        <path class="cls-171"
              d="M96.47,178h2.6c2.11-1.21,3.3,5,5.79.73.67.52,2,1.13,1.91,1.55-.26,2-.48,4.16-1.5,5.76a81.2,81.2,0,0,1-6.2,7.72c-.87.88-1.74,1.75-2.6,2.63l-2.61-5.26C93.93,186.63,93.05,181.89,96.47,178Z"/>
        <path class="cls-172"
              d="M67.84,209.55h2.6v13.13c-5,1.23-1.61,5.29-2.6,7.88-4,.42-6.79-1.11-7.81-5.26l4.78-3.51-2.18-1.74V214.8Z"/>
        <path class="cls-173"
              d="M80.85,212.17v2.63c-3.89.22-2.21,3.26-2.6,5.25L73,217.43v-7.88C75.6,210.55,79.63,207.11,80.85,212.17Z"/>
        <path class="cls-174" d="M62.63,214.8v5.25c-3.89.23-2.21,3.26-2.6,5.25H57.42v-7.87L60,214.8Z"/>
        <path class="cls-173" d="M70.44,222.68v-2.63c3.52,3.32,3.52,7.18,0,10.51Z"/>
        <ellipse class="cls-175" cx="71.74" cy="213.49" rx="1.84" ry="5.57"/>
        <path class="cls-176" d="M70.44,222.68v7.88h-2.6C68.83,228,65.42,223.91,70.44,222.68Z"/>
        <path class="cls-177"
              d="M62.63,214.8H60l-2.61,2.63-2.6,2.62-5.2-5.25c0-4.19.17-8.4-.12-12.57-.08-1.12-1.62-2.13-2.49-3.19v-2.62c4.89.13,9.92-1,13.59,4.21,1.38,2,4.76,2.49,7.24,3.66v5.26Z"/>
        <path class="cls-178"
              d="M75.64,191.16l7.81,2.63c0,2.15-.06,4.31,0,6.46.14,4.16-2.43,6-5.93,6.63-6.64,1.28-9-1.28-6-7.28,1.52-3,1.09-5.63,1.49-8.44Z"/>
        <path class="cls-179" d="M83.45,193.79c.22-3.93,3.23-2.23,5.21-2.63v2.63Z"/>
        <path class="cls-171" d="M88.66,193.79v-2.63h2.6C90.39,192,89.52,192.91,88.66,193.79Z"/>
        <path class="cls-132"
              d="M49.62,214.8l5.2,5.25-2.6,7.88c-2,.4-5-1.3-5.21,2.63h-5.2c-2.47-3.1-2.92-6.71-2.61-10.51l2.61-5.25Z"/>
        <path class="cls-180" d="M54.82,220.05l2.6-2.62v2.62Z"/>
        <path class="cls-181"
              d="M117.29,52l-.87,2.18c-.58-.31-1.7-.79-1.66-.92,1-3.65-1.32-6.25-2.68-9.14h10.41c-.66.87-1.33,2.51-2,2.5C116.14,46.54,117.51,49.69,117.29,52Z"/>
        <path class="cls-182"
              d="M125.1,38.84l-2.61,2.63c-1.58-.29-4.2-.13-4.54-.95-.72-1.73-.42-4-.09-6,0-.27,3.09-.64,4.09,0C123.33,35.51,124.08,37.38,125.1,38.84Z"/>
        <path class="cls-183"
              d="M117.29,164.9c-4.5-.07-9.19.83-13-2.62V101.87l2.16-1.76c-1.91-2.33-4-4.33-7.36-3.49.22-3.93,3.23-2.23,5.2-2.63,1.59-.28,3.2-.48,4.75-.88,1.91-.49,3.78-1.15,5.67-1.74,2.61,3.13,2.64,6.85,2.63,10.69C117.25,123,117.29,144,117.29,164.9Z"/>
        <path class="cls-184"
              d="M70.44,157c-.87-.66-2.55-1.44-2.48-2,.84-6.06-.95-12,2-18.4,2.42-5.29.5-12.6.5-19,2.83,0,5-5.51,8.54-.73,1.6,2.18,4.38,5.31,6.25,5.07,2.88-.38,5.41-3.31,8.12-5.12,1-.67,2.08-1.23,3.12-1.85h2.6v23.64c-7.17,0-14.34.09-21.5,0-5.5-.09-7.31,2.93-7.13,7.91Z"/>
        <path class="cls-185"
              d="M70.44,146.52c-.18-5,1.63-8,7.13-7.91,7.16.12,14.33,0,21.5,0v2.63c-2.28.21-4.92-1.08-5.41,3.25-.37,3.26,3,7.74-2.31,9.91a10.68,10.68,0,0,0-2.25,1.72l4.76.87c-.67.88-1.32,2.49-2,2.51-5.58.21-11.18.21-16.76,0-.7,0-1.35-1.63-2-2.51l4.75-.85c-1.15-.59-2.71-.9-3.35-1.84-.84-1.25-.78-3.09-1.46-4.5A18.93,18.93,0,0,0,70.44,146.52Z"/>
        <path class="cls-186"
              d="M96.47,115c-1,.62-2.12,1.18-3.12,1.85-2.71,1.81-5.24,4.74-8.12,5.12-1.87.24-4.65-2.89-6.25-5.07-3.51-4.78-5.71.71-8.54.73-1.27-3.1-5.21-6.11-.08-9.43.57-.37.08-2.42.08-3.7,6.19-.1,6.16-.11,8.29-7,.15-.49,1.39-.63,2.12-.93,0,1.69-.11,3.39,0,5.06.48,6.16,2.08,7.77,8.07,8,2.5.12,5,0,7.53,0Z"/>
        <path class="cls-142" d="M62.63,162.28q0-29.21,0-58.4c0-1.89-.95-4.61,2.57-4.63v63Z"/>
        <path class="cls-187"
              d="M99.07,96.62c3.39-.84,5.45,1.16,7.36,3.49l-2.16,1.76c-5.32,0-9.92,4.51-15.52,2.59-1-.35-2.39-1.13-2.55-1.92-.18-1,.63-3.09,1.18-3.15C91.41,99,94.69,95.32,99.07,96.62Z"/>
        <path class="cls-188"
              d="M93.86,157l-4.76-.87a10.68,10.68,0,0,1,2.25-1.72c5.35-2.17,1.94-6.65,2.31-9.91.49-4.33,3.13-3,5.41-3.25,0,4.21-.07,8.43,0,12.65S96.05,156.76,93.86,157Z"/>
        <path class="cls-189"
              d="M70.44,146.52A18.93,18.93,0,0,1,73,149.83c.68,1.41.62,3.25,1.46,4.5.64.94,2.2,1.25,3.35,1.84L73,157h-2.6Z"/>
        <path class="cls-146"
              d="M62.63,162.28h2.6a45.89,45.89,0,0,1,7.33.11c1.14.19,2.06,1.64,3.08,2.51a95.88,95.88,0,0,1-9.89-.12C64.64,164.67,63.67,163.15,62.63,162.28Z"/>
        <path class="cls-190" d="M96.47,115v-5.25c3.89.23,2.21,3.26,2.6,5.25Z"/>
        <path class="cls-94" d="M54.82,88.74l2.6-2.62Z"/>
        <path class="cls-94" d="M65.23,91.37h-2.6l1.75-2.18Z"/>
        <path class="cls-158" d="M101.67,83.49h2.6l-1.74,2.18Z"/>
        <path class="cls-158" d="M96.47,80.86c.86.88,1.73,1.75,2.6,2.63Z"/>
        <path class="cls-191"
              d="M47,206.92c-.42,0-1.11-.17-1.23,0-1.93,3.07-5,3.05-7.82,2.39-.75-.17-1.48-2.94-1.25-4.36.57-3.5,2.38-6.11,6.49-5.95,1.27.06,2.54,0,3.81,0Z"/>
        <path class="cls-192"
              d="M47,206.92V199c.87,1.06,2.41,2.07,2.49,3.19.29,4.17.12,8.38.12,12.57H41.81L39.69,214c.66-.6,1.39-1.79,2-1.71C45.86,212.85,48,211.53,47,206.92Z"/>
        <path class="cls-96" d="M28.79,209.55h-2.6c.87-.88,1.74-1.75,2.6-2.63Z"/>
        <path class="cls-193" d="M75.64,191.16H73v-5.25C76.93,186.14,75.25,189.17,75.64,191.16Z"/>
        <path class="cls-194"
              d="M117.29,164.9c0-20.94,0-41.89,0-62.84,0-3.84,0-7.56-2.63-10.69h5.2c1,2.58-2.41,6.65,2.6,7.88v5.25c-.86.69-2.48,1.37-2.49,2.07q-.21,26.82,0,53.64c0,.69,1.63,1.38,2.49,2.07h7.81v2.62Z"/>
        <path class="cls-183"
              d="M122.49,162.28c-.86-.69-2.48-1.38-2.49-2.07q-.21-26.82,0-53.64c0-.7,1.63-1.38,2.49-2.07Z"/>
        <path class="cls-195" d="M122.49,99.25c-5-1.23-1.61-5.3-2.6-7.88C124.91,92.6,121.5,96.66,122.49,99.25Z"/>
        <path class="cls-158" d="M109.48,66.28l-1.54,1.21c-.16-.55-.6-1.47-.43-1.59a7,7,0,0,1,2-.79Z"/>
        <path class="cls-196" d="M60,225.3c.39-2-1.29-5,2.6-5.25l2.18,1.74Z"/>
        <path class="cls-180" d="M57.42,217.43,60,214.8Z"/>
    </g>
</svg>