<svg id="Calque_1" data-name="Calque 1" xmlns="http://www.w3.org/2000/svg" viewBox="0 0 167.24 257.95">
    <defs>
        <style>
            .cls-1{fill:#fefefe;}.cls-2{fill:#101a1c;}.cls-3{fill:#0f1516;}.cls-4{fill:#a8adac;}.cls-5{fill:#f2e7e3;}.cls-6{fill:#f4faf2;}.cls-7{fill:#acabad;}.cls-8{fill:#f6dcde;}.cls-9{fill:#ef7e69;}.cls-10{fill:#fa8b8a;}.cls-11{fill:#cfb4ad;}.cls-12{fill:#fa9190;}.cls-13{fill:#edf9f4;}.cls-14{fill:#f89699;}.cls-15{fill:#f10b0e;}.cls-16{fill:#f98c8f;}.cls-17{fill:#f20509;}.cls-18{fill:#fa8e90;}.cls-19{fill:#f56665;}.cls-20{fill:#f37678;}.cls-21{fill:#f4696b;}.cls-22{fill:#f11815;}.cls-23{fill:#fa2b2d;}.cls-24{fill:#f06f6f;}.cls-25{fill:#f33437;}.cls-26{fill:#e11c36;}.cls-27{fill:#f55358;}.cls-28{fill:#d44955;}.cls-29{fill:#f9f8f8;}.cls-30{fill:#f40c10;}.cls-31{fill:#f2010b;}.cls-32{fill:#f30103;}.cls-33{fill:#f12325;}.cls-34{fill:#fa4842;}.cls-35{fill:#eae7e6;}.cls-36{fill:#fa493e;}.cls-37{fill:#d52e23;}.cls-38{fill:#d60707;}.cls-39{fill:#f6f5f4;}.cls-40{fill:#f40104;}.cls-41{fill:#f50107;}.cls-42{fill:#f71418;}.cls-43{fill:#fb0002;}.cls-44{fill:#f01e20;}.cls-45{fill:#eb0303;}.cls-46{fill:#fd5245;}.cls-47{fill:#fd4943;}.cls-48{fill:#e23535;}.cls-49{fill:#fe4a44;}.cls-50{fill:#e32d36;}.cls-51{fill:#f96167;}.cls-52{fill:#f77675;}.cls-53{fill:#fd0d2b;}.cls-54{fill:#f2090c;}.cls-55{fill:#fb0d26;}.cls-56{fill:#f84c43;}.cls-57{fill:#e96f78;}.cls-58{fill:#f46e71;}.cls-59{fill:#f15c62;}.cls-60{fill:#eee8e9;}.cls-61{fill:#e20100;}.cls-62{fill:#dd1c34;}.cls-63{fill:#f22e36;}.cls-64{fill:#f76b71;}.cls-65{fill:#f88185;}.cls-66{fill:#313435;}.cls-67{fill:#656565;}.cls-68{fill:#383838;}.cls-69{fill:#ece6e6;}.cls-70{fill:#030303;}.cls-71{fill:#fb9095;}.cls-72{fill:#f4f2f1;}.cls-73{fill:#fdaeaa;}.cls-74{fill:#fc6267;}.cls-75{fill:#f8e3e2;}.cls-76{fill:#f5001a;}.cls-77{fill:#fb9ea3;}.cls-78{fill:#fc4c45;}.cls-79{fill:#f96254;}.cls-80{fill:#f85d60;}.cls-81{fill:#fe8f91;}.cls-82{fill:#f0e5e5;}.cls-83{fill:#fa8682;}.cls-84{fill:#fa706c;}.cls-85{fill:#fe5349;}.cls-86{fill:#fe0c1c;}.cls-87{fill:#f4091f;}.cls-88{fill:#f7131a;}.cls-89{fill:#fc9ea0;}.cls-90{fill:#f96b6b;}.cls-91{fill:#ed8286;}.cls-92{fill:#1b1b1b;}.cls-93{fill:#282828;}.cls-94{fill:#323232;}.cls-95{fill:#141414;}.cls-96{fill:#fab9bc;}.cls-97{fill:#dffefb;}.cls-98{fill:gray;}.cls-99{fill:#050505;}.cls-100{fill:#fda6a9;}.cls-101{fill:#eb3130;}.cls-102{fill:#fd5e5b;}.cls-103{fill:#f94c3a;}.cls-104{fill:#f20006;}.cls-105{fill:#fe3e3f;}.cls-106{fill:#fe6660;}.cls-107{fill:#fe4e4b;}.cls-108{fill:#fc5d53;}.cls-109{fill:#f20b11;}.cls-110{fill:#ef181e;}.cls-111{fill:#f97e7d;}.cls-112{fill:#302b2b;}.cls-113{fill:#e77256;}.cls-114{fill:#1a1a1a;}.cls-115{fill:#fc0836;}.cls-116{fill:#e2fdf9;}.cls-117{fill:#363636;}.cls-118{fill:#201b1c;}.cls-119{fill:#d0d4d5;}.cls-120{fill:#332b2d;}.cls-121{fill:#8f8689;}.cls-122{fill:#e7fcfa;}.cls-123{fill:#3f3e3e;}.cls-124{fill:#f0eeeb;}.cls-125{fill:#351d28;}.cls-126{fill:#0f0a0a;}.cls-127{fill:#fb8e90;}.cls-128{fill:#f5959c;}.cls-129{fill:#090405;}.cls-130{fill:#fa524e;}.cls-131{fill:#fe5355;}.cls-132{fill:#fe625d;}.cls-133{fill:#fe6052;}.cls-134{fill:#fe8064;}.cls-135{fill:#f1292d;}.cls-136{fill:#e8000c;}.cls-137{fill:#ef0d1f;}.cls-138{fill:#ea1c1c;}.cls-139{fill:#f3ecec;}.cls-140{fill:#f66669;}.cls-141{fill:#f9797b;}.cls-142{fill:#e72827;}.cls-143{fill:#fd4f4e;}.cls-144{fill:#fe7161;}.cls-145{fill:#f5e0da;}.cls-146{fill:#e1fafb;}.cls-147{fill:#d6fbf8;}.cls-148{fill:#f9f5f5;}.cls-149{fill:#050303;}.cls-150{fill:#0c0c0c;}.cls-151{fill:#454143;}.cls-152{fill:#423d3f;}.cls-153{fill:#302f30;}.cls-154{fill:#fba5a2;}.cls-155{fill:#fba8a9;}.cls-156{fill:#2a272b;}.cls-157{fill:#28252f;}.cls-158{fill:#213129;}.cls-159{fill:#020e0b;}.cls-160{fill:#110b0d;}.cls-161{fill:#e4c8cd;}.cls-162{fill:#ee8d96;}.cls-163{fill:#0a090e;}.cls-164{fill:#100a0b;}.cls-165{fill:#110b0c;}.cls-166{fill:#37393d;}.cls-167{fill:#f3010d;}.cls-168{fill:#fe4240;}.cls-169{fill:#f97779;}.cls-170{fill:#fe8783;}.cls-171{fill:#fe6a61;}.cls-172{fill:#fb8a8b;}.cls-173{fill:#fbcaca;}.cls-174{fill:#f75a5d;}.cls-175{fill:#ef2f2d;}.cls-176{fill:#fe7872;}.cls-177{fill:#fd1c35;}.cls-178{fill:#fe4e4c;}.cls-179{fill:#e82729;}.cls-180{fill:#fe736d;}.cls-181{fill:#fc574f;}.cls-182{fill:#db0b07;}.cls-183{fill:#fe7069;}.cls-184{fill:#fc001f;}.cls-185{fill:#f7474e;}.cls-186{fill:#f81b2b;}.cls-187{fill:#fe9493;}.cls-188{fill:#0c080b;}.cls-189{fill:#fe0423;}.cls-190{fill:#fe7b71;}.cls-191{fill:#f90225;}.cls-192{fill:#fd655c;}.cls-193{fill:#fe6b68;}.cls-194{fill:#fe4e47;}.cls-195{fill:#0c1215;}.cls-196{fill:#262026;}.cls-197{fill:#484b4e;}.cls-198{fill:#beb7b7;}.cls-199{fill:#0b1a20;}.cls-200{fill:#f9676b;}.cls-201{fill:#ed252c;}.cls-202{fill:#fe898b;}.cls-203{fill:#fe918d;}.cls-204{fill:#fe8588;}.cls-205{fill:#f81323;}.cls-206{fill:#fb635c;}.cls-207{fill:#f98289;}.cls-208{fill:#fdeff0;}.cls-209{fill:#473d44;}.cls-210{fill:#fdebed;}.cls-211{fill:#fae5e6;}.cls-212{fill:#f7d6d4;}.cls-213{fill:#2f2f32;}.cls-214{fill:#232021;}.cls-215{fill:#343031;}.cls-216{fill:#f5dee0;}.cls-217{fill:#fecfd6;}.cls-218{fill:#212023;}.cls-219{fill:#1e181e;}.cls-220{fill:#080708;}.cls-221{fill:#0a0a0a;}.cls-222{fill:#1d1d1d;}.cls-223{fill:#161213;}.cls-224{fill:#181415;}.cls-225{fill:#080203;}.cls-226{fill:#141213;}.cls-227{fill:#131317;}.cls-228{fill:#fa8387;}.cls-229{fill:#030106;}.cls-230{fill:#323032;}.cls-231{fill:#070507;}.cls-232{fill:#f24343;}.cls-233{fill:#fe9a9b;}.cls-234{fill:#ef4043;}.cls-235{fill:#fe817b;}.cls-236{fill:#fe7273;}.cls-237{fill:#fe817f;}.cls-238{fill:#fa3140;}.cls-239{fill:#fe7370;}.cls-240{fill:#fc615c;}.cls-241{fill:#fe626a;}.cls-242{fill:#fe0223;}.cls-243{fill:#0f0b0c;}.cls-244{fill:#fd3340;}
        </style>
    </defs>
    <g id="vjmKVP.tif">
        <path class="cls-1"
              d="M160.27,1.3a23.06,23.06,0,0,1,3.9,0c1.61.27,4.8-1.61,3.93,2.59a6.34,6.34,0,0,0,0,1.31q0,124.8.1,249.6c0,3.42-.62,4.06-4,4q-79.48-.22-159,.06c-5.31,0-3.7-2.84-3.91-5.42l5.22,2.63H160.27l5.21-5.26V9.18Z"/>
        <ellipse cx="2.6" cy="128.73" rx="1.84" ry="172.78"/>
        <ellipse cx="83.39" cy="2.61" rx="105.04" ry="1.86"/>
        <path d="M157.66,3.92V1.3h2.61l5.21,7.88h-5.21l-2.61-2.63Z"/>
        <path class="cls-2" d="M1.29,250.9H6.51v5.26l-5.22-2.63Z"/>
        <path class="cls-1" d="M3.9,6.55H1.29C.25,2,2,.24,6.51,1.3Z"/>
        <path d="M3.9,6.55,6.51,1.3h2.6V6.55H3.9Z"/>
        <ellipse cx="164.17" cy="130.04" rx="1.84" ry="170.93"/>
        <ellipse cx="83.39" cy="254.84" rx="108.72" ry="1.86"/>
        <path class="cls-3" d="M160.27,256.16V250.9h5.21Z"/>
        <ellipse class="cls-4" cx="5.2" cy="128.73" rx="1.84" ry="172.78"/>
        <ellipse class="cls-5" cx="83.39" cy="5.24" rx="105.04" ry="1.86"/>
        <path class="cls-6"
              d="M9.11,6.55H157.66l2.61,2.63V250.9H6.51V6.55ZM157.66,143.18V122.24c0-35.26.06-70.52-.13-105.78,0-2.39,2.58-6.38-2.48-7.28H11.72L9.11,11.81V245.65l2.61,2.63H61c29.39,0,58.77,0,88.15-.09,2.08,0,5.48,1.84,5.93-2.54,4.33-.45,2.52-3.86,2.53-6,.12-25.17.08-50.34.08-75.5Z"/>
        <ellipse class="cls-5" cx="161.57" cy="130.04" rx="1.84" ry="170.93"/>
        <ellipse class="cls-7" cx="83.39" cy="252.22" rx="108.72" ry="1.86"/>
        <path class="cls-8"
              d="M9.11,245.65V11.81h2.61V35.45c1,2.59-2.42,6.65,2.6,7.88v5.26l-2.6,2,2.6,3.26V59.1c-5,1.23-1.61,5.3-2.6,7.88V245.65Z"/>
        <path class="cls-9"
              d="M11.72,9.18H155.05v2.63H105.54c-4.65,0-9.3,0-14,0-6.57.06-6.57.09-6.9,7.88l-2.61-2.63c-.36-1.86,1.2-4.85-2-5.11-2-.16-5.42-1.85-5.85,2.48H53.42c-.23-3.93-3.24-2.23-5.22-2.62H45.6c-6.13.52-12.66-1.71-18.25,2.62-1.05-.87-2.05-2.42-3.16-2.5-4.14-.31-8.31-.12-12.47-.12Z"/>
        <path class="cls-10"
              d="M155.05,245.65c-.45,4.38-3.85,2.53-5.93,2.54-29.38.12-58.76.09-88.15.09H11.72v-2.63H89.9c2-.4,5,1.3,5.21-2.63h15.64c1,.88,2,2.32,3.08,2.51a46,46,0,0,0,7.34.12h33.88Z"/>
        <path class="cls-5"
              d="M155.05,11.81V9.18c5.06.9,2.47,4.89,2.48,7.28.19,35.26.13,70.52.13,105.78V135.3h-2.61V11.81Z"/>
        <path class="cls-11"
              d="M157.66,164.2c0,25.16,0,50.33-.08,75.5,0,2.09,1.8,5.5-2.53,6V219.37c-.39-2,1.3-5-2.6-5.25v-2.63c3.52-3.32,3.52-7.18,0-10.51v-2.63c.87-1.08,2.45-2.13,2.49-3.24.23-6.8.11-13.6.11-20.4V164.2Z"/>
        <ellipse class="cls-5" cx="156.36" cy="153.69" rx="1.84" ry="14.86"/>
        <ellipse class="cls-12" cx="156.36" cy="139.24" rx="1.84" ry="5.57"/>
        <path class="cls-5" d="M11.72,9.18v2.63H9.11Z"/>
        <path class="cls-5" d="M11.72,245.65v2.63l-2.61-2.63Z"/>
        <path class="cls-13"
              d="M14.32,59.1V46c3.41-2.66,5.42-6,5.22-10.51l2.6-2.63h2.61l2.6,2.63H30v21H27.35l-2.6,2,2.6,3.27H58.63v2.62l-7.82,5.26H27.35c-.22-3.93-3.23-2.23-5.21-2.63l-2.6-2.63Z"/>
        <path class="cls-14"
              d="M11.72,103.77V95.88h7.82v7.89l2.6,2.62H37.78v7.89c-4.5-.58-6.74,1.76-7.91,5.88-.24.84-1.65,1.34-2.52,2-.62-1.75-.82-4.6-2-5-2.55-1-3.44,1-3.3,3.55a75.5,75.5,0,0,1,0,8.9c-.07,1-.89,2-1.37,3-.39-1.11-.75-2.23-1.18-3.33-.91-2.33,2.37-6.24-2.6-7.05v-2.63c.87-.6,2.56-1.38,2.47-1.78-.62-3-1.6-5.83-2.47-8.73Z"/>
        <path class="cls-15"
              d="M11.72,11.81c4.16,0,8.33-.19,12.47.12,1.11.08,2.11,1.63,3.16,2.5V24.94c-.22,3.93-3.23,2.23-6.14,3.15.21-.86.89-1.31.87-1.74A21,21,0,0,0,21.47,23c-.57.15-1.64.3-1.63.44a8.12,8.12,0,0,0,1.37,4.69c.93,1.23.93,3,.93,4.73l-2.6,2.63H11.72Z"/>
        <path class="cls-16"
              d="M11.72,153.69v-2.63l7.82-5.25c3.89-.23,2.21-3.27,2.6-5.26,1.67,0,3.35-.11,5,0,6.11.48,7.53,1.91,8,8.07.13,1.68,0,3.37,0,5.05l-15.63,2.62Z"/>
        <path class="cls-17"
              d="M22.14,245.65H11.72v-21H22.14l2.61,7.88c-.87,1.05-2.37,2-2.49,3.15C21.93,239,22.14,242.32,22.14,245.65Z"/>
        <path class="cls-18"
              d="M16.93,122.16c5,.81,1.69,4.72,2.6,7.05.43,1.1.79,2.22,1.18,3.33.48-1,1.3-2,1.37-3a75.5,75.5,0,0,0,0-8.9c-.14-2.58.75-4.54,3.3-3.55,1.13.44,1.33,3.29,2,5,0,4.22-.07,8.44,0,12.65s-3,2.85-5.23,3.11l-.86-2.18-1.74,2.18-7.82-5.25v-7.88Z"/>
        <path class="cls-19"
              d="M11.72,153.69l7.82,2.62v10.51c.86.88,1.73,1.76,2.6,2.63l2.61,2.63h2.6v2.63h-2.6c-3.9.22-2.22,3.26-2.61,5.25h-2.6v-2.63c-1.23-5.06-5.26-1.62-7.82-2.62Z"/>
        <path class="cls-20"
              d="M19.54,95.88H11.72V85.37l5.21-5.25h2.61l2.6,2.63c-.06,2.9-.49,6,4.15,5.28A22.45,22.45,0,0,1,30,88c-1.07.88-2.14,2.49-3.22,2.5C22.87,90.53,20.55,92.19,19.54,95.88Z"/>
        <path class="cls-21" d="M11.72,132.67l7.82,5.25v7.89l-7.82,5.25Z"/>
        <path class="cls-22" d="M19.54,224.63H11.72V211.49h5.21l2.61,2.63Z"/>
        <path class="cls-23" d="M11.72,174.71c2.56,1,6.59-2.44,7.82,2.62L16.93,180v10.51l-5.21-2.63Z"/>
        <path class="cls-24" d="M16.93,122.16l-5.21,2.63v-21L16.93,109c-3.53,3.32-3.53,7.19,0,10.51Z"/>
        <path class="cls-25" d="M16.93,80.12l-5.21,5.25V67h5.21v2.63C13.4,72.93,13.4,76.79,16.93,80.12Z"/>
        <path class="cls-23" d="M16.93,211.49H11.72V195.73h2.6V201c1,2.59-2.41,6.65,2.61,7.88Z"/>
        <path class="cls-5" d="M16.93,35.45h2.61c.2,4.48-1.81,7.85-5.22,10.51V43.33Z"/>
        <path class="cls-26" d="M16.93,35.45l-2.61,7.88c-5-1.23-1.61-5.29-2.6-7.88Z"/>
        <path class="cls-27" d="M14.32,195.73h-2.6v-7.89l5.21,2.63v2.63Z"/>
        <path class="cls-28" d="M16.93,67H11.72c1-2.58-2.42-6.65,2.6-7.88.4,2-1.29,5,2.61,5.25Z"/>
        <path class="cls-5" d="M14.32,48.59v5.25l-2.6-3.26Z"/>
        <path class="cls-29"
              d="M56,14.43H74.26l7.82,2.63,2.61,2.63,2.6,5.25v2.63c-3.57,2.64-3.57,5.24,0,7.88v7.88c-3.89.23-2.21,3.27-2.6,5.26l-5.21,5.25L69.05,61.73H63.84c0-1.65,0-3.3,0-4.95-.13-5.74-.14-5.74-5.2-2.94H56l2.61-5.25V46c4.41-2.61,5.13-6.15,2.6-10.51V32.82l-2.6-2.62c-.22-3.93-3.24-2.23-5.21-2.63H50.81c-.9-4.82-4.77-3-6.7-2.11-2.48,1.1-1.42,7.87,1.49,12.62l.86,2.18,1.74-2.18V35.45h5.22V46L45.6,53.84,43,56.47H40.38c0-6.8,0-13.6,0-20.41,0-3.67,1.2-8.22-3.1-10-1.91-.79-4.84.92-7.31,1.5V24.94l2.61-2.62h2.6l2.61-2.63h2.6L43,17.06H45.6C49.92,19.61,53.43,18.88,56,14.43Z"/>
        <path class="cls-30"
              d="M87.29,24.94l-2.6-5.25c.33-7.79.33-7.82,6.9-7.88,4.65,0,9.3,0,14,0V22.32q-2.61,3.93-5.21,7.88l-7.82-2.63L89.9,24.94Z"/>
        <path class="cls-31"
              d="M155.05,11.81V27.57H144.63L142,24.94V22.32c0-2.15.09-4.31-.07-6.44,0-.38-1.07-.69-1.65-1l-.88,2.21c-4.72-3.87-10.32-2.42-15.64-2.63V11.81Z"/>
        <path class="cls-32" d="M108.14,11.81h13c0,2.16,0,4.33,0,6.5,0,7.36,0,7.36-5.21,11.89h-5.21l-2.61-7.88Z"/>
        <path class="cls-33"
              d="M35.17,22.32h-2.6L30,24.94H27.35V14.43c5.59-4.33,12.12-2.1,18.25-2.62v5.25H43l-2.61,2.63h-2.6Z"/>
        <path class="cls-34" d="M116,30.2c5.18-4.53,5.18-4.53,5.21-11.89,0-2.17,0-4.34,0-6.5h2.61V30.2Z"/>
        <path class="cls-35" d="M45.6,17.06V14.43H56C53.43,18.88,49.92,19.61,45.6,17.06Z"/>
        <ellipse class="cls-36" cx="106.84" cy="17.06" rx="1.84" ry="7.43"/>
        <path class="cls-30"
              d="M82.08,17.06l-7.82-2.63c.43-4.33,3.85-2.64,5.85-2.48C83.28,12.21,81.72,15.2,82.08,17.06Z"/>
        <path class="cls-37" d="M53.42,14.43H48.2V11.81C50.18,12.2,53.19,10.5,53.42,14.43Z"/>
        <ellipse class="cls-38" cx="46.9" cy="13.12" rx="1.84" ry="1.86"/>
        <path class="cls-39"
              d="M110.75,243H89.9c-.22-3.93-3.24-2.23-5.21-2.63q-3.91-3.93-7.82-7.88v-5.25c.07-4.54-.82-9.28,2.61-13.14l7.81-10.51L89.9,201h2.61c-.07,2.91-.5,6.06,4.14,5.29a22.57,22.57,0,0,1,3.68,0h2.6l2.61-2.63c.87.87,1.73,1.75,2.6,2.63v2.62c-.87.88-1.73,1.76-2.6,2.63v2.63c-3.57,2.64-3.57,5.24,0,7.88l2.6,2.63c1,.87,2,2.32,3.09,2.51a46,46,0,0,0,7.34.12c.28.71.52,1.45.87,2.14.07.13.8.08.81.06.33-2.79.67-5.59.82-8.39a3.84,3.84,0,0,0-2.25-.58c-2.71.4-5.38,1-8.07,1.51V208.86l5.21-5.25,2.61-2.63h7.82c.87,2.65,1.75,5.3,2.6,8,1.83,5.69-2.59,10.32-2.6,15.7.35,1.86-1.19,4.68,2,5.1,1,.13,2.16-1.6,3.25-2.47h2.6a15.35,15.35,0,0,1,2.54,0,12.11,12.11,0,0,1,2.2.8l-2.13,1.79-5.21,5.26c-2,.39-5-1.3-5.21,2.63a23.28,23.28,0,0,1-2,2.6c-1,1-2.14,1.77-3.22,2.65ZM84.69,223.21c0-1.71.09-3.44-.08-5.14,0-.33-1.13-.55-1.73-.82,0,3.2.07,6.4.11,9.6.56-.35,1.44-.59,1.63-1.09A8,8,0,0,0,84.69,223.21Z"/>
        <path class="cls-40"
              d="M61.23,245.65H45.6c.2-5.37-1.24-11,2.6-15.77l2.61-2.62h7.82l2.6,2.62,2.61,2.63v2.63l-2.61,2.63Z"/>
        <path class="cls-41"
              d="M155.05,219.37v10.51c-.87.88-1.73,1.76-2.6,2.63a46.78,46.78,0,0,0,.12,7.4c.18,1.14,1.61,2.08,2.48,3.11v2.63H139.42V232.51l5.21-2.63c2-.39,5,1.31,5.21-2.62V222l2.61-2.63Z"/>
        <path class="cls-42"
              d="M61.23,237.77l2.61-2.63h2.61c.86-.88,1.73-1.75,2.6-2.63h7.82q3.91,3.94,7.82,7.88l-2.16.87L84.69,243H89.9v2.63H63.84C62.85,243.06,66.26,239,61.23,237.77Z"/>
        <path class="cls-43"
              d="M43,245.65H27.35a33,33,0,0,0,2.56-5.16c2.22-7.38,2.15-7.4,10.47-8,.87,1.05,2.38,2,2.49,3.15A97.82,97.82,0,0,1,43,245.65Z"/>
        <path class="cls-44"
              d="M139.42,232.51v13.14H121.17V243c1.08-.88,2.24-1.68,3.22-2.65a23.28,23.28,0,0,0,2-2.6c2-.4,5,1.3,5.21-2.63,2-.4,5,1.3,5.21-2.63Z"/>
        <path class="cls-45"
              d="M40.38,232.51c-8.32.58-8.25.6-10.47,8a33,33,0,0,1-2.56,5.16h-2.6V235.14c.87-.88,1.74-1.75,2.6-2.63,1-.87,2-2.39,3.13-2.51a99,99,0,0,1,9.9-.12Z"/>
        <path class="cls-46"
              d="M40.38,232.51v-2.63H48.2c-3.84,4.76-2.4,10.4-2.6,15.77H43a97.82,97.82,0,0,0-.12-10C42.76,234.54,41.25,233.56,40.38,232.51Z"/>
        <path class="cls-47" d="M24.75,235.14v10.51H22.14c0-3.33-.21-6.69.12-10,.12-1.12,1.62-2.1,2.49-3.15Z"/>
        <path class="cls-48" d="M121.17,243v2.63a46,46,0,0,1-7.34-.12c-1.13-.19-2.06-1.63-3.08-2.51Z"/>
        <path class="cls-49" d="M61.23,237.77c5,1.23,1.62,5.29,2.61,7.88H61.23Z"/>
        <path class="cls-50" d="M89.9,245.65V243h5.21C94.89,247,91.88,245.25,89.9,245.65Z"/>
        <path class="cls-12"
              d="M155.05,122.16V135.3c-4.11,1-5.63,3.8-5.21,7.88-.87.87-1.74,1.75-2.6,2.63-1-2.59,2.41-6.66-2.61-7.89L142,135.3h-5.21c0-1.3-.54-3,.08-3.81,7.11-9,8.86-19.28,7.74-30.35.87.68,2.45,1.32,2.49,2,.24,4.33.26,8.68.08,13s2.94,3.13,5.25,3.33Z"/>
        <path class="cls-51"
              d="M155.05,80.12V95.88q-6.51,5.07-13,0a55.22,55.22,0,0,0-.69-7.19c-1-4.43,1-7.47,5.91-8.57Z"/>
        <path class="cls-52"
              d="M142,95.88q6.53,5.07,13,0v5.26c-.87,1.07-2.42,2.1-2.48,3.21-.27,5.05-.12,10.12-.12,15.18-2.31-.2-5.44,1.13-5.25-3.33s.16-8.68-.08-13c0-.73-1.62-1.37-2.49-2C140.73,100.91,142.42,97.88,142,95.88Z"/>
        <path class="cls-53"
              d="M155.05,80.12h-7.81c-.59-1.9-1.25-3.79-1.74-5.72-.39-1.57-.59-3.19-.87-4.79,3.39.84,5.46-1.16,7.37-3.49l-2.16-1.77V61.73l5.21-2.63Z"/>
        <path class="cls-54" d="M155.05,30.2V43.33h-7.81V40.71C147.24,30.45,147.24,30.45,155.05,30.2Z"/>
        <path class="cls-55" d="M152.45,43.33h2.6V59.1l-5.21,2.63V46Z"/>
        <path class="cls-56" d="M155.05,30.2c-7.81.25-7.81.25-7.81,10.51h-2.61c-.07-4.54.82-9.28-2.61-13.14h13Z"/>
        <path class="cls-57" d="M152.45,119.53c0-5.06-.15-10.13.12-15.18.06-1.11,1.61-2.14,2.48-3.21v21Z"/>
        <path class="cls-58"
              d="M149.84,143.18c-.42-4.08,1.1-6.86,5.21-7.88v39.41c-6,2.3-12.12,4.58-10.42,13.13a46,46,0,0,1-7.34-.11c-1.13-.19-2.06-1.64-3.09-2.51L131.6,180a46,46,0,0,0,7.34-.12c1.13-.18,2.06-1.63,3.08-2.51,5-1.23,1.62-5.29,2.61-7.88v-7.88c3.9-.22,2.21-3.26,2.61-5.26,1.33.85,3.61,2.64,3.85,2.4C153.57,156.17,152.77,148.13,149.84,143.18ZM138.49,183l-1.68.93c.29.3.64.87.86.82a7.5,7.5,0,0,0,1.75-.82Z"/>
        <path class="cls-59"
              d="M144.63,187.84c-1.7-8.55,4.38-10.83,10.42-13.13,0,6.8.12,13.6-.11,20.4,0,1.11-1.62,2.16-2.49,3.24q1.19-6.45-5.21-5.25Z"/>
        <path class="cls-5" d="M152.45,211.49v7.88L149.84,222h-2.6c.86-2.63,1.73-5.25,2.6-7.88v-2.63Z"/>
        <path class="cls-60" d="M147.24,193.1q6.39-1.2,5.21,5.25V201C148.33,200,146.82,197.18,147.24,193.1Z"/>
        <path class="cls-61" d="M155.05,243c-.87-1-2.3-2-2.48-3.11a46.78,46.78,0,0,1-.12-7.4h2.6Z"/>
        <path class="cls-5" d="M152.45,201c3.52,3.33,3.52,7.19,0,10.51V201Z"/>
        <path class="cls-62" d="M152.45,219.37v-5.25c3.9.22,2.21,3.26,2.6,5.25Z"/>
        <path class="cls-63" d="M155.05,232.51h-2.6c.87-.87,1.73-1.75,2.6-2.63Z"/>
        <path class="cls-64"
              d="M16.93,67V64.35h2.61L22.14,67c.22,3.93,3.24,2.23,5.21,2.63H30c1.22,5.06,5.25,1.63,7.82,2.63,1.3,4.55,5.65,7.88,5.21,13.13H40.38c-3.22-.15-6.32.56-9.22-2.44s-6.79-5.74-11.62-5.44c-1-2.58,2.41-6.65-2.61-7.88Z"/>
        <path class="cls-65"
              d="M43,85.37c.44-5.25-3.91-8.58-5.21-13.13,2.56-1,6.6,2.43,7.82-2.63H56q5,6.57,0,13.14L48.2,85.37Z"/>
        <path class="cls-66"
              d="M30,35.45H27.35V32.82L30,30.2h5.21V59.1l-2.6-2.63c0-5.93.13-11.87-.12-17.79C32.4,37.57,30.83,36.53,30,35.45Z"/>
        <path class="cls-67" d="M32.57,56.47l2.6,2.63,2.61-2.63H45.6v5.26H27.35V56.47h5.22Z"/>
        <path class="cls-68"
              d="M58.63,53.84c5.06-2.8,5.07-2.8,5.2,2.94,0,1.65,0,3.3,0,4.95H48.2l2.61-2.63H56a15.36,15.36,0,0,0,2.54,0,12.15,12.15,0,0,0,2.2-.81l-2.13-1.79Z"/>
        <path class="cls-69" d="M32.57,56.47H30v-21c.87,1.08,2.44,2.12,2.49,3.23C32.7,44.6,32.57,50.54,32.57,56.47Z"/>
        <ellipse class="cls-69" cx="57.32" cy="66.98" rx="7.38" ry="1.85"
                 transform="translate(-24.03 33.01) rotate(-26.78)"/>
        <path class="cls-69" d="M30,30.2l-2.61,2.62H22.14V27.57c2-.4,5,1.3,5.21-2.63H30V30.2Z"/>
        <path class="cls-69" d="M45.6,69.61c-1.22,5.06-5.26,1.63-7.82,2.63-2.57-1-6.6,2.43-7.82-2.63Z"/>
        <path class="cls-70" d="M50.81,59.1,48.2,61.73H45.6V56.47h2.6Z"/>
        <path class="cls-5" d="M19.54,64.35H16.93c-3.9-.22-2.21-3.26-2.61-5.25Z"/>
        <ellipse class="cls-71" cx="61.23" cy="63.04" rx="3.69" ry="1.86"/>
        <path class="cls-69" d="M27.35,69.61c-2-.4-5,1.3-5.21-2.63C24.12,67.38,27.13,65.68,27.35,69.61Z"/>
        <path class="cls-69" d="M27.35,56.47v5.26l-2.6-3.27Z"/>
        <path class="cls-35" d="M24.75,32.82h2.6v2.63Z"/>
        <path class="cls-69" d="M19.54,35.45l2.6-2.63Z"/>
        <path class="cls-5" d="M22.14,67l-2.6-2.63Z"/>
        <path class="cls-72"
              d="M144.63,161.57v5.25L142,169.45v7.88H129l-2.6-2.62-2.61-2.63c-5.88,0-11.77-.13-17.64.12-1.11.05-2.14,1.63-3.21,2.51h-2.6c-1.06-.88-2.09-2.45-3.19-2.51-5-.27-10-.12-15.06-.12H24.75l-2.61-2.63c-.87-.87-1.74-1.75-2.6-2.63V156.31l15.63-2.62c3.49,0,2.57-2.7,2.58-4.59.06-11.61,0-23.22,0-34.82,3.57-2.65,3.57-5.24,0-7.89l-.86-2.18-1.75,2.18h-13l-2.6-2.62V95.88a24.37,24.37,0,0,1,2.58,2c1,1,1.76,2.16,2.63,3.25l.86,2.18,1.74-2.18h7.82c7.73.31,7.79.31,7.81,7.17,0,16.88,0,33.75,0,50.63-2.56,1-6.6-2.43-7.82,2.63-3,0-6.06-.09-9.08.09-.49,0-1.33,1.34-1.25,1.94.16,1.12.68,2.86,1.42,3.08,1.6.47,3.43.14,5.16.14h75.06c7.28,0,14.57.12,21.85,0,4.4-.1,3.06,3,3.27,5.3.87.88,1.74,1.75,2.6,2.63h2.61l2.61-2.63V161.57c3.9-.22,2.21-3.26,2.6-5.26v-10.5l2.16-.87L142,143.18c-.22-3.93-3.23-2.23-5.21-2.63-3.9.22-2.21,3.26-2.61,5.26v5.25h-2.6L129,153.69H116c-2-.4-5,1.3-5.21-2.63l2.61-2.63,2.6-2.62,2.61-2.63h2.6l2.61-2.63h2.61v2.63l-2.61,2.63-2.16.86,2.16,1.76c2-.39,5,1.31,5.21-2.62.87-1.1,2.58-2.31,2.45-3.28-.41-3.17-3.21-1.62-5-2V135.3c.87-.88,1.73-1.76,2.6-2.63h2.61l3.49,4.83c.57-.74,1.15-1.47,1.72-2.2H142l2.61,2.62c5,1.23,1.61,5.3,2.61,7.89v7.88C142.21,154.92,145.62,159,144.63,161.57Z"/>
        <path class="cls-73"
              d="M37.78,114.28c0,11.6,0,23.21,0,34.82,0,1.89.91,4.57-2.58,4.59,0-1.68.11-3.37,0-5.05-.48-6.16-1.9-7.59-8-8.07-1.65-.13-3.33,0-5,0v-2.63c2.19-.26,5.33,1.2,5.23-3.11s0-8.43,0-12.65c.87-.66,2.28-1.16,2.52-2C31,116,33.28,113.7,37.78,114.28Z"/>
        <path class="cls-74"
              d="M16.93,119.53c-3.53-3.32-3.53-7.19,0-10.51.87,2.9,1.85,5.78,2.47,8.73C19.49,118.15,17.8,118.93,16.93,119.53Z"/>
        <path class="cls-75" d="M37.78,106.39c3.57,2.65,3.57,5.24,0,7.89Z"/>
        <path class="cls-75" d="M35.17,106.39l1.75-2.18.86,2.18Z"/>
        <path class="cls-75" d="M19.54,103.77l2.6,2.62Z"/>
        <path class="cls-76"
              d="M20.29,28.61c-.25-2.38-.44-3.79-.45-5.21,0-.14,1.06-.29,1.63-.44a21,21,0,0,1,.61,3.39C22.1,26.78,21.42,27.23,20.29,28.61Z"/>
        <path class="cls-77" d="M22.14,137.92v2.63c-.39,2,1.29,5-2.6,5.26v-7.89l1.74-2.18Z"/>
        <path class="cls-78"
              d="M40.38,229.88a99,99,0,0,0-9.9.12c-1.11.12-2.09,1.64-3.13,2.51h-2.6l-2.61-7.88a33.83,33.83,0,0,0,9.07,2.94c5.43.93,2.3-6.46,6.57-5.57Z"/>
        <path class="cls-79" d="M19.54,224.63V214.12h2.6v10.51Z"/>
        <path class="cls-27"
              d="M22.14,180c.39-2-1.29-5,2.61-5.25l.86,2.18,1.74-2.18H30l2.61,2.62h2.6V193.1l-2.6,2.63H30c-2.56-1-6.6,2.43-7.82-2.63,0-2.13.85-5.45-.15-6.17C18.13,184.16,22.1,182.21,22.14,180Z"/>
        <path class="cls-80" d="M22.14,180c0,2.25-4,4.2-.15,7,1,.72.15,4,.15,6.17H16.93V180h5.21Z"/>
        <path class="cls-81" d="M30,174.71H27.35v-2.63H37.78l-2.61,5.25h-2.6Z"/>
        <path class="cls-27" d="M19.54,180H16.93l2.61-2.63Z"/>
        <path class="cls-80" d="M27.35,174.71l-1.74,2.18-.86-2.18Z"/>
        <path class="cls-82" d="M22.14,169.45l2.61,2.63Z"/>
        <path class="cls-82" d="M19.54,166.82l2.6,2.63Z"/>
        <path class="cls-75"
              d="M24.75,101.14c-.87-1.09-1.67-2.25-2.63-3.25a24.37,24.37,0,0,0-2.58-2c1-3.69,3.33-5.35,7.2-5.38,1.08,0,2.15-1.62,3.22-2.5h7.82l2.6,2.63v2.63H35.17l-2.6,2.62C25.23,95.88,25.23,95.88,24.75,101.14Z"/>
        <path class="cls-83"
              d="M37.78,88H30c-1-4.15-3.77-5.68-7.82-5.25l-2.6-2.63V77.49c4.83-.3,8.65,2.36,11.62,5.44s6,2.29,9.22,2.44V88Z"/>
        <path class="cls-84"
              d="M22.14,82.75c4.05-.43,6.8,1.1,7.82,5.25a22.45,22.45,0,0,0-3.67,0C21.65,88.8,22.08,85.65,22.14,82.75Z"/>
        <path class="cls-25" d="M19.54,77.49v2.63H16.93V69.61C22,70.84,18.54,74.91,19.54,77.49Z"/>
        <path class="cls-85" d="M19.54,214.12l-2.61-2.63Z"/>
        <path class="cls-86" d="M16.93,69.61V80.12C13.4,76.79,13.4,72.93,16.93,69.61Z"/>
        <path class="cls-87"
              d="M14.32,201v-5.25h5.22c1,.87,1.95,2.32,3.08,2.51a46,46,0,0,0,7.34.11v7.89l-7.82,5.25c-.22-3.93-3.23-2.23-5.21-2.63C15.94,206.28,19.35,202.21,14.32,201Z"/>
        <path class="cls-88" d="M16.93,208.86c2,.4,5-1.3,5.21,2.63v2.63h-2.6l-2.61-2.63Z"/>
        <path class="cls-88" d="M14.32,201c5,1.23,1.62,5.3,2.61,7.88C11.91,207.63,15.32,203.57,14.32,201Z"/>
        <path class="cls-88" d="M19.54,195.73H14.32l2.61-2.63h2.61Z"/>
        <path class="cls-89"
              d="M79.48,53.84l5.21-5.25c0,2.49.13,5,0,7.48-.27,4.12.93,7.17,5.24,8.28l2.61,13.14A34,34,0,0,0,87,79.26a36.19,36.19,0,0,0-4.87,3.49h-13A15.7,15.7,0,0,0,71.8,72.69c0-1,1.6-2,2.46-3.08l5.22-5.26a26.22,26.22,0,0,0,1.63-3C82.22,58.53,84.1,55.45,79.48,53.84Z"/>
        <path class="cls-90"
              d="M89.9,64.35c-4.31-1.11-5.51-4.16-5.24-8.28.16-2.48,0-5,0-7.48.39-2-1.29-5,2.6-5.26.64,3.61,2.56,3.2,4.92,1.64.92-.61,1.93-1.09,2.9-1.64L97.72,46h7.82V56.47L95.11,64.35H89.9Zm12-16.13c-.67,1-1.51,1.74-1.45,2.35a13.39,13.39,0,0,0,1.22,3.27c.43-.66,1.24-1.34,1.22-2A15.94,15.94,0,0,0,101.86,48.22Z"/>
        <path class="cls-35"
              d="M30,30.2V27.57c2.47-.58,5.4-2.29,7.31-1.5,4.3,1.77,3.07,6.32,3.1,10,.05,6.81,0,13.61,0,20.41h-2.6c0-7.67.1-15.35-.12-23,0-1.11-1.62-2.18-2.49-3.26Z"/>
        <path class="cls-91" d="M79.48,53.84c4.62,1.61,2.74,4.69,1.63,7.53a26.22,26.22,0,0,1-1.63,3H69.05V61.73Z"/>
        <path class="cls-92"
              d="M61.23,32.82v2.63c-.87,1-2.3,2-2.48,3.11a46.78,46.78,0,0,0-.12,7.4H56a46.78,46.78,0,0,0-.12-7.4c-.18-1.14-1.62-2.08-2.48-3.11-.23-3.93-3.24-2.23-5.22-2.63.23-3.93,3.24-2.23,5.22-2.62h5.21Z"/>
        <path class="cls-93"
              d="M50.81,59.1,48.2,56.47V53.84c4.12-1,5.63-3.8,5.22-7.88H56l2.61,2.63L56,53.84l-2.16.87L56,56.47V59.1Z"/>
        <path class="cls-35"
              d="M45.6,38.08c-2.91-4.75-4-11.52-1.49-12.62,1.93-.86,5.8-2.71,6.7,2.11-3-.18-5.94-.37-5.26,4.27A44.76,44.76,0,0,1,45.6,38.08Z"/>
        <path class="cls-94"
              d="M45.6,38.08a44.76,44.76,0,0,0-.05-6.24c-.68-4.64,2.24-4.45,5.26-4.27h2.61V30.2c-2,.39-5-1.31-5.22,2.62v5.26Z"/>
        <path class="cls-95"
              d="M58.63,46a46.78,46.78,0,0,1,.12-7.4c.18-1.14,1.61-2.08,2.48-3.11C63.76,39.81,63,43.35,58.63,46Z"/>
        <path class="cls-96" d="M87.29,24.94H89.9V38.08H87.29V24.94Z"/>
        <path class="cls-35" d="M53.42,46c.41,4.08-1.1,6.85-5.22,7.88H45.6Z"/>
        <path class="cls-35" d="M56,46h-2.6V35.45c.86,1,2.3,2,2.48,3.11A46.78,46.78,0,0,1,56,46Z"/>
        <path class="cls-97" d="M87.29,27.57v7.88C83.72,32.81,83.72,30.21,87.29,27.57Z"/>
        <path class="cls-35" d="M48.2,35.45V32.82c2,.4,5-1.3,5.22,2.63Z"/>
        <path class="cls-98" d="M56,56.47l-2.16-1.76L56,53.84h2.61v2.63Z"/>
        <path class="cls-90" d="M87.29,38.08H89.9c-.39,2,1.29,5-2.61,5.25Z"/>
        <path class="cls-35" d="M53.42,30.2V27.57c2,.4,5-1.3,5.21,2.63Z"/>
        <path class="cls-99" d="M58.63,48.59,56,46h2.61Z"/>
        <path class="cls-35" d="M45.6,38.08h2.6l-1.74,2.18Z"/>
        <path class="cls-35" d="M45.6,56.47H43l2.61-2.63Z"/>
        <ellipse class="cls-69" cx="65.14" cy="63.04" rx="1.84" ry="1.86"/>
        <ellipse class="cls-100" cx="67.75" cy="63.04" rx="1.84" ry="1.86"/>
        <path class="cls-35" d="M61.23,32.82l-2.6-2.62Z"/>
        <path class="cls-35" d="M30,24.94l2.61-2.62Z"/>
        <path class="cls-35" d="M35.17,22.32l2.61-2.63Z"/>
        <path class="cls-35" d="M40.38,19.69,43,17.06Z"/>
        <path class="cls-101"
              d="M87.29,43.33c3.9-.22,2.22-3.26,2.61-5.25V24.94l2.61,2.63c3.84,4.76,2.4,10.4,2.6,15.76-1,.55-2,1-2.9,1.64C89.85,46.53,87.93,46.94,87.29,43.33Z"/>
        <path class="cls-102"
              d="M95.11,43.33c-.2-5.36,1.24-11-2.6-15.76l7.82,2.63c-3.43,3.86-2.54,8.59-2.61,13.13V46Z"/>
        <path class="cls-103" d="M105.54,22.32h2.6l2.61,7.88H100.33Q102.93,26.26,105.54,22.32Z"/>
        <path class="cls-104"
              d="M123.78,27.57V14.43c5.32.21,10.92-1.24,15.64,2.63v5.26l-2.61,2.62H134.2C131.13,27.43,127.55,27.89,123.78,27.57Z"/>
        <path class="cls-105" d="M139.42,22.32V17.06l.88-2.21c.58.34,1.62.65,1.65,1,.16,2.13.07,4.29.07,6.44Z"/>
        <path class="cls-106" d="M139.42,22.32H142v2.62h-5.21Z"/>
        <path class="cls-107" d="M144.63,27.57H142V24.94Z"/>
        <path class="cls-108"
              d="M108.14,30.2H116q-1.3,2.63-2.6,5.25v7.88h-2.61C110.68,38.79,111.57,34.06,108.14,30.2Z"/>
        <path class="cls-109"
              d="M142,24.94v2.63c3.43,3.86,2.54,8.6,2.61,13.14-3.08,2.49-6.65,2.94-10.43,2.62h-2.6V40.71c-1-2.59,2.41-6.65-2.61-7.89l-2.6-2.62h-2.61V27.57c3.77.32,7.35-.14,10.42-2.63l.86,2.18,1.75-2.18Z"/>
        <path class="cls-110"
              d="M113.36,35.45q1.29-2.62,2.6-5.25h7.82l2.61,2.62c-1,2.59,2.41,6.66-2.61,7.89-1-7.06-2.59-8.12-7.82-5.26Z"/>
        <path class="cls-111"
              d="M87.29,203.61l-7.81,10.51q1.18-6.45-5.22-5.26H66.45v-5.25c3.89-.23,2.21-3.26,2.6-5.26,3.9-.22,2.22-3.26,2.61-5.25,3.84-2,8.52-1.11,13,2.63.28.72.57,1.45.86,2.18l1.74-2.18,5.22-5.26c.87,1.75,1.73,3.51,2.6,5.26v2.62h-2.6L89.9,201Z"/>
        <path class="cls-112"
              d="M126.39,224.63c0-5.38,4.43-10,2.6-15.7-.85-2.65-1.73-5.3-2.6-8-.66-.87-1.32-1.75-2-2.63L121.17,201h-2.6c-4.25-3.78-8.78-3.78-13,0h-2.61V193.1h2.61l2.6,2.63c9.34,0,18.69-.09,28,.11,1.1,0,2.17,1.64,3.26,2.51-2,.4-5-1.3-5.22,2.63v21c-.86.88-1.73,1.75-2.6,2.63h-5.21Z"/>
        <path class="cls-60"
              d="M134.2,222v-5.25c2.66-.35,5,.12,6.52,2.62s3.86,3,6.52,2.63v2.63c-3.9.22-2.22,3.26-2.61,5.25l-5.21,2.63h-2.61v-2.63l2.13-1.79a12.11,12.11,0,0,0-2.2-.8,15.35,15.35,0,0,0-2.54,0v-2.63a15.59,15.59,0,0,0,2.56,0,12.62,12.62,0,0,0,2.21-.83,10.13,10.13,0,0,0-2.23-1.71A7.4,7.4,0,0,0,134.2,222Z"/>
        <path class="cls-113"
              d="M71.66,208.86h2.6c0,5.07-.15,10.14.12,15.18.06,1.12,1.62,2.15,2.49,3.22v5.25H69.05v-2.63c5-1.23,1.62-5.29,2.61-7.88Z"/>
        <path class="cls-114"
              d="M110.75,219.37V222c1.09.88,2.06,2.12,3.3,2.54,1.76.59,4.5-.8,4.52,2.72a46,46,0,0,1-7.34-.12c-1.14-.19-2.07-1.64-3.09-2.51l-2.6-2.63V211.49h5.21v2.63l-2.61,2Z"/>
        <path class="cls-115"
              d="M76.87,227.26c-.87-1.07-2.43-2.1-2.49-3.22-.27-5-.12-10.11-.12-15.18q6.4-1.19,5.22,5.26C76.05,218,76.94,222.72,76.87,227.26Z"/>
        <path class="cls-116"
              d="M92.51,198.35h2.6l2.61-2.62h2.61v10.51a22.57,22.57,0,0,0-3.68,0c-4.64.77-4.21-2.38-4.14-5.29Z"/>
        <path class="cls-117"
              d="M118.57,227.26c0-3.52-2.76-2.13-4.52-2.72-1.24-.42-2.21-1.66-3.3-2.54,2.69-.52,5.36-1.11,8.07-1.51a3.84,3.84,0,0,1,2.25.58c-.15,2.8-.49,5.6-.82,8.39,0,0-.74.07-.81-.06C119.09,228.71,118.85,228,118.57,227.26Z"/>
        <path class="cls-118"
              d="M105.54,201c4.25-3.78,8.78-3.78,13,0L116,203.61h-2.6C112.13,198.55,108.1,202,105.54,201Z"/>
        <path class="cls-119" d="M100.33,206.24V193.1h2.6v13.14Z"/>
        <path class="cls-120" d="M113.36,203.61H116l-5.21,5.25h-2.61v-2.62Z"/>
        <path class="cls-121"
              d="M113.36,203.61l-5.22,2.63c-.87-.88-1.73-1.76-2.6-2.63V201C108.1,202,112.13,198.55,113.36,203.61Z"/>
        <path class="cls-122"
              d="M84.69,223.21a8,8,0,0,1-.07,2.55c-.19.5-1.07.74-1.63,1.09,0-3.2-.07-6.4-.11-9.6.6.27,1.69.49,1.73.82C84.78,219.77,84.69,221.5,84.69,223.21Z"/>
        <path class="cls-123" d="M105.54,214.12V222C102,219.36,102,216.76,105.54,214.12Z"/>
        <path class="cls-124"
              d="M126.39,224.63H129l2.61,2.63c-1.09.87-2.29,2.6-3.25,2.47C125.2,229.31,126.74,226.49,126.39,224.63Z"/>
        <path class="cls-124" d="M136.81,229.88v2.63c-.22,3.93-3.24,2.23-5.21,2.63Z"/>
        <path class="cls-124"
              d="M131.6,235.14c-.22,3.93-3.24,2.23-5.21,2.63C126.61,233.84,129.62,235.53,131.6,235.14Z"/>
        <path class="cls-125" d="M105.54,201v2.63l-2.61,2.63V201Z"/>
        <path class="cls-126" d="M131.6,227.26,129,224.63h5.21v2.63Z"/>
        <path class="cls-127" d="M121.17,201l3.25-2.63c.65.88,1.31,1.76,2,2.63Z"/>
        <path class="cls-50" d="M89.9,243H84.69v-2.63C86.66,240.79,89.68,239.09,89.9,243Z"/>
        <path class="cls-123" d="M110.75,219.37l-2.61-3.26,2.61-2Z"/>
        <path class="cls-128" d="M92.51,198.35V201H89.9Z"/>
        <path class="cls-128" d="M87.29,203.61,89.9,201Z"/>
        <path class="cls-123" d="M108.14,211.49h-2.6c.87-.87,1.73-1.75,2.6-2.63Z"/>
        <ellipse class="cls-129" cx="109.45" cy="210.18" rx="1.84" ry="1.86"/>
        <path class="cls-123" d="M105.54,222l2.6,2.63Z"/>
        <path class="cls-130" d="M58.63,227.26H50.81l2.61-7.89H56Z"/>
        <path class="cls-131" d="M50.81,227.26l-2.61,2.62Z"/>
        <path class="cls-132" d="M61.23,229.88l-2.6-2.62h2.6Z"/>
        <path class="cls-133" d="M63.84,232.51l-2.61-2.63Z"/>
        <path class="cls-134" d="M66.45,235.14H63.84v-2.63Z"/>
        <path class="cls-63"
              d="M144.63,229.88c.39-2-1.29-5,2.61-5.25l2.6,2.63C149.62,231.19,146.6,229.49,144.63,229.88Z"/>
        <path class="cls-62" d="M149.84,222l2.61-2.63Z"/>
        <ellipse class="cls-63" cx="148.54" cy="223.31" rx="1.84" ry="1.86"/>
        <path class="cls-62" d="M147.24,224.63h2.6v2.63Z"/>
        <path class="cls-135"
              d="M66.45,235.14l-2.61-2.63-2.61-2.63v-2.62c.87-1.09,1.67-2.25,2.63-3.25a22.11,22.11,0,0,1,2.59-2c1,2.59-2.42,6.65,2.6,7.88v2.63Z"/>
        <path class="cls-136" d="M84.69,240.39V243l-2.16-1.76Z"/>
        <path class="cls-17" d="M24.75,232.51h2.6c-.86.88-1.73,1.75-2.6,2.63Z"/>
        <path class="cls-137"
              d="M50.81,227.26l-2.61,2.62H43c0-3.35.06-6.71,0-10.07-.09-4.28,3.06-2.78,5.22-3.06h5.22v2.62Z"/>
        <path class="cls-138"
              d="M48.2,216.75c-2.16.28-5.31-1.22-5.22,3.06.07,3.36,0,6.72,0,10.07H40.38L37.78,222c5-1.23,1.61-5.3,2.6-7.88C43,215.12,47,211.68,48.2,216.75Z"/>
        <path class="cls-139"
              d="M136.81,135.3c-.57.73-1.15,1.46-1.72,2.2l-3.49-4.83V130q2.61-5.25,5.21-10.51c2.13-6.56,3.3-13-2.61-18.39V98.51l-2.6-2.63L129,93.26l-2.6-2.63V88c4.49-.82,8,.61,10.87,4.27,1.2,1.52,3.15,2.43,4.76,3.61.4,2-1.29,5,2.61,5.26,1.12,11.07-.63,21.37-7.74,30.35C136.27,132.28,136.81,134,136.81,135.3Z"/>
        <path class="cls-140"
              d="M147.24,153.69v-7.88c.86-.88,1.73-1.76,2.6-2.63,2.93,4.95,3.73,13,1.25,15.53-.24.24-2.52-1.55-3.85-2.4Z"/>
        <path class="cls-139" d="M144.63,137.92,142,135.3Z"/>
        <path class="cls-141"
              d="M142,95.88c-1.61-1.18-3.56-2.09-4.76-3.61-2.87-3.66-6.38-5.09-10.87-4.27l-2.61-2.63h-5.21L116,82.75h-2.6V77.49c3.91,2.26,3.91,2.26,7.81,0l.86,2.18,1.75-2.18,2.61-2.63.85,2.18L129,74.86c2-.39,5,1.31,5.21-2.62l2.61-2.63V64.35l7.82,5.26c.28,1.6.48,3.22.87,4.79.49,1.93,1.15,3.82,1.74,5.72-4.93,1.1-6.9,4.14-5.91,8.57A55.22,55.22,0,0,1,142,95.88Z"/>
        <path class="cls-142"
              d="M134.2,43.33c3.78.32,7.35-.13,10.43-2.62l2.61,2.62,2.6,2.63V64.35h-2.6c0-3.78,1.13-8.11-.34-11.18-1.32-2.78-1.15-9.07-7.48-7.21H134.2Z"/>
        <path class="cls-141" d="M147.24,64.35h2.6L152,66.12c-1.91,2.33-4,4.33-7.37,3.49V67Z"/>
        <path class="cls-143" d="M149.84,46l-2.6-2.63h5.21Z"/>
        <path class="cls-144" d="M147.24,43.33l-2.61-2.62h2.61Z"/>
        <path class="cls-60"
              d="M139.42,198.35c-1.09-.87-2.16-2.48-3.26-2.51-9.33-.2-18.68-.11-28-.11l-2.6-2.63c1.08-.88,2.23-1.68,3.22-2.65a22.44,22.44,0,0,0,2-2.61c5.32-.2,10.92,1.25,15.64-2.62h7.81c1,.87,2,2.32,3.09,2.51a46,46,0,0,0,7.34.11l2.61,5.26a19.41,19.41,0,0,0-2.59,2c-1.8,1.91-3.5,3.93-5.23,5.91Z"/>
        <path class="cls-59" d="M134.2,185.22h-7.81V180h5.21Z"/>
        <path class="cls-145" d="M131.6,177.33H142c-1,.88-2,2.33-3.08,2.51a46,46,0,0,1-7.34.12Z"/>
        <path class="cls-145" d="M142,177.33v-7.88h2.61C143.64,172,147,176.1,142,177.33Z"/>
        <path class="cls-139" d="M147.24,153.69v2.62c-.4,2,1.29,5-2.61,5.26C145.62,159,142.21,154.92,147.24,153.69Z"/>
        <path class="cls-59" d="M138.49,183l.93.93a7.5,7.5,0,0,1-1.75.82c-.22.05-.57-.52-.86-.82Z"/>
        <path class="cls-139" d="M144.63,169.45H142l2.61-2.63Z"/>
        <path class="cls-146"
              d="M139.42,201c1.73-2,3.43-4,5.23-5.91a19.41,19.41,0,0,1,2.59-2c-.42,4.08,1.09,6.85,5.21,7.88v5.26c-3.9.22-2.22,3.26-2.61,5.25h-2.6a15.5,15.5,0,0,0-3.13-2.49c-.31-.14-2.12,1.78-2,2.11a8.17,8.17,0,0,0,2.67,2.94c.55.39,1.59.07,2.41.07h2.6c-.87,2.63-1.74,5.25-2.6,7.88-2.66.35-5-.12-6.52-2.63s-3.86-3-6.52-2.62v-7.89c5-1.23,1.62-5.29,2.61-7.88Z"/>
        <path class="cls-60" d="M149.84,211.49c.39-2-1.29-5,2.61-5.25v5.25Z"/>
        <ellipse class="cls-147" cx="148.54" cy="212.81" rx="1.84" ry="1.86"/>
        <path class="cls-75" d="M40.38,88V85.37H48.2C47,90.44,43,87,40.38,88Z"/>
        <path class="cls-148"
              d="M40.38,88C43,87,47,90.44,48.2,85.37L56,82.75h7.82c3.84,4.75,2.4,10.39,2.61,15.76v15.77c1.49,1.94,3.56,3.69,4.31,5.89s.34,6.55-.14,6.64c-7.87,1.43-2.8,7.49-4.17,11.11,0,4.22-.19,8.46.12,12.66.08,1.09,1.49,2.49,2.63,3a69.7,69.7,0,0,0,7.67,2.71c6.5-3.78,13.89-6.31,18.24-13.13,1.89-.59,4.11-.73,5.6-1.85,5.71-4.29,8.66-10.84,12.65-16.54a19.9,19.9,0,0,1,.83-2.15c2.72-5.24,2.47-9.47-.83-13.62-1.48-1.93-2.69-4.17-4.49-5.72-5.1-4.43-9.6-2.54-11.11,4.54a18.61,18.61,0,0,0,0,3.81c-1.8,1.75-3.36,4.47-5.47,5-3.09.81-6.21-.74-9.42-2-3.63-1.37-4.23-3.62-3.17-5.41,3.07-5.17,2.3-10.61,2.42-16V82.75A36.19,36.19,0,0,1,87,79.26a34,34,0,0,1,5.56-1.77h2.6l2.61,2.63,2.61,2.63H116l2.61,2.62h5.21L126.39,88v2.63H116c-1.06-.88-2.1-2.46-3.2-2.51C106.88,87.87,101,88,95.11,88V85.37c-2.62-3.6-5.19-3.6-7.82,0-.75,7.07,1.48,14.31-1.37,21.34-.42,1,1.06,3.52,2.31,4.35,1.81,1.2,4.08,1.24,4.28-2v-5.25c3.9-.23,2.21-3.27,2.6-5.26V95.88h5.22c4.5.07,9.19-.82,13,2.63l2.6,2.63,2.61,2.63c3.42,3.86,2.53,8.59,2.6,13.13.32,3.8-.13,7.41-2.6,10.51V130L116,132.67c-.87.87-1.74,1.75-2.6,2.63v2.62l-2.61,2.63-7.82,5.26-2.6,2.62-2.61,2.63-2.61,2.63-2.6,2.62H89.9l-5.21,5.26H76.87c-5.32-.21-10.92,1.24-15.64-2.63V90.63l-2-2.63L56,90.63H40.38L37.78,88Z"/>
        <path class="cls-71"
              d="M63.84,82.75H56q5-6.57,0-13.14l7.82-5.26h5.21c1.08.88,2.23,1.68,3.22,2.66a20.53,20.53,0,0,1,2,2.6c-.86,1-2.51,2.09-2.46,3.08a15.7,15.7,0,0,1-2.75,10.06Z"/>
        <path class="cls-149" d="M35.17,30.2c.87,1.08,2.46,2.15,2.49,3.26.22,7.66.12,15.34.12,23L35.17,59.1Z"/>
        <path class="cls-150" d="M56,56.47h2.61l2.13,1.79a12.15,12.15,0,0,1-2.2.81,15.36,15.36,0,0,1-2.54,0Z"/>
        <ellipse class="cls-69" cx="46.9" cy="55.16" rx="1.84" ry="1.86"/>
        <path class="cls-151"
              d="M40.38,90.63H56c0,22.07-.11,44.15.1,66.22,0,4.24-1.6,5.44-5.18,4.66A79.09,79.09,0,0,1,43,158.94c0-16.88,0-33.75,0-50.63,0-6.86-.08-6.86-7.81-7.17,1.37-5.08,5.5-1.51,8.1-2.68.91-.41,2.33-1.82,2.19-2.09a8.83,8.83,0,0,0-2.63-3c-.55-.4-1.62-.07-2.45-.07Z"/>
        <path class="cls-152"
              d="M79.48,161.57h2.6l2.61,2.63c13.75,0,27.5.05,41.25-.07,1.83,0,3.66-.93,5.48-1.42a34.67,34.67,0,0,0-6-1.09c-10.31-.11-20.62,0-30.94-.09-1.87,0-4.57,1-4.6-2.59l2.61-2.63c2-.39,5,1.31,5.21-2.62,3.91,2.25,3.91,2.25,7.82,0,3.29,3.55,7.12,3.55,10.42,0h13l2.61-2.63h2.6l2.61,2.63V164.2c-5,1.23-1.61,5.29-2.61,7.88h-2.6c-.21-2.31,1.13-5.4-3.27-5.3-7.28.16-14.57,0-21.85,0h-27Z"/>
        <path class="cls-153"
              d="M43,158.94a79.09,79.09,0,0,0,7.95,2.57c3.58.78,5.22-.42,5.18-4.66-.21-22.07-.1-44.15-.1-66.22h2.61a46.78,46.78,0,0,0,.12,7.4c.18,1.14,1.61,2.08,2.48,3.11v2.63c-.87.69-2.49,1.37-2.49,2.07q-.21,25.51,0,51c0,.7,1.62,1.38,2.49,2.07,4.72,3.87,10.32,2.42,15.64,2.63v5.25H31.42c-1.73,0-3.56.33-5.16-.14-.74-.22-1.26-2-1.42-3.08-.08-.6.76-1.91,1.25-1.94,3-.18,6.05-.09,9.08-.09C37.74,160.57,41.77,164,43,158.94Z"/>
        <path class="cls-154"
              d="M92.51,190.47l-5.22,5.26h-2.6c-4.51-3.74-9.19-4.68-13-2.63-.21-5.37,1.23-11-2.61-15.77a15.37,15.37,0,0,1,10-2.76c1,0,2-1.61,3.06-2.49,5,0,10-.15,15.06.12,1.1.06,2.13,1.63,3.19,2.51-.9,1.34-1.61,3.64-2.72,3.86-5.71,1.09-5.5,5.07-5.11,9.33C92.57,188.75,92.51,189.61,92.51,190.47Z"/>
        <path class="cls-127"
              d="M92.51,190.47c0-.86.06-1.72,0-2.57-.39-4.26-.6-8.24,5.11-9.33,1.11-.22,1.82-2.52,2.72-3.86h2.6l7.82,5.25v7.88a22.44,22.44,0,0,1-2,2.61c-1,1-2.14,1.77-3.22,2.65h-5.21l-2.61,2.63H95.11C94.24,194,93.38,192.22,92.51,190.47Z"/>
        <path class="cls-155"
              d="M110.75,180l-7.82-5.25c1.07-.88,2.1-2.46,3.21-2.51,5.87-.25,11.76-.12,17.64-.12.39,2-1.29,5,2.61,5.25h5.21V180H110.75Z"/>
        <path class="cls-154"
              d="M35.17,177.33l2.61-5.25H58.63c1.09.88,2.06,2.12,3.3,2.54,1.76.59,4.5-.8,4.52,2.71-2.11,0-5.41-.85-6.12.16-2.75,3.89-4.68-.12-6.91-.16-1.89-.59-3.76-1.25-5.67-1.74-1.56-.4-3.17-.6-4.76-.88l-2.61,2.62H35.17Z"/>
        <path class="cls-156"
              d="M40.38,93.26c.83,0,1.9-.33,2.45.07a8.83,8.83,0,0,1,2.63,3c.14.27-1.28,1.68-2.19,2.09-2.6,1.17-6.73-2.4-8.1,2.68H24.75c.48-5.26.48-5.26,7.82-5.26l2.6-2.62Z"/>
        <path class="cls-157"
              d="M136.81,153.69l-2.61-2.63v-5.25c3.9-.23,2.22-3.27,2.61-5.26,2,.4,5-1.3,5.21,2.63l-2.16.86,2.16,1.77v10.5h-2.6Z"/>
        <path class="cls-82"
              d="M66.45,177.33c0-3.51-2.76-2.12-4.52-2.71-1.24-.42-2.21-1.66-3.3-2.54H82.08c-1,.88-2.07,2.53-3.06,2.49a15.37,15.37,0,0,0-10,2.76Z"/>
        <path class="cls-158" d="M134.2,172.08c1-2.59-2.41-6.65,2.61-7.88l2.61,2.62v5.26l-2.61,2.63H134.2Z"/>
        <path class="cls-159" d="M139.42,166.82l-2.61-2.62V153.69l2.61,2.62v10.51Z"/>
        <path class="cls-139" d="M116,153.69c-3.3,3.55-7.13,3.55-10.42,0l2.6-2.63h2.61C111,155,114,153.29,116,153.69Z"/>
        <path class="cls-160" d="M126.39,135.3v2.62l-2.61,2.63h-2.61v-2.63l2.61-2.62Z"/>
        <path class="cls-139" d="M126.39,140.55c1.84.36,4.64-1.19,5,2,.13,1-1.58,2.18-2.45,3.28l-2.6-2.63Z"/>
        <path class="cls-161" d="M126.39,143.18l2.6,2.63c-.22,3.93-3.23,2.23-5.21,2.62v-2.62Z"/>
        <path class="cls-151" d="M43,158.94c-1.22,5.07-5.25,1.63-7.82,2.63C36.39,156.51,40.43,159.94,43,158.94Z"/>
        <path class="cls-139" d="M139.42,161.57v-5.26H142C141.63,158.31,143.32,161.35,139.42,161.57Z"/>
        <ellipse class="cls-82" cx="78.17" cy="164.2" rx="1.84" ry="3.72"/>
        <path class="cls-162" d="M126.39,177.33c-3.9-.22-2.22-3.26-2.61-5.25l2.61,2.63Z"/>
        <path class="cls-163" d="M126.39,135.3h-2.61v-2.63H129C128.12,133.54,127.26,134.42,126.39,135.3Z"/>
        <path class="cls-139" d="M136.81,140.55c-.39,2,1.29,5-2.61,5.26C134.6,143.81,132.91,140.77,136.81,140.55Z"/>
        <path class="cls-164" d="M118.57,143.18,116,145.81v-2.63l2.61-2.63Z"/>
        <path class="cls-165" d="M118.57,143.18v-5.26h2.6v5.26Z"/>
        <path class="cls-145" d="M126.39,177.33v-2.62l2.6,2.62Z"/>
        <path class="cls-145" d="M136.81,174.71l2.61-2.63Z"/>
        <path class="cls-145" d="M134.2,172.08v2.63c-.86-.88-1.73-1.75-2.6-2.63Z"/>
        <path class="cls-139" d="M131.6,151.06,129,153.69Z"/>
        <path class="cls-139" d="M113.36,148.43l-2.61,2.63v-2.63Z"/>
        <path class="cls-139" d="M123.78,145.81v2.62l-2.16-1.76Z"/>
        <path class="cls-139" d="M116,145.81l-2.6,2.62v-2.62Z"/>
        <path class="cls-139" d="M142,143.18l2.16,1.76-2.16.87Z"/>
        <path class="cls-139" d="M121.17,143.18v-2.63h2.61Z"/>
        <path class="cls-139" d="M123.78,140.55l2.61-2.63v2.63Z"/>
        <ellipse class="cls-166" cx="130.3" cy="131.35" rx="1.84" ry="1.86"/>
        <path class="cls-75" d="M24.75,101.14h2.6l-1.74,2.18Z"/>
        <path class="cls-167"
              d="M22.14,224.63v-7.88L30,208.86h2.61q2.59,2.64,5.21,5.26V222c-4.27-.89-1.14,6.5-6.57,5.57A33.83,33.83,0,0,1,22.14,224.63Z"/>
        <path class="cls-168" d="M30,208.86l-7.82,7.89v-5.26L30,206.24Z"/>
        <path class="cls-169"
              d="M37.78,177.33h2.6L43,174.71c1.59.28,3.2.48,4.76.88,1.91.49,3.78,1.15,5.67,1.74v13.14l-7.82,5.26h-13l2.6-2.63c.87-1.06,2.41-2.07,2.49-3.19C38,185.74,37.78,181.53,37.78,177.33Z"/>
        <path class="cls-81" d="M37.78,177.33c0,4.2.18,8.41-.12,12.58C37.58,191,36,192,35.17,193.1V177.33Z"/>
        <path class="cls-23"
              d="M19.54,195.73V193.1h2.6c1.22,5.06,5.26,1.63,7.82,2.63v2.62a46,46,0,0,1-7.34-.11C21.49,198.05,20.56,196.6,19.54,195.73Z"/>
        <ellipse class="cls-170" cx="31.26" cy="197.04" rx="1.84" ry="1.86"/>
        <path class="cls-80" d="M30,174.71l2.61,2.62Z"/>
        <path class="cls-151" d="M35.17,93.26l-2.6,2.62Z"/>
        <path class="cls-171" d="M30,198.35h2.61c.34,3.06-1.26,6.62,2.25,8.85l-2.25,1.66H30V198.35Z"/>
        <path class="cls-172"
              d="M113.36,82.75h-13l-2.61-2.63-2.61-2.63h-2.6L89.9,64.35h2.61l.86,2.18,1.74-2.18,10.43-7.88c-.39,5.77,3.63,8.2,7.82,10.51V82.75Z"/>
        <path class="cls-173"
              d="M63.84,82.75H82.08V93.26c-.72.29-2.07.56-2.08.87-.15,6-3,10.37-8.5,12.11-3.16,1-1.93,3-2.53,4.76-.43,1.24-1.66,2.19-2.52,3.28V103.77c.86-.67,1.73-1.33,2.6-2l-2.6-3.27C66.24,93.14,67.68,87.5,63.84,82.75Z"/>
        <path class="cls-100" d="M74.26,69.61a20.53,20.53,0,0,0-2-2.6c-1-1-2.14-1.78-3.22-2.66H79.48Z"/>
        <path class="cls-174"
              d="M113.36,67c-4.19-2.31-8.21-4.74-7.82-10.51V48.59c2-.4,5,1.3,5.21-2.63L116,48.59c1,2.59-2.41,6.65,2.61,7.88h2.6V59.1l-2.6,2.63L116,64.35Z"/>
        <path class="cls-175"
              d="M108.14,30.2c3.43,3.86,2.54,8.59,2.61,13.13V46h-13V43.33c2.17-.27,5.31,1.22,5.23-3.06-.07-3.36,0-6.72,0-10.07Z"/>
        <path class="cls-172"
              d="M101.86,48.22a15.94,15.94,0,0,1,1,3.63c0,.65-.79,1.33-1.22,2a13.39,13.39,0,0,1-1.22-3.27C100.35,50,101.19,49.25,101.86,48.22Z"/>
        <path class="cls-176" d="M105.54,46h5.21c-.22,3.93-3.24,2.23-5.21,2.63Z"/>
        <path class="cls-89" d="M95.11,64.35l-1.74,2.18-.86-2.18Z"/>
        <path class="cls-177"
              d="M102.93,30.2c0,3.35-.05,6.71,0,10.07.08,4.28-3.06,2.79-5.23,3.06.07-4.54-.82-9.27,2.61-13.13Z"/>
        <path class="cls-178" d="M136.81,24.94l-1.75,2.18-.86-2.18Z"/>
        <path class="cls-179" d="M113.36,35.45H116q-1.18,6.45,5.21,5.26v2.62h-7.81Z"/>
        <path class="cls-180"
              d="M113.36,43.33h7.81a21.38,21.38,0,0,1-2,2.61c-1,1-2.14,1.77-3.22,2.65L110.75,46V43.33Z"/>
        <path class="cls-181"
              d="M123.78,40.71c5-1.23,1.61-5.3,2.61-7.89V30.2l2.6,2.62c1,2.59-2.41,6.66,2.61,7.89V46l-5.21-2.63Z"/>
        <path class="cls-182" d="M131.6,40.71c-5-1.23-1.62-5.3-2.61-7.89C134,34.06,130.61,38.12,131.6,40.71Z"/>
        <ellipse class="cls-183" cx="132.9" cy="44.65" rx="1.84" ry="1.86"/>
        <path class="cls-34" d="M126.39,30.2v2.62l-2.61-2.62Z"/>
        <path class="cls-184" d="M121.17,40.71q-6.39,1.18-5.21-5.26c5.23-2.86,6.81-1.8,7.82,5.26Z"/>
        <path class="cls-185"
              d="M66.45,203.61v5.25l-2.61,2.63c-4-.42-6.8,1.11-7.82,5.26h-2.6l-2.61-2.63V195.73c5.21-.45,8.51,3.94,13,5.25Z"/>
        <path class="cls-186"
              d="M71.66,208.86V222H66.45c-.23-3.93-3.24-2.23-5.22-2.63v-2.62l2.61-2.63v-2.63l2.61-2.63Z"/>
        <path class="cls-187"
              d="M66.45,203.61,63.84,201c.22-3.93,3.24-2.23,5.21-2.63C68.66,200.35,70.34,203.38,66.45,203.61Z"/>
        <path class="cls-187" d="M71.66,193.1c-.39,2,1.29,5-2.61,5.25C69.44,196.36,67.76,193.32,71.66,193.1Z"/>
        <path class="cls-128" d="M84.69,195.73h2.6l-1.74,2.18C85.26,197.18,85,196.45,84.69,195.73Z"/>
        <path class="cls-128" d="M95.11,195.73h2.61l-2.61,2.62Z"/>
        <path class="cls-188"
              d="M134.2,224.63h-2.6c.87-.88,1.74-1.75,2.6-2.63a7.4,7.4,0,0,1,2.54.06,10.13,10.13,0,0,1,2.23,1.71,12.62,12.62,0,0,1-2.21.83A15.59,15.59,0,0,1,134.2,224.63Z"/>
        <path class="cls-60" d="M136.81,201c-1,2.59,2.42,6.65-2.61,7.88V201Z"/>
        <path class="cls-127" d="M136.81,201H134.2c.23-3.93,3.24-2.23,5.22-2.63V201Z"/>
        <path class="cls-127" d="M105.54,193.1l2.6,2.63Z"/>
        <path class="cls-189" d="M66.45,222h5.21c-1,2.59,2.41,6.65-2.61,7.88C64,228.65,67.44,224.59,66.45,222Z"/>
        <path class="cls-128" d="M97.72,195.73l2.61-2.63v2.63Z"/>
        <path class="cls-135"
              d="M61.23,216.75v2.62c-1.59.16-3,.14-1.54,2.53.94,1.52,1.06,3.55,1.54,5.36h-2.6L56,219.37v-2.62Z"/>
        <ellipse class="cls-190" cx="54.72" cy="218.06" rx="1.84" ry="1.86"/>
        <path class="cls-191"
              d="M61.23,227.26c-.48-1.81-.6-3.84-1.54-5.36-1.47-2.39,0-2.37,1.54-2.53,2,.4,5-1.3,5.22,2.63a22.11,22.11,0,0,0-2.59,2C62.9,225,62.1,226.17,61.23,227.26Z"/>
        <path class="cls-192"
              d="M50.81,206.24v10.51H48.2c-1.22-5.07-5.25-1.63-7.82-2.63h-2.6c1.07-.88,2.14-2.49,3.22-2.5,3.87,0,6.19-1.69,7.2-5.38Z"/>
        <path class="cls-193" d="M50.81,216.75v-2.63l2.61,2.63Z"/>
        <path class="cls-194" d="M37.78,214.12h2.6c-1,2.58,2.42,6.65-2.6,7.88Z"/>
        <path class="cls-195" d="M134.2,101.14c5.91,5.4,4.74,11.83,2.61,18.39l-2.61-2.63V101.14Z"/>
        <path class="cls-196"
              d="M134.2,116.9l2.61,2.63q-2.61,5.25-5.21,10.51h-5.21v-2.63l2.6-2.62,2.61-2.63C132,120.17,130.31,117.13,134.2,116.9Z"/>
        <path class="cls-197" d="M129,93.26l2.61,2.62c-2.57-1-6.6,2.44-7.82-2.62Z"/>
        <path class="cls-198" d="M129,93.26h-5.21V90.63h2.61Z"/>
        <ellipse class="cls-199" cx="132.9" cy="99.82" rx="1.84" ry="1.86"/>
        <path class="cls-197" d="M134.2,98.51h-2.6V95.88Z"/>
        <path class="cls-200"
              d="M113.36,77.49V67l2.6-2.63,2.61-2.62h18.24v7.88l-2.61,2.63c-2,.39-5-1.31-5.21,2.62h-2.6l-2.61,2.63h-2.61C117.27,79.75,117.27,79.75,113.36,77.49Z"/>
        <path class="cls-201"
              d="M136.81,64.35V61.73a97.79,97.79,0,0,1,.12-10c.12-1.12,1.62-2.1,2.49-3.15v2.63a48,48,0,0,0,.11,7.4c.19,1.14,1.62,2.08,2.49,3.11L144.63,67v2.63Z"/>
        <path class="cls-202" d="M129,74.86c.22-3.93,3.24-2.23,5.21-2.62C134,76.17,131,74.47,129,74.86Z"/>
        <path class="cls-203" d="M134.2,72.24l2.61-2.63Z"/>
        <path class="cls-204" d="M126.39,74.86H129L127.24,77Z"/>
        <path class="cls-204" d="M121.17,77.49h2.61L122,79.67Z"/>
        <path class="cls-198" d="M118.57,85.37,116,82.75Z"/>
        <path class="cls-198" d="M126.39,88l-2.61-2.63Z"/>
        <path class="cls-205"
              d="M139.42,51.22V46c6.33-1.86,6.16,4.43,7.48,7.21,1.47,3.07.34,7.4.34,11.18L144.63,67,142,61.73C146.27,57,146.07,56.13,139.42,51.22Z"/>
        <path class="cls-206" d="M139.42,46v2.63c-.87,1-2.37,2-2.49,3.15a97.79,97.79,0,0,0-.12,10H134.2V46Z"/>
        <path class="cls-207" d="M110.75,180h15.64v5.26c-4.72,3.87-10.32,2.42-15.64,2.62Z"/>
        <path class="cls-60"
              d="M147.24,211.49v2.63c-.82,0-1.86.32-2.41-.07a8.17,8.17,0,0,1-2.67-2.94c-.17-.33,1.64-2.25,2-2.11A15.5,15.5,0,0,1,147.24,211.49Z"/>
        <path class="cls-208"
              d="M66.45,114.28c.86-1.09,2.09-2,2.52-3.28.6-1.74-.63-3.77,2.53-4.76,5.54-1.74,8.35-6.11,8.5-12.11,0-.31,1.36-.58,2.08-.87-.12,5.43.65,10.87-2.42,16-1.06,1.79-.46,4,3.17,5.41,3.21,1.22,6.33,2.77,9.42,2,2.11-.55,3.67-3.27,5.47-5v2.63c1.74,1.74,4.51,3.26,5,5.29.54,2.51-1.29,5.45-1.3,8.2,0,5.41-4.05,8.6-6.26,12.78-3.41.85-5.23-1.45-7.45-3.45-3.51-3.17-7.4-2.91-11.16-.12l-4.84,3.57c-.22-3.93-3.24-2.23-5.21-2.63,1.37-3.62-3.7-9.68,4.17-11.11.48-.09.84-4.58.14-6.64S67.94,116.22,66.45,114.28Z"/>
        <path class="cls-209"
              d="M131.6,95.88v5.26c.87.87,1.74,1.75,2.6,2.63V116.9c-3.89.23-2.21,3.27-2.6,5.26L129,124.79l-2.6,2.62V130l-2.61,2.63L121.17,130v-2.63c3.53-3.32,3.53-7.18,0-10.51-.07-4.54.82-9.27-2.6-13.13L116,101.14V98.51c-1-4.15-3.77-5.68-7.82-5.25V90.63h10.43c.22,3.93,3.23,2.23,5.21,2.63C125,98.32,129,94.88,131.6,95.88Z"/>
        <path class="cls-210"
              d="M71.66,140.55,76.5,137c3.76-2.79,7.65-3,11.16.12,2.22,2,4,4.3,7.45,3.45v2.63c-4.35,6.82-11.74,9.35-18.24,13.13C71.66,149.35,71.66,149.35,71.66,140.55Z"/>
        <path class="cls-211"
              d="M95.11,143.18v-2.63c2.21-4.18,6.23-7.37,6.26-12.78,0-2.75,1.84-5.69,1.3-8.2-.44-2-3.21-3.55-5-5.29,4.42-.68,8.2-.23,9.19,5.24a5.72,5.72,0,0,0,1.23,0l5.22,5.26c-4,5.7-6.94,12.25-12.65,16.54C99.22,142.45,97,142.59,95.11,143.18Z"/>
        <path class="cls-212"
              d="M108.14,119.53a5.72,5.72,0,0,1-1.23,0c-1-5.47-4.77-5.92-9.19-5.24v-2.63a18.61,18.61,0,0,1,0-3.81c1.51-7.08,6-9,11.11-4.54,1.8,1.55,3,3.79,4.49,5.72C107.59,110.49,107.93,115.05,108.14,119.53Z"/>
        <path class="cls-213"
              d="M108.14,90.63v2.63h-13L89.9,98.51a46.78,46.78,0,0,0,.12,7.4c.18,1.14,1.62,2.08,2.49,3.11-.2,3.28-2.47,3.24-4.28,2-1.25-.83-2.73-3.34-2.31-4.35,2.85-7,.62-14.27,1.37-21.34H89.9a15.85,15.85,0,0,0,0,2.58,12.67,12.67,0,0,0,.82,2.22,9.9,9.9,0,0,0,1.7-2.24,7.78,7.78,0,0,0,.06-2.56h2.6V88c1,.88,2,2.39,3.13,2.51A96.07,96.07,0,0,0,108.14,90.63Z"/>
        <path class="cls-214"
              d="M89.9,158.94c0,3.56,2.73,2.58,4.6,2.59,10.32.08,20.63,0,30.94.09a34.67,34.67,0,0,1,6,1.09c-1.82.49-3.65,1.41-5.48,1.42-13.75.12-27.5.07-41.25.07v-2.63l5.21-5.26Z"/>
        <path class="cls-215" d="M61.23,158.94c-.87-.69-2.49-1.37-2.49-2.07q-.21-25.51,0-51c0-.7,1.62-1.38,2.49-2.07Z"/>
        <path class="cls-216"
              d="M71.66,140.55c0,8.8,0,8.8,5.21,15.76a69.7,69.7,0,0,1-7.67-2.71c-1.14-.53-2.55-1.93-2.63-3-.31-4.2-.12-8.44-.12-12.66C68.42,138.32,71.44,136.62,71.66,140.55Z"/>
        <path class="cls-217"
              d="M108.14,119.53c-.21-4.48-.55-9,5.22-10.51,3.3,4.15,3.55,8.38.83,13.62a19.9,19.9,0,0,0-.83,2.15Z"/>
        <path class="cls-218"
              d="M110.75,148.43v2.63h-2.61l-.85-2.18-1.75,2.18v2.63c-3.91,2.25-3.91,2.25-7.82,0v-2.63l2.61-2.63,2.6-2.62,7.82-5.26v7.88Z"/>
        <path class="cls-198"
              d="M108.14,90.63a96.07,96.07,0,0,1-9.9-.12c-1.12-.12-2.09-1.63-3.13-2.51,5.89,0,11.77-.13,17.65.12,1.1,0,2.14,1.63,3.2,2.51Z"/>
        <path class="cls-219" d="M100.33,93.26h7.81c4-.43,6.8,1.1,7.82,5.25h-2.6c-3.84-3.45-8.53-2.56-13-2.63Z"/>
        <path class="cls-166" d="M121.17,130l2.61,2.63v2.63l-2.61,2.62H116V135.3l2.16-.87L116,132.67l2.61-2.63Z"/>
        <path class="cls-166" d="M121.17,116.9c3.53,3.33,3.53,7.19,0,10.51h-2.6C121,124.31,121.49,120.7,121.17,116.9Z"/>
        <path class="cls-220" d="M92.51,109c-.87-1-2.31-2-2.49-3.11a46.78,46.78,0,0,1-.12-7.4h2.61V109Z"/>
        <path class="cls-221" d="M61.23,101.14c-.87-1-2.3-2-2.48-3.11a46.78,46.78,0,0,1-.12-7.4h2.6Z"/>
        <path class="cls-222" d="M92.51,98.51H89.9l5.21-5.25v5.25Z"/>
        <path class="cls-198" d="M95.11,85.37H87.29C89.92,81.77,92.49,81.77,95.11,85.37Z"/>
        <path class="cls-223" d="M97.72,153.69c-.22,3.93-3.24,2.23-5.21,2.62l2.6-2.62Z"/>
        <path class="cls-224" d="M116,132.67l2.16,1.76-2.16.87h-2.6C114.22,134.42,115.09,133.54,116,132.67Z"/>
        <path class="cls-198" d="M92.51,98.51h2.6c-.39,2,1.3,5-2.6,5.26Z"/>
        <path class="cls-208" d="M66.45,98.51l2.6,3.27c-.87.66-1.74,1.32-2.6,2Z"/>
        <ellipse class="cls-225" cx="97.72" cy="94.57" rx="3.69" ry="1.86"/>
        <path class="cls-151" d="M61.23,90.63H56L59.26,88Z"/>
        <path class="cls-197" d="M123.78,93.26c-2-.4-5,1.3-5.21-2.63h5.21Z"/>
        <path class="cls-99" d="M84.69,161.57v2.63l-2.61-2.63Z"/>
        <path class="cls-223" d="M89.9,158.94v-2.63h2.61Z"/>
        <path class="cls-152" d="M97.72,153.69H95.11l2.61-2.63Z"/>
        <path class="cls-152" d="M100.33,148.43l-2.61,2.63Z"/>
        <path class="cls-152" d="M102.93,145.81l-2.6,2.62Z"/>
        <path class="cls-226" d="M110.75,140.55l2.61-2.63Z"/>
        <ellipse class="cls-224" cx="114.66" cy="136.61" rx="1.84" ry="1.86"/>
        <ellipse class="cls-227" cx="119.87" cy="128.73" rx="1.84" ry="1.86"/>
        <path class="cls-89" d="M95.11,77.49l2.61,2.63Z"/>
        <path class="cls-198" d="M97.72,80.12l2.61,2.63Z"/>
        <path class="cls-197" d="M116,101.14l2.61,2.63Z"/>
        <path class="cls-197" d="M113.36,98.51H116v2.63Z"/>
        <path class="cls-228"
              d="M71.66,193.1c-3.9.22-2.22,3.26-2.61,5.25-2,.4-5-1.3-5.21,2.63-4.52-1.31-7.82-5.7-13-5.25H45.6l7.82-5.26c3.57-2.64,3.57-5.24,0-7.88v-5.26c2.23,0,4.16,4,6.91.16.71-1,4-.16,6.12-.16h2.6C72.89,182.09,71.45,187.73,71.66,193.1Z"/>
        <path class="cls-81" d="M43,174.71l-2.61,2.62Z"/>
        <path class="cls-229" d="M142,143.18v2.63L139.86,144Z"/>
        <path class="cls-152" d="M105.54,153.69v-2.63h2.6Z"/>
        <ellipse class="cls-163" cx="127.69" cy="131.35" rx="1.84" ry="1.86"/>
        <path class="cls-166" d="M126.39,130v2.63h-2.61Z"/>
        <path class="cls-230" d="M113.36,137.92h5.21v2.63L116,143.18c-.87.87-1.74,1.75-2.6,2.63h-2.61v-5.26Z"/>
        <path class="cls-231" d="M113.36,145.81c.86-.88,1.73-1.76,2.6-2.63v2.63Z"/>
        <ellipse class="cls-231" cx="112.05" cy="147.12" rx="1.84" ry="1.86"/>
        <path class="cls-232"
              d="M45.6,195.73h2.6v10.51c-1,3.69-3.33,5.35-7.2,5.38-1.08,0-2.15,1.62-3.22,2.5q-2.61-2.62-5.21-5.26l2.25-1.66c-3.51-2.23-1.91-5.79-2.25-8.85v-2.62Zm-7.82,9.68L39,208.77c1.76-.83,3.85-1.33,5.17-2.62a6,6,0,0,0,1.29-4.46c-.14-1.19-1.46-3-2.46-3.16-1.76-.27-4.43-1.33-5.16,1.76C37.54,201.5,37.78,202.85,37.78,205.41Z"/>
        <path class="cls-233" d="M53.42,182.59c3.57,2.64,3.57,5.24,0,7.88Z"/>
        <path class="cls-234"
              d="M134.2,46V59.1h-13V56.47a38.13,38.13,0,0,1,3.89-2.37c3.54,4.68,5.25-.11,6.33-1.75s.21-4.21.21-6.39Z"/>
        <path class="cls-234"
              d="M121.17,40.71h2.61l2.61,2.62c-1.91,4.32-7.32,7.21-5.22,13.14h-2.6c-1-2.58,2.41-6.65-2.61-7.88,1.08-.88,2.23-1.68,3.22-2.65a21.38,21.38,0,0,0,2-2.61Z"/>
        <path class="cls-235" d="M121.17,59.1h13v2.63H118.57Z"/>
        <path class="cls-236" d="M116,48.59c5,1.23,1.62,5.3,2.61,7.88C113.55,55.24,117,51.18,116,48.59Z"/>
        <path class="cls-237" d="M118.57,61.73,116,64.35Z"/>
        <path class="cls-237" d="M116,64.35,113.36,67Z"/>
        <path class="cls-238"
              d="M121.17,56.47c-2.1-5.93,3.31-8.82,5.22-13.14L131.6,46c0,2.18.78,4.87-.21,6.39s-2.79,6.43-6.33,1.75A38.13,38.13,0,0,0,121.17,56.47Z"/>
        <ellipse class="cls-239" cx="49.51" cy="200.98" rx="1.84" ry="7.43"/>
        <path class="cls-240" d="M61.23,216.75H56c1-4.15,3.78-5.68,7.82-5.26v2.63Z"/>
        <path class="cls-241" d="M66.45,208.86l-2.61,2.63Z"/>
        <path class="cls-135" d="M61.23,216.75l2.61-2.63Z"/>
        <path class="cls-1" d="M134.2,103.77c-.86-.88-1.73-1.76-2.6-2.63h2.6Z"/>
        <path class="cls-166" d="M126.39,127.41l2.6-2.62Z"/>
        <path class="cls-166" d="M129,124.79l2.61-2.63Z"/>
        <path class="cls-242"
              d="M139.42,51.22c6.65,4.91,6.85,5.74,2.6,10.51-.87-1-2.3-2-2.49-3.11A48,48,0,0,1,139.42,51.22Z"/>
        <path class="cls-222"
              d="M89.9,85.37h2.61a7.78,7.78,0,0,1-.06,2.56,9.9,9.9,0,0,1-1.7,2.24A12.67,12.67,0,0,1,89.93,88,15.85,15.85,0,0,1,89.9,85.37Z"/>
        <path class="cls-243" d="M108.14,151.06h-2.6l1.75-2.18Z"/>
        <path class="cls-244"
              d="M37.78,205.41c0-2.56-.24-3.91,0-5.12.73-3.09,3.4-2,5.16-1.76,1,.15,2.32,2,2.46,3.16a6,6,0,0,1-1.29,4.46c-1.32,1.29-3.41,1.79-5.17,2.62Z"/>
    </g>
</svg>