<svg id="Calque_1" data-name="Calque 1" xmlns="http://www.w3.org/2000/svg" viewBox="0 0 167.24 257.95">
    <defs>
        <style>
            .cls-1{fill:#fefefe;}.cls-2{fill:#0f1516;}.cls-3{fill:#0e1213;}.cls-4{fill:#101314;}.cls-5{fill:#101a1b;}.cls-6{fill:#abacaa;}.cls-7{fill:#e2ecdd;}.cls-8{fill:#aaadaa;}.cls-9{fill:#f8f9f8;}.cls-10{fill:#48b613;}.cls-11{fill:#44b406;}.cls-12{fill:#42b503;}.cls-13{fill:#54b964;}.cls-14{fill:#5bbc69;}.cls-15{fill:#59c241;}.cls-16{fill:#43b402;}.cls-17{fill:#42b404;}.cls-18{fill:#4cb712;}.cls-19{fill:#b1d2a0;}.cls-20{fill:#3eb55b;}.cls-21{fill:#40b10e;}.cls-22{fill:#26b742;}.cls-23{fill:#4ccc59;}.cls-24{fill:#68b934;}.cls-25{fill:#5bb51e;}.cls-26{fill:#3bb84d;}.cls-27{fill:#5bca56;}.cls-28{fill:#63ca2d;}.cls-29{fill:#60cb44;}.cls-30{fill:#5ccd64;}.cls-31{fill:#f2f4f1;}.cls-32{fill:#b8dca5;}.cls-33{fill:#7bd384;}.cls-34{fill:#72cb4b;}.cls-35{fill:#3eab20;}.cls-36{fill:#8cb468;}.cls-37{fill:#9ebd7c;}.cls-38{fill:#80c150;}.cls-39{fill:#7cbb55;}.cls-40{fill:#55d200;}.cls-41{fill:#c8e8b5;}.cls-42{fill:#aad58a;}.cls-43{fill:#71c67c;}.cls-44{fill:#22b23d;}.cls-45{fill:#3fb45a;}.cls-46{fill:#60c93a;}.cls-47{fill:#201f20;}.cls-48{fill:#4d4d4b;}.cls-49{fill:#363636;}.cls-50{fill:#ebf2ea;}.cls-51{fill:#7d7d7d;}.cls-52{fill:#41ab27;}.cls-53{fill:#0d0d0d;}.cls-54{fill:#070707;}.cls-55{fill:#c5e9b6;}.cls-56{fill:#66cc39;}.cls-57{fill:#6acc42;}.cls-58{fill:#4ec229;}.cls-59{fill:#66c62e;}.cls-60{fill:#65ce3f;}.cls-61{fill:#66d249;}.cls-62{fill:#65d546;}.cls-63{fill:#9dd6a0;}.cls-64{fill:#78ce7c;}.cls-65{fill:#59ce69;}.cls-66{fill:#64cf68;}.cls-67{fill:#80c989;}.cls-68{fill:#00af2c;}.cls-69{fill:#92dd99;}.cls-70{fill:#96dc9b;}.cls-71{fill:#15b13b;}.cls-72{fill:#48b618;}.cls-73{fill:#41ae0d;}.cls-74{fill:#45b508;}.cls-75{fill:#17ba00;}.cls-76{fill:#4ccf3b;}.cls-77{fill:#2daf16;}.cls-78{fill:#36b115;}.cls-79{fill:#05b600;}.cls-80{fill:#71ce46;}.cls-81{fill:#29af3b;}.cls-82{fill:#3bb61b;}.cls-83{fill:#84d64e;}.cls-84{fill:#6cd052;}.cls-85{fill:#67c26d;}.cls-86{fill:#09b221;}.cls-87{fill:#3baa22;}.cls-88{fill:#17b84a;}.cls-89{fill:#2dac37;}.cls-90{fill:#76ce83;}.cls-91{fill:#66cb4a;}.cls-92{fill:#1eb345;}.cls-93{fill:#00ab31;}.cls-94{fill:#16b337;}.cls-95{fill:#07b12f;}.cls-96{fill:#78d481;}.cls-97{fill:#30ab3e;}.cls-98{fill:#82da88;}.cls-99{fill:#3ca847;}.cls-100{fill:#48b414;}.cls-101{fill:#4eb618;}.cls-102{fill:#5baf13;}.cls-103{fill:#18b043;}.cls-104{fill:#13b307;}.cls-105{fill:#6cc960;}.cls-106{fill:#0cb111;}.cls-107{fill:#3dac36;}.cls-108{fill:#47b746;}.cls-109{fill:#46b40b;}.cls-110{fill:#2cb20b;}.cls-111{fill:#62cd62;}.cls-112{fill:#2cb02b;}.cls-113{fill:#34ad09;}.cls-114{fill:#52c34c;}.cls-115{fill:#35af1b;}.cls-116{fill:#2db759;}.cls-117{fill:#3db955;}.cls-118{fill:#2bae36;}.cls-119{fill:#36af4f;}.cls-120{fill:#f6f8f5;}.cls-121{fill:#48b60d;}.cls-122{fill:#4fb007;}.cls-123{fill:#5ec02f;}.cls-124{fill:#59ae04;}.cls-125{fill:#72b22b;}.cls-126{fill:#6bac2f;}.cls-127{fill:#eef3ee;}.cls-128{fill:#a6d9a8;}.cls-129{fill:#79c884;}.cls-130{fill:#29b14d;}.cls-131{fill:#5cbe70;}.cls-132{fill:#4cc744;}.cls-133{fill:#6cdb7c;}.cls-134{fill:#00b249;}.cls-135{fill:#92dc91;}.cls-136{fill:#66c673;}.cls-137{fill:#9ad2a0;}.cls-138{fill:#09b54a;}.cls-139{fill:#30b00e;}.cls-140{fill:#a4a4a4;}.cls-141{fill:#45b210;}.cls-142{fill:#65d042;}.cls-143{fill:#9fd6a4;}.cls-144{fill:#c4e3c4;}.cls-145{fill:#66ce6b;}.cls-146{fill:#56c755;}.cls-147{fill:#43b504;}.cls-148{fill:#6ccc3e;}.cls-149{fill:#6bce4f;}.cls-150{fill:#5dc93b;}.cls-151{fill:#19b02b;}.cls-152{fill:#4cb963;}.cls-153{fill:#8bcc92;}.cls-154{fill:#70c57b;}.cls-155{fill:#25a93b;}.cls-156{fill:#6dc178;}.cls-157{fill:#79c384;}.cls-158{fill:#76c03d;}.cls-159{fill:#79d544;}.cls-160{fill:#10af2f;}.cls-161{fill:#69d776;}.cls-162{fill:#6ad06a;}.cls-163{fill:#14b300;}.cls-164{fill:#61ce53;}.cls-165{fill:#26b233;}.cls-166{fill:#26b149;}.cls-167{fill:#16af2e;}.cls-168{fill:#4bc65b;}.cls-169{fill:#5bd977;}.cls-170{fill:#69c077;}.cls-171{fill:#55bd66;}.cls-172{fill:#36b743;}.cls-173{fill:#6dcb42;}.cls-174{fill:#414141;}.cls-175{fill:#2d2d2d;}.cls-176{fill:#44b32f;}.cls-177{fill:#373838;}.cls-178{fill:#4ca859;}.cls-179{fill:#46b303;}.cls-180{fill:#020202;}.cls-181{fill:#101010;}.cls-182{fill:#59a263;}.cls-183{fill:#2ab901;}.cls-184{fill:#30b501;}.cls-185{fill:#5dcb3c;}.cls-186{fill:#6ac703;}.cls-187{fill:#40b707;}.cls-188{fill:#effaef;}.cls-189{fill:#454045;}.cls-190{fill:#dfecdf;}.cls-191{fill:#322f33;}.cls-192{fill:#e7f3e6;}.cls-193{fill:#222423;}.cls-194{fill:#080808;}.cls-195{fill:#d3ead1;}.cls-196{fill:#72ce7e;}.cls-197{fill:#6acb63;}.cls-198{fill:#86d88d;}.cls-199{fill:#10b200;}.cls-200{fill:#4dca4b;}.cls-201{fill:#3fb357;}.cls-202{fill:#e1e1e1;}.cls-203{fill:#ccd4cc;}.cls-204{fill:#72c67a;}.cls-205{fill:#5cbb6a;}.cls-206{fill:#23b041;}.cls-207{fill:#3fb50b;}.cls-208{fill:#33b403;}.cls-209{fill:#43b403;}.cls-210{fill:#1cb210;}.cls-211{fill:#41b417;}.cls-212{fill:#2daf0c;}.cls-213{fill:#76cf53;}.cls-214{fill:#4ece5b;}.cls-215{fill:#53d057;}.cls-216{fill:#21af22;}.cls-217{fill:#55cb65;}.cls-218{fill:#6ed379;}.cls-219{fill:#b6e0b2;}.cls-220{fill:#93dc9d;}.cls-221{fill:#9add9f;}.cls-222{fill:#2daf50;}.cls-223{fill:#02b340;}.cls-224{fill:#1ab037;}.cls-225{fill:#7bd183;}.cls-226{fill:#04b237;}.cls-227{fill:#74d381;}.cls-228{fill:#08ae32;}.cls-229{fill:#4bba65;}.cls-230{fill:#63d374;}.cls-231{fill:#66e378;}.cls-232{fill:#16b029;}.cls-233{fill:#31b40c;}.cls-234{fill:#28af2f;}.cls-235{fill:#75da7b;}.cls-236{fill:#71de70;}.cls-237{fill:#68cc54;}.cls-238{fill:#6ee35a;}.cls-239{fill:#01b500;}.cls-240{fill:#1e1f1d;}.cls-241{fill:#242222;}.cls-242{fill:#2b2929;}.cls-243{fill:#1b191b;}.cls-244{fill:#282828;}.cls-245{fill:#303030;}.cls-246{fill:#1c1c1c;}.cls-247{fill:#110f11;}.cls-248{fill:#120a12;}.cls-249{fill:#0b060b;}.cls-250{fill:#2c272a;}.cls-251{fill:#3a2d34;}.cls-252{fill:#0e080d;}.cls-253{fill:#02b339;}.cls-254{fill:#52cc43;}.cls-255{fill:#45c144;}.cls-256{fill:#64df57;}.cls-257{fill:#51c740;}.cls-258{fill:#00b311;}.cls-259{fill:#5ad364;}.cls-260{fill:#61d563;}.cls-261{fill:#1d1a1f;}.cls-262{fill:#1b1617;}.cls-263{fill:#111211;}.cls-264{fill:#0d0b0c;}.cls-265{fill:#404040;}.cls-266{fill:#4c4c4c;}.cls-267{fill:#3a3a3a;}.cls-268{fill:#090709;}
        </style>
    </defs>
    <g id="_9RMk3u.tif" data-name="9RMk3u.tif">
        <ellipse cx="1.57" cy="130.25" rx="1.87" ry="172.96"/>
        <path d="M167,7.94V252.55h-2.65v-242Z"/>
        <path class="cls-1"
              d="M.25,5.31C1.34,3.66-2.33,0,2.89,0Q83.62.14,164.35,0c5.22,0,1.56,3.66,2.65,5.31l-5.3-2.63H5.54Z"/>
        <ellipse cx="83.62" cy="256.5" rx="110.42" ry="1.86"/>
        <path class="cls-2" d="M161.7,2.68,167,5.31V7.94l-2.65,2.63c-4-.22-2.25-3.26-2.65-5.26Z"/>
        <path class="cls-3" d="M5.54,255.18v2.63H2.89L.25,255.18v-2.63H5.54Z"/>
        <path class="cls-4" d="M161.7,257.81v-5.26H167v2.63l-2.65,2.63Z"/>
        <path class="cls-5" d="M.25,5.31,5.54,2.68V7.94H.25Z"/>
        <path class="cls-1" d="M.25,255.18l2.64,2.63C.61,258.32-.27,257.45.25,255.18Z"/>
        <path class="cls-1" d="M164.35,257.81l2.65-2.63C167.51,257.45,166.63,258.32,164.35,257.81Z"/>
        <ellipse class="cls-6" cx="4.22" cy="130.25" rx="1.87" ry="172.96"/>
        <path class="cls-7"
              d="M5.54,252.55V5.31H161.7c.4,2-1.31,5,2.65,5.26v242h-7.94v-2.63c.88-.68,2.53-1.36,2.53-2,.16-12.6.12-25.21.11-37.81a2.52,2.52,0,0,0-.3-1.18,5.25,5.25,0,0,0-.9-.93l-1.44,1.79-2.65,3.36v-7.89l4.87-3.52L156.41,200v-2.63c.88-.69,2.53-1.38,2.54-2.08q.2-30.8,0-61.6c0-.7-1.66-1.39-2.54-2.08V15.83l-2.65-2.63H77a47.41,47.41,0,0,0-7.45.12c-1.15.19-2.1,1.64-3.13,2.51H58.48c-2.63-4.45-6.2-5.18-10.59-2.63H13.48c-2.29.23-5.39-1.16-5.33,3.24.13,9.44,0,18.88,0,28.33V252.55Z"/>
        <ellipse cx="83.62" cy="4" rx="110.42" ry="1.86"/>
        <path class="cls-8" d="M156.41,252.55h5.29v2.63H5.54v-2.63H156.41Z"/>
        <path class="cls-9"
              d="M58.48,15.83H77l10.59,7.89c.4,2-1.31,5,2.65,5.26v7.9c-.88,1-2.34,2-2.53,3.11a46.88,46.88,0,0,0-.12,7.41L82.3,52.66H79.65c-7.22,0-9.79,5.81-13.23,10.52-2,.39-5.07-1.31-5.3,2.63H55.83c0-3.36-.06-6.72,0-10.08.1-4.29-3.1-2.79-5.3-3.07l2.64-7.89V36.88l-2.64-2.63c-1.87-6.24-9.32.51-11.54-4.9a15.11,15.11,0,0,0-1.67,2.47c-.9,2.16-3,5.25-2.21,6.44,2.86,4.42,4.71-1.91,7.32-1.3,1.91.45,3.64,1.67,5.45,2.55.32,3.8-.14,7.41-2.65,10.52v2.63L42.6,55.29l-5.3,2.63-2.64,3.34c.92.64,1.83,1.79,2.78,1.83,4.36.2,8.73.09,13.1.09v2.63c0,3.53-2.77,2.25-4.64,2.66-2.13.48-5.52-1.74-5.95,2.6V73.7L21.42,71.07l-2.65-2.63-2.64-2.63-2.65-2.63-2.65-5.26V44.77l2.65-2.63,2.65-7.89,10.58-7.9c2.68-1.75,5.24-4.72,8.06-5,5.18-.49,8.55-4.24,13.12-5.53Zm4.91,37.76-.94-.93a7.83,7.83,0,0,0-.83,1.76c0,.22.53.57.83.87Z"/>
        <path class="cls-10"
              d="M26.71,26.35l-10.58,7.9c-.73.28-1.45.59-2.19.85s-1.8.58-2.7.87C11.1,28.29,9,20.43,13.48,13.2H29.36Q28,19.79,26.71,26.35Z"/>
        <path class="cls-11"
              d="M87.59,23.72,77,15.83V13.2h34.41l-7.94,5.26c-.88.61-2.23,1-2.56,1.85-1.1,2.82-1.85,5.77-2.73,8.67H90.24C89.84,27,91.55,24,87.59,23.72Z"/>
        <path class="cls-12"
              d="M103.47,18.46l7.94-5.26h7.94c.4,2-1.31,5,2.65,5.26V29l-2.65,2.63c-2,.4-5.06-1.3-5.29,2.64h-2.65l-2.64-2.64c-.23-3.93-3.29-2.23-5.3-2.63Z"/>
        <path class="cls-13"
              d="M156.41,113.15v5.26c-3,1.39-5.62,3.32-9.4,2.76s-7.84-.13-11.77-.13V105.26h10.58l2.65,2.63c.4,2-1.31,5,2.65,5.26Z"/>
        <path class="cls-14"
              d="M156.41,123.67v21c-.88-1.08-2.59-2.23-2.51-3.24.6-7.47-3.42-2-5.43-2-.23-3.93-3.29-2.23-5.29-2.63-.89-.87-1.77-1.75-2.65-2.63l-2.65-2.63v-2.63l-2.64-5.26Z"/>
        <path class="cls-15"
              d="M8.19,249.92V171h5.29v2.63l-2.65,2.63a95,95,0,0,0,.13,10c.11,1.13,1.64,2.11,2.52,3.16v2.63L10.83,200v2.63c1,2.59-2.45,6.66,2.65,7.89h2.65v2.63c-2.2.28-5.4-1.21-5.31,3.07.07,3.36,0,6.72,0,10.08l2.65,2.63C10,232.75,10.9,237.49,10.83,242v7.89Z"/>
        <path class="cls-16"
              d="M122,13.2h18.53c-.17,4.12.39,8.47-.84,12.25-.58,1.76-4.63,2.39-7.1,3.53-2-.39-5.07,1.31-5.29-2.63L122,18.46Z"/>
        <path class="cls-17"
              d="M143.18,13.2h10.58l2.65,2.63V26.35c-.88.88-1.76,1.76-2.65,2.63-.22,3.94-3.28,2.24-5.29,2.63-5.26-4.52-5.26-4.52-5.29-11.9C143.17,17.54,143.18,15.37,143.18,13.2Zm8.3,6.82c-1-.68-1.75-1.53-2.36-1.47a13.79,13.79,0,0,0-3.3,1.23c.67.44,1.35,1.25,2,1.23A16.08,16.08,0,0,0,151.48,20Z"/>
        <path class="cls-18"
              d="M156.41,34.25v21h-7.94c-.4-2,1.31-5-2.65-5.26V44.77c.89-1.12,2.39-2.15,2.55-3.36C149.25,34.49,149.14,34.48,156.41,34.25Z"/>
        <path class="cls-19"
              d="M156.41,144.71V131.56c.88.69,2.53,1.38,2.54,2.08q.2,30.8,0,61.6c0,.7-1.66,1.39-2.54,2.08V144.71Z"/>
        <path class="cls-20"
              d="M10.83,171H8.19V123.67h2.64c.17,6.59-1.46,13.69,5.3,18.41v2.63c-3.55-.48-5.64.18-5.43,4.62.19,3.89-.09,7.25,5.43,5.9v2.63C8.59,160,11.37,166.15,10.83,171Z"/>
        <path class="cls-21"
              d="M148.47,55.29h7.94V68.44c-2.09,0-4.19,0-6.28,0-5.44.07-7.11-3.11-6.95-7.89,4-.23,2.24-3.27,2.64-5.26Z"/>
        <path class="cls-22"
              d="M156.41,113.15h-5.29c-.4-2,1.31-5-2.65-5.26V100c1.76-2.19,3.53-4.38,5.29-6.58-4.77-2.19.3-4.38,0-6.57h2.65Zm-3-9.58-.94-.94a8.37,8.37,0,0,0-.83,1.77c-.05.21.54.57.83.86Z"/>
        <path class="cls-23"
              d="M10.83,123.67H8.19V84.22h5.29a7.79,7.79,0,0,1-.89,2.15c-3.4,4.06-2,8.65-.83,12.84.24.83,4.57.55,7,.79h2.65v2.63H16.13c-1.88.38-4.91-1.25-5.2,2a82,82,0,0,0,0,13c.09,1.17,1.65,2.24,2.53,3.36Z"/>
        <path class="cls-24"
              d="M26.71,26.35Q28,19.78,29.36,13.2H47.89v2.63c-4.57,1.29-7.94,5-13.12,5.53C32,21.63,29.39,24.6,26.71,26.35Z"/>
        <path class="cls-19"
              d="M153.76,213.1l2.65-3.36,1.44-1.79a5.25,5.25,0,0,1,.9.93,2.52,2.52,0,0,1,.3,1.18c0,12.6,0,25.21-.11,37.81,0,.69-1.65,1.37-2.53,2v-21a46.88,46.88,0,0,0-.12-7.41c-.19-1.14-1.64-2.08-2.53-3.11Z"/>
        <path class="cls-25"
              d="M13.48,13.2C9,20.43,11.1,28.29,11.24,36c.9-.29,1.81-.56,2.7-.87s1.46-.57,2.19-.85l-2.65,7.89-2.65,2.63H8.19c0-9.45.09-18.89,0-28.33C8.09,12,11.19,13.43,13.48,13.2Z"/>
        <path class="cls-26"
              d="M10.83,84.22H8.19V68.44l5.29-2.63,2.65,2.63h2.64c.4,2-1.31,5,2.65,5.26v7.89L16.13,79c-.83-2.59,2.16-7.26-2-7.62-6.27-.56-2.2,5-3.22,7.66a7.71,7.71,0,0,0-.05,2.59Z"/>
        <path class="cls-27"
              d="M156.41,194.69V200h-2.65l-2.64-2.63-2.65-2.63h-2.65v-2.63c1.31,0,3.25.52,3.79-.12a6,6,0,0,0,1.38-4.47c-.64-2.88,2.6-7-2.52-8.56v-2.63h7.94v2.63A12.5,12.5,0,0,0,156.41,194.69Z"/>
        <path class="cls-28"
              d="M143.18,13.2c0,2.17,0,4.34,0,6.51,0,7.38,0,7.38,5.29,11.9h-2.65C143.92,31,142,30,140.12,30c-2.52.08-5,1-7.53,1.6V29c2.47-1.14,6.52-1.77,7.1-3.53,1.23-3.78.67-8.13.84-12.25Z"/>
        <path class="cls-29"
              d="M143.18,60.55c-.16,4.78,1.51,8,6.95,7.89,2.09,0,4.19,0,6.28,0v2.63h-2.65c-2,.39-5.06-1.31-5.29,2.63h-2.65c-2.1-7.49-8.33-4.72-13.23-5.26V65.81c7.45,0,7.45,0,7.94-5.26Z"/>
        <path class="cls-30"
              d="M156.41,86.85h-7.94c-7.45,0-7.45,0-7.94,5.26v2.63c-4-.22-2.25-3.27-2.65-5.26V84.22a44,44,0,0,1,6.29,0c4.68.68,4.48-2.26,4.3-5.31h2.65q-1.22,6.45,5.29,5.26Z"/>
        <path class="cls-31"
              d="M151.12,197.32l2.64,2.63v18.41L151.12,221c0-5.21.29-10.45-.12-15.63-.22-2.73-1.65-5.37-2.53-8Z"/>
        <ellipse class="cls-32" cx="143.18" cy="251.24" rx="18.72" ry="1.86"/>
        <path class="cls-33" d="M156.41,123.67H135.24V121c3.93,0,7.92-.44,11.77.13s6.42-1.37,9.4-2.76Z"/>
        <path class="cls-34"
              d="M145.82,31.61h2.65c2-.39,5.07,1.31,5.29-2.63h2.65v5.27c-7.27.23-7.16.24-8,7.16-.16,1.21-1.66,2.24-2.55,3.36Z"/>
        <path class="cls-35" d="M156.41,84.22q-6.49,1.2-5.29-5.26c5.1-1.23,1.64-5.3,2.64-7.89h2.65Z"/>
        <path class="cls-36" d="M13.48,65.81,8.19,68.44V57.92h2.64l2.65,5.26Z"/>
        <ellipse class="cls-37" cx="9.51" cy="51.34" rx="1.87" ry="9.3"/>
        <path class="cls-38" d="M47.89,15.83V13.2c4.39-2.55,8-1.82,10.59,2.63Z"/>
        <path class="cls-39" d="M77,13.2v2.63H66.42c1-.87,2-2.32,3.13-2.51A47.41,47.41,0,0,1,77,13.2Z"/>
        <path class="cls-19" d="M153.76,205.21V200h2.65l2.22,1.74Z"/>
        <path class="cls-40" d="M122,13.2v5.26c-4-.22-2.25-3.26-2.65-5.26Z"/>
        <ellipse class="cls-41" cx="9.51" cy="251.24" rx="1.87" ry="1.86"/>
        <path class="cls-18" d="M156.41,29h-2.65c.89-.87,1.77-1.75,2.65-2.63Z"/>
        <path class="cls-28" d="M156.41,15.83l-2.65-2.63Z"/>
        <path class="cls-42"
              d="M10.83,252.55v-2.63H90.24c2-.4,5.07,1.31,5.29-2.63h13.24c1,.88,2,2.33,3.13,2.51a47.41,47.41,0,0,0,7.45.12h10.59v2.63Z"/>
        <path class="cls-43"
              d="M40,73.7V71.07c3.39,0,6.78-.06,10.16,0,4.6.1,8.46-1.22,11-5.27h5.3l5.29,7.89q1.2,6.45-5.29,5.26c-6-2.13-8.89,3.33-13.24,5.26H50.54l2.64-7.89c-1-.88-2-2.4-3.17-2.51A99.16,99.16,0,0,0,40,73.7Z"/>
        <path class="cls-44"
              d="M82.3,52.66l5.29-5.26c.16,1.61.14,3,2.55,1.55,1.53-1,3.58-1.06,5.39-1.55.6,1.9,1.27,3.79,1.76,5.72.41,1.57.6,3.2.89,4.8v2.63l-2.65,2.63H90.24c-7.84-.26-7.85-.26-7.94-8C82.29,54.34,82.3,53.5,82.3,52.66Z"/>
        <path class="cls-45"
              d="M82.3,52.66c0,.84,0,1.68,0,2.52.09,7.74.1,7.74,7.94,8v2.63c-2.61,1-6.7-2.44-7.94,2.63a34,34,0,0,0-5.65,1.76,37.57,37.57,0,0,0-4.94,3.5l-5.29-7.89V63.18a55.71,55.71,0,0,1,9.2.8c3.34.21,2.89-.69,2.36-.73a45.1,45.1,0,0,0-6.26,0,10.3,10.3,0,0,0,0,2.39,13.63,13.63,0,0,0,.71,2.19c2.35-1,4.69-2,3.17-3.88-1.26-4.31,1.38-7.82,4-11.32Z"/>
        <path class="cls-26"
              d="M40,73.7A99.16,99.16,0,0,1,50,73.82c1.13.11,2.12,1.63,3.17,2.51a47.41,47.41,0,0,0-7.45.12c-1.15.18-2.1,1.63-3.13,2.51l-2.2.86,2.2,1.77c.22,3.93,3.28,2.23,5.29,2.63v2.63H37.3c-1-9.49-8.44-11.33-15.88-13.15V71.07Z"/>
        <path class="cls-46"
              d="M95.53,47.4c-1.81.49-3.86.6-5.39,1.55-2.41,1.49-2.39.06-2.55-1.55A46.88,46.88,0,0,1,87.71,40c.19-1.15,1.65-2.08,2.53-3.11,0,1.68-.07,3.37,0,5A9.92,9.92,0,0,0,91,44.16c.65-.59,1.94-1.36,1.83-1.75-1-3.57,2.83-8.3-2.54-10.8V29h7.94v2.63c-.88,1.07-2.44,2.08-2.53,3.19C95.35,39,95.53,43.2,95.53,47.4Z"/>
        <path class="cls-47"
              d="M50.54,63.18c-4.37,0-8.74.11-13.1-.09-.95,0-1.86-1.19-2.78-1.83l2.64-3.34c1.11.87,2.33,2.6,3.3,2.47,3.2-.42,1.64-3.24,2-5.1h2.64l2,2.63,3.3-2.63C54.16,57.93,54.16,60.53,50.54,63.18Z"/>
        <path class="cls-48"
              d="M47.89,39.51c-1.81-.88-3.54-2.1-5.45-2.55-2.61-.61-4.46,5.72-7.32,1.3-.77-1.19,1.31-4.28,2.21-6.44A15.11,15.11,0,0,1,39,29.35c2.22,5.41,9.67-1.34,11.54,4.9C46.58,34.47,48.29,37.51,47.89,39.51Z"/>
        <path class="cls-49"
              d="M47.89,39.51c.4-2-1.31-5,2.65-5.26l2.64,2.63c-3.62,2.64-3.62,5.24,0,7.89l-2.64,7.89H47.89L45.24,50C47.75,46.92,48.21,43.31,47.89,39.51Z"/>
        <path class="cls-50"
              d="M61.12,65.81c-2.55,4-6.41,5.37-11,5.27-3.38-.07-6.77,0-10.16,0,.43-4.34,3.82-2.12,5.95-2.6,1.87-.41,4.61.87,4.64-2.66H61.12Z"/>
        <path class="cls-50" d="M79.65,52.66q-4,5.25-7.94,10.52H66.42C69.86,58.47,72.43,52.68,79.65,52.66Z"/>
        <path class="cls-51"
              d="M55.83,65.81H50.54V63.18c3.62-2.65,3.62-5.25,0-7.89V52.66c2.2.28,5.4-1.22,5.3,3.07C55.77,59.09,55.83,62.45,55.83,65.81Z"/>
        <path class="cls-52"
              d="M90.24,31.61c5.37,2.5,1.58,7.23,2.54,10.8.11.39-1.18,1.16-1.83,1.75a9.92,9.92,0,0,1-.68-2.24c-.1-1.67,0-3.36,0-5Z"/>
        <path class="cls-53" d="M42.6,55.29c-.36,1.86,1.2,4.68-2,5.1-1,.13-2.19-1.6-3.3-2.47Z"/>
        <path class="cls-53" d="M53.18,44.77c-3.62-2.65-3.62-5.25,0-7.89Z"/>
        <path class="cls-46" d="M87.59,23.72c4,.23,2.25,3.27,2.65,5.26C86.28,28.76,88,25.72,87.59,23.72Z"/>
        <ellipse class="cls-54" cx="45.24" cy="53.97" rx="3.02" ry="1.15"
                 transform="translate(-21.53 31.59) rotate(-31.5)"/>
        <path class="cls-50" d="M66.42,63.18v2.63h-5.3C61.35,61.87,64.41,63.57,66.42,63.18Z"/>
        <path class="cls-36" d="M21.42,71.07V73.7c-4-.23-2.25-3.27-2.65-5.26Z"/>
        <path class="cls-55" d="M18.77,68.44H16.13V65.81Z"/>
        <path class="cls-55" d="M13.48,65.81V63.18l2.65,2.63Z"/>
        <path class="cls-50" d="M63.39,53.59l-.94,1.7c-.3-.3-.88-.65-.83-.87a7.83,7.83,0,0,1,.83-1.76Z"/>
        <path class="cls-54" d="M47.89,52.66H45.24V50Z"/>
        <path class="cls-37" d="M10.83,44.77l2.65-2.63Z"/>
        <path class="cls-56"
              d="M103.47,18.46V29H98.18c.88-2.9,1.63-5.85,2.73-8.67C101.24,19.49,102.59,19.07,103.47,18.46Z"/>
        <path class="cls-57"
              d="M132.59,29v2.63c-.88,1.07-2.47,2.11-2.53,3.22-.27,5.05-.12,10.13-.12,15.2h-5.29c2.71-3.45,2.84-7.43,2.69-11.59-.23-6.48-.1-6.48-8-6.83L122,29l5.3-2.63C127.52,30.29,130.58,28.59,132.59,29Z"/>
        <path class="cls-58" d="M98.18,29h5.29c2,.4,5.07-1.3,5.3,2.63v2.64h-2.65c-1.24-5.07-5.34-1.63-7.94-2.64Z"/>
        <path class="cls-59" d="M127.3,26.35,122,29V18.46Z"/>
        <path class="cls-60" d="M114.06,34.25c.23-3.94,3.29-2.24,5.29-2.64C119.13,35.55,116.07,33.85,114.06,34.25Z"/>
        <ellipse class="cls-61" cx="112.74" cy="35.56" rx="1.87" ry="1.86"/>
        <path class="cls-62" d="M108.77,34.25V31.61l2.64,2.64Z"/>
        <path class="cls-63"
              d="M135.24,121v2.63l-7.94,5.26a42,42,0,0,1-3.27-2.65,21.67,21.67,0,0,1-2-2.61c0-3.91-.34-7.86.1-11.72.45-4,1.67-8,2.55-12,3.12,2.49,6.76,3,10.59,2.63V121Z"/>
        <path class="cls-64"
              d="M135.24,105.26v-2.63c.39-2-1.32-5,2.64-5.26V100c.23,3.93,3.29,2.23,5.3,2.63h2.64v2.63Z"/>
        <path class="cls-65" d="M145.82,105.26v-2.63l2.65-2.63v7.89Z"/>
        <path class="cls-66" d="M148.47,107.89c4,.23,2.25,3.27,2.65,5.26C147.16,112.93,148.87,109.88,148.47,107.89Z"/>
        <path class="cls-67"
              d="M127.3,128.93l7.94-5.26,2.64,5.26-2.19.87,2.19,1.76,2.65,2.63c.88.88,1.76,1.76,2.65,2.63,2,.4,5.06-1.3,5.29,2.63-.62.71-9.18,4.83-10.44,5.31-1,.39-2.62,1.13-2.68,1.82-.75,8.35-4-1.87-5.41.76-.88-2.67-2.18-5.28-2.54-8C127,135.91,127.3,132.4,127.3,128.93Z"/>
        <path class="cls-68"
              d="M156.41,144.71V150l-3.87,5.16c-1.36-2.3-3.3-4.45-3.91-6.94-.69-2.76-.16-5.81-.16-8.74,2,0,6-5.45,5.43,2C153.82,142.48,155.53,143.63,156.41,144.71Z"/>
        <path class="cls-69" d="M143.18,136.82c-.89-.87-1.77-1.75-2.65-2.63C141.41,135.07,142.29,136,143.18,136.82Z"/>
        <path class="cls-69" d="M140.53,134.19l-2.65-2.63Z"/>
        <path class="cls-70" d="M137.88,131.56l-2.19-1.76,2.19-.87Z"/>
        <path class="cls-71"
              d="M10.83,171c.54-4.87-2.24-11.07,5.3-13.16l10.58,7.89v2.64L24.07,171H21.42l-.87-2.19L18.77,171H10.83Z"/>
        <path class="cls-72"
              d="M10.83,242c.07-4.54-.83-9.28,2.65-13.15l13.23,2.63-2.64,5.26c-4,.22-2.25,3.27-2.65,5.26H18.77c-4.33-.41-2-3.81-2.67-5.85a10.17,10.17,0,0,0-1.3-2,10.11,10.11,0,0,0-1.29,2C12.81,238.22,15.17,241.62,10.83,242Z"/>
        <path class="cls-73"
              d="M16.13,210.47H13.48c.88-1.76,1.77-3.51,2.65-5.26v-2.63l2.64-2-2.64-3.27v-5.26l7.94,5.26c0,8.3,0,8.3-5.3,13.15Z"/>
        <path class="cls-74"
              d="M10.83,226.25c0-3.36.06-6.72,0-10.08-.09-4.28,3.11-2.79,5.31-3.07v5.26c4.06,6.83,3.9,7.29-2.65,7.89Z"/>
        <path class="cls-75"
              d="M10.83,242c4.34-.41,2-3.81,2.68-5.85a10.11,10.11,0,0,1,1.29-2,10.17,10.17,0,0,1,1.3,2c.69,2-1.66,5.44,2.67,5.85l-5.29,5.26-2.65-2.63Z"/>
        <path class="cls-76" d="M13.48,192.06V176.28h2.65v15.78Z"/>
        <path class="cls-77" d="M13.48,176.28v13.15c-.88-1.05-2.41-2-2.52-3.16a95,95,0,0,1-.13-10Z"/>
        <path class="cls-78" d="M13.48,192.06h2.65v5.26L10.83,200Z"/>
        <path class="cls-79" d="M10.83,200l5.3-2.63v7.89l-5.3-2.63Z"/>
        <path class="cls-78"
              d="M10.83,202.58l5.3,2.63c-.88,1.75-1.77,3.5-2.65,5.26C8.38,209.24,11.84,205.17,10.83,202.58Z"/>
        <path class="cls-80" d="M16.13,218.36v-7.89h2.64v7.89Z"/>
        <path class="cls-81" d="M13.48,171h5.29c-.22,3.93-3.28,2.23-5.29,2.63Z"/>
        <path class="cls-72" d="M10.83,244.66l2.65,2.63v2.63H10.83Z"/>
        <path class="cls-72" d="M10.83,226.25h2.65v2.63Z"/>
        <path class="cls-81" d="M13.48,176.28H10.83l2.65-2.63Z"/>
        <path class="cls-82"
              d="M151.48,20a16.08,16.08,0,0,1-3.65,1c-.66,0-1.34-.79-2-1.23a13.79,13.79,0,0,1,3.3-1.23C149.73,18.49,150.45,19.34,151.48,20Z"/>
        <path class="cls-83" d="M145.82,44.77V50h-2.64C143.57,48,141.86,45,145.82,44.77Z"/>
        <path class="cls-84" d="M148.47,55.29h-2.65V50C149.78,50.25,148.07,53.29,148.47,55.29Z"/>
        <path class="cls-85"
              d="M148.47,139.45c0,2.93-.53,6,.16,8.74.61,2.49,2.55,4.64,3.91,6.94l3.87-5.16v10.52c-7.22-3.94-8.93-3.09-10.59,5.26l-18.52-7.89c-.32-3.8.13-7.41,2.64-10.52,1.42-2.63,4.66,7.59,5.41-.76.06-.69,1.66-1.43,2.68-1.82C139.29,144.28,147.85,140.16,148.47,139.45Z"/>
        <path class="cls-86"
              d="M145.82,165.75c1.66-8.35,3.37-9.2,10.59-5.26v15.79h-5.29c-.68-.88-1.36-2.52-2-2.51-4.44.06-3-3.1-3.28-5.38Z"/>
        <path class="cls-87" d="M156.41,194.69a12.5,12.5,0,0,1,0-15.78Z"/>
        <path class="cls-88"
              d="M10.83,123.67,13.48,121h2.65c0,2.09-.79,5.41.16,6,2.13,1.34,5.13,1.34,7.78,1.88v2.63c-7.34,1.09-7.82,1.73-7.94,10.52C9.37,137.36,11,130.26,10.83,123.67Z"/>
        <path class="cls-89" d="M16.13,155.23c-5.52,1.35-5.24-2-5.43-5.9-.21-4.44,1.88-5.1,5.43-4.62l2.64,7.89Z"/>
        <path class="cls-81"
              d="M26.71,165.75l-10.58-7.89v-2.63A35.67,35.67,0,0,1,21.78,157a37.67,37.67,0,0,1,4.93,3.49Z"/>
        <path class="cls-90" d="M18.77,152.6l-2.64-7.89v-2.63h2.64c5,.62,1.43,4.89,3,7,.66.86,1.2,1.81,1.79,2.72Z"/>
        <path class="cls-91" d="M145.82,55.29c-.4,2,1.32,5-2.64,5.26V55.29Z"/>
        <path class="cls-92"
              d="M148.47,100l-2.65,2.63h-2.64c-.23-3.93-3.29-2.23-5.3-2.63V97.37l2.65-2.63V92.11c7.45,0,7.45,0,7.94-5.26h5.29c.3,2.19-4.77,4.38,0,6.57C152,95.62,150.23,97.81,148.47,100Z"/>
        <path class="cls-93"
              d="M153.38,103.57c-.3.55-.62,1.12-.94,1.69-.29-.29-.88-.65-.83-.86a8.37,8.37,0,0,1,.83-1.77Z"/>
        <path class="cls-94"
              d="M18.77,100c-2.44-.24-6.77,0-7-.79-1.15-4.19-2.57-8.78.83-12.84a7.79,7.79,0,0,0,.89-2.15h5.29l2.65,5.26-2.65,7.89Z"/>
        <path class="cls-95"
              d="M13.48,121c-.88-1.12-2.44-2.19-2.53-3.36a82,82,0,0,1,0-13c.29-3.28,3.32-1.65,5.2-2v15.78Z"/>
        <path class="cls-96"
              d="M13.48,121l2.65-2.63c.88-1.06,2.44-2.07,2.52-3.19.31-4.18.12-8.39.12-12.59h2.65C22,108.82,19.7,115.4,24.07,121H13.48Z"/>
        <path class="cls-97" d="M18.77,102.63c0,4.2.19,8.41-.12,12.59-.08,1.12-1.64,2.13-2.52,3.19V102.63Z"/>
        <path class="cls-98" d="M21.42,102.63V100l2.65-2.63L29.36,100v2.63Z"/>
        <path class="cls-99" d="M24.07,97.37,21.42,100H18.77V97.37l5.3-2.63Z"/>
        <ellipse class="cls-94" cx="12.16" cy="82.9" rx="1.87" ry="1.86"/>
        <path class="cls-100"
              d="M129.94,249.92H119.35v-2.63c2-.4,5.07,1.31,5.3-2.63l7.94-2.63c5.85-.08,12.11,1,15.88-5.26h2.65a21.63,21.63,0,0,1,2.62,2c1,1,1.79,2.16,2.67,3.25v2.63c-5.29,4.06-11.45,2.78-17.3,2.41C134.64,246.79,134.62,246.21,129.94,249.92Z"/>
        <path class="cls-101"
              d="M156.41,242c-.88-1.09-1.69-2.25-2.67-3.25a21.63,21.63,0,0,0-2.62-2l-.87-2.18-1.78,2.18c-3.77,6.29-10,5.18-15.88,5.26l10.59-10.52,2.64-2.63,5.3-5.26a21.63,21.63,0,0,1,2.62,2c1,1,1.79,2.16,2.67,3.25Z"/>
        <path class="cls-101" d="M129.94,249.92c4.68-3.71,4.7-3.13,9.17-2.85,5.85.37,12,1.65,17.3-2.41v5.26Z"/>
        <path class="cls-102"
              d="M156.41,228.88c-.88-1.09-1.69-2.25-2.67-3.25a21.63,21.63,0,0,0-2.62-2V221l2.64-2.63c.89,1,2.34,2,2.53,3.11A46.88,46.88,0,0,1,156.41,228.88Z"/>
        <path class="cls-103"
              d="M21.42,73.7c7.44,1.82,14.87,3.66,15.88,13.15H34.66c-2,.4-5.07-1.31-5.3,2.63-1.76-2-3.48-4-5.31-5.92a19.81,19.81,0,0,0-2.63-2Z"/>
        <path class="cls-104"
              d="M13.48,81.59H10.83A7.71,7.71,0,0,1,10.88,79c1-2.66-3.05-8.22,3.22-7.66,4.19.36,1.2,5,2,7.62Z"/>
        <path class="cls-105" d="M13.48,81.59,16.13,79l5.29,2.63-2.65,2.63H13.48Z"/>
        <path class="cls-36" d="M13.48,65.81h2.65v2.63Z"/>
        <path class="cls-106"
              d="M148.47,176.28v2.63a43.28,43.28,0,0,0,.05,6.24c.69,4.65-2.28,4.45-5.34,4.28q-4.29-5.27,0-10.52Z"/>
        <path class="cls-107"
              d="M143.18,189.43c3.06.17,6,.37,5.34-4.28a43.28,43.28,0,0,1-.05-6.24c5.12,1.54,1.88,5.68,2.52,8.56a6,6,0,0,1-1.38,4.47c-.54.64-2.48.12-3.79.12h-5.29v-2.63Z"/>
        <path class="cls-108"
              d="M148.47,176.28l-5.29,2.63-2.65-2.63v-2.63c4-.23,2.25-3.27,2.65-5.26h2.64c.23,2.28-1.16,5.44,3.28,5.38.66,0,1.34,1.63,2,2.51Z"/>
        <path class="cls-31" d="M143.18,192.06h2.64v2.63Z"/>
        <path class="cls-31" d="M145.82,194.69h2.65v2.63C147.59,196.44,146.71,195.56,145.82,194.69Z"/>
        <path class="cls-19" d="M148.47,197.32v-2.63l2.65,2.63Z"/>
        <path class="cls-109"
              d="M145.82,44.77c-4,.22-2.25,3.26-2.64,5.26H129.94c0-5.07-.15-10.15.12-15.2.06-1.11,1.65-2.15,2.53-3.22,2.51-.57,5-1.52,7.53-1.6,1.88-.05,3.8,1,5.7,1.6Z"/>
        <path class="cls-110"
              d="M129.94,50h10.59c.4,2-1.31,5,2.65,5.26v2.63l-2.65,2.63c-.49,5.26-.49,5.26-7.94,5.26l-2.65-2.63-2.64-2.63V55.29l-2.65-2.63V50Zm8.05,9c-.33-3.44,1.1-6.77-3.37-6.38-1.88.17-5.13-.84-4.47,2.48.41,2,2.74,3.83,4.58,5.25C135.24,60.79,137.1,59.45,138,59.05Z"/>
        <path class="cls-111"
              d="M127.3,55.29v5.26l2.64,2.63,2.65,2.63V73.7h-2.65c-.55-5.89-2-7.34-7.94-7.89V63.18c5.1-1.24,1.64-5.3,2.65-7.89Z"/>
        <path class="cls-112"
              d="M132.59,73.7V68.44c4.9.54,11.13-2.23,13.23,5.26-2.14,0-5.49.85-6.21-.15C136.81,69.64,134.86,73.66,132.59,73.7Z"/>
        <path class="cls-113"
              d="M153.76,71.07c-1,2.59,2.46,6.66-2.64,7.89l-2.65-5.26C148.7,69.76,151.76,71.46,153.76,71.07Z"/>
        <path class="cls-114" d="M148.47,73.7,151.12,79h-5.3V73.7Z"/>
        <path class="cls-115" d="M140.53,60.55l2.65-2.63v2.63Z"/>
        <path class="cls-116"
              d="M140.53,94.74l-2.65,2.63c-4,.22-2.25,3.27-2.64,5.26-3.83.32-7.47-.14-10.59-2.63L122,92.11c.4-8.91.37-8.85,8.16-5.3,2.47,1.12,5.14,1.79,7.72,2.67C138.28,91.47,136.57,94.52,140.53,94.74Z"/>
        <path class="cls-117"
              d="M137.88,89.48c-2.58-.88-5.25-1.55-7.72-2.67-7.79-3.55-7.76-3.61-8.16,5.3-5.1-1.23-1.64-5.3-2.65-7.89.89-1.75,1.77-3.51,2.65-5.26l2.65-2.63h2.65l.87,2.18,1.77-2.18,7.94,5.26v7.89Z"/>
        <path class="cls-118"
              d="M137.88,84.22V81.59c1.24-5.07,5.34-1.63,7.94-2.63h2.65c.18,3.05.38,6-4.3,5.31A44,44,0,0,0,137.88,84.22Z"/>
        <path class="cls-119" d="M148.47,86.85c-.49,5.26-.49,5.26-7.94,5.26C141,86.85,141,86.85,148.47,86.85Z"/>
        <path class="cls-120"
              d="M145.82,194.69c.89.87,1.77,1.75,2.65,2.63.88,2.67,2.31,5.31,2.53,8,.41,5.18.12,10.42.12,15.63v2.63q-6.5-1.2-5.3,5.26l-2.64,2.63c-2.65.88-5.3,1.75-8.53,2.63h.59a7.47,7.47,0,0,0-.8-2c-.13-.17-1.05.27-1.61.43a5,5,0,0,0,1.82,1.56c.36,3.93-2.7,2.23-4.71,2.63V223.62l2.2-.87-2.2-1.76c-.71-3.73-4.55-3.39-4.76-1.49-.77,7.08-4,1.1-5.83,1.49v-5.26L122,213.1l2.65-2.63c5.93-.55,7.39-2,7.94-7.89V200c-1.07-.88-2.09-2.43-3.21-2.51-4.21-.3-8.45-.12-12.67-.12-1.31,0-3.24-.53-3.79.11a6,6,0,0,0-1.38,4.47c.64,2.88-2.6,7,2.52,8.57v5.26c-3.63,2.64-3.63,5.24,0,7.89-.42,4.08,1.12,6.86,5.29,7.89h8v2.63l2.64,2.63c-5.61,5.78-13,6.8-20.5,8-1.21.19-2.22,1.65-3.32,2.53H90.24c-3.59-2.63-7.14-5.31-10.8-7.84-.56-.38-1.61,0-2.44,0v-21c4.18-1,5.72-3.81,5.3-7.89l7.94-7.89,7.94-5.26c2.92-.88,5.9-1.62,8.73-2.72.83-.32,1.25-1.67,1.86-2.54h34.41Zm-11,16.71-.94-.93a8.29,8.29,0,0,0-.83,1.76c0,.22.54.58.83.87Z"/>
        <path class="cls-121"
              d="M77,239.4c.83,0,1.88-.33,2.44,0,3.66,2.53,7.21,5.21,10.8,7.84a47.54,47.54,0,0,0-7.46.12c-1.15.18-2.09,1.63-3.13,2.51H45.24v-2.63c2.57,0,5.14.08,7.71,0,1.5-.06,3.89-.18,1.62-2.43-2.7-2.65,1.56-3,1.26-4.75-.14-.8-.27-1.59-.4-2.39a13.47,13.47,0,0,0-2.71.9c-2.8,1.63-1.48,8.28-7.48,6.07v-7.89c0-3.54,2.77-2.25,4.64-2.66,2.13-.48,5.52,1.73,5.95-2.6,1.76,2,3.48,4,5.32,5.92a19.08,19.08,0,0,0,2.62,2V242c-2.77,5.13-2.77,5.16,2.07,5.25,2.58.05,5.17.14,7.74,0,8.42-.51-1.88-3.83.78-5.24Z"/>
        <path class="cls-31"
              d="M106.12,247.29c1.1-.88,2.11-2.34,3.32-2.53,7.45-1.19,14.89-2.21,20.5-8,2-.4,5.07,1.3,5.3-2.63l7.94-2.63L132.59,242l-7.94,2.63c-2,.4-5.07-1.3-5.3,2.63H106.12Z"/>
        <path class="cls-122"
              d="M13.48,249.92v-2.63L18.77,242h2.65l2.65,2.63c1.06.88,2.08,2.43,3.21,2.51,4.2.3,8.44.12,12.67.12v2.63Z"/>
        <path class="cls-123"
              d="M40,249.92v-2.63c1.62-.16,3.06-.14,1.56-2.53-.95-1.52-1.07-3.55-1.56-5.36h5.29v10.52Z"/>
        <path class="cls-124" d="M79.65,249.92c1-.88,2-2.33,3.13-2.51a47.54,47.54,0,0,1,7.46-.12v2.63Z"/>
        <path class="cls-125"
              d="M108.77,247.29h10.58v2.63a47.41,47.41,0,0,1-7.45-.12C110.75,249.62,109.8,248.17,108.77,247.29Z"/>
        <path class="cls-126" d="M90.24,249.92v-2.63h5.29C95.31,251.23,92.25,249.52,90.24,249.92Z"/>
        <path class="cls-127"
              d="M53.18,84.22c4.35-1.93,7.26-7.39,13.24-5.26,5.11,5.43,11.83,5.31,18.53,5.26,1,.88,2,2.33,3.13,2.51a47.41,47.41,0,0,0,7.45.12l2.65,2.63h2.65l-2.65,2.63H66.42V89.48c-1.11-.88-2.33-2.6-3.3-2.48-3.2.42-1.64,3.25-2,5.11-3.17,3.82-2.83,8.4-2.58,12.86.15,2.74,0,7,1.58,7.9,4.79,2.78,1.94-5.89,6.3-5l5.29-2.63c-3.77,14.15-6.8,15.87-18.53,10.52-.55-1.64-2-4.32-1.52-4.75,3.45-3-2.69-3.92-1.1-6.07C55.31,98.5,52.4,91.14,53.18,84.22Z"/>
        <path class="cls-128"
              d="M53.18,84.22C52.4,91.14,55.31,98.5,50.56,105c-1.59,2.15,4.55,3.11,1.1,6.07-.49.43,1,3.11,1.52,4.75v2.63l-7.94,7.89-10.58-7.89V107.89c.65-.88,1.12-2.17,2-2.56,4.74-2.09,8.91-4.5,8.59-10.59.75.31,1.83.41,2.19,1a28.66,28.66,0,0,1,1.91,4.17c.4-1.58,1.57-3.49,1-4.67-1.31-3-3.38-5.59-5.15-8.35h2.65l2.65-2.63Z"/>
        <path class="cls-129"
              d="M85,84.22c-6.7,0-13.42.17-18.53-5.26q6.49,1.2,5.29-5.26a37.57,37.57,0,0,1,4.94-3.5,34,34,0,0,1,5.65-1.76c2.6-1,6.7,2.44,7.94-2.63.88,1.06,2.44,2.07,2.52,3.19.31,4.18.13,8.39.13,12.59Z"/>
        <path class="cls-130"
              d="M42.6,79c1-.88,2-2.33,3.13-2.51a47.41,47.41,0,0,1,7.45-.12l-2.64,7.89H47.89Q49.09,77.76,42.6,79Z"/>
        <path class="cls-131"
              d="M92.89,81.59c0-4.2.18-8.41-.13-12.59-.08-1.12-1.64-2.13-2.52-3.19V63.18h5.29l2.65-2.63V57.92h2.65v2.63l2.64,2.63,2.65,2.63c0,3.89-.05,7.79.08,11.67,0,.38,1.08.71,1.66,1.07l.91-2.22c4,.22,2.25,3.26,2.64,5.26Z"/>
        <path class="cls-132"
              d="M100.83,57.92H98.18c-.29-1.6-.48-3.23-.89-4.8-.49-1.93-1.16-3.82-1.76-5.72,4.18,1,5.72,3.81,5.3,7.89Z"/>
        <path class="cls-133" d="M98.18,60.55l-2.65,2.63Z"/>
        <path class="cls-134"
              d="M79.52,64.78l-7.07,3.08a13.63,13.63,0,0,1-.71-2.19,10.3,10.3,0,0,1,0-2.39,45.1,45.1,0,0,1,6.26,0C78.51,63.29,79,64.19,79.52,64.78Z"/>
        <path class="cls-135" d="M90.24,65.81C89,70.88,84.9,67.44,82.3,68.44,83.54,63.37,87.63,66.81,90.24,65.81Z"/>
        <path class="cls-136"
              d="M34.66,86.85H40l2.65,5.26C39,94.74,35.46,97.42,31.8,100c-.56.38-1.61,0-2.44,0l-5.29-2.63V94.74l5.29-5.26C31.37,89.08,34.43,90.78,34.66,86.85Z"/>
        <path class="cls-137"
              d="M42.6,92.11,40,86.85h5.29c1.77,2.76,3.84,5.39,5.15,8.35.52,1.18-.65,3.09-1,4.67a28.66,28.66,0,0,0-1.91-4.17c-.36-.55-1.44-.65-2.19-1Z"/>
        <path class="cls-138" d="M42.6,79q6.49-1.2,5.29,5.26c-2-.4-5.07,1.3-5.29-2.63Z"/>
        <path class="cls-137" d="M47.89,84.22h2.65l-2.65,2.63Z"/>
        <path class="cls-130" d="M42.6,79v2.63l-2.2-1.77Z"/>
        <path class="cls-139"
              d="M100.83,55.29c.42-4.08-1.12-6.86-5.3-7.89,0-4.2-.18-8.42.12-12.6.09-1.11,1.65-2.12,2.53-3.19,2.6,1,6.7-2.43,5.29,5.46-2.59,7.5-2.58,7.43.89,7.72,3,.25,4.74-.4,4.49-4s-2.17-6-5.3-6.35c-4.22-.4-2.16,3.44-.08,2.66,3.53-2.82,4.41-2.82,5.3-2.82h2.64v2.63q1.34,6.57,2.65,13.15c-4.51-.21-7.91,1.82-10.59,5.26Z"/>
        <path class="cls-140" d="M45.24,55.29l2.65-2.63h2.65v2.63l-3.3,2.63Z"/>
        <path class="cls-141"
              d="M114.06,36.88V34.25c2-.4,5.07,1.3,5.29-2.64,7.89.35,7.76.35,8,6.83.15,4.16,0,8.14-2.69,11.59h-5.3Q116.71,43.45,114.06,36.88Z"/>
        <path class="cls-142" d="M114.06,36.88q2.66,6.57,5.29,13.15h-5.29q-1.32-6.59-2.65-13.15Z"/>
        <path class="cls-143"
              d="M92.89,81.59h18.52c1.24,5.07,5.34,1.63,7.94,2.63,1,2.59-2.45,6.66,2.65,7.89l2.65,7.89c-.88,4-2.1,7.92-2.55,12-.44,3.86-.1,7.81-.1,11.72h-5.29V105.26l-2.65-2.63V100l-2.65-2.63c-.3-2.14,1.2-5-2.94-5.38-2.61-.25-5.1-1.63-7.64-2.51H98.18l-2.65-2.63a47.41,47.41,0,0,1-7.45-.12C86.93,86.55,86,85.1,85,84.22Z"/>
        <path class="cls-144"
              d="M116.71,123.67H122a21.67,21.67,0,0,0,2,2.61,42,42,0,0,0,3.27,2.65c0,3.47-.34,7,.1,10.39.36,2.74,1.66,5.35,2.54,8-2.51,3.11-3,6.72-2.64,10.52-2.23.27-5.21-1.18-5.37,3.12-.22,6,1.73,12.45-2.58,17.93h-2.64c1.22-5.66-2.76-12.1,2.64-17.12-1.79-6.92,3.33-12.93,2.65-19.71l-2.65-2.63-2.64-2.63h-5.3v-7.89c.89-.87,1.77-1.75,2.65-2.63v-2.63Z"/>
        <path class="cls-116" d="M137.88,100c2,.4,5.07-1.3,5.3,2.63C141.17,102.23,138.11,103.93,137.88,100Z"/>
        <path class="cls-145"
              d="M26.71,165.75v-5.26l2.65,2.63c.14,4.86-.76,9.62,4.06,13.57,3.93,3.21,7.89,1.62,11.82,2.22v2.63c-4.57.07-9.34-.83-13.23,2.63.4-5.78-3.69-8.21-7.94-10.52V171l2.64-2.63Z"/>
        <path class="cls-146" d="M24.07,171v2.63l-7.94,2.63H13.48v-2.63c2-.4,5.07,1.3,5.29-2.63h5.3Z"/>
        <path class="cls-81" d="M21.42,171H18.77l1.78-2.19Z"/>
        <path class="cls-81" d="M26.71,168.39,24.07,171Z"/>
        <path class="cls-147" d="M42.6,239.4H40q-7.94,5.52-15.88,0v-2.63l2.64-5.26H40c.88,1.75,1.76,3.51,2.65,5.26Z"/>
        <path class="cls-148"
              d="M40,231.51H26.71l-13.23-2.63v-2.63c6.55-.6,6.71-1.06,2.65-7.89h5.29c1,2.59-2.45,6.66,2.65,7.89,3.35,3.56,7.24,3.56,10.59,0l2.64-2.63Z"/>
        <path class="cls-149" d="M24.07,236.77v7.89L21.42,242C21.82,240,20.11,237,24.07,236.77Z"/>
        <path class="cls-150"
              d="M18.77,213.1v-2.63c5.3-4.85,5.3-4.85,5.3-13.15L26.71,200c-1.8,6.82,3,8.7,7.95,10.52,2,.39,5.06-1.31,5.29,2.63H34.66c-1.86-.53-3.75-1-5.57-1.61-2.93-1.07-6-3.06-7.67,1.61Z"/>
        <path class="cls-15"
              d="M26.71,200l-2.64-2.63-7.94-5.26V186.8c4.34,1.92,7.26,7.38,13.23,5.26L32,194.69v2.63L29.36,200Z"/>
        <path class="cls-78" d="M16.13,202.58v-5.26l2.64,3.27Z"/>
        <path class="cls-151"
              d="M29.36,192.06c-6,2.12-8.89-3.34-13.23-5.26V176.28l7.94-2.63c4.25,2.31,8.34,4.74,7.94,10.52C26.91,185.4,30.37,189.47,29.36,192.06Z"/>
        <ellipse class="cls-74" cx="20.1" cy="215.73" rx="1.87" ry="3.72"/>
        <path class="cls-115" d="M143.18,55.29c-4-.23-2.25-3.27-2.65-5.26h5.29v5.26Z"/>
        <path class="cls-152"
              d="M119.35,178.91c4.31-5.48,2.36-11.89,2.58-17.93.16-4.3,3.14-2.85,5.37-3.12l18.52,7.89v2.64h-2.64c-4,.22-2.25,3.26-2.65,5.26l-2.65,2.63-7.94,2.63c-.67-.88-1.33-1.76-2-2.63l-3.29,2.63Z"/>
        <path class="cls-153"
              d="M34.66,118.41l10.58,7.89v7.89L40,142.08c-2.61-1-6.7,2.44-7.94-2.63l2.33-1.62c-.66-.34-1.6-1.13-2-.92a20.2,20.2,0,0,0-3,2.54H24.07V123.67c2.16,0,4.33.09,6.48-.08.39,0,.69-1.08,1-1.65l-2.23-.9C29.59,117.11,32.65,118.81,34.66,118.41Z"/>
        <path class="cls-20" d="M24.07,123.67v5.26c-2.65-.54-5.65-.54-7.78-1.88-.95-.6-.16-3.92-.16-6h7.94Z"/>
        <path class="cls-20"
              d="M24.07,131.56v7.89c-2,.4-5.07-1.3-5.3,2.63H16.13C16.25,133.29,16.73,132.65,24.07,131.56Z"/>
        <path class="cls-154"
              d="M18.77,142.08c.23-3.93,3.29-2.23,5.3-2.63H32c1.24,5.07,5.33,1.63,7.94,2.63-.91,4.46,1.7,9.2-1.58,13.57-1.93,2.57,1.19,1.63,2.16,2.28a11,11,0,0,1,2.07,2.56c-4.58.07-9.35-.82-13.24,2.63l-2.65-2.63A37.67,37.67,0,0,0,21.78,157a35.67,35.67,0,0,0-5.65-1.77l2.64-2.63,4.82-.83c-.59-.91-1.13-1.86-1.79-2.72C20.2,147,23.75,142.7,18.77,142.08Z"/>
        <path class="cls-26"
              d="M29.36,89.48l-5.29,5.26c-.4-2,1.31-5-2.65-5.26l-2.65-5.26,2.65-2.63a19.81,19.81,0,0,1,2.63,2C25.88,85.48,27.6,87.5,29.36,89.48Z"/>
        <path class="cls-155" d="M21.42,89.48c4,.22,2.25,3.27,2.65,5.26l-5.3,2.63Z"/>
        <path class="cls-156"
              d="M34.66,118.41c-2,.4-5.07-1.3-5.3,2.63H24.07c-4.37-5.64-2.12-12.22-2.65-18.41h7.94l5.3,5.26Z"/>
        <path class="cls-157"
              d="M34.66,107.89l-5.3-5.26V100c.83,0,1.88.33,2.44,0,3.66-2.53,7.21-5.21,10.8-7.84l2.64,2.63c.32,6.09-3.85,8.5-8.59,10.59C35.78,105.72,35.31,107,34.66,107.89Z"/>
        <path class="cls-158" d="M119.35,247.29c.23-3.93,3.29-2.23,5.3-2.63C124.42,248.6,121.36,246.89,119.35,247.29Z"/>
        <path class="cls-159" d="M148.47,236.77l1.78-2.18.87,2.18Z"/>
        <path class="cls-31" d="M145.82,228.88q-1.2-6.45,5.3-5.26Z"/>
        <path class="cls-31" d="M143.18,231.51l2.64-2.63Z"/>
        <path class="cls-26" d="M34.66,86.85c-.23,3.93-3.29,2.23-5.3,2.63C29.59,85.54,32.65,87.25,34.66,86.85Z"/>
        <path class="cls-160"
              d="M140.53,176.28l2.65,2.63q-4.29,5.25,0,10.52h-7.94a45.72,45.72,0,0,1,.12-7.41c.18-1.15,1.64-2.08,2.52-3.11Z"/>
        <path class="cls-31" d="M135.24,189.43h5.29v2.63H119.35v-2.63h15.89Z"/>
        <path class="cls-161" d="M140.53,173.65c.4-2-1.31-5,2.65-5.26C142.78,170.38,144.49,173.42,140.53,173.65Z"/>
        <path class="cls-162" d="M137.88,176.28l2.65-2.63v2.63Z"/>
        <path class="cls-163"
              d="M138,59.05c-.89.4-2.75,1.74-3.26,1.35-1.84-1.42-4.17-3.24-4.58-5.25-.66-3.32,2.59-2.31,4.47-2.48C139.09,52.28,137.66,55.61,138,59.05Z"/>
        <path class="cls-164" d="M119.35,50h5.3v5.26Z"/>
        <path class="cls-165" d="M129.94,63.18l-2.64-2.63Z"/>
        <path class="cls-165" d="M124.65,55.29V52.66l2.65,2.63Z"/>
        <path class="cls-166"
              d="M119.35,84.22c-2.6-1-6.7,2.44-7.94-2.63-.39-2,1.32-5-2.64-5.26,1-2.59-2.46-6.66,2.64-7.89,1.92-.59,3.82-1.26,5.76-1.75,1.58-.4,3.22-.6,4.83-.88,5.93.55,7.39,2,7.94,7.89l-2.64,2.63h-2.65c-1-3.65-3.32-5.68-7.16-5.16-1.23.16-3.18,1.44-3.25,2.33-.15,2.06-1.57,5.36,2.69,5.45,1.69,0,3.38,0,5.07,0C121.12,80.71,120.24,82.47,119.35,84.22Z"/>
        <path class="cls-165"
              d="M119.35,50l5.3,5.26c-1,2.59,2.45,6.65-2.65,7.89-1.35-5.52-7.15-5.14-10.59-7.89L114.06,50Z"/>
        <path class="cls-167"
              d="M145.82,79c-2.6,1-6.7-2.44-7.94,2.63l-7.94-5.26V73.7h2.65c2.27,0,4.22-4.06,7-.15.72,1,4.07.15,6.21.15Z"/>
        <path class="cls-168"
              d="M122,65.81c-1.61.28-3.25.48-4.83.88-1.94.49-3.84,1.16-5.76,1.75V65.81c3.13-2.5,6.76-3,10.59-2.63Z"/>
        <path class="cls-169" d="M129.94,73.7v2.63l-1.77,2.18-.87-2.18Z"/>
        <path class="cls-166" d="M124.65,76.33,122,79Z"/>
        <path class="cls-170"
              d="M119.35,189.43v2.63h-7.94l-.87-2.18-1.77,2.18c-.61.87-1,2.22-1.86,2.54-2.83,1.1-5.81,1.84-8.73,2.72-.88-.88-1.76-1.76-2.65-2.63v-2.63l-5.29-7.89v-2.63c1-.88,2-2.33,3.13-2.52a47.53,47.53,0,0,1,7.46-.11c.22,3.93,3.28,2.23,5.29,2.63h7.94v5.26C114.29,190.73,117.35,189,119.35,189.43Z"/>
        <path class="cls-171"
              d="M95.53,192.06v2.63c-3.47-.86-5.85,1-7.43,3.59-1.12,1.84-1.13,4.12,2.14,4.3l-7.94,7.89v-2.63Q83.62,203.9,85,200l-.88-2.18L82.3,200l-2.65-2.63c-.22-3.94-3.29-2.24-5.29-2.63V186.8a22.78,22.78,0,0,0,2.62-2,41.76,41.76,0,0,0,2.67-3.24c.27,8.38.41,8.52,10.59,10.52Z"/>
        <path class="cls-172"
              d="M82.3,207.84v2.63c.42,4.08-1.12,6.86-5.3,7.89v-2.63c-.22-3.94-3.28-2.24-5.29-2.63l-2.65-2.63-.87-2.18-1.77,2.18H63.77V197.32h5.29c.51,9.69,1,10.18,9.45,10.51C79.77,207.88,81,207.84,82.3,207.84Z"/>
        <path class="cls-173"
              d="M63.77,239.4a19.08,19.08,0,0,1-2.62-2c-1.84-1.92-3.56-3.94-5.32-5.92H53.18v-2.63h2.65l5.29-2.63c.4,2-1.31,5,2.65,5.26.65.88,1.22,2.44,2,2.52,8,.92,8.17.66,8.68-7.29.14-2.09-1.68-5.37,2.58-5.75v15.78a99,99,0,0,0-10,.12C65.81,237,64.83,238.52,63.77,239.4Z"/>
        <path class="cls-174"
              d="M119.35,218.36V221c.31,2.15-1.23,5.36,3,5.26,2.37-.06,5.25.76,5-3.38,0-.58,1.64-1.25,2.52-1.88v13.15H127.3v-2.63c-2.67-3.6-5.28-3.6-8,0-4.17-1-5.71-3.81-5.29-7.89.88-1.09,1.69-2.25,2.67-3.25A22.44,22.44,0,0,1,119.35,218.36Z"/>
        <path class="cls-175"
              d="M132.59,200v2.63l-7.94,7.89H122c-.88-.88-1.76-1.76-2.65-2.63-.22-3.94-3.28-2.24-5.29-2.63.88-5.08,4.86-1.73,7.28-2.61,2.06-.74,5.52,1.69,6-2.65Z"/>
        <path class="cls-176"
              d="M77,221c-4.26.38-2.44,3.66-2.58,5.75-.51,7.95-.65,8.21-8.68,7.29-.75-.08-1.32-1.64-2-2.52,7.82-.32,7.83-.32,7.94-6.82,0-2.11,0-4.22,0-6.33.23-3.94,3.29-2.24,5.29-2.63V221Z"/>
        <path class="cls-177"
              d="M127.3,200c-.44,4.34-3.9,1.91-6,2.65-2.42.88-6.4-2.47-7.28,2.61v5.26c-5.12-1.55-1.88-5.69-2.52-8.57a6,6,0,0,1,1.38-4.47c.55-.64,2.48-.11,3.79-.11,1,.87,2,2.32,3.13,2.51A47.52,47.52,0,0,0,127.3,200Z"/>
        <path class="cls-178"
              d="M90.24,202.58c-3.27-.18-3.26-2.46-2.14-4.3,1.58-2.57,4-4.45,7.43-3.59.89.87,1.77,1.75,2.65,2.63Z"/>
        <path class="cls-179" d="M63.77,239.4c1.06-.88,2-2.39,3.18-2.51a99,99,0,0,1,10-.12v2.63L74.36,242H63.77Z"/>
        <path class="cls-31"
              d="M129.94,221c-.88.63-2.55,1.3-2.52,1.88.21,4.14-2.67,3.32-5,3.38-4.26.1-2.72-3.11-3-5.26,1.87-.39,5.06,5.59,5.83-1.49C125.39,217.6,129.23,217.26,129.94,221Z"/>
        <path class="cls-31"
              d="M127.3,200a47.52,47.52,0,0,1-7.46-.12c-1.15-.19-2.1-1.64-3.13-2.51,4.22,0,8.46-.18,12.67.12,1.12.08,2.14,1.63,3.21,2.51Z"/>
        <path class="cls-180"
              d="M119.35,218.36a22.44,22.44,0,0,0-2.62,2c-1,1-1.79,2.16-2.67,3.25v-7.89l2.65-2.63h2.64v5.26Z"/>
        <path class="cls-31" d="M124.65,210.47l7.94-7.89C132,208.47,130.58,209.92,124.65,210.47Z"/>
        <path class="cls-181" d="M119.35,231.51c2.67-3.6,5.28-3.6,8,0Z"/>
        <path class="cls-174" d="M114.06,215.73v7.89C110.43,221,110.43,218.37,114.06,215.73Z"/>
        <path class="cls-174" d="M116.71,213.1l-2.65,2.63v-5.26h2.65Z"/>
        <path class="cls-182" d="M108.77,192.06l1.77-2.18.87,2.18Z"/>
        <path class="cls-31" d="M122,210.47h2.65L122,213.1Z"/>
        <path class="cls-31" d="M134.85,211.4l-.94,1.7c-.29-.29-.87-.65-.83-.87a8.29,8.29,0,0,1,.83-1.76Z"/>
        <path class="cls-31" d="M119.35,215.73V213.1H122Z"/>
        <path class="cls-31" d="M129.94,223.62V221l2.2,1.76Z"/>
        <path class="cls-31" d="M134.06,234.14l-1.23-1.56c.56-.16,1.48-.6,1.61-.43a7.47,7.47,0,0,1,.8,2Z"/>
        <path class="cls-31" d="M127.3,234.14h2.64v2.63Z"/>
        <path class="cls-183"
              d="M63.77,242H74.36c-2.66,1.41,7.64,4.73-.78,5.24-2.57.15-5.16.06-7.74,0C61,247.19,61,247.16,63.77,242Z"/>
        <path class="cls-184"
              d="M45.24,247.29v-2.63c6,2.21,4.68-4.44,7.48-6.07a13.47,13.47,0,0,1,2.71-.9c.13.8.26,1.59.4,2.39.3,1.74-4,2.1-1.26,4.75,2.27,2.25-.12,2.37-1.62,2.43C50.38,247.37,47.81,247.29,45.24,247.29Z"/>
        <path class="cls-185"
              d="M53.18,231.51h2.65c-.43,4.33-3.82,2.12-5.95,2.6-1.87.41-4.62-.88-4.64,2.66H42.6c-.89-1.75-1.77-3.51-2.65-5.26H53.18Z"/>
        <ellipse class="cls-186" cx="43.92" cy="238.09" rx="1.87" ry="1.86"/>
        <path class="cls-187"
              d="M24.07,244.66V239.4q7.93,5.52,15.88,0c.49,1.81.61,3.84,1.56,5.36,1.5,2.39.06,2.37-1.56,2.53-4.23,0-8.47.18-12.67-.12C26.15,247.09,25.13,245.54,24.07,244.66Z"/>
        <path class="cls-188"
              d="M71.71,105.26l-5.29,2.63v-5.26L69.06,100c2-.4,5.07,1.3,5.3-2.63H77c.23,3.93,3.29,2.23,5.3,2.63H85l2.64,2.63,2.65,2.63c.4,2-1.31,5,2.65,5.26v13.15c-4,.23-2.25,3.27-2.65,5.26v2.63l-2.65,2.63L85,136.82v2.63l-2.65,2.63L77,144.71l-2.64,2.63L71.71,150c-.88.88-1.76,1.76-2.65,2.63H66.42l-2.65,2.63c-.88.88-1.76,1.76-2.65,2.63H58.48l-2.65,2.63-2.65,2.63-2.64,3.39c.94.62,1.89,1.79,2.84,1.79,16.69.12,33.39.09,50.09.09v10.52h-2.64v-2.63c-1.24-5.07-5.34-1.63-7.94-2.63H50.54L47.89,171c-.88-.88-1.76-1.76-2.65-2.63v-5.27c.89-.87,1.77-1.75,2.65-2.63l5.29-5.26h2.65l2.65-2.63L61.12,150h2.65l2.65-2.63,2.64-2.63c1-.58,2.09-1.1,3.07-1.75,1.92-1.28,7.93-1.21,1.81-5.26-1.67-1.1-3.25-2.33-4.88-3.51-.59-1.9-1.26-3.79-1.75-5.72-.41-1.57-.6-3.2-.89-4.8,2.79-5.92,7.15-8.72,14-8.07,2.25.21,6.31,2.59,7.15-2.45-.4-2,1.32-5-2.64-5.26l-2.65-2.63H79.65C77,101.66,74.37,101.66,71.71,105.26Z"/>
        <path class="cls-189"
              d="M92.89,123.67V110.52c-.4-2,1.31-5-2.65-5.26l-2.65-2.63V100c-1-4.15-3.83-5.68-7.94-5.26V92.11H98.18a19,19,0,0,0,2,2.61c1.93,1.82,4,3.53,6,5.28l-2.19.87,2.19,1.76q1.32,6.57,2.65,13.15c-5.1,1.23-1.64,5.3-2.65,7.89-4,.23-2.25,3.27-2.65,5.26l-10.58,7.89v-5.26C96.51,128.92,96.51,126.32,92.89,123.67Z"/>
        <path class="cls-190"
              d="M79.65,105.26H82.3L85,107.89c.39,2-1.32,5,2.64,5.26-.84,5-4.9,2.66-7.15,2.45-6.87-.65-11.23,2.15-14,8.07-1.93.6-4.32.69-5.65,1.91-1.71,1.57-2.35,4.22-3.86,6.07-.7.85-3,1.63-3.48,1.21-1.16-1-3.79-1.49-1.34-4.65,1.72-2.23.82-6.46,1.09-9.8v-2.63c11.73,5.35,14.76,3.63,18.53-10.52Z"/>
        <path class="cls-191"
              d="M79.65,92.11v2.63a99.2,99.2,0,0,0-10.06.12c-1.13.12-2.12,1.63-3.17,2.51l-2.2.87,2.2,1.76v7.89c-4.36-.91-1.51,7.76-6.3,5-1.56-.92-1.43-5.16-1.58-7.9-.25-4.46-.59-9,2.58-12.86H79.65Z"/>
        <path class="cls-192"
              d="M106.12,100c-2-1.75-4-3.46-6-5.28a19,19,0,0,1-2-2.61l2.65-2.63c2.54.88,5,2.26,7.64,2.51,4.14.41,2.64,3.24,2.94,5.38L108.77,100Z"/>
        <path class="cls-193" d="M63.77,92.11H61.12c.36-1.86-1.2-4.69,2-5.11,1-.12,2.19,1.6,3.3,2.48Z"/>
        <path class="cls-194" d="M63.77,92.11l2.65-2.63v2.63Z"/>
        <path class="cls-192" d="M95.53,86.85l2.65,2.63Z"/>
        <path class="cls-195"
              d="M53.18,118.41c-.27,3.34.63,7.57-1.09,9.8-2.45,3.16.18,3.67,1.34,4.65.5.42,2.78-.36,3.48-1.21,1.51-1.85,2.15-4.5,3.86-6.07,1.33-1.22,3.72-1.31,5.65-1.91.29,1.6.48,3.23.89,4.8.49,1.93,1.16,3.82,1.75,5.72v10.52l-2.64,2.63L63.77,150H58.48c-.66-3.13,2.34-7.41-4.23-8.55-3.33-.57-6-4.7-9-7.23V126.3Z"/>
        <path class="cls-196"
              d="M111.41,65.81v2.63c-5.1,1.23-1.63,5.3-2.64,7.89l-.91,2.22c-.58-.36-1.65-.69-1.66-1.07-.13-3.88-.08-7.78-.08-11.67Z"/>
        <path class="cls-197" d="M100.83,55.29h2.64v5.26h-2.64V55.29Z"/>
        <path class="cls-196" d="M106.12,65.81l-2.65-2.63Z"/>
        <path class="cls-198" d="M100.83,60.55h2.64v2.63Z"/>
        <path class="cls-199"
              d="M100.82,39.9c.57-2-1.49-5.89,2.73-5.49,3.13.3,5,2.75,5.3,6.35s-1.46,4.28-4.49,4C100.89,44.5,100.88,44.57,100.82,39.9Z"/>
        <path class="cls-200" d="M103.47,57.92V55.29c2.68-3.44,6.08-5.47,10.59-5.26l-2.65,5.26Z"/>
        <path class="cls-127"
              d="M108.77,100l2.64-2.63,2.65,2.63v2.63l2.65,2.63v10.52c-5.1,1.23-1.64,5.3-2.65,7.89v2.63c-.88.88-1.76,1.76-2.65,2.63v2.63l-2.64,2.63,2.64,2.63h2.65l2.65,2.63h2.64l2.65,2.63c.68,6.78-4.44,12.79-2.65,19.71-5.4,5-1.42,11.46-2.64,17.12l-2.65,2.63h-7.94c-.88-.88-1.76-1.76-2.65-2.63V168.39h2.65a27.73,27.73,0,0,0,.09,5.16c.18,1,1.21,1.82,1.86,2.73l3.34-2.63c.89-1,2.35-2,2.53-3.12a46.88,46.88,0,0,0,.12-7.41V152.6c3.58-3.32,3.58-7.19,0-10.52h-2.65l-2.64,2.63v2.63c-4,.23-2.25,3.27-2.65,5.26-.88.88-1.76,1.76-2.65,2.63H95.53a99.23,99.23,0,0,1-10.06-.12c-1.13-.11-2.12-1.63-3.17-2.51L85,150h2.64l2.65-2.63,2.65-2.63,2.64-2.63c.89-.87,1.77-1.75,2.65-2.63l2.65-2.63,2.64-2.63c.89-.87,1.77-1.75,2.65-2.63v-2.63l2.65-2.63v-2.63l2.64-2.63V105.26l-2.64-2.63Zm-4.71,44.91-1.91-2.83c-2.08,2.08-4.19,4.13-6.19,6.28-.11.11.6,1.14,1.07,1.58a1.27,1.27,0,0,0,1.21,0C100.25,148.28,102.2,146.54,104.06,144.91Z"/>
        <path class="cls-192" d="M114.06,123.67c1-2.59-2.45-6.66,2.65-7.89v7.89Z"/>
        <path class="cls-192" d="M116.71,105.26l-2.65-2.63Z"/>
        <path class="cls-192" d="M114.06,100l-2.65-2.63Z"/>
        <path class="cls-201" d="M119.35,178.91h5.3c-1.24,5.06-5.34,1.62-7.94,2.63v-2.63Z"/>
        <path class="cls-202" d="M119.35,139.45h-2.64v-2.63Z"/>
        <path class="cls-192" d="M116.71,136.82v2.63l-2.65-2.63Z"/>
        <path class="cls-203" d="M111.41,136.82l-2.64-2.63h2.64Z"/>
        <path class="cls-202" d="M122,142.08l-2.65-2.63Z"/>
        <path class="cls-192" d="M111.41,134.19h-2.64l2.64-2.63Z"/>
        <path class="cls-192" d="M111.41,128.93c.89-.87,1.77-1.75,2.65-2.63C113.18,127.18,112.3,128.06,111.41,128.93Z"/>
        <path class="cls-204"
              d="M55.83,173.65H66.42v2.63c.3.74.44,2,.93,2.14,6.89,2.15,6.9,2.12,7,8.38-4.18,1-5.72,3.81-5.3,7.89H50.54v-5.26c0-7.41,0-7.41-5.3-7.89v-2.63c1.62-.16,3.07-.14,1.57-2.53-1-1.52-1.07-3.56-1.57-5.36h2.65l2.65,2.63,2,2.63Z"/>
        <path class="cls-205"
              d="M45.24,171c.5,1.8.61,3.84,1.57,5.36,1.5,2.39,0,2.37-1.57,2.53-3.93-.6-7.89,1-11.82-2.22-4.82-3.95-3.92-8.71-4.06-13.57,3.89-3.45,8.66-2.56,13.24-2.63l2.64,2.63V171Z"/>
        <path class="cls-206"
              d="M45.24,181.54c5.3.48,5.3.48,5.3,7.89-1.35-.88-2.59-2.06-4.06-2.57-3.91-1.37-7.89-4-12-.12-.44.42-1.66.06-2.51.06v-2.63C35.9,180.71,40.67,181.61,45.24,181.54Z"/>
        <path class="cls-207"
              d="M47.89,231.51H40l-2.65-7.89c4-.23,2.25-3.27,2.65-5.26H53.18L55.83,221v7.89H53.18C51.18,229.28,48.12,227.58,47.89,231.51Z"/>
        <path class="cls-208"
              d="M21.42,218.36V213.1c1.69-4.67,4.74-2.68,7.67-1.61,1.82.65,3.71,1.08,5.57,1.61,1,2.59-2.46,6.66,2.64,7.89v2.63l-2.64,2.63a26.91,26.91,0,0,0-3-1.65c-2.86-1.12-6-3-7.57,1.65C19,225,22.43,221,21.42,218.36Z"/>
        <path class="cls-209"
              d="M24.07,226.25c1.61-4.67,4.71-2.77,7.57-1.65a26.91,26.91,0,0,1,3,1.65C31.31,229.81,27.42,229.81,24.07,226.25Z"/>
        <path class="cls-210"
              d="M40,213.1c-.23-3.94-3.29-2.24-5.29-2.63.31-3.81-.14-7.42-2.65-10.52H40c.4,2-1.31,5,2.65,5.26v7.89Z"/>
        <path class="cls-211"
              d="M37.3,221c-5.1-1.23-1.64-5.3-2.64-7.89H37.3l2,2.63,3.3-2.63h2.64c1.24,5.07,5.34,1.63,7.94,2.63v2.63H40Z"/>
        <path class="cls-212" d="M32,200c2.51,3.1,3,6.71,2.65,10.52-4.91-1.82-9.75-3.7-7.95-10.52H32Z"/>
        <path class="cls-213" d="M42.6,213.1l-3.3,2.63-2-2.63h5.3Z"/>
        <path class="cls-214" d="M32,197.32v-2.63H42.6v2.63H32Z"/>
        <path class="cls-215" d="M32,184.17v10.52l-2.65-2.63C30.37,189.47,26.91,185.4,32,184.17Z"/>
        <path class="cls-216" d="M32,197.32H40V200H29.36Z"/>
        <path class="cls-217"
              d="M135.24,189.43h-2.65c-1-2.59,2.45-6.66-2.65-7.89v-2.63l7.94-2.63v2.63c-.88,1-2.34,2-2.52,3.11A45.72,45.72,0,0,0,135.24,189.43Z"/>
        <path class="cls-218" d="M124.65,178.91l3.29-2.63c.67.87,1.33,1.75,2,2.63h-5.29Z"/>
        <path class="cls-219"
              d="M45.24,163.12l-2.64-2.63a11,11,0,0,0-2.07-2.56c-1-.65-4.09.29-2.16-2.28,3.28-4.37.67-9.11,1.58-13.57l5.29-7.89c3,2.53,5.68,6.66,9,7.23,6.57,1.14,3.57,5.42,4.23,8.55v2.63H55.83a7.15,7.15,0,0,0-.8-2c-.12-.16-1.05.27-1.6.44a4.83,4.83,0,0,0,1.81,1.55,4.32,4.32,0,0,1,.59,2.63H53.18q-6.49-1.18-5.29,5.26C47,161.37,46.13,162.25,45.24,163.12Z"/>
        <path class="cls-220" d="M24.07,121h5.29l2.23.9c-.35.57-.65,1.62-1,1.65-2.15.17-4.32.08-6.48.08Z"/>
        <path class="cls-221" d="M32,139.45H29.36a20.2,20.2,0,0,1,3-2.54c.35-.21,1.29.58,2,.92Z"/>
        <path class="cls-108" d="M137.88,178.91v-2.63h2.65Z"/>
        <path class="cls-222"
              d="M129.94,181.54c5.1,1.23,1.64,5.3,2.65,7.89H119.35c-2-.4-5.06,1.3-5.29-2.63,4.9-.54,11.13,2.23,13.24-5.26Z"/>
        <path class="cls-223"
              d="M124.65,76.33,122,79c-1.69,0-3.38,0-5.07,0-4.26-.09-2.84-3.39-2.69-5.45.07-.89,2-2.17,3.25-2.33C121.33,70.65,123.67,72.68,124.65,76.33Z"/>
        <path class="cls-224"
              d="M103.47,57.92l7.94-2.63c3.44,2.75,9.24,2.37,10.59,7.89-3.83-.32-7.46.13-10.59,2.63h-5.29l-2.65-2.63V57.92Z"/>
        <path class="cls-225"
              d="M74.36,186.8c-.11-6.26-.12-6.23-7-8.38-.49-.15-.63-1.4-.93-2.14,2-.4,5.07,1.3,5.29-2.63h2.65l.87,2.18L77,173.65h5.3c.67.87,1.33,1.75,2,2.63l3.29-2.63h5.3c1.24,5.06,5.33,1.62,7.94,2.63v2.63a47.53,47.53,0,0,0-7.46.11c-1.15.19-2.09,1.64-3.13,2.52H87.59c-2.66-3.61-5.28-3.61-7.94,0A41.76,41.76,0,0,1,77,184.78,22.78,22.78,0,0,1,74.36,186.8Z"/>
        <path class="cls-226"
              d="M127.3,181.54c-2.11,7.49-8.34,4.72-13.24,5.26v-5.26h2.65c2.6-1,6.7,2.43,7.94-2.63h2.65Z"/>
        <path class="cls-227" d="M95.53,192.06H90.24v-7.89Z"/>
        <path class="cls-203" d="M103.47,178.91c.89.87,1.77,1.75,2.65,2.63-2-.4-5.07,1.3-5.29-2.63Z"/>
        <path class="cls-227" d="M87.59,181.54h2.65v2.63Z"/>
        <path class="cls-228"
              d="M82.3,207.84c-1.27,0-2.53,0-3.79,0-8.5-.33-8.94-.82-9.45-10.51,1,.52,1.91,1.39,2.9,1.44.77.05,1.6-.92,2.4-1.44h5.29L82.3,200H85Q83.62,203.9,82.3,207.84Z"/>
        <path class="cls-229"
              d="M87.59,181.54l2.65,2.63v7.89c-10.18-2-10.32-2.14-10.59-10.52C82.31,177.93,84.93,177.93,87.59,181.54Z"/>
        <path class="cls-225" d="M69.06,194.69c-.42-4.08,1.12-6.86,5.3-7.89v7.89Z"/>
        <path class="cls-230" d="M79.65,197.32H74.36v-2.63C76.36,195.08,79.43,193.38,79.65,197.32Z"/>
        <path class="cls-231" d="M85,200H82.3l1.77-2.18Z"/>
        <path class="cls-232"
              d="M63.77,200v10.52A37.11,37.11,0,0,1,58.83,214a35,35,0,0,1-5.65,1.77l-7.94-5.26v-2.63l2.65-2.63,5.29-2.63c-.48,3.52.17,5.73,4.65,5.36,3.05-.25,3.53-1.63,3.31-4.09-.11-1.29,0-2.6,0-3.9Z"/>
        <path class="cls-233"
              d="M77,215.73c-2,.39-5.06-1.31-5.29,2.63-4.81-.16-8,1.51-7.94,6.91,0,2.08,0,4.16,0,6.24-4-.22-2.25-3.27-2.65-5.26l-2.64-2.63A34.89,34.89,0,0,1,60.25,218a37,37,0,0,1,3.52-4.91l2.65-2.63h2.64c.89.87,1.77,1.75,2.65,2.63C73.72,213.49,76.78,211.79,77,215.73Z"/>
        <path class="cls-234"
              d="M53.18,202.58l-5.29,2.63v-7.89c.88-.88,1.76-1.76,2.65-2.63H61.12c.89.87,1.77,1.75,2.65,2.63V200H61.12Z"/>
        <path class="cls-235" d="M63.77,197.32c-.88-.88-1.76-1.76-2.65-2.63h7.94v2.63Z"/>
        <path class="cls-236" d="M69.06,210.47H66.42l1.77-2.18Z"/>
        <path class="cls-237" d="M66.42,210.47l-2.65,2.63v-2.63Z"/>
        <path class="cls-238" d="M71.71,213.1c-.88-.88-1.76-1.76-2.65-2.63Z"/>
        <path class="cls-211" d="M58.48,223.62l2.64,2.63-5.29,2.63v-5.26Z"/>
        <path class="cls-211" d="M47.89,231.51c.23-3.93,3.29-2.23,5.29-2.63v2.63Z"/>
        <path class="cls-120" d="M116.71,210.47h-2.65v-5.26c2,.39,5.07-1.31,5.29,2.63Z"/>
        <path class="cls-53" d="M119.35,207.84c.89.87,1.77,1.75,2.65,2.63C121.12,209.59,120.24,208.71,119.35,207.84Z"/>
        <path class="cls-239"
              d="M63.77,231.51c0-2.08,0-4.16,0-6.24-.07-5.4,3.13-7.07,7.94-6.91,0,2.11,0,4.22,0,6.33C71.6,231.19,71.59,231.19,63.77,231.51Z"/>
        <path class="cls-240" d="M119.35,207.84c.89.87,1.77,1.75,2.65,2.63v2.63h-5.29v-2.63Z"/>
        <path class="cls-241"
              d="M106.12,168.39h-2.65c-16.7,0-33.4,0-50.09-.09-1,0-1.9-1.17-2.84-1.79l2.64-3.39c2.67,3.61,5.28,3.61,7.94,0H98.18c1.24,5.07,5.34,1.63,7.94,2.63Z"/>
        <path class="cls-242"
              d="M85,150,82.3,152.6,77,155.23c-4,2.26-4,2.26-7.94,0H66.42V152.6h2.64c.89-.87,1.77-1.75,2.65-2.63l2.65-2.63L77,144.71l5.3-2.63L85,144.71v2.63l-2.2.87C83.48,148.8,84.21,149.39,85,150Z"/>
        <path class="cls-243"
              d="M66.42,97.37c1-.88,2-2.39,3.17-2.51a99.2,99.2,0,0,1,10.06-.12c4.11-.42,6.91,1.11,7.94,5.26H82.3c-.23-3.93-3.29-2.23-5.3-2.63H74.36c-2,.4-5.07-1.3-5.3,2.63H66.42Z"/>
        <path class="cls-127"
              d="M69.06,144.71V134.19c1.63,1.18,3.21,2.41,4.88,3.51,6.12,4.05.11,4-1.81,5.26C71.15,143.61,70.09,144.13,69.06,144.71Z"/>
        <path class="cls-244" d="M92.89,131.56v5.26l-2.65,2.63H85v-2.63l2.64-2.63,2.65-2.63Z"/>
        <path class="cls-245"
              d="M92.89,131.56H90.24v-2.63c4-.22,2.25-3.26,2.65-5.26C96.51,126.32,96.51,128.92,92.89,131.56Z"/>
        <path class="cls-195" d="M47.89,160.49q-1.2-6.45,5.29-5.26Z"/>
        <path class="cls-127" d="M100.83,176.28c-2.61-1-6.7,2.43-7.94-2.63C95.49,174.65,99.59,171.21,100.83,176.28Z"/>
        <path class="cls-127" d="M79.65,105.26H71.71C74.37,101.66,77,101.66,79.65,105.26Z"/>
        <path class="cls-246" d="M85,139.45h2.64v2.63H82.3Z"/>
        <path class="cls-127" d="M55.83,173.65l-3.29,2.63-2-2.63Z"/>
        <path class="cls-127" d="M71.71,173.65c-.22,3.93-3.29,2.23-5.29,2.63v-2.63Z"/>
        <path class="cls-127" d="M87.59,173.65l-3.29,2.63c-.67-.88-1.33-1.76-2-2.63Z"/>
        <path class="cls-127" d="M69.06,100c.23-3.93,3.29-2.23,5.3-2.63C74.13,101.3,71.07,99.6,69.06,100Z"/>
        <path class="cls-127" d="M77,97.37c2,.4,5.07-1.3,5.3,2.63C80.29,99.6,77.23,101.3,77,97.37Z"/>
        <path class="cls-127" d="M90.24,105.26c4,.22,2.25,3.27,2.65,5.26C88.93,110.3,90.64,107.25,90.24,105.26Z"/>
        <path class="cls-127" d="M87.59,113.15c-4-.22-2.25-3.27-2.64-5.26C88.91,108.12,87.19,111.16,87.59,113.15Z"/>
        <path class="cls-127" d="M92.89,123.67c-.4,2,1.31,5-2.65,5.26C90.64,126.94,88.93,123.9,92.89,123.67Z"/>
        <path class="cls-127" d="M45.24,171v-2.63c.89.87,1.77,1.75,2.65,2.63Z"/>
        <path class="cls-127" d="M87.59,134.19,85,136.82Z"/>
        <path class="cls-127" d="M90.24,131.56l-2.65,2.63Z"/>
        <path class="cls-127" d="M66.42,147.34l2.64-2.63Z"/>
        <path class="cls-127" d="M77,144.71l-2.64,2.63Z"/>
        <path class="cls-127" d="M85,107.89l-2.65-2.63Z"/>
        <path class="cls-127" d="M87.59,102.63l2.65,2.63Z"/>
        <path class="cls-127" d="M63.77,150l2.65-2.63Z"/>
        <path class="cls-127" d="M85,100h2.64v2.63Z"/>
        <path class="cls-127" d="M66.42,100h2.64l-2.64,2.63Z"/>
        <path class="cls-127" d="M74.36,147.34,71.71,150Z"/>
        <path class="cls-127" d="M58.48,152.6V150h2.64Z"/>
        <path class="cls-127" d="M71.71,150l-2.65,2.63Z"/>
        <path class="cls-195" d="M55.83,155.23V152.6h2.65Z"/>
        <path class="cls-127" d="M66.42,152.6v2.63H63.77Z"/>
        <path class="cls-203" d="M61.12,157.86c.89-.87,1.77-1.75,2.65-2.63C62.89,156.11,62,157,61.12,157.86Z"/>
        <path class="cls-127" d="M55.83,160.49l2.65-2.63v2.63Z"/>
        <path class="cls-127" d="M77,173.65l-1.77,2.18-.87-2.18Z"/>
        <ellipse class="cls-203" cx="59.8" cy="159.18" rx="1.87" ry="1.86"/>
        <path class="cls-127" d="M45.24,163.12l2.65-2.63Z"/>
        <path class="cls-127" d="M50.54,173.65,47.89,171Z"/>
        <path class="cls-127" d="M53.18,163.12l2.65-2.63Z"/>
        <path class="cls-246"
              d="M85,147.34v-2.63l2.64-2.63,2.65-2.63,2.65-2.63,10.58-7.89h2.65v2.63c-.88.88-1.76,1.76-2.65,2.63l-2.64,2.63-2.65,2.63c-.88.88-1.76,1.76-2.65,2.63l-2.64,2.63-2.65,2.63L87.59,150H85Z"/>
        <path class="cls-247" d="M111.41,107.89v7.89h-2.64q-1.33-6.57-2.65-13.15h2.65v2.63Z"/>
        <path class="cls-248" d="M106.12,123.67c1-2.59-2.45-6.66,2.65-7.89v7.89Z"/>
        <path class="cls-249" d="M106.12,128.93h-2.65c.4-2-1.31-5,2.65-5.26v5.26Z"/>
        <path class="cls-250" d="M106.12,102.63l-2.19-1.76,2.19-.87Z"/>
        <path class="cls-194" d="M66.42,97.37V100l-2.2-1.76Z"/>
        <ellipse class="cls-189" cx="107.44" cy="101.32" rx="1.87" ry="1.86"/>
        <path class="cls-251"
              d="M69.06,155.23c4,2.26,4,2.26,7.94,0a17,17,0,0,0,18.53,0h5.3c1.11.88,2.31,2.59,3.32,2.49,4.49-.44,5.08,1.93,4.62,5.4a45.72,45.72,0,0,0,.12,7.41c.18,1.15,1.64,2.08,2.52,3.12l-3.34,2.63c-.65-.91-1.68-1.74-1.86-2.73a27.73,27.73,0,0,1-.09-5.16v-2.64c-1.24-5.06-5.34-1.62-7.94-2.63H61.12v-2.63C65.23,160.92,68,159.39,69.06,155.23Z"/>
        <path class="cls-242"
              d="M108.77,163.12c.46-3.47-.13-5.84-4.62-5.4-1,.1-2.21-1.61-3.32-2.49h2.64c.89-.87,1.77-1.75,2.65-2.63,4-.22,2.25-3.26,2.65-5.26v-2.63h2.64a95.19,95.19,0,0,0,.13,10c.11,1.12,1.64,2.11,2.52,3.15v5.26h-5.29Z"/>
        <path class="cls-203"
              d="M95.53,155.23a17,17,0,0,1-18.53,0l5.3-2.63c1,.88,2,2.4,3.17,2.51A99.23,99.23,0,0,0,95.53,155.23Z"/>
        <path class="cls-252" d="M114.06,157.86c-.88-1-2.41-2-2.52-3.15a95.19,95.19,0,0,1-.13-10v-2.63h2.65v15.78Z"/>
        <path class="cls-202"
              d="M104.06,144.91c-1.86,1.63-3.81,3.37-5.82,5a1.27,1.27,0,0,1-1.21,0c-.47-.44-1.18-1.47-1.07-1.58,2-2.15,4.11-4.2,6.19-6.28Z"/>
        <path class="cls-203" d="M114.06,152.6V142.08C117.64,145.41,117.64,149.28,114.06,152.6Z"/>
        <path class="cls-203" d="M111.41,163.12h2.65a46.88,46.88,0,0,1-.12,7.41c-.18,1.15-1.64,2.08-2.53,3.12Z"/>
        <path class="cls-203" d="M108.77,147.34c-.4,2,1.31,5-2.65,5.26C106.52,150.61,104.81,147.57,108.77,147.34Z"/>
        <ellipse class="cls-189" cx="110.09" cy="118.41" rx="1.87" ry="3.72"/>
        <path class="cls-203" d="M98.18,139.45l2.65-2.63Z"/>
        <path class="cls-203" d="M95.53,142.08c.89-.87,1.77-1.75,2.65-2.63C97.3,140.33,96.42,141.21,95.53,142.08Z"/>
        <path class="cls-203" d="M100.83,136.82l2.64-2.63Z"/>
        <path class="cls-192"
              d="M103.47,134.19c.89-.87,1.77-1.75,2.65-2.63C105.24,132.44,104.36,133.32,103.47,134.19Z"/>
        <path class="cls-203" d="M106.12,128.93V126.3h2.65Z"/>
        <ellipse class="cls-189" cx="107.44" cy="124.99" rx="1.87" ry="1.86"/>
        <path class="cls-203" d="M92.89,144.71l2.64-2.63Z"/>
        <path class="cls-203" d="M108.77,121h2.64l-2.64,2.63Z"/>
        <path class="cls-203" d="M111.41,142.08v2.63h-2.64Z"/>
        <path class="cls-189" d="M111.41,107.89l-2.64-2.63h2.64Z"/>
        <path class="cls-203" d="M90.24,147.34l2.65-2.63Z"/>
        <path class="cls-192" d="M111.41,105.26h-2.64v-2.63Z"/>
        <path class="cls-170" d="M116.71,181.54h-2.65l2.65-2.63Z"/>
        <path class="cls-202" d="M87.59,150l2.65-2.63Z"/>
        <path class="cls-203" d="M106.12,152.6c-.88.88-1.76,1.76-2.65,2.63C104.36,154.36,105.24,153.48,106.12,152.6Z"/>
        <path class="cls-253"
              d="M32,189.43V186.8c.85,0,2.07.36,2.51-.06,4.07-3.92,8-1.25,12,.12,1.47.51,2.71,1.69,4.06,2.57v2.63c-.89.87-1.77,1.75-2.65,2.63-1-.52-1.91-1.39-2.9-1.45-.77,0-1.59.93-2.39,1.45H40Z"/>
        <path class="cls-206" d="M47.89,194.69c.88-.88,1.76-1.76,2.65-2.63v2.63Z"/>
        <path class="cls-254"
              d="M58.48,223.62H55.83V221l-2.65-2.63v-2.63A35,35,0,0,0,58.83,214a37.11,37.11,0,0,0,4.94-3.49v2.63A37,37,0,0,0,60.25,218,34.89,34.89,0,0,0,58.48,223.62Z"/>
        <path class="cls-213" d="M37.3,221,40,218.36c-.4,2,1.31,5-2.65,5.26Z"/>
        <path class="cls-211" d="M53.18,218.36,55.83,221Z"/>
        <path class="cls-255"
              d="M47.89,200v5.26l-2.65,2.63v2.63H42.6v-5.26c-.4-2,1.31-5-2.65-5.26v-2.63h5.29C46.13,198.19,47,199.07,47.89,200Z"/>
        <path class="cls-216" d="M40,200c4,.22,2.25,3.26,2.65,5.26C38.64,205,40.35,201.94,40,200Z"/>
        <ellipse class="cls-256" cx="43.92" cy="211.78" rx="1.87" ry="1.86"/>
        <path class="cls-257" d="M45.24,213.1v-2.63l7.94,5.26C50.58,214.73,46.48,218.17,45.24,213.1Z"/>
        <path class="cls-206" d="M32,189.43,40,194.69H32Z"/>
        <path class="cls-206" d="M45.24,197.32H42.6v-2.63c.8-.52,1.62-1.49,2.39-1.45,1,.06,1.94.93,2.9,1.45v2.63Z"/>
        <ellipse class="cls-201" cx="128.62" cy="180.22" rx="1.87" ry="1.86"/>
        <path class="cls-195" d="M54.65,152.6c-.41-.52-.82-1-1.22-1.55.55-.17,1.48-.6,1.6-.44a7.15,7.15,0,0,1,.8,2Z"/>
        <path class="cls-172"
              d="M69.06,197.32v-2.63h5.3v2.63c-.8.52-1.63,1.49-2.4,1.44C71,198.71,70,197.84,69.06,197.32Z"/>
        <path class="cls-258"
              d="M53.18,202.58,61.12,200c0,1.3-.09,2.61,0,3.9.22,2.46-.26,3.84-3.31,4.09C53.35,208.31,52.7,206.1,53.18,202.58Z"/>
        <path class="cls-234" d="M45.24,207.84l2.65-2.63Z"/>
        <path class="cls-259" d="M47.89,197.32v-2.63h2.65C49.65,195.56,48.77,196.44,47.89,197.32Z"/>
        <path class="cls-260" d="M45.24,197.32h2.65V200C47,199.07,46.13,198.19,45.24,197.32Z"/>
        <path class="cls-261" d="M61.12,160.49v2.63c-2.66,3.61-5.27,3.61-7.94,0l2.65-2.63h5.29Z"/>
        <path class="cls-242" d="M98.18,163.12c2.6,1,6.7-2.43,7.94,2.63C103.52,164.75,99.42,168.19,98.18,163.12Z"/>
        <path class="cls-262" d="M69.06,155.23c-1,4.16-3.83,5.69-7.94,5.26v-2.63c.89-.87,1.77-1.75,2.65-2.63h5.29Z"/>
        <path class="cls-263" d="M82.3,142.08H85v2.63Z"/>
        <path class="cls-264" d="M85,147.34V150c-.74-.58-1.47-1.17-2.2-1.76Z"/>
        <path class="cls-265" d="M90.24,139.45l-2.65,2.63v-2.63Z"/>
        <path class="cls-266" d="M92.89,136.82l-2.65,2.63Z"/>
        <path class="cls-267" d="M85,144.71v-2.63h2.64Z"/>
        <path class="cls-268" d="M111.41,163.12v10.53c-.88-1-2.34-2-2.52-3.12a45.72,45.72,0,0,1-.12-7.41Z"/>
    </g>
</svg>