<svg id="Calque_1" data-name="Calque 1" xmlns="http://www.w3.org/2000/svg" viewBox="0 0 167.24 257.95">
    <defs>
        <style>
            .cls-1{fill:#fefefe;}.cls-2{fill:#0f1010;}.cls-3{fill:#0f1516;}.cls-4{fill:#18272a;}.cls-5{fill:#1a1a1b;}.cls-6{fill:#cadbc6;}.cls-7{fill:#e8eee5;}.cls-8{fill:#a9adab;}.cls-9{fill:#fbfdf0;}.cls-10{fill:#afdc8f;}.cls-11{fill:#badfa6;}.cls-12{fill:#63c26f;}.cls-13{fill:#51c65d;}.cls-14{fill:#4ab40c;}.cls-15{fill:#96cc81;}.cls-16{fill:#f4f7f4;}.cls-17{fill:#6abd34;}.cls-18{fill:#56cb5f;}.cls-19{fill:#33b11f;}.cls-20{fill:#6dd575;}.cls-21{fill:#8db67e;}.cls-22{fill:#8abc58;}.cls-23{fill:#27b900;}.cls-24{fill:#36b60b;}.cls-25{fill:#3fb40a;}.cls-26{fill:#49b108;}.cls-27{fill:#65ac21;}.cls-28{fill:#3fb700;}.cls-29{fill:#63c437;}.cls-30{fill:#70cb3b;}.cls-31{fill:#5ec739;}.cls-32{fill:#5eb619;}.cls-33{fill:#a2d482;}.cls-34{fill:#79b53c;}.cls-35{fill:#4baf0d;}.cls-36{fill:#56be03;}.cls-37{fill:#f7f9f7;}.cls-38{fill:#65c072;}.cls-39{fill:#3bb60b;}.cls-40{fill:#31b04a;}.cls-41{fill:#37b729;}.cls-42{fill:#18b337;}.cls-43{fill:#58b81a;}.cls-44{fill:#54bb27;}.cls-45{fill:#9ed5a0;}.cls-46{fill:#5abc69;}.cls-47{fill:#7ec888;}.cls-48{fill:#0caf30;}.cls-49{fill:#93d997;}.cls-50{fill:#27af38;}.cls-51{fill:#95db96;}.cls-52{fill:#47b60a;}.cls-53{fill:#44b704;}.cls-54{fill:#64b935;}.cls-55{fill:#56ac00;}.cls-56{fill:#64d029;}.cls-57{fill:#73ba3d;}.cls-58{fill:#72bb35;}.cls-59{fill:#1eaf2e;}.cls-60{fill:#42b21f;}.cls-61{fill:#3eb459;}.cls-62{fill:#4bb80d;}.cls-63{fill:#32b400;}.cls-64{fill:#43bc11;}.cls-65{fill:#20b146;}.cls-66{fill:#01b241;}.cls-67{fill:#01b134;}.cls-68{fill:#68c562;}.cls-69{fill:#5ed360;}.cls-70{fill:#48b511;}.cls-71{fill:#78ca5b;}.cls-72{fill:#3bb22e;}.cls-73{fill:#47c23f;}.cls-74{fill:#49b815;}.cls-75{fill:#1fb500;}.cls-76{fill:#36b900;}.cls-77{fill:#18b034;}.cls-78{fill:#4aba64;}.cls-79{fill:#6bc176;}.cls-80{fill:#3dba1e;}.cls-81{fill:#3c3c3d;}.cls-82{fill:#53b060;}.cls-83{fill:#55c553;}.cls-84{fill:#fdf9eb;}.cls-85{fill:#0d0d0d;}.cls-86{fill:#7dcb4e;}.cls-87{fill:#343333;}.cls-88{fill:#34ad00;}.cls-89{fill:#41423e;}.cls-90{fill:#545252;}.cls-91{fill:#707070;}.cls-92{fill:#4f974e;}.cls-93{fill:#060606;}.cls-94{fill:#d7f1cf;}.cls-95{fill:#5caa13;}.cls-96{fill:#17b117;}.cls-97{fill:#19ac44;}.cls-98{fill:#17b030;}.cls-99{fill:#70c378;}.cls-100{fill:#25ac33;}.cls-101{fill:#41b502;}.cls-102{fill:#47b306;}.cls-103{fill:#4ab00a;}.cls-104{fill:#16ba00;}.cls-105{fill:#75c947;}.cls-106{fill:#7ad04f;}.cls-107{fill:#3bb109;}.cls-108{fill:#5dc83c;}.cls-109{fill:#2eb900;}.cls-110{fill:#3eb11b;}.cls-111{fill:#69c275;}.cls-112{fill:#10b233;}.cls-113{fill:#3c3c3c;}.cls-114{fill:#2db151;}.cls-115{fill:#06b44b;}.cls-116{fill:#66cd39;}.cls-117{fill:#4aca4a;}.cls-118{fill:#1b1b1b;}.cls-119{fill:#46b05a;}.cls-120{fill:#87cd78;}.cls-121{fill:#41ba1a;}.cls-122{fill:#343434;}.cls-123{fill:#3faf4c;}.cls-124{fill:#3e3d3c;}.cls-125{fill:#999697;}.cls-126{fill:#151515;}.cls-127{fill:#434343;}.cls-128{fill:#69c575;}.cls-129{fill:#80cb8b;}.cls-130{fill:#a1daa4;}.cls-131{fill:#09ba49;}.cls-132{fill:#86d095;}.cls-133{fill:#00b42a;}.cls-134{fill:#61c16d;}.cls-135{fill:#28b51f;}.cls-136{fill:#03b43b;}.cls-137{fill:#5acd65;}.cls-138{fill:#00aa20;}.cls-139{fill:#addbb0;}.cls-140{fill:#bfe3c0;}.cls-141{fill:#63ce62;}.cls-142{fill:#49d76d;}.cls-143{fill:#22b857;}.cls-144{fill:#3ecc5b;}.cls-145{fill:#6ed77d;}.cls-146{fill:#acdcb1;}.cls-147{fill:#00ae32;}.cls-148{fill:#40b501;}.cls-149{fill:#71cf48;}.cls-150{fill:#67c837;}.cls-151{fill:#4faf07;}.cls-152{fill:#5cbb1c;}.cls-153{fill:#80e04e;}.cls-154{fill:#57c95b;}.cls-155{fill:#5fcc4b;}.cls-156{fill:#53cf6f;}.cls-157{fill:#20b750;}.cls-158{fill:#64d481;}.cls-159{fill:#6fc74b;}.cls-160{fill:#47ae1e;}.cls-161{fill:#2ab20b;}.cls-162{fill:#6cca4c;}.cls-163{fill:#01b321;}.cls-164{fill:#0ab507;}.cls-165{fill:#00b700;}.cls-166{fill:#53cb5d;}.cls-167{fill:#69cb50;}.cls-168{fill:#41ae0e;}.cls-169{fill:#5bbd69;}.cls-170{fill:#78d881;}.cls-171{fill:#8dd296;}.cls-172{fill:#01b312;}.cls-173{fill:#18b048;}.cls-174{fill:#2dbe60;}.cls-175{fill:#62d06a;}.cls-176{fill:#7dd685;}.cls-177{fill:#97d098;}.cls-178{fill:#78d383;}.cls-179{fill:#73c67d;}.cls-180{fill:#7bd582;}.cls-181{fill:#01b600;}.cls-182{fill:#09b028;}.cls-183{fill:#22af2a;}.cls-184{fill:#52c942;}.cls-185{fill:#26af00;}.cls-186{fill:#0c0c0c;}.cls-187{fill:#52bc6a;}.cls-188{fill:#25ad38;}.cls-189{fill:#10ad37;}.cls-190{fill:#5bd16c;}.cls-191{fill:#7ddf83;}.cls-192{fill:#54c443;}.cls-193{fill:#28b100;}.cls-194{fill:#64ca36;}.cls-195{fill:#79d450;}.cls-196{fill:#32b200;}.cls-197{fill:#3cb403;}.cls-198{fill:#29b701;}.cls-199{fill:#55d14f;}.cls-200{fill:#7dd45a;}.cls-201{fill:#eef6ed;}.cls-202{fill:#a5d6a8;}.cls-203{fill:#86db98;}.cls-204{fill:#87e086;}.cls-205{fill:#59c06f;}.cls-206{fill:#30b10f;}.cls-207{fill:#86d98e;}.cls-208{fill:#6cc86f;}.cls-209{fill:#080808;}.cls-210{fill:#00b93d;}.cls-211{fill:#86c682;}.cls-212{fill:#80c98a;}.cls-213{fill:#a8d8a9;}.cls-214{fill:#24b048;}.cls-215{fill:#d7e8d4;}.cls-216{fill:#7ac887;}.cls-217{fill:#35b153;}.cls-218{fill:#57c734;}.cls-219{fill:#3eb205;}.cls-220{fill:#48b019;}.cls-221{fill:#2fb334;}.cls-222{fill:#0eb132;}.cls-223{fill:#40c054;}.cls-224{fill:#62cb3e;}.cls-225{fill:#09b500;}.cls-226{fill:#6dd65a;}.cls-227{fill:#25ae31;}.cls-228{fill:#61cb4c;}.cls-229{fill:#64ce44;}.cls-230{fill:#4bbe64;}.cls-231{fill:#70d17c;}.cls-232{fill:#01b311;}.cls-233{fill:#00ae1b;}.cls-234{fill:#60d171;}.cls-235{fill:#85dd8e;}.cls-236{fill:#4ac658;}.cls-237{fill:#72e272;}.cls-238{fill:#82db84;}.cls-239{fill:#5bca3a;}.cls-240{fill:#24b115;}.cls-241{fill:#424143;}.cls-242{fill:#daebd8;}.cls-243{fill:#403840;}.cls-244{fill:#e8f3e7;}.cls-245{fill:#2e2a2f;}.cls-246{fill:#1f1d1e;}.cls-247{fill:#48464b;}.cls-248{fill:#302d33;}.cls-249{fill:#050509;}.cls-250{fill:#e6e6e5;}.cls-251{fill:#322b2e;}.cls-252{fill:#2c292d;}.cls-253{fill:#090707;}.cls-254{fill:#252425;}.cls-255{fill:#171115;}.cls-256{fill:#070308;}.cls-257{fill:#130617;}.cls-258{fill:#070506;}.cls-259{fill:#0e0d12;}.cls-260{fill:#3e3e3e;}.cls-261{fill:#85d28b;}.cls-262{fill:#07b400;}.cls-263{fill:#56cc4b;}.cls-264{fill:#48cb50;}.cls-265{fill:#7be35e;}.cls-266{fill:#02b341;}.cls-267{fill:#66cd43;}.cls-268{fill:#6ac774;}.cls-269{fill:#5dc95d;}.cls-270{fill:#2db044;}.cls-271{fill:#79dd83;}.cls-272{fill:#10b43b;}.cls-273{fill:#4fcd59;}.cls-274{fill:#222;}.cls-275{fill:#191919;}.cls-276{fill:#030103;}.cls-277{fill:#0d0c11;}
        </style>
    </defs>
    <g id="qlw8tK.tif">
        <path class="cls-1"
              d="M167,252.74c-1.06,1.61,2.49,5.21-2.57,5.2q-80.8-.12-161.62,0c-2.21,0-3-.4-2.61-2.64a23.66,23.66,0,0,0,0-3.86V6.73C.2,4.58-.31.77.29.58,2.64-.13,5.33.29,7.9.29L5.33,8c-5,.9-2.44,4.83-2.44,7.18q-.23,112.6-.11,225.2a38.55,38.55,0,0,0,.46,6.26c.07.41,1.36.62,2.09.93.39,1.95-1.27,4.93,2.57,5.15,1.54,5,5.65,2.43,8.4,2.44,48.51.18,97,.13,145.52.13Z"/>
        <ellipse cx="165.67" cy="129.09" rx="1.81" ry="171.22"/>
        <ellipse cx="86.14" cy="1.58" rx="107.03" ry="1.82"/>
        <path class="cls-2" d="M10.46.29V5.44L7.9,8H5.33L7.9.29Z"/>
        <path class="cls-1" d="M161.82,2.87V.29Q168.5-1.25,167,5.44Z"/>
        <path class="cls-3" d="M164.39,250.16H167v2.58l-5.14,2.57v-5.15Z"/>
        <path d="M161.82,2.87,167,5.44V8h-5.14V2.87Z"/>
        <path class="cls-4"
              d="M5.33,8H7.9V247.59H5.33c-.73-.31-2-.52-2.09-.93a38.55,38.55,0,0,1-.46-6.26q0-112.6.11-225.2C2.89,12.85.34,8.92,5.33,8Z"/>
        <path d="M161.82,252.74v2.57c-48.5,0-97,.05-145.52-.13-2.75,0-6.86,2.55-8.4-2.44H161.82Z"/>
        <path class="cls-5" d="M10.46,252.74H7.9c-3.84-.22-2.18-3.2-2.57-5.15H7.9l2.56,2.57Z"/>
        <path class="cls-6" d="M161.82,8h2.57V250.16h-2.57V8Z"/>
        <ellipse class="cls-6" cx="86.14" cy="4.15" rx="107.03" ry="1.82"/>
        <path class="cls-7" d="M7.9,8l2.56-2.58Z"/>
        <path class="cls-8" d="M10.46,252.74v-2.58H161.82v2.58Z"/>
        <path class="cls-9"
              d="M13,250.16H10.46L7.9,247.59V8l2.56-2.58H161.82V116.21l-5.13,2.58V10.59c0-3.54-2.74-2.52-4.59-2.53C140.15,8,128.2,8,116.24,8,83.79,8,51.35,8,18.9,8.1c-2,0-5.42-1.81-5.87,2.49-5,1.55-2.42,5.68-2.43,8.44-.19,48.71-.14,97.41-.14,146.12v7.73c0,23,0,45.92.08,68.87,0,2.05-1.76,5.4,2.49,5.84Z"/>
        <path class="cls-7"
              d="M156.69,118.79l5.13-2.58v134h-7.69v-2.57c.85-1.08,2.43-2.14,2.45-3.23.19-10.08.11-20.17.11-30.26,0-2.12,0-4.24,0-6.36,0-.31-.6-.91-.79-.87-.61.17-1.64.53-1.66.88-.16,2.1-.08,4.23-.08,6.35h-2.57v-18a9.76,9.76,0,0,1,2.51,1.86,12.07,12.07,0,0,1,1.18,3.13,9.62,9.62,0,0,0,1.38-2.73,33.93,33.93,0,0,0,.06-4.84v-74.7Z"/>
        <path class="cls-10"
              d="M13,250.16v-2.57H95.12c2.53-1,6.5,2.38,7.7-2.58h2.56c.22,3.85,3.19,2.19,5.14,2.58H131v2.57Z"/>
        <path class="cls-11" d="M131,250.16v-2.57h23.09v2.57Z"/>
        <path class="cls-6"
              d="M10.46,165.15c0-48.71-.05-97.41.14-146.12,0-2.76-2.54-6.89,2.43-8.44V33.78c1,2.53-2.38,6.52,2.56,7.73-.55,2.7-1.51,5.4-1.53,8.1,0,2.45,1,4.9,1.53,7.35-.85,1.07-2.42,2.11-2.45,3.2-.21,7.51-.11,15-.11,22.56v82.43Z"/>
        <path class="cls-12"
              d="M156.69,118.79v36.06h-2.56c0-3.71.15-7.44,0-11.14-.17-3.15-.76-6.27-1.17-9.4l-6.48,5.08-2.56-2.57-2.57-2.58c.34-2.63-.12-4.93-2.56-6.44s-2.91-3.81-2.57-6.44v-2.57c4.12,0,8.24-.07,12.36,0s2.77-3,3-5.18c3.84-.22,2.18-3.2,2.57-5.15h2.56Z"/>
        <path class="cls-6"
              d="M13,10.59c.45-4.3,3.82-2.48,5.87-2.49C51.35,8,83.79,8,116.24,8c12,0,23.91,0,35.86,0,1.85,0,4.56-1,4.59,2.53h-77a45.82,45.82,0,0,0-7.23.12c-1.11.18-2,1.6-3,2.46H59.21c-1-.86-1.92-2.28-3-2.46a45.8,45.8,0,0,0-7.23-.12H13Z"/>
        <path class="cls-13"
              d="M156.69,108.48h-2.56a46.08,46.08,0,0,0-.12-7.25c-.18-1.12-1.59-2-2.45-3V95.6c3.46-6,3.46-6-2.56-10.3-1.24.81-3.31,2.57-3.6,2.31-5.55-4.93-3.76.48-4.1,2.84h-2.56l-2.57-7.73V80.15a26,26,0,0,0,2.92,1.61c2.77,1.1,5.78,2.95,7.34-1.61H149c5,2.73,5,2.73,5.11-1.86s0-9.07,0-13.6V28.63a96.75,96.75,0,0,1,.12-9.79c.11-1.11,1.59-2.07,2.44-3.09Z"/>
        <path class="cls-14"
              d="M156.69,15.75c-.85,1-2.33,2-2.44,3.09a96.75,96.75,0,0,0-.12,9.79H149l-1.47-5c-2.21,4.55-4.13-.7-6.23-.18V10.59h15.39Zm-8.22.09c-.94.59-2,1-1.95,1.28a18.49,18.49,0,0,0,.79,3.37c.56-.32,1.58-.62,1.6-1A19.37,19.37,0,0,0,148.47,15.84Z"/>
        <path class="cls-15"
              d="M13,247.59c-4.25-.44-2.47-3.79-2.49-5.84-.12-22.95-.08-45.91-.08-68.87H13v33.49c0,5.81-.13,11.64.11,17.44,0,1.09,1.6,2.11,2.45,3.17v2.57c-.85,1-2.39,2.06-2.45,3.15C12.88,237.65,13,242.62,13,247.59Z"/>
        <path class="cls-6" d="M13,172.88H10.46v-5.15H13v5.15Z"/>
        <ellipse class="cls-15" cx="11.75" cy="166.44" rx="1.81" ry="1.82"/>
        <path class="cls-16"
              d="M105.38,245H92.56v-2.58c.65-.86,1.25-2.4,2-2.46,3.34-.26,6.72,0,10.07-.16a42.24,42.24,0,0,0,5.81-1.13c-1.9-1.33-3.64-3.27-5.74-3.85-5-1.37-9.49.89-13.75,3.06-.86.43-.65,3-.93,4.54H87.43l-2.57-2.57H82.3l-2.57-2.58c-1-2.53,2.38-6.52-2.57-7.73-1.8-5.59,2.54-10.16,2.57-15.45l5.13-7.73c1.27-1.7,2.29-3.68,3.86-5,1.72-1.47,4-2.25,5.9-3.53s3.76-2.87,5.63-4.32c2.83-.86,5.72-1.58,8.46-2.66.81-.31,1.22-1.63,1.81-2.49,2.52-1,6.49,2.38,7.69-2.58H133.6c1.21,5,5.18,1.6,7.7,2.58h2.57l2.56,2.57,2.57,2.58,2.56,2.58v20.6L146.43,227v2.57h-2.56l-2.57,2.58L131,239.86c-1.95.39-4.91-1.28-5.13,2.57-2.53,1-6.5-2.38-7.7,2.58H105.38Zm23.09-43.79.85,2.13,1.72-2.13v-5.15c-4.18-3.71-8.64-3.71-12.83,0l-2.56,2.57c-4.21,6.27-3.55,10.23,2.56,15.46.29,4.8-3,8-5,11.82-.39.74.67,3.2.86,3.18,4.83-.56,10.38,3.45,14.43-2.12,4-4.82,3.41-7.85-1.81-9.72,0,0-.49,1.3-.75,2l-2.57-2.58c.17-2.24,4.06-4.53-.23-6.74a39.65,39.65,0,0,1-4.9-3.56v-5.15l7.7-2.58Z"/>
        <path class="cls-17"
              d="M146.43,227l5.13-10.31,2.57-2.57h2.56c0,10.09.08,20.18-.11,30.26,0,1.09-1.6,2.15-2.45,3.23,0-4.12.17-8.24-.12-12.34-.08-1.09-1.59-2.08-2.45-3.12Z"/>
        <path class="cls-18"
              d="M156.69,157.43V178c-1.56.29-4.43.42-4.48.87a94.72,94.72,0,0,0-.28,11.06c0,.3.56.59.85.89.45-.61.89-1.24,1.35-1.84.85-1.09,1.71-2.17,2.56-3.25v7.73H149l-2.57-2.58v-2.57c.86-1,2.34-2,2.45-3.09a96.82,96.82,0,0,0,.12-9.79h2.56c.86-1,2.37-2,2.45-3.13.29-4.09.12-8.21.12-12.33v-2.57Z"/>
        <path class="cls-19"
              d="M156.69,185.76c-.85,1.08-1.71,2.16-2.56,3.25-.46.6-.9,1.23-1.35,1.84-.29-.3-.85-.59-.85-.89a94.72,94.72,0,0,1,.28-11.06c0-.45,2.92-.58,4.48-.87Z"/>
        <path class="cls-20"
              d="M156.69,157.43H146.43a46.18,46.18,0,0,1,.12-7.26c.18-1.12,1.59-2,2.45-3,0,7.25,0,7.25,5.13,7.73h2.56Z"/>
        <path class="cls-21"
              d="M151.56,193.49h5.13a33.93,33.93,0,0,1-.06,4.84,9.62,9.62,0,0,1-1.38,2.73,12.07,12.07,0,0,0-1.18-3.13,9.76,9.76,0,0,0-2.51-1.86Z"/>
        <path class="cls-22"
              d="M156.69,214.1h-2.56c0-2.12-.08-4.25.08-6.35,0-.35,1-.71,1.66-.88.19,0,.78.56.79.87C156.73,209.86,156.69,212,156.69,214.1Z"/>
        <path class="cls-22" d="M154.13,214.1l-2.57,2.57V214.1Z"/>
        <path class="cls-23"
              d="M74.6,247.59H61.77q1.29-6.45,2.57-12.88c11,0,11,0,15.39,5.15v2.57c-1.06.86-2.2,1.65-3.17,2.6A22.5,22.5,0,0,0,74.6,247.59Z"/>
        <path class="cls-24" d="M43.81,247.59h-18c1-2.54-2.38-6.52,2.56-7.73,5.57,1.81,10.12-2.55,15.39-2.58Z"/>
        <ellipse class="cls-25" cx="52.79" cy="243.72" rx="9.07" ry="5.46"/>
        <path class="cls-26"
              d="M13,247.59c0-5-.15-9.94.11-14.89.06-1.09,1.6-2.1,2.45-3.15v5.16c0,2.93,0,5.86.11,8.79,0,.13,2,.58,2.32.21a25.25,25.25,0,0,0,2.7-3.85h2.57v7.73Z"/>
        <path class="cls-27"
              d="M74.6,247.59a22.5,22.5,0,0,1,2-2.56c1-.95,2.11-1.74,3.17-2.6l2.57-2.57h2.56l2.57,2.57c.22,3.86,3.18,2.19,5.13,2.58h2.56v2.58Z"/>
        <path class="cls-28"
              d="M125.91,242.43c.22-3.85,3.18-2.18,5.13-2.57,1.94.39,4.91-1.28,5.13,2.57l-2.57,5.16h-7.69Z"/>
        <path class="cls-29"
              d="M23.29,247.59v-7.73c1.25-3,5.13-6,.08-9.25-.57-.36-.08-2.38-.08-3.63h2.57l2.56,2.57v10.31c-4.94,1.21-1.59,5.19-2.56,7.73Z"/>
        <path class="cls-30" d="M46.38,239.86v7.73H43.81v-18h2.57v10.31Z"/>
        <path class="cls-31"
              d="M59.21,247.59v-7.73c.85-1.07,1.64-2.21,2.58-3.18a20.38,20.38,0,0,1,2.55-2q-1.29,6.43-2.57,12.88Z"/>
        <path class="cls-32" d="M125.91,242.43v5.16h-7.7V245C119.41,240.05,123.38,243.41,125.91,242.43Z"/>
        <path class="cls-33" d="M95.12,247.59V245h7.7C101.62,250,97.65,246.6,95.12,247.59Z"/>
        <ellipse class="cls-34" cx="114.36" cy="246.3" rx="5.44" ry="1.82"/>
        <path class="cls-33" d="M110.52,245v2.58c-2-.39-4.92,1.27-5.14-2.58Z"/>
        <path class="cls-35"
              d="M151.56,232.13c.86,1,2.37,2,2.45,3.12.29,4.1.12,8.22.12,12.34H143.87V245l2.56-2.58c-.38-2,1.27-4.93-2.56-5.15,1.07-.86,2-2.08,3.24-2.49C148.85,234.21,151.55,235.57,151.56,232.13Z"/>
        <path class="cls-36" d="M143.87,245v2.58H133.6l2.57-5.16h2.57C139,246.29,141.92,244.62,143.87,245Z"/>
        <path class="cls-37"
              d="M59.21,13.17H79.73a26.59,26.59,0,0,1,7.43,8.62c.42.83,1.86,1.14,2.83,1.68V38.93c-3.84.22-2.18,3.2-2.56,5.15-3.84.22-2.18,3.2-2.57,5.15L82.3,51.81,72,59.54,66.9,62.11,56.64,67.27H54.08a45.81,45.81,0,0,0-7.23.11c-1.12.18-2,1.6-3,2.46H38.68L23.29,67.27l-2.57-2.58-2.56-2.58-2.57-2.57V57c-.55-2.45-1.55-4.9-1.53-7.35,0-2.7,1-5.4,1.53-8.1l2.57-7.73,2.56-2.58V28.63l2.57-2.58c1.94-.39,4.91,1.28,5.13-2.58,4.08-2.9,9.66-3.29,12.83-7.72h2.56c1.95-.39,4.92,1.27,5.13-2.58Zm-18,23.18,2.56,2.58c.39,2-1.27,4.93,2.57,5.15,2.43,3,2.87,6.58,2.56,10.31L41.25,57a15.12,15.12,0,0,0,0-2.52,12,12,0,0,0-.81-2.18,9.34,9.34,0,0,0-1.67,2.2,7.42,7.42,0,0,0-.06,2.5c0,1.26-.46,2.81.09,3.73,1.56,2.58,2.37-.13,3.39-.81C45,58,49.8,62.44,51.51,57c6.5-5.1,6.58-5.49,2.57-12.88-1.41-1-4.14-2.33-4-2.89.53-1.93,2.27-3.48,3.13-5.37.63-1.38.59-3.07.86-4.62-1-.86-2-2.34-3.08-2.46a96,96,0,0,0-9.75-.11l-.85-2.14-1.72,2.14v7.72l.85,2.14Z"/>
        <path class="cls-38"
              d="M13,142V118.79h5.13c.85-.67,2.41-1.3,2.45-2,.23-4.24-.06-8.51.23-12.74.08-1.15,1.59-2.19,2.45-3.29h2.57l10.26,5.16-2.57,12.88H31l-4.78,1.64c4.65,4.93,1.1,11,2.21,16.39l-7.7,2.57v-5.15c1.83-.37,4.46,1.21,5.11-2,.48-2.3-.84-3.95-5.81-7.73l-3.6-2.7a19.73,19.73,0,0,0-.79,3.49c-.11,3,0,5.95,0,8.93q-1.15,6.33,5.13,5.15L18.16,142Z"/>
        <path class="cls-39"
              d="M18.16,10.59H33.55c-.46,3.23,1.89,7.85-4.25,8.36-.42,0-.59,2.95-.88,4.52H23.29V20.9a15.11,15.11,0,0,0,0-2.52,12.06,12.06,0,0,0-.81-2.19,10.07,10.07,0,0,0-1.67,2.2,7.49,7.49,0,0,0-.06,2.51v5.15l-2.56,2.58v5.15H13V28.63l2.56-2.58L13,23.47V20.9c.85-.59,2.17-1,2.48-1.81C16.58,16.33,17.3,13.44,18.16,10.59Z"/>
        <path class="cls-40"
              d="M15.59,118.79H13V82.72h5.13c1.94-.39,4.91,1.28,5.13-2.57a6.14,6.14,0,0,1,6.57,2.68c1.23,1.8,2.13,2,4.64.69,2.92-1.52,4.89-2.4,4.18-6,5,1.21,1.59,5.19,2.57,7.73-1.25,0-3.1-.54-3.66.08-4.06,4.56-7.85,2.37-11.73-.08-3.21.21-8.23-.7-9.22.9-1.69,2.71-1.08,7-.92,10.65.06,1.33,1.58,2.6,2.44,3.9-.86,1-2.39,2.06-2.45,3.15C15.44,108.85,15.59,113.82,15.59,118.79Z"/>
        <path class="cls-41"
              d="M18.16,82.72H13c0-7.52-.1-15,.11-22.56,0-1.09,1.6-2.13,2.45-3.2v2.58l2.57,2.57,2.56,2.58C20.21,70.75,22.39,77.2,18.16,82.72Z"/>
        <path class="cls-42"
              d="M13,142h5.13a24.53,24.53,0,0,1,1.6,2.93c1.1,2.78,2.95,5.8-2.17,7.37h.57a7.3,7.3,0,0,0-.78-2c-.12-.16-1,.27-1.55.43a4.73,4.73,0,0,0,1.76,1.52,4.28,4.28,0,0,1,.57,2.58,15.28,15.28,0,0,0-2.7,9.85c0,1-1.58,2-2.43,3V142Z"/>
        <path class="cls-43" d="M18.16,10.59c-.86,2.85-1.58,5.74-2.65,8.5-.31.8-1.63,1.22-2.48,1.81V10.59Z"/>
        <path class="cls-43" d="M13,33.78h5.13l-2.57,7.73C10.65,40.3,14,36.31,13,33.78Z"/>
        <path class="cls-43" d="M15.59,26.05,13,28.63V26.05Z"/>
        <path class="cls-44" d="M15.59,26.05H13V23.47Z"/>
        <path class="cls-45"
              d="M136.17,118.79v2.57a19.78,19.78,0,0,1-10.26,7.73c-.29-2.09,1.15-4.86-2.86-5.27-2.52-.25-4.94-1.6-7.4-2.46-.86-.86-1.71-1.72-2.57-2.57v-5.16c1.71-1.6,4.4-2.92,4.94-4.85,1.32-4.72,4.27-5.64,8.44-5.57.66,0,1.34-1.6,2-2.46H131c3,3.72,2.45,8.14,2.64,12.47C133.77,115.24,132.08,118.44,136.17,118.79Z"/>
        <path class="cls-46"
              d="M136.17,118.79c-4.09-.35-2.4-3.55-2.49-5.57-.19-4.33.33-8.75-2.64-12.47l2.56-2.57h5.14c1.2,5,5.17,1.59,7.69,2.57v2.58l-2.13.85,2.13,1.73c-.41,4,1.08,6.71,5.13,7.72-.26,2.17,1.17,5.27-3,5.18S140.29,118.79,136.17,118.79Z"/>
        <path class="cls-47"
              d="M125.91,129.09a19.78,19.78,0,0,0,10.26-7.73c-.34,2.63.12,4.93,2.57,6.44s2.9,3.81,2.56,6.44l2.57,2.58c-1,.86-2,2.38-3.11,2.46-4.08.29-8.19.11-12.29.11l-2.56-2.57Z"/>
        <path class="cls-48"
              d="M154.13,154.85c-5.13-.48-5.13-.48-5.13-7.73l-2.57-2.57v-5.16l6.48-5.08c.41,3.13,1,6.25,1.17,9.4C154.28,147.41,154.13,151.14,154.13,154.85Z"/>
        <path class="cls-49"
              d="M146.43,139.39v5.16q-7.69-5.42-15.39,0l-2.57-5.16c4.1,0,8.21.18,12.29-.11,1.09-.08,2.07-1.6,3.11-2.46Z"/>
        <path class="cls-50"
              d="M151.56,98.18c.86,1,2.27,1.93,2.45,3a46.08,46.08,0,0,1,.12,7.25c-.39,2,1.27,4.93-2.57,5.15.42-4-1.08-6.72-5.13-7.72v-2.58H149l2.56-2.58Z"/>
        <path class="cls-51" d="M143.87,136.82l-2.57-2.58Z"/>
        <path class="cls-52"
              d="M90,23.47c-1-.54-2.41-.85-2.83-1.68a26.59,26.59,0,0,0-7.43-8.62V10.59H108v2.58c-4.69,1-2.27,4.35-2.11,6.81.06.92,1.07,1.78,1.65,2.67l-4.67.82-1.75-2.11a13,13,0,0,0-.79,2.18,16.15,16.15,0,0,0,0,2.51C96.54,26.36,93,25.91,90,23.47Z"/>
        <path class="cls-53"
              d="M108,13.17V10.59h30.79v7.73c-3.34-.82-5.38,1.14-7.26,3.43l2.12,1.72v2.58c-3.83.67-5.95-1.46-7.73-4.5-1.65-2.82-1.06-7-5.09-8.38Z"/>
        <path class="cls-54"
              d="M28.42,23.47c.29-1.57.46-4.49.88-4.52,6.14-.51,3.79-5.13,4.25-8.36h2.57Q35,16.92,41.25,15.75C38.08,20.18,32.5,20.57,28.42,23.47Z"/>
        <path class="cls-55" d="M41.25,15.75q-6.3,1.17-5.13-5.16H48.94v2.58c-1.94.39-4.91-1.28-5.13,2.58Z"/>
        <path class="cls-56" d="M138.74,18.32V10.59h2.56V23.47h-2.56Z"/>
        <path class="cls-57" d="M79.73,10.59v2.58H69.47c1-.86,1.92-2.28,3-2.46A45.82,45.82,0,0,1,79.73,10.59Z"/>
        <path class="cls-58" d="M48.94,13.17V10.59a45.8,45.8,0,0,1,7.23.12c1.12.18,2,1.6,3,2.46Z"/>
        <path class="cls-59"
              d="M146.43,80.15c-1.56,4.56-4.57,2.71-7.34,1.61a26,26,0,0,1-2.92-1.61H133.6L131,77.57V69.84c3.84-.22,2.18-3.2,2.56-5.15,5.79-2.08,8.62,3.27,12.83,5.15Z"/>
        <path class="cls-60"
              d="M154.13,64.69c0,4.53.05,9.07,0,13.6S154,82.88,149,80.15a46.18,46.18,0,0,0-.12-7.26c-.18-1.12-1.59-2-2.45-3a22.65,22.65,0,0,1,2-2.55c1-1,2.11-1.74,3.17-2.6Z"/>
        <path class="cls-61"
              d="M136.17,82.72l2.57,7.73h-2.57c-1.84-1.72-3.46-3.79-5.57-5s-4.82-1.82-7.26-2.68V80.15l7.7-2.58,2.56,2.58Z"/>
        <path class="cls-62" d="M151.56,28.63h2.57v10.3l-7.7,2.58V33.78Z"/>
        <path class="cls-63" d="M154.13,64.69H149V51.81h5.13Z"/>
        <path class="cls-64"
              d="M151.56,51.81H149c-.58-1.87-1.23-3.71-1.71-5.6-.39-1.54-.58-3.14-.86-4.7l7.7-2.58v10.3Z"/>
        <path class="cls-65"
              d="M146.43,100.75c-2.52-1-6.49,2.39-7.69-2.57L149,93l2.56,2.57v2.58C149.62,98.57,146.65,96.9,146.43,100.75Z"/>
        <path class="cls-66" d="M149,93l-10.26,5.15V90.45H149Z"/>
        <path class="cls-67" d="M149,93V85.3c6,4.27,6,4.27,2.56,10.3Z"/>
        <path class="cls-65" d="M149,85.3v5.15h-7.7c.34-2.36-1.45-7.77,4.1-2.84C145.69,87.87,147.76,86.11,149,85.3Z"/>
        <path class="cls-68" d="M146.43,69.84c.86,1,2.27,1.93,2.45,3a46.18,46.18,0,0,1,.12,7.26h-2.57Z"/>
        <path class="cls-69" d="M136.17,82.72l-2.57-2.57h2.57Z"/>
        <path class="cls-62" d="M151.56,51.81l2.57-2.58v2.58Z"/>
        <path class="cls-70"
              d="M141.3,23.47c2.1-.52,4,4.73,6.23.18l1.47,5c-3.84.22-2.18,3.2-2.57,5.15-1.56,1.67-4.6,9.29-5.13,12.88H128.47V36.35c.86-1.08,2.53-2.24,2.43-3.23-.43-4.37,1.88-4.95,5.27-4.49l2.57-2.58Z"/>
        <path class="cls-71" d="M146.43,33.78c.39-2-1.27-4.93,2.57-5.15h2.56Z"/>
        <path class="cls-72"
              d="M148.47,15.84a19.37,19.37,0,0,1,.44,3.68c0,.35-1,.65-1.6,1a18.49,18.49,0,0,1-.79-3.37C146.5,16.81,147.53,16.43,148.47,15.84Z"/>
        <path class="cls-73"
              d="M13,172.88v-2.57h7.69l2.57,2.57v12.88c-1.71,0-3.42,0-5.13-3.11,0-4,.17-4.82,0-5.6a40.85,40.85,0,0,0-1.45-4,13.92,13.92,0,0,0-1,3.29,61.89,61.89,0,0,0,0,7.46c0,.67.83,1.28,1.27,1.92.41-.41,1.14-.8,1.18-1.25.15-1.65.06-3.32.06-1.86v5.69c-3.84.22-2.18,3.2-2.57,5.15v7.73H13Z"/>
        <path class="cls-74"
              d="M15.59,227c-.85-1.06-2.4-2.08-2.45-3.17C12.9,218,13,212.18,13,206.37h2.56c1.71,1.32,4.82,2.57,4.89,4,.26,5.61,1.67,11.58-2.32,16.65Z"/>
        <path class="cls-75"
              d="M15.59,206.37H13v-5.15h2.56c3.52-2.59,3.52-5.14,0-7.73.39-2-1.27-4.93,2.57-5.15h2.56c-.51,6.06,1.67,12.5-2.56,18Z"/>
        <path class="cls-76" d="M15.59,227h5.13v10.3l-5.13-2.57V227Z"/>
        <path class="cls-77"
              d="M20.72,170.31H13v-2.58c.85-1,2.47-2,2.43-3a15.28,15.28,0,0,1,2.7-9.85c2.09-1.27,2.76,4.64,5.85,1,.73-.86,4.57,1,7,1.55v5.15l-5.13,7.73Z"/>
        <path class="cls-78"
              d="M133.6,185.76H118.21c.63-.86,1.18-2.39,1.89-2.46,2.83-.28,5.73,0,8.58-.21a3.13,3.13,0,0,0,2.22-2,3.54,3.54,0,0,0-1.3-3,47.67,47.67,0,0,0-6.26-2.67v-18h2.57c3.71-.32,7.23.13,10.26,2.57h5.13c-.11,4.13.77,8.43-2.08,12.08l2.08.8c0,.42.17,1.08,0,1.21-2.25,1.51-5.48,2.45-6.54,4.53-.86,1.69.86,4.71,1.43,7.14Zm-1.94-18a22.44,22.44,0,0,0,3.76,0,18.64,18.64,0,0,0,3.27-1.19,22.25,22.25,0,0,0-3.13-1.3c-1.17-.29-2.46-.1-3.59-.47-.71-.24-1.1-1.4-1.81-1.67-2.07-.79-4.34-1.06-4.19,2.13C126.17,169.35,129.65,167.09,131.66,167.73Z"/>
        <path class="cls-79"
              d="M110.52,188.34c-.59.86-1,2.18-1.81,2.49-2.74,1.08-5.63,1.8-8.46,2.66v-2.58l-.84-2.13-1.72,2.13-2.57-2.57c-.38-2,1.28-4.93-2.56-5.15V178h2.56l2.57-2.57c2.15.23,3.74-4.2,6.67-.12,1.82,2.54,5.74,3.57,8.72,5.27v2.58C112.23,184.9,111.37,186.62,110.52,188.34Z"/>
        <path class="cls-80"
              d="M79.73,214.1c0,5.29-4.37,9.86-2.57,15.45-3.24,3.49-7,3.49-10.26,0,1.28,0,3.15.55,3.73-.08,4.55-5.06,5-11.33,1.38-16.37-.37-.53-1.38-1.3-1.54-1.18-2.1,1.53-5.2,2.84-5.87,4.92-1,3.08-.26,6.73-.26,10.14H61.77V209H74.6l.84,2.13L77.16,209C81,209.17,79.34,212.14,79.73,214.1Z"/>
        <path class="cls-81"
              d="M128.47,227c-4,5.57-9.6,1.56-14.43,2.12-.19,0-1.25-2.44-.86-3.18,2-3.81,5.32-7,5-11.82h2.57v2.57c0,7.25,0,7.25,5.13,7.73Z"/>
        <path class="cls-82"
              d="M100.25,190.91v2.58c-1.87,1.45-3.67,3-5.63,4.32s-4.18,2.06-5.9,3.53c-1.57,1.35-2.59,3.33-3.86,5v-7.73c3.84-.22,2.18-3.2,2.57-5.15l5.13-5.15h2.56l2.57,2.57Z"/>
        <path class="cls-83"
              d="M79.73,214.1c-.39-2,1.27-4.93-2.57-5.15H64.34v-2.58c.85-1,2.33-2,2.45-3.09a96.76,96.76,0,0,0,.11-9.79h2.57c.2,12.8.2,12.8,12.92,12.88h2.47Z"/>
        <path class="cls-84"
              d="M90,242.43c.28-1.57.07-4.11.93-4.54,4.26-2.17,8.8-4.43,13.75-3.06,2.1.58,3.84,2.52,5.74,3.85a42.24,42.24,0,0,1-5.81,1.13c-3.35.18-6.73-.1-10.07.16-.72.06-1.32,1.6-2,2.46Z"/>
        <path class="cls-31"
              d="M61.77,227h2.57l2.56,2.57c3.25,3.49,7,3.49,10.26,0,5,1.21,1.59,5.2,2.57,7.73v2.58c-4.43-5.15-4.43-5.15-15.39-5.15-1.07-.86-2.2-1.65-3.17-2.6a21.4,21.4,0,0,1-2-2.56Z"/>
        <path class="cls-85"
              d="M120.78,216.67V214.1l-.85-2.14c-.57.71-1.14,1.43-1.72,2.14-6.11-5.23-6.77-9.19-2.56-15.46,0,3-.06,5.92.07,8.87,0,.37,1,.69,1.61,1l.88-2.17a39.65,39.65,0,0,0,4.9,3.56c4.29,2.21.4,4.5.23,6.74Z"/>
        <path class="cls-86" d="M138.74,242.43h-2.57c-.22-3.85-3.19-2.18-5.13-2.57l10.26-7.73v7.73Z"/>
        <path class="cls-87" d="M125.91,198.64l-7.7,2.58-2.56-2.58,2.56-2.57H131v5.15h-2.57Z"/>
        <path class="cls-88"
              d="M149,175.46a96.82,96.82,0,0,1-.12,9.79c-.11,1.1-1.59,2.06-2.45,3.09H141.3v-2.58c3,.17,5.85.37,5.18-4.18a43.06,43.06,0,0,1,0-6.12Z"/>
        <path class="cls-17"
              d="M141.3,237.28v-5.15l2.57-2.58h2.56c.22,3.86,3.19,2.19,5.13,2.58,0,3.44-2.71,2.08-4.45,2.66-1.22.41-2.17,1.63-3.24,2.49Z"/>
        <path class="cls-89"
              d="M128.47,227l-2.56-2.58v-5.15c.26-.69.74-2,.75-2C131.88,219.13,132.43,222.16,128.47,227Z"/>
        <path class="cls-90" d="M131,196.07H118.21C122.4,192.36,126.86,192.36,131,196.07Z"/>
        <path class="cls-91" d="M125.91,219.25v5.15c-5.13-.48-5.13-.48-5.13-7.73h2.56Z"/>
        <path class="cls-92"
              d="M110.52,188.34c.85-1.72,1.71-3.44,2.56-5.15l5.13,2.57C117,190.72,113,187.36,110.52,188.34Z"/>
        <path class="cls-93"
              d="M115.65,198.64l2.56,2.58v5.15l-.88,2.17c-.56-.34-1.59-.66-1.61-1C115.59,204.56,115.65,201.6,115.65,198.64Z"/>
        <path class="cls-94" d="M141.3,185.76v2.58c-2.52-1-6.49,2.38-7.7-2.58h7.7Z"/>
        <path class="cls-95" d="M151.56,232.13c-1.94-.39-4.91,1.28-5.13-2.58V227Z"/>
        <path class="cls-33" d="M90,242.43h2.57V245c-2-.39-4.91,1.28-5.13-2.58Z"/>
        <path class="cls-33" d="M79.73,239.86v-2.58l2.57,2.58-2.57,2.57Z"/>
        <path class="cls-90" d="M125.91,198.64l2.56,2.58Z"/>
        <path class="cls-90" d="M128.47,201.22H131l-1.72,2.13Z"/>
        <path class="cls-94" d="M151.56,193.49v2.58L149,193.49Z"/>
        <path class="cls-94" d="M146.43,190.91l2.57,2.58Z"/>
        <path class="cls-86" d="M143.87,229.55l-2.57,2.58Z"/>
        <path class="cls-94" d="M143.87,188.34h2.56v2.57Z"/>
        <path class="cls-33" d="M87.43,242.43l-2.57-2.57Z"/>
        <path class="cls-96"
              d="M154.13,160c0,4.12.17,8.24-.12,12.33-.08,1.1-1.59,2.09-2.45,3.13v-7.73c-.85-2.58-1.71-5.15-2.56-7.73Z"/>
        <path class="cls-97" d="M151.56,167.73v7.73H149v-7.73Z"/>
        <ellipse class="cls-98" cx="151.56" cy="158.71" rx="3.63" ry="1.82"/>
        <path class="cls-99"
              d="M136.17,160c-3-2.44-6.55-2.89-10.26-2.57a15.37,15.37,0,0,0,2.7-9.86c0-1,1.57-2,2.43-3q7.69-5.42,15.39,0l2.57,2.57c-.86,1-2.27,1.93-2.45,3a46.18,46.18,0,0,0-.12,7.26V160h-2.56C141.29,156.47,138.75,156.47,136.17,160Z"/>
        <ellipse class="cls-100" cx="147.71" cy="158.71" rx="1.81" ry="1.82"/>
        <path class="cls-101" d="M43.81,232.13v5.15c-5.27,0-9.82,4.39-15.39,2.58V229.55H41.25Z"/>
        <path class="cls-102"
              d="M59.21,229.55a21.4,21.4,0,0,0,2,2.56c1,.95,2.1,1.74,3.17,2.6a20.38,20.38,0,0,0-2.55,2c-.94,1-1.73,2.11-2.58,3.18H46.38v-7.73h2.56c2.59,3.53,5.12,3.53,7.7,0Z"/>
        <path class="cls-103" d="M20.72,237.28V227h2.57c0,1.25-.49,3.27.08,3.63,5.05,3.25,1.17,6.21-.08,9.25H20.72Z"/>
        <path class="cls-104"
              d="M20.72,237.28v2.58a25.25,25.25,0,0,1-2.7,3.85c-.36.37-2.31-.08-2.32-.21-.14-2.93-.11-5.86-.11-8.79Z"/>
        <path class="cls-105"
              d="M23.29,227H18.16c4-5.07,2.58-11,2.32-16.65-.07-1.39-3.18-2.64-4.89-4h7.7v12.88L25.86,227Z"/>
        <path class="cls-106" d="M31,229.55H28.42L25.86,227H31Z"/>
        <path class="cls-107"
              d="M46.38,229.55H43.81L41.25,227c.07-4.45-.81-9.09,2.56-12.88v-2.58L48.94,209c2.6,3.36,5.89,5.35,10.27,5.15,0,1.65,0,3.31,0,5-.11,8.19-.46,8.63-9.12,10.46A18.26,18.26,0,0,1,46.38,229.55Z"/>
        <path class="cls-108"
              d="M46.38,229.55a18.26,18.26,0,0,0,3.7,0c8.66-1.83,9-2.27,9.12-10.46,0-1.65,0-3.31,0-5h2.56V227l-2.56,2.57-2.57,2.58H46.38Z"/>
        <path class="cls-108" d="M41.25,227l2.56,2.57v2.58l-2.56-2.58Z"/>
        <path class="cls-109"
              d="M138.74,242.43l2.56-2.57c.22,3.85,3.19,2.19,5.13,2.57L143.87,245C141.92,244.62,139,246.29,138.74,242.43Z"/>
        <path class="cls-110"
              d="M146.43,242.43c-1.94-.38-4.91,1.28-5.13-2.57v-2.58h2.57C147.7,237.5,146.05,240.48,146.43,242.43Z"/>
        <path class="cls-111"
              d="M56.64,67.27,66.9,62.11l2.57,5.16L72,69.84V80.15H66.9c-3.71-.32-7.23.13-10.26,2.57H54.08C52.27,77.13,56.61,72.56,56.64,67.27Z"/>
        <path class="cls-112"
              d="M82.3,51.81l2.56-2.58c4,.42,6.69-1.08,7.7-5.15l5.13,2.58c.38,2-1.27,4.93,2.56,5.15-.38,1.95,1.28,4.93-2.56,5.15L90,62.11c-2.23-.22-5.31,1.14-5.25-3.18,0-.65-1.59-1.31-2.44-2Z"/>
        <path class="cls-113"
              d="M48.94,54.39c.31-3.73-.13-7.27-2.56-10.31V38.93c-.35-1.83,1.16-4.59-1.93-5-1-.13-2.13,1.57-3.2,2.42H38.68V28.63h2.57c1,.85,2,2.34,3.08,2.45a93.15,93.15,0,0,0,9.75.12c-.27,1.55-.23,3.24-.86,4.62-.86,1.89-2.6,3.44-3.13,5.37-.15.56,2.58,1.91,4,2.89-.86,1-2.27,1.93-2.45,3.05a46.18,46.18,0,0,0-.12,7.26Z"/>
        <path class="cls-114"
              d="M56.64,67.27c0,5.29-4.37,9.86-2.56,15.45-3,2.44-6.55,2.89-10.27,2.58V82.72c1.82-.35,4.63,1.2,5.06-2,.6-4.29-2.81-3-5.06-3.2V69.84A45.81,45.81,0,0,0,51,69.73c1.12-.19,2-1.61,3-2.46Z"/>
        <path class="cls-115" d="M82.3,51.81V64.69H79.73c-7.22,0-7.22,0-7.7-5.15Z"/>
        <path class="cls-40"
              d="M23.29,67.27l15.39,2.57v7.73c-1.56-.28-4.39-.36-4.47-.86-.54-3.54-2.2-4.61-5.71-4.45-1.7.07-3.47-1.56-5.21-2.42Z"/>
        <path class="cls-116"
              d="M90,23.47c3,2.44,6.55,2.89,10.26,2.58-.85,2.84-1.57,5.74-2.65,8.49-.31.81-1.62,1.22-2.48,1.81,0-.8.06-1.6,0-2.39-.13-1.53-.34-3.06-.52-4.58L90,31.2Z"/>
        <path class="cls-117" d="M97.69,46.66l-5.13-2.58H87.43c.38-1.95-1.28-4.93,2.56-5.15h5.13Z"/>
        <path class="cls-118"
              d="M51.51,54.39a46.18,46.18,0,0,1,.12-7.26c.18-1.12,1.59-2,2.45-3.05,4,7.39,3.93,7.78-2.57,12.88Z"/>
        <path class="cls-119"
              d="M72,59.54c.48,5.15.48,5.15,7.7,5.15v2.58c-1.94.38-4.91-1.28-5.13,2.57H72l-2.56-2.57L66.9,62.11Z"/>
        <path class="cls-120" d="M23.29,67.27V80.15c-.22,3.85-3.19,2.18-5.13,2.57,4.23-5.52,2.05-12,2.56-18Z"/>
        <path class="cls-121" d="M95.12,38.93H90V31.2l4.6-1.82c.18,1.52.39,3.05.52,4.58.07.79,0,1.59,0,2.39Z"/>
        <path class="cls-122"
              d="M41.25,57l7.69-2.57L51.51,57c-1.71,5.48-6.5,1-9.35,2.92-1,.68-1.83,3.39-3.39.81-.55-.92-.09-2.47-.09-3.73Z"/>
        <path class="cls-123" d="M87.43,44.08h5.13c-1,4.07-3.72,5.57-7.7,5.15C85.25,47.28,83.59,44.3,87.43,44.08Z"/>
        <path class="cls-124"
              d="M54.08,31.2a93.15,93.15,0,0,1-9.75-.12c-1.1-.11-2.06-1.6-3.08-2.45a96,96,0,0,1,9.75.11C52.1,28.86,53.05,30.34,54.08,31.2Z"/>
        <path class="cls-111"
              d="M54.08,67.27c-1,.85-1.92,2.27-3,2.46a45.81,45.81,0,0,1-7.23.11c1-.86,1.92-2.28,3-2.46A45.81,45.81,0,0,1,54.08,67.27Z"/>
        <path class="cls-125" d="M41.25,36.35c1.07-.85,2.25-2.55,3.2-2.42,3.09.41,1.58,3.17,1.93,5H43.81Z"/>
        <path class="cls-54" d="M43.81,15.75c.22-3.86,3.19-2.19,5.13-2.58C48.73,17,45.76,15.36,43.81,15.75Z"/>
        <path class="cls-44" d="M23.29,23.47h5.13c-.22,3.86-3.19,2.19-5.13,2.58Z"/>
        <ellipse class="cls-44" cx="20.72" cy="27.34" rx="2.94" ry="1.12"
                 transform="translate(-11.31 15.06) rotate(-31.86)"/>
        <path class="cls-126" d="M43.81,38.93h2.57v5.15C42.54,43.86,44.2,40.88,43.81,38.93Z"/>
        <path class="cls-127"
              d="M41.25,57H38.68a7.42,7.42,0,0,1,.06-2.5,9.34,9.34,0,0,1,1.67-2.2,12,12,0,0,1,.81,2.18A15.12,15.12,0,0,1,41.25,57Z"/>
        <ellipse class="cls-111" cx="41.25" cy="71.13" rx="3.63" ry="1.82"/>
        <path class="cls-6" d="M18.16,62.11l-2.57-2.57Z"/>
        <path class="cls-124" d="M38.68,36.35h2.57l-1.72,2.14Z"/>
        <path class="cls-44" d="M18.16,33.78V31.2h2.56Z"/>
        <ellipse class="cls-43" cx="19.44" cy="29.91" rx="1.81" ry="1.82"/>
        <path class="cls-124" d="M41.25,28.63H38.68l1.72-2.14Z"/>
        <path class="cls-128"
              d="M31,157.43c-2.41-.59-6.25-2.41-7-1.55-3.09,3.61-3.76-2.3-5.85-1v-2.58c4.55-1.57,2.7-4.59,1.6-7.37a24.53,24.53,0,0,0-1.6-2.93l2.56-2.58,7.7-2.57,5.13,2.57h5.13A57.84,57.84,0,0,0,37.05,145c-.26,1.38-.69,3.66,0,4.15,4.71,3.49-1.07,5.55-.91,8.33Z"/>
        <path class="cls-129"
              d="M33.55,139.39l-5.13-2.57c-1.11-5.42,2.44-11.46-2.21-16.39L31,118.79c1,.85,1.92,2.27,3,2.46a45.83,45.83,0,0,0,7.23.11h2.56l2.57,2.58c0,.84,0,1.69,0,2.53-.34,9.24-.35,9.16-9.59,10.44C35.62,137.08,34.63,138.53,33.55,139.39Z"/>
        <path class="cls-42"
              d="M18.16,100.75c-.86-1.3-2.38-2.57-2.44-3.9-.16-3.62-.77-7.94.92-10.65,1-1.6,6-.69,9.22-.9,0,1.25-.49,3.27.07,3.63,5.06,3.25,1.18,6.21-.07,9.25l-2.57,2.57c-.86,1.1-2.37,2.14-2.45,3.29-.29,4.23,0,8.5-.23,12.74,0,.71-1.6,1.34-2.45,2Z"/>
        <path class="cls-130"
              d="M41.25,121.36a45.83,45.83,0,0,1-7.23-.11c-1.11-.19-2-1.61-3-2.46h2.56c2.14-.28,5.23,1.18,5.15-3-.07-3.29,0-6.58,0-9.87v-2.58l7.7-2.58,2.56,2.58v15.46C45.13,115.89,42.52,116.61,41.25,121.36Z"/>
        <path class="cls-131"
              d="M15.59,134.24c0-3-.07-6,0-8.93a19.73,19.73,0,0,1,.79-3.49l3.6,2.7c5,3.78,6.29,5.43,5.81,7.73-.65,3.2-3.28,1.62-5.11,2Z"/>
        <path class="cls-132"
              d="M38.68,103.33v2.58H36.12l-10.26-5.16V98.18c4.27,1.31,8.55,2.61,12.81,4C38.78,102.2,38.68,102.93,38.68,103.33Z"/>
        <path class="cls-129" d="M36.12,105.91h2.56c0,3.29,0,6.58,0,9.87.08,4.19-3,2.73-5.15,3Z"/>
        <path class="cls-133" d="M18.16,100.75v18H15.59c0-5-.15-9.94.12-14.89C15.77,102.81,17.3,101.8,18.16,100.75Z"/>
        <path class="cls-42" d="M15.59,134.24h5.13v5.15Q14.44,140.56,15.59,134.24Z"/>
        <path class="cls-134" d="M25.86,98.18v2.57H23.29Z"/>
        <path class="cls-135"
              d="M20.72,20.9a7.49,7.49,0,0,1,.06-2.51,10.07,10.07,0,0,1,1.67-2.2,12.06,12.06,0,0,1,.81,2.19,15.11,15.11,0,0,1,0,2.52Z"/>
        <path class="cls-43" d="M20.72,20.9h2.57v5.15H20.72Z"/>
        <path class="cls-134"
              d="M38.68,103.33c0-.4.1-1.13,0-1.17-4.26-1.37-8.54-2.67-12.81-4,1.25-3,5.13-6,.07-9.25-.56-.36-.07-2.38-.07-3.63,3.88,2.45,7.67,4.64,11.73.08.56-.62,2.41-.08,3.66-.08h2.56c3.38,3.79,2.5,8.43,2.57,12.88v2.57Z"/>
        <path class="cls-136"
              d="M23.29,80.15V69.84c1.74.86,3.51,2.49,5.21,2.42,3.51-.16,5.17.91,5.71,4.45.08.5,2.91.58,4.47.86.71,3.55-1.26,4.43-4.18,6-2.51,1.31-3.41,1.11-4.64-.69A6.14,6.14,0,0,0,23.29,80.15Z"/>
        <path class="cls-137" d="M43.81,85.3H41.25c-1-2.54,2.38-6.52-2.57-7.73V72.42h5.13V85.3Z"/>
        <path class="cls-138" d="M17,152.27l-1.18-1.52c.54-.16,1.43-.59,1.55-.43a7.3,7.3,0,0,1,.78,2Z"/>
        <path class="cls-139"
              d="M66.9,80.15H77.16c1.26,0,3-.55,3.69.08,4.88,4.77,9.54,2.48,14.27-.08,4.19,3.7,8.65,3.7,12.83,0h2.57l2.56,2.57h5.13c2.33,6.64,3.29,14.06,10.26,18-.67.86-1.35,2.47-2,2.46-4.17-.07-7.12.85-8.44,5.57-.54,1.93-3.23,3.25-4.94,4.85L108,108.48c1.19-1.62,2-3.78,3.64-4.78,4.91-3.11,4-7.86,4-12.39,0-2.15-5.26-6.09-7.21-5-5.59,3.15-11.46.8-17.14,1.46-1.12.13-2.79-1.72-3.51-1.34C78.62,91.35,72.87,85.45,66.9,80.15Z"/>
        <path class="cls-140"
              d="M125.91,129.09v7.73l-7.7,5.15c.84-6.14-.43-11.38-5.92-15.07-.87-.57-1.2-2-1.77-3v-5.15h2.56c.86.85,1.71,1.71,2.57,2.57,2.46.86,4.88,2.21,7.4,2.46C127.06,124.23,125.62,127,125.91,129.09Z"/>
        <path class="cls-61"
              d="M128.47,100.75c-7-4-7.93-11.39-10.26-18,.86-.86,1.71-1.72,2.57-2.57l2.56,2.57c-.24,5.08.24,9.87,5.13,12.88.22,3.86,3.19,2.19,5.13,2.58L131,100.75Z"/>
        <path class="cls-139" d="M113.08,118.79h-2.56c.38-2-1.28-4.94,2.56-5.16Z"/>
        <path class="cls-139"
              d="M115.65,121.36c-.86-.86-1.71-1.72-2.57-2.57C113.94,119.64,114.79,120.5,115.65,121.36Z"/>
        <path class="cls-141" d="M146.43,105.91c4,1,5.55,3.73,5.13,7.72C147.51,112.62,146,109.9,146.43,105.91Z"/>
        <path class="cls-142" d="M138.74,90.45v7.73h-2.57V90.45Z"/>
        <path class="cls-143" d="M136.17,95.6v2.58H133.6c-1.94-.39-4.91,1.28-5.13-2.58Z"/>
        <path class="cls-144" d="M146.43,100.75c.22-3.85,3.19-2.18,5.13-2.57v2.57L149,103.33h-2.57Z"/>
        <path class="cls-145" d="M146.43,103.33v2.58l-2.13-1.73Z"/>
        <path class="cls-146"
              d="M118.21,142l7.7-5.15,2.56,2.57,2.57,5.16c-.86,1-2.47,2-2.43,3a15.37,15.37,0,0,1-2.7,9.86h-2.57c-1.86.57-3.7,1.22-5.58,1.71-1.53.39-3.12.58-4.68.86C115.31,154.14,118.64,148.59,118.21,142Z"/>
        <path class="cls-147" d="M149,103.33l2.56-2.58Z"/>
        <path class="cls-148"
              d="M108,13.17h12.83c.11,4.13-.78,8.43,2.08,12.08l-2.08.8c-4.73,2.56-9.39,4.86-14.28.09-.64-.63-2.43-.09-3.68-.09V23.47l4.67-.82c-.58-.89-1.59-1.75-1.65-2.67C105.68,17.52,103.26,14.16,108,13.17Z"/>
        <path class="cls-149" d="M102.82,23.47v2.58h-2.57a16.15,16.15,0,0,1,0-2.51,13,13,0,0,1,.79-2.18Z"/>
        <path class="cls-150"
              d="M120.78,26.05l2.08-.8c-2.86-3.65-2-7.95-2.08-12.08,4,1.35,3.44,5.56,5.09,8.38,1.78,3,3.9,5.17,7.73,4.5l2.57,2.58c-3.39-.46-5.7.12-5.27,4.49.1,1-1.57,2.15-2.43,3.23h-2.56V33.78c.85-1.09,1.71-2.17,2.56-3.25-.88-.64-1.69-1.64-2.66-1.82a28.09,28.09,0,0,0-5-.08Z"/>
        <path class="cls-151" d="M138.74,18.32v5.15H133.6l-2.12-1.72C133.36,19.46,135.4,17.5,138.74,18.32Z"/>
        <path class="cls-152" d="M133.6,23.47h5.14v2.58l-2.57,2.58-2.57-2.58Z"/>
        <path class="cls-153" d="M138.74,26.05V23.47h2.56Z"/>
        <path class="cls-154"
              d="M133.6,64.69c-.38,2,1.28,4.93-2.56,5.15h-2.57c-.11-7.62-.11-7.62-7.69-7.73l-2.57-2.57h2.57q6.3,1.17,5.13-5.15L131,62.11Z"/>
        <path class="cls-155"
              d="M133.6,64.69,131,62.11c3.71.31,7.23-.13,10.26-2.57,1,4.06,3.72,5.56,7.7,5.15h2.56c-1.06.86-2.19,1.65-3.17,2.6a22.65,22.65,0,0,0-2,2.55C142.22,68,139.39,62.61,133.6,64.69Z"/>
        <path class="cls-156" d="M128.47,69.84H131v7.73l-7.7,2.58V77.57Z"/>
        <path class="cls-156" d="M133.6,80.15,131,77.57Z"/>
        <path class="cls-157"
              d="M136.17,95.6h-7.7c-4.89-3-5.37-7.8-5.13-12.88,2.44.86,5.09,1.37,7.26,2.68s3.73,3.33,5.57,5Z"/>
        <path class="cls-158" d="M123.34,82.72l-2.56-2.57h2.56Z"/>
        <path class="cls-159"
              d="M141.3,46.66c.53-3.59,3.57-11.21,5.13-12.88v7.73c.28,1.56.47,3.16.86,4.7.48,1.89,1.13,3.73,1.71,5.6h-2.57l-5.13-2.58Z"/>
        <path class="cls-160" d="M146.43,51.81H149V64.69c-4,.41-6.69-1.09-7.7-5.15Z"/>
        <path class="cls-161"
              d="M141.3,46.66V59.54c-3,2.44-6.55,2.88-10.26,2.57l-5.13-7.72c1-2.54-2.38-6.52,2.56-7.73Zm-2,6.75-4-3.76a50.13,50.13,0,0,0-4.15,4.85c-.19.28,1.5,2.43,1.73,2.33C135,55.92,137,54.71,139.27,53.41Z"/>
        <path class="cls-162"
              d="M128.47,46.66c-4.94,1.21-1.58,5.19-2.56,7.73-3.84-.22-2.18-3.2-2.57-5.16V46.66c2.43-3,2.88-6.58,2.57-10.31h2.56Z"/>
        <path class="cls-163"
              d="M23.29,185.76V172.88h2.57c.21,3.86,3.18,2.19,5.13,2.58C28.3,178.8,28.67,184.44,23.29,185.76Z"/>
        <path class="cls-164"
              d="M18.16,179.53c0,1.66.09,3.33-.06,5,0,.45-.77.84-1.18,1.25-.44-.64-1.23-1.25-1.27-1.92a61.89,61.89,0,0,1,0-7.46,13.92,13.92,0,0,1,1-3.29,40.85,40.85,0,0,1,1.45,4A9.77,9.77,0,0,1,18.16,179.53Z"/>
        <path class="cls-165" d="M15.59,193.49c3.52,2.59,3.52,5.14,0,7.73Z"/>
        <path class="cls-166" d="M25.86,172.88H23.29l-2.57-2.57h5.14Z"/>
        <path class="cls-167" d="M20.72,188.34H18.16v-2.58h5.13v2.58Z"/>
        <path class="cls-168"
              d="M20.72,188.34h2.57c5.13,5.56,5.13,5.56,5.13,10.3l-5.13,7.73H18.16C22.39,200.84,20.21,194.4,20.72,188.34Z"/>
        <path class="cls-169"
              d="M25.86,170.31,31,162.58l.75,2c.6-.57,1.24-1.12,1.81-1.73.88-.94,1.71-1.92,2.57-2.89l7.69-2.57c.86,2.57,1.71,5.15,2.57,7.72-2.08,1.17-3-4.72-5.85-.77-1.7,2.36-2.76,3.89-.31,6.26a36.79,36.79,0,0,1,3.59,4.82H31Z"/>
        <path class="cls-170" d="M36.12,160c-.86,1-1.69,1.95-2.57,2.89-.57.61-1.21,1.16-1.81,1.73l-.75-2v-5.15h5.13Z"/>
        <path class="cls-171"
              d="M113.08,160c1.56-.28,3.15-.47,4.68-.86,1.88-.49,3.72-1.14,5.58-1.71v18h-5.13c.55-1.6,2-3.71,1.45-4.68-1.06-1.9-2.74-4.22-5.85-2.56a15.53,15.53,0,0,1-5.36,2c-4.2.46-2.82-2.89-3.07-5.08Z"/>
        <path class="cls-172"
              d="M141.3,185.76h-5.13c-.57-2.43-2.29-5.45-1.43-7.14,1.06-2.08,4.29-3,6.54-4.53.19-.13,0-.79,0-1.21h2.57l2.56,2.58a43.06,43.06,0,0,0,0,6.12C147.15,186.13,144.28,185.93,141.3,185.76Z"/>
        <path class="cls-173"
              d="M118.21,175.46h5.13a47.67,47.67,0,0,1,6.26,2.67,3.54,3.54,0,0,1,1.3,3,3.13,3.13,0,0,1-2.22,2c-2.85.25-5.75-.07-8.58.21-.71.07-1.26,1.6-1.89,2.46l-5.13-2.57v-2.58a21.53,21.53,0,0,1,2-2.55C116,177.1,117.15,176.32,118.21,175.46Z"/>
        <path class="cls-174"
              d="M131.66,167.73c-2-.64-5.49,1.62-5.69-2.55-.15-3.19,2.12-2.92,4.19-2.13.71.27,1.1,1.43,1.81,1.67,1.13.37,2.42.18,3.59.47a22.25,22.25,0,0,1,3.13,1.3,18.64,18.64,0,0,1-3.27,1.19A22.44,22.44,0,0,1,131.66,167.73Z"/>
        <path class="cls-175" d="M143.87,172.88H141.3l-2.08-.8c2.85-3.65,2-8,2.08-12.08h2.57v12.88Z"/>
        <path class="cls-176" d="M143.87,160h-7.7C138.75,156.47,141.29,156.47,143.87,160Z"/>
        <path class="cls-177"
              d="M118.21,175.46c-1.06.86-2.2,1.64-3.17,2.6a21.53,21.53,0,0,0-2,2.55c-3-1.7-6.9-2.73-8.72-5.27-2.93-4.08-4.52.35-6.67.12H95.12L92.56,178H87.43l-2.57-2.57c.3-.73.65-2.12.89-2.1,7.94.57,13.62-4.21,19.63-8.21.25,2.19-1.13,5.54,3.07,5.08a15.53,15.53,0,0,0,5.36-2c3.11-1.66,4.79.66,5.85,2.56C120.21,171.75,118.76,173.86,118.21,175.46Z"/>
        <path class="cls-178" d="M90,178h2.57v5.16C88.72,183,90.38,180,90,178Z"/>
        <path class="cls-178" d="M95.12,188.34H92.56v-5.15C96.4,183.41,94.74,186.38,95.12,188.34Z"/>
        <path class="cls-178" d="M92.56,178l2.56-2.57V178Z"/>
        <path class="cls-179" d="M95.12,178v-2.57h2.57Z"/>
        <path class="cls-180" d="M100.25,190.91H97.69l1.72-2.13Z"/>
        <path class="cls-181"
              d="M66.9,229.55,64.34,227c0-3.41-.74-7.06.26-10.14.67-2.08,3.77-3.39,5.87-4.92.16-.12,1.17.65,1.54,1.18,3.6,5,3.17,11.31-1.38,16.37C70.05,230.1,68.18,229.55,66.9,229.55Z"/>
        <path class="cls-182"
              d="M64.34,206.37V209H61.77c-3-2.45-6.55-2.89-10.26-2.58v-2.58c.86-1.06,1.64-2.2,2.59-3.18a22.34,22.34,0,0,1,2.54-2c1.2,5,5.17,1.6,7.7,2.58Z"/>
        <path class="cls-183" d="M51.51,206.37c3.71-.31,7.24.13,10.26,2.58v2.57L48.94,209v-2.58Z"/>
        <path class="cls-184" d="M48.94,209l12.83,2.57v2.58H59.21C54.83,214.3,51.54,212.31,48.94,209Z"/>
        <path class="cls-185" d="M74.6,209h2.56l-1.72,2.13Z"/>
        <path class="cls-186" d="M118.21,214.1c.58-.71,1.15-1.43,1.72-2.14l.85,2.14Z"/>
        <path class="cls-187"
              d="M92.56,183.19v5.15l-5.13,5.15H82.3c-1.21-5-5.18-1.6-7.7-2.58v-5.15c.85-.64,2.24-1.13,2.47-2,1.15-4,3.36-6.34,7.79-5.77H90C90.38,180,88.72,183,92.56,183.19Z"/>
        <path class="cls-188"
              d="M84.86,206.37H82.39c-12.72-.08-12.72-.08-12.92-12.88L72,190.91H74.6l2.56,2.58c-3.74,7-2.57,9.35,5.29,10.29a19.37,19.37,0,0,0,2.41,0Z"/>
        <path class="cls-189" d="M84.86,203.79a19.37,19.37,0,0,1-2.41,0c-7.86-.94-9-3.24-5.29-10.29H82.3l2.56,5.15Z"/>
        <path class="cls-190" d="M84.86,198.64l-2.56-5.15h5.13C87,195.44,88.7,198.42,84.86,198.64Z"/>
        <path class="cls-183"
              d="M64.34,206.37v-5.15c-.36-1.83,1.18-4.76-2-5-2-.16-5.33-1.81-5.75,2.43a22.34,22.34,0,0,0-2.54,2c-1,1-1.73,2.12-2.59,3.18H48.94v-10.3c2-.39,4.92,1.28,5.14-2.58h7.69l2.57,2.58H66.9a96.76,96.76,0,0,1-.11,9.79C66.67,204.38,65.19,205.34,64.34,206.37Z"/>
        <path class="cls-191" d="M66.9,193.49H64.34l1.94-2.58,3.19,2.58Z"/>
        <path class="cls-192" d="M143.87,172.88v-2.57h2.56l2.57,2.57v2.58h-2.57Z"/>
        <path class="cls-98" d="M146.43,160H149c.85,2.58,1.71,5.15,2.56,7.73h-5.13Z"/>
        <path class="cls-193" d="M146.43,167.73H149v5.15l-2.57-2.57Z"/>
        <path class="cls-100" d="M146.43,167.73v2.58h-2.56V160h2.56Z"/>
        <path class="cls-194"
              d="M43.81,214.1c-3.37,3.79-2.49,8.43-2.56,12.88l-2.57,2.57H31V227c4.66.15,7.76-1.48,7.7-6.77,0-2,0-4.07,0-6.11h5.13Z"/>
        <path class="cls-195" d="M38.68,229.55,41.25,227v2.57Z"/>
        <path class="cls-196" d="M48.94,232.13h7.7C54.06,235.66,51.53,235.66,48.94,232.13Z"/>
        <path class="cls-197"
              d="M38.68,214.1c0,2,0,4.07,0,6.11.06,5.29-3,6.92-7.7,6.77H25.86l-2.57-7.73a11.32,11.32,0,0,1,2.54,0c3.51.83,5.87-1.12,7.36-3.68,1.74-3-1.55-4.26-2.95-6.15a31.53,31.53,0,0,1-1.82-3.08h5.13L36.12,209l2.56,2.57Z"/>
        <path class="cls-198"
              d="M28.42,206.37a31.53,31.53,0,0,0,1.82,3.08c1.4,1.89,4.69,3.16,2.95,6.15-1.49,2.56-3.85,4.51-7.36,3.68a11.32,11.32,0,0,0-2.54,0V206.37Z"/>
        <path class="cls-199" d="M48.94,196.07V209l-5.13,2.57V209c3.37-3.79,2.5-8.43,2.57-12.88Z"/>
        <path class="cls-200" d="M43.81,209v5.15H41.25V209Z"/>
        <path class="cls-201"
              d="M105.38,165.15c-6,4-11.69,8.78-19.63,8.21-.24,0-.59,1.37-.89,2.1-11.32-1.78-22.14,3-33.35,2.57v-5.15c0-7.93.09-15.86,0-23.78C51.41,145.26,53,143,56.64,142c3-1.13,5.87-5.22,9.08,0,1.43,2.32,3.87,3.63,4,7.15.1,4.08,3.1,6.31,7.49,5.74,7.41-.29,7.29-.3,7.77-7,.15-2.08-1.76-5.39,3.67-5.08.78.25.38-.25,0-.75l-1.14,1.15A11.35,11.35,0,0,0,89,144.26c.1.05.52-.49-.37-1.54-1.92-6.27-7.92-1.25-10.19-5.47-1.45-2.69-5.86-3.78-8.94-5.58H66.9c-.38-2,1.28-4.94-2.56-5.16v-2.57l2.56-2.58v-2.57c.86-.86,1.71-1.72,3.47-5.4.28-1.3-.38.14-.83,1.64-.08.25.73.78,1.13,1.18l3.6-4.19c-.66-.32-1.33-.64-3.9,1.37-1.76,3.68-2.61,4.54-3.47,5.4H64.34c-4.35.65-8.07.22-9.05-5.15a6.27,6.27,0,0,0-1.21,0V100.75c0-3-.34-6,.09-8.9.45-3.09,1.62-6.09,2.47-9.13,3-2.44,6.55-2.89,10.26-2.57,6,5.3,11.72,11.2,20.85,6.29.72-.38,2.39,1.47,3.51,1.34,5.68-.66,11.55,1.69,17.14-1.46,1.95-1.1,7.2,2.84,7.21,5,0,4.53.89,9.28-4,12.39-1.59,1-2.45,3.16-3.64,4.78l-7.62,6.37c2.06,2.12,4,4.32,6.22,6.33a31.87,31.87,0,0,0,4,2.76c.57,1,.9,2.39,1.77,3,5.49,3.69,6.76,8.93,5.92,15.07.43,6.62-2.9,12.17-5.13,18ZM87.43,160h-18l-5.13-2.57v-5.16q1.16-6.32-5.13-5.15c-.86,1.06-2.41,2.08-2.45,3.17-.25,5.8-.12,11.62-.12,17.44.21,2.26-.26,6.86,3,4.83,5.26-3.25,10.41-1.62,15.57-2.26,1.85-.23,4.49.9,4.51-2.57a44.65,44.65,0,0,0,7.23-.12c1.11-.18,2-1.6,3-2.46h2.57c1.56-.27,3.67,0,4.58-.92,4.63-4.67,9-9.66,13.38-14.53v-2.58c3.68-4.2,3.68-8.68,0-12.88L108,131.67c-2.67-6.17-8.18-8.42-14-10.33-2.22-.73-4.37-1.7-6.54-2.55,1.79-3.65,4.15-6.44,8.27-7.91,1.87-.67,3.06-3.26,4.55-5l2.57-2.58,2.56-2.58L108,98.18l2.57-3.29c-.91-.62-1.8-1.77-2.71-1.78C97.21,93,86.6,92.75,76,93.18c-3.63.15-6.22-1.37-9.12-2.73V87.87C66,84,62.57,84.41,62,86.76c-1.6,7.09-2,14.46-2.83,21.72v2.58c.42,4.24,3.78,2.59,5.75,2.43,3.13-.26,1.59-3.18,1.94-5v-2.57H87.43l-7.7,10.3H77.16l-2.56,2.58v2.57H72c-4.22.42-2.58,3.8-2.42,5.78.26,3.14,3.17,1.59,5,2h5.13l2.57,2.58h2.56l2.57,2.57H90a35.9,35.9,0,0,1,3.41,4.81,33.19,33.19,0,0,1,1.72,5.5v7.72l-2.56,2.58L90,157.43Z"/>
        <path class="cls-202"
              d="M56.64,82.72c-.85,3-2,6-2.47,9.13-.43,2.91-.09,5.93-.09,8.9l-7.7-2.57c-.07-4.45.81-9.09-2.57-12.88,3.72.31,7.24-.14,10.27-2.58Z"/>
        <path class="cls-203" d="M77.16,80.15H72V69.84H74.6C74.29,73.57,74.73,77.11,77.16,80.15Z"/>
        <path class="cls-204" d="M69.47,67.27,72,69.84Z"/>
        <path class="cls-205"
              d="M90,62.11,97.69,57l7.69,5.15c.39,2-1.27,4.94,2.57,5.16s2.18,3.19,2.57,5.15c-5,1.21-1.59,5.19-2.57,7.73H95.12l-2.56-2.58c0-4.11.17-8.24-.12-12.33C92.36,64.14,90.85,63.15,90,62.11Z"/>
        <path class="cls-206"
              d="M100.25,26.05h2.57v2.58a57.63,57.63,0,0,1-1.56,7.91c-1.42,4.16-1.6,4.1,4.12,5,1,.85,1.93,2.27,3,2.46a45.81,45.81,0,0,0,7.23.11v2.58c-2,.39-4.92-1.28-5.13,2.57-2,.39-4.92-1.27-5.14,2.58h-5.13c-3.83-.22-2.18-3.2-2.56-5.15l-2.57-7.73V36.35c.86-.59,2.17-1,2.48-1.81C98.68,31.79,99.4,28.89,100.25,26.05Z"/>
        <path class="cls-207"
              d="M90,62.11c.86,1,2.37,2,2.45,3.13.29,4.09.12,8.22.12,12.33-.86-1-2.27-1.93-2.45-3A46.08,46.08,0,0,1,90,67.27c-1.2-5-5.17-1.6-7.69-2.58V57c.85.66,2.45,1.32,2.44,2C84.68,63.25,87.76,61.89,90,62.11Z"/>
        <path class="cls-208"
              d="M100.25,51.81h5.13c-.3,3.73.14,7.26,2.57,10.3h-2.57L97.69,57C101.53,56.74,99.87,53.76,100.25,51.81Z"/>
        <path class="cls-209" d="M51.51,57l-2.57-2.57h2.57Z"/>
        <path class="cls-210" d="M43.81,82.72V77.57c2.25.21,5.66-1.09,5.06,3.2C48.44,83.92,45.63,82.37,43.81,82.72Z"/>
        <path class="cls-211"
              d="M82.3,64.69c2.52,1,6.49-2.39,7.69,2.58-2.69,1.71-5.25,3.73-8.13,5-1.15.51-3-.62-4.56-1l2.43-4V64.69Z"/>
        <path class="cls-212"
              d="M79.73,67.27l-2.43,4c1.54.39,3.41,1.52,4.56,1C84.74,71,87.3,69,90,67.27a46.08,46.08,0,0,0,.12,7.25c.18,1.12,1.59,2,2.45,3l2.56,2.58c-4.73,2.56-9.39,4.85-14.27.08-.65-.63-2.43-.08-3.69-.08-2.43-3-2.87-6.58-2.56-10.31S77.79,67.65,79.73,67.27Z"/>
        <path class="cls-213"
              d="M46.38,98.18l7.7,2.57v12.88C53,116.19,57,120.75,51,121.47c-.75.08-1.86,1.56-1.91,2.44-.22,3.79-.88,7.84.2,11.29.64,2,4.3,3,6.49,4.65.53.4.62,1.4.91,2.12-3.61,1-5.23,3.29-5.17,7.13.13,7.92,0,15.85,0,23.78H48.94c-1-2.53,2.38-6.52-2.56-7.73-.86-2.57-1.71-5.15-2.57-7.72-3-3.72-2.45-8.14-2.64-12.47-.09-2,1.6-5.22-2.49-5.57H33.55c1.08-.86,2.07-2.31,3.24-2.48,9.24-1.28,9.25-1.2,9.59-10.44,0-.84,0-1.69,0-2.53l-2.57-2.58H41.25c1.27-4.75,3.88-5.47,7.69-2.57l2.13-.85-2.13-1.73v-2.58c3.48-3.26,3.48-7,0-10.3l-2.56-2.58Z"/>
        <path class="cls-129"
              d="M38.68,139.39c4.09.35,2.4,3.54,2.49,5.57.19,4.33-.33,8.75,2.64,12.47L36.12,160v-2.57c-.16-2.78,5.62-4.84.91-8.33-.67-.49-.24-2.77,0-4.15A57.84,57.84,0,0,1,38.68,139.39Z"/>
        <path class="cls-202" d="M43.81,121.36l2.57,2.58Z"/>
        <path class="cls-202" d="M48.94,103.33c3.48,3.26,3.48,7,0,10.3Z"/>
        <path class="cls-202" d="M48.94,116.21l2.13,1.73-2.13.85Z"/>
        <path class="cls-214"
              d="M128.47,69.84l-5.13,7.73c-.85,0-1.71,0-5.24-3.32-2.41-.88-2.39.81-2,2.4.12.46,1.4.93,2.08.84a3.89,3.89,0,0,0,2.48-1.26c.41-.55-.25-1.9.15-2.46,1.08-1.51,3.68-2.68.55-4.56-1.34-.81-3.08-2-4.24-1.71-1,.28-1.34,2.58.95,6.75,2.68,4.18,2.68,5,2.68,5.9-.86.85-1.71,1.71-2.57,2.57h-2.56l-2.57-2.57V64.69c2.53-1,6.49,2.39,7.7-2.58C128.36,62.22,128.36,62.22,128.47,69.84Z"/>
        <path class="cls-215"
              d="M110.52,123.94a31.87,31.87,0,0,1-4-2.76c-2.17-2-4.16-4.21-6.22-6.33l7.62-6.37,5.13,5.15c-3.84.22-2.18,3.2-2.56,5.16Z"/>
        <path class="cls-212" d="M95.12,80.15H108C103.77,83.85,99.31,83.85,95.12,80.15Z"/>
        <path class="cls-216" d="M108,80.15c1-2.54-2.38-6.52,2.57-7.73v7.73Z"/>
        <path class="cls-217" d="M113.08,80.15l2.57,2.57h-2.57Z"/>
        <path class="cls-212" d="M113.08,80.15v2.57l-2.56-2.57Z"/>
        <path class="cls-218"
              d="M102.82,28.63V26.05c1.25,0,3-.54,3.68.09,4.89,4.77,9.55,2.47,14.28-.09v2.58c-.22,3.85-3.19,2.18-5.13,2.57l-2.57,2.58-7.7-2.58Z"/>
        <path class="cls-219"
              d="M115.65,44.08a45.81,45.81,0,0,1-7.23-.11c-1.11-.19-2-1.61-3-2.46l7.7-2.58.85,2.14,1.72-2.14c2.82-2.41,5.64-4.82,8.54-7.13,0,0,1.12,1.29,1.72,2v2.57c.31,3.73-.14,7.27-2.57,10.31h-2.56l-2.57-2.58Z"/>
        <path class="cls-220"
              d="M125.91,33.78c-.6-.69-1.69-2-1.72-2-2.9,2.31-5.72,4.72-8.54,7.13V31.2c1.94-.39,4.91,1.28,5.13-2.57a28.09,28.09,0,0,1,5,.08c1,.18,1.78,1.18,2.66,1.82C127.62,31.61,126.76,32.69,125.91,33.78Z"/>
        <path class="cls-221"
              d="M118.21,44.08l2.57,2.58,2.56,2.57c.39,2-1.27,4.94,2.57,5.16q1.17,6.31-5.13,5.15c-1.31-5.4-6.93-5-10.26-7.73V49.23c1.94-.38,4.91,1.28,5.13-2.57Z"/>
        <path class="cls-222"
              d="M110.52,51.81c3.33,2.69,9,2.33,10.26,7.73h-2.57c-1.94.39-4.91-1.28-5.13,2.57H108c-2.43-3-2.87-6.57-2.57-10.3Z"/>
        <path class="cls-223" d="M113.08,62.11c.22-3.85,3.19-2.18,5.13-2.57l2.57,2.57c-1.21,5-5.17,1.6-7.7,2.58Z"/>
        <ellipse class="cls-217" cx="122.06" cy="78.86" rx="1.81" ry="1.82"/>
        <path class="cls-224" d="M141.3,59.54V49.23l5.13,2.58Z"/>
        <path class="cls-225"
              d="M139.27,53.41c-2.32,1.3-4.29,2.51-6.39,3.42-.23.1-1.92-2-1.73-2.33a50.13,50.13,0,0,1,4.15-4.85Z"/>
        <path class="cls-226" d="M123.34,49.23l-2.56-2.57h2.56Z"/>
        <path class="cls-227"
              d="M31,175.46h2.56v7.73L31,185.76c-1.21,5-5.18,1.6-7.7,2.58v-2.58C28.67,184.44,28.3,178.8,31,175.46Z"/>
        <path class="cls-227" d="M25.86,170.31,31,175.46c-1.95-.39-4.92,1.28-5.13-2.58Z"/>
        <path class="cls-228"
              d="M23.29,188.34c2.52-1,6.49,2.38,7.7-2.58h2.56v5.15c-4.94,1.21-1.59,5.2-2.56,7.73H28.42C28.42,193.9,28.42,193.9,23.29,188.34Z"/>
        <path class="cls-229" d="M28.42,206.37H23.29l5.13-7.73c.39,2-1.27,4.93,2.57,5.15l2.56,2.58Z"/>
        <path class="cls-230"
              d="M43.81,175.46a36.79,36.79,0,0,0-3.59-4.82c-2.45-2.37-1.39-3.9.31-6.26,2.86-3.95,3.77,1.94,5.85.77v10.31Z"/>
        <path class="cls-231" d="M43.81,175.46h2.57l2.56-2.58h2.57V178h-18v-2.57Z"/>
        <path class="cls-178" d="M87.43,178H84.86v-2.57Z"/>
        <path class="cls-232"
              d="M56.64,198.64c.42-4.24,3.78-2.59,5.75-2.43,3.13.25,1.59,3.18,2,5C61.81,200.24,57.84,203.6,56.64,198.64Z"/>
        <ellipse class="cls-233" cx="50.23" cy="205.08" rx="1.81" ry="1.82"/>
        <path class="cls-179"
              d="M84.86,175.46V178c-4.43-.57-6.64,1.74-7.79,5.77-.23.83-1.62,1.32-2.47,2-3.84.22-2.18,3.2-2.57,5.15l-2.56,2.58-3.19-2.58-1.94,2.58-2.57-2.58-.84-2.13-1.72,2.13H54.08v-5.15l2.56-1.95-2.56-3.2L51.51,178C62.72,178.45,73.54,173.68,84.86,175.46Z"/>
        <path class="cls-234" d="M82.3,193.49H77.16l-2.56-2.58C77.12,191.89,81.09,188.53,82.3,193.49Z"/>
        <path class="cls-235" d="M72,190.91c.39-1.95-1.27-4.93,2.57-5.15v5.15Z"/>
        <path class="cls-236" d="M54.08,188.34v2.57c-.22,3.86-3.19,2.19-5.14,2.58.86-1.72,1.71-3.44,2.57-5.15Z"/>
        <ellipse class="cls-237" cx="47.66" cy="194.78" rx="1.81" ry="1.82"/>
        <path class="cls-238" d="M59.21,190.91l1.72-2.13.84,2.13Z"/>
        <ellipse class="cls-107" cx="39.97" cy="212.81" rx="1.81" ry="1.82"/>
        <path class="cls-239" d="M41.25,211.52H38.68L36.12,209l-2.57-2.58c2.53,1,6.5-2.39,7.7,2.58Z"/>
        <path class="cls-107" d="M36.12,209l2.56,2.57Z"/>
        <path class="cls-240"
              d="M41.25,209c-1.2-5-5.17-1.6-7.7-2.58L31,203.79v-5.15c1-2.53-2.38-6.52,2.56-7.73,1,.86,2.05,2.48,3,2.44a15.15,15.15,0,0,1,9.82,2.72c-.07,4.45.8,9.09-2.57,12.88Z"/>
        <path class="cls-241"
              d="M87.43,118.79c2.17.85,4.32,1.82,6.54,2.55,5.8,1.91,11.31,4.16,14,10.33v15.45q-4.23,4.89-8.47,9.79l-1.79-2.06-2.57-2.58v-5.15l2.13-.85-2.13-1.72a33.19,33.19,0,0,0-1.72-5.5c-.87-1.74-2.25-3.22-2.66-6,.25-.78-.25-.37-.75,0l1.15,1.15a13.14,13.14,0,0,0,1.14-1.55c0-.09-.5-.52-1.54.37a4.7,4.7,0,0,1-3.31,1.18l-2.57-2.57H82.3v-2.58l2.12-.85-2.12-1.73v-5.15C84.24,121,87.21,122.64,87.43,118.79Z"/>
        <path class="cls-242"
              d="M56.64,142c-.29-.72-.38-1.72-.91-2.12-2.19-1.62-5.85-2.63-6.49-4.65-1.08-3.45-.42-7.5-.2-11.29.05-.88,1.16-2.36,1.91-2.44,6-.72,2-5.28,3.13-7.84a6.27,6.27,0,0,1,1.21,0c1,5.37,4.7,5.8,9.05,5.15v7.72c.38,2-1.28,4.94,2.56,5.16h2.57c.55,2.7,1.11,5.4,1.65,8.1,1.09,5.4,6.46,9.07,6,15.08-4.39.57-7.39-1.66-7.49-5.74-.08-3.52-2.52-4.83-4-7.15C62.51,136.75,59.65,140.84,56.64,142Z"/>
        <path class="cls-243"
              d="M59.21,108.48c.85-7.26,1.23-14.63,2.83-21.72.53-2.35,4-2.81,4.86,1.11a19.69,19.69,0,0,0-2.48,2.95c-.2.34.57,1.25.9,1.9l1.58-2.27c2.9,1.36,5.49,2.88,9.12,2.73,10.58-.43,21.19-.2,31.79-.07.91,0,1.8,1.16,2.71,1.78L108,98.18,107.11,96l-1.73,2.14-2.56,2.57-2.57,2.58H97.69l-5.13-2.58H66.9c-1.71,1.94-3.37,3.93-5.15,5.8A19.5,19.5,0,0,1,59.21,108.48Z"/>
        <path class="cls-244"
              d="M77.16,154.85c.42-6-5-9.68-6-15.08-.54-2.7-1.1-5.4-1.65-8.1,3.08,1.8,7.49,2.89,8.94,5.58,2.27,4.22,8.27-.8,9,4.72-4.26.44-2.35,3.75-2.5,5.83C84.45,154.55,84.57,154.56,77.16,154.85Z"/>
        <path class="cls-245"
              d="M92.56,100.75l5.13,2.58,2.56,2.58c-1.49,1.71-2.68,4.3-4.55,5-4.12,1.47-6.48,4.26-8.27,7.91-.22,3.85-3.19,2.18-5.13,2.57v-2.57l-2.57-2.58,7.7-10.3H90l2.57-2.58Z"/>
        <path class="cls-246"
              d="M97.69,154.85l1.79,2.06q4.24-4.89,8.47-9.79l2.57,2.58c-4.43,4.87-8.75,9.86-13.38,14.53-.91.92-3,.65-4.58.92L91.71,163,90,165.15H82.3v-2.57h2.56L87.43,160,90,157.43l2.57-2.58h5.13Z"/>
        <path class="cls-247"
              d="M64.34,157.43,69.47,160c.22,3.86,3.18,2.19,5.13,2.58v2.57H61.77l-5.13,2.58c0-5.82-.13-11.64.12-17.44,0-1.09,1.59-2.11,2.45-3.17,0,3.4-.14,6.8.08,10.18.06.94,1.16,1.8,1.79,2.7Z"/>
        <path class="cls-248"
              d="M56.64,167.73l5.13-2.58c1,.86,2,2.4,3.14,2.46,4.93.27,9.88.12,14.82.12,0,3.47-2.66,2.34-4.51,2.57-5.16.64-10.31-1-15.57,2.26C56.38,174.59,56.85,170,56.64,167.73Z"/>
        <path class="cls-249"
              d="M79.73,167.73c-4.94,0-9.89.15-14.82-.12-1.09-.06-2.1-1.6-3.14-2.46H90c-1,.86-1.92,2.28-3,2.46A44.65,44.65,0,0,1,79.73,167.73Z"/>
        <path class="cls-250" d="M90,105.91H66.9v-2.58H90Z"/>
        <path class="cls-251"
              d="M64.34,157.43,61.08,160c-.63-.9-1.73-1.76-1.79-2.7-.22-3.38-.08-6.78-.08-10.18q6.29-1.17,5.13,5.15l-2.57,1.95Z"/>
        <path class="cls-252"
              d="M66.9,103.33v5.15l-7.69,2.58v-2.58a19.5,19.5,0,0,0,2.54-1.93c1.78-1.87,3.44-3.86,5.15-5.8Z"/>
        <path class="cls-253" d="M110.52,149.7,108,147.12V131.67l2.57,2.57V149.7Z"/>
        <path class="cls-254" d="M82.3,126.51l2.12,1.73-2.12.85H77.16l-2.56-2.58L72,123.94l2.57-2.58h2.56l2.57,2.58Z"/>
        <path class="cls-250" d="M74.6,162.58c-1.95-.39-4.91,1.28-5.13-2.58H84.86v2.58H74.6Z"/>
        <path class="cls-241" d="M110.52,147.12V134.24C114.2,138.44,114.2,142.92,110.52,147.12Z"/>
        <path class="cls-250" d="M72,123.94l2.57,2.57v2.58c-1.82-.36-4.73,1.19-5-2-.16-2-1.8-5.36,2.42-5.78Z"/>
        <path class="cls-250"
              d="M59.21,111.06l7.69-2.58c-.35,1.83,1.19,4.75-1.94,5C63,113.65,59.63,115.3,59.21,111.06Z"/>
        <path class="cls-250"
              d="M71.27,110.57l3,1.45-3.6,4.19c-.4-.4-1.21-.93-1.13-1.18C70,113.53,70.65,112.09,71.27,110.57Z"/>
        <path class="cls-255" d="M64.34,157.43l-2.57-3.21,2.57-1.95Z"/>
        <path class="cls-256" d="M66.9,90.45l-1.58,2.27c-.33-.65-1.1-1.56-.9-1.9a19.69,19.69,0,0,1,2.48-2.95Z"/>
        <path class="cls-257" d="M105.38,98.18,107.11,96l.84,2.14-2.57,2.57Z"/>
        <path class="cls-258" d="M100.25,103.33l2.57-2.58h2.56l-2.56,2.58Z"/>
        <path class="cls-258" d="M100.25,103.33h2.57l-2.57,2.58-2.56-2.58Z"/>
        <path class="cls-250" d="M66.9,131.67c-3.84-.22-2.18-3.2-2.56-5.16C68.18,126.73,66.52,129.71,66.9,131.67Z"/>
        <path class="cls-259" d="M79.73,116.21l2.57,2.58H77.16v-2.58Z"/>
        <path class="cls-260" d="M72,123.94v-2.58H74.6Z"/>
        <path class="cls-244" d="M64.34,123.94v-2.58H66.9Z"/>
        <ellipse class="cls-260" cx="75.88" cy="120.07" rx="1.81" ry="1.82"/>
        <ellipse class="cls-250" cx="65.62" cy="120.07" rx="1.81" ry="1.82"/>
        <path class="cls-244" d="M77.16,118.79H74.6l2.56-2.58Z"/>
        <path class="cls-250" d="M66.9,118.79l2.57-2.58Z"/>
        <path class="cls-250" d="M79.73,129.09H82.3v2.58Z"/>
        <path class="cls-250" d="M84.86,131.67l2.57,2.57Z"/>
        <path class="cls-244" d="M89.78,143.47c-.29.3-.71.84-.81.79a11.35,11.35,0,0,1-1.54-1.14L88.57,142Z"/>
        <path class="cls-244" d="M95.12,144.55l2.13,1.72-2.13.85Z"/>
        <path class="cls-250" d="M95.12,154.85H92.56l2.56-2.58Z"/>
        <path class="cls-250" d="M92.56,154.85,90,157.43Z"/>
        <path class="cls-250" d="M90,157.43,87.43,160Z"/>
        <path class="cls-248" d="M84.86,162.58V160h2.57Z"/>
        <path class="cls-249" d="M90,165.15,91.71,163l.85,2.13Z"/>
        <path class="cls-260" d="M74.6,129.09v-2.58l2.56,2.58Z"/>
        <path class="cls-217" d="M113.08,80.15h-2.56V72.42c-.39-2,1.27-4.93-2.57-5.15V64.69h5.13Z"/>
        <path class="cls-261" d="M108,64.69v2.58c-3.84-.22-2.18-3.2-2.57-5.16H108Z"/>
        <path class="cls-262"
              d="M102.82,28.63l2.56,2.57c-.93,3.44,3.87,6.87,0,10.31-5.72-.87-5.54-.81-4.12-5A57.63,57.63,0,0,0,102.82,28.63Z"/>
        <path class="cls-263" d="M115.65,46.66c-.22,3.85-3.19,2.19-5.13,2.57C110.73,45.38,113.7,47.05,115.65,46.66Z"/>
        <path class="cls-264" d="M110.52,51.81h-5.14c.22-3.85,3.19-2.19,5.14-2.58Z"/>
        <path class="cls-265" d="M118.21,44.08l-2.56,2.58V44.08Z"/>
        <path class="cls-169" d="M48.94,172.88l-2.56,2.58V165.15C51.32,166.36,48,170.35,48.94,172.88Z"/>
        <path class="cls-266"
              d="M115.43,70.92c.38-.84.76-3.14,1.72-3.42,1.16-.34,2.9.9,4.24,1.71,3.13,1.88.53,3.05-.55,4.56-.4.56.26,1.91-.15,2.46a3.89,3.89,0,0,1-2.48,1.26c-.68.09-2-.38-2.08-.84A41.77,41.77,0,0,1,115.43,70.92Z"/>
        <path class="cls-206" d="M105.38,41.51c3.87-3.44-.93-6.87,0-10.31l7.7,2.58v5.15Z"/>
        <path class="cls-267" d="M113.08,38.93V33.78l2.57-2.58v7.73l-1.72,2.14Z"/>
        <ellipse class="cls-268" cx="110.52" cy="63.4" rx="3.63" ry="1.82"/>
        <path class="cls-269" d="M33.55,178h2.57c-1,2.54,2.38,6.52-2.57,7.73V178Z"/>
        <path class="cls-270" d="M33.55,183.19v2.57H31Z"/>
        <path class="cls-270"
              d="M33.55,185.76c5-1.21,1.59-5.19,2.57-7.73H51.51l2.57,2.58v7.73H51.51c-2.33-8.53-2.69-8.75-9.67-5.12a19.61,19.61,0,0,0-3.16,2.58c1.07.84,2.21,1.62,3.19,2.56a21.39,21.39,0,0,1,1.94,2.55H33.55Z"/>
        <path class="cls-168" d="M31,198.64v5.15c-3.84-.22-2.18-3.2-2.57-5.15Z"/>
        <path class="cls-271" d="M54.08,185.76v-5.15l2.56,3.2Z"/>
        <path class="cls-272"
              d="M43.81,190.91a21.39,21.39,0,0,0-1.94-2.55c-1-.94-2.12-1.72-3.19-2.56a19.61,19.61,0,0,1,3.16-2.58c7-3.63,7.34-3.41,9.67,5.12-.86,1.71-1.71,3.43-2.57,5.15H46.38Z"/>
        <path class="cls-273" d="M43.81,190.91l2.57,2.58v2.58a15.15,15.15,0,0,0-9.82-2.72c-1,0-2-1.58-3-2.44Z"/>
        <path class="cls-260" d="M82.3,126.51l-2.57-2.57v-2.58H82.3Z"/>
        <path class="cls-274" d="M91.48,131.88c.3.29.85.72.8.81a13.14,13.14,0,0,1-1.14,1.55L90,133.09Z"/>
        <path class="cls-275" d="M95.12,154.85v-2.58l2.57,2.58Z"/>
        <path class="cls-276" d="M66.9,103.33v-2.58H92.56v2.58H66.9Z"/>
        <path class="cls-258" d="M105.38,100.75h-2.56l2.56-2.57Z"/>
        <ellipse class="cls-241" cx="81.01" cy="120.07" rx="1.81" ry="1.82"/>
        <path class="cls-243" d="M90,103.33h2.57L90,105.91Z"/>
        <ellipse class="cls-248" cx="78.45" cy="163.87" rx="5.44" ry="1.82"/>
        <path class="cls-241" d="M79.73,121.36v2.58l-2.57-2.58Z"/>
        <ellipse class="cls-277" cx="78.45" cy="120.07" rx="1.81" ry="1.82"/>
    </g>
</svg>