<svg id="Calque_1" data-name="Calque 1" xmlns="http://www.w3.org/2000/svg" viewBox="0 0 167.24 257.95">
    <defs>
        <style>
            .cls-1{fill:#fefefe;}.cls-2{fill:#18272a;}.cls-3{fill:#0e0e0e;}.cls-4{fill:#222;}.cls-5{fill:#191a1a;}.cls-6{fill:#191a1b;}.cls-7{fill:#aaaeac;}.cls-8{fill:#fbfdf0;}.cls-9{fill:#e4e7e2;}.cls-10{fill:#2e2e2e;}.cls-11{fill:#dcefcf;}.cls-12{fill:#aad58e;}.cls-13{fill:#b8d1a3;}.cls-14{fill:#a3cf8e;}.cls-15{fill:#58cf63;}.cls-16{fill:#87c170;}.cls-17{fill:#c4e5c8;}.cls-18{fill:#f5f8f4;}.cls-19{fill:#53bb64;}.cls-20{fill:#a8cf97;}.cls-21{fill:#1fb13e;}.cls-22{fill:#79d181;}.cls-23{fill:#f7f8f1;}.cls-24{fill:#57ad00;}.cls-25{fill:#3cb408;}.cls-26{fill:#59b818;}.cls-27{fill:#44b90f;}.cls-28{fill:#45b209;}.cls-29{fill:#4ab30b;}.cls-30{fill:#70ca36;}.cls-31{fill:#69cb3e;}.cls-32{fill:#7ab737;}.cls-33{fill:#68af25;}.cls-34{fill:#f8f9f8;}.cls-35{fill:#46b613;}.cls-36{fill:#1fb137;}.cls-37{fill:#3db154;}.cls-38{fill:#50b60e;}.cls-39{fill:#50b03d;}.cls-40{fill:#05b700;}.cls-41{fill:#44cd54;}.cls-42{fill:#43b503;}.cls-43{fill:#46b60b;}.cls-44{fill:#47b505;}.cls-45{fill:#62cb31;}.cls-46{fill:#65d02d;}.cls-47{fill:#45b60f;}.cls-48{fill:#4cc245;}.cls-49{fill:#29b40e;}.cls-50{fill:#42b30f;}.cls-51{fill:#49b90a;}.cls-52{fill:#30b451;}.cls-53{fill:#26b12e;}.cls-54{fill:#24b143;}.cls-55{fill:#37ac0f;}.cls-56{fill:#2fae36;}.cls-57{fill:#74bd3b;}.cls-58{fill:#58ac00;}.cls-59{fill:#2db454;}.cls-60{fill:#6cc379;}.cls-61{fill:#414242;}.cls-62{fill:#444144;}.cls-63{fill:#6acb44;}.cls-64{fill:#f1f2f1;}.cls-65{fill:#50cb47;}.cls-66{fill:#69c374;}.cls-67{fill:#929390;}.cls-68{fill:#50af61;}.cls-69{fill:#3cb11e;}.cls-70{fill:#9ad49c;}.cls-71{fill:#9ce5a3;}.cls-72{fill:#1db13c;}.cls-73{fill:#61bc6c;}.cls-74{fill:#4fbc42;}.cls-75{fill:#2db030;}.cls-76{fill:#05b035;}.cls-77{fill:#42af39;}.cls-78{fill:#2cb03f;}.cls-79{fill:#00b33b;}.cls-80{fill:#53d667;}.cls-81{fill:#65b73c;}.cls-82{fill:#75c150;}.cls-83{fill:#21151d;}.cls-84{fill:#131313;}.cls-85{fill:#3db700;}.cls-86{fill:#1ebb00;}.cls-87{fill:#44b605;}.cls-88{fill:#20b800;}.cls-89{fill:#49b304;}.cls-90{fill:#17bb00;}.cls-91{fill:#64cb46;}.cls-92{fill:#22b340;}.cls-93{fill:#24b445;}.cls-94{fill:#2db111;}.cls-95{fill:#383838;}.cls-96{fill:#6bc27b;}.cls-97{fill:#17b44e;}.cls-98{fill:#3b3a3a;}.cls-99{fill:#66cb48;}.cls-100{fill:#80cf72;}.cls-101{fill:#70c361;}.cls-102{fill:#fdf6f9;}.cls-103{fill:#0bb900;}.cls-104{fill:#66c274;}.cls-105{fill:#6ec47b;}.cls-106{fill:#88ce79;}.cls-107{fill:#75dc7f;}.cls-108{fill:#5cd05a;}.cls-109{fill:#00b22c;}.cls-110{fill:#7bd083;}.cls-111{fill:#04b946;}.cls-112{fill:#1aad2c;}.cls-113{fill:#81dc89;}.cls-114{fill:#24b015;}.cls-115{fill:#40b501;}.cls-116{fill:#67c938;}.cls-117{fill:#67d12e;}.cls-118{fill:#57c132;}.cls-119{fill:#43b306;}.cls-120{fill:#79c847;}.cls-121{fill:#10bc00;}.cls-122{fill:#4bb203;}.cls-123{fill:#71cd44;}.cls-124{fill:#6dc33e;}.cls-125{fill:#17b136;}.cls-126{fill:#70ce77;}.cls-127{fill:#00b316;}.cls-128{fill:#2caf36;}.cls-129{fill:#02b405;}.cls-130{fill:#53bc2f;}.cls-131{fill:#5ccd4e;}.cls-132{fill:#3fb723;}.cls-133{fill:#6bcf4a;}.cls-134{fill:#57c435;}.cls-135{fill:#79e067;}.cls-136{fill:#21b856;}.cls-137{fill:#a9dca7;}.cls-138{fill:#50c970;}.cls-139{fill:#40b457;}.cls-140{fill:#56d762;}.cls-141{fill:#31b24e;}.cls-142{fill:#03b12e;}.cls-143{fill:#71d36f;}.cls-144{fill:#52c94e;}.cls-145{fill:#56d65d;}.cls-146{fill:#dfecde;}.cls-147{fill:#45c05b;}.cls-148{fill:#09b443;}.cls-149{fill:#6dd47c;}.cls-150{fill:#59bd6a;}.cls-151{fill:#7a7a7a;}.cls-152{fill:#10b500;}.cls-153{fill:#5bc83d;}.cls-154{fill:#0db037;}.cls-155{fill:#22b037;}.cls-156{fill:#33b119;}.cls-157{fill:#58ce5b;}.cls-158{fill:#3caf0e;}.cls-159{fill:#2eac4c;}.cls-160{fill:#2ab12a;}.cls-161{fill:#3faa4d;}.cls-162{fill:#5dcd63;}.cls-163{fill:#ebf2eb;}.cls-164{fill:#a9daae;}.cls-165{fill:#80ca87;}.cls-166{fill:#6bda75;}.cls-167{fill:#90d58f;}.cls-168{fill:#0fb122;}.cls-169{fill:#57d053;}.cls-170{fill:#6ec275;}.cls-171{fill:#44bb63;}.cls-172{fill:#03b11a;}.cls-173{fill:#78d57e;}.cls-174{fill:#7ed38b;}.cls-175{fill:#3ab107;}.cls-176{fill:#46b710;}.cls-177{fill:#62c174;}.cls-178{fill:#74c67e;}.cls-179{fill:#4cc343;}.cls-180{fill:#87d48c;}.cls-181{fill:#74d482;}.cls-182{fill:#5dd368;}.cls-183{fill:#01b600;}.cls-184{fill:#6cce44;}.cls-185{fill:#63d657;}.cls-186{fill:#6fd84f;}.cls-187{fill:#909090;}.cls-188{fill:#dedede;}.cls-189{fill:#101010;}.cls-190{fill:#61ca75;}.cls-191{fill:#8fce93;}.cls-192{fill:#7ece90;}.cls-193{fill:#7cd88a;}.cls-194{fill:#a4d7a5;}.cls-195{fill:#98d79d;}.cls-196{fill:#6ec679;}.cls-197{fill:#77c17a;}.cls-198{fill:#a9e8a6;}.cls-199{fill:#37b304;}.cls-200{fill:#7acb4d;}.cls-201{fill:#46af14;}.cls-202{fill:#29b800;}.cls-203{fill:#59c32f;}.cls-204{fill:#7fd642;}.cls-205{fill:#2ab702;}.cls-206{fill:#5eba69;}.cls-207{fill:#7ad984;}.cls-208{fill:#9fd7a1;}.cls-209{fill:#2cb242;}.cls-210{fill:#4fbd5f;}.cls-211{fill:#58c863;}.cls-212{fill:#5bd058;}.cls-213{fill:#6ece58;}.cls-214{fill:#2dad0c;}.cls-215{fill:#1cb402;}.cls-216{fill:#2fb108;}.cls-217{fill:#2eb111;}.cls-218{fill:#80de6f;}.cls-219{fill:#42b819;}.cls-220{fill:#02b440;}.cls-221{fill:#59cd6d;}.cls-222{fill:#6edd82;}.cls-223{fill:#23b039;}.cls-224{fill:#50cd5e;}.cls-225{fill:#80d288;}.cls-226{fill:#75cf86;}.cls-227{fill:#433e42;}.cls-228{fill:#f0f6f0;}.cls-229{fill:#272126;}.cls-230{fill:#0b0706;}.cls-231{fill:#0c090d;}.cls-232{fill:#dbdadb;}.cls-233{fill:#3a3b3a;}.cls-234{fill:#66d479;}.cls-235{fill:#1faf29;}.cls-236{fill:#49cd4e;}.cls-237{fill:#29af32;}.cls-238{fill:#5ecb69;}.cls-239{fill:#67d671;}.cls-240{fill:#242224;}.cls-241{fill:#1f1b1f;}.cls-242{fill:#d0ead0;}.cls-243{fill:#090507;}.cls-244{fill:#daeedc;}.cls-245{fill:#151218;}.cls-246{fill:#e4f5de;}.cls-247{fill:#131317;}.cls-248{fill:#160d16;}.cls-249{fill:#85db8e;}.cls-250{fill:#47c141;}.cls-251{fill:#86d763;}.cls-252{fill:#73d27c;}.cls-253{fill:#2daf31;}.cls-254{fill:#1ab453;}.cls-255{fill:#4cb82a;}.cls-256{fill:#7fd293;}.cls-257{fill:#cee9ce;}.cls-258{fill:#62d249;}.cls-259{fill:#5fce3b;}.cls-260{fill:#00b332;}.cls-261{fill:#79d782;}.cls-262{fill:#6adc68;}.cls-263{fill:#1bb110;}.cls-264{fill:#0bb100;}.cls-265{fill:#51c348;}.cls-266{fill:#67d355;}.cls-267{fill:#e7e6e7;}.cls-268{fill:#150d16;}.cls-269{fill:#161217;}.cls-270{fill:#111212;}.cls-271{fill:#0ab022;}.cls-272{fill:#00b40f;}
        </style>
    </defs>
    <g id="_68NLDJ.tif" data-name="68NLDJ.tif">
        <path class="cls-1"
              d="M5.91,255.8A22.8,22.8,0,0,1,2,255.75c-1.61-.27-4.25,1.64-4-2.59.41-7.43.11-14.89.11-22.34q0-114.39-.1-228.77C-2-1.37-1.35-2,2-2q81.61.21,163.24,0c3.37,0,4,.63,4,4.05q-.19,123.59-.1,247.17c0,2.19.51,6.09-.09,6.28-2.37.73-5.09.3-7.68.3v-2.63c3.87-.23,2.2-3.27,2.59-5.26,5.55-2.07,2.4-6.79,2.41-10q.35-109.68.18-219.36a64.28,64.28,0,0,0-.12-7.86c-.1-.79-1.61-1.41-2.47-2.1.41-4.08-1.09-6.86-5.18-7.89H89.16c-25.78,0-51.57,0-77.35.09C9.74.83,6.36-1,5.91,3.36,2,3.58,3.7,6.63,3.31,8.62c-5.55,2.06-2.39,6.79-2.4,10Q.55,128.26.72,238a66.41,66.41,0,0,0,.12,7.86c.1.79,1.61,1.4,2.47,2.1.39,2-1.28,5,2.6,5.26Z"/>
        <path d="M161.38,253.17v2.63H5.91v-2.63H161.38Z"/>
        <path class="cls-2"
              d="M164,8.62c.86.69,2.37,1.31,2.47,2.1a64.28,64.28,0,0,1,.12,7.86q0,109.68-.18,219.36c0,3.18,3.14,7.9-2.41,10h-2.59V8.62Z"/>
        <path class="cls-2"
              d="M3.31,247.91c-.86-.7-2.37-1.31-2.47-2.1A66.41,66.41,0,0,1,.72,238q0-109.69.19-219.37c0-3.17-3.15-7.9,2.4-10Z"/>
        <path d="M5.91,3.36C6.36-1,9.74.83,11.81.82,37.59.69,63.38.73,89.16.73h69.63V3.36H5.91Z"/>
        <path class="cls-3" d="M158.79,3.36V.73c4.09,1,5.59,3.81,5.18,7.89h-2.59L158.79,6Z"/>
        <path class="cls-4" d="M8.5,253.17H5.91c-3.88-.23-2.21-3.27-2.6-5.26h2.6l2.59,2.63Z"/>
        <path class="cls-5"
              d="M161.38,247.91H164c-.39,2,1.28,5-2.59,5.26h-2.59v-2.63C159.65,249.66,160.51,248.78,161.38,247.91Z"/>
        <path class="cls-6" d="M5.91,3.36H8.5V6L5.91,8.62H3.31C3.7,6.63,2,3.58,5.91,3.36Z"/>
        <path class="cls-7" d="M158.79,250.54v2.63H8.5v-2.63H158.79Z"/>
        <path class="cls-8"
              d="M11.09,250.54H8.5l-2.59-2.63V8.62L8.5,6H158.79l2.59,2.63V113.8c-5,2.76-5.13,2.76-5.17-2-.06-9,0-17.93,0-26.89V71.73c0-19.49,0-39,0-58.47,0-1.9,1-4.62-2.56-4.64H50c-11.45,0-22.9,0-34.34,0-1.87,0-4.51-.92-4.53,2.6-5,.9-2.46,4.9-2.47,7.29C8.45,58.18,8.5,97.82,8.5,137.47v34.18c0,23.44-.05,46.87.08,70.3,0,2.1-1.79,5.51,2.51,6Z"/>
        <path class="cls-9"
              d="M156.19,84.88c0,9,0,17.92,0,26.89,0,4.79.12,4.79,5.17,2V247.91c-.87.87-1.73,1.75-2.59,2.63H153.6v-2.63c.87-.69,2.48-1.36,2.48-2,.16-12.6.12-25.2.1-37.8a2.5,2.5,0,0,0-.28-1.18A5.21,5.21,0,0,0,155,206l-1.41,1.79c-.86,1.12-1.72,2.24-2.59,3.35v-7.88c2.33-.19,5.26,1.11,5.24-3.38-.11-25.36,0-50.71-.16-76.06,0-.7-1.62-1.39-2.49-2.08V87.51Z"/>
        <ellipse class="cls-10" cx="4.61" cy="128.26" rx="1.83" ry="169.2"/>
        <ellipse class="cls-11" cx="83.64" cy="4.68" rx="106.27" ry="1.86"/>
        <path class="cls-9" d="M161.38,8.62,158.79,6Z"/>
        <path class="cls-12"
              d="M153.6,247.91v2.63H11.09v-2.63H88.82c2-.4,5,1.3,5.19-2.63h15.54c1.22,5.06,5.23,1.63,7.78,2.63H153.6Z"/>
        <path class="cls-13"
              d="M8.5,137.47c0-39.65-.05-79.29.12-118.93,0-2.39-2.56-6.39,2.47-7.29V24.4c0,4.2-.18,8.41.12,12.59.08,1.11,1.61,2.12,2.47,3.18-.86,3.51-2.4,7-2.4,10.52s1.54,7,2.4,10.52c-.86,1-2.29,2-2.47,3.11a46.88,46.88,0,0,0-.12,7.41v65.74Z"/>
        <path class="cls-11" d="M73.28,8.62H153.6v2.63H73.28Z"/>
        <path class="cls-14" d="M11.09,247.91c-4.3-.45-2.5-3.86-2.51-6-.13-23.43-.08-46.86-.08-70.3h2.59v76.26Z"/>
        <path class="cls-9" d="M153.6,11.25V8.62c3.51,0,2.55,2.74,2.56,4.64.06,19.49,0,39,0,58.47H153.6V11.25Z"/>
        <path class="cls-15"
              d="M153.6,71.73h2.59V84.88l-2.59,2.63-7.77-2.63c-2.05,0-5.33-.79-5.92.16-1.32,2.12-1.32,5.1-1.85,7.72h-2.6V82.25h5.19c2.86.06,6,.49,5.21-4.18a23,23,0,0,1,0-3.71h2.59c0,.86-.06,1.73,0,2.59.2,2.3-1.14,5.81,3.19,5.23,3.2-.44,1.62-3.33,2-5.19Z"/>
        <path class="cls-16" d="M73.28,8.62v5.26H52.55L50,11.25V8.62H62.91l2,2.63,3.22-2.63Z"/>
        <path class="cls-11" d="M50,8.62v2.63H11.09c0-3.52,2.66-2.59,4.53-2.6C27.06,8.59,38.51,8.62,50,8.62Z"/>
        <path class="cls-17" d="M11.09,171.65H8.5V137.47h2.59v34.18Z"/>
        <path class="cls-11" d="M68.09,8.62l-3.22,2.63-2-2.63Z"/>
        <path class="cls-18"
              d="M151,203.21v10.51c-3.87.23-2.2,3.27-2.59,5.26l-13,10.52-2.59,2.63-2.59,2.63c-1.83-.35-5.25,1.06-5-1.92.37-3.84,1.5-8.32,3.92-11,2.59-2.9,6.07-5.27,9.15-7.89,1.43-1.22,5.59.64,4.61-3.55-.23-1-3.26-1.5-5.07-1.83a28.56,28.56,0,0,0-5.07-.07v-2.62l-7.77-5.26V198l-2.59-2.63a95.07,95.07,0,0,0-9.85.12c-1.11.11-2.07,1.63-3.11,2.51.87.87,1.73,1.75,2.59,2.63-.29.74-.38,1.81-.92,2.16-4.92,3.18-6.24,8.23-2,10.71,2.21,1.3,3,2,3,4.36-.1,3.9,0,7.79,0,11.69-2.54,1.38,7.51,4.89-.83,5.23-4.24.17-8.53-.31-12.73.13-3.52.37-6.9,1.9-10.42,2.46-3.83.61-5.53-.22-2.25-4.17.49-.6-1.52-3.45-2.57-5.12-.13-.2-2.17.35-2.19.63-.56,8.46-3.92-1.74-5.28.84q1.29-6.57,2.59-13.15v-2.63l5.18-5.26c3.88-.22,2.2-3.26,2.59-5.25,2-.4,5,1.3,5.18-2.63.87-.88,1.73-1.76,2.6-2.63H96.6c7.64-6,16.21-8.86,25.91-7.89h13c1.46,5.82,5.95,5.47,10.37,5.26l2.59,2.63,2.59,2.63Z"/>
        <path class="cls-19"
              d="M153.6,113.8v2.63c-2.92,1.39-5.49,3.32-9.2,2.76s-7.68-.13-11.53-.13V103.28l2.18-.89c-.33-.58-.63-1.63-1-1.66-2.11-.16-4.23-.08-6.35-.08l7.77-5.26c1.46,5.82,5.95,5.47,10.37,5.26.86,2.63,1.73,5.26,2.59,7.89Z"/>
        <path class="cls-20"
              d="M151,203.21V198c3.88-.23,2.2-3.27,2.59-5.26v-71c.87.69,2.48,1.38,2.49,2.08.12,25.35,0,50.7.16,76.06C156.27,204.32,153.34,203,151,203.21Z"/>
        <path class="cls-21"
              d="M153.6,113.8l-5.18-5.26c3.55-2.64,3.55-5.24,0-7.89V98q-2.59-3.94-5.18-7.88c.86-1.76,1.73-3.51,2.59-5.26l7.77,2.63Z"/>
        <path class="cls-20"
              d="M151,213.72v-2.63c.87-1.11,1.73-2.23,2.59-3.35L155,206a5.21,5.21,0,0,1,.89.93,2.5,2.5,0,0,1,.28,1.18c0,12.6.06,25.2-.1,37.8,0,.69-1.61,1.36-2.48,2V229.5a97.82,97.82,0,0,0-.12-10c-.11-1.13-1.6-2.11-2.47-3.16Z"/>
        <path class="cls-22" d="M132.87,119.06c3.85,0,7.76-.44,11.53.13s6.28-1.37,9.2-2.76v5.26H132.87Z"/>
        <path class="cls-23"
              d="M132.87,208.46a28.56,28.56,0,0,1,5.07.07c1.81.33,4.84.84,5.07,1.83,1,4.19-3.18,2.33-4.61,3.55-3.08,2.62-6.56,5-9.15,7.89-2.42,2.72-3.55,7.2-3.92,11-.3,3,3.12,1.57,5,1.92v2.63a11.59,11.59,0,0,1-2,2.59c-3.33,2.43-8.37,1.25-11,5.3H88.82q-3.1-2.49-6.2-5c-2.26-1.83-4.5-3.69-6.75-5.53V229.5c1.36-2.58,4.72,7.62,5.28-.84,0-.28,2.06-.83,2.19-.63,1,1.67,3.06,4.52,2.57,5.12-3.28,3.95-1.58,4.78,2.25,4.17,3.52-.56,6.9-2.09,10.42-2.46,4.2-.44,8.49,0,12.73-.13,8.34-.34-1.71-3.85.83-5.23,2-.4,5,1.31,5.19-2.63l7.77-10.52v-2.63l5.18-5.26Z"/>
        <path class="cls-24"
              d="M75.87,234.76c2.25,1.84,4.49,3.7,6.75,5.53q3.09,2.51,6.2,5v2.63H60.32l2.59-2.63H73.28c3-.06,7.09.77,2.67-4.32-1.4-1.61-1.81-4.11-2.67-6.2Z"/>
        <path class="cls-25" d="M42.18,247.91H24v-5.26c2-.4,5,1.3,5.19-2.63l13-2.63Z"/>
        <path class="cls-26"
              d="M117.33,245.28c2.6-4.05,7.64-2.87,11-5.3a11.59,11.59,0,0,0,2-2.59h5.18l2.6,2.63v2.63c-3.88.22-2.21,3.26-2.6,5.26H117.33Z"/>
        <path class="cls-27"
              d="M62.91,245.28l-2.59,2.63H44.77V240c2.12-1.32,3,4.93,5.78.95.48-.69,3.52-.69,4,0,2.8,4,3.66-2.27,5.77-.95h2.59Z"/>
        <path class="cls-28"
              d="M135.46,247.91c.39-2-1.28-5,2.6-5.26,1.05.88,2.14,2.55,3.14,2.5,6.64-.37,9.82-5.14,7.22-10.39h5.18v13.15Z"/>
        <path class="cls-29"
              d="M11.09,247.91v-5.26h2.59c.78.52,1.59,1.49,2.34,1.44,1-.05,1.9-.92,2.84-1.44h2.59v5.26Z"/>
        <path class="cls-30" d="M44.77,240v7.89H42.18V234.76h2.59Z"/>
        <path class="cls-31"
              d="M21.45,247.91v-5.26a15.85,15.85,0,0,1,0-2.58,13.53,13.53,0,0,1,.82-2.22A9.8,9.8,0,0,1,24,240.09a7.52,7.52,0,0,1,.06,2.56v5.26Z"/>
        <path class="cls-32" d="M117.33,245.28v2.63c-2.55-1-6.56,2.43-7.78-2.63Z"/>
        <path class="cls-33" d="M88.82,247.91v-2.63H94C93.78,249.21,90.79,247.51,88.82,247.91Z"/>
        <path class="cls-34"
              d="M52.55,13.88H73.28a6.7,6.7,0,0,1,6.49,2.5c1.81,2.1,4.28,3.61,6.46,5.39q1.3,6.57,2.59,13.14v2.63q-2.58,3.95-5.18,7.89L75.87,56l-7.78,5.26L65.5,63.84c-1.57.28-4,0-4.58.94-3.05,5-7.72,4.46-12.3,4.29-4.14-.16-8.18-.17-11.62,2.66-5.32,0-9.92-4.48-15.55-2.63l-2.59-2.63-2.59-2.63-2.59-2.63c-.86-3.51-2.4-7-2.4-10.52s1.54-7,2.4-10.52L21.45,27c1.28,0,3.25.54,3.74-.09,4.53-5.87,10.6-8.85,17.55-10.52.83-.2,1.36-1.67,2-2.54h7.78Zm0,44.7a10.57,10.57,0,0,1,2-2.59c3.82-2.57,4.8-8.21,1-10.28-2.24-1.22-3.16-1.86-3.08-4.28.13-3.45.91-7.25-.23-10.25-1-2.49-4-2.9-4.92,1.11l-5.18,7.88L39.59,42.8l-7.17,9.82,11.09.7c.42,0,.84,0,1.26,0v5.26H42.18L40,59.45l2.15,1.76H52.55l2.15-.87Zm-9.06,8.59,6.06-1.61C48.79,65,48,64,47.27,63.94a22.71,22.71,0,0,0-4.69.81Z"/>
        <path class="cls-35"
              d="M44.77,13.88c-.67.87-1.2,2.34-2,2.54-7,1.67-13,4.65-17.55,10.52-.49.63-2.46.09-3.74.09-3.75.31-7.31-.14-10.36-2.63V11.25H42.18ZM21.53,16.57c-.66-.12-1.44.48-2.17.75.83,2.06,1.62,4.14,2.57,6.14.11.24,1.4.29,1.66,0C25.08,21.76,23.64,16.93,21.53,16.57Z"/>
        <path class="cls-36"
              d="M11.09,98V74.36a21.89,21.89,0,0,1,2.57,2c.95,1,1.75,2.16,2.61,3.25.22,3.93,3.22,2.23,5.18,2.63.87.87,1.73,1.75,2.59,2.63.39,2-1.28,5,2.6,5.26v5.25L24,98l-5.18,2.63C17.65,95.59,13.64,99,11.09,98Z"/>
        <path class="cls-37"
              d="M11.09,150.61v-50h2.59c0,5-.27,10.12.06,15.15.55,8.3,3.7-2.17,5.12.63l2.59,2.63L24,121.69v2.63L18.86,127c-.41,0-1.1.15-1.2,0-.93-1.69-1.76-3.44-2.62-5.17a33.09,33.09,0,0,0-1.3,5.62c-.21,3.35-.06,6.73-.06,10.1l.85,2.18,1.74-2.18c3.88-.23,2.2-3.27,2.59-5.26L24,134.84v2.63l-7.77,5.26c-5,1.23-1.6,5.3-2.59,7.88Z"/>
        <path class="cls-38"
              d="M11.09,24.4c3.05,2.49,6.61,2.94,10.36,2.63L13.68,40.17c-.86-1.06-2.39-2.07-2.47-3.18C10.91,32.81,11.09,28.6,11.09,24.4Z"/>
        <path class="cls-39"
              d="M16.27,63.84l2.59,2.63v5.26H16.27c-.78-.52-1.59-1.49-2.35-1.45-1,.06-1.89.93-2.83,1.45a46.88,46.88,0,0,1,.12-7.41c.18-1.14,1.61-2.08,2.47-3.11Z"/>
        <path class="cls-40"
              d="M11.09,71.73c.94-.52,1.87-1.39,2.83-1.45.76,0,1.57.93,2.35,1.45v7.89c-.86-1.09-1.66-2.25-2.61-3.25a21.89,21.89,0,0,0-2.57-2Z"/>
        <path class="cls-41" d="M13.68,100.65H11.09V98c2.55,1,6.56-2.43,7.77,2.63Z"/>
        <path class="cls-42"
              d="M104.37,11.25h33.69c-.21,5.37,1.22,11-2.6,15.78-8.17,0-8.17,0-13-5.26-.39-2,1.28-5-2.59-5.26-4.69-3.88-10.26-2.42-15.55-2.63Z"/>
        <path class="cls-43"
              d="M86.23,21.77c-2.18-1.78-4.65-3.29-6.46-5.39a6.7,6.7,0,0,0-6.49-2.5V11.25h28.5q-1.29,6.57-2.59,13.15c-.87.87-1.73,1.75-2.59,2.63a33.66,33.66,0,0,1-5.53-1.77A36.81,36.81,0,0,1,86.23,21.77Z"/>
        <path class="cls-44"
              d="M153.6,11.25v5.26c-5.55,2-2,6.61-2.38,9.86-.5,4.34-3.11,3.08-5.39,3.29l-2.59,2.63-7.78-2.63V27c2.18-.27,5.3,1.2,5.21-3.12s0-8.44,0-12.66Zm-4.65,4-2.24-1c-.29.72-1,1.54-.79,2.14a7.65,7.65,0,0,0,1.62,2.28Z"/>
        <path class="cls-45" d="M99.19,24.4q1.29-6.58,2.59-13.15h2.59v7.89c-5,1.23-1.6,5.3-2.59,7.89Z"/>
        <path class="cls-46"
              d="M140.65,11.25c0,4.22-.07,8.44,0,12.66s-3,2.85-5.21,3.12c3.82-4.76,2.39-10.41,2.6-15.78Z"/>
        <path class="cls-47"
              d="M24,242.65a7.52,7.52,0,0,0-.06-2.56,9.8,9.8,0,0,0-1.68-2.24,13.53,13.53,0,0,0-.82,2.22,15.85,15.85,0,0,0,0,2.58H18.86c-.28-2.47-.18-5.07-.94-7.38-.64-1.92-2.27-3.51-3.47-5.24-.26,2.05-.62,4.09-.74,6.15s0,4.31,0,6.47H11.09V198c4.27.43,2.09,3.8,2.56,5.91.41,1.86-.86,4.58,2.62,4.6,2.89,4.92,4,10.16,1.45,15.44-.94,1.93-1.68,2.45.93,3.06,1.89.44,3.6,1.66,5.39,2.54.39,2-1.28,5,2.6,5.26.86,1.75,1.72,3.51,2.59,5.26C29,244,26,242.25,24,242.65Z"/>
        <path class="cls-48"
              d="M11.09,171.65v-5.26h2.59c.73,5.86.69,5.77,5.8,3.4,1.36-.62,3-.53,4.56-.77v5.26c-.86,1.05-2.35,2-2.47,3.16-.33,3.3-.12,6.65-.12,10v2.63H18.86l-7.77,2.63Zm5.18,7.71-.9-4.68c-3.49,1.27-1.12,4.18-1.61,6.28a18.48,18.48,0,0,0,0,5.15c0,.32.67.92.84.86.61-.21,1.59-.61,1.63-1C16.38,184.24,16.27,182.5,16.27,179.36Z"/>
        <path class="cls-49"
              d="M11.09,192.69l7.77-2.63,2.59,2.63v2.63c-.14,2.22,4.26,4.08.12,6.84-1.58,1.05-1.84,4.14-2.71,6.3H16.27c-3.48,0-2.21-2.74-2.62-4.6-.47-2.11,1.71-5.48-2.56-5.91Z"/>
        <path class="cls-50"
              d="M153.6,53.32V71.73l-7.77-2.63-2.59-2.63c-.87-1.75-1.73-3.51-2.59-5.26V58.58c3.87-.22,2.2-3.27,2.59-5.26H153.6Z"/>
        <path class="cls-51"
              d="M153.6,53.32h-7.77V48.06c1.36-2.57,4.83,7.62,5.15-.85a97.84,97.84,0,0,0-.07-12.93c-.3-3.21-3.24-1.63-5.08-2V29.66c2.28-.21,4.89,1.05,5.39-3.29.38-3.25-3.17-7.85,2.38-9.86Z"/>
        <path class="cls-52"
              d="M135.46,95.39l-7.77,5.26L122.51,98q-1.31-3.94-2.59-7.88V87.51a52.8,52.8,0,0,0,5,6.19c1,1,3.36,1.86,4.21,1.32,2.5-1.58,4.33-3.77,3.88-7.42-.44-3.44-2.73-2.27-4.55-2.82-1.25-.38-2.23-1.66-3.33-2.53h10.36V95.39Z"/>
        <path class="cls-53"
              d="M140.65,82.25h-5.19V79.62c1-1.44,1.75-3.14,3-4.25,1.93-1.7,2.13-2.83.05-4.59-1.72-1.46-3.09-2.66-5.24-.83a20.27,20.27,0,0,1-3,1.78V66.47c4.48.07,9.15-.83,13,2.63v5.26Q141.94,78.3,140.65,82.25Z"/>
        <path class="cls-54"
              d="M145.83,84.88c-.86,1.75-1.73,3.5-2.59,5.26-3.18.15-3.2,2.47-2.09,4.24,1,1.58,3.08,2.46,4.68,3.64v2.63c-4.42.21-8.91.56-10.37-5.26.87-.87,1.73-1.75,2.6-2.63.53-2.62.53-5.6,1.85-7.72C140.5,84.09,143.78,84.88,145.83,84.88Z"/>
        <path class="cls-55" d="M145.83,69.1l7.77,2.63V77l-5.18-2.63h-2.59Z"/>
        <path class="cls-56"
              d="M148.42,74.36,153.6,77c-.36,1.86,1.22,4.75-2,5.19-4.33.58-3-2.93-3.19-5.23C148.36,76.09,148.42,75.22,148.42,74.36Z"/>
        <path class="cls-56"
              d="M140.65,82.25q1.29-3.94,2.59-7.89h2.59a23,23,0,0,0,0,3.71C146.62,82.74,143.51,82.31,140.65,82.25Z"/>
        <path class="cls-19" d="M138.06,92.76c-.87.88-1.73,1.76-2.6,2.63V92.76Z"/>
        <path class="cls-57" d="M52.55,13.88H47.36V11.25H50Z"/>
        <path class="cls-58" d="M47.36,11.25v2.63H44.77l-2.59-2.63Z"/>
        <path class="cls-59" d="M13.68,166.39H11.09V150.61h2.59l2.59,2.63v2.63C13.81,159,13.37,162.59,13.68,166.39Z"/>
        <path class="cls-60"
              d="M122.51,190.06c-9.7-1-18.27,1.91-25.91,7.89v-5.26l-5.19-5.26c-.39-2,1.29-5-2.59-5.26H86.23l-2.59-2.63v-2.63c10.15,0,20.3.08,30.44-.12,1.1,0,2.17-1.63,3.25-2.51l5.18-2.63,2.59,2.63v2.63a107.6,107.6,0,0,0-11.62,2.84c-.85.3-1.39,3-1.19,4.45.16,1.17,1.52,2.89,2.58,3.08,2.47.46,5.08.15,7.64.15Z"/>
        <path class="cls-61"
              d="M125.1,216.35l-7.77,10.52a6.32,6.32,0,0,1-1.22,0c-.5-3.24-1.87-6.72-1.17-9.7,1.25-5.31-3.25-5.59-5.25-8.07-.2-.26,1.38-2.35,2.43-3.21,2.6-2.15,2.67-2.07,0-5.3V198h10.37v2.63h-2.59l-2.59,2,2.59,3.28h13v2.62h-2.59c-2.55,1-6.56-2.43-7.77,2.63h-2.59c-.87,1.1-2.57,2.32-2.44,3.28.41,3.18,3.19,1.63,5,2Z"/>
        <path class="cls-62"
              d="M112.14,200.58c2.65,3.23,2.58,3.15,0,5.3-1.05.86-2.63,3-2.43,3.21,2,2.48,6.5,2.76,5.25,8.07-.7,3,.67,6.46,1.17,9.7a6.32,6.32,0,0,0,1.22,0c-.22,3.94-3.22,2.23-5.19,2.63,0-3.9-.07-7.79,0-11.69.06-2.34-.78-3.06-3-4.36-4.2-2.48-2.88-7.53,2-10.71C111.76,202.39,111.85,201.32,112.14,200.58Z"/>
        <path class="cls-63"
              d="M62.91,240H60.32V229.5l7.77,2.63h2.6c5-1.23,1.6-5.3,2.59-7.89V219l2.59-2.63h2.59q-1.3,6.59-2.59,13.15v5.26H73.28a42.16,42.16,0,0,1-6.16,0C62.54,234,62.74,237,62.91,240Z"/>
        <path class="cls-64"
              d="M135.46,237.39h-5.18v-2.63l2.59-2.63,2.59-2.63,13-10.52a34.81,34.81,0,0,1-1.74,5.61,36.44,36.44,0,0,1-3.44,4.91Z"/>
        <path class="cls-65"
              d="M83.64,208.46l-5.18,5.26c-1.09-.87-2.28-2.6-3.23-2.47-3.13.42-1.6,3.24-2,5.1V219c-.87-.87-1.73-1.75-2.59-2.63-.87-1.75-1.73-3.5-2.6-5.26.87-.87,1.73-1.75,2.6-2.63h13Z"/>
        <path class="cls-64" d="M132.87,205.84h-13v-5.26h5.18Z"/>
        <path class="cls-66"
              d="M86.23,203.21c-.39,2,1.29,5-2.59,5.25a46.78,46.78,0,0,0-.12-7.4c-.18-1.15-1.61-2.08-2.47-3.11.22-3.94,3.22-2.24,5.18-2.63v7.89Z"/>
        <path class="cls-64" d="M145.83,195.32c-4.42.21-8.91.56-10.37-5.26,3.75-.32,7.31.14,10.37,2.63Z"/>
        <path class="cls-67" d="M122.51,198h-13c1-.88,2-2.4,3.11-2.51a95.07,95.07,0,0,1,9.85-.12Z"/>
        <path class="cls-64" d="M122.51,190.06v-2.63h13v2.63Z"/>
        <path class="cls-64" d="M151,213.72v2.63L148.42,219C148.81,217,147.14,214,151,213.72Z"/>
        <ellipse class="cls-68" cx="95.3" cy="195.32" rx="1.83" ry="3.72"/>
        <path class="cls-68" d="M86.23,203.21v-2.63h5.18C91.19,204.51,88.2,202.81,86.23,203.21Z"/>
        <path class="cls-64" d="M122.51,198v-2.63L125.1,198Z"/>
        <path class="cls-64" d="M148.42,198l-2.59-2.63h2.59Z"/>
        <path class="cls-68" d="M94,198c-.87.87-1.73,1.75-2.6,2.63C92.28,199.7,93.14,198.82,94,198Z"/>
        <path class="cls-62" d="M109.55,198h2.59v2.63C111.28,199.7,110.42,198.82,109.55,198Z"/>
        <ellipse class="cls-62" cx="123.8" cy="199.26" rx="1.83" ry="1.86"/>
        <path class="cls-64" d="M151,198v2.63L148.42,198Z"/>
        <path class="cls-69" d="M78.46,216.35H75.87l2.59-2.63Z"/>
        <path class="cls-23" d="M135.46,229.5l-2.59,2.63Z"/>
        <path class="cls-70"
              d="M122.51,98l5.18,2.63c2.12,0,4.24-.08,6.35.08.38,0,.68,1.08,1,1.66l-2.18.89a17,17,0,0,0,0,18.41V127c-2.25.22-5.36-1.16-5.3,3.25,0,.66-1.61,1.34-2.47,2,0-1.69.11-3.38,0-5.05-.48-6.16-1.89-7.6-8-8.08-1.65-.13-3.32,0-5,0-.31-3.8.14-7.42,2.6-10.52l2.59-2.63,5.18-5.26Z"/>
        <path class="cls-71" d="M132.87,121.69a17,17,0,0,1,0-18.41v18.41Z"/>
        <path class="cls-72" d="M148.42,100.65c3.55,2.65,3.55,5.25,0,7.89-.86-2.63-1.73-5.26-2.59-7.89Z"/>
        <path class="cls-73" d="M132.87,127v-5.26H153.6v10.52H151l-2.59,2.63v2.63h-5.18l-2.59-2.63-2.59-2.63Z"/>
        <path class="cls-74"
              d="M135.46,190.06v-2.63a31.92,31.92,0,0,1,5,0c4.43.71,6.12-1,5.42-5.5a32.84,32.84,0,0,1,0-5.06H151c0,4.2-.18,8.41.12,12.59.08,1.12,1.61,2.13,2.47,3.19-.39,2,1.29,5-2.59,5.26l-2.59-2.63-2.59-2.63C142.77,190.2,139.21,189.74,135.46,190.06Z"/>
        <path class="cls-75"
              d="M151,176.91h-2.59l-2.59-2.63c-2.46-3.1-2.9-6.71-2.59-10.52v-2.63l5.18-2.63h5.18v15.78Zm.41-9.72c-.59-2.17-1.12-4.08-1.64-6-1.32,1.52-3.84,3.2-3.67,4.52.27,2.08,2.35,3.92,3.67,5.87Q150.61,169.39,151.42,167.19Z"/>
        <path class="cls-76"
              d="M153.6,145.36V148l-5.18,2.62h-2.59V140.1l2.59-2.63c3.46,0,2.09,2.78,2.68,4.56C151.51,143.28,152.74,144.26,153.6,145.36Z"/>
        <path class="cls-77"
              d="M151,176.91l2.59-2.63v18.41c-.86-1.06-2.39-2.07-2.47-3.19C150.83,185.32,151,181.11,151,176.91Z"/>
        <path class="cls-78" d="M148.42,150.61,153.6,148V158.5h-5.18Z"/>
        <path class="cls-78"
              d="M153.6,145.36c-.86-1.1-2.09-2.08-2.5-3.33-.59-1.78.78-4.55-2.68-4.56v-2.63l2.59-2.63h2.59Z"/>
        <path class="cls-79"
              d="M145.83,98c-1.6-1.18-3.68-2.06-4.68-3.64-1.11-1.77-1.09-4.09,2.09-4.24q2.59,3.93,5.18,7.88Z"/>
        <ellipse class="cls-80" cx="147.12" cy="99.34" rx="1.83" ry="1.86"/>
        <path class="cls-81"
              d="M148.42,219l2.59-2.63c.87,1.05,2.36,2,2.47,3.16a97.82,97.82,0,0,1,.12,10l-2.15.87,2.15,1.76v2.63h-7.77l-2.59-5.26a36.44,36.44,0,0,0,3.44-4.91A34.81,34.81,0,0,0,148.42,219Z"/>
        <path class="cls-82" d="M153.6,232.13l-2.15-1.76,2.15-.87Z"/>
        <path class="cls-83" d="M122.51,211.09c1.21-5.06,5.22-1.62,7.77-2.63l-5.18,5.26h-2.59Z"/>
        <ellipse class="cls-84" cx="123.8" cy="215.04" rx="1.83" ry="1.86"/>
        <path class="cls-85"
              d="M62.91,240c-.17-3.05-.37-6,4.21-5.31a42.16,42.16,0,0,0,6.16,0c.86,2.09,1.27,4.59,2.67,6.2,4.42,5.09.35,4.26-2.67,4.32.17-3.05.36-6-4.21-5.31A42.16,42.16,0,0,1,62.91,240Z"/>
        <path class="cls-86" d="M62.91,240a42.16,42.16,0,0,0,6.16-.05c4.57-.68,4.38,2.26,4.21,5.31H62.91Z"/>
        <path class="cls-87"
              d="M29.23,240c-.87-1.75-1.73-3.51-2.59-5.26.27-2.19-1.2-5.36,3-5.27,3.31.07,6.62,0,9.93,0l2.59,5.26v2.63Z"/>
        <path class="cls-88"
              d="M145.83,234.76h2.59c2.6,5.25-.58,10-7.22,10.39-1,0-2.09-1.62-3.14-2.5V240C145.35,240,145.35,240,145.83,234.76Z"/>
        <path class="cls-82" d="M143.24,229.5l2.59,5.26L138.06,240l-2.6-2.63Z"/>
        <path class="cls-89"
              d="M60.32,232.13V240c-2.11-1.32-3,4.93-5.77.95-.48-.69-3.52-.69-4,0-2.81,4-3.66-2.27-5.78-.95v-5.26c1.22-5.07,5.23-1.63,7.78-2.63Z"/>
        <path class="cls-90"
              d="M13.68,242.65c0-2.16-.1-4.32,0-6.47s.48-4.1.74-6.15c1.2,1.73,2.83,3.32,3.47,5.24.76,2.31.66,4.91.94,7.38-.94.52-1.87,1.39-2.84,1.44C15.27,244.14,14.46,243.17,13.68,242.65Z"/>
        <path class="cls-91" d="M52.55,232.13c-2.55,1-6.56-2.44-7.78,2.63H42.18l-2.59-5.26h13Z"/>
        <path class="cls-92"
              d="M75.87,56l7.77-10.52H94Q95.3,52,96.6,58.58L94,61.21l-2.6,2.63c-3-.35-6.52,1.26-8.72-2.28l-1.64,2.28H78.46Z"/>
        <path class="cls-93"
              d="M26.64,90.14c-3.88-.23-2.21-3.27-2.6-5.26l-2.59-2.63V69.1c5.63-1.85,10.23,2.6,15.55,2.63.39,2-1.29,5,2.59,5.26v7.89c-4.32,1.34-8.64,2.67-12.94,4.06C26.53,89,26.64,89.72,26.64,90.14Z"/>
        <path class="cls-94"
              d="M88.82,37.54V34.91c4.5,2.49,6.1,1.93,7.74-2.84a7.75,7.75,0,0,0,0-2.41h5.18c-.66,3.61,1.4,7.55-1.49,11-.37.45,1.58,2.89,2.46,4.41.54-.84,1.5-1.65,1.55-2.52.18-3.42.07-6.86.07-10.29h5.18v2.62c.39,2-1.28,5,2.59,5.26v7.89h-2.59C101,52.43,101,52.4,96.11,43.71c-.3-.54-1.39-.62-2.1-.91-.29-.72-.58-2.08-.86-2.08C89.11,40.75,89.1,40.79,88.82,37.54Z"/>
        <path class="cls-95"
              d="M42.18,40.17l5.18-7.88a7.87,7.87,0,0,1,1.23,0c.49,3.25,1.86,6.73,1.16,9.71C48.5,47.31,53,47.58,55,50.07c.2.25-1.38,2.34-2.43,3.21-2.6,2.15-2.66,2.07,0,5.3v2.63H42.18V58.58h2.59l2.59-2-2.59-3.27c-.42,0-.84,0-1.26,0l-11.09-.7,7.17-9.82,2.59,2.63,2.59,2.63c3.88-.22,2.2-3.26,2.59-5.26l-.85-2.18L44.77,42.8H42.18Z"/>
        <path class="cls-96"
              d="M39.59,77c-3.88-.23-2.2-3.27-2.59-5.26,3.44-2.83,7.48-2.82,11.62-2.66,4.58.17,9.25.72,12.3-4.29.56-.92,3-.66,4.58-.94,1,4.15,3.76,5.68,7.78,5.26v2.63l-2.59,2.63h-2.6c-1-.88-2-2.43-3.14-2.51-4.11-.3-8.27-.12-12.4-.12a45.5,45.5,0,0,0-7.3.12c-1.13.18-2,1.63-3.07,2.51Z"/>
        <path class="cls-97" d="M73.28,69.1c-4,.42-6.76-1.11-7.78-5.26l2.59-2.63L75.87,56l2.59,7.89Z"/>
        <path class="cls-98"
              d="M52.55,58.58c-2.64-3.23-2.58-3.15,0-5.3,1-.87,2.63-3,2.43-3.21-2-2.49-6.5-2.76-5.25-8.07.7-3-.67-6.46-1.16-9.71a7.87,7.87,0,0,0-1.23,0c.91-4,4-3.6,4.92-1.11,1.14,3,.36,6.8.23,10.25-.08,2.42.84,3.06,3.08,4.28,3.78,2.07,2.8,7.71-1,10.28A10.57,10.57,0,0,0,52.55,58.58Z"/>
        <path class="cls-99"
              d="M96.6,29.66a7.75,7.75,0,0,1,0,2.41c-1.64,4.77-3.24,5.33-7.74,2.84q-1.29-6.57-2.59-13.14a36.81,36.81,0,0,0,4.84,3.49A33.66,33.66,0,0,0,96.6,27Zm-4.81.93.92,1.7c.29-.3.86-.65.81-.87a8.21,8.21,0,0,0-.81-1.76Z"/>
        <path class="cls-100"
              d="M88.82,37.54c.28,3.25.29,3.21,4.33,3.18.28,0,.57,1.36.86,2.08v2.63H83.64Q86.24,41.49,88.82,37.54Z"/>
        <path class="cls-101" d="M21.45,69.1V79.62H18.86V66.47Z"/>
        <path class="cls-102" d="M43.49,67.17l-.91-2.42a22.71,22.71,0,0,1,4.69-.81c.77,0,1.52,1,2.28,1.62Z"/>
        <path class="cls-98" d="M44.77,53.32l2.59,3.27-2.59,2Z"/>
        <path class="cls-96" d="M68.09,61.21,65.5,63.84Z"/>
        <path class="cls-13" d="M16.27,63.84l-2.59-2.63Z"/>
        <path class="cls-98" d="M52.55,61.21V58.58l2.15,1.76Z"/>
        <path class="cls-98" d="M42.18,58.58v2.63L40,59.45Z"/>
        <path class="cls-98" d="M42.18,40.17V42.8H39.59Z"/>
        <path class="cls-103"
              d="M21.53,16.57c2.11.36,3.55,5.19,2.06,6.88-.26.3-1.55.25-1.66,0-.95-2-1.74-4.08-2.57-6.14C20.09,17.05,20.87,16.45,21.53,16.57Z"/>
        <path class="cls-104"
              d="M24,121.69l-2.59-2.63-2.59-2.63V100.65L24,98c.23,3.94,3.22,2.24,5.19,2.63,5.18,7,5.18,7,5.18,15.78-2.86.88-5.77,1.62-8.55,2.72C25.05,119.47,24.64,120.81,24,121.69Z"/>
        <path class="cls-105"
              d="M26.64,90.14c0-.42-.11-1.16,0-1.2,4.3-1.39,8.62-2.72,12.94-4.06h2.59l2.59,2.63c0,2.93,0,5.86,0,8.79.1,5.44-3,7.14-7.78,7l-7.77-2.63C29,96.72,26,98.42,24,98l2.6-2.63,2.59-2Z"/>
        <path class="cls-106" d="M18.86,79.62h2.59v2.63c-2-.4-5,1.3-5.18-2.63Z"/>
        <path class="cls-107" d="M26.64,90.14l2.59,3.27-2.59,2Z"/>
        <path class="cls-108" d="M21.45,82.25,24,84.88C23.18,84,22.32,83.12,21.45,82.25Z"/>
        <path class="cls-109" d="M18.86,100.65v15.78c-1.42-2.8-4.57,7.67-5.12-.63-.33-5-.06-10.1-.06-15.15Z"/>
        <path class="cls-110"
              d="M16.27,142.73,24,137.47h2.6a37.07,37.07,0,0,0-3.45,4.9A35.63,35.63,0,0,0,21.45,148c.51.95,1.37,1.89,1.43,2.87,0,.77-.92,1.59-1.43,2.38H18.86c-.58-1.9-1.24-3.79-1.72-5.72C16.74,146,16.55,144.33,16.27,142.73Z"/>
        <path class="cls-111"
              d="M13.68,137.47c0-3.37-.15-6.75.06-10.1a33.09,33.09,0,0,1,1.3-5.62c.86,1.73,1.69,3.48,2.62,5.17.1.18.79,0,1.2,0v5.26c-3.87.22-2.2,3.26-2.59,5.26Z"/>
        <path class="cls-59" d="M18.86,132.21V127L24,124.32v10.52Z"/>
        <path class="cls-104" d="M24,134.84V121.69c.87,1,2.36,2,2.48,3.16.33,3.3.12,6.65.12,10v2.63H24Z"/>
        <path class="cls-112"
              d="M16.27,142.73c.28,1.6.47,3.22.87,4.79.48,1.93,1.14,3.82,1.72,5.72H16.27l-2.59-2.63C14.67,148,11.28,144,16.27,142.73Z"/>
        <path class="cls-59" d="M16.27,137.47c.39-2-1.28-5,2.59-5.26C18.47,134.2,20.15,137.24,16.27,137.47Z"/>
        <path class="cls-59" d="M13.68,137.47h2.59l-1.74,2.18Z"/>
        <path class="cls-113" d="M18.86,116.43l2.59,2.63Z"/>
        <ellipse class="cls-114" cx="17.57" cy="75.67" rx="1.83" ry="5.58"/>
        <path class="cls-115"
              d="M104.37,19.14V13.88c5.29.21,10.86-1.25,15.55,2.63,1,2.59-2.4,6.65,2.59,7.89L119.92,27c-3.06,2.49-6.62,2.94-10.37,2.63a44.89,44.89,0,0,1,0-6.25C110.28,18.76,107.37,19,104.37,19.14Z"/>
        <path class="cls-116"
              d="M119.92,27l2.59-2.63V21.77c4.78,5.26,4.78,5.26,13,5.26v2.63c-4-.43-6.75,1.1-7.77,5.25H125.1q1.19-6.45-5.18-5.25Z"/>
        <path class="cls-117"
              d="M122.51,21.77V24.4c-5-1.24-1.61-5.3-2.59-7.89C123.79,16.73,122.12,19.77,122.51,21.77Z"/>
        <path class="cls-118"
              d="M119.92,27v5.26q-6.36-1.2-5.18,5.25c-.87.88-1.73,1.76-2.6,2.63-3.87-.22-2.2-3.26-2.59-5.26l2.15-.86-2.15-1.76h-5.18l-2.59-2.63H96.6V27c.86-.88,1.72-1.76,2.59-2.63L101.78,27l7.77,2.63C113.3,30,116.86,29.52,119.92,27Z"/>
        <path class="cls-119"
              d="M127.69,34.91c1-4.15,3.75-5.68,7.77-5.25l7.78,2.63V42.8H127.69ZM139,36.09l-2.91-3.8c-1.06.88-2.43,1.58-3.11,2.71a23.23,23.23,0,0,0-1.68,4.86c1.64.1,3.46.7,4.86.16C137.24,39.59,137.82,37.78,139,36.09Z"/>
        <path class="cls-120" d="M143.24,42.8V32.29l2.59-2.63V42.8Z"/>
        <path class="cls-121" d="M149,15.27l-1.41,3.45a7.65,7.65,0,0,1-1.62-2.28c-.16-.6.5-1.42.79-2.14Z"/>
        <path class="cls-122"
              d="M109.55,29.66,101.78,27c1-2.59-2.4-6.66,2.59-7.89,3-.18,5.91-.38,5.23,4.27A44.89,44.89,0,0,0,109.55,29.66Z"/>
        <path class="cls-123"
              d="M39.59,229.5c-3.31,0-6.62.06-9.93,0-4.22-.09-2.75,3.08-3,5.27-3.88-.22-2.21-3.27-2.6-5.26v-2.63h2.49c7.38,0,7.38,0,11.34-7.45l1.72,2.19v7.89Z"/>
        <path class="cls-124"
              d="M24,226.87v2.63c-1.79-.88-3.5-2.1-5.39-2.54-2.61-.61-1.87-1.13-.93-3.06,2.58-5.28,1.44-10.52-1.45-15.44h2.59l2.59,2.63c0,3.34-.21,6.7.12,10,.12,1.12,1.61,2.1,2.47,3.15Z"/>
        <path class="cls-125"
              d="M13.68,166.39c-.31-3.8.13-7.41,2.59-10.52h5.18l7.78,2.63v5.26l-2.59,2.63L24,169c-1.53.24-3.2.15-4.56.77C14.37,172.16,14.41,172.25,13.68,166.39Z"/>
        <path class="cls-126"
              d="M24,169l2.6-2.63c.86.66,2.22,1.14,2.51,2,2.17,6.37,6.42,9.25,13,8.52H50v2.63H31.82L24,171.65Z"/>
        <path class="cls-127"
              d="M21.45,187.43c0-3.34-.21-6.69.12-10,.12-1.13,1.61-2.11,2.47-3.16.87,2.9,1.6,5.86,2.68,8.67.32.82,1.64,1.24,2.51,1.85v2.63Z"/>
        <path class="cls-128"
              d="M29.23,184.8c-.87-.61-2.19-1-2.51-1.85-1.08-2.81-1.81-5.77-2.68-8.67v-2.63l7.78,7.89v5.26Z"/>
        <path class="cls-129"
              d="M16.27,179.36c0,3.14.11,4.88-.08,6.58,0,.42-1,.82-1.63,1-.17.06-.82-.54-.84-.86a18.48,18.48,0,0,1,0-5.15c.49-2.1-1.88-5,1.61-6.28Z"/>
        <path class="cls-128" d="M21.45,187.43h7.78c-.39,2,1.28,5-2.59,5.26L24,190.06H21.45Z"/>
        <path class="cls-130" d="M21.45,192.69l-2.59-2.63h2.59Z"/>
        <path class="cls-130"
              d="M24,190.06l2.6,2.63c.39,2-1.29,5,2.59,5.26,0,1.27.53,3.17-.09,3.73-4,3.57-1.48,4.1,1.8,4.68.4.07.59,1.37.88,2.1H26.64l-5.19,2.63-2.59-2.63c.87-2.16,1.13-5.25,2.71-6.3,4.14-2.76-.26-4.62-.12-6.84L24,192.69Z"/>
        <path class="cls-128" d="M24,192.69l-2.59,2.63v-2.63Z"/>
        <path class="cls-131"
              d="M143.24,69.1c-3.81-3.46-8.48-2.56-13-2.63V63.84c3.75.32,7.31-.14,10.37-2.63.86,1.75,1.72,3.51,2.59,5.26Z"/>
        <path class="cls-132" d="M140.65,61.21c-3.06,2.49-6.62,2.95-10.37,2.63h-2.59V61.21h5.18l5.19-2.63h2.59Z"/>
        <ellipse class="cls-133" cx="144.53" cy="50.69" rx="1.83" ry="3.72"/>
        <path class="cls-134" d="M143.24,53.32c-.39,2,1.28,5-2.59,5.26C141,56.59,139.36,53.55,143.24,53.32Z"/>
        <path class="cls-135" d="M143.24,69.1V66.47l2.59,2.63Z"/>
        <path class="cls-44"
              d="M145.83,42.8V32.29c1.84.36,4.78-1.22,5.08,2A97.84,97.84,0,0,1,151,47.21c-.32,8.47-3.79-1.72-5.15.85V42.8Z"/>
        <path class="cls-136"
              d="M125.1,82.25c1.1.87,2.08,2.15,3.33,2.53,1.82.55,4.11-.62,4.55,2.82.45,3.65-1.38,5.84-3.88,7.42-.85.54-3.19-.36-4.21-1.32a52.8,52.8,0,0,1-5-6.19c.39-2-1.29-5,2.59-5.26Z"/>
        <path class="cls-137"
              d="M122.51,98v2.63c-1.73-.59-4.55-.73-5-1.85-2.14-5.38-3.64-11-5.37-16.55h2.6q2.58,3.94,5.18,7.89Q121.21,94.07,122.51,98Z"/>
        <path class="cls-138"
              d="M119.92,90.14q-2.6-3.94-5.18-7.89l2.59-2.63L119.92,77h5.18c-.86,1.75-1.73,3.5-2.59,5.26-3.88.22-2.2,3.26-2.59,5.26Z"/>
        <path class="cls-139"
              d="M122.51,82.25c.86-1.76,1.73-3.51,2.59-5.26h2.59l.85,2.18L130.28,77l2.59,2.63v2.63H122.51Z"/>
        <ellipse class="cls-140" cx="134.17" cy="80.93" rx="1.83" ry="1.86"/>
        <path class="cls-141"
              d="M125.1,77h-5.18c.57-1,1.88-2.42,1.59-3-.89-1.8-2.11-4-3.74-4.67s-3.72.65-5.62,1.09a30.85,30.85,0,0,0,1.72,4.32c1,1.72,2.29,3.27,3.46,4.89l-2.59,2.63h-2.6l-2.59-2.63C108.57,77,112,73,107,71.73c0-1.23-.52-2.93.08-3.6,4.59-5.08.29-4.21-2.67-4.29V61.21h10.37c1,.88,1.93,2.33,3.06,2.51a45.52,45.52,0,0,0,7.3.12h2.59c.39,2-1.28,5,2.59,5.26V77h-2.59l-.85-2.18Z"/>
        <path class="cls-142"
              d="M130.28,77V71.73a20.27,20.27,0,0,0,3-1.78c2.15-1.83,3.52-.63,5.24.83,2.08,1.76,1.88,2.89-.05,4.59-1.26,1.11-2,2.81-3,4.25h-2.59Z"/>
        <path class="cls-143" d="M130.28,69.1c-3.87-.23-2.2-3.27-2.59-5.26h2.59V69.1Z"/>
        <ellipse class="cls-144" cx="144.53" cy="71.73" rx="1.83" ry="3.72"/>
        <path class="cls-145" d="M21.45,155.87H16.27v-2.63h5.18Z"/>
        <path class="cls-125" d="M13.68,150.61l2.59,2.63Z"/>
        <path class="cls-146"
              d="M122.51,171.65l-5.18,2.63v-7.89c-.22-3.93-3.22-2.23-5.19-2.63h-7.77V148h5.18l2.59,2.62c.35,1.87-1.17,4.69,2,5.11,1,.13,2.14-1.6,3.23-2.48V140.1h2.59c0,4.2-.18,8.41.12,12.59.08,1.11,1.6,2.12,2.47,3.18v2.63c-3.55,2.65-3.55,5.25,0,7.89v5.26Z"/>
        <path class="cls-147"
              d="M86.23,195.32c-2,.39-5-1.31-5.18,2.63H75.87v-2.63a3.35,3.35,0,0,0,1.27,0c.37-.15.62-.58.93-.88-1.38-1.23-4.12-2.82-3.91-3.63,1-3.86,2.79-7.51,4.3-11.23h5.18l2.59,2.63h2.59v5.26c-1.83.35-4.61-1.2-5,2-.12,1,1.58,2.18,2.44,3.28Z"/>
        <path class="cls-146"
              d="M117.33,174.28c-1.08.88-2.15,2.49-3.25,2.51-10.14.2-20.29.12-30.44.12-2,.4-5-1.3-5.18,2.63-2.86-.88-5.77-1.62-8.55-2.72-.81-.32-1.22-1.66-1.82-2.54Z"/>
        <path class="cls-148"
              d="M125.1,187.43h-2.59c-2.56,0-5.17.31-7.64-.15-1.06-.19-2.42-1.91-2.58-3.08-.2-1.47.34-4.15,1.19-4.45a107.6,107.6,0,0,1,11.62-2.84v10.52Z"/>
        <path class="cls-149" d="M96.6,192.69H88.82l2.59-5.26Z"/>
        <path class="cls-66" d="M78.46,179.54c.22-3.93,3.22-2.23,5.18-2.63v2.63Z"/>
        <path class="cls-150" d="M122.51,171.65V169c3.88.23,2.2,3.27,2.59,5.26Z"/>
        <path class="cls-149" d="M88.82,187.43v-5.26c3.88.22,2.2,3.26,2.59,5.26Z"/>
        <path class="cls-66" d="M86.23,182.17l-2.59-2.63Z"/>
        <ellipse class="cls-150" cx="126.4" cy="175.6" rx="1.83" ry="1.86"/>
        <path class="cls-151"
              d="M122.51,213.72v2.63c-1.84-.35-4.62,1.2-5-2-.13-1,1.57-2.18,2.44-3.28C120.78,212,121.64,212.85,122.51,213.72Z"/>
        <path class="cls-62" d="M119.92,200.58v5.26l-2.59-3.28Z"/>
        <path class="cls-64" d="M122.51,213.72c-.87-.87-1.73-1.75-2.59-2.63h2.59Z"/>
        <path class="cls-152"
              d="M70.69,216.35c.86.88,1.72,1.76,2.59,2.63v5.26c-5,1.23-1.61,5.3-2.59,7.89h-2.6q-2.58-5.26-5.18-10.52c-.06-2.91-.49-6.06,4.12-5.29A22.34,22.34,0,0,0,70.69,216.35Z"/>
        <path class="cls-153"
              d="M52.55,232.13V229.5c-.65-4.24,8.63-1.75,5.18-7.89,3.45-6.13-5.83-3.65-5.18-7.89h7.77v18.41Z"/>
        <path class="cls-69" d="M60.32,229.5v-7.89h2.59q2.59,5.26,5.18,10.52Z"/>
        <path class="cls-69" d="M70.69,232.13c1-2.59-2.41-6.66,2.59-7.89C72.29,226.83,75.68,230.9,70.69,232.13Z"/>
        <path class="cls-69" d="M73.28,219v-2.63h2.59Z"/>
        <path class="cls-154"
              d="M75.87,198h5.18c.86,1,2.29,2,2.47,3.11a46.78,46.78,0,0,1,.12,7.4H75.87a25.44,25.44,0,0,1-1.62-3C73.14,202.63,71.27,199.55,75.87,198Z"/>
        <path class="cls-155"
              d="M75.87,198c-4.6,1.6-2.73,4.68-1.62,7.52a25.44,25.44,0,0,0,1.62,3H70.69c-.87-1-2.36-2-2.48-3.15-.33-3.3-.12-6.66-.12-10h7.78Z"/>
        <path class="cls-156"
              d="M62.91,221.61H60.32v-7.89l2.59-2.63h5.18c.87,1.76,1.73,3.51,2.6,5.26a22.34,22.34,0,0,1-3.66,0C62.42,215.55,62.85,218.7,62.91,221.61Z"/>
        <path class="cls-157"
              d="M68.09,211.09H62.91v-2.63c.87-1,2.36-2,2.47-3.15a97.82,97.82,0,0,0,.12-10h2.59c0,3.33-.21,6.69.12,10,.12,1.13,1.61,2.11,2.48,3.15C69.82,209.34,69,210.22,68.09,211.09Z"/>
        <path class="cls-158" d="M75.87,216.35H73.28c.35-1.86-1.18-4.68,2-5.1,1-.13,2.14,1.6,3.23,2.47Z"/>
        <path class="cls-159" d="M88.82,192.69H94V198c-.87.87-1.73,1.75-2.6,2.63H86.23v-5.26Z"/>
        <path class="cls-20" d="M145.83,192.69l2.59,2.63h-2.59Z"/>
        <path class="cls-160"
              d="M135.46,187.43h-2.59V176.91l2.59-2.63h10.37v2.63C139.16,178.24,136.78,180.66,135.46,187.43Z"/>
        <path class="cls-161" d="M125.1,187.43v-7.89c2.87-.06,6-.5,5.21,4.18a24.14,24.14,0,0,0,0,3.71Z"/>
        <path class="cls-162"
              d="M130.28,187.43a24.14,24.14,0,0,1,0-3.71c.76-4.68-2.34-4.24-5.21-4.18v-2.63h7.77v10.52Z"/>
        <path class="cls-20" d="M148.42,195.32,151,198h-2.59Z"/>
        <path class="cls-163"
              d="M122.51,155.87c-.87-1.06-2.39-2.07-2.47-3.18-.3-4.18-.12-8.39-.12-12.59v-7.89c-.39-2,1.28-5-2.59-5.26l-.86-2.18L114.74,127v2.63c-3.88.22-2.21,3.26-2.6,5.26-.22,3.93-3.21,2.23-5.18,2.63h-5.18V103.28c3.72-4.29,3.72-8.86,0-13.14H99.19c-.87.87-1.73,1.75-2.59,2.62L94,95.39c-.87.88-1.73,1.76-2.6,2.63q-2.58,2.64-5.18,5.26L52.55,137.47c-.87.87-1.73,1.75-2.59,2.63l-5.19,2.63H42.18V140.1l2.59-2.63v-2.63l2.59-2.63c4.2-1.35,3-9,9.22-8,1.82-6.17,10-6.55,11.51-13L81.05,98c5-4.61,10-9.16,14.92-13.86,3-2.86,5.71-2.44,8.85-.24,2.14,1.51,5.19,1.25,4.9,5.67-.57,8.67-.26,17.4,0,26.1,0,1.15,1.61,2.25,2.47,3.37,1.66,0,3.33-.11,5,0,6.07.48,7.48,1.92,8,8.08.13,1.67,0,3.36,0,5.05v10.52c-.86,1-2.36,2-2.47,3.15A97.82,97.82,0,0,0,122.51,155.87Z"/>
        <path class="cls-164"
              d="M112.14,119.06c-.86-1.12-2.44-2.22-2.47-3.37-.21-8.7-.52-17.43,0-26.1.29-4.42-2.76-4.16-4.9-5.67-3.14-2.2-5.87-2.62-8.85.24C91.07,88.86,86,93.41,81.05,98H65.5c-1-2.58,2.4-6.65-2.59-7.88l2.59-5.26c3.88-.23,2.2-3.27,2.59-5.26,3.88-.23,2.2-3.27,2.6-5.26l2.59-2.63c2.39,8.87,7.34,11.79,15.53,9.12.12,0,0-.81,0-1.23h20.73l2.59,2.63c1.73,5.54,3.23,11.17,5.37,16.55.45,1.12,3.27,1.26,5,1.85l-5.18,5.26-2.59,2.63C112.28,111.64,111.83,115.26,112.14,119.06Z"/>
        <path class="cls-165"
              d="M125.1,137.47v-5.26c.86-.67,2.48-1.35,2.47-2-.06-4.41,3.05-3,5.3-3.25l5.19,5.26,2.59,2.63,2.59,2.63v2.63c-.87.87-1.73,1.75-2.59,2.63,0-3.33-2.48-2.73-4.32-2.58C132.26,140.48,128.46,140,125.1,137.47Z"/>
        <path class="cls-137" d="M114.74,108.54l2.59-2.63Z"/>
        <path class="cls-166" d="M151,132.21l-2.59,2.63Z"/>
        <path class="cls-167" d="M140.65,134.84l-2.59-2.63Z"/>
        <path class="cls-167" d="M143.24,137.47l-2.59-2.63Z"/>
        <ellipse class="cls-167" cx="144.53" cy="138.78" rx="1.83" ry="1.86"/>
        <path class="cls-78" d="M145.83,140.1v-2.63h2.59Z"/>
        <path class="cls-168"
              d="M135.46,187.43c1.32-6.77,3.7-9.19,10.37-10.52a32.84,32.84,0,0,0,0,5.06c.7,4.49-1,6.21-5.42,5.5A31.92,31.92,0,0,0,135.46,187.43Z"/>
        <path class="cls-169" d="M145.83,176.91v-2.63l2.59,2.63Z"/>
        <path class="cls-170"
              d="M143.24,140.1h2.59v5.26l-2.59,2,2.59,3.27h2.59v7.89l-5.18,2.63c-1.22-5.06-5.23-1.63-7.78-2.63h-13v-2.63l2.59-2.63c.86-1.1,2.46-2.19,2.47-3.3,0-5.63,3.08-7.37,8-7.22,1.7.05,3.39,0,5.09,0C141.51,141.85,142.37,141,143.24,140.1Z"/>
        <path class="cls-171"
              d="M122.51,158.5h13l7.78,5.26c-.31,3.81.13,7.42,2.59,10.52h-5.18l-.6-7.18a41.83,41.83,0,0,1-5.16,4.55h.57a7.12,7.12,0,0,0-.78-2c-.12-.17-1,.27-1.57.43a4.87,4.87,0,0,0,1.78,1.56,4.43,4.43,0,0,1,.57,2.63l-2.59,2.63h-5.18a9.57,9.57,0,0,1,.75-3.84c.26-.79-.25-.38-.75,0l1.16,1.17A12.48,12.48,0,0,0,130,172.7c.05-.1-.5-.53-1.56.37a4.69,4.69,0,0,1-3.34,1.21c-.39-2,1.29-5-2.59-5.26V158.5Z"/>
        <path class="cls-172"
              d="M151.42,167.19l-1.64,4.4c-1.32-2-3.4-3.79-3.67-5.87-.17-1.32,2.35-3,3.67-4.52C150.3,163.11,150.83,165,151.42,167.19Z"/>
        <path class="cls-173" d="M143.24,163.76l-7.78-5.26c2.55,1,6.56-2.43,7.78,2.63Z"/>
        <path class="cls-174" d="M145.83,150.61l-2.59-3.27,2.59-2Z"/>
        <path class="cls-28" d="M138.06,240l7.77-5.26C145.35,240,145.35,240,138.06,240Z"/>
        <path class="cls-175"
              d="M52.55,213.72c-.65,4.24,8.63,1.76,5.18,7.89,3.45,6.14-5.83,3.65-5.18,7.89H42.18c-.39-2,1.29-5-2.59-5.26v-2.63c3.88-.22,2.2-3.26,2.59-5.26v-2.63Z"/>
        <path class="cls-176" d="M39.59,224.24c3.88.23,2.2,3.27,2.59,5.26H39.59Z"/>
        <path class="cls-177"
              d="M109.55,79.62H91.41V63.84L94,61.21l2.59-2.63c.22,3.93,3.22,2.23,5.18,2.63l2.59,2.63c1,2.59-2.4,6.66,2.59,7.89S108.57,77,109.55,79.62Z"/>
        <path class="cls-178"
              d="M91.41,66.47V69.1c-.86,1-2.29,2-2.47,3.11a48.11,48.11,0,0,0-.12,7.41c0,.42.11,1.19,0,1.23-8.19,2.67-13.14-.25-15.53-9.12V69.1l5.18-5.26h2.59c1,.88,1.94,2.33,3.07,2.51A45.4,45.4,0,0,0,91.41,66.47Z"/>
        <path class="cls-179"
              d="M94,45.43V42.8c.71.29,1.8.37,2.1.91,4.86,8.69,4.89,8.72,13.44,4.35v5.26c-2.86-.06-6-.5-5.21,4.18a23,23,0,0,1,0,3.71h-2.59l-.6-7.18L96.6,58.58Q95.3,52,94,45.43Z"/>
        <path class="cls-180"
              d="M91.41,66.47a45.4,45.4,0,0,1-7.29-.12c-1.13-.18-2.05-1.63-3.07-2.51l1.64-2.28c2.2,3.54,5.71,1.93,8.72,2.28Z"/>
        <path class="cls-181" d="M94,61.21l-2.6,2.63Z"/>
        <path class="cls-182" d="M42.18,84.88H39.59V77h2.59Q41,83.44,47.36,82.25v2.63H42.18Z"/>
        <path class="cls-183"
              d="M101.78,29.66l2.59,2.63c0,3.43.11,6.87-.07,10.29,0,.87-1,1.68-1.55,2.52-.88-1.52-2.83-4-2.46-4.41C103.18,37.21,101.12,33.27,101.78,29.66Z"/>
        <path class="cls-184" d="M112.14,40.17c.87-.87,1.73-1.75,2.6-2.63,1,2.59-2.41,6.66,2.59,7.89v2.63h-5.19Z"/>
        <path class="cls-185" d="M109.55,50.69V48.06h2.59Z"/>
        <path class="cls-186" d="M109.55,32.29l2.15,1.76-2.15.86Z"/>
        <path class="cls-187" d="M47.36,42.8c-.39,2,1.29,5-2.59,5.26l-2.59-2.63V42.8h5.18Z"/>
        <path class="cls-188" d="M42.18,45.43l2.59,2.63Z"/>
        <path class="cls-189" d="M42.18,42.8v2.63L39.59,42.8Z"/>
        <path class="cls-98" d="M47.36,42.8H44.77l1.74-2.18Z"/>
        <path class="cls-190"
              d="M52.55,71.73c4.13,0,8.29-.18,12.4.12,1.1.08,2.1,1.63,3.14,2.51-4.21.4-2,3.76-2.62,5.8a9.93,9.93,0,0,1-1.22,2c-.45-.63-1.14-1.21-1.3-1.92-1.94-8.62-5.27.15-7.81-.66H52.55Z"/>
        <path class="cls-93"
              d="M52.55,71.73v7.89H50c.06-2.91.49-6.06-4.12-5.29a22.34,22.34,0,0,1-3.66,0c1-.88,1.94-2.33,3.07-2.51A45.5,45.5,0,0,1,52.55,71.73Z"/>
        <path class="cls-178" d="M70.69,74.36c-.4,2,1.28,5-2.6,5.26V74.36Z"/>
        <path class="cls-93" d="M42.18,77H39.59l2.59-2.63Z"/>
        <path class="cls-94" d="M91.79,30.59l.92-.93a8.21,8.21,0,0,1,.81,1.76c0,.22-.52.57-.81.87Z"/>
        <path class="cls-191"
              d="M44.77,134.84v2.63l-2.59,2.63c-3.87.22-2.2,3.26-2.59,5.26v5.25c-.86-1-2.29-2-2.47-3.11a46.78,46.78,0,0,1-.12-7.4c.86-3.94,1.93-7.85,2.47-11.83.16-1.21-1.17-2.63-1.81-4-1.39.75-3,1.25-4.13,2.29-3.34,3.08-1.05,7.24-1.71,10.86H29.23l-2.59-2.63c0-3.34.21-6.69-.12-10-.12-1.13-1.61-2.11-2.48-3.16.6-.88,1-2.22,1.82-2.54,2.78-1.1,5.69-1.84,8.55-2.72H37c1.17,1.63,2.06,3.6,3.56,4.8,3.61,2.91,5,6.45,4.21,11Z"/>
        <path class="cls-192" d="M37,116.43H34.41c0-8.81,0-8.81-5.18-15.78L37,103.28Z"/>
        <path class="cls-193" d="M24,98c2,.4,5-1.3,5.19,2.63C27.26,100.26,24.27,102,24,98Z"/>
        <path class="cls-194"
              d="M37,116.43V103.28c4.76.16,7.88-1.54,7.78-7-.05-2.93,0-5.86,0-8.79V84.88h2.59c.19,12.1,1.49,13,11.65,7.86a39.44,39.44,0,0,0,3.9-2.6c5,1.23,1.61,5.3,2.59,7.88-.86.88-1.72,1.76-2.59,2.63-10.27,2.72-10.27,2.72-10.36,12,0,1.27,0,2.53,0,3.79-5.19,7-5.19,7-5.19,15.78H44.77c.81-4.53-.6-8.07-4.21-11C39.06,120,38.17,118.06,37,116.43Z"/>
        <path class="cls-195" d="M44.77,84.88v2.63l-2.59-2.63Z"/>
        <path class="cls-196"
              d="M37,140.1a46.78,46.78,0,0,0,.12,7.4c.18,1.15,1.61,2.08,2.47,3.11v2.63c-.86,1.76-1.73,3.51-2.59,5.26l-2.59,2.63c-.22-3.93-3.22-2.23-5.18-2.63l-7.78-2.63v-2.63c.51-.79,1.47-1.61,1.43-2.38-.06-1-.92-1.92-1.43-2.87,6.86-1,9.79-3.27,10.37-7.89Z"/>
        <path class="cls-197"
              d="M31.82,140.1c-.58,4.62-3.51,6.85-10.37,7.89a35.63,35.63,0,0,1,1.74-5.62,37.07,37.07,0,0,1,3.45-4.9h5.18Z"/>
        <path class="cls-198" d="M29.23,137.47H26.64v-2.63Z"/>
        <path class="cls-199"
              d="M119.92,32.29V29.66q6.36-1.2,5.18,5.25V45.43h-5.18c-1.27-3.1-5.19-6.12-.08-9.44C120.41,35.62,119.92,33.56,119.92,32.29Z"/>
        <path class="cls-200" d="M125.1,45.43V34.91h2.59V45.43Z"/>
        <path class="cls-201"
              d="M119.92,32.29c0,1.27.49,3.33-.08,3.7-5.11,3.32-1.19,6.34.08,9.44h-2.59c-5-1.23-1.61-5.3-2.59-7.89Q113.56,31.09,119.92,32.29Z"/>
        <path class="cls-202"
              d="M139,36.09c-1.15,1.69-1.73,3.5-2.84,3.93-1.4.54-3.22-.06-4.86-.16A23.23,23.23,0,0,1,133,35c.68-1.13,2.05-1.83,3.11-2.71Z"/>
        <path class="cls-203" d="M127.69,45.43V42.8h13v2.63h-13Z"/>
        <ellipse class="cls-204" cx="141.94" cy="44.12" rx="1.83" ry="1.86"/>
        <ellipse class="cls-51" cx="144.53" cy="44.12" rx="1.83" ry="1.86"/>
        <path class="cls-176"
              d="M42.18,216.35c-.39,2,1.29,5-2.59,5.26l-1.72-2.19c-4,7.41-4,7.41-11.34,7.45H24v-2.63a30.71,30.71,0,0,0,5.08-.06c1.68-.29,4.7-1.18,4.67-1.63a18.29,18.29,0,0,0-1.88-7.26c-1.35-2.5-3.48-4.57-5.27-6.83h5.18C32,212.4,35,210.7,37,211.09Z"/>
        <path class="cls-205"
              d="M26.64,208.46c1.79,2.26,3.92,4.33,5.27,6.83a18.29,18.29,0,0,1,1.88,7.26c0,.45-3,1.34-4.67,1.63a30.71,30.71,0,0,1-5.08.06c-.86-1.05-2.35-2-2.47-3.15-.33-3.3-.12-6.66-.12-10Z"/>
        <path class="cls-206"
              d="M34.41,161.13,37,158.5c2,.4,5-1.3,5.18,2.63-6.65,5.78-6.74,6.54-1.83,12.64a23.21,23.21,0,0,1,1.83,3.14c-6.61.73-10.86-2.15-13-8.52-.29-.86-1.65-1.34-2.51-2l2.59-2.63Z"/>
        <path class="cls-207" d="M34.41,161.13l-5.18,2.63V158.5C31.19,158.9,34.19,157.2,34.41,161.13Z"/>
        <path class="cls-208"
              d="M42.18,161.13C42,157.2,39,158.9,37,158.5c.86-1.75,1.73-3.5,2.59-5.26h7.77c2.47,5.6,7.21,2.13,10.78,2.42,3.74.31,4.68,1.26,5,5.05.28,3.63-3.13,8.44,2.38,10.94v2.63c-6.16-1.23-10.39,3.41-15.54,5.26v-2.63C49.67,170.48,46.21,165.66,42.18,161.13Z"/>
        <path class="cls-209"
              d="M34.41,179.54H50c.39,2-1.29,5,2.59,5.26,0,2.08-.77,5.4.15,6,2.1,1.35,5,1.34,7.62,1.89v2.63c-4.48.07-9.15-.83-13,2.63v-2.63c.61-1.06,1.92-2.3,1.7-3.14-.65-2.52-1.29-6.09-3.07-7-2.32-1.19-5.82.08-7.77-2.92-.41.7-1.22,1.46-1.15,2.1.26,2.2-1.45,5.1,2.8,5.94,1.88.37,3.28,3.27,4.9,5H39.59c-1.09-.88-2.26-2.59-3.25-2.49-4.4.44-5-1.92-4.52-5.4C36.81,186.2,33.42,182.13,34.41,179.54Z"/>
        <path class="cls-210"
              d="M42.18,176.91a23.21,23.21,0,0,0-1.83-3.14c-4.91-6.1-4.82-6.86,1.83-12.64q1.3,7.89,2.59,15.78Z"/>
        <path class="cls-206" d="M44.77,176.91q-1.29-7.89-2.59-15.78c4,4.53,7.49,9.35,7.78,15.78Z"/>
        <path class="cls-211" d="M34.41,179.54c-1,2.59,2.4,6.66-2.59,7.89v-7.89Z"/>
        <ellipse class="cls-209" cx="30.52" cy="186.11" rx="1.83" ry="1.86"/>
        <path class="cls-212"
              d="M29.23,187.43h2.59c-.46,3.48.12,5.84,4.52,5.4,1-.1,2.16,1.61,3.25,2.49H34.41c-2,.39-5-1.31-5.18,2.63-3.88-.23-2.2-3.27-2.59-5.26C30.51,192.46,28.84,189.42,29.23,187.43Z"/>
        <ellipse class="cls-213" cx="22.75" cy="191.37" rx="1.83" ry="1.86"/>
        <path class="cls-214"
              d="M29.23,198c.22-3.94,3.21-2.24,5.18-2.63v13.14H31.82c-.29-.73-.48-2-.88-2.1-3.28-.58-5.8-1.11-1.8-4.68C29.76,201.12,29.23,199.22,29.23,198Z"/>
        <path class="cls-215"
              d="M138.06,58.58l-5.19,2.63c-.86-2.16-1.12-5.25-2.7-6.31-4.15-2.75.26-4.62.11-6.84h5.18C137.92,51.16,138.37,54.78,138.06,58.58Z"/>
        <path class="cls-216"
              d="M130.28,48.06c.15,2.22-4.26,4.09-.11,6.84,1.58,1.06,1.84,4.15,2.7,6.31h-5.18c-.86-2.9-1.59-5.86-2.67-8.67-.32-.82-1.65-1.24-2.51-1.85V48.06h7.77Z"/>
        <path class="cls-217"
              d="M138.06,58.58c.31-3.8-.14-7.42-2.6-10.52V45.43h2.6c.22,3.94,3.21,2.24,5.18,2.63v5.26c-3.88.23-2.2,3.27-2.59,5.26Z"/>
        <ellipse class="cls-218" cx="126.4" cy="62.52" rx="1.83" ry="1.86"/>
        <path class="cls-219" d="M143.24,48.06c-2-.39-5,1.31-5.18-2.63h7.77v2.63Z"/>
        <path class="cls-220"
              d="M117.33,79.62c-1.17-1.62-2.46-3.17-3.46-4.89a30.85,30.85,0,0,1-1.72-4.32c1.9-.44,4.11-1.68,5.62-1.09s2.85,2.87,3.74,4.67c.29.58-1,2-1.59,3Z"/>
        <path class="cls-221" d="M127.69,77h2.59l-1.74,2.18Z"/>
        <path class="cls-222" d="M125.1,77l1.74-2.18.85,2.18Z"/>
        <path class="cls-109" d="M114.74,61.21H107c1.45-5.82,5.94-5.47,10.37-5.26.86,1.75,1.72,3.51,2.59,5.26Z"/>
        <path class="cls-223"
              d="M117.33,56c-4.43-.21-8.92-.56-10.37,5.26h-2.59a23,23,0,0,0,0-3.71c-.76-4.68,2.35-4.24,5.21-4.18C112.1,54.32,116.11,50.88,117.33,56Z"/>
        <path class="cls-224"
              d="M114.74,61.21H125.1v2.63a45.52,45.52,0,0,1-7.3-.12C116.67,63.54,115.75,62.09,114.74,61.21Z"/>
        <path class="cls-225"
              d="M107,71.73c-5-1.23-1.6-5.3-2.59-7.89,3,.08,7.26-.79,2.67,4.29C106.44,68.8,107,70.5,107,71.73Z"/>
        <path class="cls-226" d="M101.78,61.21h2.59v2.63Z"/>
        <path class="cls-227"
              d="M101.78,137.47H107c1.22,5.06,5.22,1.63,7.78,2.63,0,3.33-.22,6.69.11,10,.12,1.12,1.61,2.11,2.48,3.15-1.09.88-2.28,2.61-3.23,2.48-3.13-.42-1.61-3.24-2-5.11V148c-.88-5.11-4.74-2-7.19-2.55-4-.86-6.64-.11-5.88,5.28.6,4.27.12,8.69.12,13-2.32,4.84-6.42,4.21-7.47.38-2.09-7.57-4,2.4-5.49-.38,0-5.4,4.41-10.06,2.59-15.77-.37-1.87,1.2-5.14-2-5.13-7.11,0-14.21.74-21.32,1.18l-13-1.31V140.1c.86-.88,1.72-1.76,2.59-2.63a6.61,6.61,0,0,1,2.13.9c2.8,2.69,4.88,3.5,5.74-1.54.14-.79,1.63-1.34,2.49-2,0,3.51,2.66,2.58,4.52,2.59,5.9,0,11.81-.1,17.71-.16.36-6.3.81-12.59,1-18.88.07-1.88.91-4.57-2.55-4.59,2.22-3.94,2.22-3.94,0-7.89.87-.87,1.73-1.75,2.59-2.63s1.73-1.75,2.59-2.63S93.14,98.9,94,98l2.59-2.63c3.46,0,2.55,2.7,2.56,4.59.06,11.6,0,23.21.06,34.81a31,31,0,0,0,.78,4.82C100.59,138.89,101.19,138.18,101.78,137.47Z"/>
        <path class="cls-228"
              d="M88.82,148c1.82,5.71-2.56,10.37-2.59,15.77H70.69l-2.6,2,2.6,3.27c.67.88,1.34,2.51,2,2.52q20,.22,40,0c.69,0,1.36-1.64,2-2.52h2.59v5.26H68.09l-2.59-2.63a19.08,19.08,0,0,0,0-3.93c-1-4.66,1.29-7,5.36-8,2-.51,4-.71,6-1.23a35.42,35.42,0,0,0,4-1.56c-1.16-.35-2.77-.32-3.38-1.1-2.19-2.81-5-2.64-8.06-2.6-7.32.1-14.65,0-22,0H42.18c-.39-2,1.29-5-2.59-5.25v-2.63l2.59-2.63h2.59C45,145,43.64,148.07,48,148,61.61,147.91,75.22,148,88.82,148Z"/>
        <path class="cls-229"
              d="M117.33,169H70.69v-2.63a94.91,94.91,0,0,0,9.84-.12c1.11-.11,2.08-1.63,3.11-2.51h2.59c1.5,2.78,3.4-7.19,5.49.38,1,3.83,5.15,4.46,7.47-.38h13c.23,3.94,3.22,2.24,5.19,2.63Z"/>
        <path class="cls-230"
              d="M117.33,153.24c-.87-1-2.36-2-2.48-3.15-.33-3.3-.11-6.66-.11-10V127h2.59c3.87.22,2.2,3.26,2.59,5.26-5,1.23-1.61,5.3-2.59,7.89Z"/>
        <path class="cls-231"
              d="M101.78,163.76H99.19c0-4.35.48-8.77-.12-13-.76-5.39,1.93-6.14,5.88-5.28,2.45.53,6.31-2.56,7.19,2.55h-7.77c-.86,1-2.39,2.07-2.47,3.18C101.6,155.35,101.78,159.56,101.78,163.76Z"/>
        <path class="cls-232" d="M101.78,163.76c0-4.2-.18-8.41.12-12.59.08-1.11,1.61-2.13,2.47-3.18v15.77Z"/>
        <path class="cls-233" d="M117.33,140.1c1-2.59-2.41-6.66,2.59-7.89v7.89Z"/>
        <path class="cls-170" d="M122.51,158.5v7.89C119,163.75,119,161.15,122.51,158.5Z"/>
        <path class="cls-232" d="M117.33,166.39c-2-.39-5,1.31-5.19-2.63C114.11,164.16,117.11,162.46,117.33,166.39Z"/>
        <path class="cls-232" d="M109.55,148h2.59v2.62Z"/>
        <path class="cls-66"
              d="M60.32,195.32v-2.63l-7.77-7.89c-3.88-.23-2.2-3.27-2.59-5.26,5.15-1.85,9.38-6.49,15.54-5.26h2.59c.6.88,1,2.22,1.82,2.54,2.78,1.1,5.69,1.84,8.55,2.72-1.51,3.72-3.3,7.37-4.3,11.23-.21.81,2.53,2.4,3.91,3.63-.31.3-.56.73-.93.88a3.35,3.35,0,0,1-1.27,0H60.32Z"/>
        <path class="cls-66"
              d="M88.82,187.43h2.59l-2.59,5.26H86.23c-.86-1.1-2.56-2.31-2.44-3.28C84.21,186.23,87,187.78,88.82,187.43Z"/>
        <path class="cls-234" d="M86.23,192.69h2.59l-2.59,2.63Z"/>
        <path class="cls-235"
              d="M62.91,208.46v2.63l-2.59,2.63H52.55a40.89,40.89,0,0,1-3.2-2.65,22.44,22.44,0,0,1-2-2.61Z"/>
        <path class="cls-236" d="M60.32,213.72l2.59-2.63Z"/>
        <path class="cls-237"
              d="M60.32,195.32H65.5a97.82,97.82,0,0,1-.12,10c-.11,1.13-1.6,2.11-2.47,3.15v-2.62c0-7.41,0-7.41-5.18-7.89-4.48-.58-6.71,1.76-7.87,5.89-.23.84-1.63,1.34-2.5,2V198C51.17,194.49,55.84,195.39,60.32,195.32Z"/>
        <path class="cls-238" d="M135.46,171.65l4.59-4.55.6,7.18h-5.19Z"/>
        <path class="cls-239" d="M132.87,176.91l2.59-2.63Z"/>
        <path class="cls-240"
              d="M65.5,134.84c-.86.65-2.35,1.2-2.49,2-.86,5-2.94,4.23-5.74,1.54a6.61,6.61,0,0,0-2.13-.9H52.55l33.68-34.19v2.63c2.22,4,2.22,4,0,7.89Z"/>
        <path class="cls-241"
              d="M88.82,148c-13.6,0-27.21-.08-40.82,0-4.36,0-3-3-3.23-5.3L50,140.1l2.59,2.63,13,1.31c7.11-.44,14.21-1.16,21.32-1.18C90,142.85,88.45,146.12,88.82,148Z"/>
        <path class="cls-242"
              d="M47.36,132.21c0-8.81,0-8.81,5.19-15.78,3.61-1,4.9-3.38,5.33-7.19.46-4,2.07-4.26,5.42-1.64,1.56,1.23,3.19,2.39,4.79,3.57-1.51,6.45-9.69,6.83-11.51,13C50.41,123.19,51.56,130.86,47.36,132.21Z"/>
        <path class="cls-243"
              d="M101.78,137.47c-.59.71-1.19,1.42-1.78,2.14a31,31,0,0,1-.78-4.82c-.06-11.6,0-23.21-.06-34.81,0-1.89.9-4.57-2.56-4.59V92.76c.86-.87,1.72-1.75,2.59-2.62h2.59v47.33Z"/>
        <path class="cls-244"
              d="M62.91,100.65c.87-.87,1.73-1.75,2.59-2.63H81.05l-13,13.15a33.83,33.83,0,0,0-1.74-5.61A36.81,36.81,0,0,0,62.91,100.65Z"/>
        <path class="cls-167"
              d="M140.65,142.73c-1.7,0-3.39,0-5.09,0-4.91-.15-8,1.59-8,7.22,0,1.11-1.61,2.2-2.47,3.3V137.47c3.36,2.54,7.16,3,11.23,2.68C138.17,140,140.66,139.4,140.65,142.73Z"/>
        <path class="cls-146"
              d="M125.1,142.73v10.51l-2.59,2.63a97.82,97.82,0,0,1,.12-10C122.74,144.76,124.24,143.77,125.1,142.73Z"/>
        <path class="cls-240" d="M101.78,103.28V90.14C105.5,94.42,105.5,99,101.78,103.28Z"/>
        <path class="cls-233" d="M114.74,134.84v5.26c-2.56-1-6.56,2.43-7.78-2.63,2-.4,5,1.3,5.18-2.63Z"/>
        <path class="cls-245" d="M91.41,100.65c-.86.88-1.72,1.76-2.59,2.63H86.23q2.59-2.62,5.18-5.26Z"/>
        <path class="cls-246" d="M42.18,142.73l-2.59,2.63c.39-2-1.28-5,2.59-5.26Z"/>
        <path class="cls-247" d="M91.41,100.65V98c.87-.87,1.73-1.75,2.6-2.63V98C93.14,98.9,92.28,99.78,91.41,100.65Z"/>
        <path class="cls-248" d="M52.55,142.73,50,140.1c.86-.88,1.72-1.76,2.59-2.63v5.26Z"/>
        <path class="cls-227" d="M114.74,134.84h-2.6c.39-2-1.28-5,2.6-5.26Z"/>
        <path class="cls-233" d="M117.33,127h-2.59l1.73-2.18Z"/>
        <path class="cls-246" d="M42.18,140.1l2.59-2.63Z"/>
        <path class="cls-240" d="M96.6,92.76v2.63H94Z"/>
        <path class="cls-240" d="M99.19,90.14c-.87.87-1.73,1.75-2.59,2.62C97.46,91.89,98.32,91,99.19,90.14Z"/>
        <path class="cls-242" d="M44.77,132.21h2.59l-2.59,2.63Z"/>
        <path class="cls-195"
              d="M62.91,90.14a39.44,39.44,0,0,1-3.9,2.6C48.85,97.88,47.55,97,47.36,84.88q6.36,1.19,5.19-5.26h2.59c1.45,5.82,5.94,5.47,10.36,5.26Z"/>
        <path class="cls-96"
              d="M65.5,84.88c-4.42.21-8.91.56-10.36-5.26,2.54.81,5.87-8,7.81.66.16.71.85,1.29,1.3,1.92a9.93,9.93,0,0,0,1.22-2c.67-2-1.59-5.4,2.62-5.8v5.26C67.7,81.61,69.38,84.65,65.5,84.88Z"/>
        <path class="cls-249" d="M88.82,79.62a48.11,48.11,0,0,1,.12-7.41c.18-1.14,1.61-2.08,2.47-3.11V79.62Z"/>
        <path class="cls-150" d="M134.31,171.65l-1.2-1.56c.55-.16,1.45-.6,1.57-.43a7.12,7.12,0,0,1,.78,2Z"/>
        <path class="cls-150" d="M129.2,171.87c.3.3.85.73.8.83a12.48,12.48,0,0,1-1.15,1.58l-1.16-1.17Z"/>
        <path class="cls-250"
              d="M47.36,198v10.51a22.44,22.44,0,0,0,2,2.61,40.89,40.89,0,0,0,3.2,2.65H42.18V200.58c-.86-1.76-1.73-3.51-2.59-5.26h5.18C45.64,196.19,46.5,197.07,47.36,198Z"/>
        <path class="cls-251" d="M42.18,211.09v5.26L37,211.09Z"/>
        <path class="cls-252" d="M96.6,58.58,101.18,54l.6,7.18C99.82,60.81,96.82,62.51,96.6,58.58Z"/>
        <path class="cls-253"
              d="M122.51,61.21h-2.59c-.87-1.75-1.73-3.51-2.59-5.26-1.22-5.07-5.23-1.63-7.78-2.63V50.69l2.59-2.63h5.19c.86.88,1.72,1.76,2.59,2.63C122.37,53.79,122.82,57.41,122.51,61.21Z"/>
        <path class="cls-254"
              d="M42.18,77V74.36a22.34,22.34,0,0,0,3.66,0c4.61-.77,4.18,2.38,4.12,5.29-.87.87-1.73,1.75-2.6,2.63Q41,83.44,42.18,77Z"/>
        <path class="cls-190" d="M52.55,79.62q1.17,6.45-5.19,5.26V82.25L50,79.62Z"/>
        <path class="cls-255" d="M117.33,45.43h5.18v2.63h-5.18Z"/>
        <path class="cls-256"
              d="M31.82,140.1v-2.63c.66-3.62-1.63-7.78,1.71-10.86,1.13-1,2.74-1.54,4.13-2.29.64,1.32,2,2.74,1.81,4-.54,4-1.61,7.89-2.47,11.83Z"/>
        <path class="cls-246" d="M39.59,148c3.88.22,2.2,3.26,2.59,5.25H39.59V148Z"/>
        <path class="cls-257"
              d="M62.91,100.65a36.81,36.81,0,0,1,3.44,4.91,33.83,33.83,0,0,1,1.74,5.61c-1.6-1.18-3.23-2.34-4.79-3.57-3.35-2.62-5-2.39-5.42,1.64-.43,3.81-1.72,6.18-5.33,7.19,0-1.26,0-2.52,0-3.79C52.64,103.37,52.64,103.37,62.91,100.65Z"/>
        <ellipse class="cls-258" cx="123.8" cy="46.75" rx="1.83" ry="1.86"/>
        <path class="cls-219" d="M125.1,48.06V45.43h10.36v2.63H125.1Z"/>
        <path class="cls-259" d="M31.82,208.46H37v2.63C35,210.7,32,212.4,31.82,208.46Z"/>
        <path class="cls-146"
              d="M47.36,153.24c7.33,0,14.66.07,22,0,3,0,5.87-.21,8.06,2.6.61.78,2.22.75,3.38,1.1a35.42,35.42,0,0,1-4,1.56c-2,.52-4,.72-6,1.23-4.07,1.06-6.36,3.36-5.36,8a19.08,19.08,0,0,1,0,3.93c-5.51-2.5-2.1-7.31-2.38-10.94-.3-3.79-1.24-4.74-5-5.05C54.57,155.37,49.83,158.84,47.36,153.24Z"/>
        <path class="cls-146" d="M68.09,174.28H65.5v-2.63Z"/>
        <path class="cls-260"
              d="M44.77,195.32c-1.62-1.76-3-4.66-4.9-5-4.25-.84-2.54-3.74-2.8-5.94-.07-.64.74-1.4,1.15-2.1,2,3,5.45,1.73,7.77,2.92,1.78.92,2.42,4.49,3.07,7,.22.84-1.09,2.08-1.7,3.14Z"/>
        <path class="cls-261"
              d="M52.55,184.8l7.77,7.89c-2.59-.55-5.52-.54-7.62-1.89C51.78,190.2,52.55,186.88,52.55,184.8Z"/>
        <path class="cls-262" d="M44.77,195.32h2.59V198C46.5,197.07,45.64,196.19,44.77,195.32Z"/>
        <path class="cls-263"
              d="M39.59,195.32c.86,1.75,1.73,3.5,2.59,5.26-2.25.22-5.36-1.16-5.3,3.25,0,.65-1.61,1.34-2.47,2V195.32Z"/>
        <path class="cls-264" d="M34.41,205.84c.86-.67,2.48-1.36,2.47-2-.06-4.41,3-3,5.3-3.25v7.88H34.41Z"/>
        <path class="cls-265"
              d="M122.51,61.21c.31-3.8-.14-7.42-2.59-10.52h2.59c.86.61,2.19,1,2.51,1.85,1.08,2.81,1.81,5.77,2.67,8.67h-5.18Z"/>
        <path class="cls-266" d="M122.51,50.69h-2.59c-.87-.87-1.73-1.75-2.59-2.63h5.18Z"/>
        <path class="cls-267"
              d="M65.5,134.84l20.73-21c3.46,0,2.62,2.71,2.55,4.59-.24,6.29-.69,12.58-1,18.88-5.9.06-11.81.19-17.71.16C68.16,137.42,65.52,138.35,65.5,134.84Z"/>
        <path class="cls-268" d="M52.55,140.1v-2.63h2.59C54.27,138.34,53.41,139.22,52.55,140.1Z"/>
        <path class="cls-269" d="M86.23,103.28h2.59c-.86.88-1.72,1.76-2.59,2.63Z"/>
        <path class="cls-270" d="M94,95.39H96.6L94,98Z"/>
        <path class="cls-146"
              d="M70.69,169h44.05c-.68.88-1.35,2.51-2,2.52q-20,.22-40,0C72,171.53,71.36,169.9,70.69,169Z"/>
        <path class="cls-227" d="M83.64,163.76c-1,.88-2,2.4-3.11,2.51a94.91,94.91,0,0,1-9.84.12v-2.63Z"/>
        <path class="cls-146" d="M70.69,163.76V169l-2.6-3.27Z"/>
        <path class="cls-271"
              d="M47.36,208.46v-2.62c.87-.66,2.27-1.16,2.5-2,1.16-4.13,3.39-6.47,7.87-5.89-4.19,7.4-4.07,7.64,4,7.88.41,0,.81,0,1.22,0v2.62Z"/>
        <path class="cls-272"
              d="M62.91,205.84c-.41,0-.81,0-1.22,0-8-.24-8.15-.48-4-7.88C62.91,198.43,62.91,198.43,62.91,205.84Z"/>
        <ellipse class="cls-176" cx="39.59" cy="209.78" rx="3.66" ry="1.86"/>
        <path class="cls-93" d="M50,79.62l-2.6,2.63C48.23,81.37,49.09,80.49,50,79.62Z"/>
    </g>
</svg>