<svg id="Calque_1" data-name="Calque 1" xmlns="http://www.w3.org/2000/svg" viewBox="0 0 167.24 257.95">
    <defs>
        <style>
            .cls-1{fill:#fefefe;}.cls-2{fill:#0f1516;}.cls-3{fill:#101a1c;}.cls-4{fill:#e8e7d5;}.cls-5{fill:#acacaa;}.cls-6{fill:#f9f8f6;}.cls-7{fill:#e7e6c6;}.cls-8{fill:#adadac;}.cls-9{fill:#f9f6d1;}.cls-10{fill:#fcf8d5;}.cls-11{fill:#fdfebc;}.cls-12{fill:#f8fde7;}.cls-13{fill:#fced0b;}.cls-14{fill:#fdfcf2;}.cls-15{fill:#fcfcf5;}.cls-16{fill:#fbfedc;}.cls-17{fill:#fafedb;}.cls-18{fill:#fded00;}.cls-19{fill:#faf9f9;}.cls-20{fill:#fced11;}.cls-21{fill:#faed07;}.cls-22{fill:#f5f963;}.cls-23{fill:#f9ec3a;}.cls-24{fill:#faec08;}.cls-25{fill:#e6e554;}.cls-26{fill:#f0ea09;}.cls-27{fill:#fcf183;}.cls-28{fill:#f8ec45;}.cls-29{fill:#fbec4b;}.cls-30{fill:#f9f06a;}.cls-31{fill:#f9f052;}.cls-32{fill:#feef3e;}.cls-33{fill:#f9f07a;}.cls-34{fill:#f9f208;}.cls-35{fill:#fbef6a;}.cls-36{fill:#f9f042;}.cls-37{fill:#fbf05e;}.cls-38{fill:#fbf16a;}.cls-39{fill:#f4f100;}.cls-40{fill:#fcee3f;}.cls-41{fill:#f1ee3b;}.cls-42{fill:#feea7f;}.cls-43{fill:#feed1e;}.cls-44{fill:#fee93c;}.cls-45{fill:#feec56;}.cls-46{fill:#feee45;}.cls-47{fill:#fded5d;}.cls-48{fill:#fee82a;}.cls-49{fill:#5c5a5d;}.cls-50{fill:#f6f3da;}.cls-51{fill:#4b4b4b;}.cls-52{fill:#f5f216;}.cls-53{fill:#fbf181;}.cls-54{fill:#363636;}.cls-55{fill:#d4d4d4;}.cls-56{fill:#141414;}.cls-57{fill:#f7fccb;}.cls-58{fill:#4d4d4d;}.cls-59{fill:#fbf062;}.cls-60{fill:#fdf153;}.cls-61{fill:#fbee04;}.cls-62{fill:#f8f27b;}.cls-63{fill:#fbf23f;}.cls-64{fill:#feeb28;}.cls-65{fill:#fcf06f;}.cls-66{fill:#ece9e4;}.cls-67{fill:#f8fced;}.cls-68{fill:#f9fbeb;}.cls-69{fill:#443f41;}.cls-70{fill:#363738;}.cls-71{fill:#efede6;}.cls-72{fill:#5d5b5a;}.cls-73{fill:#191528;}.cls-74{fill:#8e8596;}.cls-75{fill:#dbd7d8;}.cls-76{fill:#edfee3;}.cls-77{fill:#110807;}.cls-78{fill:#f9ee45;}.cls-79{fill:#fcef62;}.cls-80{fill:#fcef76;}.cls-81{fill:#fbee0a;}.cls-82{fill:#fdec55;}.cls-83{fill:#fcef54;}.cls-84{fill:#fcef2e;}.cls-85{fill:#feec37;}.cls-86{fill:#fcec42;}.cls-87{fill:#fdf53a;}.cls-88{fill:#fee92f;}.cls-89{fill:#feec49;}.cls-90{fill:#feef34;}.cls-91{fill:#fef226;}.cls-92{fill:#feeb25;}.cls-93{fill:#faf493;}.cls-94{fill:#fef275;}.cls-95{fill:#faf276;}.cls-96{fill:#fbee10;}.cls-97{fill:#fbf17c;}.cls-98{fill:#eef50c;}.cls-99{fill:#f5f2d2;}.cls-100{fill:#363436;}.cls-101{fill:#060606;}.cls-102{fill:#fbf06d;}.cls-103{fill:#faf753;}.cls-104{fill:#faf291;}.cls-105{fill:#f7ed3c;}.cls-106{fill:#f8f056;}.cls-107{fill:#f9f7f4;}.cls-108{fill:#f4f2cb;}.cls-109{fill:#fdef5c;}.cls-110{fill:#fdf085;}.cls-111{fill:#070600;}.cls-112{fill:#0e0b14;}.cls-113{fill:#080404;}.cls-114{fill:#3a3638;}.cls-115{fill:#f9f113;}.cls-116{fill:#fded89;}.cls-117{fill:#f7f2e4;}.cls-118{fill:#f7f456;}.cls-119{fill:#f8f37c;}.cls-120{fill:#fdf39e;}.cls-121{fill:#f9f8eb;}.cls-122{fill:#faf6ab;}.cls-123{fill:#fdf34a;}.cls-124{fill:#f4f3ed;}.cls-125{fill:#2b272d;}.cls-126{fill:#140f18;}.cls-127{fill:#0f0c0e;}.cls-128{fill:#040312;}.cls-129{fill:#423e45;}.cls-130{fill:#434145;}.cls-131{fill:#1c1d1d;}.cls-132{fill:#8a868e;}.cls-133{fill:#fdf9f4;}.cls-134{fill:#444144;}.cls-135{fill:#fbfad8;}.cls-136{fill:#363637;}.cls-137{fill:#0c0c0c;}.cls-138{fill:#f6f5f9;}.cls-139{fill:#242424;}.cls-140{fill:#18161a;}.cls-141{fill:#181721;}.cls-142{fill:#2e2d2e;}.cls-143{fill:#0f0c0d;}.cls-144{fill:#0c0d0a;}.cls-145{fill:#383f31;}.cls-146{fill:#1f1d30;}.cls-147{fill:#171717;}.cls-148{fill:#130e19;}.cls-149{fill:#191815;}
        </style>
    </defs>
    <g id="S9x60W.tif">
        <path class="cls-1"
              d="M4.38,256.81c-2.56-.2-5.41,1.42-5.38-3.94.29-46.44.17-92.88.17-139.32,0-36.8.06-73.6-.1-110.4,0-3.42.62-4,4-4q78.26.22,156.5.11c2.18,0,6-.52,6.23.09.72,2.4.29,5.16.29,7.79l-5.21-2.63C160-.64,156,2,153.65,2c-48-.17-96-.13-144-.13L4.38,7.09C-1.2,9.14,2,13.86,2,17q-.34,117.26-.18,234.52C2.65,253.31,3.51,255.06,4.38,256.81Z"/>
        <ellipse cx="164.8" cy="130.64" rx="1.84" ry="171"/>
        <ellipse cx="83.94" cy="255.5" rx="108.82" ry="1.86"/>
        <path class="cls-2" d="M160.89,256.81v-5.26h5.21v2.63c-.87.88-1.73,1.76-2.6,2.63Z"/>
        <path d="M166.1,9.72h-5.21V4.46l5.21,2.63Z"/>
        <path class="cls-3" d="M7,254.18v2.63H4.38c-.87-1.75-1.73-3.5-2.6-5.26H7Z"/>
        <path class="cls-1" d="M163.5,256.81c.87-.87,1.73-1.75,2.6-2.63C166.61,256.45,165.74,257.32,163.5,256.81Z"/>
        <path d="M4.38,251.55H1.78Q1.78,134.29,2,17C2,13.86-1.2,9.14,4.38,7.09Z"/>
        <path d="M9.6,1.83c48,0,96,0,144.05.13,2.37,0,6.34-2.6,7.24,2.5H9.6Z"/>
        <path d="M9.6,1.83V7.09H4.38Z"/>
        <path class="cls-4" d="M160.89,9.72h2.61V251.55h-2.61V9.72Z"/>
        <path class="cls-5" d="M7,254.18v-2.63h153.9v2.63Z"/>
        <path class="cls-6"
              d="M160.89,9.72V199c-.87-1-2.31-2-2.49-3.11a46.78,46.78,0,0,1-.12-7.4V122.75c0-35.25.06-70.5-.13-105.75,0-2.39,2.58-6.38-2.48-7.28h-2.61V7.09h7.83Z"/>
        <path class="cls-7" d="M160.89,7.09H9.6V4.46H160.89Z"/>
        <path class="cls-8" d="M4.38,7.09H7V251.55H4.38Z"/>
        <path class="cls-9"
              d="M7,64.92V7.09H153.06V9.72H64.38c-15.86,0-31.72,0-47.58,0-1.88,0-4.57-.94-4.59,2.6-1.15,7.29,2.55,15.08-2.25,22,4.73,2.8-.68,9.72,4.86,12.19-.57,1.89-1.65,3.8-1.59,5.67.07,2.5,1,5,1.59,7.47-3.53,0-2.57,2.74-2.58,4.64q-.08,27.92,0,55.82V128c0,35.25.06,70.5-.13,105.75,0,2.39,2.58,6.38-2.48,7.28V157.21c0-28.77,0-57.54-.08-86.3C9.51,68.81,11.34,65.38,7,64.92Z"/>
        <path class="cls-10"
              d="M158.28,188.47a46.78,46.78,0,0,0,.12,7.4c.18,1.14,1.62,2.08,2.49,3.11v52.57h-5.22v-2.62c0-10.3.08-20.59-.11-30.89,0-1.11-1.63-2.19-2.5-3.29,1-5.43.63-7.36-2.54-14.6-.47-1.07-.07-2.52-.07-3.8,4.73,2.57,4.74,2.51,5.28-2C156,192.2,154,188.87,158.28,188.47Z"/>
        <path class="cls-11" d="M155.67,248.93v2.62H12.21v-2.62H155.67Z"/>
        <path class="cls-12" d="M12.21,248.93v2.62H7v-7.88H9.6C10,245.66,8.31,248.7,12.21,248.93Z"/>
        <path class="cls-13"
              d="M158.28,188.47c-4.26.4-2.3,3.73-2.55,5.84-.54,4.55-.55,4.61-5.28,2v-2.63c0-2.54.2-5.11,0-7.64s-.93-5.3-1.43-8c-.37,2.39-.79,4.78-1.11,7.18a46.28,46.28,0,0,1-.55,4.89c-.1.44-1.35.61-2.07.9-1.89-.59-3.76-1.26-5.68-1.75-1.56-.4-3.17-.6-4.76-.88l-5.21-7.89L132.2,178c7.43-2.08,4.68-8.27,5.21-13.14v-2.63c2.13-.88,4.2-2.31,6.39-2.52,5.26-.5,7-3.35,6.67-8.24-.11-1.66,0-3.34,0-5V133.27c3.58-2.65,3.58-5.25,0-7.89v-7.89l5.22-2.62v7.88c0,19.49,0,39,0,58.45,0,1.9-1,4.61,2.57,4.64Z"/>
        <path class="cls-9" d="M155.67,122.75V9.72c5.06.9,2.47,4.89,2.48,7.28.19,35.25.13,70.5.13,105.75Z"/>
        <path class="cls-7"
              d="M155.67,9.72v2.63H74.81a46.17,46.17,0,0,1-7.35-.12c-1.13-.18-2.06-1.63-3.08-2.51h91.29Z"/>
        <path class="cls-4"
              d="M155.67,122.75h2.61v63.09c-3.53,0-2.57-2.74-2.57-4.64C155.65,161.72,155.67,142.24,155.67,122.75Z"/>
        <path class="cls-14" d="M7,64.92c4.35.46,2.52,3.89,2.53,6,.12,28.76.08,57.53.08,86.3v54.92H7Z"/>
        <ellipse class="cls-15" cx="8.3" cy="229.21" rx="1.84" ry="9.29"/>
        <ellipse class="cls-16" cx="8.3" cy="217.38" rx="1.84" ry="7.43"/>
        <path class="cls-17" d="M7,235.78H9.6v7.89H7Z"/>
        <path class="cls-18"
              d="M9.6,243.67V241c5.06-.9,2.47-4.89,2.48-7.28.19-35.25.13-70.5.13-105.75h2.61a46.78,46.78,0,0,0,.12,7.4c.18,1.15,1.62,2.08,2.49,3.11V149c-3.2.16-3.23,2.48-2.1,4.24,1,1.58,3.09,2.46,4.7,3.64v10.52c-.86,1-2.3,2-2.49,3.11a48,48,0,0,0-.11,7.4c0,5.07-.16,10.14.11,15.19.06,1.11,1.63,2.14,2.49,3.21,0,6.12,0,12.23,0,18.34a7.33,7.33,0,0,0,.84,2.26c.58-.78,1.65-1.56,1.66-2.34.1-14,.07-27.94.07-41.91l2.17-.87-2.17-1.76V156.92h5.22l2.61,7.89-2.61,2,2.61,3.27,2.61,2.63c.39,2-1.3,5,2.6,5.25.3,3.37.4,6.77,1,10.08.19,1.06,1.72,1.87,2.64,2.8.52-.91,1.51-1.83,1.49-2.73-.08-4.43-.09-8.67,5.3-10.15l7.82,5.26c-.29,2.13,1,4.55-2.86,5.48-3.22.78-3,1.66.26,5h2.6a6.51,6.51,0,0,1,6.63,2.59c.7.92,2.91,1.92,3.42,1.53,4.26-3.27,9-.61,13.43-1.49,1.22,5.07,5.26,1.63,7.82,2.63,3.91.23,2.22,3.27,2.61,5.26-6.08,4-6,11.74-9.94,17.24-1.78,2.51-1.92,8.09,1,12,1.64,2.2,2.48,5,3.69,7.52.22,3.93,3.24,2.23,5.21,2.63h2.61v2.63c-2.57,1-6.6-2.44-7.82,2.63H12.21C11.82,246.93,13.5,243.89,9.6,243.67Zm13.58-17-2.25-1c-.3.72-1,1.54-.81,2.14a8,8,0,0,0,1.63,2.28ZM66.45,209.6c-1,.6-2,1-2,1.3a19.27,19.27,0,0,0,.81,3.44c.57-.33,1.61-.63,1.63-1A19.23,19.23,0,0,0,66.45,209.6Z"/>
        <path class="cls-19"
              d="M14.82,59.66c-.57-2.49-1.52-5-1.59-7.47-.06-1.87,1-3.78,1.59-5.67.87-3.92,1.1-8.17,2.84-11.65,1.08-2.16,4.95-2.71,6.73-4.72C32.32,21.16,43,17.81,53.94,15H74.81c3.92,2.1,8.69,3.21,11,7.32,2.62,4.6,7.48,8.56,2.32,15.3-2.63,3.43-2,9.37-2.92,14.18l-2.6,2.63L72.2,59.66l-2.61,2.63-5.21,2.63c-2.57,1-6.61-2.43-7.83,2.63-2.57,1-6.6-2.44-7.82,2.63H43.51c-3.82,0-7.69.42-11.44-.11C27.27,69.4,21.38,68,20.34,63c-1.69-8.12-4.13,1.93-5.52-.71Zm23.47,5.26.86,2.18,1.75-2.18a46.13,46.13,0,0,0,7.35-.12c1.13-.18,2.06-1.63,3.09-2.51V59.66c6-7,6-7,2.6-13.14l-2.6-2.63V41.26c1.73-2.41,3.95-4.62,5.08-7.29s-2.31-4.79-5.65-4a60.38,60.38,0,0,1-7.26.81,15.72,15.72,0,0,0,0-2.57A12.48,12.48,0,0,0,42.66,26,9.9,9.9,0,0,0,41,28.19a7.52,7.52,0,0,0-.06,2.56c-3.33,4.19-2.77,9.18-2.37,14,.06.74,3.24,1.21,5,1.81h2.61l2.61,2.63V57c-2.56-.75-6,8-8-.9-.6-2.69-1.9-1.45-2.51.69a36.49,36.49,0,0,1-2.55,5.46Z"/>
        <path class="cls-20"
              d="M14.82,59.66v2.63c4.32,8.85,11.53,11.77,20.9,10.57a61.31,61.31,0,0,1,7.79,0c.35,3-1.25,6.61,2.26,8.85l-2.26,1.66a23.17,23.17,0,0,0-4.67.83C32,86.81,28,86.67,22.64,83.32a15.72,15.72,0,0,0,0-2.57,11.75,11.75,0,0,0-.82-2.23,10,10,0,0,0-1.7,2.25A7.71,7.71,0,0,0,20,83.32l2.61,15.77L20,107v18.4L17.43,128H14.82c-1-2.59,2.42-6.65-2.61-7.89q0-27.91,0-55.82C12.25,62.4,11.29,59.69,14.82,59.66Z"/>
        <path class="cls-21"
              d="M53.94,15c-11,2.83-21.62,6.18-29.55,15.17-1.78,2-5.65,2.56-6.73,4.72-1.74,3.48-2,7.73-2.84,11.65-5.54-2.47-.13-9.39-4.86-12.19,4.8-6.9,1.1-14.69,2.25-22,12.39,0,24.78,0,37.17,0C51.26,12.39,53.92,11.45,53.94,15ZM17.8,24.56l.93.93a8.25,8.25,0,0,0,.82-1.76c0-.22-.53-.57-.82-.87Z"/>
        <path class="cls-22"
              d="M53.94,15c0-3.53-2.68-2.59-4.56-2.6-12.39-.06-24.78,0-37.17,0,0-3.54,2.71-2.59,4.59-2.6,15.86-.06,31.72,0,47.58,0,1,.88,2,2.33,3.08,2.51a46.17,46.17,0,0,0,7.35.12V15Z"/>
        <path class="cls-23" d="M12.21,120.12c5,1.24,1.61,5.3,2.61,7.89H12.21Z"/>
        <path class="cls-6"
              d="M82.64,241c-1.21-2.53-2-5.32-3.69-7.52-3-4-2.82-9.53-1-12,3.89-5.5,3.86-13.21,9.94-17.24L95.68,199c3.55.93,5.24-1.84,7.66-3.56s6-2.24,8.72-3.91c2.27-1.42,6.5,2,7.09-3H134.8c1.59.28,3.2.48,4.76.88,1.92.49,3.79,1.16,5.68,1.75.22,3.93,3.24,2.23,5.21,2.62v2.63c0,1.28-.4,2.73.07,3.8,3.17,7.24,3.58,9.17,2.54,14.6-.82,9.93-7.26,15-15.65,18.4-2.48.88-5.17,1.4-7.38,2.73s-3.79,3.41-5.66,5.16l-5.22,2.63a39.36,39.36,0,0,1-28.69,0H87.85C87.63,239.74,84.61,241.44,82.64,241Zm47-44.69a46.13,46.13,0,0,0-7.35.12c-1.13.19-2.06,1.64-3.09,2.51l-2.61,2.63c-4.41,2.61-5.13,6.15-2.6,10.52v5.25c-4.61,4.7-3,10.21-1.41,15.33.36,1.13,3.86,1,4-2.18a96.45,96.45,0,0,0,9.92-.13c1.11-.11,2.09-1.63,3.13-2.5V220a54.17,54.17,0,0,0,6.64,2.57c2.5.63,4.07-.41,3.8-3.34-.19-2,.69-4.53-2.74-4.49-2.57,0-5.14,0-7.7,0-.23-3.93-3.24-2.23-5.22-2.62,1.08-.88,2.23-1.68,3.22-2.66a23.28,23.28,0,0,0,2-2.6C133.12,203.54,133.12,199.68,129.59,196.35Zm20.86,10.52c-1-7-8.81-3.4-11.68-7.64-.29-.42-3.19.19-3.22.5a7.34,7.34,0,0,0,.56,4.39c2.93,4.69,7.75,2.08,11.74,2.75a15.72,15.72,0,0,0,0,2.57,11.75,11.75,0,0,0,.82,2.23,9.68,9.68,0,0,0,1.69-2.25A7.46,7.46,0,0,0,150.45,206.87Z"/>
        <path class="cls-24"
              d="M119.15,243.67l5.22-2.63c4.1-1.07,8.28-1.93,12.24-3.39.71-.26.56-2.93.8-4.5,8.39-3.39,14.83-8.47,15.65-18.4.87,1.1,2.48,2.18,2.5,3.29.19,10.3.11,20.59.11,30.89H119.15Z"/>
        <path class="cls-25" d="M119.15,243.67v5.26H93.07l-2.61-2.63v-2.63A39.36,39.36,0,0,0,119.15,243.67Z"/>
        <path class="cls-26" d="M90.46,246.3l2.61,2.63H82.64C83.86,243.86,87.89,247.3,90.46,246.3Z"/>
        <path class="cls-17" d="M9.6,243.67c3.9.22,2.22,3.26,2.61,5.26C8.31,248.7,10,245.66,9.6,243.67Z"/>
        <path class="cls-18"
              d="M74.81,15V12.35h80.86V114.87l-5.22,2.62c-.39-2,1.3-5-2.6-5.25q1.31-9.21,2.6-18.4c-.39-2,1.3-5-2.6-5.26.41-4.08-1.1-6.86-5.22-7.89H134.8c-1-4.15-3.77-5.68-7.82-5.25,0-7.4,0-7.4-5.22-7.89q-.42-5-.85-10c-3.84,2.77-.72,6.78-1.76,10l-7.82,2.63c-1-.58-2.47-.9-2.94-1.77-2.19-4.06-4.76-2.79-7.5-.86-6.57.11-12.4-1.29-15.65-7.89l-2.6-5.25,2.6-2.63C86.11,47,85.53,41,88.16,37.6c5.16-6.74.3-10.7-2.32-15.3C83.5,18.19,78.73,17.08,74.81,15ZM104.66,51.4l-2.47-.92c-.43,1.09-1.51,2.49-1.17,3.22a42.91,42.91,0,0,0,3.86,5.89c.41-1.1,1.22-2.24,1.14-3.3A24.94,24.94,0,0,0,104.66,51.4Zm-4.3-18.12a20.23,20.23,0,0,0,.45-3.75c0-.36-1.06-.66-1.63-1A19.07,19.07,0,0,0,98.37,32C98.35,32.29,99.4,32.68,100.36,33.28ZM143,61.22c-1-.68-1.73-1.53-2.33-1.47A13.44,13.44,0,0,0,137.41,61c.66.44,1.33,1.25,2,1.23A15.6,15.6,0,0,0,143,61.22ZM106.65,29.36l-1.43-3.45a7.88,7.88,0,0,0-1.63,2.28c-.16.6.51,1.42.8,2.14Zm39.52,41.2-.93.93a7.76,7.76,0,0,0,1.75.83c.21,0,.57-.53.86-.83ZM113.56,48.21l-.93-1.69c-.29.29-.86.65-.81.87a8,8,0,0,0,.81,1.76ZM97.91,40.33,97,38.64c-.29.29-.86.64-.81.86A7.75,7.75,0,0,0,97,41.26Z"/>
        <path class="cls-27"
              d="M147.85,112.24c3.9.22,2.21,3.26,2.6,5.25v7.89c-2.11,1.19-2.39-3.8-6-1-6.28,4.87-2.06,14.57-9.56,18.26-.34.17,0,1.64,0,2.5s-.35,2.16.08,2.51c4.92,4.17,1.49,9.73,2.53,14.51-3.44,0-6.89,0-10.34,0-6,0-6,0-10.53,5.25,0-8.81,0-8.81,5.22-15.77l4.88,1.65c0-2,.39-4.26-.35-6-.35-.82-3-.65-4.53-.93-.46-2.78,1.55-4.66,2.27-6.88s-1.5-5.24-2.24-8c-1.1-4,.78-5.86,4.62-7.1s6.87-3.92,5.85-9c-.54-2.72,1.07-6.55-4.1-6.12-.07,0-1-3.77-.45-4.13,4.15-2.75-1.84-4-.73-6.1h2.61c5.62-1.52,5.6,6.19,10.2,6.34-.15,1.19.07,2.65-.54,3.5-1.24,1.75-3.61,2.94-4.25,4.8s.47,4,.8,6.08c2.28-.44,6.33-.51,6.51-1.39A7.34,7.34,0,0,1,147.85,112.24Z"/>
        <path class="cls-28"
              d="M137.41,162.18c-1-4.78,2.39-10.34-2.53-14.51-.43-.35-.07-1.65-.08-2.51s-.29-2.33,0-2.5c7.5-3.69,3.28-13.39,9.56-18.26,3.65-2.82,3.93,2.17,6,1-2.23,3.94-2.23,3.94,0,7.89v2.62c-3.52,3.33-3.52,7.19,0,10.52,0,1.67-.09,3.35,0,5,.34,4.89-1.41,7.74-6.67,8.24C141.61,159.87,139.54,161.3,137.41,162.18Z"/>
        <path class="cls-29"
              d="M134.8,188.47H119.15c-2-.4-5,1.3-2.72-5.27-1.55-2.51-3.21-1-2.46,1.38a2,2,0,0,0,1.21,1.21c2.26.22,7-3,6.17-4.14-.57-.79-2-.93-4.92,1.55-3.36,2.64-4.23,2.64-5.1,2.64-2.24-3.94-2.24-3.94,0-7.89l2.61-2.63c6.2-1.23,10.46,3.41,15.65,5.26Z"/>
        <path class="cls-30"
              d="M129.59,180.58c-5.19-1.85-9.45-6.49-15.65-5.26q1.31-3.93,2.6-7.88c4.55-5.21,4.55-5.22,10.53-5.25,3.45,0,6.9,0,10.34,0v2.63c-4,4.35-8.07.46-12.15.14-1.1-.09-3.29,1.5-3.3,2.33,0,1.8.58,4.54,1.81,5.19,1.7.9,4.25,0,6.37.29,3.31.49,1.67,3.32,2.06,5.19Z"/>
        <path class="cls-31"
              d="M132.2,178c-.39-1.87,1.25-4.7-2.06-5.19-2.12-.32-4.67.61-6.37-.29-1.23-.65-1.83-3.39-1.81-5.19,0-.83,2.2-2.42,3.3-2.33,4.08.32,8.11,4.21,12.15-.14C136.88,169.68,139.63,175.87,132.2,178Z"/>
        <path class="cls-32"
              d="M150.45,193.72c-2-.39-5,1.31-5.21-2.62.72-.29,2-.46,2.07-.9a46.28,46.28,0,0,0,.55-4.89c.32-2.4.74-4.79,1.11-7.18.5,2.65,1.17,5.28,1.43,8S150.45,191.18,150.45,193.72Z"/>
        <path class="cls-33" d="M150.45,146.41c-3.52-3.33-3.52-7.19,0-10.52Z"/>
        <path class="cls-34" d="M150.45,133.27c-2.23-4-2.23-4,0-7.89C154,128,154,130.62,150.45,133.27Z"/>
        <path class="cls-29" d="M129.59,180.58,132.2,178Z"/>
        <path class="cls-35"
              d="M85.24,199c-2.56-1-6.6,2.44-7.82-2.63-.67-.87-1.3-2.46-2-2.51-3.85-.25-7.73,0-11.58-.23-.73-.05-1.89-1.62-1.89-2.5s1.33-2.6,1.83-2.52c7.44,1.29,5.72-4,5.84-8,2.51.55,5.71,2.36,7.39,1.42,6.77-3.8,10.7.92,15.06,4.28,1.08.84,1,3.12,1.94,4.27,1.12,1.33,2.84,2.14,4.31,3.17C93.46,194.26,87.32,191.49,85.24,199Z"/>
        <path class="cls-36"
              d="M20,156.92c-1.61-1.18-3.7-2.06-4.7-3.64-1.13-1.76-1.1-4.08,2.1-4.24.87-1,2.37-2,2.48-3.16a97.79,97.79,0,0,0,.12-10l2.61-2.62c.87-1,2.31-2,2.49-3.11a46.9,46.9,0,0,0,.12-7.41h2.61c-.19,7.35-1.34,15.1,7.82,18.4v10.52h-2.6q-6.41-1.2-5.22,5.25H20Z"/>
        <path class="cls-37"
              d="M27.86,156.92q-1.18-6.45,5.22-5.25c-.57,4.59,1.84,6.65,5.94,8,6.92,2.19,6.88,2.38,7.09,9.27.06,2.14,0,4.29,0,6.43-1.59.29-3.2.49-4.76.89-1.91.49-3.79,1.15-5.68,1.74-3.9-.22-2.21-3.26-2.6-5.25l-2.61-2.63v-5.26Z"/>
        <path class="cls-38"
              d="M69.59,180.58c-.12,4,1.6,9.3-5.84,8-.5-.08-1.84,1.64-1.83,2.52s1.16,2.45,1.89,2.5c3.85.25,7.73,0,11.58.23.73,0,1.36,1.64,2,2.51-4.4.88-9.17-1.78-13.43,1.49-.51.39-2.72-.61-3.42-1.53a6.51,6.51,0,0,0-6.63-2.59l-.86-2.18-1.74,2.18c-3.28-3.37-3.48-4.25-.26-5,3.9-.93,2.57-3.35,2.86-5.48a46.13,46.13,0,0,0,7.35-.12c1.13-.18,2.06-1.63,3.09-2.51Z"/>
        <path class="cls-39"
              d="M20,156.92h2.61V172.7c0,14,0,27.94-.07,41.91,0,.78-1.08,1.56-1.66,2.34a7.33,7.33,0,0,1-.84-2.26c-.07-6.11,0-12.22,0-18.34V156.92Z"/>
        <path class="cls-40"
              d="M35.68,178c1.89-.59,3.77-1.25,5.68-1.74,1.56-.4,3.17-.6,4.76-.89V178c-5.39,1.48-5.38,5.72-5.3,10.15,0,.9-1,1.82-1.49,2.73-.92-.93-2.45-1.74-2.64-2.8C36.08,184.72,36,181.32,35.68,178Z"/>
        <path class="cls-41"
              d="M85.24,199c2.08-7.49,8.22-4.72,13.05-5.26L95.68,199l-7.83,5.26C87.46,202.25,89.15,199.21,85.24,199Z"/>
        <path class="cls-42" d="M20,135.89a97.79,97.79,0,0,1-.12,10C19.8,147,18.3,148,17.43,149V128H20v7.88Z"/>
        <path class="cls-43" d="M20,178v18.4c-.86-1.07-2.43-2.1-2.49-3.21-.27-5-.11-10.12-.11-15.19Z"/>
        <path class="cls-37" d="M46.12,178v-2.63h5.22c.86.88,1.73,1.76,2.6,2.63v5.26Z"/>
        <path class="cls-23" d="M17.43,128v10.51c-.87-1-2.31-2-2.49-3.11a46.78,46.78,0,0,1-.12-7.4Z"/>
        <path class="cls-44" d="M20,178h-2.6a48,48,0,0,1,.11-7.4c.19-1.14,1.63-2.08,2.49-3.11Z"/>
        <path class="cls-45" d="M23.18,226.66l-1.43,3.45a8,8,0,0,1-1.63-2.28c-.16-.6.51-1.42.81-2.14Z"/>
        <path class="cls-46"
              d="M66.45,209.6a19.23,19.23,0,0,1,.45,3.74c0,.37-1.06.67-1.63,1a19.27,19.27,0,0,1-.81-3.44C64.44,210.58,65.5,210.2,66.45,209.6Z"/>
        <path class="cls-26" d="M82.64,241c2,.4,5-1.3,5.21,2.63C85.88,243.27,82.86,245,82.64,241Z"/>
        <path class="cls-47" d="M30.47,164.81v5.26l-2.61-3.27Z"/>
        <path class="cls-35" d="M51.34,193.72l1.74-2.18.86,2.18Z"/>
        <path class="cls-47" d="M30.47,170.07l2.61,2.63Z"/>
        <path class="cls-48" d="M22.64,172.7v-2.63l2.17,1.76Z"/>
        <path class="cls-49"
              d="M43.51,46.52c-1.74-.6-4.92-1.07-5-1.81-.4-4.78-1-9.77,2.37-14h2.61a60.38,60.38,0,0,0,7.26-.81c3.34-.76,6.77,1.37,5.65,4s-3.35,4.88-5.08,7.29c-2.63-3.6-5.21-3.6-7.83,0l-2.16.87,2.16,1.76Z"/>
        <path class="cls-50"
              d="M43.51,72.81a61.31,61.31,0,0,0-7.79,0c-9.37,1.2-16.58-1.72-20.9-10.57,1.39,2.64,3.83-7.41,5.52.71,1,5,6.93,6.4,11.73,7.07,3.75.53,7.62.11,11.44.11Z"/>
        <path class="cls-51" d="M48.73,57V43.89h2.61l2.6,2.63c3.36,6.15,3.36,6.15-2.6,13.14Z"/>
        <path class="cls-52"
              d="M82.64,54.41l2.6,5.25a34.31,34.31,0,0,0-5.56,1.77,37.09,37.09,0,0,0-4.87,3.49L72.2,62.29V59.66Z"/>
        <path class="cls-53"
              d="M43.51,72.81V70.18h5.22c2.56-1,6.6,2.44,7.82-2.63h5.22v2.63L59.61,71l2.16,1.77c-.64,3.6-2.56,3.2-4.92,1.63-.92-.61-1.93-1.09-2.91-1.63Z"/>
        <path class="cls-54"
              d="M35.68,62.29a36.49,36.49,0,0,0,2.55-5.46c.61-2.14,1.91-3.38,2.51-.69,2,8.94,5.43.15,8,.9l2.61,2.62v2.63a46.13,46.13,0,0,0-7.35.12c-1.14.19-2.07,1.64-3.09,2.51H38.29Z"/>
        <path class="cls-50"
              d="M40.9,64.92c1-.87,2-2.32,3.09-2.51a46.13,46.13,0,0,1,7.35-.12c-1,.88-2,2.33-3.09,2.51A46.13,46.13,0,0,1,40.9,64.92Z"/>
        <path class="cls-55" d="M51.34,43.89H48.73l-2.61-2.63H43.51c2.62-3.6,5.2-3.6,7.83,0Z"/>
        <path class="cls-50" d="M56.55,67.55c-1.22,5.07-5.26,1.63-7.82,2.63C50,65.11,54,68.55,56.55,67.55Z"/>
        <path class="cls-50" d="M61.77,67.55H56.55c1.22-5.06,5.26-1.63,7.83-2.63v2.63Z"/>
        <path class="cls-53" d="M64.38,67.55V64.92l5.21-2.63Q70.77,68.74,64.38,67.55Z"/>
        <path class="cls-56" d="M48.73,43.89v2.63H43.51V43.89h5.22Z"/>
        <path class="cls-57"
              d="M43.51,30.75H40.9A7.52,7.52,0,0,1,41,28.19,9.9,9.9,0,0,1,42.66,26a12.48,12.48,0,0,1,.82,2.23A15.72,15.72,0,0,1,43.51,30.75Z"/>
        <path class="cls-50" d="M38.29,64.92H40.9L39.15,67.1Z"/>
        <path class="cls-50" d="M35.68,62.29l2.61,2.63Z"/>
        <path class="cls-53" d="M72.2,59.66v2.63H69.59Z"/>
        <path class="cls-52" d="M85.24,51.78l-2.6,2.63Z"/>
        <path class="cls-58" d="M46.12,46.52h2.61v2.63Z"/>
        <path class="cls-58" d="M53.94,46.52l-2.6-2.63Z"/>
        <path class="cls-59"
              d="M27.86,122.75H25.25l-2.61-2.63a97.82,97.82,0,0,0-.12-10C22.41,109,20.9,108,20,107l2.61-7.89h5.22c5.67,1.85,10.29-2.6,15.65-2.62l-5.22,5.25c-2,.4-5-1.3-5.21,2.63-3.4-.84-6.95,1.12-7,3.51-.11,3.42,3.43,4.86,7,4.38l-2.61,5.25C26.57,117.72,28.25,120.76,27.86,122.75Z"/>
        <path class="cls-60"
              d="M27.86,99.09H22.64L20,83.32h2.61c5.38,3.35,9.36,3.49,16.2.83a23.17,23.17,0,0,1,4.67-.83c.39,2-1.29,5,2.61,5.26v2.63H43.51c-4.9.43-8.68-3.59-14-2.91-4.4.55-4.75,2.47-4.16,5.55C25.7,95.69,27,97.35,27.86,99.09Z"/>
        <path class="cls-61"
              d="M46.12,88.58c-3.9-.22-2.22-3.27-2.61-5.26l2.26-1.66c-3.51-2.24-1.91-5.8-2.26-8.85H53.94c.82,4.53-.61,8.07-4.24,11C48.2,85,47.3,87,46.12,88.58Z"/>
        <path class="cls-62" d="M20,107c.87,1,2.38,2,2.49,3.15a97.82,97.82,0,0,1,.12,10L20,122.75Z"/>
        <path class="cls-23"
              d="M20,122.75l2.61-2.63,2.61,2.63a46.9,46.9,0,0,1-.12,7.41c-.18,1.14-1.62,2.08-2.49,3.11-1-2.59,2.42-6.66-2.61-7.89Z"/>
        <path class="cls-63"
              d="M22.64,83.32H20a7.71,7.71,0,0,1,.06-2.55,10,10,0,0,1,1.7-2.25,11.75,11.75,0,0,1,.82,2.23A15.72,15.72,0,0,1,22.64,83.32Z"/>
        <path class="cls-23" d="M20,128h-2.6l2.6-2.63Z"/>
        <path class="cls-64" d="M17.8,24.56l.93-1.7c.29.3.86.65.82.87a8.25,8.25,0,0,1-.82,1.76Z"/>
        <path class="cls-65"
              d="M95.68,199l2.61-5.26c-1.47-1-3.19-1.84-4.31-3.17-1-1.15-.86-3.43-1.94-4.27C87.68,182.92,83.75,178.2,77,182c-1.68.94-4.88-.87-7.39-1.42H64.38V178c3.9-.22,2.21-3.26,2.61-5.25l2.6,2.62c.69.88,1.29,2.44,2.07,2.53,11.54,1.37,21.93-2.28,31.84-7.78l2.61,5.25c-1.66,0-3.44-.36-4.94.12-1.15.37-1.94,1.84-2.88,2.81,1.14.78,2.22,2,3.45,2.22,1.81.26,4.38.85,4.37-2.52h5.22c-2.24,4-2.24,4,.52,8.83-.86-.21-1.31-.9-1.73-.88a21.89,21.89,0,0,0-3.37.61c.15.58.3,1.66.44,1.66a8.15,8.15,0,0,0,4.66-1.39c.35-.94,1.22-.94,2.09-.94.22,3.93,3.24,2.23,5.21,2.63-.59,5-4.82,1.62-7.09,3-2.68,1.67-6.17,2.11-8.72,3.91S99.23,199.91,95.68,199Z"/>
        <path class="cls-66"
              d="M129.59,206.87a23.28,23.28,0,0,1-2,2.6c-1,1-2.14,1.78-3.22,2.66h-5.22V201.61H127C127.37,203.6,125.68,206.64,129.59,206.87Z"/>
        <path class="cls-67"
              d="M147.85,206.87c-4-.67-8.81,1.94-11.74-2.75a7.34,7.34,0,0,1-.56-4.39c0-.31,2.93-.92,3.22-.5,2.87,4.24,10.7.69,11.68,7.64Z"/>
        <path class="cls-68"
              d="M129.59,214.75c2.56,0,5.13,0,7.7,0,3.43,0,2.55,2.53,2.74,4.49.27,2.93-1.3,4-3.8,3.34a54.17,54.17,0,0,1-6.64-2.57Z"/>
        <path class="cls-69" d="M119.15,212.13h5.22v5.25L121.76,220q-3.92-2.62-7.82-5.26v-2.62h5.21Z"/>
        <path class="cls-70" d="M116.54,212.13h-2.6c-2.53-4.37-1.81-7.91,2.6-10.52l2.61,2.63v5.26Z"/>
        <path class="cls-71"
              d="M137.41,233.15c-.24,1.57-.09,4.24-.8,4.5-4,1.46-8.14,2.32-12.24,3.39,1.87-1.75,3.52-3.87,5.66-5.16S134.93,234,137.41,233.15Z"/>
        <path class="cls-72" d="M124.37,217.38v-2.63h5.22V227.9H127c-.39-2,1.29-5-2.61-5.26V220l2.16-.86Z"/>
        <path class="cls-71"
              d="M116.54,230.53c-.15,3.18-3.65,3.31-4,2.18-1.62-5.12-3.2-10.63,1.41-15.33V220a48.14,48.14,0,0,0,.11,7.41C114.24,228.56,115.68,229.5,116.54,230.53Z"/>
        <path class="cls-73"
              d="M127,201.61h-5.22L119.15,199c1-.87,2-2.32,3.09-2.51a46.13,46.13,0,0,1,7.35-.12C129.19,198.35,130.88,201.39,127,201.61Z"/>
        <path class="cls-74"
              d="M127,201.61c3.9-.22,2.21-3.26,2.61-5.26,3.53,3.33,3.53,7.19,0,10.52C125.68,206.64,127.37,203.6,127,201.61Z"/>
        <path class="cls-75" d="M113.94,220v-5.26q3.9,2.64,7.82,5.26h2.61v2.63C120.6,223,117,222.5,113.94,220Z"/>
        <path class="cls-71"
              d="M127,227.9h2.61c-1,.87-2,2.39-3.13,2.5a96.45,96.45,0,0,1-9.92.13c1-.88,2-2.33,3.09-2.51A46.13,46.13,0,0,1,127,227.9Z"/>
        <path class="cls-66" d="M129.59,214.75h-5.22v-2.62C126.35,212.52,129.36,210.82,129.59,214.75Z"/>
        <path class="cls-76"
              d="M147.85,206.87h2.6a7.46,7.46,0,0,1-.06,2.55,9.68,9.68,0,0,1-1.69,2.25,11.75,11.75,0,0,1-.82-2.23A15.72,15.72,0,0,1,147.85,206.87Z"/>
        <path class="cls-77" d="M119.15,199l2.61,2.63h-5.22Z"/>
        <path class="cls-78"
              d="M147.85,112.24a7.34,7.34,0,0,0-5.54,6.18c-.18.88-4.23,1-6.51,1.39-.33-2-1.39-4.35-.8-6.08s3-3,4.25-4.8c.61-.85.39-2.31.54-3.5-4.6-.15-4.58-7.86-10.2-6.34L127,96.47c0-8.3,0-8.3-5.22-13.15,4.12-1,5.64-3.81,5.22-7.88,4-.43,6.8,1.1,7.82,5.25l-4.7,4.46a58.53,58.53,0,0,0,6.17,3.35c1.08.45,2.49.08,3.75.08-.57,1.89-.71,4.08-1.79,5.59-2.26,3.15.16,4.48,1.79,6.24,2.47,2.64,4.59,1.29,6-1,1-1.6,1.22-3.72,1.79-5.6h2.6Q149.15,103,147.85,112.24Z"/>
        <path class="cls-79"
              d="M74.81,64.92a37.09,37.09,0,0,1,4.87-3.49,34.31,34.31,0,0,1,5.56-1.77c3.25,6.6,9.08,8,15.65,7.89-.22,3.93-3.23,2.23-5.21,2.63s-5-1.3-5.22,2.63c-3.57,2.64-3.57,5.24,0,7.88v2.63H82.64c-2.22-5.48-4.1-11.12-7.77-15.89C74.46,66.9,74.81,65.77,74.81,64.92Z"/>
        <path class="cls-80"
              d="M95.68,70.18c2-.4,5,1.3,5.21-2.63,2.74-1.93,5.31-3.2,7.5.86.47.87,1.93,1.19,2.94,1.77l5.21,7.88v5.26c-3.83-3.45-8.53-2.56-13-2.63h-2.61A31.93,31.93,0,0,0,104.12,78a7.65,7.65,0,0,0,1-2.23c-2,0-4.23-.42-6,.32-.81.34-.65,3-.93,4.57-1.23,5.07-5.26,1.63-7.83,2.63V80.69C96.23,79.22,95.89,74.67,95.68,70.18Z"/>
        <path class="cls-81"
              d="M147.85,93.84c-.57,1.88-.77,4-1.79,5.6-1.45,2.26-3.57,3.61-6,1-1.63-1.76-4.05-3.09-1.79-6.24,1.08-1.51,1.22-3.7,1.79-5.59,5-1.23,1.62-5.3,2.61-7.89,4.12,1,5.63,3.81,5.22,7.89Z"/>
        <path class="cls-82"
              d="M116.54,78.06l-5.21-7.88,7.82-2.63h2.61C127,68,127,68,127,75.44a46.13,46.13,0,0,0-7.35.12C118.5,75.74,117.57,77.19,116.54,78.06Z"/>
        <path class="cls-83"
              d="M142.63,80.69c-1,2.59,2.42,6.66-2.61,7.89-1.26,0-2.67.37-3.75-.08a58.53,58.53,0,0,1-6.17-3.35l4.7-4.46Z"/>
        <path class="cls-84"
              d="M104.66,51.4A24.94,24.94,0,0,1,106,56.29c.08,1.06-.73,2.2-1.14,3.3A42.91,42.91,0,0,1,101,53.7c-.34-.73.74-2.13,1.17-3.22Z"/>
        <path class="cls-85" d="M121.76,67.55h-2.61c1-3.27-2.08-7.28,1.76-10Q121.35,62.53,121.76,67.55Z"/>
        <path class="cls-86" d="M147.85,93.84V88.58c3.9.22,2.21,3.26,2.6,5.26Z"/>
        <path class="cls-87"
              d="M100.36,33.28c-1-.6-2-1-2-1.3a19.07,19.07,0,0,1,.81-3.44c.57.33,1.61.63,1.63,1A20.23,20.23,0,0,1,100.36,33.28Z"/>
        <path class="cls-88"
              d="M143,61.22a15.6,15.6,0,0,1-3.6,1c-.65,0-1.32-.79-2-1.23a13.44,13.44,0,0,1,3.25-1.23C141.26,59.69,142,60.54,143,61.22Z"/>
        <path class="cls-89" d="M106.65,29.36l-2.26,1c-.29-.72-1-1.54-.8-2.14a7.88,7.88,0,0,1,1.63-2.28Z"/>
        <path class="cls-90" d="M146.17,70.56l1.68.93c-.29.3-.65.87-.86.83a7.76,7.76,0,0,1-1.75-.83Z"/>
        <path class="cls-91" d="M113.56,48.21l-.93.94a8,8,0,0,1-.81-1.76c0-.22.52-.58.81-.87Z"/>
        <path class="cls-92" d="M97.91,40.33l-.93.93a7.75,7.75,0,0,1-.81-1.76c0-.22.52-.57.81-.86Z"/>
        <path class="cls-93"
              d="M106.11,175.32l-2.61-5.25c3.91-.23,2.22-3.27,2.61-5.26q6.4,1.2,5.22-5.26c3.9-.22,2.21-3.26,2.61-5.25,3.9-.23,2.21-3.27,2.6-5.26.44,0,1.22.09,1.25,0a52.15,52.15,0,0,0,0-26.26c0-.1-.81,0-1.25,0V83.32h2.61V99.09c2.24,4,2.24,4,0,7.89,0,3.46-.13,6.94.09,10.39.06.95,1.18,1.84,1.82,2.75l3.31-2.63,2.61-2-2.61-3.27V99.09H127c-1.11,2.13,4.88,3.35.73,6.1-.55.36.38,4.13.45,4.13,5.17-.43,3.56,3.4,4.1,6.12,1,5.11-1.9,7.75-5.85,9s-5.72,3-4.62,7.1c.74,2.72,2.94,5.79,2.24,8s-2.73,4.1-2.27,6.88v5.26c-5.22,7-5.22,7-5.22,15.77q-1.29,3.94-2.6,7.88L111.33,178h-5.22Z"/>
        <path class="cls-94" d="M121.76,151.67v-5.26c1.58.28,4.18.11,4.53.93.74,1.72.31,4,.35,6Z"/>
        <path class="cls-95" d="M127,96.47l2.61,2.62H127Z"/>
        <path class="cls-96"
              d="M118.91,180.56c.41.16,1.87.3,2.44,1.09.79,1.09-3.91,4.36-6.17,4.14a2,2,0,0,1-1.21-1.21C113.22,182.24,114.88,180.69,118.91,180.56Z"/>
        <path class="cls-30" d="M111.33,178l2.61-2.63Z"/>
        <path class="cls-97"
              d="M27.86,122.75c.39-2-1.29-5,2.61-5.26q2.61,11.83,5.21,23.66C26.52,137.85,27.67,130.1,27.86,122.75Z"/>
        <path class="cls-97"
              d="M48.73,175.32H46.12c0-2.14.05-4.29,0-6.43-.21-6.89-.17-7.08-7.09-9.27-4.1-1.3-6.51-3.36-5.94-8h2.6c1.87,1.75,3.52,3.87,5.66,5.15s4.91,1.86,7.39,2.73Z"/>
        <path class="cls-97"
              d="M35.68,151.67V141.15h2.61a48.12,48.12,0,0,1-.11,7.41C38,149.7,36.55,150.64,35.68,151.67Z"/>
        <path class="cls-23" d="M20,135.89v-2.62h2.61Z"/>
        <path class="cls-35" d="M53.94,183.21v-2.63H64.38c-1,.88-2,2.33-3.09,2.51A46.13,46.13,0,0,1,53.94,183.21Z"/>
        <path class="cls-98" d="M22.64,133.27H20v-7.89C25.06,126.61,21.65,130.68,22.64,133.27Z"/>
        <path class="cls-99" d="M48.73,175.32V159.55a48,48,0,0,1,.11-7.4c.19-1.14,1.63-2.08,2.5-3.11v26.28Z"/>
        <ellipse class="cls-99" cx="59.16" cy="179.27" rx="7.38" ry="1.86"/>
        <path class="cls-99" d="M53.94,178c-.87-.87-1.74-1.75-2.6-2.63C52.2,176.2,53.07,177.08,53.94,178Z"/>
        <path class="cls-100" d="M46.12,43.89H43.51l-2.16-1.76,2.16-.87h2.61Z"/>
        <path class="cls-101" d="M51.34,59.66,48.73,57Z"/>
        <path class="cls-102"
              d="M74.81,64.92c0,.85-.35,2,.06,2.51,3.67,4.77,5.55,10.41,7.77,15.89-3.33.4-5.89,0-5.3-4.47.13-1-.73-2.21-1.13-3.32a28,28,0,0,0-2.67,2.54A31.09,31.09,0,0,1,68,83.85c0-.69,1.55-1.61,1.47-1.77-1-2.18-2.29-4.25-3.5-6.34l-6.5,4A25.67,25.67,0,0,0,68,83.85c1.58.35,1.58,1.22,1.58,2.1-5,0-10.06-.15-15.07.12-1.1.06-2.12,1.63-3.18,2.51l-2.61,2.63H46.12V88.58C47.3,87,48.2,85,49.7,83.78c3.63-2.9,5.06-6.44,4.24-11,1,.54,2,1,2.91,1.63,2.36,1.57,4.28,2,4.92-1.63,3.9-.23,2.21-3.27,2.61-5.26q6.41,1.2,5.21-5.26H72.2Z"/>
        <path class="cls-103" d="M64.38,67.55c-.4,2,1.29,5-2.61,5.26V67.55Z"/>
        <path class="cls-102" d="M61.77,70.18v2.63L59.61,71Z"/>
        <path class="cls-58" d="M46.12,43.89V41.26l2.61,2.63Z"/>
        <path class="cls-104"
              d="M46.12,91.21h2.61c-2.66,5.16-3.31,6.46.26,11.73,2.74,4,3.89,8.76,1.19,11.22-4.63,4.23-3.93,8.91-4.06,13.85-3.45,0-2.29-2.67-2.65-4.53a20.43,20.43,0,0,0-1.23-3.32c-.9.88-2.31,1.62-2.59,2.67-.72,2.73-1.5,5.65-1.2,8.39.3,2.89,2.54,2.61,4.6,1.21,1-.66,2-1.2,3.07-1.79v5.25c-7.34,0-7.34,0-7.83,5.26H35.68q-2.59-11.82-5.21-23.66c4.79.16,7.93-1.54,7.83-7,0-2.93,0-5.86,0-8.79l5.22-5.25V91.21Z"/>
        <path class="cls-105"
              d="M43.51,91.21v5.26c-5.36,0-10,4.47-15.65,2.62-.87-1.74-2.16-3.4-2.51-5.24-.59-3.08-.24-5,4.16-5.55C34.83,87.62,38.61,91.64,43.51,91.21Z"/>
        <path class="cls-97"
              d="M38.29,101.72c0,2.93,0,5.86,0,8.79.1,5.44-3,7.14-7.83,7l2.61-5.25,2.6-2.63V107c-.86-.88-1.73-1.75-2.6-2.63C33.3,100.42,36.32,102.12,38.29,101.72Z"/>
        <path class="cls-106" d="M35.68,107v2.63l-2.6,2.63c-3.6.48-7.14-1-7-4.38.08-2.39,3.63-4.35,7-3.51Z"/>
        <path class="cls-107"
              d="M69.59,175.32,67,172.7l-2.61,2.62H61.77V172.7c.22-3.94,3.24-2.24,5.22-2.63H82.64c2-.4,5,1.3,5.21-2.63h5.22l2.61-2.63h2.61c.87-.88,1.74-1.75,2.6-2.63h2.61v2.63C93.74,173.35,81.93,175.21,69.59,175.32Z"/>
        <path class="cls-108"
              d="M69.59,175.32c12.34-.11,24.15-2,33.91-10.51h2.61c-.39,2,1.3,5-2.61,5.26-9.91,5.5-20.3,9.15-31.84,7.78C70.88,177.76,70.28,176.2,69.59,175.32Z"/>
        <path class="cls-109"
              d="M106.11,175.32V178c0,3.37-2.56,2.78-4.37,2.52-1.23-.18-2.31-1.44-3.45-2.22.94-1,1.73-2.44,2.88-2.81C102.67,175,104.45,175.32,106.11,175.32Z"/>
        <path class="cls-108" d="M64.38,175.32,67,172.7c-.4,2,1.29,5-2.61,5.25Z"/>
        <path class="cls-110"
              d="M112.36,187.71c-2.36.24-3.76.44-5.17.46-.14,0-.29-1.08-.44-1.66a21.89,21.89,0,0,1,3.37-.61C110.54,185.88,111,186.57,112.36,187.71Z"/>
        <path class="cls-111" d="M116.54,201.61h2.61v2.63Z"/>
        <path class="cls-112" d="M116.54,212.13l2.61-2.63v2.63Z"/>
        <path class="cls-113" d="M124.37,220h-2.61l2.61-2.63,2.16,1.77Z"/>
        <path class="cls-114"
              d="M127,227.9a46.13,46.13,0,0,0-7.35.12c-1.13.18-2.06,1.63-3.09,2.51-.86-1-2.3-2-2.49-3.11a48.14,48.14,0,0,1-.11-7.41c3.07,2.49,6.66,3,10.43,2.63C128.27,222.86,126.59,225.9,127,227.9Z"/>
        <path class="cls-95" d="M119.15,99.09V83.32h2.61C127,88.17,127,88.17,127,96.47l-2.61,2.62Z"/>
        <path class="cls-115"
              d="M121.76,83.32h-2.61l-2.61-2.63V78.06c1-.87,2-2.32,3.09-2.5a46.13,46.13,0,0,1,7.35-.12C127.4,79.51,125.88,82.29,121.76,83.32Z"/>
        <path class="cls-53"
              d="M69.59,83.32c1.31-1.75,2.56-3.56,4-5.25a28,28,0,0,1,2.67-2.54c.4,1.11,1.26,2.28,1.13,3.32-.59,4.49,2,4.87,5.3,4.47h7.82c2.57-1,6.6,2.44,7.83-2.63h5.21L98.29,86H69.59Z"/>
        <path class="cls-116" d="M95.68,70.18c.21,4.49.55,9-5.22,10.51V72.81C90.68,68.88,93.7,70.58,95.68,70.18Z"/>
        <path class="cls-80" d="M90.46,72.81v7.88C86.89,78.05,86.89,75.45,90.46,72.81Z"/>
        <path class="cls-117"
              d="M98.29,86l5.21-5.26c4.51.07,9.21-.82,13,2.63V128c-4.63-4.56-7.14-11.31-4.77-16.27,3.46-7.25,1.1-14.18,2-21.15.08-.55-1.61-1.34-2.48-2-3-3.43-3.55-3.44-5.25-.43a21.24,21.24,0,0,1-2.58,3.06h-13V88.58C93,87.58,97.06,91,98.29,86Z"/>
        <path class="cls-118"
              d="M100.89,80.69h-2.6c.28-1.59.12-4.23.93-4.57,1.72-.74,3.94-.29,6-.32a7.65,7.65,0,0,1-1,2.23A31.93,31.93,0,0,1,100.89,80.69Z"/>
        <path class="cls-95" d="M116.54,80.69l2.61,2.63h-2.61Z"/>
        <path class="cls-108"
              d="M116.54,128v-5.26c.44,0,1.22-.09,1.25,0a52.15,52.15,0,0,1,0,26.26c0,.11-.81,0-1.25,0V128Z"/>
        <path class="cls-119"
              d="M124.37,117.49l-3.31,2.63c-.64-.91-1.76-1.8-1.82-2.75-.22-3.45-.09-6.93-.09-10.39h5.22v10.51Z"/>
        <path class="cls-27" d="M124.37,107h-5.22c2.24-3.94,2.24-3.94,0-7.89h5.22Z"/>
        <path class="cls-108" d="M111.33,159.55q1.19,6.45-5.22,5.26Z"/>
        <path class="cls-27" d="M124.37,117.49v-5.25l2.61,3.27Z"/>
        <path class="cls-108" d="M113.94,154.3c-.4,2,1.29,5-2.61,5.25C111.72,157.56,110,154.52,113.94,154.3Z"/>
        <path class="cls-108" d="M116.54,149c-.39,2,1.3,5-2.6,5.26V149Z"/>
        <path class="cls-27" d="M124.37,99.09,127,96.47v2.62Z"/>
        <path class="cls-120"
              d="M38.29,141.15c.49-5.26.49-5.26,7.83-5.26,5.22,5.68,5.22,5.68,5.22,10.52V149c-.87,1-2.31,2-2.5,3.11a48,48,0,0,0-.11,7.4c-2.48-.87-5.17-1.4-7.39-2.73s-3.79-3.4-5.66-5.15c.87-1,2.31-2,2.5-3.11A48.12,48.12,0,0,0,38.29,141.15Z"/>
        <path class="cls-121"
              d="M64.38,175.32V178H53.94c-.87-.87-1.74-1.75-2.6-2.63V149l2.6-2.63c-.38-2.73.17-5.09,2.68-6.64s2.56-4,2.59-6.7c.06-5.29-.24-5.52-5.46-3.62a19,19,0,0,1-4.37.53c.16-1.48-.09-3.17.55-4.4,5.31-10.15,9.39-20.61,9.34-32.35,0-.67,1.63-1.35,2.5-2v2.63a46.78,46.78,0,0,0,.12,7.4c.18,1.14,1.62,2.08,2.49,3.11-.62,3.93,1.49,8.22-2.28,11.82-1.07,1-.25,4-.34,6.1-.17,4.31,3,2.85,5.23,3.11H72.2c1,.88,2.08,2.53,3.06,2.49a15.31,15.31,0,0,1,10,2.77c5.61,4.9,13.38,8.57,10.44,18.4v2.63l-2.61,2.63c-2.29,4.22-4.71,8.28-10.43,7.88-3.89,0-7.78-.05-11.66,0-4.17.07-5.94-2.49-6.55-6.12-.29-1.69.49-3.74-.19-5.15-.82-1.67-2.68-2.82-4.09-4.19-1.2,1.67-3.22,3.25-3.43,5-.51,4.29-.17,8.69-.17,13-3.57,2.64-3.57,5.24,0,7.89.22,3.93,3.24,2.23,5.22,2.62ZM82,141.15a29.22,29.22,0,0,0-3.86,0c-3.17.43-7.86,5-8.57,8.15-.83,3.61,1.38,6.13,3.9,7.28a5.89,5.89,0,0,0,7.78-2.28c.61-1,.76-2.32,1.44-3.26a3.77,3.77,0,0,1,2.2-1c4.95-1.05,3.72-.88,3.26-5C87.59,139.89,84.66,141.4,82,141.15Z"/>
        <path class="cls-122"
              d="M61.77,91.21c-.87.67-2.5,1.35-2.5,2,0,11.74-4,22.2-9.34,32.35-.64,1.23-.39,2.92-.55,4.4a19,19,0,0,0,4.37-.53c5.22-1.9,5.52-1.67,5.46,3.62,0,2.66,0,5.12-2.59,6.7s-3.06,3.91-2.68,6.64h-2.6c0-4.84,0-4.84-5.22-10.52V128c.13-4.94-.57-9.62,4.06-13.85,2.7-2.46,1.55-7.17-1.19-11.22-3.57-5.27-2.92-6.57-.26-11.73l2.61-2.63c1.06-.88,2.08-2.45,3.18-2.51,5-.27,10-.12,15.07-.12h28.7C97.06,91,93,87.58,90.46,88.58c-8.48,0-17-.1-25.44.12C63.91,88.72,62.85,90.33,61.77,91.21Z"/>
        <path class="cls-123"
              d="M66.42,84.38,59.48,79.7l6.5-4c1.21,2.09,2.46,4.16,3.5,6.34C69.56,82.24,68.06,83.16,66.42,84.38Z"/>
        <path class="cls-104" d="M51.34,88.58l-2.61,2.63Z"/>
        <path class="cls-97"
              d="M46.12,128v2.63c-1,.59-2.09,1.13-3.07,1.79-2.06,1.4-4.3,1.68-4.6-1.21-.3-2.74.48-5.66,1.2-8.39.28-1,1.69-1.79,2.59-2.67a20.43,20.43,0,0,1,1.23,3.32C43.83,125.34,42.67,128,46.12,128Z"/>
        <path class="cls-59" d="M35.68,107l-2.6-2.63C34,105.23,34.82,106.1,35.68,107Z"/>
        <path class="cls-59" d="M33.08,112.24l2.6-2.63Z"/>
        <path class="cls-124"
              d="M113.94,149v5.26c-3.91.22-2.22,3.26-2.61,5.25l-5.22,5.26H103.5v-5.26l2.61-2.63,2.61-2.62v-2.63l2.61-2.63c0-5.07.15-10.14-.12-15.19-.06-1.11-1.62-2.14-2.49-3.21-2.57-2.63-4.72-6.06-7.81-7.73-7.86-4.28-15.86-8.74-25.34-8-4.47.34-3.19-2.9-3.37-5.27v-5.26h31.3c-.53,1-1,2-1.62,2.93-1.55,2.38-2,4.31,1.62,5l.86,2.18,1.75-2.18,2.61-2.63c-1.88-7.36,2.9-13.87,2.61-21,.87.67,2.56,1.46,2.48,2-.94,7,1.42,13.9-2,21.15-2.37,5,.14,11.71,4.77,16.27v18.4C115.68,147.29,114.81,148.16,113.94,149Z"/>
        <path class="cls-125"
              d="M82.64,162.18c5.72.4,8.14-3.66,10.43-7.88l2.61-2.63V149c5,1.23,1.61,5.3,2.61,7.88l-2.61,2.63,2.61,2.63v2.63H95.68l-2.61,2.63H90.46c-1.22-5.07-5.26-1.63-7.82-2.63Z"/>
        <path class="cls-126" d="M67,170.07c-2,.39-5-1.31-5.22,2.63H56.55v-5.26c3.48,1,7-4,10.44,0Z"/>
        <path class="cls-127" d="M82.64,164.81c2.56,1,6.6-2.44,7.82,2.63H87.85c-2,.39-5-1.31-5.21,2.63H80v-2.63Z"/>
        <ellipse class="cls-128" cx="73.51" cy="168.75" rx="9.22" ry="1.86"/>
        <path class="cls-129" d="M82.64,170.07c.22-3.94,3.24-2.24,5.21-2.63C87.63,171.37,84.61,169.67,82.64,170.07Z"/>
        <path class="cls-99" d="M56.55,172.7h5.22v2.62C59.79,174.93,56.77,176.63,56.55,172.7Z"/>
        <path class="cls-108" d="M93.07,167.44l2.61-2.63Z"/>
        <path class="cls-108" d="M98.29,164.81v-2.63h2.6C100,163.06,99.16,163.93,98.29,164.81Z"/>
        <path class="cls-108" d="M103.5,159.55v2.63h-2.61Z"/>
        <path class="cls-130"
              d="M95.68,91.21h7.82l2.61,7.88H85.24c-4.16,0-8.34-.18-12.48.12-1.11.08-2.11,1.64-3.17,2.51v2.63l-5.21-2.63V96.47H67c5,0,10.06.15,15.07-.12,1.1-.06,2.12-1.64,3.18-2.51a46.13,46.13,0,0,0,7.35-.12C93.73,93.53,94.66,92.08,95.68,91.21Z"/>
        <path class="cls-131"
              d="M106.11,99.09l-2.61-7.88a21.24,21.24,0,0,0,2.58-3.06c1.7-3,2.27-3,5.25.43.29,7.16-4.49,13.67-2.61,21h-2.61Z"/>
        <path class="cls-132"
              d="M67,96.47H64.38V93.84c1.07-.88,2.13-2.48,3.23-2.51,7.61-.23,15.23-.12,22.85-.12h5.22c-1,.87-2,2.32-3.09,2.51a46.13,46.13,0,0,1-7.35.12c-5,0-10.06-.16-15.07.12C69.07,94,68.05,95.59,67,96.47Z"/>
        <path class="cls-133"
              d="M90.46,91.21c-7.62,0-15.24-.11-22.85.12-1.1,0-2.16,1.63-3.23,2.51H61.77V91.21c1.08-.88,2.14-2.49,3.25-2.51,8.47-.22,17-.12,25.44-.12Z"/>
        <path class="cls-117" d="M113.94,149c.87-.88,1.74-1.75,2.6-2.63V149Z"/>
        <path class="cls-99" d="M51.34,146.41h2.6L51.34,149Z"/>
        <path class="cls-134"
              d="M98.29,156.92c-1-2.58,2.41-6.65-2.61-7.88,2.94-9.83-4.83-13.5-9.68-19.61.26-.79-.25-.38-.76,0l1.17,1.17a12.56,12.56,0,0,0,1.16-1.58c.05-.1-.51-.53-1.57.37-3.75-.93-7-1.72-10.74-1.56-1,0-2-1.61-3.06-2.49a15.59,15.59,0,0,0,2.56,0,11.87,11.87,0,0,0,2.21-.83,10.13,10.13,0,0,0-2.23-1.71,7.4,7.4,0,0,0-2.54-.06c-.66-.87-1.34-2.51-2-2.5-4.37.06-3-3.1-3.22-5.38,3.9-.23,2.21-3.27,2.6-5.26H72.2c.18,2.37-1.1,5.61,3.37,5.27,9.48-.71,17.48,3.75,25.34,8,3.09,1.67,5.24,5.1,7.81,7.73l-2.16.86,2.16,1.77c-.21,5.36,1.23,11-2.61,15.77Z"/>
        <path class="cls-129"
              d="M80,167.44H67c-3.48-4-7,1-10.44,0v-2.63c0-4.35-.34-8.75.17-13,.21-1.79,2.23-3.37,3.43-5,1.41,1.37,3.27,2.52,4.09,4.19.68,1.41-.1,3.46.19,5.15.61,3.63,2.38,6.19,6.55,6.12,3.88-.06,7.77,0,11.66,0v2.63Z"/>
        <path class="cls-135"
              d="M82,141.15c2.65.25,5.58-1.26,6.15,3.91.46,4.08,1.69,3.91-3.26,5a3.77,3.77,0,0,0-2.2,1c-.68.94-.83,2.25-1.44,3.26a5.89,5.89,0,0,1-7.78,2.28c-2.52-1.15-4.73-3.67-3.9-7.28.71-3.11,5.4-7.72,8.57-8.15A29.22,29.22,0,0,1,82,141.15Z"/>
        <path class="cls-136"
              d="M67,114.87c.22,2.28-1.15,5.44,3.22,5.38.65,0,1.33,1.63,2,2.5-2,.4-5-1.3-5.21,2.63-2.2-.26-5.4,1.2-5.23-3.11.09-2.09-.73-5.09.34-6.1,3.77-3.6,1.66-7.89,2.28-11.82v-2.63l5.21,2.63L72.2,107v2.63H69.59C65.69,109.83,67.38,112.87,67,114.87Z"/>
        <path class="cls-137"
              d="M67,125.38c.22-3.93,3.24-2.23,5.21-2.63a7.4,7.4,0,0,1,2.54.06A10.13,10.13,0,0,1,77,124.52a11.87,11.87,0,0,1-2.21.83,15.59,15.59,0,0,1-2.56,0Z"/>
        <path class="cls-138" d="M64.38,101.72v2.63c-.87-1-2.31-2-2.49-3.11a46.78,46.78,0,0,1-.12-7.4h2.61v7.88Z"/>
        <path class="cls-99" d="M56.55,164.81v7.89C53,170.05,53,167.45,56.55,164.81Z"/>
        <path class="cls-134" d="M95.68,151.67l-2.61,2.63Z"/>
        <path class="cls-139"
              d="M85.24,99.09h15.65l2.61,5.26H72.2v-2.63a96.23,96.23,0,0,0,9.91-.12C83.23,101.49,84.21,100,85.24,99.09Z"/>
        <path class="cls-140" d="M98.29,156.92l7.82-7.88h2.61v5.26l-2.61,2.62-2.61,2.63-2.61,2.63h-2.6l-2.61-2.63Z"/>
        <path class="cls-141"
              d="M108.72,149h-2.61c3.84-4.76,2.4-10.41,2.61-15.77v-2.63c.87,1.07,2.43,2.1,2.49,3.21.27,5.05.12,10.12.12,15.19Z"/>
        <path class="cls-142"
              d="M103.5,104.35l-2.61-5.26h5.22v10.52l-2.61,2.63c-3.58-.65-3.17-2.58-1.62-5C102.49,106.35,103,105.33,103.5,104.35Z"/>
        <path class="cls-143" d="M72.2,101.72V107l-2.61-2.63v-2.63Z"/>
        <path class="cls-144" d="M103.5,112.24l2.61-2.63v2.63l-1.75,2.18Z"/>
        <path class="cls-108" d="M103.5,159.55l2.61-2.63Z"/>
        <path class="cls-108" d="M106.11,156.92l2.61-2.62Z"/>
        <path class="cls-142" d="M106.11,112.24v-2.63h2.61Z"/>
        <path class="cls-134" d="M108.72,149h2.61l-2.61,2.63Z"/>
        <path class="cls-134" d="M98.29,156.92l-2.61,2.63Z"/>
        <path class="cls-145"
              d="M67,96.47c1.06-.88,2.08-2.45,3.18-2.51,5-.28,10-.12,15.07-.12-1.06.87-2.08,2.45-3.18,2.51C77.05,96.62,72,96.47,67,96.47Z"/>
        <path class="cls-146"
              d="M72.2,101.72H69.59c1.06-.87,2.06-2.43,3.17-2.51,4.14-.3,8.32-.12,12.48-.12-1,.88-2,2.4-3.13,2.51A96.23,96.23,0,0,1,72.2,101.72Z"/>
        <path class="cls-147" d="M67,114.87c.39-2-1.3-5,2.6-5.26C69.2,111.6,70.89,114.64,67,114.87Z"/>
        <path class="cls-148" d="M86.76,128.22c.3.31.86.74.81.84a12.56,12.56,0,0,1-1.16,1.58l-1.17-1.17Z"/>
        <path class="cls-149" d="M108.72,130.64v2.63l-2.16-1.77Z"/>
    </g>
</svg>