<svg id="Calque_1" data-name="Calque 1" xmlns="http://www.w3.org/2000/svg" viewBox="0 0 167.24 257.95">
    <defs>
        <style>
            .cls-1{fill:#19272a;}.cls-2{fill:#fefefe;}.cls-3{fill:#101314;}.cls-4{fill:#0f1516;}.cls-5{fill:#aaaeab;}.cls-6{fill:#2e2f2f;}.cls-7{fill:#212320;}.cls-8{fill:#acadad;}.cls-9{fill:#1a1a1b;}.cls-10{fill:#adadab;}.cls-11{fill:#fef9fc;}.cls-12{fill:#fefbea;}.cls-13{fill:#fefece;}.cls-14{fill:#fcfbfc;}.cls-15{fill:#fef9f7;}.cls-16{fill:#fcfaef;}.cls-17{fill:#fcfcde;}.cls-18{fill:#fdfdba;}.cls-19{fill:#fef9c5;}.cls-20{fill:#fded00;}.cls-21{fill:#fced01;}.cls-22{fill:#f9ee04;}.cls-23{fill:#f8f668;}.cls-24{fill:#edf633;}.cls-25{fill:#f4f460;}.cls-26{fill:#fbf9d0;}.cls-27{fill:#fdec01;}.cls-28{fill:#fcec07;}.cls-29{fill:#e1f70a;}.cls-30{fill:#faee07;}.cls-31{fill:#f3fa6d;}.cls-32{fill:#f9f9f6;}.cls-33{fill:#f4ec2f;}.cls-34{fill:#fde840;}.cls-35{fill:#e3e736;}.cls-36{fill:#f8f8f5;}.cls-37{fill:#faee6e;}.cls-38{fill:#fbee4f;}.cls-39{fill:#faef5e;}.cls-40{fill:#fced49;}.cls-41{fill:#f5f016;}.cls-42{fill:#fcec35;}.cls-43{fill:#f6f8f1;}.cls-44{fill:#feef52;}.cls-45{fill:#feea2f;}.cls-46{fill:#feee2e;}.cls-47{fill:#fee589;}.cls-48{fill:#feed3b;}.cls-49{fill:#fde72b;}.cls-50{fill:#feea23;}.cls-51{fill:#fef123;}.cls-52{fill:#f6f3f1;}.cls-53{fill:#faee58;}.cls-54{fill:#fcf04c;}.cls-55{fill:#f5ed62;}.cls-56{fill:#fcef41;}.cls-57{fill:#f5f4c4;}.cls-58{fill:#feed3d;}.cls-59{fill:#faef51;}.cls-60{fill:#faef67;}.cls-61{fill:#fcee63;}.cls-62{fill:#f4ed25;}.cls-63{fill:#fcef4f;}.cls-64{fill:#fef147;}.cls-65{fill:#feee6f;}.cls-66{fill:#fbef27;}.cls-67{fill:#fdef29;}.cls-68{fill:#fee54e;}.cls-69{fill:#fef228;}.cls-70{fill:#f9f8f2;}.cls-71{fill:#fbf062;}.cls-72{fill:#fbee57;}.cls-73{fill:#fbec0b;}.cls-74{fill:#feea35;}.cls-75{fill:#f7ec71;}.cls-76{fill:#52494c;}.cls-77{fill:#1b1b1b;}.cls-78{fill:#5d5853;}.cls-79{fill:#fafae4;}.cls-80{fill:#f8f059;}.cls-81{fill:#131313;}.cls-82{fill:#090909;}.cls-83{fill:#e9e0e0;}.cls-84{fill:#272127;}.cls-85{fill:#796d74;}.cls-86{fill:#080808;}.cls-87{fill:#565554;}.cls-88{fill:#2e2b2a;}.cls-89{fill:#222;}.cls-90{fill:#373737;}.cls-91{fill:#989898;}.cls-92{fill:#fbfde8;}.cls-93{fill:#f7fed0;}.cls-94{fill:#fbf497;}.cls-95{fill:#f5f3e5;}.cls-96{fill:#faf177;}.cls-97{fill:#c5b9c6;}.cls-98{fill:#f6f44b;}.cls-99{fill:#f5f640;}.cls-100{fill:#f5f2e1;}.cls-101{fill:#f0f923;}.cls-102{fill:#d6d4c1;}.cls-103{fill:#faf28a;}.cls-104{fill:#fdec29;}.cls-105{fill:#f8eb38;}.cls-106{fill:#feec68;}.cls-107{fill:#fcf287;}.cls-108{fill:#fde965;}.cls-109{fill:#fcf27d;}.cls-110{fill:#110f10;}.cls-111{fill:#8e8c8a;}.cls-112{fill:#effee3;}.cls-113{fill:#fdfaf3;}.cls-114{fill:#fbf28c;}.cls-115{fill:#e8e5c1;}.cls-116{fill:#f4ed4c;}.cls-117{fill:#f8eb9b;}.cls-118{fill:#faf283;}.cls-119{fill:#fcf038;}.cls-120{fill:#faf49d;}.cls-121{fill:#f5f4e4;}.cls-122{fill:#fbef7c;}.cls-123{fill:#fbfadf;}.cls-124{fill:#f9f13e;}.cls-125{fill:#2a2a2a;}.cls-126{fill:#0d0d0d;}.cls-127{fill:#faec3d;}.cls-128{fill:#c0bec1;}.cls-129{fill:#040404;}.cls-130{fill:#f9f9f9;}.cls-131{fill:#424143;}.cls-132{fill:#0e1015;}.cls-133{fill:#2c2f35;}.cls-134{fill:#2f2f38;}.cls-135{fill:#241f1f;}.cls-136{fill:#151015;}.cls-137{fill:#454349;}.cls-138{fill:#0d0b0c;}.cls-139{fill:#0d0a0c;}.cls-140{fill:#0f0e17;}.cls-141{fill:#f9f8b0;}.cls-142{fill:#fbf56a;}.cls-143{fill:#acaaab;}.cls-144{fill:#171518;}.cls-145{fill:#232027;}.cls-146{fill:#2b2828;}.cls-147{fill:#fbf3a5;}.cls-148{fill:#e9e7d3;}.cls-149{fill:#272928;}.cls-150{fill:#fdf279;}.cls-151{fill:#444143;}.cls-152{fill:#f8f7f1;}.cls-153{fill:#211e20;}.cls-154{fill:#0f0e11;}.cls-155{fill:#060507;}.cls-156{fill:#07010b;}.cls-157{fill:#100c0e;}.cls-158{fill:#100c1b;}.cls-159{fill:#0a0706;}.cls-160{fill:#0e1013;}.cls-161{fill:#faf9e9;}.cls-162{fill:#f5f2f1;}.cls-163{fill:#0b0714;}.cls-164{fill:#2e2d32;}.cls-165{fill:#3f4042;}.cls-166{fill:#2a2b29;}
        </style>
    </defs>
    <g id="DMB7zx.tif">
        <ellipse cx="165.78" cy="127.73" rx="1.87" ry="172.78"/>
        <ellipse class="cls-1" cx="1.63" cy="127.73" rx="1.87" ry="169.07"/>
        <path class="cls-2"
              d="M.3,247.28H3c.4,2-1.31,5,2.65,5.25.91,5.1,4.94,2.49,7.35,2.5,49.62.17,99.24.13,148.86.13l5.29-2.63c-.2,2.58,1.43,5.45-4,5.42q-79.42-.4-158.86-.06c-3.44,0-4.59-.6-4-4.06A42.07,42.07,0,0,0,.3,247.28Z"/>
        <path d="M5.6.3H161.81V2.92H5.6Z"/>
        <path class="cls-2" d="M5.6.3V2.92C1.64,3.15,3.35,6.19,3,8.18H.3a12.72,12.72,0,0,0,0-2.62C-.73,1,1-.75,5.6.3Z"/>
        <path class="cls-3" d="M167.1,252.53l-5.29,2.63V249.9h5.29Z"/>
        <path class="cls-4" d="M161.81,2.92V.3h2.64l2.65,2.62V5.55h-5.29Z"/>
        <path class="cls-2" d="M167.1,2.92,164.45.3C166.73-.21,167.62.66,167.1,2.92Z"/>
        <path class="cls-5" d="M161.81,5.55h2.64V249.9h-2.64V5.55Z"/>
        <path class="cls-6" d="M3,247.28V8.18H5.6v239.1Z"/>
        <path d="M161.81,252.53v2.63c-49.62,0-99.24,0-148.86-.13-2.41,0-6.44,2.6-7.35-2.5H161.81Z"/>
        <path class="cls-7" d="M8.24,252.53H5.6c-4-.22-2.25-3.26-2.65-5.25H5.6l2.64,2.62Z"/>
        <path class="cls-8" d="M161.81,2.92V5.55H8.24V2.92Z"/>
        <path class="cls-9" d="M8.24,2.92V5.55L5.6,8.18H3c.4-2-1.31-5,2.65-5.26Z"/>
        <path class="cls-10" d="M8.24,252.53V249.9H161.81v2.63Z"/>
        <path class="cls-11" d="M161.81,249.9h-2.65V18.69h2.65Z"/>
        <path class="cls-12" d="M24.13,5.55H161.81v5.26h-2.65c0-3.55-2.75-2.59-4.66-2.6-17-.06-34,0-50.94,0H24.13Z"/>
        <ellipse class="cls-13" cx="160.48" cy="14.75" rx="1.87" ry="5.57"/>
        <path class="cls-14" d="M10.89,249.9H8.24L5.6,247.28V63.35h5.29V249.9Z"/>
        <path class="cls-15" d="M10.89,63.35H5.6V31.83h5.29V63.35Z"/>
        <path class="cls-16" d="M10.89,31.83H5.6V8.18L8.24,5.55h5.3V8.18l-2.65,2.63Z"/>
        <ellipse class="cls-17" cx="18.83" cy="6.86" rx="7.49" ry="1.86"/>
        <path class="cls-18"
              d="M159.16,247.28v2.62H18.83v-2.62H82.38c5.53,0,11.06,0,16.59-.06.64,0,1.27-.85,1.9-1.3a13.85,13.85,0,0,1-3.26-1.33,11.21,11.21,0,0,1-2-2.57H116.8l-2.65,2.63c-2.18,0-4.36,0-6.53,0-.33,0-.94.61-.89.8.16.63.54,1.68.89,1.71,2.17.16,4.35.08,6.53.08Z"/>
        <ellipse class="cls-19" cx="14.86" cy="248.59" rx="5.62" ry="1.86"/>
        <path class="cls-20"
              d="M159.16,10.81v57.8c-.88,1.07-2.48,2.12-2.53,3.23-.25,5.92-.12,11.86-.12,17.79-7.63-4.17-7.76-4.1-7.94,4.14,0,1.25,0,2.49,0,3.74q-4,2.63-7.94,5.26c-1.86-5.71,2.62-10.37,2.64-15.77,3.7-5.54,3.41-8.3.12-7.63-6.16,1.24-9-3.54-13.35-5.51-1.15-2.45-1.7-6-3.63-7-1.61-.9-4.79,1.33-7.34,1.69a54.57,54.57,0,0,1-7.57.08L106.21,66c0-.43,0-.86,0-1.29-.25-4.65-.52-9.3-.78-13.94-4.87,3.17.23,8.49-2.65,12.11A25.68,25.68,0,0,0,100.91,66c-6.3,1.23-10.62-3.4-15.88-5.25V58.1l2.64-7.88c0-3-1.24-7,.24-8.7,4.27-5,1.67-10.46,2.37-15.62C90.8,22,88.72,19.7,85,18.69c-.61-.88-1-2.22-1.86-2.54-2.84-1.1-5.81-1.84-8.73-2.72,1.09-.87,2.17-2.48,3.29-2.51,8.61-.21,17.22-.11,25.83-.11ZM106.72,23.2l-1.38-4.06c-.59,1.16-1.51,2.28-1.69,3.5s.49,2.31.78,3.48ZM99,51.51l-1.62-6.14c-.58.77-1.62,1.54-1.64,2.32a24,24,0,0,0,.82,4.75Zm41.45-27.89L142,26.57c.44-.66,1.3-1.37,1.23-2A13,13,0,0,0,142,21.32Zm2.15,37a10.11,10.11,0,0,0-.21-2,17.49,17.49,0,0,0-3.47,0,5.31,5.31,0,0,0,0,1.64A33.52,33.52,0,0,0,142.57,60.61ZM147.63,69l-1.71.93c.3.3.65.87.87.82a7.7,7.7,0,0,0,1.78-.82ZM121.15,58.48l-1.71.93c.3.3.66.87.88.83a8.11,8.11,0,0,0,1.77-.83ZM131,39.33l1.7-.94c-.29-.29-.65-.87-.87-.82a8.32,8.32,0,0,0-1.77.82Z"/>
        <path class="cls-21"
              d="M156.51,89.63c0-5.93-.13-11.87.12-17.79.05-1.11,1.65-2.16,2.53-3.23V194.73h-5.3l-2.64-2.63c-3.78-6.29-10-5.17-15.89-5.26q-1.32-3.93-2.65-7.88c.89-.87,1.77-1.75,2.65-2.63l2.65-2.62c3.35,0,2.75-2.51,2.59-4.38-.33-4.13.14-8,2.7-11.39,7.65-2.53,11.31-7.7,10.59-15.76.89-1.09,2.49-2.14,2.53-3.26.24-6.8.36-13.62,0-20.42-.14-2.65-1.64-5.23-2.53-7.85.89-1.05,2.41-2,2.53-3.15a97.82,97.82,0,0,0,.12-10ZM147.63,176c.35-.36.64-.65.94-.94a8.63,8.63,0,0,0-1.78-.82c-.22,0-.57.53-.87.82Z"/>
        <path class="cls-22"
              d="M159.16,247.28h-45v-2.63L116.8,242a47.54,47.54,0,0,0,7.46-.12c1.15-.18,2.09-1.63,3.13-2.51,1.6-.28,3.43-.16,4.78-.9,10.76-5.92,19.63-13.71,24.34-25.37h2.65Z"/>
        <ellipse class="cls-23" cx="157.84" cy="207.86" rx="1.87" ry="7.43"/>
        <path class="cls-24" d="M159.16,202.61h-2.65q-1.32-3.95-2.65-7.88h5.3Z"/>
        <path class="cls-25"
              d="M103.56,10.81c-8.61,0-17.22-.1-25.83.11-1.12,0-2.2,1.64-3.29,2.51H53.25c0-3.51-2.72-2.58-4.62-2.59-11.7-.07-23.39,0-35.09,0V8.18h90Z"/>
        <path class="cls-26" d="M103.56,10.81V8.18c17,0,34,0,50.94,0,1.91,0,4.64-1,4.66,2.6Z"/>
        <path class="cls-27"
              d="M18.83,247.28H10.89V126.41h2.65c.27,8,4.3,15.55,2.81,23.83-.21,1.14,1.51,3.44,2.79,3.86,3.48,1.17,6,4.81,10.29,3.84v7.88c.36,3.37-1.75,7.67,4.4,8.6,1.76.27,4.93,3,3.22,6-1.25,2.18-4.28,4.48-1,6.17,4.65,2.4,3-3.77,5.3-4.95.35-.17.87,0,1.3,0,1.24,5.06,5.34,1.63,8,2.63l5.29,7.88h2.65c1.24,3.94,2.77,5.76,7.3,2.85,2.05-1.32,5.68-.22,8.59-.22L87.67,200,85,205.24c0,.85.3,1.85,0,2.53-2.56,4.91-7.07,9.64-7.41,14.67-.38,5.52,3,11.29,4.81,16.95v7.89H66.49q-.42-5-.86-10.05c-3.9,2.77-.73,6.78-1.79,10.05Zm48.11-37.61c-.6-1.5-1.18-3-1.77-4.43-.44,1.1-1.28,2.21-1.23,3.29a20.83,20.83,0,0,0,1.23,4.59ZM20.21,168.36c-.51.78-1.46,1.71-1.28,2.06a11.19,11.19,0,0,0,2.59,3.19c.14.13,1.44-1,2.21-1.61C22.56,170.79,21.4,169.58,20.21,168.36Zm25.65,22.35-1.45-3.45c-.58.75-1.43,1.43-1.66,2.28-.16.6.52,1.42.82,2.14Zm-.93,18.85-.94-1.7c-.3.3-.88.65-.83.87a7.83,7.83,0,0,0,.83,1.76Z"/>
        <path class="cls-28"
              d="M13.54,126.41H10.89V66l5.3-2.63c5.75,4.37,8.65,5.6,18.53,7.89l2.65,5.25c-.31,7.71-.31,7.71-6,7.88-.44,0-.88,0-1.32,0-8.52.21-8.52.21-8.58,9.23,0,2.18,0,4.35,0,6.53,1.26,5.22-1.77,5.72-5.82,5.32-.64-.06-1.36.76-2.05,1.18.62.46,1.26,1.34,1.86,1.32,6-.23,2.6,6.37,6,7.94-.3.74-.44,2-.93,2.14C13.65,120.2,13.64,120.16,13.54,126.41Zm9.32-52.64c-.51.78-1.46,1.71-1.28,2.06A11.18,11.18,0,0,0,24.16,79c.15.13,1.45-1,2.22-1.61Z"/>
        <path class="cls-29" d="M16.19,63.35,10.89,66V55.47h2.65Z"/>
        <path class="cls-30"
              d="M13.54,10.81c11.7,0,23.39,0,35.09,0,1.9,0,4.61-.92,4.62,2.59-2,.4-5.07-1.3-5.29,2.63H45.31c-4.11-.42-6.9,1.11-7.94,5.26-7.27.57-12.46,4.23-15.89,10.51-2.65,3.56-5.34,7.08-7.89,10.72-.38.55-.05,1.59-.05,2.41H10.89V10.81Z"/>
        <ellipse class="cls-31" cx="12.22" cy="50.22" rx="1.87" ry="7.43"/>
        <path class="cls-17" d="M13.54,10.81H10.89l2.65-2.63Z"/>
        <path class="cls-32"
              d="M82.38,239.39c-1.77-5.66-5.19-11.43-4.81-16.95.34-5,4.85-9.76,7.41-14.67.35-.68,0-1.68,0-2.53,1.31,0,3.07.54,3.87-.1,4.14-3.3,8-6.91,12-10.41l2.65-2.63h7.94c1.24,5.06,5.34,1.63,7.94,2.63v2.62L116.8,200v2.63c-5.07.83-2.23,4.71-2.52,7.13-.4,3.37,2.09,5.13,5.16,6h2.65c4,.22,2.25,3.26,2.65,5.25l-2.65,2.63h-2.65c-3.62,2.64-3.62,5.24,0,7.88-.28.72-.36,1.79-.89,2.09a30.17,30.17,0,0,1-4.31,1.76,18.73,18.73,0,0,0,4.3,1.34c2.93.21,5.9.07,8.85.07v2.62c-1,.88-2,2.33-3.13,2.51a47.54,47.54,0,0,1-7.46.12H95.62Z"/>
        <path class="cls-33"
              d="M82.38,239.39,95.62,242a11.21,11.21,0,0,0,2,2.57,13.85,13.85,0,0,0,3.26,1.33c-.63.45-1.26,1.28-1.9,1.3-5.53.1-11.06.06-16.59.06Z"/>
        <path class="cls-34" d="M63.84,247.28c1.06-3.27-2.11-7.28,1.79-10.05q.44,5,.86,10.05Z"/>
        <path class="cls-35"
              d="M114.15,244.65v2.63c-2.18,0-4.36.08-6.53-.08-.35,0-.73-1.08-.89-1.71,0-.19.56-.79.89-.8C109.79,244.61,112,244.65,114.15,244.65Z"/>
        <path class="cls-36"
              d="M45.31,16.06H48c2.6-1,6.7,2.44,7.94-2.63h7.94v2.63l-4.75,3.41c.62.61,1.4,1.84,1.83,1.73,1.22-.31,2.3-1.17,2.92-3.33,7.06-.93,14.13-.06,21.19.82,3.69,1,5.77,3.35,5.25,7.21-.7,5.16,1.9,10.61-2.37,15.62-1.48,1.73-.24,5.73-.24,8.7-1.31,0-3.07-.55-3.87.09-4.14,3.31-8,6.91-12,10.42C67.2,62,63.85,66.43,58.55,66c-1.24-5.06-5.34-1.62-7.94-2.63l2.64-5.25c3.48-3.86,2.58-8.6,2.65-13.14a11.57,11.57,0,0,0-2-2.58c-2.73-2-7.18-1.18-8.58-5.3a22.56,22.56,0,0,0,2.63-2c1-1,1.78-2.16,2.67-3.24s2.62-2.31,2.49-3.28c-.43-3.17-3.26-1.62-5.14-2L45.31,29.2H42.66c-.4-2,1.32-5-2.64-5.26l-2.65-2.62C44.82,21.32,44.82,21.32,45.31,16.06ZM75.89,48.87c-2.18-2.93-2.61-3.77-3.28-4.35a20,20,0,0,0-2.67-1.67c-.26,1.15-1.1,2.92-.66,3.33C70.27,47.1,71.9,47.34,75.89,48.87Z"/>
        <path class="cls-37"
              d="M58.55,66c5.3.45,8.65-3.94,13.24-5.25.61.87,1.39,2.58,1.79,2.49,3-.63,5.88-1.62,8.8-2.49l.87,2.18L85,60.73c5.26,1.85,9.58,6.48,15.88,5.25h2.65l.87,2.18L106.21,66l5.29,2.63c.88,2.63,1.77,5.25,2.65,7.88-1.83-1.37-3.67-2.73-5.48-4.13-2.25-1.76-2.29,0-2.46,1.5h-2.65c-6-5.62-6.47-5.62-10.59,0H90.32C90.09,69.93,87,71.63,85,71.24c-1.88.36-4.78-1.22-5.23,2-.61,4.38,2.91,3,5.23,3.26l-2.65,2.63-2.65,2.63L69.14,87c-1.91-.58-4.65-.57-5.57-1.85-2.77-3.85-6.51-3.42-10.32-3.4,0-10.26,0-10.26-7.94-10.51V68.61a47.54,47.54,0,0,0,7.46-.12c1.15-.18,2.09-1.63,3.13-2.51Zm7.16,2.2-4.43,1.66c1.14,1.19,2.53,3.5,3.37,3.32,1.64-.36,3-2.1,4.45-3.28Z"/>
        <path class="cls-38"
              d="M130,73.86c4.34,2,7.19,6.75,13.35,5.51,3.29-.67,3.58,2.09-.12,7.63-.37-1.86,1.24-4.75-2-5.18-4.43-.59-3.06,2.92-3.26,5.22-.07.86,0,1.72,0,3.65a30,30,0,0,1-3.2-5.52c-1.56,1-3.36,1.8-4.54,3.14-.49.55.21,3.22.6,3.28a13,13,0,0,0,7.14-.9A15.64,15.64,0,0,1,143.27,87c0,5.4-4.5,10.06-2.64,15.77H138c1.31-5.37-2.55-6.83-5.74-5-4.88,2.78-5.41,1.66-4.88-3a46.72,46.72,0,0,0,0-5.16q1.2-6.45-5.3-5.26V81.75c2-.4,5.07,1.3,5.3-2.63C131.35,78.9,129.64,75.86,130,73.86Z"/>
        <path class="cls-39"
              d="M138,102.77h2.65q4-2.64,7.94-5.26V108a6.88,6.88,0,0,0-6.81,2.7c-2.5,3-.57,4.63,1.39,6.34,2.22,1.93,4.59,3,5.36-1.15.41-2.29.82-3,2.85-1.22,3.63,3.2,3.47,3.83-2.79,9.1-.3-.74-.44-2-.93-2.14-9.54-3-9.55-3-9.66-12.38,0-1.29,0-2.59,0-3.88Z"/>
        <path class="cls-40"
              d="M114.15,76.49c-.88-2.63-1.77-5.25-2.65-7.88a54.57,54.57,0,0,0,7.57-.08c2.55-.36,5.73-2.59,7.34-1.69,1.93,1.06,2.48,4.57,3.63,7h-2.65c-7.46,0-7.46,0-8,5.26Z"/>
        <path class="cls-41"
              d="M82.38,60.73c-2.92.87-5.82,1.86-8.8,2.49-.4.09-1.18-1.62-1.79-2.49,4-3.51,7.87-7.11,12-10.42.8-.64,2.56-.09,3.87-.09L85,58.1Z"/>
        <path class="cls-42" d="M156.51,89.63v7.88h-7.94c0-1.25,0-2.49,0-3.74C148.75,85.53,148.88,85.46,156.51,89.63Z"/>
        <path class="cls-43" d="M63.84,16.06V13.43h10.6c2.92.88,5.89,1.62,8.73,2.72.82.32,1.25,1.66,1.86,2.54Z"/>
        <path class="cls-44"
              d="M103.56,66h-2.65a25.68,25.68,0,0,1,1.86-3.12c2.88-3.62-2.22-8.94,2.65-12.11.26,4.64.53,9.29.78,13.94,0,.43,0,.86,0,1.29Z"/>
        <path class="cls-40" d="M106.72,23.2l-2.29,2.92c-.29-1.17-.94-2.38-.78-3.48s1.1-2.34,1.69-3.5Z"/>
        <path class="cls-45" d="M99,51.51l-2.44.93a24,24,0,0,1-.82-4.75c0-.78,1.06-1.55,1.64-2.32Z"/>
        <path class="cls-46" d="M140.42,23.62l1.53-2.3a13,13,0,0,1,1.23,3.27c.07.61-.79,1.32-1.23,2Z"/>
        <path class="cls-47" d="M82.38,60.73,85,58.1v2.63l-1.78,2.18Z"/>
        <path class="cls-48"
              d="M142.57,60.61a33.52,33.52,0,0,1-3.67-.38,5.31,5.31,0,0,1,0-1.64,17.49,17.49,0,0,1,3.47,0A10.11,10.11,0,0,1,142.57,60.61Z"/>
        <path class="cls-49" d="M147.63,69l.94.93a7.7,7.7,0,0,1-1.78.82c-.22.05-.57-.52-.87-.82Z"/>
        <path class="cls-50" d="M121.15,58.48l.94.93a8.11,8.11,0,0,1-1.77.83c-.22,0-.58-.53-.88-.83Z"/>
        <path class="cls-51" d="M131,39.33l-.94-.94a8.32,8.32,0,0,1,1.77-.82c.22,0,.58.53.87.82Z"/>
        <path class="cls-52"
              d="M127.39,239.39v-2.62c.06-2.91.5-6.06-4.21-5.29a23.31,23.31,0,0,1-3.74,0c-3.62-2.64-3.62-5.24,0-7.88.36,1.86-1.2,4.68,2,5.1,1,.13,2.19-1.6,3.3-2.47l2.65-2.63c5-2.72,3.4-9.08,6.24-12.21,3.86-4.28-.9-5.95-.95-8.81L130,200c-.89-.87-1.77-1.75-2.65-2.63v-2.62c2.6-1,6.7,2.43,7.94-2.63v-2.63l15.89,2.63,2.64,2.63q1.33,3.93,2.65,7.88v10.51c-4.71,11.66-13.58,19.45-24.34,25.37C130.82,239.23,129,239.11,127.39,239.39Zm23.83-32.75L149.49,203c-.31,1.59-.71,3.18-.89,4.78a13.07,13.07,0,0,0,.05,3.85c.08.44,1,.81,1.67,1,.18.06.83-.53.85-.86C151.28,210.52,151.22,209.23,151.22,206.64Z"/>
        <path class="cls-53"
              d="M143.27,157.94c-2.56,3.41-3,7.26-2.7,11.39.16,1.87.76,4.39-2.59,4.38-1-2.59,2.45-6.65-2.65-7.89l2.65-5.25c.23-2.29,3.45-4,.21-7.08-2-1.92-2.54-5.92-2.74-9-.4-6.27,8.09-9.87,5.66-17.1-.19-.55,1.54-2.13,2.65-2.61a20.93,20.93,0,0,1,4.81-.95c-2.13,2.84-3.26,6.3,1,7.38,7,1.74,4.94,5,2.5,8.84a12.2,12.2,0,0,0-.89,2.17,3.57,3.57,0,0,1,0,1.27c-.14.36-.56.62-.86.93l-1.75-2.28c-2.66-3.42-5.38-3.59-8.87-.26-2.92,2.79-2.92,4.12,1.63,5.88C145.53,149.34,142.45,154.48,143.27,157.94Z"/>
        <path class="cls-54"
              d="M151.22,142.18a12.2,12.2,0,0,1,.89-2.17c2.44-3.86,4.46-7.1-2.5-8.84-4.3-1.08-3.17-4.54-1-7.38,6.26-5.27,6.42-5.9,2.79-9.1-2-1.78-2.44-1.07-2.85,1.22-.77,4.2-3.14,3.08-5.36,1.15-2-1.71-3.89-3.36-1.39-6.34a6.88,6.88,0,0,1,6.81-2.7c.22,3.93,3.29,2.23,5.29,2.63.89,2.62,2.39,5.2,2.53,7.85.36,6.8.24,13.62,0,20.42,0,1.12-1.64,2.17-2.53,3.26Z"/>
        <path class="cls-55"
              d="M135.59,167c4.84.05,1.38,4.11,2.39,6.7l-2.65,2.62c-.88.88-1.76,1.76-2.65,2.63q1.33,3.94,2.65,7.88H122.09v-5.25c2-.4,5.07,1.3,5.3-2.63.88-1,2.34-2,2.53-3.11a46.76,46.76,0,0,0,.12-7.4c-.89-.87-1.77-1.75-2.65-2.63l-2.65-2.62,2.65-2.63H138a23.74,23.74,0,0,0-2.39,6.44c-.41.27-1-.46-1.49-1.19-.47.61-1.36,1.23-1.33,1.81a12.83,12.83,0,0,0,1,3.23A8.94,8.94,0,0,0,135.59,167Z"/>
        <path class="cls-56"
              d="M151.22,142.18h2.64c.72,8.06-2.94,13.23-10.59,15.76-.82-3.46,2.26-8.6-1.94-10.22-4.55-1.76-4.55-3.09-1.63-5.88,3.49-3.33,6.21-3.16,8.87.26l1.75,2.28c.3-.31.72-.57.86-.93A3.57,3.57,0,0,0,151.22,142.18Z"/>
        <path class="cls-20"
              d="M153.86,110.65c-2-.4-5.07,1.3-5.29-2.63V97.51h7.94a97.82,97.82,0,0,1-.12,10C156.27,108.62,154.75,109.6,153.86,110.65Z"/>
        <path class="cls-57" d="M122.09,186.84h13.24c5.86.09,12.11-1,15.89,5.26l-15.89-2.63H119.44v-2.63Z"/>
        <path class="cls-53" d="M132.68,179c.89-.87,1.77-1.75,2.65-2.63C134.45,177.21,133.57,178.09,132.68,179Z"/>
        <path class="cls-58"
              d="M147.63,176l-1.71-.94c.3-.29.65-.87.87-.82a8.63,8.63,0,0,1,1.78.82C148.27,175.31,148,175.6,147.63,176Z"/>
        <path class="cls-53" d="M135.33,176.33l2.65-2.62Z"/>
        <path class="cls-43" d="M55.9,13.43c-1.24,5.07-5.34,1.63-7.94,2.63.22-3.93,3.29-2.23,5.29-2.63Z"/>
        <path class="cls-59"
              d="M13.54,126.41c.1-6.25.11-6.21,7-8.37.49-.15.63-1.4.93-2.14l5.3,2.63c-.21,3.73-.08,7.38,2.65,10.37-3.13,3.76-1.74,5.57,2.56,6.82,1.18.34,1.83,2.5,2.73,3.83-1,2.59,2.45,6.65-2.65,7.88-.08-2.77.26-7.23-4-4.61-2.07,1.28-8,.47-6.41,5.49,1.19,3.67,5.15,1.08,7.78,1.75-.56,2.25-4.95,5.65,1.77,5.8.31,0,.58,1.36.87,2.08H29.43c-4.25,1-6.81-2.67-10.29-3.84-1.28-.42-3-2.72-2.79-3.86C17.84,142,13.81,134.41,13.54,126.41Zm11,1.81-1.77-4.43c-.45,1.1-1.28,2.21-1.23,3.29a20.29,20.29,0,0,0,1.23,4.59Z"/>
        <path class="cls-60"
              d="M32.07,157.94c-.29-.72-.56-2.08-.87-2.08-6.72-.15-2.33-3.55-1.77-5.8l2.64-2.63c5.1-1.23,1.64-5.29,2.65-7.88h2.65c0,3,1.24,7.08-.26,8.72-3.18,3.48-1,4.8,1.18,6.61,1.37,1.13,2.91,2.05,4.37,3.06v7.88c-5.1,1.24-1.64,5.3-2.64,7.89.39,2-1.32,5,2.64,5.25v2.63c-.43,0-.95-.15-1.3,0-2.3,1.18-.65,7.35-5.3,4.95-3.29-1.69-.26-4,1-6.17,1.71-3-1.46-5.7-3.22-6-6.15-.93-4-5.23-4.4-8.6,1.63-1.18,3.75-2.06,4.77-3.63C35.34,160.42,35.32,158.1,32.07,157.94Z"/>
        <path class="cls-61"
              d="M87.67,200l-13.23-5.25V192.1c.39-2-1.32-5,2.64-5.26q-1.2,6.45,5.3,5.26c3.83.32,7.46-.14,10.59-2.63v2.63Z"/>
        <path class="cls-62"
              d="M87.67,200,93,192.1h2.65c2,.39,5.07-1.3,5.29,2.63-4,3.5-7.87,7.11-12,10.41-.8.64-2.56.1-3.87.1Z"/>
        <path class="cls-63"
              d="M74.44,192.1v2.63c-2.91,0-6.54-1.1-8.59.22-4.53,2.91-6.06,1.09-7.3-2.85l2.65-2.63h2.64c1,.88,2,2.33,3.14,2.51A47.52,47.52,0,0,0,74.44,192.1Z"/>
        <path class="cls-64" d="M32.07,157.94c3.25.16,3.27,2.48,2.13,4.25-1,1.57-3.14,2.45-4.77,3.63v-7.88Z"/>
        <path class="cls-63" d="M55.9,192.1l-5.29-7.88h7.94v2.62C54.59,187.07,56.3,190.11,55.9,192.1Z"/>
        <path class="cls-65" d="M55.9,192.1c.4-2-1.31-5,2.65-5.26l2.65,2.63-2.65,2.63Z"/>
        <path class="cls-66" d="M66.94,209.67l-1.77,3.45a20.83,20.83,0,0,1-1.23-4.59c0-1.08.79-2.19,1.23-3.29Z"/>
        <path class="cls-60" d="M50.61,184.22c-2.61-1-6.71,2.43-8-2.63h8Z"/>
        <path class="cls-67"
              d="M20.21,168.36c1.19,1.22,2.35,2.43,3.52,3.64-.77.57-2.07,1.74-2.21,1.61a11.19,11.19,0,0,1-2.59-3.19C18.75,170.07,19.7,169.14,20.21,168.36Z"/>
        <path class="cls-68" d="M45.86,190.71l-2.29,1c-.3-.72-1-1.54-.82-2.14.23-.85,1.08-1.53,1.66-2.28Z"/>
        <path class="cls-69" d="M44.93,209.56l-.94.93a7.83,7.83,0,0,1-.83-1.76c0-.22.53-.57.83-.87Z"/>
        <path class="cls-70"
              d="M45.31,68.61v2.63H34.72C24.84,69,21.94,67.72,16.19,63.35l-2.65-7.88V45c0-.82-.33-1.86.05-2.41,2.55-3.64,5.24-7.16,7.89-10.72,4,.91,8,1.78,12,2.81.33.08.72,1.56.53,1.71-4.09,3.26,3.14,5.56.7,8.61,1,2.59-2.45,6.65,2.65,7.88v2.63L40,58.1c1,.54,2,1,2.95,1.63,2.39,1.57,4.34,2,5-1.63h5.29l-2.64,5.25c-4.23,0-8.47-.18-12.68.12-1.12.09-2.14,1.64-3.21,2.51,1,.88,2,2.33,3.13,2.51A47.54,47.54,0,0,0,45.31,68.61Z"/>
        <path class="cls-71"
              d="M26.78,118.53l-5.3-2.63c-3.41-1.57-.06-8.17-6-7.94-.6,0-1.24-.86-1.86-1.32.69-.42,1.41-1.24,2.05-1.18,4.05.4,7.08-.1,5.82-5.32l5.3-2.63c5.75,1.85,10.45-2.6,15.88-2.63-2,1.76-4,3.46-5.92,5.29-.56.54-1.24,1.92-1,2.12,6.55,6.61-2.8,9-3.63,13.61C30.07,116.3,27,114.6,26.78,118.53Z"/>
        <path class="cls-72"
              d="M26.78,97.51l-5.3,2.63c0-2.18,0-4.35,0-6.53.06-9,.06-9,8.58-9.23.44,0,.88,0,1.32,0,5.68-.17,5.68-.17,6-7.88,2.3.23,5.53-1.16,5.31,3.25-.25,5.1,1.34,6.47,5.81,3,1.13-.89,3.15-.67,4.76-1a98.79,98.79,0,0,1-6.06,9.72c-.69.89-3,.56-4.53.79A29.19,29.19,0,0,0,38.2,89.2c-10.08-4.51-11.21-3.78-11.42,7C26.77,96.65,26.78,97.08,26.78,97.51Z"/>
        <path class="cls-73"
              d="M53.25,81.75c-1.61.28-3.63.06-4.76,1-4.47,3.51-6.06,2.14-5.81-3,.22-4.41-3-3-5.31-3.25l-2.65-5.25H45.31C53.25,71.49,53.25,71.49,53.25,81.75Z"/>
        <path class="cls-74"
              d="M22.86,73.77l3.52,3.64c-.77.57-2.07,1.74-2.22,1.61a11.18,11.18,0,0,1-2.58-3.19C21.4,75.48,22.35,74.55,22.86,73.77Z"/>
        <path class="cls-43"
              d="M34.72,45c2.44-3.05-4.79-5.35-.7-8.61.19-.15-.2-1.63-.53-1.71-4-1-8-1.9-12-2.81,3.43-6.28,8.62-9.94,15.89-10.51L40,23.94c.39,2-1.32,5,2.64,5.26h2.65l-2.65,5.25L40,37.08l-2.65,2.63V45Z"/>
        <path class="cls-43" d="M45.31,16.06c-.49,5.26-.49,5.26-7.94,5.26C38.41,17.17,41.2,15.64,45.31,16.06Z"/>
        <path class="cls-75" d="M50.61,184.22v-2.63h63.54v7.88l-2.65,2.63h-5.29c-.26-7.79-.26-7.79-8.06-7.88H50.61Z"/>
        <path class="cls-76"
              d="M130,200l2.64,2.63c-.72.28-2.06.52-2.08.85-.4,6-1.08,11.88-3.21,17.54h-2.65c-.4-2,1.31-5-2.65-5.25v-2.63l4.86-.88c-.64-3.23,3.35-7.51-2.21-9.63L122.09,200v-2.63h5.3C128.27,198.23,129.15,199.11,130,200Z"/>
        <path class="cls-77"
              d="M119.44,215.75c-3.07-.88-5.56-2.64-5.16-6,.29-2.42-2.55-6.3,2.52-7.13h2.64c-.31,3.8.14,7.41,2.65,10.51Z"/>
        <path class="cls-78" d="M135.33,192.1c-1.24,5.06-5.34,1.63-7.94,2.63h-8c-2.6-1-6.7,2.43-7.94-2.63Z"/>
        <path class="cls-79"
              d="M119.44,231.51a23.31,23.31,0,0,0,3.74,0c4.71-.77,4.27,2.38,4.21,5.29-3,0-5.92.14-8.85-.07a18.73,18.73,0,0,1-4.3-1.34,30.17,30.17,0,0,0,4.31-1.76C119.08,233.3,119.16,232.23,119.44,231.51Z"/>
        <path class="cls-80" d="M95.62,184.22h2.53c7.8.09,7.8.09,8.06,7.88h-2.65c-1-4.15-3.84-5.68-7.94-5.26Z"/>
        <path class="cls-75" d="M95.62,186.84c4.1-.42,6.9,1.11,7.94,5.26l-2.65,2.63c-.22-3.93-3.29-2.24-5.29-2.63Z"/>
        <path class="cls-81" d="M124.74,226.26c-1.11.87-2.33,2.6-3.3,2.47-3.2-.42-1.64-3.24-2-5.1h2.65Z"/>
        <path class="cls-82" d="M124.74,226.26l-2.65-2.63,2.65-2.63,2.65,2.63Z"/>
        <path class="cls-83" d="M119.44,194.73h8v2.62h-8Z"/>
        <path class="cls-84" d="M119.44,202.61H116.8V200h5.29v2.63Z"/>
        <path class="cls-85" d="M122.09,200H116.8l2.64-2.63h2.65Z"/>
        <path class="cls-86" d="M119.44,215.75l2.65-2.63v2.63Z"/>
        <path class="cls-87"
              d="M45.31,37.08c1.4,4.12,5.85,3.33,8.58,5.3a11.57,11.57,0,0,1,2,2.58c-2,.4-5.07-1.3-5.29,2.63H48c-.23-3.93-3.29-2.23-5.3-2.63V37.08Z"/>
        <path class="cls-88"
              d="M34.72,66c1.07-.87,2.09-2.42,3.21-2.51,4.21-.3,8.45-.12,12.68-.12,2.6,1,6.7-2.43,7.94,2.63H34.72Z"/>
        <path class="cls-89" d="M50.61,47.59c.22-3.93,3.28-2.23,5.29-2.63-.07,4.54.83,9.28-2.65,13.14H50.61V47.59Z"/>
        <path class="cls-90"
              d="M42.66,34.45l2.65-5.25H48l2.65,2.63c-.89,1.08-1.7,2.25-2.67,3.24a22.56,22.56,0,0,1-2.63,2Z"/>
        <path class="cls-43" d="M63.84,19.68a11.46,11.46,0,0,1-2.92,1.52c-.43.11-1.21-1.12-1.83-1.73l4.75-3.41Z"/>
        <path class="cls-91"
              d="M50.61,31.83,48,29.2V26.57c1.88.36,4.71-1.19,5.14,2C53.23,29.52,51.49,30.73,50.61,31.83Z"/>
        <path class="cls-92"
              d="M75.89,48.87c-4-1.53-5.62-1.77-6.61-2.69-.44-.41.4-2.18.66-3.33a20,20,0,0,1,2.67,1.67C73.28,45.1,73.71,45.94,75.89,48.87Z"/>
        <path class="cls-93" d="M42.66,29.2c-4-.23-2.25-3.27-2.64-5.26C44,24.17,42.26,27.21,42.66,29.2Z"/>
        <path class="cls-43" d="M48,26.57V29.2H45.31Z"/>
        <path class="cls-94"
              d="M42.66,92.26c1.56-.23,3.84.1,4.53-.79a98.79,98.79,0,0,0,6.06-9.72c3.81,0,7.55-.45,10.32,3.4.92,1.28,3.66,1.27,5.57,1.85-1.71,3.37-5.28,5-7.35,8.28-3,4.78-9.49,7.37-8.9,14.41-6.73,3.63-4.25,10.32-5.44,15.81-.1.44-1.4.62-2.14.91-.74-2.6,2-6.34-1.87-7.77s-5.61.6-7,4.44c-1.15,3.3-2.43,1.89-5.41-1.17-3.35-3.45,2.27-3.87,1-6,.83-4.61,10.18-7,3.63-13.61-.2-.2.48-1.58,1-2.12,1.91-1.83,3.94-3.53,5.92-5.29Z"/>
        <path class="cls-95"
              d="M45.31,126.41c.74-.29,2-.47,2.14-.91,1.19-5.49-1.29-12.18,5.44-15.81-.59-7,5.91-9.63,8.9-14.41C63.86,92,67.43,90.37,69.14,87l10.59-5.25,2.65-2.63L85,76.49h2.64c2-.39,5.07,1.31,5.3-2.63h5.29c1.25,5.07,5.34,1.63,7.95,2.63V87c-2-.39-5.07,1.3-5.3-2.63l2.65-2-2.65-3.27H95.62L93,81.75H90.32l-2.65,2.62H85L82.38,87l-2.65,2.63-2.65,2.63-2.64,2.62-2.65,2.63H69.14c-4,.23-2.25,3.26-2.65,5.26L61.2,108c-4.79,5.22-8.4,10.94-8,18.39C49,129.27,50.4,133,51.67,136.7c1.5,4.42,2.83,8.9,4.23,13.36H50.61c-.73-.29-1.82-.36-2.14-.89C44.15,142.05,45.44,134.13,45.31,126.41Z"/>
        <path class="cls-96"
              d="M106.21,81.75V73.86c.17-1.54.21-3.26,2.46-1.5,1.81,1.4,3.65,2.76,5.48,4.13l5.29,2.63,2.65,2.63v2.62c.4,2-1.31,5,2.65,5.26v2.63c-4,.22-2.25,3.26-2.65,5.25h-7.94c-2.11-.32-5,1.22-5.41-2.84-.18-1.75-1.65-3.36-2.53-5V84.37l2.19-.86Z"/>
        <path class="cls-97"
              d="M34.72,66H55.9c-1,.88-2,2.33-3.13,2.51a47.54,47.54,0,0,1-7.46.12,47.54,47.54,0,0,1-7.46-.12C36.7,68.31,35.76,66.86,34.72,66Z"/>
        <path class="cls-98" d="M87.67,76.49H85c-2.32-.21-5.84,1.12-5.23-3.26.45-3.21,3.35-1.63,5.23-2l2.64,2.62Z"/>
        <path class="cls-96" d="M98.26,73.86H93c4.12-5.62,4.55-5.62,10.59,0Z"/>
        <path class="cls-99" d="M65.71,68.18l3.39,1.7c-1.47,1.18-2.81,2.92-4.45,3.28-.84.18-2.23-2.13-3.37-3.32Z"/>
        <path class="cls-100" d="M98.26,73.86h7.95v2.63C103.6,75.49,99.51,78.93,98.26,73.86Z"/>
        <path class="cls-101" d="M87.67,73.86,85,71.24c2,.39,5.06-1.31,5.29,2.62Z"/>
        <path class="cls-102" d="M87.67,73.86H93c-.23,3.94-3.29,2.24-5.3,2.63Z"/>
        <path class="cls-102" d="M82.38,79.12l-2.65,2.63Z"/>
        <path class="cls-96" d="M103.56,66h2.65l-1.78,2.18Z"/>
        <path class="cls-103"
              d="M124.74,92.26V89.63h2.65a46.72,46.72,0,0,1,0,5.16c-.53,4.64,0,5.76,4.88,3,3.19-1.83,7-.37,5.74,5v2.62c-2.9.07-6.61-.77-4.85,4.4.78,2.27,1.93,4.54,2.11,6.87.53,6.78.37,6.79-7.85,7.13-4,.22-2.25,3.26-2.65,5.25h-2.65c2.14-5.93-3.36-8.83-5.29-13.14.27-1.58,0-3.56.91-4.68,2.87-3.68,2.36-6.68-.83-9.76a23.66,23.66,0,0,1-2.73-3.95h7.94C126.05,97.29,124.34,94.25,124.74,92.26Z"/>
        <path class="cls-104" d="M119.44,79.12c.49-5.26.49-5.26,8-5.26v5.26c-.23,3.93-3.29,2.23-5.3,2.63Z"/>
        <path class="cls-105"
              d="M138.05,91.74a53.37,53.37,0,0,1-7.18-.15c-.39-.06-1.09-2.73-.6-3.28,1.18-1.34,3-2.13,4.54-3.14C135.77,87.13,136.74,89.1,138.05,91.74Z"/>
        <path class="cls-106"
              d="M143.27,87,138,89.63c0-.87-.06-1.73,0-2.59.2-2.3-1.17-5.81,3.26-5.22C144.51,82.25,142.9,85.14,143.27,87Z"/>
        <path class="cls-107" d="M127.39,89.63h-2.65c-4-.23-2.25-3.26-2.65-5.26Q128.6,83.19,127.39,89.63Z"/>
        <path class="cls-108" d="M127.39,79.12V73.86H130C129.64,75.86,131.35,78.9,127.39,79.12Z"/>
        <path class="cls-109"
              d="M127.39,123.79c8.22-.34,8.38-.35,7.85-7.13-.18-2.33-1.33-4.6-2.11-6.87-1.76-5.17,2-4.33,4.85-4.4,0,1.29,0,2.59,0,3.88.11,9.4.12,9.38,9.66,12.38.49.15.63,1.4.93,2.14a20.93,20.93,0,0,0-4.81.95c-1.11.48-2.84,2.06-2.65,2.61,2.43,7.23-6.06,10.83-5.66,17.1.2,3.12.73,7.12,2.74,9,3.24,3.09,0,4.79-.21,7.08h-5.3c-.55-2.76,5.73-4,1.63-7.61-3.36-2.9-6.1-5.53-1.87-10.37,1.51-1.73.54-5.9.16-8.89-.42-3.28-3.33-1.66-5.21-2C129.66,127.73,129.66,127.73,127.39,123.79Z"/>
        <path class="cls-110"
              d="M127.39,221c2.13-5.66,2.81-11.56,3.21-17.54,0-.33,1.36-.57,2.08-.85,0,2.86,4.81,4.53.95,8.81-2.84,3.13-1.19,9.49-6.24,12.21Z"/>
        <path class="cls-111" d="M135.33,192.1H111.5l2.65-2.63h21.18Z"/>
        <path class="cls-112"
              d="M151.22,206.64c0,2.59.06,3.88-.05,5.16,0,.33-.67.92-.85.86-.63-.21-1.59-.58-1.67-1a13.07,13.07,0,0,1-.05-3.85c.18-1.6.58-3.19.89-4.78Z"/>
        <path class="cls-85" d="M130,200c-.89-.87-1.77-1.75-2.65-2.63C128.27,198.23,129.15,199.11,130,200Z"/>
        <path class="cls-113"
              d="M40,173.71c1-2.59-2.46-6.65,2.64-7.89,7.9,0,15.8.07,23.7,0,2.29,0,5.89,1.26,5.35-3.18-.39-3.3-3.34-1.71-5.24-2a17.73,17.73,0,0,0-2.63,0c-.22-3.93-3.28-2.23-5.29-2.63l-2.65-2.62,2.65-2.63H61.2l2.64,2.63h2.65c.23,3.93,3.29,2.23,5.3,2.62H93l2.65-2.62h2.64c2-.4,5.07,1.3,5.3-2.63h2.65v5.25c-2.49.28-5.11.19-7.43,1-1.94.64-3.53,2.3-5.28,3.51,2.07.26,4.12.63,6.19.76s4.34,0,6.52,0c1.05.87,2,2.39,3.17,2.5a99.23,99.23,0,0,0,10.06.12h8c.88.88,1.76,1.76,2.65,2.63a46.76,46.76,0,0,1-.12,7.4c-.19,1.15-1.65,2.08-2.53,3.11H58.55v-2.63c20.07,0,40.14.06,60.21-.08,2.1,0,5.54,1.81,6-2.54v-2.63c-.7-.88-1.39-2.51-2.09-2.52q-37.62-.19-75.25,0c-.7,0-1.39,1.64-2.09,2.52v5.25Z"/>
        <path class="cls-114"
              d="M127.39,131.67c1.88.37,4.79-1.25,5.21,2,.38,3,1.35,7.16-.16,8.89-4.23,4.84-1.49,7.47,1.87,10.37,4.1,3.56-2.18,4.85-1.63,7.61h-5.29c-.16-3.22-2.5-3.25-4.28-2.11-1.59,1-2.47,3.11-3.67,4.74H106.21v-5.26c3,0,5.91-.14,8.85,0,4.89.29,4.73-1.14,1.83-4.24-.63-.67-.09-2.42-.09-3.68v-2.63l2.64-2.62c0-5.4,4.51-10.06,2.65-15.77h2.65Zm0,15.87a17.08,17.08,0,0,0-.07-3.92A17.77,17.77,0,0,0,125.6,140c-.78,1.55-2.64,3.76-2.16,4.53,2.32,3.66,2.36,5.59-2.67,5.6-.26,0-.86,1.61-.73,1.71,1.65,1.23,3.41,2.33,5.14,3.47a19.55,19.55,0,0,0,2.13-3.86A14.21,14.21,0,0,0,127.39,147.54Z"/>
        <path class="cls-115" d="M93,179h34.42c-.23,3.93-3.29,2.23-5.3,2.63H93Z"/>
        <path class="cls-116" d="M114.15,181.59h7.94v5.25h-7.94Z"/>
        <path class="cls-109" d="M119.44,163.2c1.2-1.63,2.08-3.73,3.67-4.74,1.78-1.14,4.12-1.11,4.28,2.11l-2.65,2.63Z"/>
        <path class="cls-115" d="M119.44,163.2h5.3l2.65,2.62h-8Z"/>
        <path class="cls-53" d="M135.85,168.19l-2.07,2.67a12.83,12.83,0,0,1-1-3.23c0-.58.86-1.2,1.33-1.81Z"/>
        <path class="cls-115" d="M130,168.45c-.89-.87-1.77-1.75-2.65-2.63C128.27,166.7,129.15,167.58,130,168.45Z"/>
        <ellipse class="cls-117" cx="116.8" cy="188.16" rx="3.74" ry="1.86"/>
        <path class="cls-118"
              d="M32.07,115.9c1.27,2.14-4.35,2.56-1,6,3,3.06,4.26,4.47,5.41,1.17,1.35-3.84,3.22-5.83,7-4.44s1.13,5.17,1.87,7.77c-4.19.34-1.68,3.87-2.76,5.56-1.28,2-3.51,3.33-5.12,5.14-.42.47-.06,1.61-.06,2.44H34.72c-.9-1.33-1.55-3.49-2.73-3.83-4.3-1.25-5.69-3.06-2.56-6.82-2.73-3-2.86-6.64-2.65-10.37C27,114.6,30.07,116.3,32.07,115.9Z"/>
        <path class="cls-119"
              d="M29.43,150.06c-2.63-.67-6.59,1.92-7.78-1.75-1.63-5,4.34-4.21,6.41-5.49,4.27-2.62,3.93,1.84,4,4.61Z"/>
        <path class="cls-27" d="M24.58,128.22l-1.77,3.45a20.29,20.29,0,0,1-1.23-4.59c0-1.08.78-2.19,1.23-3.29Z"/>
        <path class="cls-120"
              d="M37.37,139.55c0-.83-.36-2,.06-2.44C39,135.3,41.27,134,42.55,132c1.08-1.69-1.43-5.22,2.76-5.56.13,7.72-1.16,15.64,3.16,22.76.32.53,1.41.6,2.14.89l5.29,5.26v2.62H42.66c-1.46-1-3-1.93-4.37-3.06-2.18-1.81-4.36-3.13-1.18-6.61C38.61,146.63,37.37,142.53,37.37,139.55Z"/>
        <path class="cls-115" d="M58.55,179H90.32v2.63H42.66V179Z"/>
        <path class="cls-121"
              d="M63.84,160.57a17.73,17.73,0,0,1,2.63,0c1.9.31,4.85-1.28,5.24,2,.54,4.44-3.06,3.15-5.35,3.18-7.9.1-15.8,0-23.7,0V163.2c6,0,12,.13,17.93-.12C61.71,163,62.76,161.45,63.84,160.57Z"/>
        <path class="cls-122"
              d="M63.84,160.57c-1.08.88-2.13,2.46-3.25,2.51-6,.25-12,.12-17.93.12v-5.26H58.55C58.78,161.87,61.84,160.17,63.84,160.57Z"/>
        <path class="cls-123" d="M58.55,179H42.66c-4-.22-2.25-3.26-2.64-5.25l5.29,2.62H58.55Z"/>
        <path class="cls-59" d="M29.43,150.06l2.64-2.63Z"/>
        <path class="cls-60"
              d="M69.14,184.22H79.73v2.62H77.08c-4,.23-2.25,3.27-2.64,5.26A47.52,47.52,0,0,1,67,192c-1.15-.18-2.1-1.63-3.14-2.51v-2.63h2.65Z"/>
        <path class="cls-124" d="M93,189.47c-3.13,2.49-6.76,2.95-10.59,2.63-.88-1.75-1.77-3.5-2.65-5.26H90.32Z"/>
        <path class="cls-60" d="M93,189.47l-2.65-2.63v-2.62h5.3v7.88H93Z"/>
        <path class="cls-80" d="M79.73,186.84c.88,1.76,1.77,3.51,2.65,5.26q-6.5,1.2-5.3-5.26Z"/>
        <path class="cls-61" d="M63.84,186.84v2.63H61.2l-2.65-2.63v-2.62h5.29Z"/>
        <path class="cls-125"
              d="M42.66,37.08V45L40,47l2.64,3.27q-1.2,6.45,5.3,5.25V58.1c-.65,3.6-2.6,3.2-5,1.63C42,59.12,41,58.64,40,58.1l-2.65-2.63V39.71L40,37.08l2.64-2.63Z"/>
        <path class="cls-87" d="M37.37,45v7.88c-5.1-1.23-1.64-5.29-2.65-7.88Z"/>
        <ellipse class="cls-126" cx="49.28" cy="56.79" rx="1.87" ry="1.86"/>
        <path class="cls-87" d="M37.37,55.47,40,58.1Z"/>
        <path class="cls-127"
              d="M42.66,92.26v2.62c-5.43,0-10.13,4.48-15.88,2.63,0-.43,0-.86,0-1.29.21-10.8,1.34-11.53,11.42-7A29.19,29.19,0,0,1,42.66,92.26Z"/>
        <path class="cls-87" d="M40,37.08l-2.65,2.63Z"/>
        <ellipse class="cls-80" cx="85.03" cy="185.53" rx="7.49" ry="1.86"/>
        <ellipse class="cls-63" cx="65.17" cy="185.53" rx="1.87" ry="1.86"/>
        <path class="cls-61" d="M66.49,186.84v-2.62h2.65Z"/>
        <ellipse class="cls-123" cx="91.64" cy="180.28" rx="1.87" ry="1.86"/>
        <path class="cls-128"
              d="M119.44,202.61h5.3c5.56,2.12,1.57,6.4,2.21,9.63l-4.86.88C119.58,210,119.13,206.41,119.44,202.61Z"/>
        <path class="cls-85" d="M124.74,202.61h-2.65V200Z"/>
        <path class="cls-129" d="M127.39,221v2.63L124.74,221Z"/>
        <path class="cls-130" d="M48,55.47q-6.49,1.2-5.3-5.25V45c2,.4,5.07-1.3,5.3,2.63Z"/>
        <ellipse class="cls-36" cx="49.28" cy="51.53" rx="1.87" ry="5.57"/>
        <path class="cls-126" d="M42.66,37.08V34.45l2.65,2.63Z"/>
        <path class="cls-100"
              d="M116.8,147.43v2.63l-5.3,2.63-2.65,2.63h-2.64v-5.26l2.64-2.63,2.65-2.62,2.65-2.63v-2.63c3.81-4.28,3.81-8.85,0-13.14-3.29-6.94-9.3-10.64-16.41-12.16-5-1.06-10.23-.7-15.36-1q-6.5-1.2-5.3,5.25l-5.29-2.63v-5.25l5.29-5.26v-2.62l8-7.89,5.29-5.25H93L95.62,87l2.64-2.63h2.65c.23,3.93,3.29,2.24,5.3,2.63v2.63c-5.53.45-10.28,2.22-13.26,7.31s-1.54,8,4.25,8.42c3,.2,6,0,9,0L116.8,115.9c1.93,4.31,7.43,7.21,5.29,13.14,1.86,5.71-2.62,10.37-2.65,15.77Z"/>
        <path class="cls-131"
              d="M61.2,152.69H58.55l-2.65-2.63c-1.4-4.46-2.73-8.94-4.23-13.36C50.4,133,49,129.27,53.25,126.41l.86,4.79a24.06,24.06,0,0,0,1.76-3.47c1.83-5.68,3.56-11.39,5.33-17.08l7.94-7.88v-2.63l2.65-2.63h5.29l-2.64,5.26q-2.66,3.93-5.3,7.88c-3.08,7.83-5.7,15.78-5.18,24.34,0,.69,1.65,1.29,2.53,1.93a15.59,15.59,0,0,0,0,2.56,12.67,12.67,0,0,0,.82,2.22l1.8-2.15c.74.29,2,.45,2.13.91,2.14,7.81,7.49,10.47,15.18,9.62a35.66,35.66,0,0,1,3.87,0v2.63H66.49l-2-2.63Z"/>
        <path class="cls-132"
              d="M100.91,84.37H98.26L95.62,87H93l-2.65,2.63L85,94.88V92.26l-2.65-2.63V87L85,84.37h5.29L93,81.75h7.94Z"/>
        <path class="cls-133"
              d="M61.2,110.65c-1.77,5.69-3.5,11.4-5.33,17.08a24.06,24.06,0,0,1-1.76,3.47l-.86-4.79c-.45-7.45,3.16-13.17,8-18.39Z"/>
        <path class="cls-134" d="M82.38,89.63,85,92.26l-2.65,2.62-5.3,2.63H74.44V94.88l2.64-2.62,2.65-2.63Z"/>
        <path class="cls-135" d="M61.2,110.65V108l5.29-5.25h2.65Z"/>
        <path class="cls-121" d="M55.9,150.06l2.65,2.63-2.65,2.63-5.29-5.26Z"/>
        <path class="cls-136" d="M69.14,102.77H66.49c.4-2-1.31-5,2.65-5.26v5.26Z"/>
        <ellipse class="cls-137" cx="98.26" cy="80.43" rx="3.74" ry="1.86"/>
        <path class="cls-102" d="M100.91,81.75V79.12l2.65,3.27-2.65,2Z"/>
        <path class="cls-138" d="M74.44,94.88v2.63H71.79Z"/>
        <path class="cls-102" d="M95.62,79.12v2.63H93Z"/>
        <path class="cls-102" d="M90.32,84.37H87.67l2.65-2.62Z"/>
        <path class="cls-137" d="M90.32,84.37V81.75H93Z"/>
        <path class="cls-100" d="M106.21,81.75l2.19,1.76-2.19.86Z"/>
        <path class="cls-102" d="M85,84.37,82.38,87Z"/>
        <path class="cls-102" d="M82.38,89.63H79.73L82.38,87Z"/>
        <path class="cls-139" d="M69.14,100.14V97.51h2.65Z"/>
        <path class="cls-140" d="M77.08,92.26l-2.64,2.62Z"/>
        <path class="cls-141"
              d="M106.45,102.28c-3.25,3.11-6.26,3.28-9.25,3.08C91.41,105,90,102,93,96.94s7.73-6.86,13.26-7.31c.88,1.68,2.35,3.29,2.53,5,.41,4.06,3.3,2.52,5.41,2.84a23.66,23.66,0,0,0,2.73,3.95c3.19,3.08,3.7,6.08.83,9.76-.87,1.12-.64,3.1-.91,4.68-3.53-3.5-7.06-7-10.35-13.62-.73-1.83-2-.93-2,0,0,1.06,1.09,2.1,1.71,3.15l5-3.68C110,101,108.72,100.3,106.45,102.28Z"/>
        <path class="cls-107" d="M124.74,92.26c-.4,2,1.31,5-2.65,5.25C122.49,95.52,120.78,92.48,124.74,92.26Z"/>
        <path class="cls-40" d="M119.44,79.12l2.65,2.63Z"/>
        <path class="cls-142"
              d="M127.39,131.67,124.74,129c.4-2-1.31-5,2.65-5.25C129.66,127.73,129.66,127.73,127.39,131.67Z"/>
        <path class="cls-143" d="M45.31,171.08c.7-.88,1.39-2.51,2.09-2.52q37.62-.19,75.25,0c.7,0,1.39,1.64,2.09,2.52Z"/>
        <ellipse class="cls-144" cx="85.03" cy="172.39" rx="56.16" ry="1.86"/>
        <path class="cls-115" d="M45.31,173.71h79.43c-.44,4.35-3.88,2.53-6,2.54-20.07.14-40.14.08-60.21.08H45.31Z"/>
        <path class="cls-145"
              d="M90.32,152.69v-2.63H93l2.65-2.63,2.64-2.62v2.62l.88,2.18,1.77-2.18,10.59-10.51,2.65,2.63v2.63l-2.65,2.63-2.65,2.62-2.64,2.63-2.65,2.63c-2,.39-5.07-1.31-5.3,2.63H95.62C95.39,151.38,92.33,153.08,90.32,152.69Z"/>
        <path class="cls-146" d="M71.79,152.69H87.67c.23,3.93,3.29,2.23,5.3,2.63v2.62H71.79v-5.25Z"/>
        <path class="cls-147"
              d="M106.21,155.32h2.64l2.65-2.63,5.3-2.63c0,1.26-.54,3,.09,3.68,2.9,3.1,3.06,4.53-1.83,4.24-2.94-.18-5.9,0-8.85,0Z"/>
        <path class="cls-148"
              d="M106.21,157.94v5.26c-2.18,0-4.35.1-6.52,0s-4.12-.5-6.19-.76c1.75-1.21,3.34-2.87,5.28-3.51C101.1,158.13,103.72,158.22,106.21,157.94Z"/>
        <path class="cls-148" d="M119.44,163.2v2.62a99.23,99.23,0,0,1-10.06-.12c-1.13-.11-2.12-1.63-3.17-2.5Z"/>
        <path class="cls-149" d="M61.2,152.69l3.29-2.63,2,2.63v2.63H63.84Z"/>
        <path class="cls-121" d="M63.84,160.57c-2-.4-5.06,1.3-5.29-2.63C60.56,158.34,63.62,156.64,63.84,160.57Z"/>
        <path class="cls-148" d="M98.26,155.32c.23-3.94,3.29-2.24,5.3-2.63C103.33,156.62,100.27,154.92,98.26,155.32Z"/>
        <path class="cls-121" d="M71.79,155.32v2.62c-2-.39-5.07,1.31-5.3-2.62Z"/>
        <path class="cls-148" d="M93,157.94v-2.62h2.65Z"/>
        <path class="cls-121" d="M58.55,157.94H55.9v-2.62Z"/>
        <path class="cls-121" d="M61.2,152.69l2.64,2.63Z"/>
        <path class="cls-148" d="M103.56,152.69l2.65-2.63v2.63Z"/>
        <path class="cls-150"
              d="M127.39,147.54a14.21,14.21,0,0,1-.08,3.92,19.55,19.55,0,0,1-2.13,3.86c-1.73-1.14-3.49-2.24-5.14-3.47-.13-.1.47-1.71.73-1.71,5,0,5-1.94,2.67-5.6-.48-.77,1.38-3,2.16-4.53a17.77,17.77,0,0,1,1.72,3.61A17.08,17.08,0,0,1,127.39,147.54Z"/>
        <path class="cls-148" d="M116.8,147.43l2.64-2.62Z"/>
        <path class="cls-87" d="M42.66,45v5.26L40,47Z"/>
        <path class="cls-151"
              d="M111.5,136.92l-10.59,10.51c-1-2.58,2.46-6.65-2.65-7.88-.54-4.86,2.25-11.05-5.29-13.14a9.31,9.31,0,0,1,.77-3.83c.26-.8-.26-.38-.77,0l1.18,1.18a11.81,11.81,0,0,0,1.17-1.59c.06-.09-.5-.52-1.58.38-2.54.33-4.3-.55-6.07-1.42L85,118.53l2.1-.77c-.59-.62-1.16-1.27-1.78-1.85-1-.9-2-1.76-3-2.63,5.13.27,10.4-.09,15.36,1,7.11,1.52,13.12,5.22,16.41,12.16-.88,1-2.34,2-2.53,3.11A46.78,46.78,0,0,0,111.5,136.92Z"/>
        <path class="cls-152"
              d="M85,118.53l2.64,2.63c-1.21,1.64-2.6,4.8-3.6,4.68-8.72-1.06-6.71,5-7,9.67s.55,8,5.86,9.47c2.73.77,5,3.33,7.41,5.08a35.66,35.66,0,0,0-3.87,0c-7.69.85-13-1.81-15.18-9.62-.12-.46-1.39-.62-2.13-.91V129c.07-4.54-.83-9.27,2.65-13.14l5.29,2.63Z"/>
        <path class="cls-77"
              d="M71.79,115.9c-3.48,3.87-2.58,8.6-2.65,13.14l-2.2.87,2.2,1.76v2.63l-2.65,2.62c-.88-.64-2.49-1.24-2.53-1.93-.52-8.56,2.1-16.51,5.18-24.34h2.65Z"/>
        <path class="cls-153" d="M77.08,97.51l5.3-2.63H85l-8,7.89H74.44Z"/>
        <path class="cls-154" d="M85,118.53h-8q-1.2-6.45,5.3-5.25c1,.87,2,1.73,3,2.63.62.58,1.19,1.23,1.78,1.85Z"/>
        <path class="cls-148" d="M114.15,126.41c3.81,4.29,3.81,8.86,0,13.14Z"/>
        <path class="cls-125" d="M71.79,110.65H69.14q2.64-3.95,5.3-7.88l2.64,2.62Z"/>
        <path class="cls-148" d="M111.5,152.69l-2.65,2.63Z"/>
        <path class="cls-137" d="M95.62,87l2.64-2.63Z"/>
        <path class="cls-155" d="M90.32,89.63,93,87v2.63Z"/>
        <path class="cls-156" d="M77.08,105.39l-2.64-2.62h2.64Z"/>
        <path class="cls-148" d="M106.21,150.06l2.64-2.63Z"/>
        <path class="cls-148" d="M108.85,147.43l2.65-2.62Z"/>
        <path class="cls-148" d="M111.5,144.81l2.65-2.63Z"/>
        <path class="cls-137" d="M93,89.63V87h2.65Z"/>
        <path class="cls-157"
              d="M66.49,136.92l2.65-2.62v5.25l-1.8,2.15a12.67,12.67,0,0,1-.82-2.22A15.59,15.59,0,0,1,66.49,136.92Z"/>
        <path class="cls-158"
              d="M95.62,155.32H93c-2-.4-5.07,1.3-5.3-2.63h2.65C92.33,153.08,95.39,151.38,95.62,155.32Z"/>
        <ellipse class="cls-159" cx="69.14" cy="154" rx="3.74" ry="1.86"/>
        <path class="cls-160" d="M85,94.88H82.38L85,92.26Z"/>
        <path class="cls-100"
              d="M106.7,99.18l4.55,2.53-5,3.68c-.62-1-1.7-2.09-1.71-3.15C104.49,101.35,105.72,100.45,106.7,99.18Z"/>
        <path class="cls-161"
              d="M90.32,150.06c-2.45-1.75-4.68-4.31-7.41-5.08-5.31-1.5-6.16-4.86-5.86-9.47s-1.7-10.73,7-9.67c1,.12,2.39-3,3.6-4.68l5.3,2.63v2.62c-4.25.37-3.24,4.5-2.45,5.57,3.59,4.89,2.1,10.26,2.45,15.45v2.63Z"/>
        <path class="cls-162"
              d="M93,147.43c-.35-5.19,1.14-10.56-2.45-15.45-.79-1.07-1.8-5.2,2.45-5.57,7.54,2.09,4.75,8.28,5.29,13.14v5.26l-2.64,2.62Z"/>
        <path class="cls-163"
              d="M114.15,126.41v13.14l-2.65-2.63a46.78,46.78,0,0,1,.12-7.4C111.81,128.38,113.27,127.44,114.15,126.41Z"/>
        <path class="cls-164" d="M98.26,144.81v-5.26c5.11,1.23,1.64,5.3,2.65,7.88H98.26Z"/>
        <path class="cls-165" d="M98.26,147.43h2.65l-1.77,2.18Z"/>
        <path class="cls-164" d="M93,147.43h2.65L93,150.06Z"/>
        <path class="cls-166" d="M94.51,121.37c.31.31.87.74.81.83a11.81,11.81,0,0,1-1.17,1.59L93,122.61Z"/>
        <path class="cls-131" d="M69.14,131.67l-2.2-1.76,2.2-.87Z"/>
    </g>
</svg>