<svg id="Calque_1" data-name="Calque 1" xmlns="http://www.w3.org/2000/svg" viewBox="0 0 167.24 257.95">
    <defs>
        <style>
            .cls-1{fill:#fefefe;}.cls-2{fill:#19272a;}.cls-3{fill:#18272a;}.cls-4{fill:#20282a;}.cls-5{fill:#0f0f0f;}.cls-6{fill:#1a1b1a;}.cls-7{fill:#c5c499;}.cls-8{fill:#232222;}.cls-9{fill:#fbfddf;}.cls-10{fill:#f6f5f2;}.cls-11{fill:#cccec1;}.cls-12{fill:#fdfaef;}.cls-13{fill:#e3e2d2;}.cls-14{fill:#fded00;}.cls-15{fill:#f9f9f7;}.cls-16{fill:#f9ee10;}.cls-17{fill:#fcec11;}.cls-18{fill:#faec05;}.cls-19{fill:#feee19;}.cls-20{fill:#f1f2a4;}.cls-21{fill:#fded01;}.cls-22{fill:#fdec06;}.cls-23{fill:#f8f074;}.cls-24{fill:#fcef5a;}.cls-25{fill:#f5f868;}.cls-26{fill:#f9f282;}.cls-27{fill:#f8f16c;}.cls-28{fill:#fbee5f;}.cls-29{fill:#f8f04f;}.cls-30{fill:#fcef53;}.cls-31{fill:#f9fae4;}.cls-32{fill:#fdf024;}.cls-33{fill:#f8f13c;}.cls-34{fill:#fbec5c;}.cls-35{fill:#fdec4c;}.cls-36{fill:#fcef2c;}.cls-37{fill:#fcef65;}.cls-38{fill:#fced17;}.cls-39{fill:#fdea19;}.cls-40{fill:#f7fae8;}.cls-41{fill:#111;}.cls-42{fill:#454544;}.cls-43{fill:#403f40;}.cls-44{fill:#242424;}.cls-45{fill:#f9f8f6;}.cls-46{fill:#fbf063;}.cls-47{fill:#f7ed3d;}.cls-48{fill:#fdeb02;}.cls-49{fill:#eae8be;}.cls-50{fill:#fafaf8;}.cls-51{fill:#f7f8e5;}.cls-52{fill:#faee52;}.cls-53{fill:#fbeb1b;}.cls-54{fill:#faf16a;}.cls-55{fill:#fcef70;}.cls-56{fill:#fbef5e;}.cls-57{fill:#faef28;}.cls-58{fill:#f4ed26;}.cls-59{fill:#fdf338;}.cls-60{fill:#fee919;}.cls-61{fill:#feee39;}.cls-62{fill:#fbee4d;}.cls-63{fill:#fced62;}.cls-64{fill:#fdee02;}.cls-65{fill:#fcf49d;}.cls-66{fill:#f7f5ea;}.cls-67{fill:#fbf495;}.cls-68{fill:#f8ef48;}.cls-69{fill:#f9ed47;}.cls-70{fill:#fbf287;}.cls-71{fill:#f4f0da;}.cls-72{fill:#fef486;}.cls-73{fill:#fbf28a;}.cls-74{fill:#f7f14a;}.cls-75{fill:#f1ec00;}.cls-76{fill:#fee775;}.cls-77{fill:#18171f;}.cls-78{fill:#080808;}.cls-79{fill:#fcf16b;}.cls-80{fill:#31302f;}.cls-81{fill:#2e2e2e;}.cls-82{fill:#040404;}.cls-83{fill:#414141;}.cls-84{fill:#fbf25e;}.cls-85{fill:#fdeb00;}.cls-86{fill:#fef072;}.cls-87{fill:#0b0b0b;}.cls-88{fill:#f9f388;}.cls-89{fill:#f9ef57;}.cls-90{fill:#f7f358;}.cls-91{fill:#faf052;}.cls-92{fill:#fcf9b5;}.cls-93{fill:#fdfce6;}.cls-94{fill:#322e32;}.cls-95{fill:#fbf8af;}.cls-96{fill:#403c41;}.cls-97{fill:#f9f013;}.cls-98{fill:#faf191;}.cls-99{fill:#f0eeda;}.cls-100{fill:#faf379;}.cls-101{fill:#f7f5ed;}.cls-102{fill:#444044;}.cls-103{fill:#fcf6d3;}.cls-104{fill:#f9fada;}.cls-105{fill:#f8f7cc;}.cls-106{fill:#383a3b;}.cls-107{fill:#39383a;}.cls-108{fill:#201c1e;}.cls-109{fill:#0f0a12;}.cls-110{fill:#2e2d2d;}.cls-111{fill:#29232b;}.cls-112{fill:#373737;}.cls-113{fill:#383838;}.cls-114{fill:#040506;}.cls-115{fill:#222;}.cls-116{fill:#464756;}.cls-117{fill:#0c0c0d;}.cls-118{fill:#160f1c;}.cls-119{fill:#2d2e2e;}.cls-120{fill:#0b0a0c;}.cls-121{fill:#fdf9c6;}.cls-122{fill:#151515;}.cls-123{fill:#212220;}.cls-124{fill:#0c0c0c;}.cls-125{fill:#0d0a0f;}.cls-126{fill:#1a191c;}.cls-127{fill:#171717;}.cls-128{fill:#020202;}.cls-129{fill:#393939;}
        </style>
    </defs>
    <g id="_6Yz1Bd.tif" data-name="6Yz1Bd.tif">
        <path class="cls-1"
              d="M5.86,256.66a23.52,23.52,0,0,1-3.85,0c-1.58-.27-4.72,1.58-3.86-2.54a6.83,6.83,0,0,0,0-1.28q0-124.91-.1-249.8c0-3.35.61-4,4-4q78.9.21,157.81,0c4.45,0,6.06.8,5.18,5.3A27.52,27.52,0,0,0,165,9.44h-2.56c-1-2.54,2.37-6.52-2.57-7.73H8.42c-4,1-5.54,3.73-5.13,7.73-5,.9-2.44,4.83-2.44,7.18Q.63,129.18.74,241.75A38.55,38.55,0,0,0,1.2,248c.06.41,1.36.62,2.09.93.39,1.95-1.27,4.93,2.57,5.15Z"/>
        <ellipse class="cls-2" cx="163.67" cy="129.19" rx="1.81" ry="169.35"/>
        <path d="M5.86,256.66v-2.57h154v2.57Z"/>
        <path class="cls-1"
              d="M159.82,256.66v-2.57c3.84-.22,2.18-3.2,2.57-5.15H165a12.23,12.23,0,0,0,0,2.57C166,256,164.27,257.69,159.82,256.66Z"/>
        <path class="cls-3"
              d="M3.29,248.94c-.73-.31-2-.52-2.09-.93a38.55,38.55,0,0,1-.46-6.26q0-112.56.11-225.13c0-2.35-2.56-6.28,2.44-7.18H5.86v239.5Z"/>
        <path class="cls-4"
              d="M162.39,9.44v239.5h-2.57V39.67c0-9.84.08-19.67-.11-29.5,0-1.12-1.6-2.21-2.46-3.31V4.28c.86-.85,1.71-1.71,2.57-2.57C164.76,2.92,161.41,6.9,162.39,9.44Z"/>
        <path d="M159.82,1.71c-.86.86-1.71,1.72-2.57,2.57H8.42V1.71Z"/>
        <path class="cls-5" d="M8.42,1.71V6.86L5.86,9.44H3.29C2.88,5.44,4.37,2.72,8.42,1.71Z"/>
        <path class="cls-6" d="M3.29,248.94H5.86l2.56,2.57v2.58H5.86C2,253.87,3.68,250.89,3.29,248.94Z"/>
        <path class="cls-7"
              d="M8.42,254.09v-2.58c1.95-.39,4.91,1.28,5.13-2.57,17.31,0,34.61-.06,51.91.05,3.21,0,6.45,1.29,9.61,1.07,7.74-.53,15.45-1.58,23.16-2.48a9.3,9.3,0,0,0,0-1.22h5.14c0,3.45,2.63,2.53,4.48,2.54,11.75.07,23.52.29,35.25-.12,3.6-.12,6.16,1.38,9,2.73h5.13v2.58Z"/>
        <path class="cls-8" d="M157.25,254.09v-2.58l2.57-2.57h2.57c-.39,1.95,1.27,4.93-2.57,5.15Z"/>
        <path class="cls-9"
              d="M13.55,248.94c-.22,3.85-3.18,2.18-5.13,2.57l-2.56-2.57V9.44H11V176.83c0,22.09-.05,44.19.08,66.28C11.08,245.16,9.3,248.5,13.55,248.94Z"/>
        <path class="cls-10"
              d="M11,9.44H8.42V6.86H157.25c.86,1.1,2.43,2.19,2.46,3.31.19,9.83.11,19.66.11,29.5V194.86c-3.84-.22-2.18-3.2-2.57-5.15-1-2.54,2.38-6.52-2.56-7.73V22.31c3.47-3.26,3.47-7,0-10.3l-2.57-2.57H11Z"/>
        <ellipse class="cls-11" cx="82.84" cy="5.57" rx="105.24" ry="1.82"/>
        <path class="cls-12"
              d="M157.25,189.71c.39,1.95-1.27,4.93,2.57,5.15v20.6l-2.57,1.95c.86,1.06,1.71,2.13,2.57,3.2v28.33l-2.57,2.57h-5.13c.86-2.63,2.36-5.24,2.45-7.9.3-9.37.12-18.77.12-28.15V189.71Z"/>
        <path class="cls-10" d="M159.82,220.61c-.86-1.07-1.71-2.14-2.57-3.2l2.57-1.95Z"/>
        <path class="cls-13" d="M8.42,6.86V9.44H5.86Z"/>
        <path class="cls-14"
              d="M13.55,248.94c-4.25-.44-2.47-3.78-2.48-5.83C10.94,221,11,198.92,11,176.83c.85-1.1,2.43-2.19,2.45-3.31.19-10.24.07-20.49.15-30.74,0-1.85-1-4.55,2.53-4.58v7.73c0,2.85-.06,5.7,0,8.55.11,4.24.42,4.33,5.12,1.75h2.57L29,158.8v7.73c.39,1.95-1.27,4.93,2.57,5.15l5.13,7.72c-.86,2.16-2.06,4.26-2.42,6.5C34,187,35.38,188.43,36,189.71c1.07-.86,2.58-1.51,3.1-2.62a67.09,67.09,0,0,0,2.66-7.69H52V182c0,7.25,0,7.25-5.73,7.86-.11-.47.51-.88.56-1.34.19-2,.22-4.15-2.76-3.91a6.57,6.57,0,0,0-2,.93,23.42,23.42,0,0,0,4.2,4.32c-.25,1.95-2.41,4.78-1.73,6,2.29,4,4.28-.08,6.56-.85,1.82-.62,4-.12,6-.12,3.85,2.2,3.85,2.2,7.7,0,6.23.48,17.58,4.27,23.09,7.72-.65.86-1.32,2.47-2,2.46-4.3-.07-3,3-3.17,5.27-6.55,4.62-5,11.57-5.13,18l-2.13.85,2.13,1.73v2.58c.29,1.58.08,3.58,1,4.68,5,6.19,11.46,9.25,19.55,8.19a9.3,9.3,0,0,1,0,1.22c-7.71.9-15.42,1.95-23.16,2.48-3.16.22-6.4-1.05-9.61-1.07C48.16,248.88,30.86,248.94,13.55,248.94Zm3.93-76.73,3.37-1.41a7.68,7.68,0,0,0-2.23-1.61c-.59-.16-1.39.5-2.09.79Z"/>
        <path class="cls-15"
              d="M77.71,233.49v-5.16c1.54-2.21,4.92-14.1,5.13-18,.22-2.24-1.13-5.34,3.17-5.27.64,0,1.31-1.6,2-2.46l7.7-5.15h2.56l5.14-2.57c3.53.66,7.5-1.54,10.64,1.66l1.78,1.79c-.75.56-1.47,1.55-2.26,1.62-2.5.21-5.42-.71-7.44.29s-3.62,3.67-4.77,5.92c-.5,1,.54,2.75.89,4.17,1.24-.69,3.5-1.32,3.54-2.08.19-3,1.88-3.2,4.15-3.09,2.1.09,4.2,0,6.3,0v7.72c-3.84.22-2.18,3.2-2.57,5.15v2.58c-4.94,1.21-1.59,5.19-2.57,7.72.68.86,1.29,2.39,2,2.46,3,.29,6,0,8.93.18.6,0,1.17.88,1.75,1.34-.6.61-1.23,1.19-1.81,1.82-3.13,3.44-7.37,2.74-10.22.9-2.52-1.63-4.72-1.51-7.09-1.43-1.31,0-2.58,1.23-3.86,1.9.92,1.05,1.64,2.63,2.78,3,2.63.92,4.42,4.27,8.56,1,2.59-2.07,8.44-3.05,11.75,1.71-6.49-.05-13-.17-18,5.15h-7.7c-2.56-2.27-6.68-4.18-7.32-6.91-.93-3.93-3-3-5.31-3.47A68,68,0,0,1,77.71,233.49Z"/>
        <path class="cls-16"
              d="M103.37,246.36h2.56c6.49,0,13,.17,18-5.15,8.79.63,13.51-6.23,19.65-10.58,3.78-2.68,3.5-6.27,3.45-10,3.84-.22,2.18-3.2,2.57-5.15h5.13c0,9.38.18,18.78-.12,28.15-.09,2.66-1.59,5.27-2.45,7.9-2.86-1.35-5.42-2.85-9-2.73-11.73.41-23.5.19-35.25.12C106,248.89,103.38,249.81,103.37,246.36Z"/>
        <path class="cls-17"
              d="M11,122.75V109.87l2.13-.85L11,107.3V58.37l5.13,2.57,7.7,7.73c1.05.86,2.07,2.41,3.15,2.46,5.79.24,11.58.11,17.38.11V79c-1.6,0-3.2,0-4.79,0-2.85.11-3.43.82-1.27,3.23.5.56-1,2.94-1.64,4.48H26.38l-1.94-2.57-3.19,2.57a3.51,3.51,0,0,0-1.26,0c-.36.15-.93.74-.87.84,3.47,6.28,7.61,12.47,2.13,19.73l-2.56,2.57v15.45l-5.14-2.57Z"/>
        <path class="cls-18"
              d="M11,40.34V12h2.56c12.19,0,24.38,0,36.57,0,1.85,0,4.47-.91,4.49,2.55-7.53.73-14.85,2-20.53,7.72-5.63-.39-8,3.59-10.26,7.73l-5.13,5.15c-3.84.22-2.18,3.2-2.57,5.15Z"/>
        <path class="cls-19"
              d="M13.55,122.75l5.14,2.57c1.94.39,4.91-1.27,5.13,2.58l-2.57,2.57c-5-2.75-5-2.75-5.12,2.88,0,1.62,0,3.23,0,4.85-3.51,0-2.51,2.73-2.53,4.58-.08,10.25,0,20.5-.15,30.74,0,1.12-1.6,2.21-2.45,3.31V127.9C14.83,127.68,13.17,124.7,13.55,122.75Z"/>
        <path class="cls-20" d="M11,40.34h5.13v5.15l-2.57,2.57,2.57,12.88L11,58.37Z"/>
        <path class="cls-13" d="M13.55,122.75c-.38,2,1.28,4.93-2.56,5.15v-5.15Z"/>
        <path class="cls-13" d="M11,107.3,13.12,109l-2.13.85Z"/>
        <ellipse class="cls-13" cx="12.27" cy="10.72" rx="1.81" ry="1.82"/>
        <path class="cls-21"
              d="M154.69,22.31V84.12c-.86,1-2.27,1.93-2.45,3a46.08,46.08,0,0,0-.12,7.25C150.43,93.56,148.75,92,147,92c-4.1-.12-1.95,3.43-2.69,5.37-.33.89-1.84,2.24-2.1,2.09-1.13-.62-2.48-1.58-2.84-2.7-.48-1.49-.12-3.25-.12-4.9.62-1.71,1.06-4.82,1.87-4.92,5.73-.7,2.23-3,.61-4-2-1.11-4.88-.67-6.59-2s-2.18-4.09-3.67-5.83c-1.35-1.58-3.34-2.63-5-3.92-6.15-7.82-6.15-7.82-12.83-2.57-3.28-1.15-6.84-1.84-9.74-3.61-1.8-1.1-2.22-.37-3.71.09-3,.94-6.41.7-9.64.94L88,63.52c-1-4.07-3.72-5.57-7.7-5.15l-2.56-2.58A36.55,36.55,0,0,1,81.28,51c6.88-6.65,7.55-15.29,6.45-23.74-.86-6.63-6.37-10.44-12.59-12.65.44-4.27,3.77-2.49,5.81-2.5C104.67,12,128.4,12,152.12,12h2.57ZM103.87,55.06c-.6-1.76-1-2.87-1.34-4a12.58,12.58,0,0,0-1.64,3.44c-.15,1.07.47,2.26.75,3.4Zm14.37.83c-.94.59-2,1-2,1.27a19.14,19.14,0,0,0,.79,3.37c.57-.32,1.59-.62,1.61-1A20.12,20.12,0,0,0,118.24,55.89Zm20.14,2.85-1.65.91c.28.29.63.86.84.81a8.14,8.14,0,0,0,1.72-.81Z"/>
        <path class="cls-22"
              d="M154.69,189.71v5.15l-5.13,2.57c-2.33-5.84-7.56-6.81-12.83-7.72-1.21-5-5.18-1.6-7.7-2.58-2.08-5.81,3.25-8.65,5.13-12.88,5-1.48,2.18-5.52,2.41-8.29.32-3.81,1.73-7.2,5.32-6.92,5.4.41,5.35-2.21,5.13-6-.28-4.86.25-9.5,5.1-12.27,0,11.38,0,22.76,0,34.13,0,1.86-.9,4.49,2.54,4.5v10.31Z"/>
        <path class="cls-23" d="M152.12,12c-23.72,0-47.45,0-71.17.08-2,0-5.37-1.77-5.81,2.5H62.31V9.44h89.81Z"/>
        <path class="cls-24"
              d="M154.69,179.4c-3.44,0-2.53-2.64-2.54-4.5-.06-11.37,0-22.75,0-34.13V94.42a46.08,46.08,0,0,1,.12-7.25c.18-1.12,1.59-2,2.45-3Z"/>
        <path class="cls-25" d="M62.31,9.44v5.15h-7.7c0-3.46-2.64-2.54-4.49-2.55C37.93,12,25.74,12,13.55,12V9.44Z"/>
        <path class="cls-13" d="M154.69,22.31V12C158.16,15.27,158.16,19.05,154.69,22.31Z"/>
        <path class="cls-13" d="M154.69,189.71V182c4.94,1.21,1.59,5.19,2.56,7.73Z"/>
        <path class="cls-13" d="M152.12,12V9.44L154.69,12Z"/>
        <path class="cls-26" d="M149.56,197.43l5.13-2.57v7.72h-2.57Z"/>
        <ellipse class="cls-13" cx="153.4" cy="207.73" rx="1.81" ry="7.28"/>
        <ellipse class="cls-11" cx="153.4" cy="214.17" rx="1.81" ry="1.82"/>
        <path class="cls-27"
              d="M103.37,194.86l-5.14,2.57c-.29-2.09,1.16-4.86-2.85-5.26-2.53-.26-4.95-1.61-7.41-2.46a17.35,17.35,0,0,1-2.45-1.9c2.56-4.76,1.31-6.65-4-5.86a26.19,26.19,0,0,1-3.76,0c-4.95.44-9-4.64-14.07-2.43-1.44.63-2.19,2.86-3.26,4.36,1.67,1.07,3.34,3,5,3,2.17,0,4.29-1.93,6.55-2.27,4.28-.65,3,2.79,3.2,5.06a45.83,45.83,0,0,0-7.23.11c-1.11.18-2,1.6-3,2.46l-7.7-2.57-2.57-2.58V182L52,179.4H49.48v-2.57H52c7.2,0,14.39-.06,21.58,0,2.87,0,7-.7,8.37.86,3.87,4.28,5.76-.89,8.55-.89,1.94-.39,4.91,1.28,5.13-2.58h2.56c1.25,0,3.26-.49,3.62.08,3.24,5.08,6.18,1.18,9.21-.08h2.57v2.58l-2.57,2.57c-3.83.22-2.17,3.2-2.56,5.73v-.58a7.17,7.17,0,0,0-2,.78c-.16.12.27,1,.43,1.56a4.73,4.73,0,0,0,1.52-1.76,4.16,4.16,0,0,1,2.56-.58c1,.86,1.93,2.28,3,2.46a44.63,44.63,0,0,0,7.23.12c-1.07.86-2.13,2.43-3.22,2.46C112.56,189.73,107.48,190.84,103.37,194.86Z"/>
        <path class="cls-28"
              d="M49.48,176.83v2.57H36.65l-5.13-7.72c-.39-2,1.27-4.93-2.57-5.15V164L31.52,162,29,158.8c0-7.25,0-7.25,5.13-7.72.39,1.95-1.27,4.93,2.57,5.15h2.56c.22,3.85,3.19,2.18,5.14,2.57.47,1.77.59,3.76,1.51,5.25,1.46,2.34.06,2.32-1.51,2.48-1.82.35-4.63-1.2-5.07,1.95-.59,4.29,2.82,3,5.07,3.2Z"/>
        <path class="cls-29"
              d="M34.08,151.08c-5.13.47-5.13.47-5.13,7.72l-5.13-2.57c-.05-4.1-1.35-9.08,5.85-7.86.46.08,1.91-2.29,1.73-2.5a12.17,12.17,0,0,0-3.2-2.41c-5.34,6.25-3.54-2.44-5.67-2.68-.42,0-.85,0-1.28,0v-7.72c3.84-.22,2.18-3.2,2.57-5.15-.22-3.85-3.19-2.19-5.13-2.58V115c2.56,2.4,6.65,4.42,7.33,7.27,1,4.13.25,9.08-1.09,13.24-1.41,4.36,1.59,2.31,2.82,2.61a16.91,16.91,0,0,0,3.77.06C38,143.3,38.1,143.69,34.08,151.08Z"/>
        <path class="cls-30"
              d="M88,189.71c2.46.85,4.88,2.2,7.41,2.46,4,.4,2.56,3.17,2.85,5.26a25.52,25.52,0,0,0-3.72.25c-.26-.4.45-.92,1.16-1.45-.59-.46-1.2-1.32-1.77-1.29a12.8,12.8,0,0,0-3.14,1,8.47,8.47,0,0,0,3.75,1.76,44.58,44.58,0,0,1-6.54,4.9c-5.51-3.45-16.86-7.24-23.09-7.72v-2.58a44.53,44.53,0,0,0,7.22-.12c1.12-.18,2-1.6,3-2.45h2.57a26.75,26.75,0,0,0,2.91,1.61C83.4,192.42,86.41,194.27,88,189.71Zm-.1,7.2c-.59-.95-1-2-1.27-2a18.42,18.42,0,0,0-3.36.8c.33.56.62,1.59,1,1.61A20.83,20.83,0,0,0,87.87,196.91Z"/>
        <path class="cls-31"
              d="M77.71,233.49A68,68,0,0,0,85.6,236c2.33.45,4.38-.46,5.31,3.47.64,2.73,4.76,4.64,7.32,6.91-8.09,1.06-14.55-2-19.55-8.19C77.79,237.07,78,235.07,77.71,233.49Z"/>
        <path class="cls-32"
              d="M54.61,182v5.15l2.57,2.58v5.15c-2,0-4.22-.5-6,.12-2.28.77-4.27,4.89-6.56.85-.68-1.21,1.48-4,2.33-6.12C52,189.23,52,189.23,52,182Z"/>
        <path class="cls-33"
              d="M21.25,140.77c.43,0,.86,0,1.28,0,2.13.24.33,8.93,5.67,2.68a12.17,12.17,0,0,1,3.2,2.41c.18.21-1.27,2.58-1.73,2.5-7.2-1.22-5.9,3.76-5.85,7.86H21.25V140.77Z"/>
        <path class="cls-34" d="M21.25,140.77v2.58H16.12V138.2c0-1.62,0-3.23,0-4.85.13-5.63.14-5.63,5.12-2.88v10.3Z"/>
        <path class="cls-35" d="M18.69,143.35h2.56v12.88c-4.7,2.58-5,2.49-5.12-1.75-.07-2.85,0-5.7,0-8.55Z"/>
        <path class="cls-36"
              d="M36.65,179.4h5.13a67.09,67.09,0,0,1-2.66,7.69c-.52,1.11-2,1.76-3.1,2.62-.64-1.28-2-2.67-1.79-3.81C34.59,183.66,35.79,181.56,36.65,179.4Z"/>
        <path class="cls-31" d="M82.84,210.31c-.21,3.92-3.59,15.81-5.13,18C77.87,221.88,76.29,214.93,82.84,210.31Z"/>
        <path class="cls-37" d="M57.18,194.86v-5.15l7.7,2.57v2.58C61,197.06,61,197.06,57.18,194.86Z"/>
        <path class="cls-38"
              d="M45.7,190l-3.59-4.46a6.57,6.57,0,0,1,2-.93c3-.24,3,1.87,2.76,3.91C46.82,189,46.2,189.37,45.7,190Z"/>
        <path class="cls-29" d="M29,158.8,31.52,162,29,164Z"/>
        <path class="cls-39" d="M17.48,172.21,16.53,170c.7-.29,1.5-.95,2.09-.79a7.68,7.68,0,0,1,2.23,1.61Z"/>
        <path class="cls-29" d="M29,166.53c3.84.22,2.18,3.2,2.57,5.15C27.68,171.46,29.34,168.48,29,166.53Z"/>
        <path class="cls-37" d="M54.61,182H52V179.4Z"/>
        <path class="cls-31" d="M77.71,228.33v2.58l-2.13-1.73Z"/>
        <path class="cls-33" d="M18.69,143.35l-2.57,2.58v-2.58Z"/>
        <path class="cls-10"
              d="M103.37,194.86c4.11-4,9.19-5.13,14.74-5.27,1.09,0,2.15-1.6,3.22-2.46H129c2.52,1,6.49-2.39,7.7,2.58.34,1.82-1.11,5.07,1.9,5,3.87-.15,6.64,1.24,8.24,4.24a29.71,29.71,0,0,1,2.6,9c.41,2.46.09,5,.09,7.57-.39,1.95,1.27,4.93-2.57,5.15-1.82.36-4-1-5.23,1.93-2.15,4.94-4.89,9.61-10.07,12.14-2.16,1.06-2.15,1.09-2.66-3.77,0-3.81,0-7.63-.08-11.43,0-.37-1-.7-1.61-1l-.88,2.18c-7.22,0-7.22,0-7.7-5.15v-2.58l2.57-2.57v-2.58l2.56-2.57c.59-1,1.2-2,1.76-3.06,1.09-2,2.16-4.07,3.23-6.1-2.35-.38-4.7-.86-7.07-1.12-3-.34-3.16,1.71-3.07,4,.09,2.1,0,4.21,0,6.31H116.2c-2.1,0-4.2.07-6.3,0-2.27-.11-4,.05-4.15,3.09,0,.76-2.3,1.39-3.54,2.08-.35-1.42-1.39-3.19-.89-4.17,1.15-2.25,2.68-4.88,4.77-5.92s4.94-.08,7.44-.29c.79-.07,1.51-1.06,2.26-1.62L114,196.52C110.87,193.32,106.9,195.52,103.37,194.86Z"/>
        <path class="cls-40"
              d="M129,230.91c.51,4.86.5,4.83,2.66,3.77,5.18-2.53,7.92-7.2,10.07-12.14,1.28-2.93,3.41-1.57,5.23-1.93,0,3.75.33,7.34-3.45,10-6.14,4.35-10.86,11.21-19.65,10.58-3.31-4.76-9.16-3.78-11.75-1.71-4.14,3.3-5.93-.05-8.56-1-1.14-.4-1.86-2-2.78-3,1.28-.67,2.55-1.86,3.86-1.9,2.37-.08,4.57-.2,7.09,1.43,2.85,1.84,7.09,2.54,10.22-.9.58-.63,1.21-1.21,1.81-1.82-.58-.46-1.15-1.31-1.75-1.34-3-.14-6,.11-8.93-.18-.75-.07-1.36-1.6-2-2.46h2.57C118.87,228.54,124.38,227.12,129,230.91Z"/>
        <path class="cls-41"
              d="M129,230.91c-4.65-3.79-10.16-2.37-15.4-2.58V218c3.31,0,2.59,2.52,2.53,4.36-.18,5.28,3.74,2.88,6.06,3.34,4.43.88,4.52-2,4.24-5.12l.88-2.18c.57.35,1.6.68,1.61,1C129.07,223.28,129,227.1,129,230.91Z"/>
        <path class="cls-42"
              d="M126.46,220.61c.28,3.12.19,6-4.24,5.12-2.32-.46-6.24,1.94-6.06-3.34.06-1.84.78-4.36-2.53-4.36.39-1.95-1.27-4.93,2.57-5.15l2.56,2.58C119.24,220.61,119.24,220.61,126.46,220.61Z"/>
        <path class="cls-40" d="M123.89,241.21c-5,5.32-11.47,5.2-18,5.15C110.89,241,117.4,241.16,123.89,241.21Z"/>
        <path class="cls-43" d="M121.33,210.31l-2.57,2.57H116.2v-7.72h2.56C119.15,207.11,117.49,210.09,121.33,210.31Z"/>
        <path class="cls-44" d="M113.63,220.61v7.72h-2.57C112,225.8,108.69,221.82,113.63,220.61Z"/>
        <path class="cls-12"
              d="M149.56,215.46c0-2.53.32-5.11-.09-7.57a29.71,29.71,0,0,0-2.6-9c-1.6-3-4.37-4.39-8.24-4.24-3,.11-1.56-3.14-1.9-5,5.27.91,10.5,1.88,12.83,7.72l2.56,5.15v12.88Z"/>
        <path class="cls-45"
              d="M16.12,60.94,13.55,48.06l2.57-2.57c5.72-.73,5.63-.69,3.32-5.77-.61-1.34-.52-3-.75-4.53Q25,36.36,23.82,30l12.83,2.57v2.58a14.47,14.47,0,0,0-3,1.8c-1.49,1.45-5.89-.11-4.63,4,1,3.45,4.21,1.31,6.38,1.86a5.21,5.21,0,0,0,1.25,0c.7-.27,2-.48,2-.84.37-3.32,1.83-4.78,5.39-4.37,5,.59,2,4.33,2.83,6.57a3.82,3.82,0,0,1,0,1.22l-2.56,2.57v2.58a19.61,19.61,0,0,0-2.55,1.93c-1.77,1.88-3.44,3.86-5.15,5.8l-2.13.84,2.13,1.73,2.56,2.58h7.7l2.57-2.58c3.77,3.39,8.39,2.51,12.83,2.58v2.57H57.18c-2.53,1-6.5-2.39-7.7,2.58H23.82Z"/>
        <path class="cls-46"
              d="M31.52,138.2a16.91,16.91,0,0,1-3.77-.06c-1.23-.3-4.23,1.75-2.82-2.61,1.34-4.16,2.09-9.11,1.09-13.24-.68-2.85-4.77-4.87-7.33-7.27v-5.15l2.56-2.57c5.48-7.26,1.34-13.45-2.13-19.73-.06-.1.51-.69.87-.84a3.51,3.51,0,0,1,1.26,0h23.1v2.58c-5.46,0-10.92.22-16.36-.06-6-.3-2.61,1.92-1.73,4.45,2.41,6.89,2.17,6.94,9.18,5.94a26.34,26.34,0,0,1,3.77,0,14.54,14.54,0,0,1-.92,2.18c-.75,1.22-6.11-1.34-2.49,3.83,2.27,3.23,1.76,7.92-2.14,11.23C26.18,123.15,28.06,130.64,31.52,138.2Z"/>
        <path class="cls-47"
              d="M41.78,86.69H36.65c.6-1.54,2.14-3.92,1.64-4.48-2.16-2.41-1.58-3.12,1.27-3.23,1.59-.06,3.19,0,4.79,0H52v2.57l-2.56,2.58c-.22-3.85-3.19-2.19-5.13-2.58C40.51,81.76,42.17,84.74,41.78,86.69Z"/>
        <ellipse class="cls-48" cx="48.2" cy="75.11" rx="5.44" ry="5.46"/>
        <path class="cls-49"
              d="M23.82,68.67H44.35v2.57c-5.8,0-11.59.13-17.38-.11C25.89,71.08,24.87,69.53,23.82,68.67Z"/>
        <path class="cls-47" d="M26.38,86.69H21.25l3.19-2.57Z"/>
        <path class="cls-29" d="M21.25,107.3l-2.56,2.57Z"/>
        <path class="cls-50"
              d="M62.31,63.52c-4.44-.07-9.06.81-12.83-2.58l-2.57-2.57V53.22c3.84-.22,2.18-3.2,2.57-5.16L52,40.34c3.84-.22,2.18-3.2,2.57-5.15-1-.86-2-2.35-3.08-2.46a96,96,0,0,0-9.75-.12L36.65,30c-4.73-1.28-5.45-3.9-2.57-7.73,5.68-5.69,13-7,20.53-7.72H75.14c6.22,2.21,11.73,6,12.59,12.65,1.1,8.45.43,17.09-6.45,23.74a36.55,36.55,0,0,0-3.57,4.81L70,60.94c-2,.39-4.92-1.28-5.13,2.58Z"/>
        <path class="cls-51"
              d="M34.08,22.31c-2.88,3.83-2.16,6.45,2.57,7.73v2.57L23.82,30C26.07,25.9,28.45,21.92,34.08,22.31Z"/>
        <path class="cls-51"
              d="M18.69,35.19c.23,1.52.14,3.19.75,4.53,2.31,5.08,2.4,5-3.32,5.77V40.34C16.51,38.39,14.85,35.41,18.69,35.19Z"/>
        <path class="cls-51" d="M23.82,30q1.17,6.32-5.13,5.15Z"/>
        <path class="cls-17" d="M21.25,133.05v-2.58l2.57-2.57C23.43,129.85,25.09,132.83,21.25,133.05Z"/>
        <path class="cls-51" d="M16.12,45.49l-2.57,2.57Z"/>
        <path class="cls-52"
              d="M126.46,71.24c1.71,1.29,3.7,2.34,5,3.92,1.49,1.74,2,4.55,3.67,5.83s4.64.85,6.59,2c1.62.92,5.12,3.27-.61,4-.81.1-1.25,3.21-1.87,4.92-5.87,6.86-5.87,6.86-2.56,12.88h-2.57a97.93,97.93,0,0,1-9.5-5.9c-.87-.67-.54-2.89-.77-4.4,0-7.25,0-7.25-5.13-7.73V84.12c4.4-1.16,5.36-4.35,5.19-8.42C123.87,73.86,123.06,71.25,126.46,71.24Z"/>
        <path class="cls-53"
              d="M136.73,104.72c-3.31-6-3.31-6,2.56-12.88,0,1.65-.36,3.41.12,4.9.36,1.12,1.71,2.08,2.84,2.7.26.15,1.77-1.2,2.1-2.09.74-1.94-1.41-5.49,2.69-5.37,1.71,0,3.39,1.58,5.08,2.44v25.75h-2.56q-2.58-3.86-5.14-7.72c0-7.25,0-7.25-5.13-7.73Z"/>
        <path class="cls-54"
              d="M90.54,66.09c3.23-.24,6.62,0,9.64-.94,1.49-.46,1.91-1.19,3.71-.09,2.9,1.77,6.46,2.46,9.74,3.61.81,0,1.63-.07,2.43,0,1.54.16,3.08.41,4.61.62-.71,1.15-1.16,2.67-2.17,3.38-3.37,2.38-2,5.8-2.3,8.86v2.58c-.71-.28-2-.55-2-.85-.14-6.54-3.46-2.27-5.66-1.73-.83-1.25-2.41-2.56-2.34-3.76.29-4.5-2.59-4-5.36-4,.46-3.43-.15-5.62-4.49-5.28C94.33,68.69,91,70.35,90.54,66.09Z"/>
        <path class="cls-55"
              d="M90.54,66.09c.42,4.26,3.79,2.6,5.77,2.45,4.34-.34,5,1.85,4.49,5.28-.86,1-2.34,2-2.45,3.09a96.59,96.59,0,0,0-.12,9.78H95.67C94.81,85.84,94,85,93.1,84.12H85.4c1.71-1.76,4.14-3.23,5-5.34,1.6-4-2.21-5.83-4.39-8.23-.57-.63-1.46-1.1-1.73-1.83a31,31,0,0,1-1-4.33L88,63.52Z"/>
        <path class="cls-56"
              d="M88,63.52l-4.72.87a31,31,0,0,0,1,4.33c.27.73,1.16,1.2,1.73,1.83,2.18,2.4,6,4.26,4.39,8.23-.84,2.11-3.27,3.58-5,5.34H77.71c0-.83-.34-1.9.05-2.45,3.35-4.64,2.38-10,2.52-15.1.12-4.23-3-2.79-5.14-3a22.5,22.5,0,0,1,2-2.56c1-1,2.11-1.74,3.17-2.59C84.25,58,87,59.45,88,63.52Z"/>
        <path class="cls-57"
              d="M116.2,81.54c.29-3.06-1.07-6.48,2.3-8.86,1-.71,1.46-2.23,2.17-3.38-1.53-.21-3.07-.46-4.61-.62-.8-.08-1.62,0-2.43,0,6.68-5.25,6.68-5.25,12.83,2.57-3.4,0-2.59,2.62-2.51,4.46.17,4.07-.79,7.26-5.19,8.42Z"/>
        <path class="cls-58"
              d="M80.27,58.37c-1.06.85-2.2,1.64-3.17,2.59a22.5,22.5,0,0,0-2,2.56c-2-.39-4.91,1.27-5.13-2.58l7.7-5.15Z"/>
        <path class="cls-59"
              d="M103.87,55.06l-2.23,2.86c-.28-1.14-.9-2.33-.75-3.4a12.58,12.58,0,0,1,1.64-3.44C102.9,52.19,103.27,53.3,103.87,55.06Z"/>
        <path class="cls-60"
              d="M118.24,55.89a20.12,20.12,0,0,1,.44,3.67c0,.35-1,.65-1.61,1a19.14,19.14,0,0,1-.79-3.37C116.26,56.85,117.3,56.48,118.24,55.89Z"/>
        <path class="cls-61" d="M138.38,58.74l.91.91a8.14,8.14,0,0,1-1.72.81c-.21,0-.56-.52-.84-.81Z"/>
        <path class="cls-62"
              d="M149.56,120.17h2.56v7.73l-2.56,1.95,2.56,3.2v7.72c-4.85,2.77-5.38,7.41-5.1,12.27.22,3.79.27,6.41-5.13,6-3.59-.28-5,3.11-5.32,6.92-.23,2.77,2.55,6.81-2.41,8.29V161.38c-1-4.68,2-9.78-2.32-14.35-1.54-1.65-1-6.48,2.39-7.41,7-2,4.87-7.19,5.06-11.72,1.33-.82,3.37-2.62,3.85-2.27,1.7,1.24,3.05,3,4.58.16A34.23,34.23,0,0,0,149.56,120.17Z"/>
        <path class="cls-63"
              d="M134.16,161.38v12.87c-1.88,4.23-7.21,7.07-5.13,12.88h-7.7c3.75-7,2.57-9.35-5.28-10.29a21.7,21.7,0,0,0-2.42,0v-2.58c2-.38,4.91,1.28,5.13-2.57a44.88,44.88,0,0,0,6.25-.08c1.39-.19,2.68-1.09,4-1.68a43.61,43.61,0,0,0-2.08-4.16c-3.17-5-5.42.89-8.19.77v-5.15Z"/>
        <path class="cls-64" d="M152.12,133.05l-2.56-3.2,2.56-1.95Z"/>
        <path class="cls-65"
              d="M39.21,156.23H36.65c0-5.29,4.27-9.83,2.68-15.49-.23-.79.91-2.16,1.69-3,5.47-6,5.5-11.71-.33-17.47-.48-.47-.16-1.74-.21-2.64,6.15.33,3-4.43,3.94-7,.44-1.23,1.64-2.2,2.49-3.28v18c-1.42,6.93,1.82,11.76,6.83,16,1.18,1,2.67,3.63,2.24,4.24-3,4.27-.52,8.91-1.37,13.25,0,.42.1,1.17,0,1.2-3.85,1.09-6.21,3.16-5.12,7.59-5.3,4.66,1.88,5.28,2.55,8a5.13,5.13,0,0,1,0,1.24H49.48l-5.13-5.15v-5.15c1.57-.16,3-.14,1.51-2.48-.92-1.49-1-3.48-1.51-5.25C44.13,155,41.16,156.61,39.21,156.23Z"/>
        <path class="cls-66"
              d="M52,176.83a5.13,5.13,0,0,0,0-1.24c-.67-2.72-7.85-3.34-2.55-8-1.09-4.43,1.27-6.5,5.12-7.59.11,0,0-.78,0-1.2h5.13L70,151.08v5.15l-2.57,2.57v2.58L64.88,164a67.29,67.29,0,0,0-7.7,2.67c-1.1.53-1.73,2.08-2.57,3.17.88.63,1.76,1.8,2.65,1.81,10.89.12,21.79,0,32.68.12,4.3,0,2.94-3,3.16-5.19V164h2.57l2.56,2.58v5.15l-2.56,2.57c-2,.39-4.92-1.27-5.13,2.58-2.79,0-4.68,5.17-8.55.89-1.4-1.56-5.5-.82-8.37-.86C66.43,176.77,59.24,176.83,52,176.83Z"/>
        <path class="cls-67"
              d="M111.06,174.25c-3,1.26-6,5.16-9.21.08-.36-.57-2.37-.08-3.62-.08v-2.57c.73-.3,2-.46,2.09-.91,1.16-4.67,1-9-3.48-12.15a2.32,2.32,0,0,1-.49-1.67c.66-.38,1.86-.94,2.16-.66,5.46,5,9,1.28,12.55-2.64a21.61,21.61,0,0,0,2.55-2c1-1,1.73-2.11,2.59-3.18.06,4.45-.81,9.09,2.56,12.88C113.28,163.91,110.09,167.83,111.06,174.25Z"/>
        <path class="cls-37"
              d="M77.71,189.71H75.14c-.2-2.27,1.08-5.71-3.2-5.06-2.26.34-4.38,2.28-6.55,2.27-1.67,0-3.34-1.94-5-3,1.07-1.5,1.82-3.73,3.26-4.36,5-2.21,9.12,2.87,14.07,2.43Z"/>
        <path class="cls-68"
              d="M77.71,189.71V182a26.19,26.19,0,0,0,3.76,0c5.36-.79,6.61,1.1,4,5.86a17.35,17.35,0,0,0,2.45,1.9c-1.56,4.56-4.57,2.71-7.35,1.61A26.75,26.75,0,0,1,77.71,189.71Z"/>
        <path class="cls-69"
              d="M113.63,176.83a21.7,21.7,0,0,1,2.42,0c7.85.94,9,3.24,5.28,10.29a44.63,44.63,0,0,1-7.23-.12c-1.11-.18-2-1.6-3-2.46,2.53-.8,7.07,2.09,7.44-2,.56-6.11-4.88-2.08-7.44-3.19Z"/>
        <path class="cls-70"
              d="M111.06,174.25c-1-6.42,2.22-10.34,7.7-12.87v5.15l-2.56,2.57c-3.84.22-2.18,3.2-2.57,5.15Z"/>
        <path class="cls-37"
              d="M75.14,189.71c-1,.85-1.92,2.27-3,2.45a44.53,44.53,0,0,1-7.22.12c1-.86,1.92-2.28,3-2.46A45.83,45.83,0,0,1,75.14,189.71Z"/>
        <path class="cls-69" d="M111.06,184.55H108.5c.39-2-1.27-4.93,2.56-5.15Z"/>
        <path class="cls-71" d="M90.54,176.83c.21-3.85,3.18-2.19,5.13-2.58C95.45,178.11,92.48,176.44,90.54,176.83Z"/>
        <path class="cls-71" d="M98.23,171.68v2.57H95.67Z"/>
        <path class="cls-72" d="M108.5,185.7,107,186.89c-.16-.54-.59-1.44-.43-1.56a7.17,7.17,0,0,1,2-.78Z"/>
        <path class="cls-37" d="M57.18,189.71l-2.57-2.58Z"/>
        <path class="cls-73"
              d="M46.91,107.3c-.85,1.08-2,2-2.49,3.28-.92,2.6,2.21,7.36-3.94,7,.05.9-.27,2.17.21,2.64,5.83,5.76,5.8,11.51.33,17.47-.78.86-1.92,2.23-1.69,3,1.59,5.66-2.65,10.2-2.68,15.49-3.84-.22-2.18-3.2-2.57-5.15,4-7.39,3.94-7.78-2.56-12.88-3.46-7.56-5.34-15,2.14-21.39,3.9-3.31,4.41-8,2.14-11.23-3.62-5.17,1.74-2.61,2.49-3.83a14.54,14.54,0,0,0,.92-2.18c5.68-1.44,5.34-5.91,5.14-10.3l2.56-2.58,2.57-2.57L52,81.54c2.2,0,4.1-4,6.81-.14.7,1,3.95.14,6,.14v2.58c-3.95.65-8-1.17-11.86,2.51-4.15,3.93-3.15,8.26-3.64,12.74C49.08,102.07,47.77,104.66,46.91,107.3Z"/>
        <path class="cls-74"
              d="M44.35,166.53v5.15c-2.25-.21-5.66,1.09-5.07-3.2C39.72,165.33,42.53,166.88,44.35,166.53Z"/>
        <path class="cls-73" d="M39.21,156.23c1.95.38,4.92-1.28,5.14,2.57C42.4,158.41,39.43,160.08,39.21,156.23Z"/>
        <path class="cls-75" d="M93.36,197.94l-2.6-2a12.8,12.8,0,0,1,3.14-1c.57,0,1.18.83,1.77,1.29Z"/>
        <path class="cls-76"
              d="M87.87,196.91a20.83,20.83,0,0,1-3.66.44c-.35,0-.64-1-1-1.61a18.42,18.42,0,0,1,3.36-.8C86.91,194.92,87.28,196,87.87,196.91Z"/>
        <path class="cls-77"
              d="M121.33,210.31c-3.84-.22-2.18-3.2-2.57-5.15,0-2.1.07-4.21,0-6.31-.09-2.26,0-4.31,3.07-4,2.37.26,4.72.74,7.07,1.12-1.07,2-2.14,4.08-3.23,6.1-.56,1-1.17,2-1.76,3.06l-2.56,2.57Z"/>
        <path class="cls-43" d="M121.33,207.73l2.56-2.57Z"/>
        <path class="cls-78" d="M116.2,212.88h2.56v2.58Z"/>
        <path class="cls-79"
              d="M64.88,84.12V81.54c0-4.11.17-8.23-.12-12.33-.08-1.09-1.6-2.08-2.45-3.12V63.52h2.57c3.55,1,5.27,3.2,5.16,7-.14,4.53,0,9.07,0,13.6Z"/>
        <path class="cls-80"
              d="M36.65,32.61V30l5.13,2.57c.31,4,3.73,1.65,5.36,2.69,1.92,1.23,3.3,3.32,4.9,5l-2.56,7.72H46.91V45.49a3.82,3.82,0,0,0,0-1.22c-.78-2.24,2.19-6-2.83-6.57-3.56-.41-5,1-5.39,4.37,0,.36-1.32.57-2,.84V32.61Z"/>
        <path class="cls-81"
              d="M46.91,53.22v10.3h-7.7l-2.56-2.58V58.37c1.71-1.94,3.38-3.92,5.15-5.8a19.61,19.61,0,0,1,2.55-1.93Z"/>
        <path class="cls-79"
              d="M44.35,71.24V68.67h5.13c2.52-1,6.49,2.38,7.7-2.58h5.13c-4.59,8.29-4.59,8.29-10.27,5.15Z"/>
        <path class="cls-51"
              d="M36.65,35.19v7.72a5.21,5.21,0,0,1-1.25,0C33.23,42.35,30.06,44.49,29,41c-1.26-4.16,3.14-2.6,4.63-4A14.47,14.47,0,0,1,36.65,35.19Z"/>
        <path class="cls-49" d="M57.18,66.09c-1.21,5-5.18,1.6-7.7,2.58C50.68,63.7,54.65,67.07,57.18,66.09Z"/>
        <path class="cls-49" d="M46.91,63.52V58.37l2.57,2.57Z"/>
        <path class="cls-82" d="M46.91,53.22l-2.56-2.58V48.06h2.56Z"/>
        <path class="cls-83" d="M46.91,48.06H44.35l2.56-2.57Z"/>
        <path class="cls-49" d="M36.65,60.94l2.56,2.58Z"/>
        <path class="cls-49" d="M36.65,58.37v2.57l-2.13-1.73Z"/>
        <path class="cls-47"
              d="M44.35,89.27c.2,4.39.54,8.86-5.14,10.3a26.34,26.34,0,0,0-3.77,0c-7,1-6.77,1-9.18-5.94C25.38,91.13,22,88.91,28,89.21,33.43,89.49,38.89,89.27,44.35,89.27Z"/>
        <path class="cls-17" d="M41.78,86.69c.39-2-1.27-4.93,2.57-5.15v5.15Z"/>
        <path class="cls-47" d="M46.91,86.69l-2.56,2.58V86.69Z"/>
        <path class="cls-84"
              d="M52,71.24c5.68,3.14,5.68,3.14,10.27-5.15.85,1,2.37,2,2.45,3.12.29,4.1.12,8.22.12,12.33-2.08,0-5.33.84-6-.14-2.71-3.83-4.61.11-6.81.14V71.24Z"/>
        <path class="cls-85" d="M46.91,86.69H44.35V81.54c1.94.39,4.91-1.27,5.13,2.58Z"/>
        <path class="cls-86"
              d="M70,84.12c0-4.53-.11-9.07,0-13.6.11-3.8-1.61-6-5.16-7,.21-3.86,3.18-2.19,5.13-2.58.22,3.85,3.18,2.19,5.13,2.58,2.16.26,5.26-1.18,5.14,3-.14,5.15.83,10.46-2.52,15.1-.39.55-.05,1.62-.05,2.45Z"/>
        <path class="cls-87"
              d="M52,40.34c-1.6-1.72-3-3.81-4.9-5-1.63-1-5,1.36-5.36-2.69a96,96,0,0,1,9.75.12c1.1.11,2.06,1.6,3.08,2.46C50.77,35.41,52.43,38.39,52,40.34Z"/>
        <path class="cls-83" d="M46.91,53.22V48.06h2.57C49.09,50,50.75,53,46.91,53.22Z"/>
        <path class="cls-80" d="M52,40.34c.39-2-1.27-4.93,2.57-5.15C54.22,37.14,55.88,40.12,52,40.34Z"/>
        <path class="cls-88"
              d="M70,84.12H93.1l2.57,2.57h2.56a42.77,42.77,0,0,1,6.1,0c4.53.67,4.34-2.21,4.17-5.2,2.2-.54,5.52-4.81,5.66,1.73,0,.3,1.33.57,2,.85v2.57l7.69,7.73c.23,1.51-.1,3.73.77,4.4a97.93,97.93,0,0,0,9.5,5.9v2.58c-.85,0-1.7,0-2.55,0-7.36.18-7.36.18-7.72,7.06-.28,5.52-.28,5.52-7.69,5.81V104.72q4.15-5.14,0-10.3l-2.57-2.58c0-3.45-2.64-2.53-4.49-2.54-12.19-.06-24.38,0-36.57,0-4,.41-6.69-1.09-7.69-5.15Z"/>
        <path class="cls-89"
              d="M134.16,107.3v-2.58h5.13c2.42,4.47,1.88,6.06-2.78,7.69a7.36,7.36,0,0,1-2.35,0c.51-.94,1.35-1.86,1.41-2.82C135.61,108.88,134.67,108.08,134.16,107.3Z"/>
        <path class="cls-86" d="M123.89,94.42l-7.69-7.73h2.56C123.89,87.17,123.89,87.17,123.89,94.42Z"/>
        <ellipse class="cls-54" cx="117.48" cy="85.41" rx="1.81" ry="1.82"/>
        <path class="cls-24"
              d="M149.56,120.17a34.23,34.23,0,0,1-1.84,5.62c-1.53,2.88-2.88,1.08-4.58-.16-.48-.35-2.52,1.45-3.85,2.27-.22-2.24,1.13-5.33-3.17-5.27-.64,0-1.31-1.6-2-2.46h5.13l2.57-2.57c.38-1.95-1.28-4.93,2.56-5.15Q147,116.31,149.56,120.17Z"/>
        <path class="cls-52"
              d="M139.29,120.17h-5.13v-7.72a7.36,7.36,0,0,0,2.35,0c4.66-1.63,5.2-3.22,2.78-7.69,5.13.48,5.13.48,5.13,7.73-3.84.22-2.18,3.2-2.56,5.15Z"/>
        <path class="cls-90"
              d="M100.8,73.82c2.77,0,5.65-.54,5.36,4-.07,1.2,1.51,2.51,2.34,3.76-3.71,2-6.81,1.39-7.61-1.73C100.41,77.93,100.8,75.82,100.8,73.82Z"/>
        <path class="cls-52" d="M118.76,84.12H116.2V81.54Z"/>
        <path class="cls-54"
              d="M100.8,73.82c0,2-.39,4.11.09,6,.8,3.12,3.9,3.7,7.61,1.73.17,3,.36,5.87-4.17,5.2a42.77,42.77,0,0,0-6.1,0,96.59,96.59,0,0,1,.12-9.78C98.46,75.81,99.94,74.84,100.8,73.82Z"/>
        <path class="cls-86" d="M95.67,86.69,93.1,84.12C94,85,94.81,85.84,95.67,86.69Z"/>
        <path class="cls-70"
              d="M134.16,120.17c.65.86,1.32,2.47,2,2.46,4.3-.06,2.95,3,3.17,5.27-.19,4.53,1.94,9.77-5.06,11.72-3.34.93-3.93,5.76-2.39,7.41,4.27,4.57,1.3,9.67,2.32,14.35h-15.4c-3.37-3.79-2.5-8.43-2.56-12.88l2.56-2.57c4.95-1.21,1.59-5.2,2.57-7.73,1.56-.28,4.2-.14,4.5-.91a57.37,57.37,0,0,0,3-11.34c.15-.9-1.56-2.13-2.42-3.2.86-2.84,1.58-5.74,2.65-8.49.31-.81,1.63-1.22,2.48-1.81C132.57,115,129.21,119,134.16,120.17Z"/>
        <path class="cls-91"
              d="M118.76,166.53c2.77.12,5-5.73,8.19-.77a43.61,43.61,0,0,1,2.08,4.16c-1.34.59-2.63,1.49-4,1.68a44.88,44.88,0,0,1-6.25.08Z"/>
        <path class="cls-27"
              d="M113.63,174.25c.39-1.95-1.27-4.93,2.57-5.15l2.56,2.58C118.54,175.53,115.58,173.87,113.63,174.25Z"/>
        <path class="cls-66"
              d="M64.88,84.12c1,4.06,3.71,5.56,7.69,5.15,0,3.45,2.65,2.53,4.49,2.54,12.19.07,24.38,0,36.57,0l2.57,2.58q4.15,5.14,0,10.3l-2.57,2.58v2.57h-2.57v-7.72l2.57-2.58L111.06,97H62.31c0-7.25,0-7.25-5.13-7.73-.86,1-2.39,2.06-2.45,3.15-.27,4.94-.12,9.91-.12,14.88a96.59,96.59,0,0,0,.12,9.78c.11,1.1,1.59,2.07,2.45,3.09l2.56-2.57v-7.73a93.15,93.15,0,0,0,9.75-.12c1.1-.11,2.06-1.6,3.08-2.45h23.1v5.15l-5.13,7.72L88,122.75v2.57L85.4,127.9v2.57l-2.56,2.58-2.57,2.57v2.58l-5.13,7.73v2.57H72.57c.32-4.38-1.47-9.18,3.34-12.61,1.25-.9,1.55-3.56,1.74-5.47.61-6.13.51-6.14,5.19-10.25-.35-1.82,1.18-4.64-1.93-5.07-4.34-.6-9.08,1.2-12.89-2.55-.34-.33-2.94.66-3,1.21-.44,4-4,7.23-2.71,11.56H46.91v-18c.86-2.64,2.17-5.23,2.47-7.93.49-4.48-.51-8.81,3.64-12.74C56.91,83,60.93,84.77,64.88,84.12Z"/>
        <path class="cls-92"
              d="M46.91,125.32h2.57c3.1,5.37,2.58,13.15,10.26,15.45,1.31.89,2.7,1.67,3.91,2.68,2.61,2.15,5.18,4.11.54,7.21-2.59,1.74-5.56,4-4.45,8.14H54.61c.85-4.34-1.65-9,1.37-13.25.43-.61-1.06-3.24-2.24-4.24C48.73,137.08,45.49,132.25,46.91,125.32Z"/>
        <path class="cls-93"
              d="M59.74,158.8c-1.11-4.12,1.86-6.4,4.45-8.14,4.64-3.1,2.07-5.06-.54-7.21-1.21-1-2.6-1.79-3.91-2.68,1-2.53-2.38-6.51,2.57-7.72,5.37-.52.38-6.36,3.85-7.69,5.45-2.07,9.93-7.34,16.68-5.19-4.68,4.11-4.58,4.12-5.19,10.25-.19,1.91-.49,4.57-1.74,5.47-4.81,3.43-3,8.23-3.34,12.61L70,151.08Z"/>
        <path class="cls-94"
              d="M72.57,148.5h5.14c-2.38,4.53-4.89,9-7,13.63-.51,1.12.29,2.85.49,4.3,2.23-.35,5.09,1.53,6.47-1.73.31-.72-.26-1.84.1-2.49,2-3.6,1.23-8.43,5.08-11.13V164c1,.86,1.92,2.28,3,2.46a45.84,45.84,0,0,0,7.23.12c-.22,2.23,1.14,5.23-3.16,5.19-10.89-.12-21.79,0-32.68-.12-.89,0-1.77-1.18-2.65-1.81.84-1.09,1.47-2.64,2.57-3.17a67.29,67.29,0,0,1,7.7-2.67l2.56-2.57V158.8L70,156.23v-2.58l2.56-2.57Z"/>
        <path class="cls-95"
              d="M111.06,153.65c-3.53,3.92-7.09,7.61-12.55,2.64-.3-.28-1.5.28-2.16.66a2.32,2.32,0,0,0,.49,1.67c4.48,3.12,4.64,7.48,3.48,12.15-.12.45-1.36.61-2.09.91v-5.15L95.67,164l-2.57-2.57v-7.73Z"/>
        <path class="cls-71" d="M93.1,166.53a45.84,45.84,0,0,1-7.23-.12c-1.11-.18-2-1.6-3-2.46H93.1Z"/>
        <path class="cls-71" d="M95.67,164l2.56,2.58Z"/>
        <path class="cls-71" d="M93.1,161.38,95.67,164H93.1Z"/>
        <path class="cls-96" d="M67.44,161.38,64.88,164Z"/>
        <path class="cls-96" d="M70,156.23l-2.57,2.57Z"/>
        <path class="cls-96" d="M72.57,151.08,70,153.65v-2.57Z"/>
        <path class="cls-95"
              d="M118.76,145.93l-2.56,2.57c-.86,1.07-1.64,2.21-2.59,3.18a21.61,21.61,0,0,1-2.55,2c.27-2.41-.35-6.09,1-7,5.18-3.65,4.07-8.69,4.18-13.58v-10.3c.85,1.06,2.41,2.09,2.45,3.18C118.88,132.59,118.76,139.26,118.76,145.93Z"/>
        <path class="cls-97"
              d="M111.06,184.55V179.4c2.56,1.11,8-2.92,7.44,3.19C118.13,186.64,113.59,183.75,111.06,184.55Z"/>
        <path class="cls-63" d="M118.76,171.68l-2.56-2.58,2.56-2.57Z"/>
        <path class="cls-17" d="M46.91,86.69l2.57-2.57Z"/>
        <path class="cls-98"
              d="M118.76,145.93c0-6.67.12-13.34-.11-20,0-1.09-1.6-2.12-2.45-3.18v-2.58c7.41-.29,7.41-.29,7.69-5.81.36-6.88.36-6.88,7.72-7.06.85,0,1.7,0,2.55,0,.51.78,1.45,1.58,1.41,2.33-.06,1-.9,1.88-1.41,2.82h-2.57c-.85.59-2.17,1-2.48,1.81-1.07,2.75-1.79,5.65-2.65,8.49-5.13,6.82-5.13,6.82-5.13,15.45C120.35,140.73,123.71,144.72,118.76,145.93Z"/>
        <path class="cls-99"
              d="M113.63,91.84c-12.19,0-24.38,0-36.57,0-1.84,0-4.47.91-4.49-2.54,12.19,0,24.38,0,36.57,0C111,89.31,113.61,88.39,113.63,91.84Z"/>
        <path class="cls-95" d="M116.2,120.17v2.58c-.86-1-2.34-2-2.45-3.09a96.75,96.75,0,0,1-.12-9.79V107.3h2.57Z"/>
        <path class="cls-99" d="M116.2,107.3h-2.57l2.57-2.58Z"/>
        <path class="cls-99" d="M116.2,94.42l-2.57-2.58Z"/>
        <path class="cls-89" d="M139.29,120.17l2.57-2.57Z"/>
        <path class="cls-89" d="M131.59,112.45h2.57v7.72C129.21,119,132.57,115,131.59,112.45Z"/>
        <path class="cls-100"
              d="M121.33,138.2c0-8.63,0-8.63,5.13-15.45.86,1.07,2.57,2.3,2.42,3.2a57.37,57.37,0,0,1-3,11.34C125.53,138.06,122.89,137.92,121.33,138.2Z"/>
        <path class="cls-101"
              d="M93.1,161.38V164H82.84v-7.72l2.56-2.58v-2.57L88,148.5c.86-2.57,1.71-5.15,2.57-7.73V138.2l5.13-7.73V127.9l5.13-7.73,2.57-2.57V115l2.56-2.57v-2.58l2.57-2.57h2.56v2.57c-.25,2.41.41,5.86-.92,7-7.28,6.47-6.51,15.83-9.34,23.86-.86.62-2.34,1.13-2.47,1.87-1,5.69-2.11,8.29-5.23,11l-2.56,2.58-2.13.84,2.13,1.73Z"/>
        <path class="cls-102"
              d="M54.61,107.3c0-5-.15-9.94.12-14.88.06-1.09,1.59-2.1,2.45-3.15,0,7.25,0,7.25,5.13,7.73h5.13c1.07.85,2.12,2.43,3.2,2.46,8.77.2,17.57.43,26.32,0,3.6-.2,6.12,1.38,9,2.73l-5.13,7.72c-.39-2,1.27-4.93-2.57-5.15H67.44Z"/>
        <path class="cls-103"
              d="M100.8,140.77c2.83-8,2.06-17.39,9.34-23.86,1.33-1.18.67-4.63.92-7h2.57a96.75,96.75,0,0,0,.12,9.79c.11,1.1,1.59,2.06,2.45,3.09v10.3c-2.43,1.43-5.81,4.67-7.1,4C104,134.3,104.39,141.74,100.8,140.77Z"/>
        <path class="cls-96"
              d="M82.84,151.08c-3.85,2.7-3.12,7.53-5.08,11.13-.36.65.21,1.77-.1,2.49-1.38,3.26-4.24,1.38-6.47,1.73-.2-1.45-1-3.18-.49-4.3,2.12-4.65,4.63-9.1,7-13.63l-2.57-2.57,5.13-7.73c.78.51,1.58,1.46,2.32,1.41,1-.05,1.88-.9,2.81-1.41.31,3.73-.13,7.26-2.56,10.3Z"/>
        <path class="cls-104"
              d="M82.84,120.17c-6.75-2.15-11.23,3.12-16.68,5.19-3.47,1.33,1.52,7.17-3.85,7.69v-7.73C61,121,64.58,117.74,65,113.76c.06-.55,2.66-1.54,3-1.21,3.81,3.75,8.55,2,12.89,2.55C84,115.53,82.49,118.35,82.84,120.17Z"/>
        <path class="cls-105" d="M62.31,125.32v7.73c-5,1.21-1.59,5.19-2.57,7.72-7.68-2.3-7.16-10.08-10.26-15.45Z"/>
        <path class="cls-106"
              d="M105.93,102.15c-2.85-1.35-5.37-2.93-9-2.73-8.75.47-17.55.24-26.32,0-1.08,0-2.13-1.61-3.2-2.46h38.49l.85,2.13L108.5,97h2.56v5.15h-5.13Z"/>
        <path class="cls-107"
              d="M85.4,138.2c-.93.51-1.85,1.36-2.81,1.41-.74,0-1.54-.9-2.32-1.41v-2.58h2.57l2.13-.84-2.13-1.73,2.56-2.58L88,127.9l5.13-2.58c.39,2-1.27,4.93,2.57,5.15l-5.13,7.73-.85-2.14c-.57.72-1.15,1.43-1.72,2.14Z"/>
        <path class="cls-108"
              d="M54.61,107.3l12.83-2.58c.22,3.85,3.19,2.19,5.13,2.58-1,.85-2,2.34-3.08,2.45a93.15,93.15,0,0,1-9.75.12l-2.56,1.95,2.56,3.2v2.58l-2.56,2.57c-.86-1-2.34-2-2.45-3.09A96.59,96.59,0,0,1,54.61,107.3Z"/>
        <path class="cls-109" d="M72.57,107.3c-1.94-.39-4.91,1.27-5.13-2.58H98.23l-2.56,2.58Z"/>
        <path class="cls-110" d="M93.1,125.32,88,127.9v-5.15H93.1l2.57-2.58h5.13l-5.13,7.73Z"/>
        <path class="cls-111" d="M62.31,97c-5.13-.48-5.13-.48-5.13-7.73C62.31,89.75,62.31,89.75,62.31,97Z"/>
        <path class="cls-112" d="M98.23,120.17H90.54l5.13-7.72V115l2.56,2.58Z"/>
        <path class="cls-113"
              d="M95.67,107.3l2.56-2.58c3.84.22,2.18,3.2,2.57,5.15-.39,1.95,1.27,4.93-2.57,5.15-.38-2,1.28-4.93-2.56-5.15Z"/>
        <path class="cls-114" d="M59.74,115l-2.56-3.2,2.56-1.95Z"/>
        <path class="cls-115" d="M95.67,109.87c3.84.22,2.18,3.2,2.56,5.15H95.67v-5.15Z"/>
        <path class="cls-107" d="M90.54,122.75H88l2.57-2.58Z"/>
        <path class="cls-107" d="M88,125.32v2.58H85.4Z"/>
        <ellipse class="cls-99" cx="109.78" cy="106.01" rx="1.81" ry="1.82"/>
        <ellipse class="cls-116" cx="109.78" cy="103.43" rx="1.81" ry="1.82"/>
        <path class="cls-99" d="M111.06,102.15V99.57h2.57Z"/>
        <path class="cls-116" d="M113.63,99.57h-2.57V97Z"/>
        <path class="cls-117" d="M85.4,127.9H88l-2.57,2.57Z"/>
        <path class="cls-1" d="M108.5,97l-1.72,2.13L105.93,97Z"/>
        <path class="cls-118" d="M75.14,145.93l2.57,2.57H75.14Z"/>
        <path class="cls-96" d="M82.84,135.62H80.27l2.57-2.57Z"/>
        <path class="cls-119" d="M57.18,120.17l2.56-2.57Z"/>
        <path class="cls-66" d="M72.57,151.08H70l2.56-2.58Z"/>
        <path class="cls-120" d="M82.84,151.08V148.5H85.4v5.15H82.84Z"/>
        <path class="cls-96" d="M82.84,153.65H85.4l-2.56,2.58Z"/>
        <path class="cls-121"
              d="M100.8,140.77c3.59,1,3.23-6.47,8.3-3.74,1.29.69,4.67-2.55,7.1-4-.11,4.89,1,9.93-4.18,13.58-1.31.93-.69,4.61-1,7h-18c3.12-2.72,4.24-5.32,5.23-11C98.46,141.9,99.94,141.39,100.8,140.77Z"/>
        <path class="cls-121" d="M93.1,161.38l-2.56-2.58v-2.57l2.56-2.58Z"/>
        <path class="cls-122"
              d="M108.5,102.15v5.15l-2.57,2.57v2.58L103.37,115v2.58H98.23V115c3.84-.22,2.18-3.2,2.57-5.15l5.13-7.72Z"/>
        <path class="cls-123"
              d="M85.4,148.5H82.84c2.43-3,2.87-6.57,2.56-10.3H88l2.57,2.57c-.86,2.58-1.71,5.16-2.57,7.73Z"/>
        <path class="cls-124" d="M90.54,140.77,88,138.2c.57-.71,1.15-1.42,1.72-2.14l.85,2.14Z"/>
        <path class="cls-125" d="M93.1,125.32l2.57,2.58v2.57C91.83,130.25,93.49,127.28,93.1,125.32Z"/>
        <path class="cls-99" d="M100.8,117.6h2.57l-2.57,2.57Z"/>
        <path class="cls-71" d="M90.54,156.23v2.57l-2.13-1.73Z"/>
        <path class="cls-99" d="M103.37,115l2.56-2.57Z"/>
        <path class="cls-99" d="M105.93,109.87l2.57-2.57Z"/>
        <path class="cls-96" d="M85.4,148.5H88l-2.57,2.58Z"/>
        <path class="cls-126" d="M82.84,135.62v-2.57L85,134.78Z"/>
        <ellipse class="cls-127" cx="91.82" cy="121.46" rx="1.81" ry="1.82"/>
        <path class="cls-107" d="M93.1,122.75v-2.58h2.57Z"/>
        <ellipse class="cls-128" cx="99.52" cy="118.88" rx="1.81" ry="1.82"/>
        <path class="cls-129" d="M98.23,115v2.58L95.67,115Z"/>
    </g>
</svg>