<svg id="Calque_1" data-name="Calque 1" xmlns="http://www.w3.org/2000/svg" viewBox="0 0 167.24 257.95">
    <defs>
        <style>
            .cls-1{fill:#fefefe;}.cls-2{fill:#18272a;}.cls-3{fill:#0f1516;}.cls-4{fill:#0f1313;}.cls-5{fill:#222223;}.cls-6{fill:#2f2f2e;}.cls-7{fill:#e8e6c6;}.cls-8{fill:#1a1a1a;}.cls-9{fill:#e7e7d5;}.cls-10{fill:#faf9f6;}.cls-11{fill:#adadab;}.cls-12{fill:#f9fbeb;}.cls-13{fill:#f9f6d1;}.cls-14{fill:#fdfcf2;}.cls-15{fill:#f9fedc;}.cls-16{fill:#fcf7d5;}.cls-17{fill:#fced0d;}.cls-18{fill:#fcfdc4;}.cls-19{fill:#fdec01;}.cls-20{fill:#fced11;}.cls-21{fill:#faed07;}.cls-22{fill:#f9f8f1;}.cls-23{fill:#f5f963;}.cls-24{fill:#f9ec3a;}.cls-25{fill:#faeb07;}.cls-26{fill:#fded00;}.cls-27{fill:#fcf183;}.cls-28{fill:#f8ec45;}.cls-29{fill:#faef63;}.cls-30{fill:#f9eb4b;}.cls-31{fill:#feee37;}.cls-32{fill:#f9f07a;}.cls-33{fill:#f9f208;}.cls-34{fill:#f9e730;}.cls-35{fill:#e7ee1c;}.cls-36{fill:#fbee67;}.cls-37{fill:#faf045;}.cls-38{fill:#faef6f;}.cls-39{fill:#fdf044;}.cls-40{fill:#feea7f;}.cls-41{fill:#feec6b;}.cls-42{fill:#feeb1d;}.cls-43{fill:#fee93c;}.cls-44{fill:#fee471;}.cls-45{fill:#fef24a;}.cls-46{fill:#fef319;}.cls-47{fill:#feeb47;}.cls-48{fill:#eeed00;}.cls-49{fill:#fee927;}.cls-50{fill:#fbf062;}.cls-51{fill:#fdf152;}.cls-52{fill:#fbee0a;}.cls-53{fill:#f8f27b;}.cls-54{fill:#fbf23f;}.cls-55{fill:#f9f9f7;}.cls-56{fill:#feeb28;}.cls-57{fill:#fdf075;}.cls-58{fill:#fcf06d;}.cls-59{fill:#393839;}.cls-60{fill:#fcef67;}.cls-61{fill:#3a393f;}.cls-62{fill:#575354;}.cls-63{fill:#130e18;}.cls-64{fill:#18171d;}.cls-65{fill:#f3f12f;}.cls-66{fill:#141414;}.cls-67{fill:#0a0909;}.cls-68{fill:#f9ee41;}.cls-69{fill:#fcee4f;}.cls-70{fill:#fcef29;}.cls-71{fill:#fcef66;}.cls-72{fill:#faf169;}.cls-73{fill:#fbee04;}.cls-74{fill:#fdef71;}.cls-75{fill:#f5f216;}.cls-76{fill:#fcef2e;}.cls-77{fill:#fcec42;}.cls-78{fill:#feec49;}.cls-79{fill:#fdf53a;}.cls-80{fill:#fee92f;}.cls-81{fill:#feef34;}.cls-82{fill:#fef226;}.cls-83{fill:#feeb25;}.cls-84{fill:#f8f6e2;}.cls-85{fill:#faf180;}.cls-86{fill:#faf27b;}.cls-87{fill:#f3f0dd;}.cls-88{fill:#f6f244;}.cls-89{fill:#f6f002;}.cls-90{fill:#fbf177;}.cls-91{fill:#eef50c;}.cls-92{fill:#f7ed3a;}.cls-93{fill:#f8f056;}.cls-94{fill:#fef288;}.cls-95{fill:#fcf066;}.cls-96{fill:#343436;}.cls-97{fill:#323232;}.cls-98{fill:#171717;}.cls-99{fill:#414141;}.cls-100{fill:#2b2b2b;}.cls-101{fill:#131313;}.cls-102{fill:#514c50;}.cls-103{fill:#fcf349;}.cls-104{fill:#faf753;}.cls-105{fill:#f7f437;}.cls-106{fill:#d2cecf;}.cls-107{fill:#acacac;}.cls-108{fill:#faf255;}.cls-109{fill:#fef18a;}.cls-110{fill:#f5f458;}.cls-111{fill:#443f44;}.cls-112{fill:#423d42;}.cls-113{fill:#fdf4a9;}.cls-114{fill:#f8f3cb;}.cls-115{fill:#3d3d3f;}.cls-116{fill:#3e3b3f;}.cls-117{fill:#322d32;}.cls-118{fill:#0e0910;}.cls-119{fill:#1e191e;}.cls-120{fill:#fcfaf9;}.cls-121{fill:#08050e;}.cls-122{fill:#2f3034;}.cls-123{fill:#0c0809;}.cls-124{fill:#090508;}.cls-125{fill:#040405;}.cls-126{fill:#140e1c;}.cls-127{fill:#141711;}.cls-128{fill:#080405;}.cls-129{fill:#211c1d;}.cls-130{fill:#c5c5c5;}.cls-131{fill:#f4f4f4;}.cls-132{fill:#929292;}.cls-133{fill:#090909;}.cls-134{fill:#201f23;}.cls-135{fill:#4b4650;}.cls-136{fill:#d2cfb9;}.cls-137{fill:#f7f6ec;}.cls-138{fill:#f5f3ee;}.cls-139{fill:#252025;}.cls-140{fill:#2c282b;}.cls-141{fill:#0a050e;}.cls-142{fill:#1b1818;}.cls-143{fill:#0e0a0c;}.cls-144{fill:#0e0a0e;}.cls-145{fill:#080408;}.cls-146{fill:#0f0a0c;}.cls-147{fill:#141519;}.cls-148{fill:#040902;}.cls-149{fill:#111f0b;}.cls-150{fill:#292526;}.cls-151{fill:#0b0707;}.cls-152{fill:#292525;}.cls-153{fill:#121310;}.cls-154{fill:#342e36;}.cls-155{fill:#1e1725;}.cls-156{fill:#04030f;}.cls-157{fill:#100c0f;}.cls-158{fill:#474246;}.cls-159{fill:#0b0d10;}.cls-160{fill:#fafae4;}.cls-161{fill:#faf9e2;}
        </style>
    </defs>
    <g id="GnXvQ1.tif">
        <path class="cls-1"
              d="M162.87,1.3c2.56.2,5.4-1.42,5.37,3.94-.26,59.56-.16,119.12-.16,178.68,0,23.65-.09,47.31.1,71,0,3.42-.62,4.06-4,4.05q-78.82-.23-157.66,0c-4.52,0-6.15-.82-5.27-5.4a27.84,27.84,0,0,0,.06-5.25H3.9c.4,2-1.29,5,2.61,5.26.9,5.1,4.86,2.49,7.23,2.5,48.84.17,97.68.13,146.52.13l5.21-5.26V6.55Z"/>
        <ellipse class="cls-2" cx="2.6" cy="128.74" rx="1.84" ry="169.09"/>
        <path d="M6.51,1.3H160.26V3.92H6.51Z"/>
        <path class="cls-3" d="M160.26,3.92V1.3h2.61l2.6,5.25-2.6,2.63h-2.61V3.92Z"/>
        <path class="cls-1"
              d="M6.51,1.3V3.92C2.61,4.15,4.3,7.19,3.9,9.18H1.3a12.71,12.71,0,0,0,0-2.62C.28,2,2,.25,6.51,1.3Z"/>
        <path d="M162.87,9.18l2.6-2.63V250.93h-2.6Z"/>
        <path d="M160.26,256.19c-48.84,0-97.68,0-146.52-.13-2.37,0-6.33,2.6-7.23-2.5H160.26Z"/>
        <path class="cls-4" d="M160.26,256.19v-5.26h5.21Z"/>
        <path class="cls-5" d="M9.11,253.56H6.51c-3.9-.22-2.21-3.26-2.61-5.26H6.51l2.6,2.63Z"/>
        <path class="cls-6" d="M6.51,248.3H3.9V9.18H6.51V248.3Z"/>
        <path class="cls-7" d="M160.26,3.92V6.55H9.11V3.92Z"/>
        <path class="cls-8" d="M9.11,3.92V6.55L6.51,9.18H3.9c.4-2-1.29-5,2.61-5.26Z"/>
        <path class="cls-9" d="M162.87,250.93h-2.61V9.18h2.61Z"/>
        <path class="cls-10"
              d="M160.26,9.18v189.2c-5-1.23-1.61-5.3-2.6-7.89V122.17c0-35.24.05-70.47-.13-105.71,0-2.39,2.57-6.38-2.48-7.28h-2.61V6.55h7.82Z"/>
        <path class="cls-11" d="M9.11,253.56v-2.63H160.26v2.63Z"/>
        <path class="cls-12" d="M11.72,250.93H9.11l-2.6-2.63v-5.25h2.6c.4,2-1.29,5,2.61,5.25Z"/>
        <path class="cls-13"
              d="M152.44,6.55V9.18H63.84c-15.85,0-31.69,0-47.54,0-1.87,0-4.56-1-4.58,2.6-1.15,7.28,2.55,15.07-2.25,22,4.73,2.8-.68,9.71,4.86,12.19-.57,1.89-1.65,3.79-1.59,5.66.07,2.51,1,5,1.59,7.48-3.53,0-2.57,2.74-2.58,4.63q-.08,27.9,0,55.8v7.89c0,34.36.06,68.72-.13,103.09,0,2.39,2.58,6.37-2.48,7.27V120.06c0-17,0-34,0-51,0-1.89,1-4.65-2.57-4.68V9.18l2.6-2.63Z"/>
        <path class="cls-14" d="M6.51,64.36c3.57,0,2.56,2.79,2.57,4.68.06,17,0,34,0,51V235.17H6.51Z"/>
        <path class="cls-15" d="M6.51,235.17h2.6v7.88H6.51Z"/>
        <path class="cls-16"
              d="M157.66,190.49c1,2.59-2.42,6.66,2.6,7.89v13.14c-.87,1.12-2.47,2.23-2.49,3.37-.2,10,0,20-.23,30,0,1.14-1.62,2.25-2.49,3.37,0-10.29.08-20.58-.12-30.87,0-1.11-1.62-2.19-2.49-3.29,1-5.43.63-7.36-2.54-14.6-.46-1.06-.06-2.52-.06-3.79,2,0,5.93,5.45,5.34-2C155.1,192.72,156.79,191.58,157.66,190.49Z"/>
        <path class="cls-10"
              d="M155.05,248.3c.87-1.12,2.47-2.23,2.49-3.37.2-10,0-20,.23-30,0-1.14,1.62-2.25,2.49-3.37v39.41h-5.21Z"/>
        <path class="cls-17"
              d="M157.66,190.49c-.87,1.09-2.56,2.23-2.48,3.24.59,7.47-3.37,2-5.34,2v-5.26c0-3.33.21-6.68-.12-10-.12-1.13-1.62-2.11-3.07-3.15h.58a7.08,7.08,0,0,0-.79-2c-.12-.16-1,.28-1.57.44a4.87,4.87,0,0,0,1.78,1.56c.58,2.08.33,4.2.63,6.24.68,4.64-2.24,4.44-5.26,4.27-4.5-.07-9.2.82-13-2.63V180l2.61-2.62c6.23-3.75,5.12-10,5.21-15.77,1.71-.88,3.39-1.83,5.14-2.6,1-.42,6.16-4.16,6.33-5,.55-2.71,1-5.42,1.56-8.13V132.68c3.57-2.64,3.57-5.24,0-7.88v-7.88l5.21-2.63v7.88q0,29.22,0,58.43c0,1.9-1,4.61,2.58,4.64Z"/>
        <path class="cls-13" d="M155.05,122.17V9.18c5,.9,2.47,4.89,2.48,7.28.18,35.24.13,70.47.13,105.71Z"/>
        <path class="cls-7" d="M155.05,9.18v2.63H74.26a46,46,0,0,1-7.34-.12c-1.13-.19-2.06-1.63-3.08-2.51h91.21Z"/>
        <path class="cls-9" d="M155.05,122.17h2.61v63.07c-3.53,0-2.57-2.74-2.58-4.64Q155,151.39,155.05,122.17Z"/>
        <path class="cls-18"
              d="M155.05,248.3v2.63H11.72V248.3q39.33,0,78.66,0c2.11,0,4.22-.14,6.32-.32.33,0,.61-.57.92-.88l-1.8-1.41-3.31-2.63H116c-1.49,5.08-5.64,1.55-8.36,2.65a12.66,12.66,0,0,0-2,1.26c.64.45,1.29,1.28,1.94,1.29,10.63.08,21.27.05,31.9.05Z"/>
        <path class="cls-15" d="M11.72,248.3c-3.9-.22-2.21-3.26-2.61-5.25C13,243.27,11.33,246.31,11.72,248.3Z"/>
        <path class="cls-19"
              d="M11.72,248.3c-.39-2,1.29-5-2.61-5.25v-5.26c5.06-.9,2.47-4.88,2.48-7.27.19-34.37.13-68.73.13-103.09h2.61a48,48,0,0,0,.11,7.4c.19,1.14,1.62,2.08,2.49,3.11v10.51c-3.24.2-3.16,2.42-2.1,4.35,2.92,5.28,8.1,3.2,12.53,3.53L30,159v5.26c0,1.72-.47,3.62.09,5.14,2.05,5.66,6.42,10.57,5.23,17.26-.05.24.56.6.86.91a10.74,10.74,0,0,0,1.6-2.53c1.88-6.46,5.63-9.95,8.73-7.48,3.8,3,8.17,5.82,9.67,11.22.73,2.63,2.54,5,4.19,7.27.66.92,1.78,3.55,3.42.94.58-.93.09-2.53.09-3.83H74.26l2.61,2.63c.22,3.93,3.24,2.23,5.21,2.63H92.51c-2.61,2.69-5.61,5.1-7.71,8.15-2.23,3.23-3.63,7-5.32,10.63q-9.35,20,13,25.89l3.31,2.63,1.8,1.41c-.31.31-.59.86-.92.88-2.1.18-4.21.32-6.32.32Q51.05,248.32,11.72,248.3Zm5.21-70.94.85,15.3c3.83-4.72.85-10.24,1.76-15.3l-.85-10.06C14.85,170.08,18,174.09,16.93,177.36Zm54.22,40.15,1.36,4.06c.59-1.16,1.48-2.28,1.66-3.5s-.48-2.31-.76-3.47C72.63,215.61,71.85,216.62,71.15,217.51ZM22.68,226l-2.25-1c-.3.72-1,1.54-.8,2.14a7.65,7.65,0,0,0,1.62,2.28ZM67,212.76l-1.42-3.45a7.6,7.6,0,0,0-1.63,2.27c-.16.6.5,1.43.8,2.15ZM25,195.43l-1.51-2.31a13.55,13.55,0,0,0-1.22,3.27c-.06.61.78,1.32,1.22,2Zm4.63,7.27L28.66,201c-.29.29-.86.64-.82.86a8.25,8.25,0,0,0,.82,1.76Z"/>
        <path class="cls-20"
              d="M11.72,119.54q0-27.9,0-55.8c0-1.89-.95-4.61,2.58-4.63-.61,4,1.7,6,4.8,8C26.52,71.83,34.52,73,43,72.25c.35,3-1.25,6.61,2.26,8.84L43,82.76a23.65,23.65,0,0,0-4.66.82c-6.84,2.66-10.82,2.52-16.19-.82a15.85,15.85,0,0,0,0-2.58A11.92,11.92,0,0,0,21.29,78,9.85,9.85,0,0,0,19.6,80.2a7.52,7.52,0,0,0-.06,2.56q1.3,7.88,2.6,15.76-1.29,3.95-2.6,7.89V124.8l-2.61,2.63h-2.6C13.33,124.84,16.74,120.78,11.72,119.54Z"/>
        <path class="cls-21"
              d="M14.33,46c-5.54-2.48-.13-9.39-4.86-12.19,4.8-6.9,1.1-14.69,2.25-22,12.38,0,24.76,0,37.14,0,1.87,0,4.54-.93,4.56,2.59-7.6,1.22-14.49,4.45-21.2,8-2,1-3.26,3.39-4.86,5.14l-5.22,5.26q-6.39-1.2-5.21,5.25v2.63C13,40.94,14.72,44,14.33,46Zm4.28-21.4.93-.94a8.41,8.41,0,0,0-1.75-.82c-.22,0-.57.53-.86.82Z"/>
        <path class="cls-22"
              d="M14.33,46c.39-2-1.3-5,2.6-5.26,5,8.52,5,9,2.75,17-.45,1.62-.79,3.9,0,5.12,2,3.24,2.77-1.81,4.65-1.13a11.7,11.7,0,0,1,2.33.66c10,6.72,10,6.73,16.34,7.24v2.63c-8.47.7-16.47-.42-23.86-5.18-3.1-2-5.41-3.94-4.8-8-.57-2.49-1.52-5-1.59-7.48C12.68,49.76,13.76,47.86,14.33,46Z"/>
        <path class="cls-23"
              d="M53.42,14.43c0-3.52-2.69-2.58-4.56-2.59-12.38-.06-24.76,0-37.14,0,0-3.55,2.71-2.59,4.58-2.6,15.85-.06,31.69,0,47.54,0,1,.88,2,2.32,3.08,2.51a46,46,0,0,0,7.34.12v2.62Z"/>
        <path class="cls-24" d="M11.72,119.54c5,1.24,1.61,5.3,2.61,7.89H11.72Z"/>
        <path class="cls-10"
              d="M92.51,243.05q-22.38-5.93-13-25.89c1.69-3.59,3.09-7.4,5.32-10.63,2.1-3.05,5.1-5.46,7.71-8.15,2-.4,5,1.3,5.21-2.63l7.82-5.26c6.94-1.33,13.89-2.65,20.83-4a5.52,5.52,0,0,0,0-1.21H129c3.83,3.45,8.53,2.56,13,2.63,1.22,5.06,5.25,1.62,7.82,2.62v5.26c0,1.27-.4,2.73.06,3.79,3.17,7.24,3.58,9.17,2.54,14.6.3,4.9-2.76,8.3-5.32,11.87-1.29,1.79-15.3,11.19-16.72,11.8-4,1.7-7.89,3.49-11.83,5.24H92.51Zm31.27-15.77h2.6c5.48-6.57,5.48-6.57,0-13.14l2.61-5.25c4.25-4.77,4-5.6-2.61-10.51-3.29-3.56-7.12-3.56-10.42,0L113.35,201c-3.57,2.64-3.57,5.24,0,7.88.27,2.29,3,3.81.26,7.1-2.89,3.49-2.91,8.47,2.35,11.29Z"/>
        <path class="cls-25"
              d="M118.57,243.05c3.94-1.75,7.86-3.54,11.83-5.24,1.42-.61,15.43-10,16.72-11.8,2.56-3.57,5.62-7,5.32-11.87.87,1.1,2.47,2.18,2.49,3.29.2,10.29.12,20.58.12,30.87H139.41c-1.1-.87-2.17-2.43-3.33-2.5-4.71-.29-9.47,0-14.19-.24C120.74,245.49,119.67,243.93,118.57,243.05Z"/>
        <path class="cls-26"
              d="M74.26,14.43V11.81h80.79V114.29l-5.21,2.63c-.4-2,1.29-5-2.61-5.26.07-4.54-.82-9.27,2.61-13.14a46.78,46.78,0,0,0-.12-7.4C149.54,90,148.1,89,147.23,88l-3.45-10L142,80.13c-5.88,2.12-8.76-3.33-13-5.26-2.61-4-5.61-7.86-7.66-12.16-1.17-2.44-.79-5.64-1.1-8.49-3.28,2.41-.81,5.94-1.7,8.8-.7,2.25-1.7,4.4-2.57,6.6-3.24-.15-6.75,1-9.2-2.56-.64-.94-2.93-2-3.42-1.57-4.26,3.31-9,.61-13.44,1.5l-2.61-2.63q-1.29-2.62-2.6-5.25l-2.61-5.26,2.61-2.63c-1-5.61,2.06-10.37,3.73-15.25a11.45,11.45,0,0,0-.09-9C85.69,19.89,80.12,17.24,74.26,14.43Zm31.89,40.84a33.59,33.59,0,0,0-3.28-3.94,8.67,8.67,0,0,0-2.42,1.75c1.15,2.07,2.5,4,3.82,6Zm-.41-27.37L104.23,25c-.43.66-1.28,1.37-1.21,2a13.51,13.51,0,0,0,1.21,3.27Zm-5.95,4.83a20.23,20.23,0,0,0,.45-3.75c0-.36-1.06-.66-1.63-1a18.42,18.42,0,0,0-.8,3.44C97.78,31.74,98.83,32.13,99.79,32.73ZM141.92,61.2c-.6-1-1-2-1.29-2a18.12,18.12,0,0,0-3.41.8c.33.58.63,1.63,1,1.65A19.84,19.84,0,0,0,141.92,61.2Zm4.38,10.67.93-.94a8.18,8.18,0,0,0-1.75-.82c-.21,0-.57.53-.85.82Zm-35.18-25,.93,1.7c.29-.3.86-.65.82-.87a8.25,8.25,0,0,0-.82-1.76ZM96.79,40.33l.93-.93A7.93,7.93,0,0,0,96,38.58c-.22,0-.57.53-.86.82Z"/>
        <path class="cls-27"
              d="M147.23,111.66c3.9.23,2.21,3.27,2.61,5.26v7.88c-2.11,1.21-3.28-5-5.83-.72-1.44,2.42-2.76,5-4.67,7-2.72,2.85,4.82,4,.78,6.88a30,30,0,0,0-5.82,5.43c-.61.76-.6,3.1,0,3.67,4.78,4.24,1.44,9.73,2.47,14.5-3.78,0-7.56-.06-11.34,0-8.3.16-8.84.77-9.51,10.5l-2.61,2.63h-13c-.87.87-1.73,1.75-2.6,2.63H92.51L89.9,180H82.08v-2.62c2.68-.88,5.32-1.89,8-2.61,9.14-2.41,18-3.82,24.75-12.68,7.15-9.32,8.19-19,5.23-28.57-2.55-8.19-4.55-16-4.13-24.47,5-1.23,1.61-5.29,2.61-7.88l7.81-5.25c.43,4.33,3.76,2.26,5.87,2.56,3.21.47.54,6,5.31,5.57,2.5-.2,2.52,2.72.86,4.68-1.37,1.61-3.48,2.94-4,4.77s.1,5.28,1.08,5.64c1.94.72,5.56,1.92,6.38-1.39S144.19,112.57,147.23,111.66ZM125,135.39a45.43,45.43,0,0,0,5.2-5.4c.78-1.12.6-2.92.86-4.42a30.9,30.9,0,0,0-4.43.36,9,9,0,0,0-3.25,1.55c-.63.46-1.45,1.59-1.27,2.07A55,55,0,0,0,125,135.39Z"/>
        <path class="cls-28"
              d="M136.81,161.59c-1-4.77,2.31-10.26-2.47-14.5-.64-.57-.65-2.91,0-3.67a30,30,0,0,1,5.82-5.43c4-2.87-3.5-4-.78-6.88,1.91-2,3.23-4.61,4.67-7,2.55-4.3,3.72,1.93,5.83.72-2.24,3.94-2.24,3.94,0,7.88v2.63c-3.53,3.33-3.53,7.19,0,10.51-.52,2.71-1,5.42-1.56,8.13-.17.88-5.37,4.62-6.33,5C140.2,159.76,138.52,160.71,136.81,161.59Z"/>
        <path class="cls-29"
              d="M116,172.1c.67-9.73,1.21-10.34,9.51-10.5,3.78-.07,7.56,0,11.34,0-.09,5.81,1,12-5.21,15.77L129,174.73c0-2.58,0-5.15,0-7.72.05-3.4-2.59-3.24-4.34-2.66-2.2.74-4.07,2.49-6.09,3.8a9.92,9.92,0,0,0,2,1.29c2,.7,5.39-1.65,5.8,2.66Z"/>
        <path class="cls-30"
              d="M129,185.24h-2.61c-2.94,0-5.88,0-8.82,0-6.48-.08-6.48-.1-6.81-7.87.87-.88,1.73-1.76,2.6-2.63h5.22l2.6,2.63c2,.39,5-1.31,2.71,2.62-2.92,0-3.37-.11-3.75,0-1.33.46-2.64,1-4,1.51,1.52.37,3,.85,4.55,1.07a12,12,0,0,0,3.74,0c.7-.12,1.29-.85,1.92-1.31-.41-.42-.79-1.13-1.26-1.2-1.22-.17-2.49-.06-1.24-.06H129Z"/>
        <path class="cls-31"
              d="M149.84,190.49c-2.57-1-6.6,2.44-7.82-2.62,3,.17,5.94.37,5.26-4.27a43.28,43.28,0,0,1-.05-6.24c.87,1,2.37,2,2.49,3.15C150.05,183.81,149.84,187.16,149.84,190.49Z"/>
        <path class="cls-32" d="M149.84,145.82c-3.53-3.32-3.53-7.18,0-10.51Z"/>
        <path class="cls-33" d="M149.84,132.68c-2.24-3.94-2.24-3.94,0-7.88C153.41,127.44,153.41,130,149.84,132.68Z"/>
        <path class="cls-34" d="M146.07,177.36l-1.2-1.56c.54-.16,1.45-.6,1.57-.44a7.08,7.08,0,0,1,.79,2Z"/>
        <path class="cls-29" d="M131.6,177.36,129,180Z"/>
        <path class="cls-35"
              d="M118.57,243.05c1.1.88,2.17,2.44,3.32,2.51,4.72.28,9.48-.05,14.19.24,1.16.07,2.23,1.63,3.33,2.5-10.63,0-21.27,0-31.9-.05-.65,0-1.3-.84-1.94-1.29a12.66,12.66,0,0,1,2-1.26c2.72-1.1,6.87,2.43,8.36-2.65Z"/>
        <path class="cls-36"
              d="M63.84,193.12c0,1.3.49,2.9-.09,3.83-1.64,2.61-2.76,0-3.42-.94-1.65-2.25-3.46-4.64-4.19-7.27-1.5-5.4-5.87-8.2-9.67-11.22-3.1-2.47-6.85,1-8.73,7.48a10.74,10.74,0,0,1-1.6,2.53c-.3-.31-.91-.67-.86-.91,1.19-6.69-3.18-11.6-5.23-17.26-.56-1.52-.09-3.42-.09-5.14l2.61-2L30,159l-2.6-2.63,5.21-5.25c-.51,4.29,1.44,6.78,5.51,7.91,2.55.71,5,1.72,7.52,2.6a9.65,9.65,0,0,1,0,2.58c-.77,2.69-2.45,5.35-2.41,8,.09,5,4.91,1.13,6.86,3.07a18.49,18.49,0,0,1,1.81,1.84c2.57,3.34,5.34,4.36,8,.31,2.42-3.66,6-2.5,9.22-2.66,1.46,5.81,6,5.46,10.43,5.25,2.47,1.36-7.56,4.93.92,5.39.61,0,1.85,2.28,1.56,2.8a88.74,88.74,0,0,1-5.09,7.58l-2.61-2.63c.83-1.35,2.55-2.88,2.34-4-1-5.36-7.64-8.33-12.16-5.78C60.82,185.36,60.66,188,63.84,193.12Z"/>
        <path class="cls-37"
              d="M32.57,151.08l-5.21,5.25c-4.43-.33-9.61,1.75-12.53-3.53-1.06-1.93-1.14-4.15,2.1-4.35.87-1,2.37-2,2.49-3.15.33-3.3.12-6.66.12-10l2.6-2.63c.87-1,2.31-2,2.49-3.11a46.76,46.76,0,0,0,.12-7.4h2.61c-.2,7.34-1.35,15.1,7.81,18.4a48,48,0,0,1-.11,7.4C34.87,149.11,33.44,150.05,32.57,151.08Z"/>
        <path class="cls-38"
              d="M63.84,193.12c-3.18-5.14-3-7.76.6-9.81,4.52-2.55,11.16.42,12.16,5.78.21,1.15-1.51,2.68-2.34,4Z"/>
        <path class="cls-39"
              d="M76.87,195.75A88.74,88.74,0,0,0,82,188.17c.29-.52-.95-2.77-1.56-2.8-8.48-.46,1.55-4-.92-5.39h5.21v5.26c.66.87,1.34,2.51,2,2.5,4.37-.06,3,3.1,3.22,5.38-7.34,0-7.34,0-7.82,5.26C80.11,198,77.09,199.68,76.87,195.75Z"/>
        <path class="cls-40" d="M19.54,135.31c0,3.33.21,6.69-.12,10-.12,1.12-1.62,2.1-2.49,3.15v-21h2.61v7.88Z"/>
        <path class="cls-41" d="M82.08,198.38c.48-5.26.48-5.26,7.82-5.26v5.26Z"/>
        <path class="cls-42" d="M19.54,177.36c-.91,5.06,2.07,10.58-1.76,15.3l-.85-15.3Z"/>
        <path class="cls-43" d="M19.54,177.36H16.93c1-3.27-2.08-7.28,1.76-10.06Z"/>
        <path class="cls-24" d="M16.93,127.43v10.51c-.87-1-2.3-2-2.49-3.11a48,48,0,0,1-.11-7.4Z"/>
        <path class="cls-44" d="M71.15,217.51c.7-.89,1.48-1.9,2.26-2.91.28,1.16.92,2.37.76,3.47s-1.07,2.34-1.66,3.5Z"/>
        <path class="cls-45" d="M22.68,226l-1.43,3.45a7.65,7.65,0,0,1-1.62-2.28c-.16-.6.5-1.42.8-2.14Z"/>
        <path class="cls-46" d="M67,212.76l-2.25,1c-.3-.72-1-1.55-.8-2.15a7.6,7.6,0,0,1,1.63-2.27Z"/>
        <path class="cls-47" d="M25,195.43l-1.51,2.95c-.44-.67-1.28-1.38-1.22-2a13.55,13.55,0,0,1,1.22-3.27Z"/>
        <path class="cls-37" d="M30,159l2.61,3.27-2.61,2Z"/>
        <path class="cls-37" d="M27.36,156.33,30,159Z"/>
        <path class="cls-48" d="M89.9,198.38v-2.63l2.61,2.63Z"/>
        <path class="cls-49" d="M29.59,202.7l-.93.93a8.25,8.25,0,0,1-.82-1.76c0-.22.53-.57.82-.86Z"/>
        <path class="cls-50"
              d="M27.36,122.17H24.75l-2.61-2.63a97.63,97.63,0,0,0-.12-10c-.11-1.13-1.61-2.11-2.48-3.15q1.3-3.94,2.6-7.89H37.78v2.63c-2,.4-5-1.3-5.21,2.63-1.25,0-3.17-.51-3.63.1-1.16,1.53-5.18,1.9-2.83,5.11,1.81,2.49,4.07,4.52,7,.94.42-.53,1.4-.61,2.11-.9v5.26c-2,.4-5-1.3-5.21,2.63C26.06,117.14,27.75,120.18,27.36,122.17Z"/>
        <path class="cls-51"
              d="M30,98.52H22.14q-1.29-7.87-2.6-15.76h2.6c5.37,3.34,9.35,3.48,16.19.82A23.65,23.65,0,0,1,43,82.76c.22,3.93,3.24,2.23,5.21,2.62V88L43,90.64c-3.53-.88-7-2.09-10.61-2.51-2.38-.28-6.22-.29-7.09,1.08C23.08,92.68,27.56,94,29,96.3A14,14,0,0,1,30,98.52Z"/>
        <path class="cls-52"
              d="M48.2,85.38c-2-.39-5,1.31-5.21-2.62l2.26-1.67c-3.51-2.23-1.91-5.79-2.26-8.84a46,46,0,0,1,7.34.11c1.14.19,2.06,1.64,3.09,2.51a35.86,35.86,0,0,1-1.75,5.61A37.22,37.22,0,0,1,48.2,85.38Z"/>
        <path class="cls-53"
              d="M19.54,106.41c.87,1,2.37,2,2.48,3.15a97.63,97.63,0,0,1,.12,10c-.86.88-1.73,1.76-2.6,2.63Z"/>
        <path class="cls-24"
              d="M19.54,122.17c.87-.87,1.74-1.75,2.6-2.63l2.61,2.63a46.76,46.76,0,0,1-.12,7.4c-.18,1.15-1.62,2.08-2.49,3.11-1-2.58,2.42-6.65-2.6-7.88Z"/>
        <path class="cls-54"
              d="M22.14,82.76h-2.6a7.52,7.52,0,0,1,.06-2.56A9.85,9.85,0,0,1,21.29,78a11.92,11.92,0,0,1,.82,2.22A15.85,15.85,0,0,1,22.14,82.76Z"/>
        <path class="cls-24" d="M19.54,127.43H16.93l2.61-2.63Z"/>
        <path class="cls-55"
              d="M74.26,14.43c5.86,2.81,11.43,5.46,14.07,12.5a11.45,11.45,0,0,1,.09,9c-1.67,4.88-4.72,9.64-3.73,15.25l-2.61,2.63L71.66,59.11l-7.82,5.25a46,46,0,0,1-7.34-.12c-1.13-.18-2.06-1.63-3.08-2.51V59.11a28,28,0,0,0,1.63-3c1.11-2.84,3-5.92-1.63-7.52l-2.61-5.26c5.07-6.17,5-6.15.93-10.93a8.12,8.12,0,0,1-.93-2.21c-.53-5.47-6.48-.4-7.63-3.9-.76-2.3,0-5.73-3.63-1.84-1.72,1.86-3.27,4.36-5.43,5.19s-5.81,2.74-6.76-2.08c1.6-1.75,2.89-4.1,4.86-5.14,6.71-3.55,13.6-6.78,21.2-8Z"/>
        <path class="cls-55"
              d="M43,69.62c-6.33-.51-6.32-.52-16.34-7.24a11.7,11.7,0,0,0-2.33-.66c-1.88-.68-2.6,4.37-4.65,1.13-.78-1.22-.44-3.5,0-5.12,2.23-8.06,2.23-8.5-2.75-17V38.08l5.21-5.25c2.28.21,5.15-1.13,5.35,3.27.14,3.19,3.23,1.62,5.08,2q-1.18,6.45,5.21,5.26V46L35.17,48.6v7.88c.4,2-1.29,5,2.61,5.25,1.1.88,2.27,2.59,3.27,2.49,4.43-.44,5,1.92,4.55,5.4ZM24.22,38.19c-1,.6-2,1-2,1.29a19.93,19.93,0,0,0,.8,3.44c.58-.33,1.61-.63,1.63-1A20,20,0,0,0,24.22,38.19Z"/>
        <path class="cls-22"
              d="M37.78,43.34c-4.26.8-6-1-4.45-6.46.25-.8-.26-.38-.76,0l1.16,1.17a11.87,11.87,0,0,0,1.16-1.58c0-.09-.5-.52-1.56.38-2.61.84-5.7,2.41-5.84-.78-.2-4.4-3.07-3.06-5.35-3.27l5.22-5.26c.95,4.82,4.67,2.88,6.76,2.08s3.71-3.33,5.43-5.19c3.59-3.89,2.87-.46,3.63,1.84,1.15,3.5,7.1-1.57,7.63,3.9H43l-2.6,2.63c-5,1.23-1.62,5.3-2.61,7.88Z"/>
        <path class="cls-22" d="M22.14,32.83l-5.21,5.25Q15.75,31.63,22.14,32.83Z"/>
        <path class="cls-56" d="M18.61,24.57l-1.68-.94c.29-.29.64-.87.86-.82a8.41,8.41,0,0,1,1.75.82Z"/>
        <path class="cls-57"
              d="M43,69.62H45.6C51.26,71.46,55.88,67,61.23,67c.4,2-1.29,5,2.61,5.26L61.23,77.5h-2.6l-5.21-2.63c-1-.87-2-2.32-3.09-2.51A46,46,0,0,0,43,72.25Z"/>
        <path class="cls-58"
              d="M89.9,193.12c-.22-2.28,1.15-5.44-3.22-5.38-.65,0-1.33-1.63-2-2.5L89.9,180l2.61-2.62h5.21c1.56,1.75,3,4.77,4.7,5,4.22.54,2.87,3.27,3.12,5.51l-2.17.86,2.17,1.76-7.82,5.26C96.5,190.69,92.46,194.12,89.9,193.12Z"/>
        <path class="cls-59"
              d="M116,227.28c-5.26-2.82-5.24-7.8-2.35-11.29,2.72-3.29,0-4.81-.26-7.1l2.61-2.63,7.82,2.63c.39,2-1.3,5,2.6,5.25,5.48,6.57,5.48,6.57,0,13.14-.87-.87-1.73-1.75-2.6-2.63-.81-2.58,2.11-7.23-2-7.61-6.19-.58-2.1,5-3.22,7.61Z"/>
        <path class="cls-60"
              d="M105.54,187.87c-.25-2.24,1.1-5-3.12-5.51-1.75-.23-3.14-3.25-4.7-5,.87-.88,1.73-1.76,2.6-2.63h5.22c.22,3.93,3.23,2.23,5.21,2.63.33,7.77.33,7.79,6.81,7.87,2.94,0,5.88,0,8.82,0a5.52,5.52,0,0,1,0,1.21c-6.94,1.39-13.89,2.71-20.83,4Z"/>
        <path class="cls-61"
              d="M126.38,198.38c6.65,4.91,6.86,5.74,2.61,10.51l-2.61-2.63v-2.63l-2.6-2.62C124.65,200.13,125.51,199.25,126.38,198.38Z"/>
        <path class="cls-62"
              d="M126.38,198.38c-.87.87-1.73,1.75-2.6,2.63h-5.21L116,198.38C119.26,194.82,123.09,194.82,126.38,198.38Z"/>
        <path class="cls-63" d="M116,198.38l2.61,2.63c-3.9.22-2.22,3.26-2.61,5.25l-2.61,2.63V201Z"/>
        <path class="cls-64" d="M126.38,206.26l2.61,2.63-2.61,5.25c-3.9-.22-2.21-3.26-2.6-5.25Z"/>
        <path class="cls-65" d="M89.9,193.12c2.56,1,6.6-2.43,7.82,2.63-.22,3.93-3.24,2.23-5.21,2.63l-2.61-2.63Z"/>
        <path class="cls-59" d="M113.35,201v7.88C109.78,206.25,109.78,203.65,113.35,201Z"/>
        <path class="cls-66" d="M116,227.28l2.61-2.63h5.21v2.63Z"/>
        <path class="cls-67" d="M123.78,227.28v-2.63c.87.88,1.73,1.76,2.6,2.63Z"/>
        <path class="cls-68"
              d="M147.23,111.66c-3,.91-4.56,2.76-5.38,6.07s-4.44,2.11-6.38,1.39c-1-.36-1.59-3.92-1.08-5.64s2.66-3.16,4-4.77c1.66-2,1.64-4.88-.86-4.68-4.77.39-2.1-5.1-5.31-5.57-2.11-.3-5.44,1.77-5.87-2.56V90.64c1-.88,2-2.39,3.13-2.51a96.07,96.07,0,0,1,9.9-.12,9.25,9.25,0,0,1,0,2.47c-1.82,6.22-1.44,7,4.17,8a21.51,21.51,0,0,0,3.68,0h2.61C146.41,102.39,147.3,107.12,147.23,111.66Z"/>
        <path class="cls-69"
              d="M139.41,88a96.07,96.07,0,0,0-9.9.12c-1.12.12-2.09,1.63-3.13,2.51q-2.59-3.94-5.21-7.88c1.74-2,3.43-4,5.24-5.92a18.69,18.69,0,0,1,2.58-2c4.27,1.93,7.15,7.38,13,5.26C141,82.71,144.43,86.78,139.41,88Z"/>
        <path class="cls-70"
              d="M129,74.87a18.69,18.69,0,0,0-2.58,2c-1.81,1.92-3.5,3.94-5.24,5.92-2-.4-5,1.3-5.21-2.63a62.3,62.3,0,0,1,1.72-7.85c.3-.87,1.91-1.29,2.92-1.92L116,69.62c.87-2.2,1.87-4.35,2.57-6.6.89-2.86-1.58-6.39,1.7-8.8.31,2.85-.07,6.05,1.1,8.49C123.38,67,126.38,70.84,129,74.87Z"/>
        <path class="cls-71"
              d="M84.69,59.11q1.31,2.63,2.6,5.25c-5,1.23-1.61,5.3-2.6,7.89V82.76H79.48c-.12-5,1.15-10.28-4.28-13.75-.92-.58-.66-3.05-.94-4.65a37.09,37.09,0,0,1,4.87-3.49A33,33,0,0,1,84.69,59.11Z"/>
        <path class="cls-72"
              d="M116,69.62l4.64.74c-1,.63-2.62,1-2.92,1.92A62.3,62.3,0,0,0,116,80.13c-.95-.52-1.88-1.39-2.85-1.45-.76,0-1.57.93-2.36,1.45h-2.61q1.19-6.45-5.21-5.26,1.18-6.45-5.21-5.25H92.51L89.9,67c4.41-.89,9.18,1.81,13.44-1.5.49-.39,2.78.63,3.42,1.57C109.21,70.6,112.72,69.47,116,69.62Z"/>
        <path class="cls-73"
              d="M139.41,88c5-1.23,1.62-5.3,2.61-7.88L143.78,78l3.45,10V98.52a21.51,21.51,0,0,1-3.68,0c-5.61-1-6-1.79-4.17-8A9.25,9.25,0,0,0,139.41,88Z"/>
        <path class="cls-74"
              d="M89.9,67l2.61,2.63c0,7.39,0,7.39,5.21,7.88l-2.61,5.26L89.9,80.13c0-7.4,0-7.4-5.21-7.88,1-2.59-2.42-6.66,2.6-7.89Z"/>
        <path class="cls-75"
              d="M84.69,59.11a33,33,0,0,0-5.56,1.76,37.09,37.09,0,0,0-4.87,3.49c-3.89-.22-2.21-3.26-2.6-5.25l10.42-5.26Z"/>
        <path class="cls-76"
              d="M106.15,55.27l-1.88,3.8c-1.32-2-2.67-3.92-3.82-6a8.67,8.67,0,0,1,2.42-1.75A33.59,33.59,0,0,1,106.15,55.27Z"/>
        <path class="cls-77" d="M147.23,98.52V88c.87,1,2.31,2,2.49,3.11a46.78,46.78,0,0,1,.12,7.4Z"/>
        <path class="cls-78" d="M105.74,27.9l-1.51,2.3A13.51,13.51,0,0,1,103,26.93c-.07-.61.78-1.32,1.21-2Z"/>
        <path class="cls-79"
              d="M99.79,32.73c-1-.6-2-1-2-1.3a18.42,18.42,0,0,1,.8-3.44c.57.33,1.61.63,1.63,1A20.23,20.23,0,0,1,99.79,32.73Z"/>
        <path class="cls-80"
              d="M141.92,61.2a19.84,19.84,0,0,1-3.72.45c-.35,0-.65-1.07-1-1.65a18.12,18.12,0,0,1,3.41-.8C140.94,59.17,141.32,60.23,141.92,61.2Z"/>
        <path class="cls-81" d="M146.3,71.87l-1.67-.94c.28-.29.64-.87.85-.82a8.18,8.18,0,0,1,1.75.82Z"/>
        <path class="cls-75" d="M82.08,53.85l2.61-2.63Z"/>
        <path class="cls-82" d="M111.12,46.9l.93-.93a8.25,8.25,0,0,1,.82,1.76c0,.22-.53.57-.82.87Z"/>
        <path class="cls-83" d="M96.79,40.33l-1.68-.93c.29-.29.64-.87.86-.82a7.93,7.93,0,0,1,1.75.82Z"/>
        <path class="cls-84"
              d="M116,109c-.42,8.48,1.58,16.28,4.13,24.47,3,9.52,1.92,19.25-5.23,28.57-6.8,8.86-15.61,10.27-24.75,12.68-2.71.72-5.35,1.73-8,2.61l-13-2.63c-.6-.88-1-2.22-1.83-2.54-2.79-1.1-5.72-1.84-8.59-2.72-2.73-3.19-5.56-6.3-8.16-9.59s-5.92-6.34-6.89-10c-.56-2.12,3.33-5.17,4.49-8.09.73-1.87.13-4.27.13-6.44,4.19-2.31,8.21-4.74,7.82-10.51l7.82,5.26v2.62c-2,.4-5-1.3-5.21,2.63-3.9.23-2.22,3.26-2.61,5.26-5,1.23-1.61,5.29-2.6,7.88-.25,5.18.24,10.06,5.21,13.14h2.6l5.22,5.25h5.21a16.52,16.52,0,0,0,18.24,0h5.21l2.61-2.62h2.6l7.82-5.26,2.61-2.63,2.6-5.25V137.94c-2.4-2.63-4.71-5.34-7.22-7.86-2.71-2.73-5.6-5.28-8.41-7.91l5.21-2.63,2.61-2.62c.86-.88,1.73-1.75,2.6-2.63v-2.63l2.61-2.63,2.6-2-2.6-3.27V98.52l2.6-2.62L116,98.52V109Z"/>
        <path class="cls-85"
              d="M89.9,80.13l5.21,2.63h10.43c1.09.87,2.29,2.6,3.25,2.47,3.14-.42,1.6-3.24,2-5.1.79-.52,1.6-1.49,2.36-1.45,1,.06,1.9.93,2.85,1.45.22,3.93,3.24,2.23,5.21,2.63q2.61,3.93,5.21,7.88V95.9l-7.81,5.25L116,98.52l-2.61-2.62c-2.29-4.22-4.7-8.28-10.42-7.89-.22-3.93-3.24-2.23-5.21-2.63a46,46,0,0,1-7.34-.11c-1.14-.19-2.06-1.64-3.09-2.51Z"/>
        <path class="cls-60"
              d="M131.6,177.36,129,180h-2.61c-.22-3.93-3.23-2.23-5.21-2.62l-2.6-2.63h-5.22L116,172.1h10.42l2.61,2.63Z"/>
        <path class="cls-86"
              d="M125,135.39a55,55,0,0,1-2.89-5.84c-.18-.48.64-1.61,1.27-2.07a9,9,0,0,1,3.25-1.55,30.9,30.9,0,0,1,4.43-.36c-.26,1.5-.08,3.3-.86,4.42A45.43,45.43,0,0,1,125,135.39Z"/>
        <path class="cls-38" d="M69.05,174.73l13,2.63V180h-2.6C75,180.19,70.51,180.54,69.05,174.73Z"/>
        <path class="cls-38" d="M89.9,180l-5.21,5.26V180Z"/>
        <path class="cls-87" d="M116,109v-7.88h2.61C117.57,103.74,121,107.8,116,109Z"/>
        <path class="cls-58" d="M110.75,177.36c-2-.4-5,1.3-5.21-2.63h5.21Z"/>
        <path class="cls-58" d="M100.32,174.73c-.87.87-1.73,1.75-2.6,2.63C98.59,176.48,99.45,175.6,100.32,174.73Z"/>
        <path class="cls-29" d="M110.75,177.36v-2.63h2.6C112.48,175.6,111.62,176.48,110.75,177.36Z"/>
        <path class="cls-38" d="M92.51,177.36,89.9,180Z"/>
        <path class="cls-88"
              d="M129,174.73l-2.61-2.63c-.41-4.31-3.77-2-5.8-2.66a9.92,9.92,0,0,1-2-1.29c2-1.31,3.89-3.06,6.09-3.8,1.75-.58,4.39-.74,4.34,2.66C129,169.58,129,172.15,129,174.73Z"/>
        <path class="cls-89"
              d="M121.38,180a27.39,27.39,0,0,1,3.74.06c.47.07.85.78,1.26,1.2-.63.46-1.22,1.19-1.92,1.31a12,12,0,0,1-3.74,0c-1.53-.22-3-.7-4.55-1.07,1.32-.51,2.63-1,4-1.51A4,4,0,0,1,121.38,180Z"/>
        <path class="cls-29" d="M118.57,174.73l2.6,2.63Z"/>
        <path class="cls-90"
              d="M58.63,169.47c2.87.88,5.8,1.62,8.59,2.72.82.32,1.23,1.66,1.83,2.54-3.27.16-6.8-1-9.22,2.66-2.67,4.05-5.44,3-8-.31A18.49,18.49,0,0,0,50,175.24c-1.95-1.94-6.77,1.9-6.86-3.07,0-2.65,1.64-5.31,2.41-8a9.65,9.65,0,0,0,0-2.58c2.19,1.77,4.68,3.28,6.49,5.39A6.79,6.79,0,0,0,58.63,169.47Z"/>
        <path class="cls-90"
              d="M32.57,151.08c.87-1,2.3-2,2.49-3.11a48,48,0,0,0,.11-7.4h2.61c0,1.72.11,3.45,0,5.16-.42,5.48.06,10.23,7,11.25.51.08.6,3,.89,4.61-2.51-.88-5-1.89-7.52-2.6C34,157.86,32.06,155.37,32.57,151.08Z"/>
        <path class="cls-27"
              d="M27.36,122.17c.39-2-1.3-5,2.6-5.25q2.61,11.82,5.21,23.65C26,137.27,27.16,129.51,27.36,122.17Z"/>
        <path class="cls-24" d="M19.54,135.31v-2.63h2.6Z"/>
        <path class="cls-91" d="M22.14,132.68h-2.6V124.8C24.56,126,21.15,130.1,22.14,132.68Z"/>
        <path class="cls-92"
              d="M30,98.52A14,14,0,0,0,29,96.3c-1.47-2.34-6-3.62-3.74-7.09.87-1.37,4.71-1.36,7.09-1.08,3.59.42,7.08,1.63,10.61,2.51V95.9l-2.6,2.62H30Z"/>
        <path class="cls-93"
              d="M35.17,109c-.71.29-1.69.37-2.11.9-2.88,3.58-5.14,1.55-7-.94-2.35-3.21,1.67-3.58,2.83-5.11.46-.61,2.38-.1,3.63-.1C36.47,104,34.78,107,35.17,109Z"/>
        <path class="cls-27"
              d="M35.17,109c-.39-2,1.3-5-2.6-5.25.22-3.93,3.23-2.23,5.21-2.63a97.82,97.82,0,0,1-.12,10c-.11,1.12-1.62,2.1-2.49,3.15Z"/>
        <path class="cls-27" d="M30,116.92c.22-3.93,3.24-2.23,5.21-2.63C35,118.22,31.94,116.52,30,116.92Z"/>
        <path class="cls-27" d="M37.78,98.52h2.61l-2.61,2.63Z"/>
        <path class="cls-94"
              d="M37.78,101.15l2.61-2.63L43,95.9V90.64L48.2,88c4.28-1.92,7.15-7.38,13-5.25,1.23,5.06,5.26,1.62,7.82,2.62V88H63.84c-2.43.26-5.05,0-7.23.88-3.56,1.45-2.7,7.65-7.88,8.14-.4,0-.46,4.65-.5,7.13-.08,4.25,0,8.5,0,12.76L43,119.54c-6.19,1.65-6,6.81-5,11.19.88,4.06,5.05,1.17,7.62,2-1.1.88-2.28,2.59-3.28,2.49-4.42-.44-5,1.92-4.54,5.4H35.17q-2.6-11.83-5.21-23.65c2-.4,5,1.3,5.21-2.63.87-1.05,2.38-2,2.49-3.15A97.82,97.82,0,0,0,37.78,101.15ZM43,107.24c2.87,1.1-3,5.11,1.73,6.62.29-2.46.63-4.92.86-7.39a15.17,15.17,0,0,0-.06-3.87c-.08-.42-1.05-.78-1.67-1-.18-.06-.79.54-.82.87C42.93,103.79,43,105.09,43,107.24Z"/>
        <path class="cls-95"
              d="M61.23,82.76c-5.88-2.13-8.75,3.33-13,5.25V85.38a37.22,37.22,0,0,0,3.47-4.9,35.86,35.86,0,0,0,1.75-5.61l5.21,2.63Q59.94,80.13,61.23,82.76Z"/>
        <path class="cls-57"
              d="M71.66,59.11c.39,2-1.29,5,2.6,5.25.28,1.6,0,4.07.94,4.65,5.43,3.47,4.16,8.78,4.28,13.75l-5.22,2.62H69.05c1.12-5.51-2.46-11.66,2.22-16.69-1.17-.56-2.46-1.75-3.49-1.55-1.42.28-2.64,1.6-3.94,2.48V64.36Z"/>
        <path class="cls-96"
              d="M37.78,40.71c1-2.58-2.42-6.65,2.61-7.88H43v2.63l-2.16.86L43,38.08c.22,3.94,3.24,2.24,5.21,2.63l2.61,2.63,2.61,5.26-2.61,2.62q-5.2-4.24-10.42,0L37.78,48.6V46l2.61-2.63Z"/>
        <path class="cls-22"
              d="M63.84,64.36V67H61.23c-5.35,0-10,4.47-15.63,2.63.46-3.48-.12-5.84-4.55-5.4-1,.1-2.17-1.61-3.27-2.49H53.42c1,.88,1.95,2.33,3.08,2.51A46,46,0,0,0,63.84,64.36Z"/>
        <path class="cls-97"
              d="M48.2,30.2h2.61a8.12,8.12,0,0,0,.93,2.21c4.12,4.78,4.14,4.76-.93,10.93L48.2,40.71V30.2Z"/>
        <path class="cls-98" d="M50.81,51.22l2.61-2.62c4.62,1.6,2.74,4.68,1.63,7.52a28,28,0,0,1-1.63,3H48.2Z"/>
        <path class="cls-99" d="M48.2,59.11h5.22v2.62H37.78V59.11l2.61-2.63Z"/>
        <path class="cls-100" d="M40.39,56.48l-2.61,2.63-2.61-2.63V48.6h2.61l2.61,2.62Z"/>
        <path class="cls-22" d="M35.17,56.48l2.61,2.63v2.62C33.88,61.51,35.57,58.47,35.17,56.48Z"/>
        <path class="cls-22"
              d="M24.22,38.19a20,20,0,0,1,.44,3.74c0,.36-1.05.66-1.63,1a19.93,19.93,0,0,1-.8-3.44C22.21,39.17,23.26,38.79,24.22,38.19Z"/>
        <path class="cls-22" d="M37.78,48.6H35.17L37.78,46Z"/>
        <path class="cls-22" d="M40.39,43.34,37.78,46V43.34Z"/>
        <ellipse class="cls-101" cx="45.6" cy="31.52" rx="3.69" ry="1.86"/>
        <path class="cls-102" d="M43,30.2v2.63h-2.6Z"/>
        <path class="cls-102" d="M40.39,43.34H37.78V40.71Z"/>
        <path class="cls-55" d="M34.08,35.67c.31.31.86.74.81.83a11.87,11.87,0,0,1-1.16,1.58l-1.16-1.17Z"/>
        <path class="cls-95"
              d="M63.84,69.62c1.3-.88,2.52-2.2,3.94-2.48,1-.2,2.32,1,3.49,1.55-4.68,5-1.1,11.18-2.22,16.69-2.56-1-6.59,2.44-7.82-2.62,1.85-.37,4.7,1.22,5.15-2,.6-4.39-2.87-3-5.15-3.27l2.61-5.25Z"/>
        <path class="cls-103"
              d="M61.23,77.5c2.28.22,5.75-1.12,5.15,3.27-.45,3.21-3.3,1.62-5.15,2q-1.29-2.64-2.6-5.26Z"/>
        <path class="cls-104" d="M63.84,69.62v2.63C59.94,72,61.63,69,61.23,67h2.61Z"/>
        <path class="cls-105" d="M105.54,187.87v2.62l-2.17-1.76Z"/>
        <path class="cls-106" d="M126.38,206.26l-2.6,2.63L116,206.26c.39-2-1.29-5,2.61-5.25h5.21l2.6,2.62Z"/>
        <path class="cls-107"
              d="M123.78,224.65h-5.21c1.12-2.61-3-8.19,3.22-7.61C125.89,217.42,123,222.07,123.78,224.65Z"/>
        <path class="cls-62" d="M126.38,203.63l-2.6-2.62Z"/>
        <path class="cls-87"
              d="M74.26,85.38l5.22-2.62h7.81c1,.87,1.95,2.32,3.09,2.51a46,46,0,0,0,7.34.11c.22,3.94,3.23,2.24,5.21,2.63,5.72-.39,8.13,3.67,10.42,7.89l-2.6,2.62-5.21-2.62c-4.68-6.71-11.72-5.09-18.25-5.26H63.84V88h5.21C71,87.62,74,89.32,74.26,85.38Z"/>
        <path class="cls-108" d="M84.69,72.25c5.21.48,5.21.48,5.21,7.88H84.69Z"/>
        <path class="cls-74" d="M84.69,80.13H89.9l-2.61,2.63h-2.6Z"/>
        <path class="cls-109" d="M97.72,77.5c-5.21-.49-5.21-.49-5.21-7.88h5.21l2.6,5.25Z"/>
        <path class="cls-110" d="M102.93,74.87q6.39-1.19,5.21,5.26l-2.6,2.63Z"/>
        <path class="cls-74" d="M100.32,74.87l-2.6-5.25q6.39-1.2,5.21,5.25Z"/>
        <path class="cls-74"
              d="M105.54,82.76l2.6-2.63h2.61c-.36,1.86,1.18,4.68-2,5.1C107.83,85.36,106.63,83.63,105.54,82.76Z"/>
        <path class="cls-72" d="M100.32,74.87h2.61l2.61,7.89H95.11l2.61-5.26Z"/>
        <path class="cls-111"
              d="M97.72,122.17c2.81,2.63,5.7,5.18,8.41,7.91,2.51,2.52,4.82,5.23,7.22,7.86-.87,1-2.3,2-2.48,3.11a46.78,46.78,0,0,0-.12,7.4c-2.15.88-6,2.78-6.18,2.47-2.57-4.32-4.65.3-6.85.16.81-4.53-.61-8.07-4.24-11-1.5-1.2-2.4-3.18-3.58-4.8v-2.63c-1.22-5.06-5.25-1.62-7.82-2.62-.22-3.94-3.23-2.24-5.21-2.63l-5.21-2.63-2-2.63-3.24,2.63H63.84l-2.61-2.63-2.6-2.63v-2.62L56,114.29V103.78h2.61l2.16-.87-2.16-1.76,5.21-5.25.86,2.17,1.75-2.17,2.6,2.62,2.61,2.63V109l-2.16.87,2.16,1.76c5.28,2.49,8.94,8.25,15.63,7.88l5.22,5.26c.86-.88,1.73-1.75,2.6-2.63Z"/>
        <path class="cls-112"
              d="M58.63,161.59c-5-3.08-5.46-8-5.21-13.14,4.11-1,5.63-3.81,5.21-7.88v-2.63c.87-.88,1.74-1.75,2.6-2.63h5.22v2.63c.39,2-1.3,5,2.6,5.25.07,4.55-.82,9.28,2.61,13.14l-2.16.87L71.66,159l13,2.63v2.63c-5,0-10-.16-15.06.12-1.1.06-2.12,1.63-3.18,2.5l-5.22-5.25-.85-2.18Z"/>
        <path class="cls-113"
              d="M37.78,140.57c-.46-3.48.12-5.84,4.54-5.4,1,.1,2.18-1.61,3.28-2.49L43,119.54l5.21-2.62v18.39c0,2.17.6,4.57-.13,6.44-1.16,2.92-5,6-4.49,8.09,1,3.7,4.34,6.82,6.89,10s5.43,6.4,8.16,9.59A6.79,6.79,0,0,1,52.09,167c-1.81-2.11-4.3-3.62-6.49-5.39-.29-1.6-.38-4.53-.89-4.61-6.89-1-7.37-5.77-7-11.25C37.89,144,37.78,142.29,37.78,140.57Z"/>
        <path class="cls-114"
              d="M48.2,135.31V116.92c0-4.26-.05-8.51,0-12.76,0-2.48.1-7.09.5-7.13,5.18-.49,4.32-6.69,7.88-8.14,2.18-.88,4.8-.62,7.23-.88v2.63H61.23l-2.6,2.63q-2.61,3.95-5.21,7.88c-5.16,3.21-1.85,8.25-2.48,12.39A10.68,10.68,0,0,0,56,124.8C56.41,130.57,52.39,133,48.2,135.31Z"/>
        <path class="cls-115"
              d="M105.54,95.9l5.21,2.62v2.63c-5,1.23-1.62,5.3-2.61,7.88l-10.42,7.89v-2.63l-2.61-2.63V109c3.57-2.64,3.57-5.24,0-7.88V98.52q-1.31-2.62-2.6-5.25Z"/>
        <path class="cls-116"
              d="M97.72,151.08c2.2.14,4.28-4.48,6.85-.16.19.31,4-1.59,6.18-2.47l2.6,2.63-2.6,5.25h-2.61l-2.6,2.63h-2.61l-.86-2.18L100.32,159v2.63c-2,.39-5-1.3-5.21,2.63l-5.21-2.63c.65-.88,1.15-2.3,2-2.54C96,157.88,98.29,155.62,97.72,151.08Z"/>
        <path class="cls-117"
              d="M66.45,135.31H63.84v-5.25l2.61-2.63,2.6-2.63h2.61l5.21,2.63v5.25H74.26l-.85-2.18-1.75,2.18H69.05Z"/>
        <path class="cls-118" d="M66.45,166.84c1.06-.87,2.08-2.44,3.18-2.5,5-.28,10-.12,15.06-.12H89.9v2.62H66.45Z"/>
        <path class="cls-119" d="M97.72,116.92,108.14,109v5.26c-.87.88-1.74,1.75-2.6,2.63l-2.61,2.62-5.21,2.63v-5.25Z"/>
        <path class="cls-116" d="M71.66,166.84H89.9A16.52,16.52,0,0,1,71.66,166.84Z"/>
        <path class="cls-120" d="M63.84,124.8h2.61v2.63l-2.61,2.63L56,124.8c.39-2-1.29-5,2.61-5.26l2.6,2.63Z"/>
        <path class="cls-121" d="M113.35,151.08l-2.6-2.63a46.78,46.78,0,0,1,.12-7.4c.18-1.14,1.61-2.08,2.48-3.11Z"/>
        <path class="cls-122" d="M58.63,140.57c.42,4.07-1.1,6.85-5.21,7.88,1-2.59-2.42-6.65,2.6-7.88Z"/>
        <path class="cls-123" d="M100.32,161.59V159h7.82l-7.82,5.26Z"/>
        <path class="cls-124" d="M89.9,166.84v-5.25l5.21,2.63v2.62Z"/>
        <path class="cls-125" d="M108.14,109c1-2.58-2.41-6.65,2.61-7.88V109Z"/>
        <path class="cls-126" d="M63.84,132.68v2.63H58.63C58.85,131.38,61.86,133.08,63.84,132.68Z"/>
        <path class="cls-127" d="M58.63,140.57H56c.39-2-1.29-5,2.61-5.26v5.26Z"/>
        <path class="cls-87" d="M110.75,109v-5.25l2.6,3.27Z"/>
        <path class="cls-128" d="M100.32,161.59v2.63H95.11C95.33,160.29,98.35,162,100.32,161.59Z"/>
        <path class="cls-129" d="M58.63,161.59l1.75-2.18.85,2.18Z"/>
        <path class="cls-111" d="M108.14,156.33h2.61L108.14,159Z"/>
        <path class="cls-116" d="M95.11,164.22h2.61l-2.61,2.62Z"/>
        <path class="cls-115" d="M102.93,119.54l2.61-2.62Z"/>
        <path class="cls-115" d="M105.54,116.92c.86-.88,1.73-1.75,2.6-2.63C107.27,115.17,106.4,116,105.54,116.92Z"/>
        <path class="cls-115" d="M108.14,109h2.61l-2.61,2.63Z"/>
        <path class="cls-27" d="M118.57,101.15H116V98.52Z"/>
        <path class="cls-87" d="M113.35,95.9,116,98.52Z"/>
        <path class="cls-114" d="M102.93,88c-2-.39-5,1.31-5.21-2.63C99.69,85.78,102.71,84.08,102.93,88Z"/>
        <path class="cls-27" d="M43,95.9l-2.6,2.62Z"/>
        <path class="cls-27" d="M43,119.54l2.61,13.14c-2.57-.78-6.74,2.11-7.62-2C37,126.35,36.8,121.19,43,119.54Z"/>
        <path class="cls-27"
              d="M43,107.24c0-2.15-.06-3.45,0-4.73,0-.33.64-.93.82-.87.62.18,1.59.54,1.67,1a15.17,15.17,0,0,1,.06,3.87c-.23,2.47-.57,4.93-.86,7.39C40,112.35,45.86,108.34,43,107.24Z"/>
        <path class="cls-114" d="M74.26,85.38C74,89.32,71,87.62,69.05,88V85.38Z"/>
        <path class="cls-130" d="M40.39,56.48V51.22q5.2-4.24,10.42,0L48.2,59.11Z"/>
        <path class="cls-131" d="M48.2,35.46v5.25c-2-.39-5,1.31-5.21-2.63V35.46Z"/>
        <ellipse class="cls-132" cx="45.6" cy="34.14" rx="3.69" ry="1.86"/>
        <path class="cls-133" d="M48.2,40.71l2.61,2.63Z"/>
        <path class="cls-102" d="M43,35.46v2.62l-2.16-1.76Z"/>
        <path class="cls-134"
              d="M92.51,93.27q1.29,2.63,2.6,5.25h-2.6q-9.12-5.7-18.25,0l-.85-2.18-1.75,2.18H69.05l-2.6-2.62H63.84l2.61-2.63c.86-.88,1.73-1.75,2.6-2.63H87.29C87.52,94.57,90.53,92.87,92.51,93.27Z"/>
        <path class="cls-120"
              d="M66.45,93.27,63.84,95.9l-5.21,5.25L56,103.78v13.14c-.87-1.06-2.4-2.07-2.48-3.19-.3-4.17-.12-8.38-.12-12.58Q56,97.2,58.63,93.27l2.6-2.63h5.22Z"/>
        <path class="cls-135" d="M92.51,93.27c-2-.4-5,1.3-5.22-2.63,6.53.17,13.57-1.45,18.25,5.26Z"/>
        <path class="cls-136" d="M66.45,93.27V90.64h2.6C68.18,91.52,67.31,92.39,66.45,93.27Z"/>
        <path class="cls-74" d="M100.32,74.87l-2.6,2.63Z"/>
        <path class="cls-137"
              d="M74.26,132.68h7.82l5.21,2.63H89.9c1.18,1.62,2.08,3.6,3.58,4.8,3.63,2.9,5,6.44,4.24,11,.57,4.54-1.76,6.8-5.84,8-.83.24-1.33,1.66-2,2.54H84.69l-13-2.63v-2.63c-3.43-3.86-2.54-8.59-2.61-13.14v-5.25l2.61-2.63C72.53,134.44,73.4,133.56,74.26,132.68ZM90,150.56c-.57-4.24-4.9-9.58-8-9.85-1.83-.16-4.48.53-5.51,1.83-1.39,1.76-2.68,4.93-2,6.7,1,2.59,3.45,5.46,5.94,6.37,2.06.75,5.21-.88,7.61-2C89.2,153,89.69,151.14,90,150.56Z"/>
        <path class="cls-138"
              d="M74.26,98.52q9.12-5.7,18.25,0l2.6,2.63v13.14c-.87.88-1.74,1.75-2.6,2.63l-5.22,2.62c-6.69.37-10.35-5.39-15.63-7.88V98.52Zm5.62,2.56c-.55.22-2.52.55-2.61,1.16a30.15,30.15,0,0,0,.25,6.13c4.67-1.6,5,6.87,9.86,4.35a5.25,5.25,0,0,0,2.36-4.07C89.5,105.81,83.73,101.5,79.88,101.08Z"/>
        <path class="cls-84"
              d="M53.42,101.15c0,4.2-.18,8.41.12,12.58.08,1.12,1.61,2.13,2.48,3.19h2.61v2.62c-3.9.23-2.22,3.27-2.61,5.26a10.68,10.68,0,0,1-5.08-11.26C51.57,109.4,48.26,104.36,53.42,101.15Z"/>
        <path class="cls-139" d="M87.29,119.54l5.22-2.62,2.6,2.62v2.63c-.87.88-1.74,1.75-2.6,2.63Z"/>
        <path class="cls-140" d="M87.29,135.31l-5.21-2.63v-2.62c2.57,1,6.6-2.44,7.82,2.62Z"/>
        <path class="cls-141" d="M76.87,130.06v-2.63c2,.39,5-1.31,5.21,2.63Z"/>
        <path class="cls-142" d="M71.66,124.8H66.45l3.24-2.63Z"/>
        <path class="cls-143" d="M87.29,135.31l2.61-2.63v2.63Z"/>
        <path class="cls-144" d="M92.51,124.8c.86-.88,1.73-1.75,2.6-2.63C94.24,123.05,93.37,123.92,92.51,124.8Z"/>
        <path class="cls-84" d="M63.84,124.8l-2.61-2.63Z"/>
        <ellipse class="cls-145" cx="96.41" cy="120.86" rx="1.84" ry="1.86"/>
        <path class="cls-84" d="M61.23,122.17l-2.6-2.63Z"/>
        <path class="cls-146" d="M71.66,109v2.63L69.5,109.9Z"/>
        <path class="cls-147" d="M58.63,101.15l2.16,1.76-2.16.87Z"/>
        <path class="cls-114" d="M58.63,101.15v2.63H56Z"/>
        <path class="cls-148" d="M71.66,98.52v2.63l-2.61-2.63Z"/>
        <path class="cls-149" d="M63.84,95.9h2.61L64.7,98.07Z"/>
        <path class="cls-114" d="M58.63,116.92H56v-2.63Z"/>
        <path class="cls-150" d="M71.66,135.31l-2.61,2.63h-2.6v-2.63h5.21Z"/>
        <path class="cls-151" d="M66.45,137.94h2.6v5.25C65.15,143,66.84,139.93,66.45,137.94Z"/>
        <ellipse class="cls-116" cx="87.29" cy="162.9" rx="3.69" ry="1.86"/>
        <path class="cls-152" d="M71.66,156.33V159L69.5,157.2Z"/>
        <path class="cls-153" d="M58.63,137.94v-2.63h2.6C60.37,136.19,59.5,137.06,58.63,137.94Z"/>
        <path class="cls-87" d="M61.23,90.64l-2.6,2.63Z"/>
        <path class="cls-154" d="M97.72,119.54H95.11l-2.6-2.62c.86-.88,1.73-1.75,2.6-2.63h2.61v5.25Z"/>
        <path class="cls-135" d="M95.11,109v-7.88C98.68,103.79,98.68,106.39,95.11,109Z"/>
        <path class="cls-155" d="M97.72,114.29H95.11v-2.63Z"/>
        <path class="cls-135" d="M95.11,101.15l-2.6-2.63h2.6Z"/>
        <path class="cls-156" d="M108.14,156.33V159h-2.6Z"/>
        <path class="cls-111" d="M102.93,159h-2.61l1.75-2.18Z"/>
        <path class="cls-157" d="M74.26,132.68c-.86.88-1.73,1.76-2.6,2.63v-2.63l1.75-2.18Z"/>
        <ellipse class="cls-111" cx="79.48" cy="131.37" rx="3.69" ry="1.86"/>
        <ellipse class="cls-157" cx="70.35" cy="134" rx="1.84" ry="1.86"/>
        <path class="cls-158" d="M69.05,132.68v2.63h-2.6Z"/>
        <path class="cls-84" d="M63.84,130.06l2.61-2.63Z"/>
        <path class="cls-84" d="M66.45,124.8h2.6c-.87.88-1.74,1.75-2.6,2.63Z"/>
        <path class="cls-159" d="M74.26,98.52h-2.6l1.75-2.18Z"/>
        <path class="cls-160"
              d="M90,150.56c-.35.58-.84,2.48-2,3-2.4,1.15-5.55,2.78-7.61,2-2.49-.91-4.94-3.78-5.94-6.37-.69-1.77.6-4.94,2-6.7,1-1.3,3.68-2,5.51-1.83C85.14,141,89.47,146.32,90,150.56Z"/>
        <path class="cls-161"
              d="M79.88,101.08c3.85.42,9.62,4.73,9.86,7.57a5.25,5.25,0,0,1-2.36,4.07c-4.82,2.52-5.19-6-9.86-4.35a30.15,30.15,0,0,1-.25-6.13C77.36,101.63,79.33,101.3,79.88,101.08Z"/>
    </g>
</svg>