<svg id="Calque_1" data-name="Calque 1" xmlns="http://www.w3.org/2000/svg" viewBox="0 0 167.24 257.95">
    <defs>
        <style>
            .cls-1{fill:#fefefe;}.cls-2{fill:#18272a;}.cls-3{fill:#20282a;}.cls-4{fill:#101a1b;}.cls-5{fill:#212323;}.cls-6{fill:#0e1314;}.cls-7{fill:#2f2e2f;}.cls-8{fill:#f0dbd6;}.cls-9{fill:#f8e8e5;}.cls-10{fill:#abacae;}.cls-11{fill:#caa2a0;}.cls-12{fill:#f8e4e2;}.cls-13{fill:#fb8e90;}.cls-14{fill:#fc8a8c;}.cls-15{fill:#f97372;}.cls-16{fill:#f20106;}.cls-17{fill:#f50d17;}.cls-18{fill:#e4a9af;}.cls-19{fill:#f85e61;}.cls-20{fill:#fd4743;}.cls-21{fill:#f5686d;}.cls-22{fill:#eb020a;}.cls-23{fill:#fe7376;}.cls-24{fill:#e9735f;}.cls-25{fill:#f62d3e;}.cls-26{fill:#f51126;}.cls-27{fill:#e93f39;}.cls-28{fill:#f4040a;}.cls-29{fill:#feacb0;}.cls-30{fill:#f1191d;}.cls-31{fill:#f3605c;}.cls-32{fill:#ea232b;}.cls-33{fill:#fcadac;}.cls-34{fill:#fc9697;}.cls-35{fill:#f56567;}.cls-36{fill:#fea6a8;}.cls-37{fill:#f96367;}.cls-38{fill:#fc8e8f;}.cls-39{fill:#f96466;}.cls-40{fill:#f33d44;}.cls-41{fill:#f4f3f0;}.cls-42{fill:#f52026;}.cls-43{fill:#f9656b;}.cls-44{fill:#f23138;}.cls-45{fill:#ec2b2e;}.cls-46{fill:#ee0309;}.cls-47{fill:#eb040f;}.cls-48{fill:#f90922;}.cls-49{fill:#fc4542;}.cls-50{fill:#fdbfbe;}.cls-51{fill:#fb9599;}.cls-52{fill:#f9f9f9;}.cls-53{fill:#f40c10;}.cls-54{fill:#f40206;}.cls-55{fill:#f30005;}.cls-56{fill:#fc4844;}.cls-57{fill:#fb413a;}.cls-58{fill:#f82c34;}.cls-59{fill:#fd8585;}.cls-60{fill:#fd4140;}.cls-61{fill:#fb433f;}.cls-62{fill:#fe554b;}.cls-63{fill:#fe5851;}.cls-64{fill:#fe6560;}.cls-65{fill:#ef0c0f;}.cls-66{fill:#f1726e;}.cls-67{fill:#e61539;}.cls-68{fill:#fe3a38;}.cls-69{fill:#d9414e;}.cls-70{fill:#f2000a;}.cls-71{fill:#f40108;}.cls-72{fill:#f10515;}.cls-73{fill:#f1121c;}.cls-74{fill:#fc4c47;}.cls-75{fill:#ed131a;}.cls-76{fill:#e24c49;}.cls-77{fill:#fc574c;}.cls-78{fill:#f8575a;}.cls-79{fill:#fe726f;}.cls-80{fill:#f10208;}.cls-81{fill:#f10c14;}.cls-82{fill:#fd4e47;}.cls-83{fill:#fd383d;}.cls-84{fill:#dd1716;}.cls-85{fill:#fcd8d8;}.cls-86{fill:#fbc6c5;}.cls-87{fill:#f6f0f0;}.cls-88{fill:#f87d82;}.cls-89{fill:#fa6a6f;}.cls-90{fill:#fb7879;}.cls-91{fill:#fc9f9f;}.cls-92{fill:#fe8689;}.cls-93{fill:#fe806e;}.cls-94{fill:#fdb8b7;}.cls-95{fill:#fea5a5;}.cls-96{fill:#fc9395;}.cls-97{fill:#f96b70;}.cls-98{fill:#fa8d90;}.cls-99{fill:#f3f3f3;}.cls-100{fill:#f8f7f7;}.cls-101{fill:#ee292f;}.cls-102{fill:#fe4f45;}.cls-103{fill:#fe615c;}.cls-104{fill:#ed7069;}.cls-105{fill:#f31a2d;}.cls-106{fill:#fe5d58;}.cls-107{fill:#f80001;}.cls-108{fill:#fd4844;}.cls-109{fill:#fb0007;}.cls-110{fill:#ed0e14;}.cls-111{fill:#f4b2b9;}.cls-112{fill:#f97a7c;}.cls-113{fill:#fd9291;}.cls-114{fill:#eae6e5;}.cls-115{fill:#faa1a1;}.cls-116{fill:#fb9094;}.cls-117{fill:#ee8380;}.cls-118{fill:#2c2b29;}.cls-119{fill:#fabeb8;}.cls-120{fill:#786f73;}.cls-121{fill:#0d0d0d;}.cls-122{fill:#e53a3a;}.cls-123{fill:#e7fbf8;}.cls-124{fill:#fdbcb2;}.cls-125{fill:#575757;}.cls-126{fill:#2a2a2a;}.cls-127{fill:#383b39;}.cls-128{fill:#111;}.cls-129{fill:#040404;}.cls-130{fill:#f74e50;}.cls-131{fill:#fe5b53;}.cls-132{fill:#ef2427;}.cls-133{fill:#fe5e54;}.cls-134{fill:#fc3335;}.cls-135{fill:#fe4b48;}.cls-136{fill:#fe6159;}.cls-137{fill:#cc130a;}.cls-138{fill:#fd615a;}.cls-139{fill:#fd5b5e;}.cls-140{fill:#fe6e68;}.cls-141{fill:#fe5248;}.cls-142{fill:#f32a2f;}.cls-143{fill:#fe6965;}.cls-144{fill:#fe6e66;}.cls-145{fill:#d74545;}.cls-146{fill:#434242;}.cls-147{fill:#3f3f3f;}.cls-148{fill:#fb8d8e;}.cls-149{fill:#f58f8e;}.cls-150{fill:#fdd6d4;}.cls-151{fill:#1a070e;}.cls-152{fill:#f9e4e1;}.cls-153{fill:#1d1c1e;}.cls-154{fill:#f5c5cb;}.cls-155{fill:#312c2f;}.cls-156{fill:#100e11;}.cls-157{fill:#2c2d2d;}.cls-158{fill:#171514;}.cls-159{fill:#e7afb3;}.cls-160{fill:#0d0c10;}.cls-161{fill:#f2eced;}.cls-162{fill:#2e2e31;}.cls-163{fill:#272124;}.cls-164{fill:#111112;}.cls-165{fill:#fc9197;}.cls-166{fill:#0e1718;}.cls-167{fill:#111211;}.cls-168{fill:#111413;}.cls-169{fill:#141314;}.cls-170{fill:#19191e;}.cls-171{fill:#feafa5;}.cls-172{fill:#e7777b;}.cls-173{fill:#f9686d;}.cls-174{fill:#fe8787;}.cls-175{fill:#fe938c;}.cls-176{fill:#fed4cf;}.cls-177{fill:#d68e8c;}.cls-178{fill:#343434;}.cls-179{fill:#3f403f;}.cls-180{fill:#72696b;}.cls-181{fill:#1a0f17;}.cls-182{fill:#2d2626;}.cls-183{fill:#4f4a53;}.cls-184{fill:#ed7e82;}.cls-185{fill:#fd5e5e;}.cls-186{fill:#fb8587;}.cls-187{fill:#f73840;}.cls-188{fill:#ef7272;}.cls-189{fill:#fe6a61;}.cls-190{fill:#f97278;}.cls-191{fill:#f9716f;}.cls-192{fill:#d7d7d6;}.cls-193{fill:#f12726;}.cls-194{fill:#fb1b2f;}.cls-195{fill:#fa0324;}.cls-196{fill:#fe877b;}.cls-197{fill:#f43c44;}.cls-198{fill:#f03f39;}.cls-199{fill:#f7484e;}.cls-200{fill:#fb7d7d;}.cls-201{fill:#fe5856;}.cls-202{fill:#fde9ed;}.cls-203{fill:#0a0909;}.cls-204{fill:#140d0e;}.cls-205{fill:#1f211f;}.cls-206{fill:#191718;}.cls-207{fill:#0c0e0d;}.cls-208{fill:#fe9ea2;}.cls-209{fill:#fe9f9f;}.cls-210{fill:#fa9190;}.cls-211{fill:#fea2a0;}.cls-212{fill:#0f0d0e;}.cls-213{fill:#3e3e3e;}.cls-214{fill:#121313;}.cls-215{fill:#2b2f2e;}.cls-216{fill:#0e0c0e;}.cls-217{fill:#fe8581;}.cls-218{fill:#fe7277;}.cls-219{fill:#dbd9da;}.cls-220{fill:#050303;}.cls-221{fill:#fe6a64;}.cls-222{fill:#fe6b6a;}.cls-223{fill:#fe9f96;}.cls-224{fill:#fe8684;}.cls-225{fill:#f2d5d4;}
        </style>
    </defs>
    <g id="uVtP5p.tif">
        <path class="cls-1"
              d="M165.74,247.94c0,3.5,1.36,8.37-.38,10.12s-6.56.39-10,.39q-76.13,0-152.26.1c-3.39,0-4-.63-4-4Q-.75,129.76-1,5C-1-.33,1.81,1.28,4.37,1.08L1.77,6.33V250.57L7,255.82H76.9c25.9,0,51.8,0,77.71-.09,2.07,0,5.47,1.84,5.93-2.54,3.89-.22,2.21-3.26,2.6-5.25Z"/>
        <ellipse class="cls-2" cx="164.44" cy="128.45" rx="1.84" ry="168.99"/>
        <path d="M7,1.08H160.54L157.93,3.7H7Z"/>
        <path class="cls-3" d="M157.93,3.7l2.61-2.62h2.6V9h-2.6l-2.61-2.63Z"/>
        <path class="cls-1" d="M163.14,9V1.08c.87.44,2.41.78,2.48,1.33A49.27,49.27,0,0,1,165.74,9Z"/>
        <path class="cls-4" d="M7,1.08V6.33H1.77l2.6-5.25Z"/>
        <ellipse cx="3.07" cy="128.45" rx="1.84" ry="172.7"/>
        <path d="M160.54,253.19c-.46,4.38-3.86,2.53-5.93,2.54-25.91.13-51.81.09-77.71.09H7v-2.63H160.54Z"/>
        <path class="cls-5" d="M160.54,253.19h-2.61v-2.62l2.61-2.63h2.6C162.75,249.93,164.43,253,160.54,253.19Z"/>
        <path class="cls-6" d="M7,253.19v2.63l-5.2-5.25H7Z"/>
        <path class="cls-7" d="M163.14,247.94h-2.6V9h2.6Z"/>
        <ellipse class="cls-8" cx="82.45" cy="5.02" rx="106.75" ry="1.86"/>
        <path class="cls-9"
              d="M7,6.33h151L160.54,9V82.49h-2.61c0-21.66,0-43.31-.08-65,0-2.09,1.79-5.49-2.52-5.94-.45-4.36-3.83-2.53-5.91-2.54C120.16,8.92,90.89,9,61.63,9H46c-10.19,0-20.39-.08-30.58.11-1.1,0-2.17,1.64-3.25,2.51-.87.69-2.49,1.38-2.5,2.07q-.19,36,0,72c0,.7,1.63,1.38,2.5,2.07V98.25a52.94,52.94,0,0,0,0,34.14V247.94c-.23,3.93-3.24,2.23-5.21,2.63Z"/>
        <ellipse class="cls-10" cx="5.67" cy="128.45" rx="1.84" ry="172.7"/>
        <path class="cls-11"
              d="M7,250.57c2-.4,5,1.3,5.21-2.63H22.59c.68.88,1.36,2.51,2.05,2.52q37,.19,74,0c.69,0,1.37-1.64,2-2.52h54.66l2.6,2.63v2.62H7Z"/>
        <path class="cls-12"
              d="M157.93,250.57l-2.6-2.63c5-1.58,2.46-5.79,2.47-8.6.18-52.28.13-104.57.13-156.85h2.61V247.94Z"/>
        <path class="cls-13"
              d="M12.18,132.39a52.94,52.94,0,0,1,0-34.14l13-2.63c2.35,2.81,4.3,6.15,7.14,8.29,3.74,2.82,3.25,6.4,3.27,10.09-2.65.88-5.34,1.67-7.93,2.68-.75.3-1.25,1.24-1.86,1.89a7.66,7.66,0,0,1,2.27.73,6.94,6.94,0,0,1,1.51,1.94c-3.66,3.19-.95,7.41-1.8,11s-1.73,7.09-2.6,10.63L20,140.27v-2.63c-.86-.88-1.73-1.75-2.6-2.63Zm0-19.9c0,5.24-.08,7.86.07,10.48a2,2,0,0,0,1.59,1.08c2.92-.74,6.31-7.51,4.86-9.94-1.61-2.71-3.62-5.17-5.46-7.75Z"/>
        <path class="cls-8"
              d="M157.93,82.49c0,52.28,0,104.57-.13,156.85,0,2.81,2.57,7-2.47,8.6V234.81c0-5.93.13-11.86-.12-17.78,0-1.11-1.62-2.16-2.48-3.23V200.67c.86-1.08,2.45-2.14,2.48-3.25.24-6.79.12-13.59.12-20.39V11.58c4.31.45,2.51,3.85,2.52,5.94C158,39.18,157.93,60.83,157.93,82.49Z"/>
        <path class="cls-14"
              d="M20,140.27l5.21,2.62H35.6v7.88L25.19,161.28c-1.84-.35-4.43,1.15-5.18-1.93-1-4.19-3.31-6.53-7.83-5.95v-2.63C16.36,148.46,20.38,146,20,140.27Z"/>
        <path class="cls-8"
              d="M61.63,9c29.26,0,58.53,0,87.79.08,2.08,0,5.46-1.82,5.91,2.54H105.88c-10.2,0-20.39-.08-30.58.12-1.1,0-2.17,1.63-3.26,2.51H61.63Z"/>
        <path class="cls-15"
              d="M25.19,95.62l-13,2.63V85.12L20,79.86c1.08.88,2.14,2.49,3.22,2.5,3.87,0,6.19,1.69,7.2,5.38Z"/>
        <path class="cls-16"
              d="M22.59,247.94H12.18v-21c6.49-1,10.45,2.27,13,7.88-.87,1.05-2.37,2-2.48,3.15A97.63,97.63,0,0,0,22.59,247.94Z"/>
        <path class="cls-17"
              d="M12.18,216.43V200.67c3.07-2.49,6.64-2.94,10.41-2.63a38.81,38.81,0,0,1,3.46,4.9,34.81,34.81,0,0,1,1.74,5.61l-2.6,2.62c-.87,1.75-1.73,3.51-2.6,5.26H20l-2.6-2.63-.85-2.18-1.75,2.18C13.91,214.68,13,215.55,12.18,216.43Z"/>
        <path class="cls-18"
              d="M12.18,85.12v2.62c-.87-.69-2.49-1.37-2.5-2.07q-.19-36,0-72c0-.69,1.63-1.38,2.5-2.07V35.22c1,2.58-2.42,6.65,2.6,7.88v2.62l-2.6,2.63c1,2.58-2.42,6.65,2.6,7.88v2.62c-3.89.23-2.21,3.27-2.6,5.26v21Z"/>
        <path class="cls-19"
              d="M12.18,153.4c4.52-.58,6.8,1.76,7.83,5.95.75,3.08,3.34,1.58,5.18,1.93v7.87c-3.83,3.46-8.52,2.56-13,2.63Z"/>
        <path class="cls-20"
              d="M25.19,234.81c-2.56-5.61-6.52-8.88-13-7.88V224.3c7.32,0,7.32,0,7.8-5.25h2.61c0,.42,0,.85,0,1.26.73,7.34,1.81,8.41,6.87,9.33,6.24,1.12,6.11-3.09,6.68-7.09.06-.38,1.35-.59,2.06-.87h2.61q-4.22,5.25,0,10.5C35.49,232.39,29.9,230.94,25.19,234.81Z"/>
        <path class="cls-21" d="M20,140.27c.4,5.76-3.62,8.19-7.8,10.5V132.39l5.2,2.62,2.6,2.63Z"/>
        <path class="cls-8" d="M12.18,11.58c1.08-.87,2.15-2.49,3.25-2.51C25.62,8.88,35.82,9,46,9v2.62H12.18Z"/>
        <path class="cls-22" d="M20,219.05c-.48,5.25-.48,5.25-7.8,5.25v-7.87l2.6-2.63h2.6l2.6,2.63Z"/>
        <path class="cls-23"
              d="M12.18,171.78c4.49-.07,9.18.83,13-2.63v5.26c-4,.29-2,3.5-2.66,5.46-.25.74-1.15,1.27-1.75,1.9l-.8-2.11q1.18-6.45-5.2-5.25h-2.6Z"/>
        <path class="cls-24" d="M46,11.58V9H61.63v5.25H53.82C52.6,9.15,48.57,12.58,46,11.58Z"/>
        <ellipse class="cls-25" cx="13.48" cy="183.6" rx="1.84" ry="13"/>
        <path class="cls-26" d="M22.59,198c-3.77-.31-7.34.14-10.41,2.63v-5.25H22.59Z"/>
        <ellipse class="cls-27" cx="13.48" cy="194.1" rx="1.84" ry="1.86"/>
        <path class="cls-28"
              d="M155.33,234.81v13.13H139.71c-1.82-5.71,2.58-10.36,2.61-15.76h2.6c1.58.29,3.19.48,4.75.88C151.58,233.56,153.44,234.22,155.33,234.81Z"/>
        <path class="cls-29"
              d="M100.67,247.94c-.68.88-1.36,2.51-2,2.52q-37,.19-74,0c-.69,0-1.37-1.64-2.05-2.52H90.26c2.56-1,6.59,2.43,7.81-2.63h2.6Z"/>
        <path class="cls-30"
              d="M142.32,232.18c0,5.4-4.43,10-2.61,15.76H121.49v-5.25c4.44.2,7.78-1.82,10.41-5.25a34,34,0,0,0,5.56-1.77A36.74,36.74,0,0,0,142.32,232.18Z"/>
        <ellipse class="cls-31" cx="107.18" cy="246.63" rx="9.2" ry="1.86"/>
        <ellipse class="cls-32" cx="117.59" cy="246.63" rx="5.52" ry="1.86"/>
        <path class="cls-33"
              d="M35.6,142.89H25.19c.87-3.54,1.76-7.08,2.6-10.63s-1.86-7.83,1.8-11a6.94,6.94,0,0,0-1.51-1.94,7.66,7.66,0,0,0-2.27-.73c.61-.65,1.11-1.59,1.86-1.89,2.59-1,5.28-1.8,7.93-2.68h2.6l5.21,5.26q1.31,9.18,2.6,18.38Z"/>
        <path class="cls-34"
              d="M38.2,114H35.6c0-3.69.47-7.27-3.27-10.09-2.84-2.14-4.79-5.48-7.14-8.29l5.21-7.88,5.2-2.62h2.6c2.24-.24,5.14,1.15,5.34-3.2.11-2.5,1.42-2.54,2.53-.1a17.26,17.26,0,0,0,2.55,3.3c-3.15,5.72-3.18,12.34-5.21,18.38C37.65,105,38,109.52,38.2,114Z"/>
        <path class="cls-35"
              d="M12.18,112.49l1.06-6.13c1.84,2.58,3.85,5,5.46,7.75,1.45,2.43-1.94,9.2-4.86,9.94A2,2,0,0,1,12.25,123C12.1,120.35,12.18,117.73,12.18,112.49Z"/>
        <path class="cls-36" d="M20,137.64,17.38,135Z"/>
        <path class="cls-37"
              d="M155.33,79.86v42l-7.81-2.62V103.5l-2.6-2.63q-2.61-7.87-5.21-15.75c3.9-.23,2.21-3.27,2.61-5.26l2.6-2.62V74.61l5.2,5.25L151,82l1.75-2.18Z"/>
        <path class="cls-38"
              d="M147.52,119.26l7.81,2.62v15.76l-7.81,2.63c-1-.88-2-2.33-3.08-2.51a45.9,45.9,0,0,0-7.33-.12v-10.5c.39-2-1.29-5,2.6-5.26Z"/>
        <path class="cls-39"
              d="M155.33,163.9V177h-5.21c-3.76.32-7.34-.13-10.41-2.62V163.9c3.07-2.49,6.65-2.94,10.41-2.62C150.35,165.2,153.36,163.51,155.33,163.9Z"/>
        <path class="cls-40"
              d="M150.12,177h5.21c0,6.8.12,13.6-.12,20.39,0,1.11-1.62,2.17-2.48,3.25-.4-2,1.29-5-2.61-5.25-.22-3.93-3.23-2.23-5.2-2.63v-10.5c.87-.88,1.73-1.76,2.6-2.63S149.26,177.91,150.12,177Z"/>
        <path class="cls-41"
              d="M142.32,232.18a36.74,36.74,0,0,1-4.86,3.49,34,34,0,0,1-5.56,1.77v-2.63c1-1.48,2.08-4.25,3.11-4.24,8.1,0,8.68-6.59,11.9-11.62a17.78,17.78,0,0,0,3.22-10.46c0-2.61,0-5.22,0-7.82h2.61V213.8c-.16,3.24.6,6.39-2.4,9.27-2.45,2.36-3.65,6-5.41,9.11Z"/>
        <path class="cls-42"
              d="M155.33,43.1V58.85c-1.58-.28-4.52-.49-4.53-.84-.26-5.68-6.15-4.18-8.48-7V45.72l2.6-2.62h2.6l2,2.62,3.24-2.62Z"/>
        <path class="cls-43"
              d="M155.33,163.9c-2-.39-5,1.3-5.21-2.62l2.61-2.63c0-7.39,0-7.39-5.21-7.88v-10.5l7.81-2.63Z"/>
        <path class="cls-44"
              d="M155.33,79.86h-5.21l-5.2-5.25V72l2.6-5.26a15.36,15.36,0,0,0,2.54,0,13.56,13.56,0,0,0,2.2-.8l-2.14-1.79V61.48h5.21Z"/>
        <path class="cls-45"
              d="M144.92,232.18c1.76-3.08,3-6.75,5.41-9.11,3-2.88,2.24-6,2.4-9.27.86,1.07,2.44,2.12,2.48,3.23.25,5.92.12,11.85.12,17.78-1.89-.59-3.75-1.25-5.66-1.75C148.11,232.66,146.5,232.47,144.92,232.18Z"/>
        <path class="cls-46" d="M155.33,43.1h-7.81V40.47c0-10.25,0-10.25,7.81-10.5Z"/>
        <path class="cls-47" d="M137.11,11.58h18.22V27.34h-2.6V24.8c-.07-10.43-.07-10.43-10.41-10.59h-2.61Z"/>
        <path class="cls-48"
              d="M155.33,61.48h-5.21c-1.68,0-3.38.12-5.05,0-4.28-.37-2-2-.61-3.45l-2.14-1.78V51c2.33,2.85,8.22,1.35,8.48,7,0,.35,2.95.56,4.53.84Z"/>
        <path class="cls-49"
              d="M152.73,27.34h2.6V30c-7.81.25-7.81.25-7.81,10.5h-2.6V32.59q-1.3-2.63-2.6-5.25V24.71l5.2,2.63Z"/>
        <path class="cls-50"
              d="M35.6,142.89,46,137.64c4.63-.54,6.72,1.85,7.9,6.17,1.37,5,3.38,9.9,5.12,14.84-3.33,0-6.65.06-10,0-4.24-.09-2.76,3.08-3,5.26h-2.6c.06-6-4.82-9-7.81-13.13v-2.63l2.16-.86-2.16-1.76Z"/>
        <path class="cls-51"
              d="M35.6,150.77c3,4.15,7.87,7.14,7.81,13.13-.87.88-1.74,1.75-2.6,2.63v2.62c-3.57,2.65-3.57,5.24,0,7.88v2.63H35.6c-2.63-3.43-6-5.46-10.41-5.25V161.28Z"/>
        <path class="cls-51" d="M35.6,145.52l2.16,1.76-2.16.86Z"/>
        <path class="cls-52"
              d="M53.82,14.21H72c8.27-1.14,11.89,4.76,15.62,10.5v2.63l-4-2.58V35.17l4-2.58V43.1q-9.12,9.18-18.22,18.38l-7.81,5.25H59c0-.43.09-1.22,0-1.25a50.92,50.92,0,0,0-26,0c-.1,0,0,.82,0,1.25l-2.6,2.63c-4.49.82-8-.61-10.87-4.27-1.19-1.52-3.14-2.42-4.75-3.61V43.1c.55-1.87.65-4.07,1.73-5.53,2.65-3.59,5.76-6.84,8.68-10.23l2.6-2.63,2.61-2.62c5.2.44,8.5-3.94,13-5.26,1.89-.58,3.75-1.25,5.66-1.74C50.63,14.69,52.24,14.49,53.82,14.21ZM46,53.6l-2.6,2.63c-3.06.07-3.37,2.65-2.23,4,1.75,2.13,4.14,2.29,4.83-1.42l2.61-5.25c4.11-1,5.62-3.8,5.2-7.88,4.08-7.53,4-7.93-2.6-13.13L48.62,30a46,46,0,0,0-7.34.11c-1.13.19-2.06,1.64-3.08,2.51-.41,0-1.16-.1-1.19,0-3,9.52-2.15,11.69,5.84,15.78A18.67,18.67,0,0,1,46,51Z"/>
        <path class="cls-53"
              d="M87.66,24.71C83.93,19,80.31,13.07,72,14.21c1.09-.88,2.16-2.49,3.26-2.51,10.19-.2,20.38-.12,30.58-.12-.21,5.37,1.23,11-2.61,15.76L100.67,30,90.26,24.71Z"/>
        <path class="cls-54" d="M108.48,11.58h13c0,2.17,0,4.34,0,6.5,0,7.36,0,7.36-5.2,11.89l-7.81-2.63Z"/>
        <path class="cls-55" d="M137.11,11.58l2.6,2.63c.32,3.8-.13,7.41-2.6,10.5h-2.6L129.3,30h-2.6l-2.6-2.63V11.58Z"/>
        <path class="cls-56"
              d="M124.1,11.58V27.34c-1.22,5.06-5.25,1.63-7.81,2.63,5.17-4.53,5.17-4.53,5.2-11.89,0-2.16,0-4.33,0-6.5Z"/>
        <path class="cls-57" d="M108.48,11.58V27.34h-5.21c3.84-4.75,2.4-10.39,2.61-15.76Z"/>
        <path class="cls-58" d="M12.18,85.12V66.73c4.82,1.82,9.58,3.7,7.8,10.51v2.62Z"/>
        <path class="cls-59"
              d="M20,79.86V77.24l7.81,2.62,7.81,5.26-5.2,2.62c-1-3.69-3.33-5.35-7.2-5.38C22.12,82.35,21.06,80.74,20,79.86Z"/>
        <path class="cls-60" d="M25.19,247.94h-2.6a97.63,97.63,0,0,1,.12-10c.11-1.12,1.61-2.1,2.48-3.15Z"/>
        <path class="cls-26" d="M27.79,208.55a34.81,34.81,0,0,0-1.74-5.61,38.81,38.81,0,0,0-3.46-4.9H30.4v10.51Z"/>
        <path class="cls-61" d="M27.79,208.55H30.4v5.25l-7.81,5.25v-2.62c.87-1.75,1.73-3.51,2.6-5.26Z"/>
        <path class="cls-26" d="M27.79,208.55l-2.6,2.62Z"/>
        <path class="cls-62" d="M17.38,213.8h-2.6l1.75-2.18Z"/>
        <path class="cls-63" d="M20,216.43l-2.6-2.63Z"/>
        <ellipse class="cls-64" cx="21.29" cy="217.74" rx="1.84" ry="1.86"/>
        <path class="cls-65" d="M27.79,24.71l-2.6,2.63L17.38,30c-.22-3.93-3.23-2.23-5.2-2.63V11.58H27.79Z"/>
        <path class="cls-66"
              d="M27.79,79.86,20,77.24c1.78-6.81-3-8.69-7.8-10.51V64.11l2.6-2.63c1.61,1.19,3.56,2.09,4.75,3.61,2.88,3.66,6.38,5.09,10.87,4.27,1,.87,1.94,2.32,3.08,2.51a45.88,45.88,0,0,0,7.33.12v2.62c-3.33,0-6.65.06-10,0C26.59,74.51,28.07,77.68,27.79,79.86Z"/>
        <path class="cls-67"
              d="M17.38,30l7.81-2.63c-2.92,3.39-6,6.64-8.68,10.23-1.08,1.46-1.18,3.66-1.73,5.53-5-1.23-1.61-5.3-2.6-7.88l2.6-2.63Z"/>
        <path class="cls-9" d="M14.78,48.35v7.88c-5-1.23-1.61-5.3-2.6-7.88Z"/>
        <path class="cls-68" d="M12.18,27.34c2,.4,5-1.3,5.2,2.63h-5.2Z"/>
        <path class="cls-69" d="M14.78,61.48l-2.6,2.63c.39-2-1.29-5,2.6-5.26Z"/>
        <path class="cls-70" d="M12.18,30h2.6v2.62l-2.6,2.63Z"/>
        <path class="cls-8" d="M14.78,48.35h-2.6l2.6-2.63Z"/>
        <path class="cls-71" d="M25.19,247.94V234.81c4.71-3.87,10.3-2.42,15.62-2.63,3.83,4.76,2.39,10.4,2.6,15.76Z"/>
        <path class="cls-72"
              d="M22.59,219.05l7.81-5.25h7.8v7.88c-.71.28-2,.49-2.06.87-.57,4-.44,8.21-6.68,7.09-5.06-.92-6.14-2-6.87-9.33C22.55,219.9,22.59,219.47,22.59,219.05Z"/>
        <path class="cls-73"
              d="M40.81,232.18q-4.22-5.25,0-10.5v-5.25c3.76-.32,7.34.13,10.41,2.62h2.6c.32,3.8-.14,7.41-2.6,10.51l-2.6,2.62Z"/>
        <ellipse class="cls-74" cx="39.51" cy="219.05" rx="1.84" ry="3.71"/>
        <path class="cls-75" d="M43.41,16.83c-4.51,1.32-7.81,5.7-13,5.26V11.58h13Z"/>
        <path class="cls-76"
              d="M43.41,16.83V11.58H46c2.56,1,6.59-2.43,7.81,2.63-1.58.28-3.19.48-4.75.88C47.16,15.58,45.3,16.25,43.41,16.83Z"/>
        <path class="cls-77" d="M30.4,11.58V22.09l-2.61,2.62V11.58Z"/>
        <path class="cls-78"
              d="M25.19,198h-2.6v-2.62c-.87-2.9-1.6-5.85-2.69-8.66-.32-.82-1.65-1.24-2.52-1.85.39-2-1.29-5,2.6-5.25l.8,2.11c.6-.63,1.5-1.16,1.75-1.9.64-2-1.37-5.17,2.66-5.46,4.44-.21,7.78,1.82,10.41,5.25v15.76L33,198H30.4l-2-2.62Z"/>
        <path class="cls-27"
              d="M20,179.66c-3.89.22-2.21,3.26-2.6,5.25-1,2.59,2.41,6.65-2.6,7.88V174.41Q21.17,173.21,20,179.66Z"/>
        <path class="cls-79"
              d="M14.78,192.79c5-1.23,1.61-5.29,2.6-7.88.87.61,2.2,1,2.52,1.85,1.09,2.81,1.82,5.76,2.69,8.66H14.78Z"/>
        <path class="cls-80"
              d="M61.63,247.94H46c.21-5.36-1.23-11,2.61-15.76h2.6l5.2-2.62H59l5.2,5.25v2.63c-.87,1-2.3,2-2.48,3.1A46.78,46.78,0,0,0,61.63,247.94Z"/>
        <path class="cls-81"
              d="M90.26,247.94h-26c-.31-3.8.14-7.41,2.61-10.5l2.6-2.63H79.85v5.25c-.17,3.05-.37,6,4.23,5.3a42.45,42.45,0,0,1,6.18-.05Z"/>
        <path class="cls-41"
              d="M79.85,240.06v-5.25c6,0,12,0,18,0a8,8,0,0,1,2.26.74,11.16,11.16,0,0,1-1.68,2.71c-1.55,1.36-3.31,2.48-5,3.69a60.66,60.66,0,0,0,6.14.68c7.3.08,14.59,0,21.88,0v2.62H90.26C87.62,241.88,84.29,239.85,79.85,240.06Z"/>
        <path class="cls-82" d="M48.62,232.18c-3.84,4.76-2.4,10.4-2.61,15.76h-2.6c-.21-5.36,1.23-11-2.6-15.76Z"/>
        <path class="cls-83"
              d="M66.84,237.44c-2.47,3.09-2.92,6.7-2.61,10.5h-2.6a46.78,46.78,0,0,1,.12-7.4c.18-1.14,1.61-2.08,2.48-3.1Z"/>
        <path class="cls-84" d="M90.26,245.31h7.81c-1.22,5.06-5.25,1.63-7.81,2.63Z"/>
        <path class="cls-41"
              d="M131.9,237.44c-2.63,3.43-6,5.45-10.41,5.25-2.44-1.36,7.54-5.07-1-5.24-4.32-.09-8.65,0-13-.08-.48,0-1-1-1.35-1.55,0-.08.58-.87.86-.86C115.37,235.49,124,232.69,131.9,237.44Z"/>
        <path class="cls-85"
              d="M59,158.65c-1.74-4.94-3.75-9.8-5.12-14.84-1.18-4.32-3.27-6.71-7.9-6.17q-1.29-9.19-2.6-18.38v-7.88c.73.3,2.08.56,2.1.9.43,7.54,3.73,12.67,11.19,15,1.82.57,4.46,2.33,4.63,3.78.55,4.75,4,5.47,7.23,7.26,4.63,2.54,5,6.33.47,8.67-6,3.09-7.4,7.66-7.52,13.63,0,1.13-1.62,2.22-2.48,3.32Z"/>
        <path class="cls-86" d="M43.41,111.38v7.88L38.2,114c-.2-4.48-.55-9,5.21-10.5Z"/>
        <path class="cls-87"
              d="M43.41,111.38V103.5c2-6,2.06-12.66,5.21-18.38l7.8-2.63c4.34-1.34,8.68-2.67,13-4.06.12,0,0-.78,0-1.19H92.86c1.88.58,3.77,1.12,5.63,1.75,3.34,1.14,6.66,2.33,10,3.5,3.69,3.3,5.64,7.77,9.28,12.79,2,2.72-1.71,7.65,3.73,8.22-3.14,5.72-3.17,12.34-5.2,18.38-5.53.67-.86,6.34-4.34,8.85-2.25,1.63-2.39,6.25-3.47,9.54L92.86,156c-5.37-1.15-6.94,3.92-10.15,6.31,3,.53,6,1.25,9,1.52s6,.05,8.92.05H124.1q1.29,2.63,2.6,5.25v10.51c-.87.87-1.74,1.75-2.6,2.63h-2.61c-.44-4.36-3.82-2.54-5.89-2.55-24.06-.13-48.13-.08-72.19-.08h-2.6V166.53c.86-.88,1.73-1.75,2.6-2.63H59c.86-1.1,2.46-2.19,2.48-3.32.12-6,1.57-10.54,7.52-13.63,4.5-2.34,4.16-6.13-.47-8.67-3.26-1.79-6.68-2.51-7.23-7.26-.17-1.45-2.81-3.21-4.63-3.78-7.46-2.29-10.76-7.42-11.19-15C45.49,111.94,44.14,111.68,43.41,111.38Zm41.64,28.89-2.6,2.62-2.6,2.63-2.6,2.62-2.61,2.63-7.8,7.88c.86.88,1.73,1.75,2.6,2.63h5.2l2.61-2.63c.86-.88,1.73-1.75,2.6-2.63l20.82-21c4.12-5.75,10.24-10.35,10.41-18.38,0-1.28-.55-3.11.09-3.77,4.82-5,2.5-9.77-.09-14.61-.87-1.75-1.73-3.5-2.6-5.26,0-.42.18-1.08,0-1.25-10.79-8.87-23-11.43-36.4-7.86-.1,0,0,.81,0,1.24h-5.2L59,90.37,56.42,93c-3.89.23-2.21,3.27-2.6,5.26l-2.6,2.62v2.63c1,4.49-2.16,9.62,1.82,13.59,2.68,2.66,5.72,5,8.59,7.42h5.21a16.51,16.51,0,0,0,18.21,0h5.21c.44,5.25-3.9,8.58-5.21,13.13Zm33.84,28.88c-23.8,0-47.59.09-71.39-.08-3.68,0-4.2,1.47-4.17,4.59s1.44,3.43,4,3.42c24.23-.08,48.46,0,72.69-.08,5.08,0,5.36-1.68,1.49-7.85Z"/>
        <path class="cls-88"
              d="M56.42,82.49l-7.8,2.63a17.26,17.26,0,0,1-2.55-3.3c-1.11-2.44-2.42-2.4-2.53.1-.2,4.35-3.1,3-5.34,3.2,2.47-3.1,2.92-6.71,2.61-10.51V72l13-2.63C59.77,76.35,59.77,76.35,56.42,82.49Z"/>
        <path class="cls-89"
              d="M40.81,74.61c.31,3.8-.14,7.41-2.61,10.51H35.6l-7.81-5.26c.28-2.18-1.2-5.35,3-5.26C34.16,74.67,37.48,74.61,40.81,74.61Z"/>
        <path class="cls-34"
              d="M139.71,85.12q2.61,7.88,5.21,15.75h-7.81l-5.21,2.63H121.49c-.51-6.18,1.7-12.75-2.6-18.38h20.82Z"/>
        <path class="cls-90"
              d="M139.71,85.12H121.49V82.49c-.86-.88-1.73-1.75-2.6-2.63L129.3,72c.16,3.22,2.46,3.24,4.21,2.11,1.56-1,2.43-3.12,3.6-4.74.87-.88,1.74-1.75,2.6-2.63h7.81L144.92,72l-2.6,2,2.6,3.27-2.6,2.62C138.42,80.09,140.11,83.13,139.71,85.12Z"/>
        <path class="cls-91"
              d="M131.9,103.5l5.21-2.63c1.22,5.06,5.25,1.63,7.81,2.63a97.63,97.63,0,0,0,.12,10c.11,1.12,1.61,2.1,2.48,3.15v2.63l-7.81,2.62c-1.07-.87-2.16-2.52-3.21-2.49-5.08.15-7.22-3.93-9.55-7-.81-1.09-2.43-6.24,3-6.34C130.62,106,131.25,104.37,131.9,103.5Z"/>
        <path class="cls-38" d="M147.52,116.63c-.87-1-2.37-2-2.48-3.15a97.63,97.63,0,0,1-.12-10h2.6Z"/>
        <path class="cls-92" d="M144.92,77.24,142.32,74l2.6-2v5.25Z"/>
        <path class="cls-92" d="M139.71,85.12c.4-2-1.29-5,2.61-5.26C141.92,81.85,143.61,84.89,139.71,85.12Z"/>
        <path class="cls-93" d="M150.12,79.86h2.61L151,82Z"/>
        <path class="cls-91" d="M147.52,103.5h-2.6v-2.63Z"/>
        <path class="cls-94"
              d="M131.9,103.5c-.65.87-1.28,2.5-2,2.51-5.43.1-3.81,5.25-3,6.34,2.33,3.11,4.47,7.19,9.55,7,1.05,0,2.14,1.62,3.21,2.49-3.89.23-2.21,3.26-2.6,5.26-.87,1-2.3,2-2.48,3.1a46.78,46.78,0,0,0-.12,7.4l-2.61,2.63c0,3.47,0,6.94,0,10.41,0,6,.05,6,5.2,10.6a95.88,95.88,0,0,0-9.89.12c-1.11.11-2.09,1.63-3.12,2.5h-2.61l-7.8-5.25c0-3-.34-6.11.09-9.07.46-3.16,1.64-6.21,2.51-9.31a19.57,19.57,0,0,0,1.2-18.37c-.07-.15-.79,0-1.2,0,2-6,2.06-12.66,5.2-18.38Z"/>
        <path class="cls-95" d="M131.9,140.27l2.61-2.63h2.6a45.9,45.9,0,0,1,7.33.12c1.13.18,2.06,1.63,3.08,2.51Z"/>
        <path class="cls-96" d="M137.11,137.64h-2.6a46.78,46.78,0,0,1,.12-7.4c.18-1.14,1.61-2.08,2.48-3.1Z"/>
        <path class="cls-96"
              d="M131.9,140.27h15.62v10.5c0,7.39,0,7.39,5.21,7.88l-2.61,2.63c-3.76-.32-7.34.13-10.41,2.62l-2.6-2.62c-5.15-4.58-5.16-4.58-5.2-10.6C131.89,147.21,131.9,143.74,131.9,140.27Z"/>
        <path class="cls-97"
              d="M144.92,182.29v7.87h-7.81c-1-.87-2-2.32-3.08-2.5a45.9,45.9,0,0,0-7.33-.12v-7.88c5.21.44,8.5-3.94,13-5.25,3.07,2.49,6.65,2.94,10.41,2.62-.86.88-1.73,1.75-2.6,2.63S145.79,181.41,144.92,182.29Z"/>
        <path class="cls-98"
              d="M139.71,174.41c-4.51,1.31-7.8,5.69-13,5.25V177l2.6-2.62,2.16-.87-2.16-1.76c-.87-.87-1.73-1.75-2.6-2.63q-1.31-2.62-2.6-5.25c1-.87,2-2.39,3.12-2.5a95.88,95.88,0,0,1,9.89-.12l2.6,2.62Z"/>
        <path class="cls-99"
              d="M137.11,190.16h7.81v2.63c.22,3.93,3.23,2.23,5.2,2.63v5.25c0,2.6,0,5.21,0,7.82A17.78,17.78,0,0,1,146.91,219c-3.22,5-3.8,11.65-11.9,11.62-1,0-2.07,2.76-3.11,4.24-.39-2,1.3-5-2.6-5.25v-2.63c.87-1,2.3-2,2.49-3.11a47.88,47.88,0,0,0,.11-7.39c-1-3.69-3.32-5.35-7.19-5.39-1.08,0-2.14-1.62-3.22-2.49l2.61-5.26c.86-1.09,2.57-2.3,2.45-3.27-.42-3.17-3.21-1.62-5.06-2v-2.62a98.74,98.74,0,0,0,9.89-.12c1.12-.12,2.09-1.63,3.13-2.51Z"/>
        <path class="cls-12" d="M150.12,200.67v-5.25c3.9.22,2.21,3.26,2.61,5.25Z"/>
        <path class="cls-12" d="M150.12,195.42c-2-.4-5,1.3-5.2-2.63C146.89,193.19,149.9,191.49,150.12,195.42Z"/>
        <path class="cls-39" d="M144.92,182.29c.87-.88,1.73-1.76,2.6-2.63C146.65,180.53,145.79,181.41,144.92,182.29Z"/>
        <path class="cls-100"
              d="M121.49,195.42v5.25l-2.6,2.62c-3.89.23-2.21,3.27-2.6,5.26l-2.6,2.62v2.63c-3.53,3.32-3.53,7.18,0,10.5v2.63c.86.88,1.73,1.75,2.6,2.63h2.6c2.62,3.6,5.19,3.6,7.81,0h2.6c3.9.22,2.21,3.26,2.6,5.25v2.63c-7.89-4.75-16.53-1.95-24.84-2.48-.28,0-.91.78-.86.86.38.58.87,1.53,1.35,1.55,4.33.12,8.66,0,13,.08,8.5.17-1.48,3.88,1,5.24-7.29,0-14.58.05-21.88,0a60.66,60.66,0,0,1-6.14-.68c1.67-1.21,3.43-2.33,5-3.69a11.16,11.16,0,0,0,1.68-2.71,8,8,0,0,0-2.26-.74c-6-.06-12,0-18,0,.24-4.18-1.14-10.07,1.06-12.18,4.32-4.16,3.34-10.06,6.75-14.08q3.9-5.25,7.81-10.51l13-5.25c1,.88,2,2.39,3.12,2.51A98.77,98.77,0,0,0,121.49,195.42Z"/>
        <path class="cls-101"
              d="M142.32,51v5.25c-5,1.23-1.62,5.29-2.61,7.88-3.89-.23-2.21-3.27-2.6-5.26.53-4.86-2.21-11,5.21-13.13Z"/>
        <path class="cls-101" d="M144.92,43.1l-2.6,2.62V40.47h2.6Z"/>
        <path class="cls-102" d="M147.52,43.1h5.21l-3.24,2.62Z"/>
        <ellipse class="cls-103" cx="146.22" cy="41.78" rx="1.84" ry="1.86"/>
        <path class="cls-104"
              d="M152.73,158.65c-5.21-.49-5.21-.49-5.21-7.88C152.73,151.26,152.73,151.26,152.73,158.65Z"/>
        <path class="cls-105"
              d="M139.71,64.11c1-2.59-2.41-6.65,2.61-7.88L144.46,58c-1.35,1.43-3.67,3.08.61,3.45,1.67.14,3.37,0,5.05,0v2.63l-2.6,2.62h-7.81Z"/>
        <path class="cls-106"
              d="M147.52,66.73l2.6-2.62,2.14,1.79a13.56,13.56,0,0,1-2.2.8A15.36,15.36,0,0,1,147.52,66.73Z"/>
        <path class="cls-107" d="M152.73,27.34h-5.21c0-7.39,0-7.39-5.2-7.88V14.21c10.34.16,10.34.16,10.41,10.59Z"/>
        <path class="cls-108" d="M142.32,14.21v10.5h-5.21c2.47-3.09,2.92-6.7,2.6-10.5Z"/>
        <path class="cls-109"
              d="M142.32,27.34q1.29,2.63,2.6,5.25c-5,1.23-1.61,5.3-2.6,7.88l-2.61,2.63h-2.6c-.22-3.93-3.23-2.23-5.21-2.63V30l2.61-2.63h7.81Z"/>
        <path class="cls-47" d="M142.32,24.71V19.46c5.2.49,5.2.49,5.2,7.88Z"/>
        <path class="cls-110" d="M142.32,40.47c1-2.58-2.42-6.65,2.6-7.88v7.88Z"/>
        <ellipse class="cls-110" cx="139.71" cy="26.03" rx="3.68" ry="1.86"/>
        <path class="cls-111" d="M59,163.9H46c.28-2.18-1.2-5.35,3-5.26,3.33.07,6.65,0,10,0Z"/>
        <path class="cls-112"
              d="M40.81,179.66h2.6c1,.87,2,2.32,3.08,2.51a45.9,45.9,0,0,0,7.33.12c0,8.79,0,8.79-5.2,15.75H33l2.6-2.62c.87-1.06,2.41-2.07,2.49-3.19.29-4.17.11-8.38.11-12.57Z"/>
        <path class="cls-113" d="M38.2,179.66c0,4.19.18,8.4-.11,12.57-.08,1.12-1.62,2.13-2.49,3.19V179.66Z"/>
        <path class="cls-114" d="M40.81,169.15V177C37.24,174.39,37.24,171.8,40.81,169.15Z"/>
        <path class="cls-114" d="M43.41,163.9c-.87.88-1.74,1.75-2.6,2.63C41.67,165.65,42.54,164.78,43.41,163.9Z"/>
        <path class="cls-115"
              d="M92.86,77.24H69.44a13.94,13.94,0,0,1,.85-2.15c1.39-2.35,2.85-4.65,4.28-7-2.66-.47-5.3-1-8-1.35a41,41,0,0,0-5,0l7.81-5.25c3.29,3.55,7.12,3.55,10.41,0l2.6-2.63h2.6l2.61,2.63c.86.88,1.73,1.75,2.6,2.63Q91.57,70.67,92.86,77.24Z"/>
        <path class="cls-116"
              d="M61.63,66.73a41,41,0,0,1,5,0c2.68.33,5.32.88,8,1.35-1.43,2.32-2.89,4.62-4.28,7a13.94,13.94,0,0,0-.85,2.15c0,.41.1,1.15,0,1.19-4.32,1.39-8.66,2.72-13,4.06,3.35-6.14,3.35-6.14-2.6-13.13V66.73h7.81Z"/>
        <path class="cls-117"
              d="M79.85,61.48c-3.29,3.55-7.12,3.55-10.41,0q9.11-9.19,18.22-18.38c.22,3.93,3.23,2.23,5.2,2.62-.29.74-.51,2.07-.88,2.11-6.86.83-7.37,5.6-6.93,11h-2.6Z"/>
        <path class="cls-118"
              d="M46,51a18.67,18.67,0,0,0-3.16-2.59C34.86,44.3,34,42.13,37,32.61c0-.12.78,0,1.19,0l2.61,2.63c-1.77,6.81,3,8.68,7.81,10.5V51Z"/>
        <path class="cls-119"
              d="M53.82,66.73v2.63L40.81,72a45.88,45.88,0,0,1-7.33-.12c-1.14-.19-2.06-1.64-3.08-2.51L33,66.73Z"/>
        <path class="cls-120" d="M53.82,66.73H33c0-.43-.09-1.22,0-1.25a50.92,50.92,0,0,1,26,0c.11,0,0,.82,0,1.25Z"/>
        <path class="cls-121" d="M51.22,32.59c6.6,5.2,6.68,5.6,2.6,13.13l-2.6-2.62Z"/>
        <path class="cls-122"
              d="M92.86,45.72c-2-.39-5,1.31-5.2-2.62V40.47c.86-1,2.3-2,2.48-3.11A46.65,46.65,0,0,0,90.26,30h2.6V45.72Z"/>
        <path class="cls-123" d="M87.66,32.59l-4,2.58V24.76l4,2.58Z"/>
        <path class="cls-124" d="M87.66,32.59V24.71h2.6V30a46.65,46.65,0,0,1-.12,7.39c-.18,1.14-1.62,2.08-2.48,3.11Z"/>
        <path class="cls-125" d="M51.22,32.59V43.1h-2.6c.31-3.8-.14-7.41-2.61-10.51L48.62,30Z"/>
        <path class="cls-126" d="M48.62,43.1h2.6l2.6,2.62c.42,4.08-1.09,6.85-5.2,7.88V43.1Z"/>
        <path class="cls-127"
              d="M48.62,30,46,32.59l-5.2,2.63L38.2,32.59c1-.87,1.95-2.32,3.08-2.51A46,46,0,0,1,48.62,30Z"/>
        <path class="cls-128" d="M48.62,53.6,46,58.85l-2.6-2.62L46,53.6Z"/>
        <path class="cls-120" d="M43.41,56.23,46,58.85c-.69,3.71-3.08,3.55-4.83,1.42C40,58.88,40.35,56.3,43.41,56.23Z"/>
        <ellipse class="cls-129" cx="47.31" cy="52.29" rx="1.84" ry="1.86"/>
        <path class="cls-130"
              d="M90.26,30V24.71L100.67,30a20.75,20.75,0,0,0,0,15.75c-2-.39-5,1.31-5.2-2.62,0-3.33.21-6.69-.12-10C95.23,32,93.73,31,92.86,30Z"/>
        <path class="cls-131" d="M103.27,27.34h5.21V30h-7.81Z"/>
        <path class="cls-130"
              d="M108.48,30V27.34L116.29,30v2.62c-.87.61-2.56,1.39-2.47,1.78.62,3,1.6,5.83,2.47,8.73h-5.21C111,38.56,111.9,33.83,108.48,30Z"/>
        <path class="cls-132"
              d="M116.29,32.59V30c2.56-1,6.59,2.43,7.81-2.63L126.7,30a46.65,46.65,0,0,1-.12,7.39c-.18,1.14-1.62,2.08-2.48,3.11C123.55,34.59,122.12,33.14,116.29,32.59Z"/>
        <path class="cls-133"
              d="M124.1,40.47c.86-1,2.3-2,2.48-3.11A46.65,46.65,0,0,0,126.7,30h2.6a46.65,46.65,0,0,0,.12,7.39c.18,1.14,1.62,2.08,2.48,3.11V43.1h-7.8Z"/>
        <path class="cls-134" d="M134.51,27.34,131.9,30h-2.6l5.21-5.26Z"/>
        <ellipse class="cls-135" cx="135.81" cy="26.03" rx="1.84" ry="1.86"/>
        <path class="cls-136" d="M38.2,213.8H33c-.87-.88-1.74-1.75-2.6-2.63v-10.5H33c-.21,4.48-.56,9,5.2,10.5Z"/>
        <path class="cls-112" d="M25.19,198l3.24-2.62,2,2.62Z"/>
        <ellipse class="cls-112" cx="31.7" cy="199.36" rx="1.84" ry="1.86"/>
        <path class="cls-137" d="M30.4,211.17c.86.88,1.73,1.75,2.6,2.63H30.4Z"/>
        <path class="cls-65" d="M14.78,32.59V30h2.6Z"/>
        <path class="cls-138"
              d="M40.81,216.43H38.2V213.8c3.77.32,7.34-.14,10.42-2.63.86,1.75,1.73,3.51,2.6,5.26v2.62C48.15,216.56,44.57,216.11,40.81,216.43Z"/>
        <path class="cls-139"
              d="M56.42,229.56l-5.2,2.62v-2.62c2.46-3.1,2.92-6.71,2.6-10.51,2.19-1.77,4.67-3.28,6.49-5.38a6.78,6.78,0,0,1,6.53-2.5c-2.93,3.39-6,6.64-8.68,10.23-1.09,1.46-1.19,3.67-1.74,5.53Z"/>
        <path class="cls-140" d="M51.22,219.05v-2.62l2.6,2.62Z"/>
        <path class="cls-141" d="M51.22,229.56v2.62h-2.6Z"/>
        <path class="cls-142"
              d="M56.42,226.93c.55-1.86.65-4.07,1.74-5.53,2.65-3.59,5.75-6.84,8.68-10.23H72c0,5.06-.15,10.13.12,15.18.06,1.11,1.62,2.14,2.48,3.21,0,3.51-2.75,2.12-4.51,2.71-1.24.42-2.21,1.66-3.29,2.54H64.23L59,229.56Z"/>
        <path class="cls-143" d="M56.42,226.93,59,229.56H56.42Z"/>
        <ellipse class="cls-144" cx="65.53" cy="236.12" rx="1.84" ry="1.86"/>
        <path class="cls-145"
              d="M66.84,234.81c1.08-.88,2-2.12,3.29-2.54,1.76-.59,4.5.8,4.51-2.71V211.17h7.81c-5,7.16-5.9,15.22-5.2,23.64H66.84Z"/>
        <path class="cls-41"
              d="M77.25,234.81c-.7-8.42.24-16.48,5.2-23.64v-2.62h5.21c-3.41,4-2.43,9.92-6.75,14.08-2.2,2.11-.82,8-1.06,12.18Z"/>
        <path class="cls-84"
              d="M79.85,240.06c4.44-.21,7.77,1.82,10.41,5.25a42.45,42.45,0,0,0-6.18.05C79.48,246.05,79.68,243.11,79.85,240.06Z"/>
        <path class="cls-142" d="M66.84,234.81h2.6l-2.6,2.63Z"/>
        <path class="cls-146"
              d="M72,85.12c0-.43-.09-1.21,0-1.24,13.44-3.57,25.61-1,36.4,7.86.21.17,0,.83,0,1.25l-2.6,2,2.6,3.27V114c-5.57.76-.51,6.91-4.77,9.24-2.72,1.48-3.82,6-5.64,9.15V135l-13,10.51v-5.25l2.16-.87-2.16-1.76c1.31-4.55,5.65-7.88,5.21-13.13,3.89-.23,2.21-3.26,2.6-5.25v-2.63a12.6,12.6,0,0,0,0-15.76V98.25l-2.6-2.63c-.87-.87-1.74-1.75-2.6-2.63V90.37l-2.61-2.63c-1-.87-2-2.39-3.12-2.5A95.88,95.88,0,0,0,72,85.12Z"/>
        <path class="cls-147"
              d="M85.05,124.51a16.51,16.51,0,0,1-18.21,0c3.34-.79,7.18,1.68,10.14-1.58a80.63,80.63,0,0,0-9.64-.94c-2,0-5.33-1.73-5.71,2.52-2.87-2.46-5.91-4.76-8.59-7.42-4-4-.87-9.1-1.82-13.59l2.16-.87-2.16-1.76,2.6-2.62,2.6-2.63L59,93h5.2v7.88c-.73.31-2,.5-2.12.94-1.29,6.31,1.26,11,6.42,14.43l.91-2.24H72l2.6,2.63,2.61,2.63h7.8v2.62a14.32,14.32,0,0,0-2.54,0,11.57,11.57,0,0,0-2.21.82,9.85,9.85,0,0,0,2.22,1.71A7.35,7.35,0,0,0,85.05,124.51Z"/>
        <path class="cls-114"
              d="M121.49,169.15c3.87,6.17,3.59,7.84-1.49,7.85-24.23.07-48.46,0-72.69.08-2.54,0-4-.39-4-3.42s.49-4.62,4.17-4.59c23.8.17,47.59.08,71.39.08-.46,4.39-3.86,2.53-6,2.54-21.19.15-42.39.07-63.58.15-1.12,0-2.23.82-3.34,1.26,1.12.43,2.23,1.25,3.35,1.25,21.2.08,42.39.06,63.59.06a45.16,45.16,0,0,0,6.48-.06C122.75,173.85,121.11,171,121.49,169.15Z"/>
        <path class="cls-148"
              d="M92.86,77.24q-1.29-6.57-2.6-13.13h2.6c4.51-1.32,7.81-5.7,13-5.26.86.88,1.73,1.75,2.6,2.63l2.6,5.25V79.86l-2.6,2.63c-3.33-1.17-6.65-2.36-10-3.5C96.63,78.36,94.74,77.82,92.86,77.24Z"/>
        <path class="cls-149"
              d="M108.48,192.79l-13,5.25-2.61-2.62V182.29H124.1v5.25h-5.21c-3.89.22-2.21,3.26-2.6,5.25Z"/>
        <path class="cls-150"
              d="M116.29,140.27c-.87,3.1-2.05,6.15-2.51,9.31-.43,3-.09,6-.09,9.07h-2.61l-2.6,2.63h-2.6l-2.61,2.62h-2.6L92.86,156l15.62-15.75Z"/>
        <path class="cls-114"
              d="M121.49,182.29H53.82a45.9,45.9,0,0,1-7.33-.12c-1.13-.19-2.06-1.64-3.08-2.51,24.06,0,48.13,0,72.19.08C117.67,179.75,121.05,177.93,121.49,182.29Z"/>
        <path class="cls-151"
              d="M121.49,169.15c-.38,1.87,1.26,4.7-2,5.2a45.16,45.16,0,0,1-6.48.06c-21.2,0-42.39,0-63.59-.06-1.12,0-2.23-.82-3.35-1.25,1.11-.44,2.22-1.26,3.34-1.26,21.19-.08,42.39,0,63.58-.15,2.09,0,5.49,1.85,6-2.54Z"/>
        <path class="cls-152"
              d="M116.29,140.27h-7.81c1.08-3.29,1.22-7.91,3.47-9.54,3.48-2.51-1.19-8.18,4.34-8.85.41,0,1.13-.13,1.2,0A19.57,19.57,0,0,1,116.29,140.27Z"/>
        <path class="cls-153" d="M85.05,145.52l13-10.51h2.6L79.85,156v-5.25l-2.6-2.63,2.6-2.62h2.6l.86,2.18Z"/>
        <path class="cls-94"
              d="M118.89,85.12c4.3,5.63,2.09,12.2,2.6,18.38-5.44-.57-1.75-5.5-3.73-8.22-3.64-5-5.59-9.49-9.28-12.79l2.6-2.63h2.61c.86.88,1.73,1.75,2.6,2.63Z"/>
        <path class="cls-154"
              d="M92.86,156l7.81,7.88c-3,0-6,.21-8.92-.05s-6-1-9-1.52C85.92,159.94,87.49,154.87,92.86,156Z"/>
        <path class="cls-155"
              d="M98.07,132.39c1.82-3.16,2.92-7.67,5.64-9.15,4.26-2.33-.8-8.48,4.77-9.24l2.6,2.63c-.17,8-6.29,12.63-10.41,18.38Z"/>
        <path class="cls-156"
              d="M111.08,116.63l-2.6-2.63V98.25h2.6c2.59,4.84,4.91,9.61.09,14.61C110.53,113.52,111.08,115.35,111.08,116.63Z"/>
        <path class="cls-157"
              d="M74.64,161.28h-5.2c-.87-.88-1.74-1.75-2.6-2.63l7.8-7.88v2.63L77.25,156h2.6c-.87.88-1.74,1.75-2.6,2.63Z"/>
        <path class="cls-158"
              d="M72,85.12a95.88,95.88,0,0,1,9.89.12c1.12.11,2.09,1.63,3.12,2.5a45.9,45.9,0,0,0-7.33.12c-1.13.19-2.06,1.63-3.08,2.51h-5.2q-1.31-2.62-2.6-5.25Z"/>
        <path class="cls-159" d="M111.08,158.65h2.61l7.8,5.25H105.88v-2.62h2.6Z"/>
        <path class="cls-160"
              d="M61.63,124.51c.38-4.25,3.67-2.5,5.71-2.52a80.63,80.63,0,0,1,9.64.94c-3,3.26-6.8.79-10.14,1.58Z"/>
        <path class="cls-161"
              d="M85.05,121.88v-2.62c.16-1.61.14-3.05,2.51-1.56,1.5,1,3.52,1.07,5.3,1.56-.39,2,1.29,5-2.6,5.25h-2.6Z"/>
        <path class="cls-162" d="M66.84,85.12q1.29,2.63,2.6,5.25h-2.6L64.23,93h-2.6L59,90.37Z"/>
        <path class="cls-163" d="M111.08,98.25h-2.6L105.88,95l2.6-2C109.35,94.75,110.21,96.5,111.08,98.25Z"/>
        <path class="cls-114" d="M129.3,174.41,126.7,177v-7.88c.87.88,1.73,1.76,2.6,2.63Z"/>
        <path class="cls-164"
              d="M85.05,121.88l2.61,2.63H85.05a7.35,7.35,0,0,1-2.53-.06,9.85,9.85,0,0,1-2.22-1.71,11.57,11.57,0,0,1,2.21-.82A14.32,14.32,0,0,1,85.05,121.88Z"/>
        <path class="cls-165" d="M124.1,187.54v-5.25c.86-.88,1.73-1.76,2.6-2.63v7.88Z"/>
        <path class="cls-166" d="M56.42,95.62l-2.6,2.63c.39-2-1.29-5,2.6-5.26Z"/>
        <path class="cls-167" d="M85.05,140.27v5.25h-2.6v-2.63Z"/>
        <path class="cls-168" d="M74.64,153.4v-2.63l2.61-2.63v5.26Z"/>
        <ellipse class="cls-169" cx="57.73" cy="92.99" rx="3" ry="1.14"
                 transform="matrix(0.52, -0.85, 0.85, 0.52, -51.73, 93.79)"/>
        <path class="cls-154" d="M105.88,161.28v2.62h-2.61Z"/>
        <path class="cls-114" d="M74.64,161.28l2.61-2.63Z"/>
        <path class="cls-114" d="M66.84,158.65c.86.88,1.73,1.75,2.6,2.63C68.57,160.4,67.7,159.53,66.84,158.65Z"/>
        <path class="cls-170" d="M51.22,100.87l2.16,1.76-2.16.87Z"/>
        <path class="cls-146" d="M82.45,142.89v2.63h-2.6Z"/>
        <path class="cls-167" d="M85.05,137.64l2.16,1.76-2.16.87Z"/>
        <path class="cls-171" d="M144.92,100.87v2.63c-2.56-1-6.59,2.43-7.81-2.63Z"/>
        <ellipse class="cls-172" cx="120.19" cy="83.8" rx="1.84" ry="1.86"/>
        <path class="cls-173"
              d="M111.08,66.73l-2.6-5.25,7.81-5.25h2.6l2.6,2.62-2.14.85c.28.59.56,1.7.84,1.7,4.49,0,9-.19,13.47-.48.33,0,.57-1.35.85-2.07h2.6c.39,2-1.29,5,2.6,5.26v2.62l-2.6,2.63L129.3,72l-10.41,7.87h-2.6l-2.6-2.62a48,48,0,0,0-.12-7.4C113.38,68.7,112,67.76,111.08,66.73Z"/>
        <path class="cls-174" d="M129.3,72l7.81-2.63c-1.17,1.62-2,3.73-3.6,4.74C131.76,75.23,129.46,75.21,129.3,72Z"/>
        <path class="cls-34" d="M116.29,79.86h2.6c.87.88,1.74,1.75,2.6,2.63h-5.2c-.87-.88-1.74-1.75-2.6-2.63Z"/>
        <path class="cls-175" d="M137.11,69.36l2.6-2.63Z"/>
        <path class="cls-176"
              d="M124.1,187.54h2.6a45.9,45.9,0,0,1,7.33.12c1.13.18,2.06,1.63,3.08,2.5l-2.6,2.63h-13l-2.6-5.25Z"/>
        <path class="cls-177" d="M129.3,174.41v-2.63l2.16,1.76Z"/>
        <path class="cls-178"
              d="M129.3,229.56h-13c-.87-.88-1.74-1.75-2.6-2.63V211.17l2.6-2.62h2.6v5.25c0,2.89-.33,5.82.09,8.64.46,3.13,3.93,3.84,7.72,1.86.87.88,1.73,1.76,2.6,2.63Z"/>
        <path class="cls-179"
              d="M118.89,213.8v-5.25h2.6c1.08.87,2.14,2.48,3.22,2.49,3.87,0,6.19,1.7,7.19,5.39a22.93,22.93,0,0,0-2.57,2c-1,1-1.76,2.16-2.63,3.25-.32-2.09,1.2-5-2.82-5.37C122.15,216.13,120.55,214.68,118.89,213.8Z"/>
        <path class="cls-180"
              d="M121.49,192.79h13c-1,.88-2,2.39-3.13,2.51a98.74,98.74,0,0,1-9.89.12,98.77,98.77,0,0,1-9.89-.12c-1.11-.12-2.08-1.63-3.12-2.51h13Z"/>
        <path class="cls-181" d="M121.49,208.55h-2.6v-5.26l2.6-2.62,2.61,2.62Z"/>
        <path class="cls-182"
              d="M126.7,221.68c.87-1.09,1.66-2.25,2.63-3.25a22.93,22.93,0,0,1,2.57-2,47.88,47.88,0,0,1-.11,7.39c-.19,1.14-1.62,2.08-2.49,3.11-.87-.87-1.73-1.75-2.6-2.63Z"/>
        <path class="cls-183"
              d="M124.1,203.29l-2.61-2.62V198c1.85.36,4.64-1.19,5.06,2C126.67,201,125,202.2,124.1,203.29Z"/>
        <path class="cls-184"
              d="M92.86,195.42,95.47,198q-3.91,5.25-7.81,10.51H82.45c1.75-3.78,3.1-7.77,7.73-9.3C91.36,198.86,92,196.74,92.86,195.42Z"/>
        <path class="cls-179" d="M113.69,213.8v10.5C110.16,221,110.16,217.12,113.69,213.8Z"/>
        <path class="cls-41" d="M118.89,229.56h7.81C124.08,233.16,121.51,233.16,118.89,229.56Z"/>
        <path class="cls-179" d="M118.89,203.29v5.26h-2.6C116.68,206.56,115,203.52,118.89,203.29Z"/>
        <path class="cls-179" d="M116.29,208.55l-2.6,2.62Z"/>
        <path class="cls-41" d="M113.69,226.93c.86.88,1.73,1.75,2.6,2.63C115.42,228.68,114.55,227.81,113.69,226.93Z"/>
        <path class="cls-185" d="M137.11,58.85h-2.6V43.1h7.81v2.62C134.9,47.81,137.64,54,137.11,58.85Z"/>
        <path class="cls-110" d="M142.32,43.1h-2.61l2.61-2.63Z"/>
        <path class="cls-110" d="M129.3,30h2.6v10.5c-.86-1-2.3-2-2.48-3.11A46.65,46.65,0,0,1,129.3,30Z"/>
        <path class="cls-110" d="M137.11,43.1H131.9V40.47C133.88,40.87,136.89,39.17,137.11,43.1Z"/>
        <path class="cls-186"
              d="M53.82,182.29H72v13.13l-2.6,2,2.6,3.27-5.2,5.25c-4.49-4.08-9.26-7.59-15.62-7.88h-2.6C53.82,191.08,53.82,191.08,53.82,182.29Z"/>
        <path class="cls-187"
              d="M33,200.67V198H48.62v7.88a35,35,0,0,0-5.56,1.76,37.68,37.68,0,0,0-4.86,3.49C32.44,209.7,32.79,205.15,33,200.67Z"/>
        <path class="cls-188" d="M92.86,64.11h-2.6c-.87-.88-1.74-1.75-2.6-2.63V58.85Z"/>
        <path class="cls-189" d="M79.85,61.48l2.6-2.63Z"/>
        <path class="cls-190" d="M87.66,58.85v2.63l-2.61-2.63Z"/>
        <path class="cls-191"
              d="M87.66,58.85H85.05c-.44-5.42.07-10.19,6.93-11,.37,0,.59-1.37.88-2.11V43.1h2.61c.22,3.93,3.23,2.23,5.2,2.62v2.63c0,2.16,0,4.32,0,6.48,0,.32.61.93.79.88.63-.16,1.67-.53,1.7-.89.15-2.15.07-4.31.07-6.47V45.72h7.81c-5.2,4.85-5.2,4.85-5.2,13.13-5.21-.44-8.51,3.94-13,5.26Z"/>
        <path class="cls-192"
              d="M40.81,35.22,46,32.59c2.47,3.1,2.92,6.71,2.61,10.51v2.62C43.79,43.9,39,42,40.81,35.22Z"/>
        <path class="cls-193" d="M95.47,43.1H92.86V30c.87,1,2.37,2,2.49,3.15C95.68,36.41,95.47,39.77,95.47,43.1Z"/>
        <path class="cls-194" d="M108.48,45.72h-7.81a20.75,20.75,0,0,1,0-15.75h7.81c3.42,3.86,2.53,8.59,2.6,13.13Z"/>
        <path class="cls-195"
              d="M116.29,32.59c5.83.55,7.26,2,7.81,7.88l-2.61,2.63h-5.2c-.87-2.9-1.85-5.77-2.47-8.73C113.73,34,115.42,33.2,116.29,32.59Z"/>
        <path class="cls-196" d="M111.08,43.1h5.21v5.25l-5.21-2.63Z"/>
        <path class="cls-197"
              d="M134.51,45.72V58.85h-13l-2.6-2.62V48.35c1.08-.88,2.23-1.68,3.22-2.65a24.46,24.46,0,0,0,2-2.6h7.8Z"/>
        <path class="cls-197" d="M121.49,43.1l2.61-2.63V43.1Z"/>
        <path class="cls-198"
              d="M38.2,211.17a37.68,37.68,0,0,1,4.86-3.49,35,35,0,0,1,5.56-1.76v5.25c-3.08,2.49-6.65,3-10.42,2.63Z"/>
        <path class="cls-199"
              d="M51.22,198c6.36.29,11.13,3.8,15.62,7.88v5.25a6.78,6.78,0,0,0-6.53,2.5c-1.82,2.1-4.3,3.61-6.49,5.38l-2.6-2.62c-.87-1.75-1.74-3.51-2.6-5.26.86-1,2.36-2,2.48-3.15C51.43,204.73,51.22,201.37,51.22,198Z"/>
        <path class="cls-200"
              d="M66.84,211.17v-5.25l5.2-5.25V198l2.6-2.62c.23-3.93,3.24-2.23,5.21-2.63l2.6,2.63c2.73,1.93,5.3,3.19,7.48-.86.47-.87,1.93-1.19,2.93-1.77v2.63c-.88,1.32-1.5,3.44-2.68,3.83-4.63,1.53-6,5.52-7.73,9.3v2.62H66.84Z"/>
        <path class="cls-201" d="M72,211.17h2.6v18.39c-.86-1.07-2.42-2.1-2.48-3.21C71.89,221.3,72,216.23,72,211.17Z"/>
        <path class="cls-202"
              d="M92.86,119.26c-1.78-.49-3.8-.61-5.3-1.56-2.37-1.49-2.35,0-2.51,1.56h-7.8l-2.61-2.63L72,114c.87-2.62,1.74-5.25,2.6-7.87,2.71-1.76,5.38-3.55,8.13-5.24,1.32-.81,4.67,1.58,4-2-.27-1.37-3-2.87-4.88-3.17-7.26-1.23-9.17.94-9.82,10.39h-5.2V98.25l2.6-2.63c.87-.87,1.73-1.75,2.6-2.63l2.6-2.62h7.81c.22,3.93,3.23,2.23,5.21,2.62l2.6,2.63,2.6,2.63v21Z"/>
        <path class="cls-161" d="M92.86,116.63V100.87A12.6,12.6,0,0,1,92.86,116.63Z"/>
        <path class="cls-161" d="M87.66,93c-2-.39-5,1.31-5.21-2.62h5.21Z"/>
        <path class="cls-203" d="M87.66,90.37H85.05V87.74Z"/>
        <path class="cls-161" d="M92.86,98.25l-2.6-2.63Z"/>
        <path class="cls-204" d="M98.07,132.39l2.6,2.62h-2.6Z"/>
        <path class="cls-161" d="M90.26,95.62,87.66,93C88.52,93.87,89.39,94.75,90.26,95.62Z"/>
        <path class="cls-205"
              d="M66.84,100.87v5.26l2.6,7.87-.91,2.24c-5.16-3.45-7.71-8.12-6.42-14.43.08-.44,1.39-.63,2.12-.94Z"/>
        <path class="cls-161" d="M69.44,114l-2.6-7.87h7.8c-.86,2.62-1.73,5.25-2.6,7.87Z"/>
        <path class="cls-206" d="M66.84,100.87H64.23V93h5.21v2.63l-2.6,2.63Z"/>
        <path class="cls-161" d="M74.64,116.63l2.61,2.63Z"/>
        <path class="cls-207" d="M59,93V90.37L61.63,93Z"/>
        <path class="cls-161" d="M72,114l2.6,2.63Z"/>
        <path class="cls-130"
              d="M111.08,45.72l5.21,2.63v7.88l-7.81,5.25c-.87-.88-1.74-1.75-2.6-2.63C105.88,50.57,105.88,50.57,111.08,45.72Z"/>
        <path class="cls-208" d="M111.08,66.73c.87,1,2.3,2,2.49,3.11a48,48,0,0,1,.12,7.4v2.62h-2.61Z"/>
        <path class="cls-208" d="M111.08,79.86l-2.6,2.63Z"/>
        <path class="cls-209"
              d="M92.86,192.79c-1,.58-2.46.9-2.93,1.77-2.18,4.05-4.75,2.79-7.48.86.25-2.27.28-2.18,3.47-3.1,1-.29,2.34-1,2.6-1.84.81-2.66,1.19-5.45,1.74-8.19h2.6Z"/>
        <path class="cls-165" d="M121.49,192.79h-5.2c.39-2-1.29-5,2.6-5.25Z"/>
        <path class="cls-94" d="M111.08,158.65l-2.6,2.63Z"/>
        <path class="cls-210"
              d="M90.26,182.29c-.55,2.74-.93,5.53-1.74,8.19-.26.82-1.61,1.55-2.6,1.84-3.19.92-3.22.83-3.47,3.1l-2.6-2.63c-5.21-5.67-5.21-5.67-5.21-10.5Z"/>
        <path class="cls-211" d="M74.64,182.29c0,4.83,0,4.83,5.21,10.5-2,.4-5-1.3-5.21,2.63H72V182.29Z"/>
        <ellipse class="cls-212" cx="78.55" cy="154.71" rx="1.84" ry="1.86"/>
        <ellipse class="cls-213" cx="78.55" cy="152.08" rx="1.84" ry="1.86"/>
        <path class="cls-214" d="M79.85,150.77h-2.6v-2.63Z"/>
        <path class="cls-146" d="M82.45,145.52h2.6l-1.74,2.18Z"/>
        <path class="cls-208" d="M116.29,82.49h2.6v2.63Z"/>
        <path class="cls-215" d="M77.25,153.4V156l-2.61-2.62Z"/>
        <path class="cls-162" d="M85.05,87.74v2.63H74.64c1-.88,2-2.32,3.08-2.51A45.9,45.9,0,0,1,85.05,87.74Z"/>
        <ellipse class="cls-162" cx="70.74" cy="91.68" rx="1.84" ry="1.86"/>
        <path class="cls-161" d="M72,93V90.37h2.6Z"/>
        <path class="cls-147" d="M66.84,93H64.23l2.61-2.62Z"/>
        <ellipse class="cls-216" cx="68.14" cy="91.68" rx="1.84" ry="1.86"/>
        <path class="cls-217"
              d="M121.49,58.85h13c-.28.72-.52,2-.85,2.07-4.48.29-9,.43-13.47.48-.28,0-.56-1.11-.84-1.7Z"/>
        <ellipse class="cls-218" cx="117.59" cy="52.29" rx="1.84" ry="5.57"/>
        <path class="cls-90" d="M113.69,79.86V77.24l2.6,2.62Z"/>
        <path class="cls-219"
              d="M126.7,221.68v2.62c-3.79,2-7.26,1.27-7.72-1.86-.42-2.82-.09-5.75-.09-8.64,1.66.88,3.26,2.33,5,2.51C127.9,216.72,126.38,219.59,126.7,221.68Z"/>
        <path class="cls-220" d="M126.7,224.3c.87.88,1.73,1.76,2.6,2.63C128.43,226.06,127.57,225.18,126.7,224.3Z"/>
        <path class="cls-221" d="M134.51,45.72,131.9,43.1h2.61Z"/>
        <path class="cls-222" d="M51.22,198c0,3.33.21,6.69-.12,10-.12,1.13-1.62,2.11-2.48,3.15V198Z"/>
        <path class="cls-223" d="M72,198v2.63l-2.6-3.27,2.6-2Z"/>
        <path class="cls-224"
              d="M103.27,48.35c0,2.16.08,4.32-.07,6.47,0,.36-1.07.73-1.7.89-.18,0-.78-.56-.79-.88-.07-2.16,0-4.32,0-6.48Z"/>
        <ellipse class="cls-130" cx="101.97" cy="47.04" rx="1.84" ry="1.86"/>
        <path class="cls-130" d="M111.08,43.1v2.62h-2.6Z"/>
        <path class="cls-130"
              d="M118.89,48.35h-2.6V43.1h7.81a24.46,24.46,0,0,1-2,2.6C121.12,46.67,120,47.47,118.89,48.35Z"/>
        <path class="cls-186" d="M72,198v-2.62h2.6Z"/>
        <path class="cls-225"
              d="M74.64,106.13H72c.65-9.45,2.56-11.62,9.82-10.39,1.83.3,4.61,1.8,4.88,3.17.7,3.56-2.65,1.17-4,2C80,102.58,77.35,104.37,74.64,106.13Z"/>
        <path class="cls-161" d="M66.84,98.25l2.6-2.63Z"/>
        <path class="cls-161" d="M69.44,93H72c-.87.88-1.73,1.76-2.6,2.63Z"/>
    </g>
</svg>